<svg width="204" height="254" viewBox="0 0 204 254" fill="none" xmlns="http://www.w3.org/2000/svg">
<path d="M8.92096 242.3C10.6136 239.694 11.8245 236.764 14.2068 234.623C16.189 232.843 18.2028 231.086 20.0402 229.166C21.3775 227.767 22.4515 226.115 23.644 224.577C23.9914 224.13 24.3178 223.664 24.689 223.236C28.3296 219.007 32.0624 214.854 35.5871 210.528C37.035 208.75 38.3538 206.825 39.3778 204.71C40.8835 201.607 42.9421 198.824 44.9085 196C46.0693 194.332 47.2539 192.683 48.4543 191.045C49.1177 190.145 49.8811 189.317 50.5155 188.399C52.4871 185.546 54.4878 182.705 56.3357 179.768C57.2018 178.392 57.7256 176.806 58.4258 175.326C58.9786 174.147 59.5735 172.988 60.1263 171.807C60.2606 171.518 60.3027 171.184 60.387 170.868C60.2764 170.821 60.1658 170.773 60.0553 170.726C59.6236 171.633 59.255 172.58 58.7391 173.437C58.1231 174.455 57.4071 175.412 56.6858 176.359C55.2775 178.205 53.8349 180.028 52.4003 181.853C51.6316 182.832 50.8735 183.823 50.0653 184.767C48.4122 186.698 47.6225 189.128 46.2668 191.224C44.7611 193.554 43.7239 196.152 41.9418 198.34C40.9888 199.511 40.5597 201.091 39.7621 202.406C38.4328 204.592 36.9849 206.704 35.6108 208.863C33.1022 212.803 30.0381 216.256 26.5607 219.364C25.4577 220.35 24.4284 221.416 23.3807 222.46C21.0826 224.742 18.7451 226.986 16.5233 229.337C15.165 230.773 14.1226 232.519 12.7037 233.879C10.5794 235.909 9.14734 238.392 7.54158 240.78C6.65709 242.092 5.55939 243.26 4.58277 244.512C4.31163 244.856 4.12999 245.272 3.89834 245.651C2.97964 247.15 2.07937 248.662 1.11591 250.132C0.97903 250.34 0.536788 250.345 0.202474 250.453C-0.295049 249.596 0.241957 249.054 0.557844 248.486C1.21858 247.289 1.90826 246.111 2.58478 244.922C2.75326 244.622 2.87172 244.286 3.07968 244.023C4.38535 242.368 5.71734 240.735 7.02828 239.089C8.57349 237.153 10.0766 235.183 11.656 233.277C12.8485 231.835 14.1384 230.473 15.3756 229.071C16.4233 227.883 17.392 226.612 18.5187 225.503C21.2669 222.796 24.0915 220.161 26.8818 217.494C27.5583 216.847 28.2322 216.227 28.8193 215.461C30.3039 213.528 31.9729 211.737 33.5734 209.894C33.6839 209.768 33.9498 209.691 33.9603 209.578C34.0893 207.969 35.4029 207.061 36.1557 205.831C37.543 203.561 38.9698 201.317 40.3623 199.053C41.2731 197.572 42.1339 196.06 43.0553 194.585C44.1951 192.76 45.377 190.934 46.1352 188.925C47.0407 186.519 48.6833 184.651 50.1469 182.619C51.8159 180.294 53.6085 178.095 55.4381 175.902C56.6174 174.487 57.4387 172.772 58.3969 171.176C60.3896 167.851 62.3033 164.477 64.375 161.203C65.607 159.254 66.6968 157.195 68.3631 155.522C68.8106 155.075 68.9001 154.278 69.1897 153.658C69.6951 152.571 70.2058 151.488 70.7586 150.425C71.2666 149.444 71.4693 148.503 71.0324 147.401C70.469 145.981 70.1216 144.476 69.5846 143.046C69.2081 142.041 68.6316 141.115 68.2078 140.126C67.8498 139.293 67.5471 138.43 67.2786 137.565C66.4257 134.798 65.7413 131.971 64.712 129.275C64.1118 127.705 63.1536 126.182 62.0348 124.923C60.6844 123.403 60.0658 121.625 59.3709 119.768C58.7364 120.02 58.0415 120.257 57.3755 120.562C54.9089 121.693 52.316 122.135 49.6257 121.922C48.8439 121.859 48.0752 121.567 47.3197 121.317C45.0717 120.57 42.6788 120.846 40.3992 120.331C40.0096 120.244 39.5647 120.294 39.2198 120.126C37.414 119.255 35.4634 119.373 33.5523 119.237C32.0281 119.126 30.4987 119.095 28.9719 119.047C25.9815 118.958 23.4465 117.732 21.2432 115.826C19.2847 114.132 17.1814 113.159 14.5148 113.603C13.3381 113.801 12.1114 113.793 10.9953 113.193C10.3951 112.872 10.3135 112.396 10.861 112.018C11.506 111.573 12.1825 110.984 12.9064 110.879C14.5806 110.637 15.7863 109.637 17.0445 108.709C19.3216 107.023 21.8513 105.85 24.5758 105.185C26.8213 104.638 29.1325 104.343 31.4174 103.978C33.2522 103.683 34.9133 104.477 36.6296 104.89C37.2245 105.035 37.8194 105.195 38.4196 105.306C38.8645 105.387 39.3436 105.327 39.77 105.456C44.5689 106.876 49.5073 107.862 54.0745 110.021C54.6273 110.284 55.2748 110.345 55.9303 110.516C55.925 110.29 55.983 110.077 55.9013 109.979C54.651 108.499 53.4743 106.939 52.0975 105.582C50.6392 104.146 49.0229 102.871 47.4198 101.595C46.3984 100.782 45.3454 99.9381 44.1714 99.4174C43.3053 99.0308 42.1708 98.9019 41.2389 99.0834C39.4805 99.4253 37.9563 98.7968 36.4163 98.2734C35.0343 97.8026 33.5997 97.4081 32.4125 96.4219C31.9755 96.0616 31.2332 96.0353 30.6172 95.9248C29.1641 95.6697 27.9348 95.0307 26.9029 93.9682C26.4685 93.5211 25.892 93.2186 25.455 92.7794C24.4863 91.8037 23.7651 90.6939 23.1307 89.4368C21.4354 86.0783 19.5427 82.8145 17.6579 79.556C16.9419 78.3199 16.8366 77.1338 17.3183 75.8189C17.7553 74.6328 18.1949 73.423 17.3736 72.2947C17.8527 71.7109 18.316 71.6819 18.6372 72.1185C19.1821 72.8602 19.9533 73.1337 20.7431 73.494C22.5384 74.3145 23.9756 75.6821 25.2181 77.1523C26.7844 79.0064 28.7166 79.9716 31.0278 80.4791C32.3493 80.7684 33.6787 81.226 34.8711 81.8546C35.7319 82.3096 36.419 83.1328 37.1034 83.8665C38.1169 84.9501 39.0724 86.0862 40.0227 87.2223C41.4284 88.9055 41.9733 90.9858 42.4393 93.0372C42.8052 94.652 43.6765 95.9696 44.4267 97.3713C44.5452 97.5896 44.8611 97.708 45.098 97.8526C45.2928 97.9709 45.6034 98.0051 45.6955 98.1708C46.9828 100.446 49.6204 101.143 51.2868 102.968C51.729 103.457 52.2476 103.878 52.9636 104.546C52.9215 103.865 52.9873 103.46 52.8583 103.126C52.4529 102.071 51.9949 101.032 51.5184 100.004C50.1864 97.1215 48.8334 94.2469 47.4908 91.3645C47.3487 91.0621 47.1802 90.7517 47.1302 90.4282C46.7459 87.9429 45.6824 85.6733 44.919 83.309C44.2951 81.3654 43.866 79.3614 43.3343 77.3863C43.1895 76.8445 43.0789 76.2949 42.3866 76.0766C42.0602 75.9714 41.747 75.6111 41.5732 75.285C40.078 72.4972 37.6325 70.9456 34.7395 69.9751C33.397 69.5254 32.0123 69.1993 30.6882 68.7048C29.193 68.1447 27.7847 67.353 26.6686 66.209C25.6814 65.1965 24.7654 64.0814 23.9888 62.8979C22.7016 60.936 20.6957 60.005 18.7345 59.0161C17.9317 58.6111 16.9893 58.4901 16.1311 58.1877C15.6494 58.0194 15.115 57.8379 14.757 57.5039C13.1512 55.9996 11.9324 54.1954 11.4139 52.0625C11.1664 51.05 10.8874 50.1321 10.2609 49.3011C8.88937 47.4811 7.53106 45.6481 6.21223 43.7887C5.97795 43.4599 5.76999 42.9024 5.89635 42.5921C6.00164 42.3396 6.61761 42.2554 7.02037 42.1792C8.84725 41.832 10.4609 42.7025 12.1588 43.1023C13.3723 43.3889 14.5964 43.6388 15.8073 43.9333C17.8632 44.4357 19.469 45.6849 20.9984 47.0735C22.9122 48.8119 24.9523 50.3083 27.5715 50.8843C29.2852 51.2604 31.0068 51.7075 32.6257 52.3676C34.7922 53.2486 36.39 54.9397 37.8563 56.7096C39.6094 58.8189 40.9651 61.4751 41.8944 64.2629C42.0655 64.7731 42.3629 65.2438 42.8683 65.6567C42.5261 63.4292 42.1339 61.2069 41.8549 58.9714C41.5627 56.6281 40.8519 54.3769 40.4834 52.052C40.3465 51.1789 40.4729 50.2926 40.3992 49.4694C40.3255 48.662 40.2202 47.7967 40.0543 46.9893C39.7358 45.4456 39.8727 43.9439 39.8832 42.4106C39.8964 40.1331 40.4729 37.9896 41.2968 35.9383C41.8128 34.6443 42.5762 33.2899 43.6028 32.3905C46.0351 30.2655 48.3569 27.9248 51.5474 26.8439C52.5687 26.502 52.7214 26.0497 52.5319 25.0029C52.2555 23.4697 51.7632 21.9233 51.8185 20.3979C51.8922 18.3939 51.8422 16.311 53.6454 14.6856C54.9748 13.489 55.7092 11.7874 56.3594 10.0412C57.0728 8.12129 58.2416 6.36711 59.2866 4.58138C59.9868 3.38475 60.7608 2.22231 61.6137 1.13088C61.9664 0.678527 62.6061 0.447091 63.2931 0C63.5116 0.602259 63.7406 0.994121 63.7933 1.40702C64.0223 3.27429 64.2855 5.14418 64.3698 7.01934C64.4066 7.89511 64.225 8.86294 63.8591 9.65718C63.1984 11.0958 62.3955 12.4844 61.5189 13.8046C60.0658 15.9875 59.2234 18.3676 58.8496 20.937C58.5838 22.7859 57.5124 24.2271 56.2462 25.45C54.8589 26.7887 54.6036 28.1983 55.2275 29.9394C56.0698 32.2879 57.0965 34.6128 57.5677 37.0402C58.1205 39.8753 58.2389 42.742 56.8832 45.5771C55.4381 48.5989 54.622 51.8811 54.2903 55.2421C54.1034 57.1436 53.7428 58.8951 52.3239 60.3732C50.397 62.3772 48.6359 64.539 46.8143 66.6403C45.4902 68.1657 44.4004 69.7279 44.3925 71.9371C44.3846 73.8911 44.4452 75.8189 45.2007 77.602C45.4534 78.199 46.4089 78.5014 47.0433 78.938C46.8196 79.1089 46.5932 79.2772 46.3694 79.4456C46.6195 78.1332 46.7854 76.7998 47.1434 75.5164C47.533 74.1252 48.02 72.8207 49.1098 71.6767C50.497 70.2197 51.6158 68.5365 52.266 66.4983C53.2005 63.5738 53.7349 60.5467 54.7457 57.6591C55.3143 56.0337 55.7987 54.3611 57.1333 53.0961C58.1442 52.1388 59.105 51.0973 59.9236 49.977C60.9503 48.5726 62.3534 47.6705 63.8828 47.1208C65.4648 46.5501 67.1943 46.253 68.8791 46.1372C70.2663 46.0426 71.6905 46.5685 73.083 46.5028C75.1047 46.4055 77.1264 46.0873 79.127 45.7454C80.5143 45.506 81.8647 45.0537 83.2388 44.7276C84.1285 44.5146 85.0025 44.3042 85.8501 45.0037C86.2081 45.2983 86.8004 45.3088 87.3032 45.4508C87.219 46.2082 86.7952 46.4449 86.145 46.7684C84.2602 47.7126 82.5228 48.9408 80.659 49.9349C78.5242 51.0763 76.7236 52.5964 75.1205 54.3742C74.0807 55.5288 73.4331 56.8622 73.0014 58.3902C72.396 60.5231 71.4694 62.5613 70.7349 64.66C70.3795 65.6699 70.0663 66.7113 69.8715 67.766C69.5609 69.4596 68.8659 70.9035 67.5655 72.0607C66.5731 72.9443 65.5307 73.3283 64.1618 72.9496C63.1457 72.6682 62.0927 72.8865 61.3372 73.7491C59.3919 75.9714 56.7806 77.3311 54.4377 79.0274C53.7533 79.5245 52.7214 79.5718 51.8317 79.7533C51.1709 79.8874 50.4813 79.8769 49.8153 79.99C49.0492 80.1215 48.2253 80.1083 47.9094 81.1393C47.8278 81.4075 47.1197 81.4864 46.7933 81.6153C47.8436 84.7607 48.786 87.5511 49.6994 90.3493C49.9811 91.212 50.1074 92.1298 50.4339 92.974C51.3763 95.412 52.4082 97.8184 53.3611 100.254C53.8349 101.471 54.1587 102.747 54.6457 103.957C54.9563 104.733 55.2643 105.679 55.8777 106.134C57.6466 107.447 59.1945 108.89 60.079 110.963C63.4827 111.468 67.0127 111.326 70.0794 113.527C69.9478 111.134 71.0666 109.172 72.0985 107.215C72.6934 106.087 73.6069 105.127 74.3597 104.078C75.2995 102.773 75.5285 101.229 75.6996 99.6988C75.8181 98.6311 75.7865 97.5423 75.7838 96.4666C75.7812 94.9386 75.5864 93.3922 75.7654 91.8905C75.9102 90.6886 76.4472 89.5209 76.8947 88.369C77.4212 87.0093 78.0267 85.6812 78.6189 84.3452C78.7795 83.9875 78.9717 83.6219 79.2218 83.3274C80.28 82.0913 80.7433 80.6185 81.2145 79.0932C81.454 78.3199 81.483 77.0313 82.8545 76.9997C83.9258 74.6328 86.5898 74.2146 88.2719 72.584C89.4855 71.4032 90.7806 70.3433 91.5177 68.7311C91.9046 67.8896 92.6522 67.2137 93.3261 66.3458C94.2343 66.1301 94.4554 66.9849 94.6134 67.6397C94.7845 68.3367 94.8477 69.144 94.6687 69.8252C94.2817 71.3032 94.3554 72.7392 94.5028 74.2304C94.745 76.7236 94.6739 79.2509 95.0188 81.7257C95.2794 83.5983 95.5558 85.4366 95.3978 87.3302C95.2978 88.4873 95.0319 89.5577 94.3975 90.5676C93.5631 91.8958 93.0366 93.4579 92.0415 94.6414C90.491 96.4877 89.6487 98.7021 88.4483 100.722C87.4506 102.405 86.0002 103.544 84.2839 104.075C82.4412 104.646 81.0144 105.695 79.7009 106.936C78.2346 108.32 76.7552 109.543 74.8099 110.266C73.9306 110.592 73.1778 111.365 72.2222 111.747C71.8589 111.889 71.6141 112.546 71.4904 113.014C71.1324 114.377 70.8718 115.763 70.5585 117.135C70.04 119.408 69.4793 121.669 69.0133 123.952C68.8922 124.541 68.9054 125.251 69.1239 125.801C70.3585 128.902 70.956 132.155 71.7115 135.382C72.1353 137.194 72.9803 138.925 73.7595 140.634C74.3834 142.007 74.8362 143.364 74.6072 144.887C74.5861 145.031 74.7098 145.194 74.8204 145.502C75.4127 144.792 75.9865 144.198 76.4472 143.527C77.9556 141.334 79.3665 139.09 81.204 137.115C82.1306 136.118 82.5201 134.63 83.2283 133.41C84.1707 131.792 85.2052 130.23 86.1634 128.62C86.7451 127.639 87.2822 126.63 87.7876 125.609C88.9327 123.297 90.4516 121.28 92.3574 119.537C92.7865 119.145 92.9523 118.469 93.3709 118.056C95.6953 115.757 98.0881 113.527 100.397 111.21C101.318 110.287 102.395 109.601 103.419 108.827C104.082 108.325 104.582 107.612 105.225 107.076C106.97 105.619 108.931 104.364 110.455 102.707C111.369 101.713 112.945 100.924 112.748 99.1413C113.969 97.082 114.441 94.7861 115.014 92.4954C115.257 91.517 114.878 90.7307 114.904 89.847C114.972 87.6195 114.964 85.384 114.888 83.1538C114.806 80.7264 114.554 78.3042 114.506 75.8767C114.485 74.8142 114.87 73.7491 114.93 72.6761C114.996 71.5636 114.978 70.4301 114.835 69.3229C114.717 68.3787 114.293 67.4767 114.151 66.5325C113.975 65.3595 113.422 64.5048 112.648 63.5975C110.397 60.957 108.304 58.185 106.178 55.4394C105.835 54.9975 105.538 54.4689 105.39 53.935C104.832 51.9073 103.527 50.3057 102.445 48.5752C101.963 47.802 101.444 47.0393 101.055 46.2214C100.257 44.5461 100.95 43.005 101.56 41.448C101.913 40.5565 102.242 39.6307 102.389 38.6892C102.703 36.6642 102.998 34.6233 103.105 32.5798C103.219 30.4391 103.048 28.2878 103.105 26.1443C103.134 25.1423 103.419 24.1508 103.574 23.1541C103.629 22.8017 103.653 22.444 103.674 22.089C103.735 20.9318 103.719 19.7667 103.874 18.6253C103.932 18.2072 104.398 17.8495 104.751 17.3603C106.691 19.125 108.794 20.2085 110.963 21.2316C112.479 21.9496 113.806 23.0726 115.18 24.0693C115.48 24.285 115.617 24.7242 115.83 25.0608C116.649 26.36 117.52 27.6303 118.268 28.9742C118.763 29.8657 119.263 30.8257 119.426 31.8119C119.713 33.5477 119.905 35.3308 119.84 37.0797C119.748 39.5045 119.879 41.8715 120.603 44.1858C121.582 47.3128 121.751 50.574 121.993 53.7904C122.122 55.4893 121.466 57.2461 121.187 58.9793C120.743 61.7591 118.95 63.9525 117.965 66.4931C117.315 68.1736 116.889 69.9436 116.433 71.6898C115.278 76.0976 115.996 80.5528 116.138 84.9895C116.191 86.557 116.228 88.1244 116.568 89.7418C116.683 89.229 116.852 88.724 116.907 88.2033C117.202 85.3709 118.402 82.8724 119.621 80.3503C120.511 78.5119 121.182 76.5631 121.896 74.6433C122.311 73.5229 122.741 72.3868 122.941 71.2191C123.138 70.0645 123.08 68.8626 123.088 67.6844C123.104 65.5358 123.056 63.3845 123.091 61.2384C123.117 59.642 123.012 58.072 122.875 56.4808C122.701 54.4374 122.309 52.2361 123.812 50.3846C124.983 48.9381 126.039 47.3944 127.292 46.0241C128.184 45.0511 128.634 43.8807 128.945 42.7209C129.306 41.3744 130.14 40.4592 131.156 39.8043C133.165 38.5104 135.315 37.4321 137.414 36.2775C137.603 36.1723 137.843 36.1539 138.058 36.0935C138.859 36.6747 138.901 37.4163 138.701 38.2448C137.911 41.5138 138.235 44.8249 138.293 48.1307C138.319 49.7219 138.453 51.3472 138.187 52.8988C138.016 53.8877 137.371 54.9371 136.637 55.6498C135.808 56.4598 135.647 57.2067 135.634 58.3165C135.608 60.694 135.566 63.0978 134.65 65.3806C134.012 66.9664 133.604 68.6417 132.988 70.2381C132.354 71.8845 131.351 73.1626 129.529 73.7754C127.863 74.3382 126.284 75.1693 124.686 75.9267C123.693 76.4027 122.914 77.076 122.409 78.1411C121.801 79.414 120.721 80.5028 120.303 81.8178C119.697 83.7087 118.602 85.4182 118.418 87.4774C118.234 89.4972 117.76 91.4934 117.436 93.5027C117.365 93.9445 117.384 94.4021 117.349 95.0964C118.6 93.0372 120.005 91.4434 121.543 89.9101C122.259 89.1974 122.775 88.1612 123.609 87.4985C125.276 86.1756 127.031 84.9632 128.7 83.6456C129.819 82.7593 130.819 81.7257 131.928 80.8316C134.784 78.5277 136.927 75.5559 139.427 72.9207C141.278 70.9745 142.426 68.5944 142.942 65.9881C143.189 64.7441 142.942 63.4029 142.957 62.1063C142.976 60.4073 143.036 58.711 143.071 57.0121C143.086 56.2731 143.107 55.5314 143.081 54.7924C143.036 53.6089 142.949 52.4596 143.476 51.3051C144.547 48.9565 143.955 46.6448 143.089 44.3725C142.768 43.5283 142.439 42.6815 142.21 41.811C141.76 40.1041 141.223 38.3999 141.017 36.6615C140.844 35.1782 140.991 33.6371 141.159 32.138C141.296 30.9019 141.673 29.6921 141.947 28.4719C142.02 28.1457 142.044 27.7802 142.204 27.4988C142.984 26.1128 143.676 24.6505 144.647 23.4092C145.685 22.0837 146.369 20.6609 146.993 19.1145C147.859 16.9658 149.051 14.946 150.104 12.8736C150.157 12.771 150.189 12.6185 150.27 12.5817C152.381 11.6717 153.121 9.30214 154.998 8.15548C155.638 7.76362 155.738 6.638 156.877 6.86154C157.214 7.87933 156.804 8.83927 156.488 9.78342C155.556 12.5633 155.282 15.2984 156.485 18.1072C157.704 20.9528 158.241 24.0141 158.565 27.0596C158.844 29.6895 158.107 32.2905 157.362 34.8153C156.814 36.672 156.032 38.4578 155.403 40.2909C155.019 41.4112 154.777 42.5842 154.377 43.6966C153.495 46.153 152.268 48.3517 149.965 49.8297C148.135 51.0026 146.464 52.3807 145.229 54.2296C144.739 54.9607 144.421 55.6235 144.434 56.5781C144.458 58.0088 144.605 59.4053 144.753 60.8229C144.911 62.3588 144.697 63.9578 144.479 65.5042C144.197 67.4924 143.747 69.4544 143.297 71.8187C144.202 71.0192 144.932 70.4906 145.524 69.8357C147.519 67.6266 149.725 65.7435 152.337 64.2287C155.819 62.2062 159.233 60.0102 162.169 57.2172C163.403 56.0443 164.332 54.5557 165.412 53.2197C166.549 51.81 167.694 50.403 168.85 49.0039C170.555 46.942 172.303 44.9196 174.428 43.2627C176.742 41.4559 179.34 40.2251 182.151 39.373C184.591 38.6314 186.966 37.6819 189.401 36.9219C190.814 36.4801 192.273 36.1013 193.736 35.9409C194.716 35.8331 195.747 36.1355 196.748 36.2986C197.761 36.4669 198.762 36.7167 199.778 36.8798C200.496 36.9982 201.11 37.2085 201.41 37.9449C201.473 38.1001 201.557 38.2947 201.689 38.3684C202.918 39.0653 203.15 40.2041 202.886 41.4112C202.581 42.8103 203.184 43.8334 204 44.8354C203.621 45.9558 202.844 46.7027 201.905 47.2497C199.78 48.4858 197.622 49.6614 195.479 50.858C194.779 51.2499 194.034 51.576 193.386 52.0388C191.549 53.3564 189.588 54.3059 187.347 54.8082C186.226 55.058 185.157 55.7629 184.191 56.444C181.498 58.3428 178.5 59.0135 175.278 58.8031C171.674 58.5638 168.123 59.0135 164.543 59.3186C162.237 59.5132 160.576 60.4994 158.87 61.7591C158.009 62.393 157.03 62.869 156.151 63.4818C154.042 64.944 151.96 66.4457 149.867 67.9343C149.728 68.0342 149.591 68.1368 149.459 68.2472C148.072 69.4202 146.616 70.5274 145.316 71.7924C144.137 72.9417 142.978 74.1147 141.889 75.3718C140.63 76.8261 139.08 78.0543 137.54 79.2325C135.958 80.4423 134.199 81.4207 132.588 82.5936C128.824 85.3367 124.807 87.7799 121.89 91.5355C121.864 91.5723 121.88 91.6407 121.864 91.8773C122.598 91.7432 123.333 91.7169 123.98 91.4697C126.207 90.6097 128.505 90.4651 130.861 90.473C132.733 90.4782 134.571 90.089 136.324 89.3657C137.053 89.0659 137.824 88.7503 138.595 88.6925C141.417 88.4768 143.602 87.0829 145.679 85.2998C147.224 83.9743 148.98 82.8961 150.589 81.6363C153.766 79.151 156.877 76.5842 160.065 74.1147C161.624 72.9075 163.269 71.8082 164.919 70.7273C165.572 70.2986 166.315 69.9699 167.062 69.7358C168.886 69.1598 170.713 68.5339 172.585 68.1762C174.185 67.8685 175.881 67.6581 177.481 67.8449C179.706 68.1078 181.901 68.0263 184.112 67.9632C184.549 67.95 184.976 67.7397 185.41 67.6318C187.637 67.0848 189.711 65.9881 192.062 65.8645C192.494 65.8408 192.983 65.4674 193.31 65.1255C194.047 64.347 194.547 63.2188 195.421 62.7112C197.327 61.6119 198.756 59.4027 201.633 60.0996C201.583 60.4363 201.633 61.0201 201.402 61.4567C199.862 64.3786 198.006 67.069 195.55 69.3203C195.1 69.7332 194.726 70.2644 194.423 70.7983C193.268 72.8286 192.165 74.8747 191.559 77.1707C191.109 78.8933 189.674 80.0268 188.371 81.0419C186.966 82.136 185.297 83.0092 183.607 83.5956C181.738 84.2479 180.093 85.3314 178.245 85.9863C176.539 86.5911 174.899 87.5458 173.148 87.8009C170.282 88.2165 167.352 88.2927 164.482 87.4906C163.056 87.0935 161.645 86.7752 160.11 87.2355C157.946 87.8798 155.74 87.3302 153.705 86.699C151.515 86.0231 149.541 86.6595 147.461 86.8778C145.706 87.0619 144.476 88.2086 142.986 88.866C140.546 89.9443 138.132 91.0831 135.376 91.183C134.249 91.2225 133.183 91.5644 132.133 92.1325C130.556 92.9846 128.924 93.7525 127.073 94.0181C124.954 94.3258 123.133 95.4883 121.28 96.5087C120.79 96.7769 120.213 96.9505 119.816 97.3161C118.913 98.1393 118.097 99.0597 117.247 99.9408C117.315 100.043 117.381 100.146 117.449 100.251C118.144 100.033 118.85 99.8303 119.542 99.5936C121.251 99.0098 122.925 98.2839 124.673 97.8552C125.963 97.5396 127.366 97.4134 128.687 97.537C132.159 97.8579 135.647 97.9867 139.088 98.7941C140.82 99.2018 142.747 99.5121 144.579 98.7678C144.987 98.6048 145.519 98.4654 145.911 98.5863C147.427 99.0492 148.835 98.5969 150.268 98.2445C150.654 98.1498 151.065 97.9341 151.426 97.9946C154.498 98.5153 157.665 98.5285 160.61 99.7093C160.923 99.8356 161.295 99.9776 161.484 100.23C162.898 102.097 165.254 102.555 166.994 103.957C167.876 104.667 169.137 104.953 170.266 105.306C172.274 105.932 173.362 107.402 174.257 109.172C175.173 110.984 176.334 112.678 177.179 114.519C177.692 115.634 178.016 116.92 178.058 118.145C178.134 120.184 177.934 122.235 177.805 124.278C177.784 124.62 177.55 124.952 177.413 125.286C177.036 125.109 176.518 125.036 176.302 124.741C175.096 123.087 173.517 122.095 171.5 121.759C170.429 121.58 169.366 121.346 168.294 121.157C165.043 120.589 163.137 118.398 161.689 115.678C161.045 114.471 160.5 113.212 159.876 111.991C159.228 110.721 158.017 110.019 156.912 109.238C155.98 108.58 154.958 108.046 153.995 107.431C152.442 106.442 151.305 105.038 150.21 103.591C149.691 102.907 149.125 102.26 148.609 101.577C147.809 100.519 146.866 100.291 145.487 100.38C142.649 100.561 139.77 100.454 136.987 99.6883C135.9 99.3911 134.865 99.0545 133.715 99.4332C133.246 99.5857 132.688 99.4989 132.172 99.47C130.353 99.3674 128.592 99.5095 126.902 100.309C126.197 100.643 125.349 100.664 124.607 100.943C122.338 101.792 120.087 102.697 117.834 103.586C117.623 103.67 117.434 103.896 117.236 103.899C114.699 103.93 113.43 105.745 111.937 107.407C110.316 109.211 108.405 110.75 106.662 112.449C105.891 113.198 105.206 114.037 104.509 114.858C103.972 115.486 103.479 116.149 102.998 116.762C104.722 116.651 106.385 116.591 108.039 116.428C110.013 116.236 111.977 115.957 113.948 115.713C114.341 115.665 114.735 115.636 115.122 115.56C116.341 115.326 117.542 115.179 118.629 114.387C120.332 113.146 122.182 112.104 123.97 110.979C124.165 110.858 124.349 110.666 124.56 110.632C127.621 110.134 130.525 108.612 133.762 109.219C135.029 109.459 136.2 110.121 137.545 110.006C138.964 109.882 140.385 109.832 141.802 109.706C143.576 109.548 145.229 108.677 147.059 108.812C148.38 108.909 149.707 109.109 150.986 109.338C151.739 109.474 152.381 110.592 152.939 111.365C153.453 112.07 154.034 112.57 154.832 112.93C156.19 113.54 157.001 114.771 157.675 115.997C158.67 117.814 160.189 119.058 161.905 120.357C161.761 120.702 161.597 121.083 161.434 121.467C159.186 120.899 157.049 120.594 154.885 121.128C153.892 121.372 152.853 121.538 151.944 121.972C150.468 122.674 148.886 122.877 147.33 123.024C145.932 123.158 144.374 123.192 143.102 122.706C140.586 121.74 138.414 122.503 136.182 123.405C135.708 123.597 135.279 123.905 134.802 124.084C131.446 125.351 128.298 125.049 125.539 122.648C124.302 121.569 123.212 120.323 122.059 119.15C120.295 117.351 118.326 116.236 115.659 116.865C114.391 117.164 113.053 117.159 111.761 117.369C109.916 117.672 108.11 118.093 106.338 118.763C104.108 119.608 101.768 120.152 99.5044 120.907C98.7699 121.151 98.0144 121.538 97.459 122.061C95.3452 124.06 93.2393 126.075 91.2623 128.205C89.0432 130.598 87.2242 133.257 86.1028 136.389C85.2105 138.89 84.2259 141.399 82.9124 143.693C81.8568 145.539 80.2379 147.062 78.8848 148.74C78.3504 149.405 77.8845 150.12 77.3554 150.791C76.155 152.308 74.8836 153.744 73.4989 155.117C71.5615 157.042 69.9978 159.333 68.1631 161.369C66.8521 162.82 65.9782 164.543 65.0595 166.202C64.1039 167.93 63.6327 169.924 62.9167 171.791C61.7347 174.886 60.3949 177.919 58.4048 180.593C57.1202 182.321 55.6144 183.889 54.3482 185.63C53.4532 186.866 52.7688 188.262 52.037 189.612C51.1657 191.216 50.3417 192.846 49.502 194.469C49.3256 194.811 49.1703 195.169 48.9044 195.734C50.4997 195.263 51.8659 194.785 53.269 194.477C54.0139 194.314 54.8247 194.445 55.6039 194.456C55.8197 194.459 56.0382 194.551 56.2462 194.524C59.7973 194.114 63.3958 193.912 66.8837 193.188C68.8817 192.773 70.8455 192.042 72.8935 192.065C75.7312 192.1 78.5979 192.186 81.3987 192.615C83.8574 192.991 85.7054 192.607 87.1979 190.477C88.7563 188.249 90.5884 186.211 92.1942 184.012C92.876 183.074 93.3577 181.964 93.8026 180.88C94.4054 179.405 94.7766 177.827 95.4478 176.386C96.2797 174.602 96.0744 172.696 96.385 170.852C96.4955 170.195 96.535 169.416 96.9167 168.935C97.8591 167.741 98.6725 166.465 99.8624 165.416C100.939 164.467 101.376 162.915 101.626 161.387C102.045 158.833 101.394 156.395 101.034 153.921C100.976 153.526 100.85 153.142 100.826 152.748C100.747 151.298 100.786 149.905 102.163 148.918C102.853 148.424 103.345 147.651 104.045 147.183C106.77 145.365 108.01 142.838 108.202 139.603C108.286 138.212 108.768 136.805 109.292 135.492C109.884 134.017 112.316 133.751 113.546 135.051C114.67 136.231 115.891 137.381 116.223 139.138C116.378 139.961 116.818 140.731 117.123 141.523C118.36 144.734 119.205 148.05 119.5 151.475C119.711 153.926 119.203 156.351 118.774 158.76C118.713 159.086 118.555 159.428 118.35 159.691C116.636 161.863 115.483 164.327 114.37 166.836C112.961 170.013 110.774 172.598 107.991 174.695C105.906 176.265 103.437 176.793 100.976 177.296C99.5017 177.595 98.0566 177.85 96.8404 178.834C96.5508 179.068 96.1033 179.108 95.6111 179.279C94.9029 182.826 92.5838 185.596 90.4516 188.47C90.1172 188.923 89.7566 189.359 89.2249 190.035C89.8198 189.961 90.1804 189.969 90.5068 189.869C93.2498 189.033 96.0296 188.499 98.9174 188.481C100.552 188.468 102.187 188.236 103.822 188.086C103.977 188.073 104.137 187.955 104.269 187.852C105.501 186.903 106.986 186.272 107.868 184.88C108.844 183.339 109.818 181.787 110.905 180.32C112.056 178.768 113.314 177.29 114.572 175.82C116.702 173.332 118.826 170.839 121.043 168.427C121.796 167.609 122.793 167.005 123.717 166.358C126.102 164.685 128.79 163.814 131.638 163.262C133.71 162.862 135.713 162.121 137.761 161.587C141.102 160.711 144.455 160.653 147.793 161.6C148.562 161.818 149.328 162.079 149.68 162.936C150.02 163.762 149.625 165.54 148.701 166.2C147.49 167.057 147.077 168.141 147.201 169.556C147.274 170.389 146.93 171.026 146.308 171.665C144.695 173.319 142.715 174.326 140.593 175.021C139.169 175.486 137.945 176.212 136.666 176.948C134.552 178.169 132.886 179.947 130.872 181.269C130.756 181.346 130.727 181.551 130.564 181.898C132.351 182.027 134.007 182.342 135.687 181.964C136.969 181.674 138.23 181.28 139.514 181.014C141.015 180.707 142.536 180.501 144.042 180.223C144.761 180.089 145.495 179.962 146.179 179.712C147.575 179.202 148.975 178.837 150.452 178.566C152.192 178.242 153.834 177.372 155.519 176.738C155.94 176.58 156.348 176.309 156.78 176.272C158.046 176.159 158.586 175.021 159.51 174.437C159.665 174.339 159.736 174.04 159.757 173.824C160.11 170.676 161.247 167.765 162.537 164.919C163.666 162.423 165.304 160.324 167.544 158.628C169.173 157.397 170.711 156.043 172.593 155.236C173.446 154.87 174.451 154.825 175.396 154.728C176.747 154.589 178.203 154.857 179.311 153.823C179.961 153.216 180.487 152.482 181.067 151.801C181.73 151.02 182.243 149.952 183.083 149.518C184.715 148.676 186.25 147.488 188.242 147.472C189.635 147.461 190.943 147.101 192.154 146.352C192.565 146.099 193.141 146.131 193.626 145.983C195.108 145.539 196.327 144.653 197.543 143.729C198.127 143.285 198.883 143.067 199.659 142.701C200.104 144.045 199.833 145.129 199.435 146.089C198.546 148.237 197.477 150.312 196.508 152.429C195.471 154.704 194.492 157.005 193.428 159.267C193.149 159.864 192.694 160.385 192.265 160.895C191.875 161.358 191.428 161.779 190.978 162.186C190.525 162.594 190.09 163.086 189.551 163.325C188.432 163.82 186.834 165.408 186.581 166.6C185.826 170.155 183.294 171.746 180.056 172.562C179.627 172.669 179.134 172.506 178.703 172.604C177.555 172.861 176.355 173.04 175.302 173.524C172.311 174.897 169.258 175.754 165.933 175.97C162.656 176.183 159.37 176.572 156.301 178.045C153.905 179.197 151.378 180.091 148.878 181.014C148.267 181.24 147.532 181.143 146.851 181.172C145.187 181.243 143.555 181.517 142.081 182.292C141.204 182.753 140.391 183.184 139.361 183.01C139.127 182.971 138.859 183.142 138.324 183.3C141.346 184.175 144.113 184.462 146.932 184.686C149.067 184.854 151.057 184.578 153.053 184.068C153.971 183.836 154.822 183.305 155.667 182.842C157.293 181.951 159.152 181.901 160.879 181.367C162.508 180.864 164.261 180.749 165.883 180.223C168.726 179.297 171.485 179.715 174.312 180.246C175.573 180.483 176.923 180.275 178.229 180.223C179.914 180.157 181.596 179.931 183.275 179.968C186.081 180.028 188.903 180.136 191.641 181.354C191.517 181.995 191.404 182.592 191.288 183.192C189.769 183.763 188.256 184.265 186.8 184.896C185.357 185.519 183.904 186.098 182.414 186.595C182.122 186.692 181.875 186.982 181.643 187.221C180.795 188.102 180.006 189.041 179.116 189.875C177.781 191.124 176.073 191.673 174.346 192.092C172.588 192.512 170.808 192.912 169.015 193.117C166.304 193.428 163.669 193.125 161.342 191.492C159.594 190.269 157.757 189.18 156.019 187.934C154.848 187.095 153.358 186.69 151.994 186.132C151.697 186.011 151.323 186.003 150.997 186.04C147.856 186.361 144.745 186.064 141.654 185.569C140.307 185.354 138.969 185.017 137.666 184.609C136.008 184.091 134.352 183.736 132.615 184.031C132.064 184.126 131.506 184.215 130.983 184.396C129.137 185.043 127.284 185.443 125.291 185.406C123.601 185.372 121.901 185.677 120.206 185.832C120.184 185.956 120.161 186.077 120.14 186.198C120.558 186.348 121.001 186.671 121.387 186.616C122.588 186.445 123.557 187.021 124.415 187.597C127.095 189.409 130.085 190.427 133.081 191.552C136.655 192.894 140.288 192.949 143.979 193.028C145.898 193.067 147.854 192.87 149.662 193.922C150.304 194.296 151.197 194.288 151.984 194.361C154.132 194.556 156.283 194.719 158.438 194.848C158.818 194.871 159.21 194.603 159.594 194.616C160.5 194.651 161.405 194.753 162.305 194.869C162.698 194.919 163.095 195.208 163.456 195.158C165.133 194.929 166.591 195.639 168.11 196.118C168.921 196.373 169.616 196.768 170.355 197.217C173.43 199.093 176.426 201.194 180.024 202.02C181.369 202.327 182.759 202.441 184.102 202.759C184.549 202.864 184.915 203.324 185.278 203.592C184.478 205.044 183.309 205.328 182.022 205.583C179.792 206.028 177.568 206.414 175.315 206.738C172.706 207.111 170.719 206.015 168.557 205.155C165.749 204.039 162.94 203.377 159.818 203.482C156.454 203.598 152.971 203.456 149.862 201.715C147.138 201.612 145.537 199.6 143.676 198.051C142.81 197.33 142.06 196.476 141.225 195.713C140.209 194.787 138.893 194.566 137.616 194.24C134.96 193.562 132.307 192.87 129.669 192.123C129.082 191.958 128.513 191.605 128.029 191.221C126.597 190.082 124.602 189.959 123.309 188.578C123.233 188.497 123.13 188.42 123.025 188.394C120.466 187.718 118.015 186.608 115.207 187.324C112.806 187.931 110.292 188.086 107.865 188.617C106.093 189.007 104.301 189.501 102.669 190.269C100.094 191.487 97.5459 192.749 94.7687 193.42C91.8388 194.125 88.8853 194.751 85.9344 195.366C83.9811 195.774 82.02 196.173 80.0431 196.439C78.9269 196.589 77.7713 196.421 76.6341 196.47C74.9362 196.542 73.2304 196.602 71.5483 196.805C69.3634 197.07 67.197 197.465 65.0226 197.82C62.1401 198.29 59.2392 198.359 56.3225 198.306C53.1031 198.251 49.939 198.756 46.888 199.745C46.1036 200 45.3402 200.728 44.8506 201.436C42.3629 205.036 40.0859 208.787 37.5088 212.321C35.1633 215.543 32.5257 218.554 30.0223 221.663C29.1983 222.686 28.4375 223.764 27.5741 224.756C26.0394 226.515 24.489 228.261 22.8779 229.952C19.6427 233.348 16.8682 237.103 14.2542 240.975C13.5066 242.084 13.1012 243.418 12.4984 244.628C10.9637 247.707 9.02889 250.511 6.63078 252.991C6.16748 253.469 5.70944 253.838 4.91709 253.554C4.88023 252.688 5.4778 252.078 5.98848 251.573C8.17863 249.406 9.71331 246.776 11.0374 244.078C12.5563 240.982 14.3779 238.105 16.347 235.302C17.1209 234.197 17.9369 233.124 18.6687 231.988C16.0021 233.524 14.0146 235.744 12.2378 238.174C11.5692 239.089 11.0085 240.086 10.3662 241.019C9.98972 241.561 9.7765 242.324 8.88938 242.279L8.92096 242.3ZM61.1161 172.154C62.077 171.612 61.7505 170.573 61.8111 169.7C61.59 170.531 61.3688 171.362 61.1451 172.191C60.4317 172.562 60.3343 173.24 60.4817 174.005C60.6923 173.39 60.9029 172.772 61.1161 172.154ZM114.717 100.646C113.814 100.669 113.209 101.229 112.83 102.426C113.917 102.279 114.08 101.214 114.699 100.638C114.97 100.149 115.243 99.6594 115.612 98.9887C114.649 99.3622 114.467 99.8961 114.717 100.646ZM67.8998 131.39C67.8814 131.829 67.5418 132.326 68.3289 132.91C68.1973 132.205 68.4737 131.711 67.8603 131.413C68.2368 129.701 68.1236 129.354 66.7231 128.407C67.1601 129.509 67.5286 130.451 67.8998 131.39ZM74.4703 151.924C75.9944 151.456 76.2577 150.044 76.7894 148.834C77.0474 148.669 77.3791 148.558 77.5528 148.329C78.1319 147.567 78.5268 146.615 79.2244 145.996C80.9433 144.474 81.9147 142.493 82.9229 140.521C83.2493 139.879 83.4731 139.188 83.7442 138.52C83.6363 138.454 83.5231 138.391 83.4125 138.328C82.7465 139.24 82.0805 140.155 81.4145 141.071C81.6857 139.982 82.2622 139.067 82.7176 138.099C83.2204 137.036 83.6126 135.924 84.0548 134.835C85.0499 134.241 85.1578 133.11 85.658 132.218C85.013 133.031 84.0812 133.675 84.0864 134.872C83.8442 135.064 83.5363 135.214 83.3757 135.456C81.8778 137.723 80.3721 139.984 78.9348 142.288C77.5581 144.487 75.4574 146.238 74.9204 148.953C74.2202 148.987 73.8859 148.679 73.8095 148.087C73.6305 146.678 73.4963 145.26 73.2936 143.856C73.162 142.946 72.9382 142.052 72.7566 141.152C72.6171 141.178 72.4776 141.205 72.338 141.231C72.8092 144.545 73.2831 147.856 73.7964 151.443C74.7177 150.265 75.5548 149.355 76.2077 148.329C77.1264 146.891 77.9003 145.36 78.7506 143.879C79.2533 143.006 79.9562 142.312 80.9144 141.365C80.7907 142.017 80.8144 142.336 80.6748 142.543C79.8588 143.764 78.9585 144.931 78.1793 146.175C77.6476 147.025 77.2659 147.972 76.8184 148.876C75.7101 149.652 75.0915 150.799 74.4966 151.961C73.7121 152.448 72.8092 152.821 72.6197 153.905C73.5726 153.571 74.1912 152.911 74.4703 151.924ZM47.0012 197.704C47.4514 197.983 47.6698 197.467 47.9252 197.425C48.3569 197.357 48.8518 197.709 49.3283 197.856C49.4099 197.883 49.531 197.743 49.6389 197.73C51.7027 197.47 53.7744 196.968 55.8329 197.023C59.0839 197.112 62.2928 197.073 65.507 196.352C64.4909 195.611 63.5037 195.295 62.3402 195.363C60.2975 195.479 58.2468 195.779 56.2146 195.692C53.8139 195.587 51.579 196.21 49.2967 196.697C48.8281 196.797 48.3385 196.807 47.9015 196.852C47.3013 195.032 48.528 193.756 48.865 192.173C47.4013 193.031 45.5429 195.805 45.2296 197.388C45.8219 197.501 46.4168 197.615 47.017 197.738C46.251 197.83 45.485 197.922 44.6479 198.025C43.15 200.116 41.6206 202.335 40.6598 204.884C41.768 203.521 42.7025 202.043 43.7397 200.644C44.4215 199.724 44.9453 198.532 46.4326 198.564C46.6169 198.567 46.8117 198.004 47.0012 197.704ZM103.482 112.181L103.511 112.223C103.535 112.112 103.519 111.947 103.587 111.899C105.562 110.532 107.13 108.743 108.757 107.013C109.292 106.445 109.671 105.866 109.629 104.814C109.036 105.372 108.644 105.763 108.228 106.126C104.669 109.232 101.1 112.325 97.5485 115.442C96.9115 115.999 96.3323 116.623 95.7664 117.254C94.4317 118.74 93.084 120.215 91.8151 121.756C90.9754 122.771 90.2015 123.852 89.5171 124.975C88.8089 126.135 88.2561 127.387 87.6086 128.586C87.1032 129.522 86.5556 130.438 86.0265 131.361C86.1476 131.434 86.2687 131.508 86.3871 131.579C87.3769 130.004 88.2719 128.352 89.3854 126.869C90.5753 125.283 92.0521 123.918 93.2656 122.351C95.3268 119.692 95.9743 118.99 97.3958 118.506C96.3139 120.307 94.2896 121.246 93.6025 123.339C95.7427 122.464 103.961 114.016 105.03 111.715C104.538 111.862 104.008 112.02 103.482 112.181ZM113.801 47.3943C112.501 45.698 112.298 43.5415 111.405 41.6611C110.645 40.0542 110.753 38.229 110.934 36.4695C111.119 34.6996 111.013 32.998 110.5 31.2517C110.102 29.8999 109.644 28.5928 109.165 27.2726C108.336 24.9819 106.946 23.0752 105.598 21.1185C105.435 20.8818 105.167 20.7161 104.869 20.4452C104.714 21.8496 104.574 23.0831 104.443 24.3165C104.364 25.0529 104.235 25.7893 104.235 26.5283C104.235 28.577 104.345 30.6258 104.303 32.6745C104.282 33.666 103.84 34.6601 103.906 35.6332C104.082 38.2789 103.506 40.7353 102.376 43.0891C101.91 44.0648 102.079 44.9853 102.474 45.8979C102.697 46.416 102.995 46.9052 103.29 47.3891C104.172 48.8435 105.275 50.2031 105.912 51.7548C107.112 54.6819 109.115 57.0252 111.047 59.4185C112.716 61.483 114.63 63.3555 115.636 66.0591C116.478 62.6481 116.489 59.3922 116.128 56.1495C115.857 53.7325 115.462 51.3156 114.451 49.0565C114.198 48.491 113.993 47.9046 113.761 47.3233C114.383 47.1077 114.591 47.5863 114.783 47.9808C116.439 51.3971 116.807 55.1133 117.107 58.8031C117.236 60.4179 116.747 62.08 116.541 63.7211C116.468 64.3049 116.217 64.9177 116.833 65.5831C117.241 64.7152 117.523 63.9367 117.947 63.2477C119.655 60.4652 120.448 57.4197 120.532 54.1901C120.564 53.0777 120.274 51.9521 120.313 50.8396C120.414 47.9545 119.366 45.2799 118.802 42.5263C118.597 41.5243 118.363 40.5828 118.389 39.5439C118.439 37.6267 118.434 35.7016 118.297 33.7896C118.221 32.735 118.079 31.5463 117.531 30.6915C115.978 28.2615 114.999 25.4027 112.485 23.6433C111.124 22.6886 109.797 21.7102 108.144 21.3079C107.678 21.1948 107.241 20.9791 106.554 20.7214C107.038 21.5682 107.359 22.302 107.833 22.92C109.171 24.6558 109.868 26.7256 110.634 28.698C111.727 31.5173 112.077 34.5102 111.656 37.5952C111.426 39.2704 111.937 40.9562 112.64 42.5447C113.319 44.0806 114.048 45.627 113.801 47.3943ZM180.261 47.5995C178.561 48.8119 176.881 50.0585 175.149 51.2262C173.364 52.4307 171.564 53.6168 169.708 54.7056C167.878 55.776 165.972 56.7096 164.101 57.7038C164.672 57.8931 165.167 57.8563 165.654 57.7721C168.702 57.2488 171.801 56.9279 174.857 57.283C178.41 57.6932 181.44 56.7491 184.32 54.7819C185.278 54.1323 186.442 53.6352 187.579 53.4327C188.911 53.1934 189.969 52.4833 191.099 51.91C193.265 50.808 195.376 49.5904 197.472 48.3622C199.125 47.3917 201.007 46.7342 202.249 45.0563C201.934 44.4541 201.628 43.8676 201.36 43.3521C199.725 43.097 198.198 44.1069 196.327 43.2417C197.024 43.1049 197.398 43.0313 197.772 42.9603C198.659 42.7919 199.564 42.6973 200.425 42.4422C201.747 42.0503 202.142 41.2324 201.391 40.1725C200.815 39.3625 199.988 38.3158 199.148 38.1843C197.395 37.916 195.729 37.1375 193.886 37.3085C191.428 37.5399 189.124 38.2474 186.889 39.2441C186.113 39.5913 185.347 39.9753 184.541 40.2383C182.978 40.7485 181.359 41.1088 179.814 41.6689C177.731 42.4264 175.691 43.5152 174.183 45.0353C171.474 47.7652 169.134 50.8633 166.662 53.8272C166.067 54.5452 165.564 55.3394 165.019 56.0995C165.48 56.1837 165.72 56.0627 165.954 55.9364C167.412 55.1606 168.884 54.4084 170.324 53.5984C171.306 53.0461 172.332 52.5201 173.18 51.7969C175.275 50.0059 177.263 48.0887 180.261 47.5995ZM145.213 50.9737C145.621 50.9027 146.021 50.9343 146.316 50.7712C149.43 49.0381 151.96 46.8 152.918 43.1706C153.234 41.9688 153.684 40.7879 154.192 39.6544C155.151 37.5136 156.085 35.386 156.233 32.9927C156.269 32.38 156.517 31.7724 156.72 31.1807C157.191 29.7973 157.436 28.3404 157.278 26.9281C156.93 23.7721 156.146 20.7161 154.793 17.8074C154.348 16.8475 154.05 15.7771 154.345 14.6436C154.44 14.2727 154.285 13.8388 154.221 13.205C153.75 14.0282 153.424 14.6015 153.087 15.1959C152.287 14.7409 152.668 14.2885 152.929 13.8677C153.729 12.5817 153.734 12.5869 153.642 11.4245C151.191 13.6521 149.417 16.2005 148.435 19.3486C147.914 21.0159 147.151 22.586 145.861 23.9378C144.829 25.0187 143.947 26.4415 143.523 27.8696C142.707 30.6179 141.67 33.3162 142.473 36.3985C143.326 39.6833 143.792 43.0628 145.569 46.224C145.769 45.1747 145.929 44.2463 146.129 43.3284C146.224 42.8892 146.39 42.4658 146.532 42.0398C147.159 40.1725 147.88 38.3289 148.391 36.4301C148.82 34.8363 148.922 33.19 148.814 31.5042C148.699 29.6685 148.951 27.8091 148.964 25.9629C148.97 24.9267 148.646 23.8694 148.778 22.8622C148.922 21.7523 149.423 20.6872 149.767 19.601C149.836 19.3827 149.886 19.1566 149.97 18.9462C150.528 17.5234 151.423 16.353 152.695 15.4457C152.502 16.0953 152.184 16.6686 151.823 17.213C150.578 19.1013 149.662 21.1448 149.578 23.4066C149.47 26.2811 149.62 29.1662 149.586 32.046C149.57 33.4898 149.578 34.9784 149.249 36.3696C148.562 39.2836 147.772 42.187 146.782 45.0116C146.429 46.0268 146.145 47.0262 145.956 48.065C145.856 48.6173 145.879 49.1932 145.763 49.7429C145.682 50.1137 145.453 50.4556 145.213 50.9737ZM84.0891 46.1425C83.6152 46.2188 83.2704 46.1951 83.0071 46.3319C80.2063 47.7994 77.3264 49.1327 74.7177 50.95C74.3518 51.2078 73.9043 51.384 73.47 51.4944C70.9481 52.1309 68.421 52.7358 65.8966 53.3565C65.786 53.3827 65.6912 53.4538 65.5912 53.509C63.3695 54.703 61.5294 56.3572 60.5344 58.6558C59.6183 60.7729 58.9444 63.0241 58.41 65.2754C57.5571 68.8863 55.8487 71.9555 53.14 74.4565C51.9606 75.5453 51.0156 76.7762 50.0785 78.2858C51.8027 78.462 53.3769 78.4015 54.6431 77.4889C56.67 76.0319 58.5416 74.3592 60.4817 72.7813C61.661 71.8213 62.8983 71.1454 64.4988 71.7608C64.8357 71.8897 65.3385 71.9344 65.6281 71.774C66.731 71.1586 67.6708 70.2986 68.0472 69.0678C68.6132 67.2321 68.6816 65.2386 69.882 63.6106C70.0057 63.4449 69.9899 63.1741 70.0505 62.9531C70.9244 59.763 71.8537 56.5545 73.9675 53.9482C75.8023 51.6864 78.0477 49.8323 80.6775 48.4674C81.8252 47.8677 83.2599 47.6363 84.0891 46.1425ZM108.86 185.675C110.252 185.533 110.258 185.538 110.839 184.938C111.634 184.118 112.437 183.3 113.203 182.453C115.136 180.309 117.623 179.215 120.369 178.561C121.619 178.261 122.825 177.772 124.078 177.488C125.381 177.19 126.168 176.233 127.145 175.473C129.232 173.853 131.391 172.401 133.91 171.349C136.137 170.421 138.29 169.29 140.638 168.661C141.991 168.301 143.371 167.98 144.761 167.841C145.316 167.786 145.595 167.586 145.856 167.228C146.656 166.118 147.124 164.756 148.351 163.964C148.435 163.906 148.391 163.649 148.422 163.346C146.456 162.518 144.437 162.134 142.283 162.336C137.764 162.762 133.494 164.275 129.135 165.366C126.252 166.084 123.638 167.552 121.482 169.661C119.784 171.32 118.6 173.472 116.594 174.847C116.549 174.879 116.52 174.934 116.483 174.979C114.335 177.527 112.453 180.281 110.484 182.966C109.926 183.728 109.502 184.588 108.86 185.675ZM113.032 136.337C112.443 138.001 112.158 139.503 112.29 141.047C112.482 143.285 113.211 145.399 112.98 147.772C112.756 150.091 112.206 152.111 110.945 154.002C110.605 154.512 110.187 155.004 109.984 155.567C109.16 157.858 108.394 160.167 107.636 162.478C107.267 163.607 107.009 164.772 106.633 165.897C105.983 167.851 104.735 169.461 103.474 171.049C102.518 172.254 101.523 173.424 100.528 174.595C100.081 175.123 99.5912 175.618 98.8779 176.386C101.455 176.48 103.614 175.957 105.443 175.063C108.373 173.627 110.45 171.128 111.932 168.151C113.111 165.774 114.472 163.486 115.754 161.161C116.354 160.069 117.226 159.044 117.505 157.879C118.576 153.402 118.35 148.966 116.652 144.634C116.028 143.04 115.562 141.386 114.949 139.792C114.509 138.643 114.14 137.431 113.032 136.337ZM44.095 63.3555C44.2056 63.3608 44.3135 63.3687 44.4215 63.3739C44.6952 61.9432 44.9453 60.5073 45.248 59.0845C45.506 57.8747 45.7061 56.6334 46.1404 55.4867C46.738 53.9061 47.533 52.3886 48.2516 50.8764C48.9308 49.4431 49.5204 48.0045 49.9574 46.5054C50.3654 45.101 50.526 43.7072 50.3233 42.1555C49.96 39.394 49.3967 36.4958 51.1025 33.879C51.5632 33.1768 52.0528 32.4878 52.4503 31.7488C53.1136 30.5153 53.5243 29.2161 53.0742 27.5146C51.7869 28.1904 50.5918 28.7059 49.5204 29.4081C48.3832 30.1524 47.3566 31.065 46.2905 31.9171C44.4794 33.3662 43.0789 35.0888 42.2971 37.3348C41.7812 38.8181 41.6127 40.304 41.4232 41.8399C40.9098 45.9873 41.7785 50.0138 42.2497 54.0665C42.5893 56.9779 43.6396 59.7867 43.8713 62.7375C43.8897 62.9479 44.0187 63.1504 44.095 63.3555ZM19.8428 112.494C19.8086 112.596 19.777 112.696 19.7454 112.799C20.4166 113.296 21.1432 113.735 21.7513 114.3C23.9809 116.381 26.666 117.288 29.6406 117.538C33.0364 117.824 36.4374 117.73 39.8253 118.503C43.4264 119.329 47.1828 119.418 50.7787 120.433C51.5131 120.641 52.4213 120.612 53.1505 120.381C56.6226 119.284 60.0948 118.169 63.2457 116.278C64.1355 115.744 65.0331 115.226 66.1335 114.579C65.2121 114.245 64.5883 113.866 63.9354 113.809C61.8321 113.619 59.721 113.498 57.6071 113.451C56.7674 113.432 55.9013 113.593 55.0827 113.809C53.4322 114.242 51.7843 114.711 50.1759 115.273C48.7544 115.768 47.3619 115.786 45.9693 115.326C44.74 114.921 43.5396 114.424 42.3313 113.953C41.7548 113.727 41.1994 113.453 40.6203 113.235C40.257 113.098 39.8806 112.996 39.4989 112.927C38.825 112.809 38.1458 112.707 37.464 112.638C36.5243 112.544 35.5792 112.444 34.6368 112.425C33.397 112.404 32.1413 112.578 30.9173 112.449C30.017 112.352 29.2431 112.47 28.5297 112.941C27.7426 113.456 26.9345 113.43 26.0552 113.301C23.9888 112.996 21.9118 112.759 19.8428 112.494ZM14.2094 111.983C14.5253 112.491 14.9571 112.278 15.3782 112.086C15.8652 111.865 16.3338 111.594 16.8366 111.423C17.9185 111.058 18.9188 111.51 19.977 111.697C22.3804 112.12 24.8338 112.265 27.2688 112.491C27.5873 112.52 27.9769 112.444 28.2454 112.275C29.6327 111.407 31.1068 111.492 32.6441 111.668C33.5786 111.776 34.5474 111.636 35.495 111.552C37.3535 111.389 39.033 112.199 40.8125 112.472C40.8625 112.48 40.9046 112.541 40.9572 112.562C41.6417 112.83 42.3287 113.093 43.0158 113.361C43.5975 113.585 44.2082 113.753 44.7531 114.048C45.6561 114.537 46.6143 114.661 47.6119 114.716C49.7178 114.837 51.7237 114.324 53.6059 113.517C55.9171 112.525 58.2547 112.565 60.6502 112.809C61.2451 112.87 61.8453 112.885 62.4429 112.922C60.874 112.433 59.2498 111.747 57.723 111.918C55.0721 112.209 52.8794 111.1 50.6866 110.134C48.1463 109.019 45.6139 108.046 42.8605 107.639C41.9681 107.507 41.1073 107.184 40.2228 106.986C37.6588 106.41 35.1054 105.787 32.5257 105.309C29.9696 104.83 27.5768 105.832 25.1523 106.408C23.2781 106.852 21.4222 107.42 19.7638 108.436C17.9159 109.561 16.1127 110.763 14.2094 111.983ZM74.136 108.856C75.9286 108.136 77.7818 107.497 78.948 105.798C79.227 105.387 79.664 105.032 80.101 104.785C81.2908 104.12 82.5044 103.499 83.731 102.91C85.2921 102.158 86.8847 101.335 87.6059 99.7225C88.5457 97.6185 90.0277 95.8959 91.1702 93.9524C92.1521 92.2824 93.2893 90.5834 93.721 88.7451C94.2159 86.6332 94.4818 84.3583 93.7578 82.1465C93.5499 81.5101 93.4314 80.7816 93.5157 80.1267C93.8026 77.886 93.5473 75.6926 93.134 73.5045C93.0471 73.0495 92.9629 72.5972 92.8786 72.1422C92.4522 72.8838 92.3021 73.5966 92.181 74.3145C91.8362 76.3633 91.5519 78.4225 91.1334 80.4555C90.9701 81.2445 90.2936 81.9598 90.2357 82.7383C90.1304 84.1269 89.3828 85.0368 88.4746 85.9205C87.1769 87.1829 85.7053 88.3164 84.6419 89.7523C82.5833 92.5269 80.5774 95.3541 79.6903 98.8099C79.2981 100.335 78.7005 101.861 77.9161 103.223C76.7921 105.177 75.4074 106.984 74.136 108.856ZM112.003 135.798C110.953 135.603 110.603 135.642 110.429 136.26C110.034 137.675 109.721 139.114 109.402 140.55C109.305 140.989 109.373 141.476 109.234 141.896C108.331 144.61 106.875 146.943 104.501 148.642C103.945 149.039 103.313 149.452 102.987 150.015C102.524 150.825 102.084 151.767 102.042 152.669C101.995 153.773 102.3 154.912 102.576 156.003C103.729 160.574 102.934 164.546 99.3491 167.865C98.2856 168.848 97.5669 170.15 97.5116 171.786C97.4511 173.543 97.0641 175.289 96.8167 177.064C96.9825 176.975 97.2695 176.891 97.4669 176.709C98.9121 175.37 100.399 174.084 101.476 172.38C102.295 171.081 103.424 169.971 104.222 168.661C105.677 166.268 106.696 163.68 107.317 160.927C107.867 158.512 108.626 156.151 110.113 154.107C110.987 152.905 111.674 151.659 111.732 150.104C111.782 148.784 112.079 147.477 112.132 146.157C112.164 145.35 112.035 144.503 111.795 143.727C111.487 142.727 111.105 140.902 111.2 139.995C111.316 138.919 111.39 137.838 111.548 136.771C111.598 136.421 111.856 136.1 112.003 135.798ZM128.982 116.875C128.395 114.718 127.039 114.737 125.497 115.008C124.678 115.15 123.807 114.974 122.977 115.074C122.056 115.187 121.153 115.45 120.092 115.678C121.193 116.594 122.125 117.264 122.922 118.064C124.041 119.184 125.141 120.336 126.102 121.585C127.94 123.973 132.37 123.886 134.689 122.679C137.408 121.267 140.143 120.22 143.3 121.535C144.455 122.017 145.848 121.938 147.132 122.103C147.406 122.138 147.709 122.195 147.956 122.114C150.162 121.409 152.36 120.667 154.564 119.949C155.087 119.781 155.63 119.668 156.448 119.455C155.406 118.477 154.59 117.646 153.698 116.912C153.334 116.612 152.813 116.428 152.339 116.36C151.552 116.241 150.739 116.173 149.949 116.241C148.241 116.388 146.561 116.346 144.882 115.96C144.405 115.849 143.871 115.968 143.365 116.005C142.92 116.036 142.478 116.123 142.031 116.133C140.667 116.165 139.301 116.17 137.937 116.191C135.855 116.22 133.773 116.536 131.696 115.931C130.856 115.686 129.906 115.805 128.982 116.875ZM198.067 145.781C197.993 145.728 197.922 145.676 197.848 145.623C196.548 147.051 195.221 148.458 193.947 149.907C192.249 151.843 190.29 153.508 188.185 154.936C186.597 156.011 184.707 156.627 183.025 157.576C181.661 158.347 180.274 159.165 179.134 160.217C177.681 161.558 176.452 163.144 175.149 164.645C173.833 166.168 171.937 166.652 170.195 167.381C169.574 167.641 168.981 167.812 168.436 168.283C166.783 169.719 165.041 171.052 163.337 172.425C164.011 172.775 164.575 172.893 165.109 172.814C166.401 172.627 167.681 172.354 168.965 172.109C172.875 171.365 176.373 169.679 179.587 167.389C182.259 165.487 184.818 163.428 187.906 162.176C189.69 161.455 191.02 160.161 191.883 158.434C192.57 157.063 193.212 155.672 193.886 154.294C195.276 151.456 196.671 148.619 198.067 145.781ZM161.363 173.03C161.697 172.854 161.871 172.809 161.971 172.698C162.832 171.746 163.572 170.65 164.559 169.853C166.399 168.359 168.352 166.97 170.642 166.223C172.164 165.726 173.58 165.093 174.704 163.93C175.681 162.915 176.713 161.939 177.576 160.832C179.648 158.176 182.622 156.866 185.46 155.333C186.8 154.607 188.216 153.955 189.395 153.016C190.928 151.793 192.325 150.381 193.642 148.926C194.102 148.416 195.031 148.066 194.879 147.033C194.65 147.056 194.447 147.014 194.331 147.096C192.941 148.098 191.351 148.553 189.688 148.711C188.082 148.863 186.587 149.271 185.147 150.002C183.791 150.686 182.725 151.548 182.141 153.029C181.677 154.202 180.882 155.291 179.598 155.622C178.234 155.972 176.778 156.319 175.412 156.188C173.648 156.019 172.277 156.598 170.953 157.545C169.797 158.373 168.671 159.244 167.549 160.122C167.06 160.506 166.486 160.874 166.175 161.387C164.854 163.562 163.266 165.605 162.687 168.177C162.332 169.753 161.842 171.297 161.363 173.03ZM151.373 82.8803C151.447 82.996 151.523 83.1091 151.6 83.2248C151.752 83.209 151.915 83.2222 152.058 83.1722C153.661 82.591 155.227 81.8625 156.872 81.4522C158.646 81.0104 160.376 80.6475 161.803 79.3588C162.345 78.8696 163.353 78.8828 163.874 78.3831C165.035 77.2706 166.509 77.1102 167.918 76.7656C169.642 76.3422 171.403 76.0661 173.146 75.7163C175.199 75.3034 177.073 74.4592 178.961 73.5597C180.293 72.9285 181.893 72.3342 183.294 72.4815C185.273 72.6918 187.087 71.824 189.011 72.0659C189.209 72.0922 189.461 71.7845 189.667 71.6083C191.12 70.367 191.383 68.5129 192.249 66.8612C191.886 66.7929 191.644 66.664 191.467 66.7271C190.296 67.1374 189.13 67.5687 187.979 68.0342C185.394 69.0888 182.743 69.4333 179.961 69.0862C178.605 68.9152 177.189 68.8311 175.852 69.0415C173.451 69.4202 171.066 69.9699 168.721 70.6089C167.475 70.9482 166.251 71.5057 165.146 72.1738C163.737 73.0285 162.445 74.0752 161.129 75.0746C158.883 76.7709 156.646 78.4751 154.437 80.2188C153.376 81.0551 152.392 81.9887 151.373 82.8803ZM41.8575 68.4787C41.381 67.1926 40.8282 65.8829 40.4123 64.5311C39.2541 60.7782 37.0692 57.709 34.2209 55.0738C32.5546 53.5327 30.4224 53.0356 28.298 52.5333C25.9684 51.9862 23.7045 51.313 21.925 49.5509C21.209 48.8435 20.3719 48.2543 19.5532 47.6547C16.3496 45.3062 12.5589 44.6513 8.39713 43.7387C9.20264 44.6303 9.67382 45.2746 10.2661 45.7769C11.248 46.608 11.8456 47.6389 12.4879 48.7435C13.4461 50.3872 14.7807 51.8758 16.7787 52.4307C17.6 52.6569 18.5345 52.6174 19.2584 53.004C21.7118 54.3111 24.4863 54.8029 26.845 56.4887C28.6797 57.8011 30.2092 59.308 31.6412 60.9517C33.2154 62.7612 34.7553 64.5811 36.8639 65.7882C38.4775 66.7113 40.1359 67.5529 41.8575 68.4787ZM92.0073 70.935C89.9567 72.776 88.0298 74.6617 85.6817 76.0477C84.0548 77.0129 82.4543 78.0412 82.2279 80.2056C82.2016 80.4607 81.9384 80.6869 81.7962 80.9341C81.0328 82.257 80.1694 83.5351 79.5376 84.9185C78.669 86.82 77.9503 88.795 77.229 90.7623C77 91.3829 76.871 92.0746 76.8684 92.7347C76.8631 94.8834 77.0237 97.0399 76.95 99.1886C76.9105 100.356 76.7183 101.595 76.2603 102.66C75.6127 104.164 74.6519 105.535 73.8411 106.971C73.7042 107.213 73.649 107.499 73.5516 107.765C75.7944 105.266 77.7055 102.615 78.7137 99.4016C79.3376 97.4002 80.0641 95.433 80.7643 93.4553C80.8565 93.195 81.0565 92.9609 81.2461 92.7505C82.6965 91.1515 84.1601 89.5682 85.6079 87.9692C86.703 86.7621 87.9982 85.6654 88.8037 84.2873C89.9251 82.3701 90.6332 80.2871 90.7411 77.9412C90.849 75.6295 91.5466 73.3441 92.0073 70.935ZM150.934 84.4214C150.994 84.5845 151.049 84.7502 151.107 84.9132C152.953 85.2656 154.793 85.6338 156.643 85.96C157.314 86.0783 158.036 86.2545 158.681 86.1283C160.231 85.8258 161.747 85.3419 163.285 84.9658C164.106 84.766 164.94 84.5398 165.778 84.5003C169.318 84.3294 172.427 83.1827 175.025 80.7211C176.62 79.2089 178.36 78.1332 180.743 78.3278C181.864 78.4199 183.138 78.3094 184.086 77.5178C185.476 76.3501 186.797 75.0983 188.113 73.8411C188.35 73.615 188.414 73.2047 188.632 72.705C188.056 72.8312 187.711 72.8707 187.392 72.9838C185.931 73.5098 184.465 73.7254 182.886 73.5781C181.972 73.494 180.982 73.828 180.079 74.1331C178.903 74.5276 177.789 75.1035 176.634 75.5611C174.07 76.5789 171.39 77.1023 168.66 77.4152C166.341 77.6809 164.44 78.9091 162.463 79.9926C161.031 80.779 159.584 81.7284 158.028 82.0413C155.756 82.4989 153.774 83.643 151.584 84.2373C151.368 84.2978 151.152 84.3609 150.934 84.4214ZM44.4109 66.785C44.5031 66.8323 44.5978 66.877 44.69 66.9217C45.9483 65.8803 47.4645 65.0255 48.3964 63.7474C49.3888 62.3851 50.4286 61.0464 51.3894 59.6604C52.1634 58.5401 52.7477 57.3224 52.853 55.8917C52.9583 54.4347 53.1479 52.9646 53.4927 51.5497C53.8244 50.1795 54.4088 48.8724 54.8668 47.5311C55.2354 46.4555 55.5644 45.364 55.9487 44.2936C56.3094 43.2916 56.9648 42.4001 56.4331 41.1956C56.2093 40.6906 56.4936 39.9674 56.5226 39.3441C56.541 38.9522 56.62 38.5235 56.4963 38.1737C55.9092 36.5353 55.9382 34.6969 54.7878 33.2242C54.3825 32.7008 54.3008 31.9276 53.9876 31.0334C52.7609 33.1242 51.1104 34.8074 50.9288 37.1901C50.8182 38.6603 50.8156 40.1725 51.0314 41.6269C51.5553 45.1773 50.5155 48.3411 48.9492 51.4287C48.2542 52.7963 47.3961 54.1375 47.0091 55.5972C46.0246 59.2949 45.2612 63.0531 44.4109 66.785ZM48.0831 78.8749C48.4543 78.5751 48.9808 78.3515 49.165 77.9623C50.0732 76.0424 51.7343 74.7932 53.14 73.3152C54.6799 71.6977 56.1119 69.9856 56.8517 67.8475C57.6335 65.591 58.2784 63.2845 58.9707 60.9965C59.3235 59.8235 59.5446 58.6032 60.2079 57.546C61.7374 55.1027 63.7775 53.3302 66.6336 52.5754C68.1762 52.1703 69.6741 51.5918 71.2166 51.1999C73.3226 50.6686 75.3864 50.1085 77.0211 48.5489C77.2475 48.3332 77.6818 48.3543 77.9766 48.1939C78.3215 48.0045 78.6216 47.731 78.9427 47.4943C78.8901 47.3891 78.8401 47.2813 78.79 47.1761C78.2451 47.2629 77.7029 47.3812 77.1553 47.4312C75.6233 47.5679 74.0596 47.9098 72.5618 47.7257C71.0824 47.5416 69.6556 47.418 68.1631 47.518C65.6754 47.6863 63.4247 48.2465 61.5584 50.048C59.4472 52.0888 57.3044 54.1244 56.341 56.9621C55.5749 59.2055 55.109 61.5514 54.5325 63.8552C53.9507 66.1827 53.4559 68.5339 51.7369 70.3801C51.1209 71.0429 50.6445 71.8292 50.0469 72.5078C48.4833 74.2909 48.6702 76.6499 48.0831 78.8749ZM145.432 168.738C143.9 169.059 142.568 169.295 141.259 169.624C139.838 169.984 138.411 170.366 137.034 170.863C135.913 171.265 134.894 171.944 133.77 172.335C132.18 172.89 130.764 173.703 129.485 174.771C126.918 176.914 124.162 178.547 120.756 179.147C118.302 179.578 115.983 180.643 114.188 182.55C113.827 182.934 113.309 183.168 112.906 183.523C112.216 184.136 111.432 184.707 111.279 186.032C112.953 185.646 114.654 185.659 115.859 184.893C118.455 183.25 121.177 182.858 124.144 182.797C125.873 182.761 127.653 182.264 129.09 181.098C130.411 180.028 131.693 178.905 133.017 177.835C135.086 176.165 137.242 174.66 139.812 173.785C141.202 173.311 142.56 172.651 143.787 171.852C144.7 171.257 145.569 170.408 145.432 168.738ZM124.796 74.2856C126.871 73.7333 128.553 73.06 130.119 72.1159C130.488 71.8976 130.748 71.4663 130.993 71.0876C132.504 68.7627 133.115 66.0828 133.744 63.4555C134.189 61.6092 134.434 59.6473 134.078 57.7327C133.915 56.8543 134.202 56.2862 134.81 55.797C135.816 54.9923 136.471 54.0034 136.7 52.7174C136.771 52.3255 137.182 51.9599 137.166 51.597C137.066 49.3195 136.85 47.0498 136.748 44.7749C136.684 43.3021 136.748 41.8215 136.753 39.9358C136.353 40.638 136.113 40.9589 135.976 41.3165C134.821 44.4172 133.375 47.3733 131.641 50.1979C130.109 52.6884 129.803 55.4709 129.769 58.3612C129.732 61.6881 129.198 64.994 127.937 68.0921C127.118 70.1066 125.976 71.9897 124.796 74.2856ZM123.883 73.9332C124.194 73.6544 124.402 73.544 124.491 73.373C125.223 71.9555 125.865 70.4906 126.668 69.1151C127.403 67.8501 127.684 66.4904 127.979 65.0887C128.632 61.9853 129.003 58.8636 129.021 55.6892C129.027 54.753 129.014 53.7115 129.403 52.9041C130.224 51.192 131.043 49.4668 132.138 47.8809C132.894 46.7895 133.478 45.5376 133.928 44.2831C134.581 42.4632 135.479 40.78 136.408 39.1047C136.574 38.8049 136.7 38.4841 137.013 37.8134C134.894 39.0679 133.128 40.091 131.398 41.1719C131.098 41.3586 130.875 41.7794 130.769 42.1371C129.809 45.4035 127.666 47.944 125.581 50.4977C124.615 51.6812 124.154 52.8857 124.236 54.4084C124.388 57.183 124.802 59.955 124.446 62.7454C124.375 63.3082 124.396 63.8841 124.396 64.4522C124.383 67.2794 124.894 70.1382 123.901 72.9128C123.817 73.1521 123.886 73.4466 123.883 73.9332ZM176.039 122.671C176.17 122.585 176.299 122.498 176.431 122.411C175.965 120.996 175.581 119.544 175.004 118.177C174.572 117.149 173.83 116.283 172.825 115.697C171.034 114.655 169.234 113.63 167.478 112.53C166.825 112.123 166.251 111.565 165.712 111.008C164.727 110 163.895 108.841 162.582 108.196C162.234 108.025 161.871 107.789 161.655 107.481C159.894 104.972 157.522 103.328 154.637 102.363C153.987 102.145 153.371 101.821 152.721 101.606C151.942 101.35 151.141 101.153 150.157 100.88C152.029 104.214 154.456 106.495 157.667 107.996C158.841 108.546 159.826 109.472 160.442 110.689C161.21 112.196 161.969 113.711 162.764 115.205C163.106 115.852 163.458 116.517 163.93 117.067C165.872 119.329 168.389 120.397 171.35 120.373C172.756 120.362 173.87 120.933 174.891 121.819C175.249 122.13 175.654 122.387 176.039 122.671ZM18.6635 75.5427C18.4713 75.9767 18.1238 76.3764 18.1817 76.7025C18.3239 77.4678 18.5582 78.2595 18.9425 78.9327C19.8928 80.6159 21.0089 82.2018 21.9434 83.8928C22.9043 85.6312 23.7308 87.4432 24.6021 89.2316C24.7496 89.5314 24.7364 89.9812 24.9575 90.1652C26.7291 91.6512 28.2033 93.6315 30.5356 94.2443C32.2203 94.6861 33.6655 95.5382 35.2054 96.2431C37.643 97.3555 40.1596 98.1077 43.0131 97.6343C42.7789 97.1793 42.6841 96.727 42.4077 96.5034C41.2679 95.5856 40.6255 94.2206 39.1909 93.5079C37.7536 92.7952 36.6401 91.4592 35.2765 90.565C33.1627 89.1816 30.475 88.724 28.835 86.557C28.7455 86.4386 28.3954 86.5517 28.2006 86.4702C27.8926 86.3413 27.5373 86.2019 27.3346 85.96C26.4264 84.8527 25.5077 83.7482 24.7022 82.5673C23.7203 81.1366 23.2491 79.3798 21.7328 78.2805C20.7299 77.5546 19.8717 76.6341 18.6635 75.5427ZM157.962 119.537C158.012 119.473 158.059 119.41 158.109 119.347C157.464 118.34 156.904 117.264 156.151 116.346C155.403 115.439 154.556 114.537 153.571 113.919C152.808 113.44 152.234 112.951 151.831 112.16C151.373 111.257 150.673 110.658 149.591 110.508C147.019 110.148 144.455 110.326 141.957 110.847C139.283 111.405 136.687 111.662 134.041 110.781C133.41 110.571 132.691 110.616 132.012 110.547C129.358 110.284 126.937 111.218 124.557 112.149C123.27 112.654 122.125 113.517 120.914 114.219C121.477 114.524 121.922 114.584 122.351 114.529C123.483 114.39 124.61 114.2 125.736 114.029C126.866 113.861 127.984 113.858 129.121 114.037C130.793 114.3 132.478 114.482 134.155 114.711C134.37 114.74 134.607 114.811 134.778 114.937C135.829 115.713 136.874 116.054 138.066 115.181C138.293 115.018 138.735 115.047 139.048 115.118C140.804 115.523 142.518 115.344 144.234 114.887C144.595 114.789 145.097 114.732 145.379 114.908C146.969 115.889 148.675 115.468 150.37 115.502C152.234 115.539 154.216 115.326 155.477 117.38C156.027 118.272 157.117 118.829 157.962 119.537ZM42.6762 74.4855C42.7867 72.8155 42.8815 71.4163 41.8812 70.317C41.1626 69.5254 40.3228 68.8022 39.4278 68.2183C38.3406 67.5056 37.035 67.1085 36.0083 66.3326C34.75 65.378 33.6734 64.184 32.5362 63.0715C31.191 61.7539 29.888 60.3942 28.5244 59.0976C27.6742 58.2876 26.7765 57.5223 25.8446 56.8096C24.1415 55.5078 21.9698 55.25 20.0876 54.3216C19.1847 53.8772 18.137 53.7062 17.1472 53.4511C15.9258 53.1382 14.7017 52.8883 13.9041 51.7364C13.6514 51.3682 13.1828 51.1499 12.5905 50.6897C12.8748 52.8384 13.9857 54.2375 14.8807 55.7129C15.4967 56.728 16.5023 57.2751 17.7 57.3961C20.0955 57.638 21.9355 59.0634 23.6519 60.4968C25.0312 61.6513 26.0526 63.2451 27.1872 64.6758C27.9874 65.6804 28.8851 66.5246 30.117 66.9533C31.6096 67.474 33.0943 68.0368 34.6105 68.4839C37.9116 69.457 40.5387 71.3243 42.6762 74.4855ZM150.357 99.6436C150.331 99.7488 150.304 99.854 150.278 99.9566C151.336 100.317 152.431 100.601 153.45 101.053C155.714 102.061 158.244 102.523 160.007 104.564C160.8 105.479 162.124 105.9 162.624 107.171C162.713 107.397 163.077 107.507 163.301 107.686C164.009 108.262 164.835 108.743 165.388 109.443C167.104 111.607 169.442 112.875 171.761 114.224C172.898 114.889 174.293 115.292 174.899 116.712C175.317 117.698 175.889 118.613 176.391 119.56C176.455 117.711 176.418 115.952 175.37 114.319C174.357 112.735 173.525 111.023 172.709 109.324C172.137 108.138 171.271 107.27 170.176 106.645C169.142 106.055 168.013 105.632 166.938 105.103C165.772 104.53 164.598 103.954 163.466 103.312C161.784 102.36 160.286 101.158 158.399 100.485C156.132 99.6751 153.763 99.9303 151.489 99.3859C151.152 99.3043 150.736 99.5489 150.357 99.6436ZM185.531 181.937C185.205 181.851 184.997 181.756 184.786 181.748C182.651 181.653 180.522 182.229 178.379 181.772C178.116 181.714 177.81 181.874 177.529 181.866C175.852 181.816 174.175 181.772 172.498 181.672C170.969 181.58 169.402 181.135 167.923 181.348C164.622 181.83 161.35 182.561 158.099 183.329C157.051 183.576 156.072 184.199 155.214 185.099C155.793 185.28 156.233 185.396 156.656 185.551C159.839 186.708 163.087 186.982 166.415 186.324C168.642 185.885 170.85 185.583 173.14 186.072C175.346 186.542 177.297 185.861 178.976 184.317C179.545 183.797 180.277 183.373 181.009 183.131C182.446 182.661 183.933 182.348 185.531 181.937ZM164.738 86.0441C164.767 86.1204 164.793 86.1993 164.819 86.2782C165.87 86.4781 166.912 86.791 167.97 86.8489C169.147 86.9146 170.345 86.8015 171.524 86.6648C172.535 86.5464 173.569 86.3965 174.528 86.0625C175.97 85.5602 177.368 84.9159 178.761 84.2794C181.082 83.2143 183.407 82.1518 185.692 81.0078C187.827 79.94 189.559 78.4883 190.364 76.0845C190.917 74.446 191.633 72.847 192.431 71.3085C192.97 70.267 193.739 69.3308 194.479 68.405C195.008 67.7449 195.732 67.2373 196.229 66.5614C196.724 65.8908 197.74 65.8356 197.93 64.7336C198.061 63.9657 198.854 63.324 199.317 62.6034C199.485 62.3404 199.554 62.0143 199.825 61.3121C198.677 62.1563 197.827 62.7086 197.064 63.3608C195.537 64.6679 194.189 66.1328 193.426 68.0368C193.233 68.5102 193.197 69.073 192.918 69.4754C190.891 72.392 189.395 75.7689 186.034 77.5467C185.026 79.6218 183.043 79.1642 181.311 79.3772C180.687 79.4508 180.058 79.5639 179.463 79.7506C178.429 80.0741 177.497 80.5028 176.692 81.347C174.496 83.6509 171.772 84.9948 168.568 85.3603C167.281 85.5076 166.015 85.81 164.738 86.0441ZM41.3495 93.8603C41.102 92.9241 41.0336 92.3613 40.8072 91.8721C40.1859 90.5387 39.5858 89.1816 38.8092 87.9403C38.2143 86.9856 37.3403 86.2098 36.6322 85.3209C35.4976 83.8954 34.0709 82.8487 32.373 82.257C31.0489 81.7967 29.709 81.3102 28.3954 80.9183C26.2474 80.2793 25.0549 78.6276 23.5808 77.3153C22.4278 76.2896 21.4801 75.0956 19.7901 74.7511C20.1376 75.9609 21.1011 76.6 21.8855 77.3968C22.6726 78.199 23.465 79.0221 24.1046 79.94C25.1102 81.3838 25.9973 82.9118 26.9239 84.4083C27.6768 85.626 29.0061 86.0809 30.1197 86.8147C31.4753 87.7062 32.7679 88.8818 34.2683 89.3263C35.9741 89.8365 37.0955 90.9726 38.4222 91.9221C39.2751 92.5348 40.1701 93.0845 41.3495 93.8603ZM62.1875 2.30384C61.6768 3.056 61.174 3.8108 60.6555 4.55771C59.255 6.56962 57.952 8.63676 57.2018 10.9853C56.7411 12.4265 56.0856 13.702 54.9932 14.7856C54.3588 15.4141 53.6296 16.1663 53.4348 16.9816C52.8057 19.6326 53.0215 22.3046 53.8691 24.9083C53.9271 25.0897 54.114 25.2291 54.2324 25.3764C56.2751 23.9457 57.3913 22.0574 57.7045 19.701C58.0231 17.2946 58.9891 15.138 60.2395 13.0945C60.5923 12.5159 60.9134 11.9058 61.3452 11.3903C63.6775 8.59994 62.8193 5.46767 62.1875 2.30384ZM187.05 182.947C187.018 182.824 186.984 182.697 186.953 182.574C185.826 182.9 184.718 183.337 183.567 183.526C181.941 183.797 180.514 184.289 179.205 185.388C178.482 185.993 177.734 186.855 176.591 186.837C175.304 186.819 174.017 186.755 172.73 186.792C170.969 186.842 169.184 186.813 167.454 187.1C164.203 187.634 161.029 187.694 157.899 186.516C157.488 186.364 157.028 186.34 156.29 186.201C157.341 187.021 158.117 187.736 158.999 188.289C160.3 189.104 161.613 189.959 163.035 190.508C164.725 191.161 166.407 191.947 168.397 191.445C170.495 190.916 172.69 190.8 174.801 190.324C176.241 189.998 177.534 189.264 178.561 188.107C179.224 187.36 180.227 186.861 180.724 186.037C181.411 184.899 182.383 184.804 183.467 184.717C183.623 184.704 183.765 184.557 183.917 184.483C184.963 183.97 186.005 183.458 187.05 182.947ZM179.582 204.602C179.205 203.837 178.584 203.848 178.045 203.84C177.081 203.824 176.115 203.934 175.152 203.929C174.617 203.926 174.051 203.89 173.554 203.713C172.216 203.237 170.906 202.682 169.584 202.162C169.268 202.035 168.913 201.972 168.634 201.791C166.48 200.408 164.193 199.345 161.65 198.927C160.018 198.659 158.375 198.298 156.735 198.285C152.853 198.254 148.964 198.414 145.026 197.344C145.358 197.73 145.59 198.035 145.861 198.296C146.064 198.493 146.324 198.63 146.558 198.793C149.188 200.615 152.255 201.07 155.301 201.544C156.58 201.744 157.899 201.844 159.191 201.788C161.534 201.688 163.809 201.796 166.065 202.577C167.144 202.951 168.115 203.485 169.139 203.947C172.49 205.468 175.997 205.123 179.582 204.602ZM142.191 194.401C142.126 194.566 142.062 194.735 141.997 194.903C142.989 195.424 143.973 195.955 144.971 196.465C147.124 197.57 149.501 197.359 151.786 197.491C154 197.62 156.201 197.157 158.46 197.683C160.663 198.198 162.95 198.209 165.051 199.3C167.017 200.326 169.181 200.965 171.153 201.975C173.272 203.061 175.462 203.214 177.758 203.045C177.334 202.767 176.878 202.601 176.428 202.422C175.86 202.196 175.259 202.028 174.736 201.72C172.777 200.571 170.887 199.292 168.886 198.222C167.096 197.262 165.167 196.768 163.124 196.384C160.665 195.918 158.223 196.026 155.793 195.892C153.139 195.747 150.478 196.029 148.067 194.577C147.975 194.524 147.856 194.488 147.751 194.485C145.898 194.453 144.045 194.427 142.191 194.401ZM67.5392 127.056C67.1575 122.879 68.5895 119.068 69.5714 115.024C66.5784 115.781 64.1618 117.22 61.6479 118.845C61.9743 119.555 62.148 120.315 62.5982 120.844C63.9486 122.437 65.4122 123.931 66.4467 125.777C66.7152 126.259 67.1706 126.635 67.5392 127.056ZM86.2397 193.922C88.601 193.367 91.0123 193.133 93.3551 192.407C95.6427 191.697 98.096 191.46 100.105 189.796C97.1905 189.656 94.4818 190.253 91.7283 190.745C89.4934 191.145 87.5717 191.755 86.1818 193.601C86.1634 193.625 86.195 193.685 86.2397 193.922ZM82.1411 194.388C78.3188 193.483 70.7928 192.823 65.6623 195.035C65.9571 195.187 66.2019 195.411 66.4546 195.426C67.8656 195.518 69.2818 195.645 70.6902 195.595C72.5039 195.532 74.315 195.35 76.1182 195.156C78.1319 194.937 80.1352 194.645 82.1411 194.388ZM176.178 171.594C176.889 171.541 177.605 171.423 178.313 171.449C180.927 171.549 182.643 169.976 184.241 168.259C184.802 167.657 185.094 166.797 184.602 165.889C181.593 167.462 179.432 170.3 176.178 171.594ZM127.634 99.065C127.582 98.9204 127.529 98.7731 127.476 98.6232C126.634 98.7152 125.755 98.6863 124.952 98.923C123.646 99.3043 122.409 99.904 121.116 100.333C119.716 100.801 118.297 101.216 116.868 101.579C115.823 101.845 115.309 102.508 114.875 103.852C116.839 102.952 118.46 102.163 120.119 101.466C121.198 101.011 122.325 100.664 123.443 100.309C124.833 99.8724 126.236 99.4805 127.634 99.065ZM35.6793 211.822C33.4312 214.383 31.1858 216.697 29.2325 219.235C27.2819 221.768 24.5969 223.764 23.4834 226.928C27.5873 222.223 31.5596 217.418 35.5213 212.597C35.6372 212.455 35.6082 212.192 35.6793 211.822ZM68.3052 135.243C68.3763 138.798 70.5269 141.244 71.73 144.053C71.1771 140.994 70.8402 137.852 68.3052 135.243ZM120.924 94.1943C121.264 95.17 121.777 94.8702 122.338 94.6519C124.17 93.9445 126.01 93.2581 127.861 92.6058C128.763 92.285 129.698 92.0641 130.619 91.7985C130.572 91.6433 130.527 91.4855 130.48 91.3303C127.216 91.8405 124.028 92.619 120.924 94.1943ZM141.446 71.6215C139.693 74.588 136.882 76.3159 135.337 79.1405C137.303 77.4521 139.509 76.0556 141.099 73.9437C141.583 73.3046 141.818 72.7313 141.446 71.6215ZM173.246 172.701C169.413 173.432 165.578 174.161 161.742 174.892C161.766 175.015 161.792 175.139 161.818 175.263C165.699 174.739 169.642 174.542 173.246 172.701ZM113.298 103.888C110.471 104.867 109.486 107.573 107.638 109.535C108.025 109.537 108.37 109.445 108.573 109.225C109.334 108.404 110.037 107.533 110.779 106.692C111.611 105.75 112.458 104.822 113.298 103.888ZM72.7592 150.657C71.3404 151.49 70.5427 152.858 70.2532 154.949C71.6141 154.368 72.6539 152.587 72.7592 150.657ZM65.5333 128.013C65.7281 127.668 65.9597 127.416 65.9071 127.319C65.4043 126.401 64.8831 125.491 64.304 124.615C64.096 124.305 63.7248 124.105 63.4274 123.855C63.3484 123.929 63.2694 124.002 63.1878 124.078C63.9223 125.307 64.6541 126.535 65.5333 128.013ZM56.7885 108.002C57.7519 110.358 57.7519 110.358 58.5785 110.216C57.9467 109.435 57.3676 108.717 56.7885 108.002ZM62.2349 167.265C62.3349 167.328 62.4323 167.389 62.5297 167.449C62.9772 166.726 63.4247 166 64.0407 164.998C62.6324 165.503 62.5982 166.489 62.2349 167.265ZM127.171 183.952C128.534 184.252 128.534 184.252 129.39 183.576C128.066 183.11 128.066 183.11 127.171 183.952ZM119.226 184.707C119.253 184.851 119.279 184.996 119.305 185.143C119.974 184.964 120.645 184.788 121.311 184.609C121.282 184.494 121.251 184.375 121.219 184.26C120.556 184.41 119.89 184.557 119.226 184.707ZM57.6124 178.755C57.7335 178.795 57.8546 178.831 57.973 178.871C58.2337 178.245 58.4916 177.619 58.7496 176.996C58.6522 176.956 58.5548 176.919 58.4574 176.88C58.1757 177.506 57.8941 178.132 57.6124 178.755ZM59.1076 175.946C59.2445 175.994 59.3787 176.044 59.513 176.091C59.642 175.668 59.771 175.244 59.9 174.821C59.8447 174.802 59.792 174.784 59.7367 174.766C59.5262 175.16 59.3182 175.555 59.1076 175.946ZM105.23 118.101C105.211 117.995 105.196 117.893 105.18 117.788C104.78 117.861 104.382 117.93 103.987 118.019C103.958 118.024 103.966 118.179 103.945 118.377C104.398 118.279 104.814 118.19 105.23 118.101ZM124.52 184.312C124.491 184.162 124.459 184.012 124.428 183.863C124.038 183.949 123.649 184.033 123.259 184.12C123.278 184.225 123.296 184.333 123.314 184.438C123.717 184.396 124.12 184.354 124.52 184.312ZM21.7881 228.819C21.6855 228.753 21.5802 228.687 21.4749 228.622C21.2116 229.011 20.9484 229.4 20.6851 229.789C20.7694 229.845 20.8562 229.902 20.9431 229.958C21.2248 229.579 21.5064 229.2 21.7881 228.819ZM61.5268 121.735C61.4557 121.804 61.3846 121.872 61.3136 121.94C61.611 122.303 61.9058 122.666 62.2033 123.029C62.2875 122.953 62.3692 122.879 62.4481 122.806C62.1428 122.448 61.8348 122.09 61.5268 121.735ZM92.2863 124.636C92.3943 124.72 92.5022 124.804 92.6075 124.888C92.8602 124.536 93.1103 124.184 93.363 123.829C93.2867 123.773 93.2103 123.718 93.134 123.66C92.8523 123.986 92.568 124.31 92.2863 124.636Z" fill="#3D3D3D"/>
</svg>
