<svg width="152" height="173" viewBox="0 0 152 173" fill="none" xmlns="http://www.w3.org/2000/svg">
<path d="M151.795 145.422C137.334 140.98 122.905 136.053 109.386 129.035C95.8867 121.905 83.925 112.457 72.0926 103.015C66.2502 98.2123 60.1485 93.6405 55.0829 87.797C50.0187 81.9458 46.3737 75.1106 43.1753 68.2382C36.6764 54.5051 31.3644 40.215 27.3855 25.5848L27.5729 25.5293C32.702 39.7829 38.4847 53.7461 44.994 67.3765C48.2842 74.1449 51.7149 80.8765 56.4836 86.608C61.2741 92.302 67.1864 97.1099 72.791 102.192C78.4648 107.186 84.2757 112.048 90.5018 116.341C96.6978 120.684 103.327 124.326 110.122 127.592C123.63 134.281 137.813 139.549 151.863 145.234L151.795 145.422Z" fill="#373434"/>
<path d="M36.6717 35.7521C35.6769 37.4107 34.2843 39.0676 32.2139 39.5567C30.0945 39.9589 28.0787 38.8801 26.421 37.8209C24.7377 36.7011 23.2263 35.4142 21.7551 34.1144C20.238 32.7864 18.869 31.2626 17.707 29.557C16.5827 27.8388 15.6867 25.8792 15.3613 23.7615C15.0208 21.6409 15.3099 19.5394 15.7109 17.5853C16.5524 13.6963 17.7656 9.92368 19.3057 6.28358C19.6811 5.3749 20.0734 4.46387 20.4808 3.57296L21.1129 2.23617C21.3392 1.8024 21.4281 1.32099 21.915 0.843726C22.4445 0.370445 23.2227 0.516974 23.6664 0.77896C24.1488 1.03558 24.5394 1.41355 24.8688 1.77776C25.5384 2.49483 26.2365 3.18573 26.8877 3.93004C29.5501 6.82521 32.0995 9.86688 34.2308 13.2232C36.2929 16.5793 38.1235 20.2242 38.7662 24.2409C39.1025 26.2238 39.122 28.2727 38.7875 30.2423C38.419 32.1993 37.7116 34.0798 36.6717 35.7521ZM36.5048 35.6517C37.5094 33.9918 38.1587 32.102 38.2779 30.182C38.3716 28.2557 38.1208 26.3375 37.5697 24.5152C36.4627 20.8714 34.6394 17.4576 32.8332 14.0414C30.9963 10.6542 28.9456 7.30889 26.4148 4.34857C25.7795 3.61194 25.1307 2.88458 24.4433 2.19961C23.8402 1.53505 22.8646 0.889994 22.3742 1.36033C22.1412 1.56788 21.9734 2.08491 21.7805 2.52886L21.2653 3.88898C20.931 4.80925 20.6086 5.72542 20.3147 6.65244C19.1451 10.3647 18.2192 14.1444 17.5238 17.9292C17.192 19.812 17.0321 21.671 17.3684 23.4218C17.7109 25.1816 18.4459 26.8698 19.4547 28.4138C20.4347 29.9817 21.702 31.3961 23.0458 32.7383C24.4469 34.1021 25.7709 35.5334 27.196 36.7853C28.6116 38.004 30.2675 39.1399 32.1312 39.0127C34.0044 38.8298 35.5094 37.2709 36.5048 35.6517Z" fill="#373434"/>
<path d="M30.4456 52.8522C28.4699 50.9581 26.648 48.9267 24.8191 46.916C23.9297 45.9133 23.0124 44.9763 21.9968 44.275C21.0055 43.5704 19.8318 43.2243 18.5555 42.9221C17.2732 42.6306 15.8954 42.3795 14.5419 41.8583C13.1977 41.3335 11.9941 40.6113 10.8379 39.8925C8.57838 38.4451 6.10302 37.0078 3.46797 37.3234L3.63637 36.6853L7.97767 39.4023C9.43149 40.3268 10.8672 41.4414 11.9917 42.8756C13.1233 44.2546 13.9499 45.7671 14.9489 47.0261C15.9461 48.3077 17.062 49.2345 18.4842 49.7708C19.9076 50.2971 21.5662 50.5785 23.2507 50.9229L28.2409 52.0144C29.8992 52.3649 31.5554 52.7898 33.2089 53.1954C34.0464 53.3954 34.8194 53.629 35.5861 53.5846C35.9583 53.5627 36.3635 53.4226 36.8001 53.3301C37.2162 53.2329 37.7787 53.2118 38.147 53.5361L38.0387 53.6992C37.2983 53.3623 36.6103 54.0279 35.7001 54.2478C34.7674 54.4831 33.8519 54.3259 33.0191 54.2314C31.3256 54.0364 29.6289 53.8541 27.9495 53.6003L22.8958 52.8706C21.2353 52.5747 19.4915 52.4088 17.7295 51.7196C15.9203 51.0813 14.4089 49.634 13.4052 48.1806C12.3674 46.7121 11.5742 45.2098 10.6565 43.8777C8.8357 41.266 5.93611 39.3147 3.23787 37.2663L2.47085 36.6837L3.40319 36.6238C6.33862 36.4271 8.83176 37.9928 11.2688 39.0996C12.4962 39.6728 13.7286 40.2107 14.9671 40.5255C16.2133 40.8245 17.5406 40.9419 18.9221 41.2197C20.2857 41.4925 21.7732 41.9827 22.9797 42.9044C24.1906 43.786 25.0884 44.9208 25.9277 46.007C27.5371 48.2159 29.1346 50.4093 30.5993 52.7321L30.4456 52.8522Z" fill="#373434"/>
<path d="M64.904 56.5609C68.877 55.549 72.8671 54.5175 76.4384 52.6725C78.2173 51.7546 79.8477 50.6029 81.2908 49.2748C82.7177 47.9193 83.9157 46.3363 84.8576 44.5986C86.735 41.1118 87.8314 37.227 88.3262 33.223C88.8677 29.2176 88.9092 25.1135 88.8676 21.0159L89.4248 21.3313C82.8872 24.8611 76.9951 29.5581 71.8804 34.9129C70.6003 36.2407 69.3896 37.6428 68.1707 39.0386C66.9684 40.447 65.7833 41.8554 64.8924 43.3737C63.9742 44.8908 63.4479 46.492 63.5566 48.1681C63.6199 49.8555 64.2652 51.556 64.6851 53.4829C64.8968 54.4411 65.0297 55.472 64.9688 56.5297C64.8934 57.5894 64.6944 58.5058 64.4655 59.4559C63.9923 61.3336 63.3738 63.1253 62.7829 64.8662C62.2016 66.6231 61.6785 68.3546 61.4341 70.1019C61.1937 71.8782 61.0422 73.7261 61.0088 75.5528C60.9086 82.8697 62.4042 90.2643 65.6774 96.9634L65.5051 97.0564C61.5179 90.7104 59.4137 83.1458 59.2709 75.554C59.2313 73.6461 59.295 71.7708 59.4852 69.8459C59.7232 67.8921 60.2607 66.0327 60.8215 64.2342C61.3749 62.4367 62.0056 60.6977 62.4361 58.9568C62.6583 58.1014 62.8307 57.1887 62.9043 56.3836C62.9707 55.5794 62.8844 54.742 62.7204 53.8784C62.3978 52.1554 61.7313 50.3022 61.6779 48.2406C61.5827 46.1627 62.3366 44.0832 63.4057 42.4612C64.4794 40.8015 65.7668 39.4011 67.0351 38.0231C68.3176 36.6407 69.6638 35.326 71.0375 34.0495C76.5482 28.9337 82.6437 24.5467 89.05 20.6747L89.577 20.3622L89.612 20.9894C89.8314 25.087 90.1408 29.2116 89.8214 33.3764C89.4844 37.5215 88.4982 41.7564 86.3232 45.4301C84.2264 49.1325 80.8688 52.1824 76.979 53.795C73.1322 55.5227 69.0107 56.2465 64.946 56.7575L64.904 56.5609Z" fill="#373434"/>
<path d="M62.6361 60.1339C62.5752 57.9648 61.8003 55.9883 60.729 54.2603C59.6547 52.5105 58.1699 51.0595 56.6123 49.6532C55.0711 48.2223 53.4233 46.8062 51.7131 45.4926C49.9919 44.1879 48.1833 43.0015 46.3286 41.9103L46.9034 41.4431C47.8735 43.7776 48.9112 46.083 49.8218 48.4332C50.7043 50.7947 51.6454 53.1333 52.4552 55.5221C53.2828 57.8789 54.0223 60.2059 55.2974 62.2291C56.5672 64.2135 58.3417 65.9923 60.747 66.7628L60.7185 66.9494C58.0924 66.8662 55.6501 65.2219 54.0065 63.1584C52.3353 61.0567 51.3052 58.5922 50.4809 56.2054C49.643 53.8278 48.9465 51.4011 48.1793 48.9989C47.4461 46.5921 46.8337 44.1315 46.1587 41.6993L45.8374 40.5562L46.7435 41.2331C48.4827 42.5428 50.2711 43.7616 52.1503 44.8519C54.0579 45.9159 55.9816 46.9531 57.735 48.3472C59.4545 49.7459 60.9927 51.4932 62.011 53.552C63.0188 55.5875 63.4366 57.9985 62.8335 60.151L62.6361 60.1339Z" fill="#373434"/>
<path d="M59.401 76.1014C61.8647 76.7774 64.2744 76.0289 66.6854 75.379C69.0989 74.7115 71.4343 73.8548 73.774 72.9753C76.117 72.12 78.475 71.1589 80.6309 69.8432C82.7819 68.5109 84.7021 66.8303 86.4137 64.9811L86.7653 65.8977C84.1509 66.0055 81.5663 65.6696 79.0547 65.3607C76.5492 65.0608 74.0795 64.877 71.7113 65.158C69.3566 65.4298 67.0579 66.2666 65.0485 67.6237C63.0205 68.9712 61.2758 70.7953 59.9722 72.988L59.7937 72.9115C60.5193 70.4137 62.0788 68.1436 64.1247 66.4086C66.1692 64.6985 68.7228 63.456 71.4324 63.0907C74.1431 62.7153 76.7966 63.1033 79.326 63.5406C81.8617 63.9696 84.3044 64.5646 86.7961 64.8367L88.0939 64.973L87.145 65.7513C85.1517 67.4025 83.078 68.9019 80.9831 70.3721C78.8775 71.8365 76.7524 73.3208 74.4212 74.4756C72.0777 75.5951 69.5759 76.3736 67.0284 76.8573C64.5684 77.314 61.6356 77.6905 59.3196 76.2805L59.401 76.1014Z" fill="#373434"/>
<path d="M81.0668 36.4972C80.5664 38.749 79.1826 40.6837 77.517 42.134C76.6448 42.8423 75.6268 43.3536 74.7827 44.0507C73.9193 44.7332 73.192 45.5425 72.5097 46.4097C71.1772 48.162 69.7611 49.7382 68.5112 51.4099C67.1766 53.0218 65.985 54.6681 64.8488 56.608L64.6567 56.5581C64.577 54.2533 65.5461 51.9983 66.8479 50.1491C68.2242 48.3389 69.9019 46.8153 71.7836 45.624C72.7001 45.0033 73.5996 44.3676 74.3542 43.5768C75.118 42.7995 75.6949 41.8308 76.3636 40.9901C77.7641 39.3543 79.2452 37.9444 80.8971 36.3948L81.0668 36.4972Z" fill="#373434"/>
<path d="M53.7755 52.4161C54.814 53.1586 55.4503 53.9198 55.9101 54.8511C56.1041 55.3427 56.1813 55.9542 56.49 56.4003C56.7824 56.8536 57.2543 57.1413 57.7599 57.3873C58.8024 57.8379 59.7218 58.4685 60.5242 59.3598C61.2365 60.2783 61.7888 61.6461 61.3463 62.89L61.1556 62.9213C60.341 61.9948 59.6772 61.4448 58.9577 60.742C58.3142 59.9991 57.5636 59.2143 57.0264 58.1702C56.7339 57.6627 56.4358 57.1855 56.0137 56.8119C55.5992 56.4397 54.9992 56.1895 54.5752 55.784C53.7927 54.9295 53.3838 53.7591 53.5926 52.4859L53.7755 52.4161Z" fill="#373434"/>
<path d="M76.8381 68.2526C75.4928 69.2882 74.0771 69.8694 72.56 70.1634C71.7872 70.2704 70.9581 70.2025 70.2055 70.3833C69.4411 70.5509 68.7513 70.918 68.0758 71.335C66.7553 72.2116 65.3553 72.8523 63.94 73.4359C62.4894 73.943 61.1491 74.2841 59.5963 74.8374L59.4679 74.6947C60.2178 73.1391 61.7493 72.1642 63.1542 71.5055C64.6159 70.9179 66.1192 70.4702 67.7204 70.3201C68.5167 70.2222 69.2927 70.0851 70.0054 69.7765C70.7305 69.486 71.3793 68.9468 72.0904 68.6089C73.5487 68.0144 75.1222 67.789 76.7902 68.0667L76.8381 68.2526Z" fill="#373434"/>
<path d="M34.0849 88.9371C32.415 85.3465 30.5817 81.8601 28.51 78.5424C26.3997 75.2843 24.0193 72.1255 20.712 70.3145C19.0616 69.4148 17.2434 68.7111 15.406 67.8694C13.5759 67.0267 11.819 66.0355 10.1603 64.9147C6.79439 62.7342 3.77508 60.1501 0.63599 57.753L1.17208 57.3455C3.54357 63.6485 6.33298 69.9208 10.6055 75.0471C12.7406 77.5931 15.1573 79.8903 17.9539 81.5794C20.7008 83.3197 23.8877 84.261 27.1013 85.4133C30.312 86.5809 33.3595 87.7636 36.6034 88.297C38.2273 88.5956 39.8994 88.7961 41.5836 89.0492C43.2734 89.3238 44.9539 89.6391 46.6152 90.0115C53.2899 91.4647 59.7464 93.8567 65.7216 97.051L65.6381 97.233C59.3515 94.731 52.8698 92.8882 46.2853 91.6941C42.9849 91.0919 39.6896 90.8471 36.2613 90.3195C32.7956 89.8243 29.5069 88.5218 26.3997 87.3177C23.2942 86.1084 19.945 85.0465 16.997 83.0846C14.0729 81.1342 11.5893 78.6389 9.58283 75.8455C5.52192 70.2504 3.17767 63.8054 0.521795 57.6059L0.00989147 56.4053L1.05931 57.1908C4.21334 59.571 7.50202 61.7647 10.8945 63.7095C12.6014 64.6606 14.3365 65.5486 16.0977 66.3392C17.8551 67.1204 19.7719 67.7512 21.5654 68.8286C25.1744 71.0001 27.7251 74.3898 29.6081 77.8965C31.5296 81.3955 33.1023 85.0687 34.2606 88.8684L34.0849 88.9371Z" fill="#373434"/>
<path d="M37.9594 89.7807C35.5257 89.7498 33.6258 91.3091 32.1868 93.0589C30.7352 94.8424 29.333 96.9648 27.5332 98.6584C25.7495 100.379 23.6887 101.776 21.5758 103.009C19.4549 104.238 17.314 105.377 15.0955 106.4L15.0168 105.724C17.971 106.056 20.9482 106.214 23.783 105.915C25.1949 105.735 26.5837 105.458 27.858 104.926C29.1455 104.4 30.3377 103.65 31.5043 102.839C33.8256 101.167 35.9455 99.1994 37.9594 97.0368C39.9697 94.8845 41.9482 92.6798 43.7909 90.3335L43.9579 90.4338C42.6866 93.1627 41.0225 95.6941 39.1775 98.0778C37.354 100.456 35.252 102.767 32.7127 104.54C30.2116 106.376 27.0148 107.519 23.9093 107.594C20.7861 107.718 17.8245 106.995 14.9065 106.426L13.6763 106.189L14.8278 105.751C17.0629 104.9 19.2038 103.762 21.0902 102.284C22.9949 100.83 24.6647 99.1247 26.2968 97.4322C27.1191 96.5777 27.9186 95.7189 28.6909 94.8243C29.4443 93.9176 30.2393 92.973 31.1172 92.0738C32.8222 90.302 35.5008 88.8571 37.9948 89.5906L37.9594 89.7807Z" fill="#373434"/>
<path d="M31.0425 88.0228C29.6289 86.9075 28.7198 85.3521 27.8406 83.9061C26.9762 82.389 26.1871 81.1477 25.042 80.0102C23.9459 78.8337 22.6399 77.711 21.1974 76.8146C19.7452 75.9195 18.1828 75.21 16.6536 74.3651C15.1056 73.545 13.642 72.5675 12.3181 71.4226C10.9831 70.3039 9.70615 69.1056 8.56347 67.8072C6.29247 65.1713 4.37454 62.3039 2.77604 59.2293L2.93703 59.1083C5.5137 61.4376 7.79242 63.9687 10.1047 66.4037C12.3552 68.9091 14.6969 71.271 17.2471 73.4805C18.5408 74.5679 19.9791 75.4871 21.5062 76.2632C23.0333 77.0393 24.6733 77.6862 26.1311 78.8002C27.6022 79.9025 28.5661 81.675 29.1896 83.2181C29.8933 84.7872 30.3761 86.4016 31.1949 87.893L31.0425 88.0228Z" fill="#373434"/>
<path d="M46.3443 90.8366C46.2967 88.1571 46.7757 85.4836 45.6787 83.3024C44.7179 81.0357 42.9646 79.0713 41.545 76.8434C40.0693 74.6554 38.6283 72.433 36.8865 70.4448C35.1651 68.4439 33.2333 66.6351 31.2753 64.8694L32.4026 64.2022C33.2219 66.375 33.973 68.5719 34.6948 70.7705C35.4289 72.9699 36.1506 75.1685 36.7608 77.3998C37.4136 79.6178 37.9296 81.8819 38.5121 84.1269C38.763 85.2254 39.0516 86.3113 39.5173 87.3207C39.956 88.3315 40.5471 89.3014 41.5048 89.9242L41.4211 90.1037C40.2526 89.7421 39.3527 88.7706 38.6849 87.7817C38.0183 86.7654 37.5208 85.669 37.0898 84.5535C36.3304 82.3676 35.4992 80.1989 34.8063 77.9939C34.0797 75.796 33.4598 73.566 32.8583 71.3261C32.2336 69.0968 31.6369 66.8562 31.1167 64.5976L30.4667 61.8113L32.2419 63.9332C33.9538 65.9724 35.5911 68.0615 37.3339 70.0569C39.0549 72.0727 40.9568 73.9326 42.7287 75.924C44.4689 77.9001 46.1931 80.0463 47.1385 82.7546C47.6288 84.0668 47.7217 85.6291 47.4836 86.9582C47.2751 88.3055 46.8961 89.5801 46.5431 90.8634L46.3443 90.8366Z" fill="#373434"/>
<path d="M43.2761 90.2888C42.7328 88.0408 42.0224 86.085 41.308 84.0459C40.9924 83.0502 40.6712 81.8899 40.1976 80.8766C39.7237 79.8435 39.0767 78.9159 38.3872 78.0016C36.9658 76.2061 35.7878 74.2781 34.7038 72.2975C33.7001 70.2738 32.8227 68.1807 32.2912 65.894L32.4611 65.8014C34.0984 67.4806 35.378 69.3575 36.5338 71.3034C37.603 73.2836 38.5965 75.3235 39.3288 77.491C39.717 78.5656 40.1539 79.6161 40.7578 80.5718C41.3402 81.5503 42.1887 82.329 42.7966 83.3855C43.8809 85.4746 44.2971 88.034 43.4715 90.3086L43.2761 90.2888Z" fill="#373434"/>
<path d="M92.6962 138.355C89.966 133.919 86.1349 130.482 82.1258 127.223C78.1655 123.905 74.2417 120.53 69.6424 118.464C65.0688 116.352 60.0106 115.322 54.8959 115.042C49.7739 114.764 44.5992 115.335 39.5498 116.365L39.7094 115.842C44.7541 121.071 50.6174 125.491 56.9307 128.952C60.0928 130.677 63.3759 132.153 66.7718 133.285C70.1594 134.445 73.6863 135.186 77.239 135.827C80.7834 136.462 84.421 137.04 87.9713 137.504C91.5398 137.921 95.0216 137.996 98.4028 136.847C100.113 136.324 101.802 135.653 103.569 135.09C105.337 134.543 107.124 134.089 108.934 133.737C112.551 133.006 116.243 132.803 119.896 132.937L119.892 133.138C116.258 133.303 112.668 133.906 109.175 134.8C105.645 135.659 102.422 137.132 98.9207 138.412C95.3952 139.749 91.3959 139.948 87.7502 139.473C84.0753 139.019 80.5077 138.483 76.8737 137.861C69.6446 136.575 62.4431 134.171 56.161 130.293C49.8174 126.488 44.3302 121.522 39.2607 116.274L38.855 115.859L39.4272 115.748C44.5193 114.759 49.6785 114.022 54.9214 113.943C60.1437 113.876 65.5063 114.662 70.365 116.89C75.2513 119.139 79.2123 122.728 83.034 126.186C84.9345 127.948 86.8557 129.733 88.5786 131.709C90.2685 133.714 91.7536 135.899 92.8661 138.263L92.6962 138.355Z" fill="#373434"/>
<path d="M59.8909 165.249C63.171 162.425 66.5589 159.879 70.0673 157.456C71.8499 156.298 73.7063 155.209 75.4096 153.923C77.1319 152.65 78.5802 151.075 80.4225 149.795C82.2983 148.454 84.5726 147.993 86.4942 147.339C88.4791 146.679 90.3925 145.859 92.2236 144.926C95.9307 143.117 99.189 140.528 101.734 137.05L101.91 137.141C100.459 141.28 97.0812 144.686 93.1907 146.775C91.2362 147.833 89.1307 148.55 87.0175 149.104C84.8603 149.696 82.796 149.837 80.9612 150.725C77.2272 152.608 74.283 155.985 71.0338 158.766C67.6806 161.455 63.984 163.732 59.9981 165.417L59.8909 165.249Z" fill="#373434"/>
<path d="M77.6273 146.261C80.2632 144.847 83.0934 143.784 86.1141 143.311C87.6252 143.134 89.2256 143.102 90.7896 143.752C91.5577 144.076 92.3364 144.671 92.7654 145.54C93.1833 146.401 93.1911 147.331 93.1087 148.144C91.9368 154.39 88.214 159.705 83.484 163.594C78.7401 167.508 72.9326 169.964 67.0074 171.016C61.0557 172.11 55.0557 172.123 49.0794 171.862L47.8304 171.81L48.9348 171.156C51.6362 169.555 52.8209 166.468 54.3877 163.627C55.1872 162.197 56.1249 160.732 57.5035 159.598C58.8876 158.396 60.5599 157.886 61.9254 157.228C64.7148 155.923 67.2794 153.975 69.7737 151.949C72.2977 149.94 74.7866 147.82 77.6273 146.261ZM77.7202 146.434C74.8873 147.977 72.5783 150.254 70.3045 152.537C68.0146 154.792 65.6775 157.17 62.6677 158.737C61.1633 159.516 59.6962 160.01 58.6079 160.941C57.4672 161.85 56.5771 163.106 55.6923 164.419C54.8276 165.733 54.0125 167.157 53.0318 168.49C52.0521 169.831 50.8042 171.053 49.2819 171.827L49.1362 171.114C55.0301 171.724 61.0534 171.362 66.7454 169.855C72.4126 168.33 77.835 165.875 82.1902 162.06C86.5605 158.337 89.9331 153.292 91.4506 147.92C91.7087 146.61 91.4177 145.507 90.2321 144.862C89.0863 144.218 87.611 144.03 86.172 144.068C83.2626 144.168 80.3394 145.059 77.7202 146.434Z" fill="#373434"/>
<path d="M91.3456 137.98C87.2926 135.776 83.552 133.225 79.8089 130.709C77.9673 129.391 76.1346 128.03 74.1165 126.989C72.105 125.942 69.9513 125.206 67.7459 124.701C63.3416 123.704 58.832 122.963 54.4168 121.762C50.1543 120.578 45.4006 119.678 41.524 117.072L41.605 116.89C45.9659 118.341 50.3859 118.684 54.929 119.739C59.3069 120.937 63.769 121.941 68.0657 123.677C70.212 124.52 72.2978 125.498 74.3932 126.42C76.4882 127.34 78.6392 128.217 80.6663 129.324C84.66 131.635 88.2268 134.553 91.4648 137.825L91.3456 137.98Z" fill="#373434"/>
<path d="M96.697 91.4406C100.46 89.3072 103.486 86.1404 105.679 82.5259C107.841 78.8861 109.358 74.8492 109.977 70.6701C110.267 68.5931 110.427 66.5193 110.045 64.4958C109.673 62.4637 108.972 60.4696 108.093 58.5297C106.292 54.6511 104.098 50.8937 101.417 47.5246L101.971 47.4627C98.7752 53.801 95.8397 60.4513 94.9863 67.4453C94.558 70.9315 94.6614 74.4057 95.4145 77.8294C96.0971 81.2605 97.1798 84.6756 97.8481 88.2716C98.1936 90.0532 98.3881 91.9569 98.3245 93.7261L98.2921 99.1078C98.3484 102.581 98.7776 106.072 99.6848 109.45C101.487 116.207 104.935 122.561 109.759 127.818L109.623 127.963C104.255 123.218 100.147 116.904 98.0468 109.923C96.9481 106.446 96.3426 102.805 96.2528 99.1433C96.0982 95.5849 96.514 92.0091 95.8372 88.6192C95.2841 85.1776 94.2813 81.7342 93.6479 78.158C92.9743 74.5776 92.9904 70.8078 93.6535 67.2349C95.0208 60.0462 98.3647 53.6183 101.374 47.1651L101.595 46.6901L101.939 47.1042C104.674 50.4905 107.213 54.0595 109.299 57.9307C110.341 59.8702 111.26 61.9427 111.68 64.1929C112.113 66.4314 112.079 68.752 111.674 70.9461C110.875 75.3157 109.305 79.5772 106.771 83.2313C104.275 86.8805 100.846 89.9722 96.7841 91.6236L96.697 91.4406Z" fill="#373434"/>
<path d="M98.5356 104.592C98.688 103.09 99.5261 101.779 100.436 100.611C101.371 99.4444 102.487 98.4355 103.705 97.5263C106.139 95.6757 109.14 94.7194 112.078 94.2039C115.04 93.6951 117.986 93.5784 120.941 93.5789C123.894 93.5798 126.846 93.8204 129.749 94.2973L131.344 94.5529L130.019 95.3388C127.415 96.8795 124.853 98.4861 122.377 100.217C119.864 101.917 117.675 103.988 114.96 105.599C112.177 107.233 108.894 107.594 105.903 107.608C104.438 107.619 102.88 107.852 101.321 107.663C100.555 107.554 99.723 107.39 99.1265 106.809C98.5355 106.214 98.4521 105.344 98.5356 104.592ZM98.7285 104.612C98.6759 105.338 98.7724 106.142 99.3168 106.615C99.8714 107.054 100.621 107.175 101.348 107.143C102.814 107.088 104.234 106.645 105.777 106.362C108.764 105.8 111.623 105.412 114.228 104.162C115.561 103.592 116.854 102.843 118.16 102.074C119.465 101.316 120.77 100.54 122.026 99.7021C124.543 98.0352 126.978 96.2389 129.376 94.386L129.637 95.4313C126.739 95.3289 123.854 95.3359 120.975 95.4432C118.11 95.5759 115.22 95.8377 112.416 96.2483C109.613 96.6759 106.903 97.392 104.362 98.5981C103.091 99.2308 101.882 100.016 100.826 100.971C99.7879 101.94 98.9179 103.181 98.7285 104.612Z" fill="#373434"/>
<path d="M97.2409 93.9058C96.1631 92.149 94.786 90.6732 93.3452 89.2902C91.901 87.9002 90.3268 86.6591 88.6842 85.5657C87.0425 84.4969 85.2927 83.3962 83.4908 82.4187C81.6932 81.4183 79.7982 80.6068 77.9093 79.7672L78.3911 79.3598C79.2218 81.7927 80.3508 84.0978 81.4255 86.4031C82.5231 88.6953 83.6592 90.9797 85.1111 92.9068C86.5438 94.8909 88.3547 96.2548 90.6901 97.3584C92.9342 98.5166 95.424 99.5766 97.3526 101.398L97.2333 101.553C94.9669 100.341 92.4823 99.7815 90.0456 98.8376C88.8295 98.3641 87.5668 97.8748 86.3909 97.0674C85.2447 96.2608 84.2357 95.2673 83.4415 94.1502C81.8297 91.9243 80.8262 89.4734 79.8889 87.0553C78.9583 84.6141 78.3487 82.0667 77.7242 79.5534L77.5407 78.7814L78.2157 79.1446C80.0165 80.1149 81.9164 80.9085 83.8606 81.5947C85.8071 82.3152 87.7891 82.9887 89.6267 84.0996C91.4483 85.2373 93.0181 86.6963 94.396 88.3028C95.7449 89.9134 96.9062 91.7746 97.42 93.8267L97.2409 93.9058Z" fill="#373434"/>
<path d="M126.835 95.5254C125.955 96.5361 124.652 97.0399 123.53 97.4571C122.369 97.882 121.186 98.2532 119.966 98.4617C118.742 98.646 117.473 98.681 116.258 98.9258C115.05 99.1721 113.891 99.6116 112.741 100.094C110.462 101.143 108.033 101.704 105.992 102.688C103.873 103.591 101.825 104.902 99.5208 105.984L99.3911 105.831C100.911 103.809 102.742 102.005 105.098 100.797C106.29 100.207 107.565 99.8926 108.788 99.6294C110.014 99.3535 111.226 99.193 112.47 99.0504C113.702 98.9045 114.923 98.7033 116.097 98.3161C117.27 97.9314 118.384 97.3451 119.541 96.8911C120.699 96.4616 121.908 96.2078 123.125 95.9923C124.367 95.766 125.528 95.7312 126.719 95.3638L126.835 95.5254Z" fill="#373434"/>
</svg>
