<svg width="18" height="18" viewBox="0 0 18 18" fill="none" xmlns="http://www.w3.org/2000/svg">
<path fill-rule="evenodd" clip-rule="evenodd" d="M8.53415 0C6.21665 0 5.92575 0.0101399 5.01555 0.0515599C4.10705 0.0931599 3.48695 0.23699 2.94435 0.44801C2.38314 0.66597 1.90704 0.95753 1.43273 1.43202C0.95806 1.90634 0.6665 2.38243 0.44783 2.94353C0.23627 3.48623 0.0922702 4.10653 0.0513802 5.01463C0.0106702 5.92483 0 6.21593 0 8.53343C0 10.8509 0.0103099 11.1409 0.0515599 12.0511C0.0933399 12.9596 0.23716 13.5797 0.44801 14.1223C0.66614 14.6835 0.9577 15.1596 1.4322 15.6339C1.90633 16.1086 2.38243 16.4009 2.94335 16.6188C3.48625 16.8298 4.10655 16.9737 5.01485 17.0153C5.92505 17.0567 6.21575 17.0668 8.53305 17.0668C10.8508 17.0668 11.1408 17.0567 12.051 17.0153C12.9595 16.9737 13.5803 16.8298 14.1232 16.6188C14.6843 16.4009 15.1596 16.1086 15.6337 15.6339C16.1084 15.1596 16.3999 14.6835 16.6186 14.1224C16.8284 13.5797 16.9725 12.9594 17.0152 12.0513C17.0561 11.1411 17.0667 10.8509 17.0667 8.53343C17.0667 6.21593 17.0561 5.92503 17.0152 5.01483C16.9725 4.10633 16.8284 3.48623 16.6186 2.94363C16.3999 2.38243 16.1084 1.90634 15.6337 1.43202C15.159 0.95735 14.6844 0.66579 14.1226 0.44801C13.5786 0.23699 12.9582 0.0931599 12.0498 0.0515599C11.1395 0.0101399 10.8498 0 8.53145 0H8.53415ZM7.76855 1.53777C7.99575 1.53742 8.24925 1.53777 8.53405 1.53777C10.8126 1.53777 11.0826 1.54595 11.9824 1.58684C12.8144 1.62489 13.2658 1.76391 13.5666 1.88071C13.9649 2.03538 14.2489 2.22027 14.5474 2.51894C14.846 2.81763 15.0309 3.10203 15.186 3.50033C15.3028 3.80073 15.442 4.25233 15.4798 5.08433C15.5207 5.98383 15.5295 6.25413 15.5295 8.53143C15.5295 10.8088 15.5207 11.079 15.4798 11.9786C15.4418 12.8106 15.3028 13.2621 15.186 13.5626C15.0313 13.9608 14.846 14.2444 14.5474 14.5429C14.2487 14.8415 13.965 15.0264 13.5666 15.1811C13.2662 15.2984 12.8144 15.4371 11.9824 15.4751C11.0828 15.516 10.8126 15.5249 8.53405 15.5249C6.25545 15.5249 5.98545 15.516 5.08585 15.4751C4.25385 15.4367 3.80235 15.2977 3.50135 15.1809C3.10315 15.0262 2.81865 14.8414 2.51999 14.5427C2.22132 14.244 2.03643 13.9603 1.88141 13.5619C1.76461 13.2614 1.62541 12.8099 1.58754 11.9779C1.54665 11.0783 1.53847 10.8081 1.53847 8.52933C1.53847 6.25053 1.54665 5.98173 1.58754 5.08213C1.62558 4.25013 1.76461 3.79863 1.88141 3.49783C2.03608 3.09953 2.22132 2.81513 2.51999 2.51645C2.81865 2.21778 3.10315 2.03289 3.50135 1.87787C3.80215 1.76053 4.25385 1.62186 5.08585 1.58364C5.87305 1.54809 6.17815 1.53742 7.76855 1.53564V1.53777ZM13.0892 2.95473C12.5239 2.95473 12.0652 3.41283 12.0652 3.97833C12.0652 4.54363 12.5239 5.00233 13.0892 5.00233C13.6546 5.00233 14.1132 4.54363 14.1132 3.97833C14.1132 3.41303 13.6546 2.95473 13.0892 2.95473ZM8.53415 4.15113C6.11405 4.15113 4.15185 6.11333 4.15185 8.53343C4.15185 10.9535 6.11405 12.9148 8.53415 12.9148C10.9543 12.9148 12.9157 10.9535 12.9157 8.53343C12.9157 6.11333 10.9543 4.15113 8.53415 4.15113ZM8.53415 5.68893C10.105 5.68893 11.3786 6.96233 11.3786 8.53343C11.3786 10.1042 10.105 11.3778 8.53415 11.3778C6.96305 11.3778 5.68965 10.1042 5.68965 8.53343C5.68965 6.96233 6.96305 5.68893 8.53415 5.68893Z" fill="#3D3B3A"/>
</svg>
