<svg width="32" height="32" viewBox="0 0 32 32" fill="none" xmlns="http://www.w3.org/2000/svg">
<path fill-rule="evenodd" clip-rule="evenodd" d="M16.0007 7.46667C13.6832 7.46667 13.3923 7.47681 12.4821 7.51823C11.5736 7.55983 10.9535 7.70366 10.4109 7.91468C9.84969 8.13264 9.37359 8.4242 8.89928 8.89869C8.42461 9.37301 8.13305 9.8491 7.91438 10.4102C7.70282 10.9529 7.55882 11.5732 7.51793 12.4813C7.47722 13.3915 7.46655 13.6826 7.46655 16.0001C7.46655 18.3176 7.47686 18.6076 7.51811 19.5178C7.55989 20.4263 7.70371 21.0464 7.91456 21.589C8.13269 22.1502 8.42425 22.6263 8.89875 23.1006C9.37288 23.5753 9.84898 23.8676 10.4099 24.0855C10.9528 24.2965 11.5731 24.4404 12.4814 24.482C13.3916 24.5234 13.6823 24.5335 15.9996 24.5335C18.3173 24.5335 18.6073 24.5234 19.5175 24.482C20.426 24.4404 21.0468 24.2965 21.5897 24.0855C22.1508 23.8676 22.6262 23.5753 23.1003 23.1006C23.575 22.6263 23.8665 22.1502 24.0852 21.5891C24.295 21.0464 24.439 20.4261 24.4817 19.518C24.5226 18.6078 24.5332 18.3176 24.5332 16.0001C24.5332 13.6826 24.5226 13.3917 24.4817 12.4815C24.439 11.573 24.295 10.9529 24.0852 10.4103C23.8665 9.8491 23.575 9.37301 23.1003 8.89869C22.6256 8.42402 22.151 8.13246 21.5892 7.91468C21.0452 7.70366 20.4247 7.55983 19.5163 7.51823C18.606 7.47681 18.3163 7.46667 15.998 7.46667H16.0007ZM15.2351 9.00444C15.4623 9.00409 15.7158 9.00444 16.0006 9.00444C18.2791 9.00444 18.5491 9.01262 19.4489 9.05351C20.2809 9.09156 20.7324 9.23058 21.0332 9.34738C21.4315 9.50205 21.7154 9.68694 22.0139 9.98561C22.3125 10.2843 22.4974 10.5687 22.6525 10.967C22.7693 11.2674 22.9085 11.719 22.9463 12.551C22.9872 13.4505 22.9961 13.7208 22.9961 15.9981C22.9961 18.2755 22.9872 18.5457 22.9463 19.4453C22.9083 20.2773 22.7693 20.7288 22.6525 21.0293C22.4978 21.4275 22.3125 21.7111 22.0139 22.0096C21.7152 22.3082 21.4316 22.4931 21.0332 22.6478C20.7328 22.7651 20.2809 22.9038 19.4489 22.9418C18.5493 22.9827 18.2791 22.9916 16.0006 22.9916C13.722 22.9916 13.452 22.9827 12.5524 22.9418C11.7204 22.9034 11.2689 22.7644 10.9679 22.6476C10.5697 22.4929 10.2852 22.3081 9.98654 22.0094C9.68787 21.7107 9.50298 21.427 9.34796 21.0286C9.23116 20.7281 9.09196 20.2766 9.05409 19.4446C9.0132 18.545 9.00502 18.2748 9.00502 15.996C9.00502 13.7172 9.0132 13.4484 9.05409 12.5488C9.09213 11.7168 9.23116 11.2653 9.34796 10.9645C9.50263 10.5662 9.68787 10.2818 9.98654 9.98312C10.2852 9.68445 10.5697 9.49956 10.9679 9.34454C11.2687 9.2272 11.7204 9.08853 12.5524 9.05031C13.3396 9.01476 13.6447 9.00409 15.2351 9.00231V9.00444ZM20.5557 10.4214C19.9904 10.4214 19.5317 10.8795 19.5317 11.445C19.5317 12.0103 19.9904 12.469 20.5557 12.469C21.1211 12.469 21.5797 12.0103 21.5797 11.445C21.5797 10.8797 21.1211 10.4214 20.5557 10.4214ZM16.0007 11.6178C13.5806 11.6178 11.6184 13.58 11.6184 16.0001C11.6184 18.4202 13.5806 20.3815 16.0007 20.3815C18.4208 20.3815 20.3823 18.4202 20.3823 16.0001C20.3823 13.58 18.4208 11.6178 16.0007 11.6178ZM16.0007 13.1556C17.5715 13.1556 18.8451 14.429 18.8451 16.0001C18.8451 17.5709 17.5715 18.8445 16.0007 18.8445C14.4296 18.8445 13.1562 17.5709 13.1562 16.0001C13.1562 14.429 14.4296 13.1556 16.0007 13.1556Z" fill="white"/>
</svg>
