<svg width="17" height="18" viewBox="0 0 17 18" fill="none" xmlns="http://www.w3.org/2000/svg">
<path fill-rule="evenodd" clip-rule="evenodd" d="M8.53559 16.935H8.53209C7.11545 16.9345 5.72346 16.5791 4.48714 15.9047L0 17.0818L1.20083 12.6956C0.4601 11.4119 0.0703311 9.95575 0.0709663 8.46392C0.0728232 3.79695 3.86998 0 8.53551 0C10.7999 0.000977267 12.9251 0.882478 14.5232 2.48244C16.1213 4.08232 17.0009 6.20894 17 8.4706C16.9981 13.1365 13.2025 16.9331 8.53559 16.935ZM4.6951 14.3723L4.95201 14.5248C6.03218 15.1658 7.27037 15.505 8.53281 15.5054H8.53566C12.4133 15.5054 15.5693 12.3493 15.5709 8.47009C15.5716 6.59022 14.8405 4.82266 13.5123 3.49284C12.184 2.16301 10.4176 1.4303 8.53843 1.42965C4.65777 1.42965 1.50171 4.58543 1.50017 8.46439C1.49962 9.79374 1.87157 11.0884 2.57582 12.2085L2.7431 12.4747L2.03238 15.0708L4.6951 14.3723ZM12.5098 10.2929C12.6573 10.3642 12.7569 10.4124 12.7994 10.4834C12.8523 10.5716 12.8523 10.995 12.6761 11.4891C12.4998 11.9832 11.6549 12.4341 11.2485 12.4948C10.8841 12.5492 10.423 12.572 9.91638 12.4109C9.60919 12.3135 9.21527 12.1834 8.71067 11.9654C6.72791 11.1093 5.38798 9.18757 5.13474 8.82437C5.117 8.79893 5.10459 8.78113 5.09767 8.77189L5.09596 8.76961C4.98404 8.62028 4.23407 7.61964 4.23407 6.58402C4.23407 5.6098 4.71262 5.09917 4.93289 4.86412C4.94799 4.84802 4.96186 4.83321 4.97429 4.81963C5.16815 4.60789 5.3973 4.55495 5.53829 4.55495C5.67927 4.55495 5.82042 4.55626 5.94364 4.56244C5.95885 4.56321 5.97466 4.56312 5.99101 4.56302C6.11426 4.5623 6.26792 4.5614 6.4195 4.9255C6.47782 5.06564 6.56316 5.27339 6.65316 5.49251C6.83515 5.93556 7.03621 6.42506 7.07159 6.4959C7.12448 6.60177 7.15971 6.72523 7.08922 6.86645C7.07864 6.88762 7.06885 6.9076 7.0595 6.9267C7.00655 7.0348 6.9676 7.11431 6.87773 7.21924C6.84239 7.2605 6.80587 7.30498 6.76935 7.34946C6.69658 7.43807 6.62383 7.52668 6.56047 7.58979C6.45459 7.69526 6.34437 7.80968 6.46775 8.02142C6.59112 8.23317 7.01558 8.92573 7.64433 9.48656C8.3202 10.0894 8.90762 10.3442 9.20537 10.4734C9.26352 10.4986 9.31061 10.519 9.34517 10.5363C9.55658 10.6422 9.67996 10.6245 9.80334 10.4834C9.92673 10.3422 10.3321 9.86578 10.473 9.65408C10.614 9.44242 10.755 9.47767 10.9489 9.54823C11.1428 9.61887 12.1826 10.1305 12.3941 10.2363C12.4354 10.257 12.474 10.2757 12.5098 10.2929Z" fill="#FDFDFD"/>
</svg>
