<svg width="571" height="614" viewBox="0 0 571 614" fill="none" xmlns="http://www.w3.org/2000/svg">
<path d="M16.1094 613.396C15.1041 581.193 15.0989 548.719 19.9427 516.646C25.0208 484.531 35.8333 453.917 46.7187 423.573C52.3802 408.495 57.3958 393.047 65.6823 378.818C73.9896 364.583 85.2552 352.531 96.9062 341.359C120.109 318.807 145.26 298.266 172.005 280.177L172.245 280.516C147.052 300.661 122.885 321.927 99.8958 344.427C88.5156 355.719 77.3125 367.271 69.0416 380.823C60.8646 394.396 55.2396 409.62 48.8541 424.411C42.6927 439.286 36.901 454.344 32.5312 469.849C28.0416 485.323 25.2604 501.193 23.3594 517.135C19.1771 548.964 18.3229 581.172 16.5312 613.401L16.1094 613.396Z" fill="#373434"/>
<path d="M157.901 305.891C153.875 305.026 149.578 303.359 147.167 299.526C144.901 295.531 145.688 290.724 146.677 286.651C147.776 282.49 149.333 278.557 150.938 274.698C152.568 270.724 154.698 266.922 157.339 263.406C160.026 259.958 163.359 256.797 167.401 254.687C171.443 252.547 175.875 251.677 180.089 251.141C188.51 250.161 196.948 250.01 205.344 250.609C207.432 250.74 209.542 250.901 211.615 251.109L214.745 251.464C215.771 251.625 216.807 251.469 218.104 252.125C219.422 252.865 219.661 254.531 219.438 255.609C219.25 256.755 218.76 257.807 218.255 258.719C217.271 260.562 216.359 262.448 215.307 264.271C211.302 271.63 206.927 278.859 201.63 285.464C196.281 291.932 190.198 298.13 182.547 302.187C178.781 304.229 174.661 305.682 170.464 306.359C166.266 306.964 161.99 306.839 157.901 305.891ZM157.99 305.484C162.026 306.37 166.281 306.375 170.234 305.292C174.182 304.156 177.875 302.333 181.167 299.964C187.75 295.224 193.38 289.203 199.016 283.208C204.583 277.177 209.911 270.745 214.135 263.604C215.182 261.818 216.203 260.01 217.109 258.151C218.036 256.479 218.661 254.068 217.38 253.406C216.797 253.078 215.641 253.094 214.615 253.01L211.516 252.911C209.438 252.87 207.365 252.849 205.292 252.896C197.01 253.094 188.755 253.828 180.646 255.031C176.625 255.656 172.766 256.62 169.469 258.5C166.161 260.401 163.26 263.042 160.849 266.141C158.359 269.193 156.38 272.724 154.599 276.354C152.818 280.12 150.844 283.771 149.297 287.505C147.823 291.198 146.672 295.312 148.208 298.984C149.865 302.63 154.042 304.589 157.99 305.484Z" fill="#373434"/>
<path d="M119.156 305.109C121.615 299.828 124.453 294.755 127.245 289.687C128.656 287.208 129.911 284.708 130.625 282.182C131.365 279.698 131.255 277.094 130.984 274.312C130.693 271.526 130.245 268.578 130.37 265.495C130.5 262.422 131.125 259.5 131.776 256.672C133.141 251.12 134.333 245.141 131.885 240.052L133.286 239.948L130.797 250.573C129.937 254.141 128.677 257.797 126.562 261.052C124.562 264.281 122.083 266.99 120.234 269.87C118.333 272.76 117.234 275.646 117.135 278.885C117.052 282.115 117.625 285.651 118.089 289.281L119.323 300.089C119.766 303.677 120.042 307.307 120.365 310.917C120.536 312.74 120.599 314.458 121.219 315.974C121.516 316.714 122.078 317.432 122.562 318.245C123.047 319.021 123.479 320.135 123.073 321.104L122.672 320.995C122.844 319.271 121.026 318.344 119.958 316.661C118.844 314.943 118.526 312.99 118.146 311.25C117.375 307.698 116.573 304.151 115.927 300.594L113.922 289.906C113.375 286.359 112.51 282.729 112.682 278.703C112.729 274.62 114.604 270.573 116.839 267.552C119.089 264.453 121.573 261.818 123.62 259.052C127.63 253.589 129.573 246.396 131.844 239.547L132.484 237.599L133.25 239.437C135.667 245.219 134.224 251.323 133.672 256.995C133.365 259.865 133.13 262.719 133.349 265.432C133.599 268.146 134.281 270.901 134.667 273.88C135.052 276.818 135.094 280.151 134.068 283.219C133.125 286.266 131.453 288.854 129.839 291.292C126.495 296.057 123.177 300.786 119.505 305.339L119.156 305.109Z" fill="#373434"/>
<path d="M135.396 377.115C140.172 384.422 144.995 391.755 151.172 397.682C154.25 400.635 157.687 403.13 161.359 405.125C165.073 407.068 169.088 408.391 173.234 409.094C181.557 410.479 190.141 410.016 198.552 408.26C206.995 406.589 215.297 403.849 223.531 400.943L223.276 402.286C211.667 391.536 198.141 382.896 183.828 376.276C180.271 374.604 176.609 373.13 172.958 371.635C169.292 370.182 165.641 368.766 161.963 368.01C158.276 367.208 154.687 367.245 151.385 368.62C148.026 369.911 145.042 372.38 141.453 374.552C139.667 375.635 137.682 376.62 135.505 377.224C133.312 377.802 131.333 378.026 129.26 378.219C125.146 378.557 121.115 378.547 117.198 378.552C113.255 378.589 109.406 378.729 105.719 379.437C101.969 380.177 98.1405 381.141 94.4374 382.333C79.6249 387.167 65.7499 395.271 54.4999 406.479L54.1926 406.193C64.2395 393.792 78.0364 384.344 93.2395 378.833C97.0572 377.437 100.88 376.276 104.891 375.333C108.995 374.469 113.109 374.271 117.12 374.167C121.12 374.042 125.062 374.12 128.87 373.786C130.745 373.646 132.703 373.365 134.38 372.964C136.042 372.542 137.672 371.792 139.302 370.865C142.552 369.026 145.823 366.411 149.943 364.885C154.068 363.26 158.776 363.349 162.786 364.391C166.87 365.411 170.573 367.042 174.229 368.651C177.891 370.286 181.469 372.089 184.984 373.979C199.094 381.562 212.13 390.828 224.344 401.078L225.338 401.927L224.094 402.427C215.984 405.693 207.885 409.151 199.271 411.375C190.687 413.552 181.469 414.479 172.568 412.62C163.667 410.943 155.208 406.276 149.281 399.547C143.151 392.979 138.854 385.172 135.031 377.333L135.396 377.115Z" fill="#373434"/>
<path d="M126.635 375C130.964 373.385 134.411 370.464 137.156 367.115C139.943 363.745 141.849 359.755 143.609 355.646C145.432 351.552 147.156 347.26 148.625 342.911C150.068 338.542 151.214 334.083 152.141 329.589L153.479 330.427C149.437 333.99 145.505 337.667 141.396 341.12C137.245 344.526 133.177 348.031 128.922 351.307C124.745 354.599 120.562 357.688 117.359 361.651C114.234 365.578 111.875 370.375 111.974 375.755L111.578 375.828C109.937 370.479 111.573 364.422 114.599 359.688C117.682 354.875 121.943 351.104 126.187 347.802C130.401 344.474 134.812 341.401 139.125 338.203C143.469 335.068 148.01 332.141 152.448 329.104L154.531 327.672L153.786 329.964C152.344 334.37 151.12 338.813 150.214 343.349C149.385 347.927 148.62 352.521 147.016 357.01C145.38 361.438 142.917 365.745 139.469 369.214C136.062 372.641 131.49 375.146 126.734 375.411L126.635 375Z" fill="#373434"/>
<path d="M92.2291 379.469C92.5573 384.901 95.7291 389.245 98.6979 393.651C101.703 398.062 105.036 402.177 108.417 406.286C111.755 410.422 115.312 414.51 119.448 417.948C123.62 421.37 128.323 424.083 133.229 426.26L131.625 427.599C129.609 422.401 128.505 416.964 127.396 411.687C126.281 406.432 124.953 401.328 122.75 396.75C120.583 392.187 117.318 388.135 113.198 385.021C109.089 381.854 104.208 379.594 98.8958 378.479L98.9219 378.068C104.458 377.807 110.109 379.391 115.01 382.318C119.87 385.266 124.125 389.552 126.729 394.76C129.354 399.969 130.396 405.583 131.255 410.979C132.135 416.385 132.615 421.719 133.786 426.932L134.406 429.641L132.182 428.266C127.479 425.385 123.031 422.234 118.625 419.026C114.229 415.792 109.776 412.526 105.839 408.625C101.969 404.672 98.6771 400.167 95.9531 395.365C93.3385 390.724 90.5625 385.068 91.8073 379.432L92.2291 379.469Z" fill="#373434"/>
<path d="M186.958 395.875C182.078 396.422 177.224 394.964 173.156 392.604C171.125 391.333 169.396 389.635 167.411 388.411C165.443 387.141 163.307 386.229 161.089 385.453C156.646 383.974 152.49 382.203 148.26 380.833C144.094 379.255 139.953 377.99 135.26 377.031L135.234 376.615C139.823 374.865 145.036 375.266 149.656 376.615C154.25 378.146 158.479 380.479 162.177 383.453C164.057 384.87 165.953 386.245 168.073 387.224C170.161 388.224 172.51 388.724 174.667 389.495C178.927 391.193 182.786 393.203 187.047 395.464L186.958 395.875Z" fill="#373434"/>
<path d="M136.094 351.833C135.307 354.437 134.214 356.24 132.651 357.812C131.797 358.536 130.615 359.115 129.927 360.042C129.214 360.948 128.958 362.099 128.812 363.281C128.62 365.693 127.984 367.979 126.74 370.214C125.375 372.281 123 374.339 120.193 374.297L119.995 373.937C121.307 371.656 121.953 369.943 122.875 368.005C123.932 366.198 124.995 364.146 126.734 362.344C127.552 361.401 128.307 360.474 128.771 359.365C129.24 358.276 129.328 356.896 129.849 355.76C131.036 353.594 133.115 351.964 135.823 351.51L136.094 351.833Z" fill="#373434"/>
<path d="M120.047 409.208C117.031 407.214 114.885 404.76 113.25 401.906C112.5 400.422 112.068 398.703 111.182 397.307C110.323 395.885 109.109 394.75 107.802 393.677C105.13 391.615 102.87 389.24 100.724 386.781C98.6979 384.208 97.0937 381.74 94.9062 378.995L95.1094 378.641C98.7552 379.078 101.776 381.495 104.073 383.875C106.266 386.411 108.203 389.135 109.604 392.26C110.349 393.797 111.156 395.266 112.271 396.49C113.359 397.75 114.891 398.688 116.057 399.885C118.26 402.422 119.802 405.432 120.385 408.99L120.047 409.208Z" fill="#373434"/>
<path d="M48.9322 337.281C55.0156 331.448 60.7864 325.349 66.0468 318.891C71.1614 312.396 75.8906 305.427 77.2604 297.516C77.9374 293.568 78.1041 289.417 78.5364 285.135C78.9739 280.87 79.7656 276.646 80.8801 272.531C82.9635 264.245 86.0885 256.38 88.7604 248.401L89.9531 249.208C78.8801 258.318 68.1562 268.26 60.7656 280.401C57.1041 286.458 54.1406 292.906 52.6562 299.703C51.0416 306.443 51.3385 313.51 51.2291 320.781C51.0833 328.057 50.7968 335.016 51.9583 341.917C52.4739 345.396 53.2187 348.901 53.8697 352.474C54.4739 356.068 54.9947 359.667 55.3906 363.276C57.0572 377.729 56.677 392.385 54.3541 406.625L53.9322 406.583C54.6458 392.187 53.901 377.859 51.776 363.771C50.7135 356.703 48.9426 349.891 47.6458 342.615C46.2551 335.297 46.6197 327.771 46.9114 320.677C47.2031 313.589 47.0416 306.104 48.9635 298.812C50.8854 291.578 54.2031 284.859 58.4531 278.891C66.9374 266.854 78.3124 257.693 88.9791 248.073L91.0468 246.214L90.1822 248.87C87.5572 256.865 85.401 265.005 83.8176 273.182C83.0729 277.276 82.4791 281.38 82.0989 285.474C81.7343 289.557 81.7812 293.854 80.8385 298.208C78.9479 306.979 73.8749 314.453 68.1041 320.661C62.3697 326.937 56.052 332.635 49.1926 337.589L48.9322 337.281Z" fill="#373434"/>
<path d="M49.8958 345.672C48.2864 340.745 43.8385 337.99 39.3177 336.297C34.7239 334.599 29.4843 333.229 24.8281 330.766C20.1354 328.354 15.901 325.167 11.9583 321.755C8.026 318.328 4.25517 314.797 0.666626 311.026L1.97392 310.406C3.3385 316.588 5.06767 322.698 7.62496 328.203C8.95829 330.922 10.4739 333.531 12.4218 335.74C14.3698 337.969 16.6979 339.854 19.1406 341.646C24.1041 345.177 29.5312 348.094 35.276 350.667C41 353.234 46.802 355.703 52.7968 357.802L52.7135 358.208C46.3333 357.526 40.0885 355.917 34.0104 353.839C27.9687 351.797 21.8593 349.156 16.5416 345.255C11.1198 341.479 6.61454 335.823 4.32288 329.615C1.92704 323.406 1.34371 316.937 0.484334 310.667L0.119751 308.026L1.79163 310.042C5.04163 313.964 8.80725 317.495 13.0885 320.276C17.3281 323.115 21.9166 325.307 26.4531 327.432C28.7395 328.5 31.0208 329.521 33.3541 330.458C35.7031 331.354 38.151 332.307 40.5677 333.458C45.3125 335.677 50.0677 340.078 50.302 345.609L49.8958 345.672Z" fill="#373434"/>
<path d="M48.6823 330.521C49.9583 326.906 52.4687 324.005 54.776 321.234C57.2395 318.448 59.1927 316.005 60.6979 312.911C62.3125 309.896 63.677 306.49 64.4948 302.964C65.2968 299.422 65.6562 295.781 66.3073 292.12C66.8906 288.432 67.8541 284.813 69.25 281.359C70.5885 277.896 72.1198 274.5 73.9531 271.302C77.7031 264.911 82.1614 259.073 87.2552 253.734L87.6145 253.974C84.6927 260.771 81.1562 267.104 77.8385 273.443C74.3437 279.703 71.1927 286.047 68.4948 292.708C67.1927 296.063 66.3333 299.594 65.8177 303.208C65.3073 306.818 65.1302 310.568 63.8854 314.276C62.677 318 59.7708 321.161 57.0885 323.479C54.4114 325.974 51.4895 328.063 49.0468 330.734L48.6823 330.521Z" fill="#373434"/>
<path d="M53.5469 363.297C58.9114 361.359 64.6302 360.484 68.2656 356.771C72.1719 353.271 74.9271 348.385 78.4375 343.995C81.8333 339.516 85.3229 335.078 88.1302 330.203C90.9792 325.354 93.2969 320.214 95.5052 315.057L97.625 316.87C93.8125 320.01 89.901 323.042 85.9635 326.005C82.0417 329 78.1042 331.969 74.026 334.734C70.0052 337.578 65.7969 340.177 61.6771 342.891C59.6354 344.156 57.6458 345.484 55.9323 347.115C54.1927 348.698 52.6458 350.557 52.0521 352.911L51.6302 352.87C51.5521 350.266 52.8958 347.786 54.4271 345.76C56.0208 343.714 57.8854 341.953 59.8333 340.318C63.7187 337.286 67.5156 334.115 71.4844 331.203C75.4114 328.224 79.4844 325.443 83.5833 322.687C87.6458 319.896 91.75 317.151 95.9427 314.547L101.115 311.323L98.0573 316.359C95.125 321.208 92.0417 325.948 89.2187 330.833C86.3437 335.693 83.901 340.802 81.1094 345.745C78.3229 350.615 75.1875 355.568 70.3802 359.333C68.0729 361.229 64.9844 362.49 62.1406 362.922C59.2812 363.427 56.4531 363.542 53.625 363.714L53.5469 363.297Z" fill="#373434"/>
<path d="M52.5312 356.734C56.6927 354.094 60.1406 351.312 63.7604 348.474C65.5521 347.151 67.6667 345.703 69.3854 344.052C71.1354 342.385 72.5677 340.443 73.9375 338.427C76.5729 334.328 79.651 330.625 82.8958 327.078C86.2813 323.661 89.8958 320.453 94.1406 317.807L94.4427 318.089C92.1823 322.542 89.2865 326.411 86.1563 330.078C82.901 333.599 79.474 337.005 75.6094 339.969C73.7135 341.495 71.8958 343.099 70.3854 344.974C68.8177 346.818 67.8281 349.068 66.1146 351.021C62.6563 354.646 57.7813 357.245 52.6302 357.141L52.5312 356.734Z" fill="#373434"/>
<path d="M86.9791 465.198C93.8697 471.312 102.333 475.229 111.13 477.161C119.953 479.016 129.135 479.292 137.979 477.667C142.365 476.823 146.656 475.714 150.474 473.552C154.312 471.406 157.849 468.62 161.151 465.516C167.734 459.214 173.792 452.203 178.74 444.484L179.245 445.557C164.271 443.479 148.849 442.135 134.161 445.234C126.844 446.771 119.911 449.37 113.531 453.245C107.083 456.979 100.948 461.516 94.1562 465.339C90.802 467.26 87.1041 468.958 83.4947 470.052L72.6249 473.687C65.6666 476.193 58.9218 479.458 52.7395 483.615C40.3593 491.896 29.927 503.214 22.651 516.557L22.2708 516.385C28.1353 502.297 38.0364 489.672 50.6614 480.635C56.9062 476.026 63.828 472.302 71.151 469.599C78.2187 466.839 85.7083 465.219 92.0728 461.521C98.6301 458.036 104.88 453.646 111.651 449.906C118.406 446.083 126.01 443.526 133.667 442.401C149.099 440.208 164.354 442.526 179.432 444.151L180.542 444.266L179.943 445.245C175 453.089 169.552 460.661 163.187 467.531C159.995 470.964 156.453 474.24 152.208 476.635C147.995 479.052 143.292 480.583 138.594 481.276C129.234 482.672 119.568 482.443 110.458 479.849C101.385 477.328 92.7968 472.547 86.6718 465.495L86.9791 465.198Z" fill="#373434"/>
<path d="M61.7395 477.953C64.875 477.224 68.0937 478.01 71.0729 479.042C74.0625 480.125 76.8698 481.682 79.5364 483.505C84.9427 487.141 88.9375 492.531 91.9948 498.099C95.0625 503.714 97.3229 509.573 99.3593 515.526C101.385 521.484 102.937 527.594 103.974 533.776L104.552 537.167L102.052 535.036C97.1614 530.849 92.1614 526.792 86.9635 522.995C81.8125 519.099 76.1302 516.115 71.0156 511.75C65.8073 507.26 62.8177 500.896 60.7291 494.875C59.7031 491.932 58.1614 488.953 57.4635 485.677C57.1614 484.063 56.9166 482.276 57.677 480.672C58.4687 479.068 60.1666 478.302 61.7395 477.953ZM61.8333 478.354C60.3333 478.745 58.7812 479.5 58.2031 480.917C57.6979 482.339 57.9687 483.932 58.5312 485.38C59.6562 488.292 61.526 490.849 63.1562 493.766C66.3437 499.396 69.0989 504.896 73.4062 509.286C75.4687 511.578 77.8698 513.667 80.3177 515.771C82.75 517.88 85.2083 519.979 87.7604 521.932C92.8541 525.859 98.151 529.531 103.536 533.089L101.609 534.328C99.8177 528.422 97.8177 522.609 95.625 516.88C93.3802 511.198 90.8645 505.552 88.1093 500.182C85.3177 494.828 82.0104 489.859 77.8281 485.573C75.677 483.443 73.2656 481.542 70.6145 480.078C67.9427 478.651 64.8437 477.755 61.8333 478.354Z" fill="#373434"/>
<path d="M82.3854 467.984C85.1823 464.609 87.2135 460.818 89.0052 456.958C90.8177 453.094 92.2292 449.063 93.3021 445.005C94.3281 440.958 95.3437 436.672 96.0729 432.37C96.8542 428.057 97.1823 423.682 97.5781 419.292L98.7292 419.99C94.401 423.333 90.5313 427.198 86.625 430.953C82.7552 434.745 78.9375 438.599 76.0521 442.854C73.0365 447.109 71.5365 451.698 70.9167 457.161C70.1302 462.479 69.7083 468.229 67.3594 473.37L66.9688 473.234C67.8542 467.833 67.2708 462.443 67.4896 456.88C67.6094 454.104 67.7292 451.224 68.5469 448.297C69.3802 445.432 70.6927 442.714 72.3958 440.344C75.7708 435.568 80.026 431.854 84.25 428.302C88.526 424.745 93.2448 421.766 97.8802 418.776L99.3073 417.875L99.0417 419.484C98.3281 423.781 98.0313 428.156 97.9896 432.552C97.875 436.964 97.8802 441.427 96.9063 445.891C95.8698 450.349 94.0104 454.51 91.724 458.401C89.401 462.229 86.4479 465.849 82.6719 468.297L82.3854 467.984Z" fill="#373434"/>
<path d="M99.4896 528.75C96.849 527.672 94.9375 525.391 93.3229 523.417C91.6667 521.37 90.1042 519.24 88.8438 516.922C87.6302 514.583 86.6875 512.052 85.3542 509.771C84.0313 507.505 82.349 505.474 80.5833 503.484C76.901 499.615 74.099 495.109 70.7083 491.672C67.4271 488.021 63.3802 484.792 59.6094 480.896L59.8281 480.531C64.9531 482.198 69.849 484.651 73.9063 488.568C75.9115 490.563 77.4271 492.917 78.7969 495.198C80.1979 497.484 81.3542 499.813 82.5 502.224C83.6406 504.604 84.8854 506.927 86.474 509.026C88.0573 511.125 90.0052 512.964 91.7135 514.99C93.3802 517.026 94.7188 519.286 95.9948 521.594C97.3073 523.943 98.1771 526.255 99.7344 528.406L99.4896 528.75Z" fill="#373434"/>
<path d="M29.1978 128.526C34.828 131.005 40.0103 134.536 46.2812 135.495C51.4895 136.292 56.7343 137.016 61.8593 138.198C65.5937 139.063 69.1614 140.63 72.8072 141.88C73.8697 142.25 74.9166 142.661 75.9947 142.969C86.6145 146.016 97.302 148.839 107.833 152.177C112.161 153.547 116.432 155.302 120.422 157.688C126.286 161.193 132.713 163.563 139.036 166.104C142.771 167.604 146.521 169.047 150.286 170.458C152.359 171.229 154.526 171.766 156.568 172.599C162.937 175.182 169.333 177.714 175.578 180.568C178.505 181.906 181.094 183.964 183.865 185.656C186.062 187.005 188.302 188.281 190.5 189.635C191.042 189.969 191.469 190.474 191.953 190.906C191.818 191.104 191.687 191.302 191.557 191.5C189.854 190.469 188.219 189.302 186.432 188.443C184.312 187.427 182.083 186.615 179.859 185.833C175.526 184.307 171.161 182.854 166.802 181.391C164.469 180.604 162.135 179.786 159.771 179.104C154.943 177.698 150.995 174.536 146.474 172.536C141.448 170.313 136.911 167.141 131.583 165.453C128.74 164.547 126.312 162.396 123.562 161.089C118.99 158.911 114.297 156.99 109.682 154.906C101.25 151.104 92.427 148.714 83.2968 147.344C80.401 146.911 77.5416 146.26 74.6718 145.677C68.3958 144.391 62.0885 143.214 55.8541 141.734C52.052 140.828 48.4322 139.073 44.6041 138.365C38.8853 137.307 33.8176 134.75 28.5624 132.536C25.677 131.323 22.5885 130.589 19.6145 129.578C18.7916 129.302 18.0416 128.807 17.2499 128.432C14.0989 126.948 10.9687 125.422 7.77596 124.031C7.32284 123.839 6.58325 124.313 5.91138 124.49C6.02075 126.453 7.49992 126.766 8.63533 127.365C11.0312 128.625 13.453 129.833 15.8645 131.063C16.4687 131.375 17.026 131.807 17.6614 132.016C21.6197 133.333 25.5937 134.594 29.5572 135.896C34.2135 137.422 38.8437 139.052 43.526 140.495C47.0624 141.583 50.677 142.438 54.2499 143.417C57.276 144.25 60.2551 145.302 63.3228 145.917C70.8124 147.411 78.3437 148.708 85.8593 150.089C87.6822 150.427 89.4739 150.724 91.276 151.354C95.828 152.943 100.542 154.094 105.193 155.411C105.51 155.495 106.031 155.339 106.172 155.516C108.135 158.036 111.292 158.109 113.88 159.333C118.635 161.583 123.432 163.75 128.198 165.984C131.318 167.448 134.385 169.021 137.51 170.458C141.38 172.245 145.318 173.979 148.75 176.484C152.87 179.484 157.615 180.792 162.245 182.573C167.531 184.604 172.885 186.297 178.292 187.943C181.786 189.005 185.005 190.953 188.328 192.557C195.234 195.896 202.068 199.406 209.052 202.578C213.208 204.464 217.25 206.693 221.823 207.651C223.052 207.906 224.062 209.125 225.213 209.839C227.234 211.089 229.255 212.328 231.323 213.49C233.229 214.563 234.588 215.896 235.062 218.198C235.672 221.161 236.734 224.026 237.401 226.979C237.87 229.052 237.922 231.214 238.297 233.307C238.609 235.078 239.047 236.833 239.547 238.557C241.141 244.063 243.078 249.49 244.307 255.068C245.021 258.318 245.094 261.88 244.609 265.182C244.026 269.167 244.937 272.781 245.802 276.604C244.484 276.88 243.073 277.245 241.641 277.458C236.328 278.266 231.562 280.349 227.344 283.625C226.12 284.578 225.167 285.896 224.187 287.13C221.281 290.807 217.026 292.948 213.812 296.276C213.266 296.844 212.474 297.245 212.083 297.896C210.047 301.297 206.693 303.219 203.677 305.521C201.276 307.354 198.781 309.068 196.307 310.807C191.463 314.203 188.599 318.979 187.026 324.531C185.63 329.464 183.203 333.359 178.312 335.516C176.151 336.469 174.13 337.813 172.932 340.016C172.292 341.203 172.672 342.078 173.99 342.109C175.536 342.146 177.297 342.385 178.609 341.771C181.646 340.354 184.724 340.703 187.818 340.875C193.411 341.188 198.87 340.385 204.099 338.531C208.411 337 212.547 334.974 216.729 333.099C220.083 331.599 221.969 328.479 224.359 325.927C225.187 325.042 225.995 324.135 226.87 323.302C227.516 322.682 228.37 322.26 228.937 321.589C235.333 314.026 242.432 307.026 247.635 298.495C248.266 297.464 249.266 296.656 250.172 295.661C250.406 296.042 250.734 296.333 250.703 296.578C250.25 300.391 249.99 304.25 249.187 307.99C248.338 311.948 247.052 315.823 245.786 319.672C244.979 322.125 244.156 324.667 242.781 326.807C241.766 328.385 240.031 329.833 238.292 330.542C235.016 331.885 233.172 334.578 231.198 337.115C229.422 339.396 227.479 341.609 226.583 344.526C226.255 345.599 225.057 346.453 224.156 347.302C222.031 349.302 220.693 351.698 220.141 354.573C219.906 355.781 219.281 356.911 219.036 358.115C218.495 360.781 218.51 363.406 218.823 366.172C219.672 373.573 220.083 381.031 220.51 388.474C220.672 391.292 221.786 393.375 224.01 395.026C226.021 396.516 228.068 398.042 227.932 400.802C229.359 401.25 230.156 400.792 230.213 399.719C230.312 397.901 231.286 396.609 232.203 395.156C234.281 391.849 235.172 388.031 235.625 384.24C236.203 379.474 238.354 375.776 241.625 372.427C243.495 370.51 245.193 368.313 246.484 365.974C247.411 364.292 247.656 362.177 247.995 360.224C248.49 357.328 248.833 354.411 249.172 351.495C249.667 347.182 248.307 343.151 246.849 339.25C245.698 336.172 245.708 333.047 245.427 329.911C245.385 329.422 245.781 328.885 246.01 328.391C246.208 327.979 246.682 327.589 246.656 327.214C246.312 322.047 249.917 318.031 250.687 313.198C250.891 311.911 251.292 310.646 251.75 308.766C252.417 309.938 252.969 310.542 253.12 311.229C253.594 313.417 253.963 315.635 254.297 317.854C255.224 324.073 256.109 330.302 257.026 336.531C257.12 337.182 257.177 337.88 257.443 338.469C259.505 343.005 260.213 347.917 261.526 352.661C262.599 356.557 264.073 360.339 265.338 364.182C265.687 365.24 266.104 366.271 265.198 367.38C264.771 367.911 264.641 368.849 264.708 369.578C265.266 375.813 262.906 381.036 259.177 385.786C257.448 387.99 255.51 390.036 253.859 392.286C251.99 394.839 250.521 397.677 249.922 400.786C249.391 403.536 249.083 406.375 249.088 409.172C249.094 413.823 246.786 417.542 244.615 421.307C243.724 422.849 242.302 424.073 241.208 425.505C240.594 426.307 239.906 427.188 239.677 428.135C238.661 432.365 238.604 436.672 240.062 440.771C240.755 442.714 241.292 444.536 241.156 446.594C240.865 451.094 240.615 455.604 240.448 460.109C240.422 460.911 240.682 462.063 241.229 462.438C241.677 462.74 242.786 462.214 243.536 461.901C246.932 460.495 248.661 457.302 251.031 454.797C252.729 453 254.484 451.26 256.167 449.453C259.016 446.391 260.318 442.583 261.338 438.62C262.615 433.667 264.365 428.974 268.068 425.177C270.49 422.693 272.854 420.083 274.818 417.234C277.443 413.422 278.245 408.885 278.75 404.365C279.354 398.974 278.713 393.099 277.224 387.479C276.948 386.443 276.927 385.344 277.312 384.109C279.167 388.172 280.937 392.276 282.906 396.276C284.969 400.474 286.24 404.974 288.156 409.224C288.875 410.818 290.052 412.146 290.823 413.589C291.578 415.01 292.344 416.557 292.948 418.073C294.099 420.974 295.958 423.313 297.641 425.839C300.141 429.594 303.422 432.516 307.01 435.016C309.276 436.599 312.005 438.01 314.682 438.385C321.016 439.266 327.401 440.62 333.849 438.943C335.911 438.401 336.656 438.984 337.479 440.927C338.687 443.76 339.557 446.859 341.307 449.318C343.609 452.557 345.786 456.063 350.536 456.792C354.031 457.333 357.099 459.349 360.073 461.536C363.333 463.943 367.177 465.578 370.844 467.401C373.307 468.62 375.849 469.703 378.443 470.583C379.521 470.953 380.828 470.635 382.453 470.635C382.161 469.396 382.115 468.5 381.75 467.76C380.104 464.422 378.505 461.042 376.604 457.844C375.713 456.354 374.359 454.943 372.891 454.026C370.234 452.365 367.401 450.938 364.516 449.703C359.74 447.672 355.76 444.646 352.349 440.792C349.901 438.021 346.562 436.797 343.135 436.146C339.391 435.438 337.432 433.38 336.573 429.823C335.411 425.021 334.583 420.057 332.729 415.526C330.562 410.234 327.641 405.359 322.318 402.135C316.646 398.703 311.724 394.156 307.526 388.948C305.151 386.005 302.646 383.495 298.693 382.594C293.333 381.365 288.073 379.698 282.771 378.198C278.927 377.109 275.422 375.708 273.01 372.057C270.875 368.828 268.88 365.573 268.193 361.802C267.958 360.536 269.213 359 269.786 357.589C269.229 357.552 268.677 357.516 268.12 357.479C269.958 359.38 271.687 361.411 273.672 363.146C275.828 365.026 278.047 366.656 281.099 367.365C284.974 368.271 288.651 369.844 291.948 372.516C296.667 376.339 300.838 380.771 305.651 384.453C308.359 386.526 310.979 388.771 314.562 389.417C317.271 389.906 319.99 390.589 322.568 391.552C325.792 392.766 329.094 392.729 332.213 391.979C335.453 391.208 338.635 389.823 341.552 388.182C343.948 386.833 345.734 384.417 348.104 383.016C351.557 380.979 355.245 379.313 358.927 377.708C361.479 376.594 364.208 375.88 366.833 374.932C368.536 374.313 370.208 373.714 370.854 371.635C371.125 370.755 372.094 370.099 372.771 369.318C371.812 368.156 370.849 368.224 369.422 368.391C365.281 368.88 361.068 368.729 356.911 369.104C352.141 369.536 347.505 368.974 342.922 367.771C339.948 366.984 337.427 365.484 335.052 363.422C331.734 360.552 327.99 358.182 324.49 355.505C322.802 354.219 321.156 352.833 319.687 351.302C317.333 348.833 314.615 347.198 311.208 346.693C308.604 346.307 306.463 346.802 304.609 348.917C303.234 350.484 301.255 351.266 299.068 350.661C293.437 349.094 287.641 349.677 281.922 349.411C280.25 349.333 278.49 350.375 276.823 351.042C275.583 351.536 274.453 352.302 273.229 352.839C271.823 353.453 270.469 354.37 268.828 353.005C268.401 352.651 267.141 353.292 266.463 353.432C264.781 347.078 263.307 341.438 261.776 335.813C261.307 334.078 260.521 332.422 260.141 330.672C259.052 325.609 258.141 320.505 257.068 315.438C256.531 312.911 255.682 310.448 255.172 307.917C254.844 306.292 254.323 304.396 254.844 302.969C256.344 298.88 257.333 294.807 256.547 290.417C261.625 285.885 267.62 282.286 270.302 275.313C272.682 279.417 276.667 281.453 280.495 283.573C282.708 284.797 285.26 285.391 287.646 286.307C290.62 287.453 292.672 289.755 294.625 292.104C295.979 293.745 297.109 295.578 298.276 297.365C299.932 299.901 301.286 302.672 303.219 304.964C304.76 306.797 306.922 308.141 308.911 309.563C311.26 311.245 313.708 312.786 316.141 314.349C316.792 314.771 317.505 315.167 318.245 315.385C321.333 316.286 323.698 318.214 326.141 320.234C327.375 321.25 328.823 323.354 331.125 321.917C335.469 324.672 340.333 322.469 344.885 323.344C348.177 323.984 351.469 324.328 354.443 326.198C355.995 327.172 357.963 327.479 360.026 328.188C361.76 327.557 361.198 325.901 360.745 324.646C360.271 323.302 359.5 321.901 358.463 320.964C356.219 318.943 354.781 316.479 353.401 313.854C351.094 309.464 348.229 305.354 346.109 300.885C344.505 297.5 342.963 294.156 340.646 291.198C339.224 289.385 337.62 287.906 335.474 286.922C332.651 285.625 330.078 283.615 327.151 282.734C322.578 281.359 318.781 278.609 314.599 276.568C311.12 274.865 307.484 274.557 304.062 275.542C300.401 276.594 296.896 276.406 293.375 275.781C289.448 275.078 285.672 274.661 281.672 275.578C279.859 275.995 277.771 275.531 275.776 275.938C275.026 276.094 273.901 275.271 273.187 274.63C271.12 272.766 269.177 270.755 267.172 268.818C263.844 265.62 260.458 262.484 257.208 259.214C256.365 258.365 255.615 257.177 255.38 256.031C254.052 249.557 251.505 243.521 249.245 237.365C247.979 233.901 247.495 230.12 246.927 226.438C246.469 223.49 245.74 220.755 243.708 218.479C243.516 218.266 243.542 217.859 243.391 217.229C245.141 217.766 246.734 218.12 248.229 218.734C253.109 220.729 257.88 222.911 263.062 224.182C265.682 224.828 267.943 226.87 270.443 228.12C273.755 229.776 277.167 231.24 280.5 232.865C282.526 233.854 284.51 234.943 286.458 236.083C290.865 238.667 295.568 240.359 300.62 241.177C301.755 241.359 302.76 242.297 303.901 242.526C310.245 243.807 316.625 244.906 322.963 246.229C325.49 246.76 328.016 246.729 330.552 246.896C332.193 247.005 333.797 247.646 335.437 247.839C339.911 248.354 344.521 248.297 348.838 249.385C351.432 250.042 354.896 249.635 356.505 252.802C360.766 254.885 364.042 258.177 367.479 261.349C368.943 262.698 369.172 264.417 370.172 265.849C372.708 269.464 375.125 273.172 377.422 276.948C379.927 281.057 382.141 285.344 384.703 289.411C385.818 291.193 387.615 292.536 388.88 294.245C390.198 296.021 391.396 297.917 392.37 299.901C393.198 301.594 393.479 303.547 394.266 305.266C395.25 307.396 395.266 309.417 394.969 311.755C394.115 318.568 393.672 325.432 393.135 332.286C393.047 333.391 393.13 334.589 393.463 335.63C394.75 339.594 394.328 343.661 394.422 347.703C394.463 349.51 394.432 351.333 394.677 353.115C395.177 356.75 398 358.552 400.703 360.464C402.255 361.557 403.807 362.729 405.068 364.13C407.792 367.141 410.495 370.203 412.896 373.469C415.406 376.891 417.463 380.635 419.891 384.12C421.026 385.75 422.573 387.078 423.917 388.568C424.385 389.089 424.818 389.651 425.234 390.219C426.594 392.068 427.833 394.016 429.333 395.734C429.88 396.365 431.042 396.453 432.156 396.88C433.448 391.849 435.75 387.776 438.224 383.724C439.953 380.891 440.927 377.589 442.12 374.448C442.38 373.766 442.13 372.891 442.115 372.104C442.057 369.063 442.12 366.01 441.891 362.979C441.745 360.964 441.526 358.828 440.724 357.016C439.318 353.833 437.693 350.677 435.682 347.849C432.896 343.938 430.542 339.87 429.224 335.255C427.448 329.016 424.182 323.432 421.088 317.844C419.453 314.891 416.458 312.698 414.115 310.13C410.359 306.01 405.005 304.323 400.62 301.188C397.719 299.115 395.088 296.646 392.432 294.25C385.74 288.208 382.083 280.052 377.495 272.547C375.88 269.901 374.24 267.266 373.042 264.219C373.786 264.943 374.62 265.594 375.271 266.396C378.838 270.76 383.542 273.599 388.297 276.448C391.771 278.526 394.995 281.026 398.26 283.432C400.167 284.833 402.115 286.25 403.713 287.964C405.292 289.661 406.5 291.714 407.797 293.656C410.156 297.193 412.417 300.807 414.807 304.323C416.583 306.938 418.115 309.651 419.62 312.432C421.552 316.01 423.297 320.078 427.797 321.51C431.302 322.63 434.729 324.042 438.292 324.948C440.823 325.594 442.838 327.042 444.615 328.625C446.672 330.464 449.052 331.068 451.437 331.052C456.172 331.01 460.896 330.464 465.625 330.099C466.052 330.063 466.469 329.839 466.891 329.703C467.583 327.875 466.844 326.594 465.615 325.443C460.755 320.891 457.693 315.052 454.198 309.521C452.51 306.854 450.963 304.021 448.838 301.74C447.484 300.286 445.276 299.255 443.286 298.865C441.031 298.427 439.958 297.365 438.729 295.542C436.104 291.635 433.422 287.703 429.422 284.917C426.646 282.979 424.151 280.651 421.396 278.677C418.557 276.641 415.51 275.609 411.833 276.573C408.463 277.458 404.948 277.797 401.484 278.271C399.323 278.563 397.302 278.297 395.307 277.083C392.922 275.63 389.953 275 387.828 273.281C384.776 270.807 381.109 269.167 378.562 265.958C376.062 262.807 373.109 260.021 370.391 257.047C369.792 256.396 369.328 255.615 368.516 254.505C372.823 256.552 376.88 257.672 381.088 258.536C383.047 258.943 385.026 260.094 387.125 260.286C391.318 260.667 395.542 260.766 399.734 261.135C402.547 261.385 405.323 262.01 408.13 262.286C415.359 263 422.13 265.599 429.13 267.245C434.307 268.458 438.792 271.151 442.474 274.906C444.24 276.698 445.292 279.182 446.724 281.318C448.599 284.109 450.542 286.854 452.448 289.625C453.276 290.839 454.12 292.036 454.875 293.292C456.088 295.297 457.193 297.297 459.318 298.635C463.641 301.359 465.177 305.828 466.219 310.531C466.604 312.281 466.974 314.042 467.542 315.729C468.651 319.042 469.62 322.443 471.167 325.547C472.49 328.193 474.411 330.583 476.318 332.885C477.885 334.781 479.823 336.375 481.604 338.094C482.083 338.557 482.516 339.135 483.088 339.432C485.885 340.875 488.62 342.547 491.573 343.547C494.729 344.615 497.406 346.229 500.12 348.109C503.891 350.729 508.052 352.776 512.052 355.068C512.245 355.177 512.469 355.396 512.641 355.365C517.12 354.578 520.922 357.703 525.271 357.563C526.755 357.516 528.141 359.271 529.786 357.661C529.24 355.615 527.516 354.474 525.963 353.25C521.406 349.656 517.979 345.427 516.917 339.474C515.838 333.438 513.401 327.786 510.625 322.396C508.229 317.734 504.182 314.229 500.208 310.859C497.281 308.38 494.052 306.271 491.016 303.922C489.161 302.484 487.49 300.807 485.62 299.396C481.49 296.286 477.073 293.979 471.656 294.031C467.354 294.073 463.094 293.609 459.042 291.891C457.432 291.214 456.187 290.458 455.177 288.865C453.656 286.469 452.38 284 451.088 281.495C449.677 278.776 447.588 276.365 445.547 274.042C442.922 271.057 440.047 268.292 436.729 264.87C439.099 265.208 440.88 265.292 442.573 265.734C448.271 267.224 453.963 267.943 459.927 267.62C467.885 267.188 475.922 267.115 483.818 268.552C487.125 269.151 490.281 270.609 493.516 271.646C496.937 272.75 500.354 273.839 503.786 274.896C508.849 276.458 513.943 277.906 519.255 278.344C525.047 278.823 530.682 278.042 536.255 276.401C541.099 274.974 546.062 273.969 550.917 272.583C553.729 271.781 556.552 270.828 559.146 269.5C560.88 268.615 562.26 266.995 563.74 265.641C565.234 264.26 566.62 262.76 568.12 261.385C569.182 260.411 569.969 259.396 569.661 257.849C569.599 257.521 569.531 257.115 569.667 256.844C570.943 254.359 570.088 252.224 568.338 250.505C566.318 248.526 566.198 246.177 566.458 243.63C564.615 242.188 562.521 241.797 560.37 241.911C555.51 242.172 550.667 242.568 545.818 242.911C544.234 243.021 542.651 243.292 541.073 243.229C536.604 243.042 532.328 243.599 528.078 245.203C525.953 246.005 523.417 246 521.078 245.922C514.562 245.703 508.875 247.844 503.776 251.693C498.068 256 491.708 259.115 485.453 262.5C481.432 264.677 477.609 264.849 473.422 264.615C471.307 264.5 469.172 264.771 467.047 264.714C461.974 264.583 456.896 264.354 451.818 264.161C451.479 264.151 451.141 264.13 450.807 264.089C447.234 263.651 443.625 263.401 440.099 262.719C436.901 262.094 433.708 261.411 430.542 260.516C426.875 259.474 422.974 259.125 419.151 258.844C415.219 258.557 411.25 258.849 407.307 258.656C398.104 258.203 388.802 258.521 379.896 255.469C379.812 255.438 379.76 255.302 379.479 254.927C380.838 254.359 382.083 253.604 383.422 253.313C388.042 252.313 392 250.057 395.891 247.49C398.979 245.448 402.437 244.094 406.13 243.385C407.661 243.094 409.276 242.776 410.615 242.036C415.516 239.333 420.646 239.26 426.021 239.958C430.016 240.479 434.094 240.359 438.12 240.698C446.078 241.365 454.016 242.234 461.969 242.859C465.859 243.167 469.776 243.198 473.677 243.198C475.224 243.198 476.812 242.938 478.302 242.516C481.943 241.484 485.646 240.536 489.13 239.099C492.115 237.87 495.146 236.38 497.588 234.333C500.984 231.479 504.703 229.229 508.432 226.938C509.167 226.484 510.104 226.37 510.937 226.073C515.213 224.563 519.838 224.125 523.865 221.781C524.604 221.349 525.818 221.432 526.724 221.646C528.792 222.135 530.844 223.464 532.844 223.349C537.187 223.104 541.958 225.208 545.958 220.927C545.505 220.432 544.953 219.406 544.099 218.932C538.375 215.771 532.38 213.328 525.875 212.271C524.677 212.073 523.484 211.604 522.401 211.047C518.281 208.938 514.234 206.75 510.74 203.604C508.12 201.245 504.516 200.922 501.26 200.661C497.745 200.375 494.036 200.745 490.604 201.604C486.802 202.557 482.906 202.547 479.135 203.469C475.661 204.318 471.906 204.521 468.74 206C463.542 208.422 458.609 211.474 454.74 215.917C452.812 218.13 450.823 220.188 447.786 221.094C443.505 222.37 440.453 225.677 437.771 228.932C434.891 232.427 430.927 233.516 427.255 235.411C424.151 237.016 420.87 236.453 417.687 236.979C412.479 237.844 407.25 238.583 402.588 241.411C400.677 242.568 398.542 243.156 396.187 243.359C392.656 243.661 389.12 244.161 385.771 245.729C381.932 247.526 377.651 247.578 373.479 247.901C372.375 247.984 371.24 248.323 370.182 248.151C367.792 247.766 365.448 247.13 363.083 246.599C363.078 246.349 363.078 246.109 363.073 245.859C364.469 245.464 365.854 245.036 367.255 244.677C370.713 243.792 374.271 243.172 377.625 241.984C380.104 241.104 382.562 239.792 384.615 238.156C390.01 233.849 395.641 229.849 400.448 224.776C402.875 222.219 405.724 219.615 409.562 218.859C410.417 218.688 411.443 218.339 411.963 217.714C413.969 215.302 416.786 214.521 419.542 213.552C420.281 213.286 421.198 213.198 421.729 212.703C426.24 208.51 431.469 205.052 435.057 199.896C435.437 199.349 435.896 198.708 435.937 198.083C436.245 193.464 439.641 190.141 441 185.932C441.682 183.797 443.458 181.953 444.948 180.146C447.583 176.932 447.786 173.313 447.344 169.411C446.891 165.417 446.969 161.354 446.365 157.385C446.005 154.984 445.141 152.505 443.88 150.427C441.786 146.974 439.229 143.797 436.797 140.552C436.391 140.005 435.641 139.714 435.052 139.307C434.62 140.005 433.844 140.693 433.807 141.417C433.609 145.464 432.078 148.823 429.104 151.563C427.526 153.026 426.026 154.568 424.458 156.047C419.698 160.516 418.927 166.208 419.484 172.286C419.734 174.984 420.203 177.661 420.495 180.359C420.802 183.167 419.562 185.646 418.583 188.135C417.755 190.24 416.646 192.229 415.724 194.292C414.229 197.62 413.87 201.177 413.635 204.76C413.521 206.453 413.286 208.141 413.177 209.833C413.005 212.453 411.693 213.854 409.318 215.203C404.422 217.984 399.776 221.286 396.005 225.578C394.531 227.255 393.187 228.927 390.87 229.552C389.932 229.807 389.099 230.557 388.281 231.167C385.38 233.313 382.318 234.99 378.651 235.5C377.12 235.714 375.693 236.599 374.167 236.943C369.49 238 364.786 238.948 360.088 239.922C359.651 240.01 359.094 239.839 358.76 240.052C354.531 242.755 350.458 241.13 346.182 240C341.542 238.771 336.708 238.297 331.979 237.38C329.891 236.979 327.844 236.333 325.797 235.729C324.229 235.271 322.693 234.708 321.229 234.219C324.203 232.531 327.016 230.823 329.932 229.297C333.406 227.469 336.958 225.802 340.484 224.063C341.182 223.719 341.87 223.339 342.594 223.042C344.859 222.109 347.005 221.047 349.667 221.177C353.833 221.38 358.026 221.099 362.208 221.021C362.661 221.01 363.172 221.13 363.557 220.958C369.161 218.453 375.62 217.823 380.312 213.302C382.151 211.531 383.365 209.161 385.719 207.891C388.198 206.557 390.604 205.094 393.083 203.766C396.193 202.104 399.865 201.745 402.75 199.536C404.828 197.943 406.807 196.167 408.672 194.406C409.771 193.365 409.615 190.813 409.703 188.927C409.781 187.203 410.203 185.745 411.13 184.281C412.713 181.797 412.719 178.88 412.5 176.12C412.172 172.026 413.328 168.323 414.76 164.307C414.146 163.896 413.463 163.443 412.771 162.979C409.672 166.359 406.469 169.188 402.307 170.656C400.401 171.328 398.5 172.177 396.526 172.448C393.318 172.885 390.484 174.271 387.75 175.714C385.292 177.01 382.682 178.651 381.104 180.839C377.995 185.161 373.573 186.26 368.896 187.188C367.906 187.385 366.865 187.344 365.875 187.563C358.948 189.104 354.073 193.026 352.12 200C351.24 203.125 350.792 206.375 350.161 209.568C349.203 214.458 347.156 218.443 342.062 220.302C339.641 221.182 337.432 222.641 335.068 223.693C331.682 225.198 328.24 226.464 324.578 227.276C319.974 228.302 315.516 229.943 310.948 231.151C309.469 231.536 307.802 231.719 306.312 231.453C300.646 230.443 294.969 229.396 289.38 228.016C283.115 226.464 277.213 224.036 271.953 220.063C267.76 216.896 263.406 213.807 258.745 211.438C254.99 209.531 250.656 208.766 246.594 207.453C244.99 206.938 243.437 206.255 241.838 205.724C238.203 204.51 234.536 203.516 230.755 202.745C225.463 201.661 220.38 199.568 215.135 198.193C211.391 197.208 208.073 195.307 204.75 193.557C201.292 191.729 198.344 188.943 195.135 186.63C189.812 182.792 184.302 179.224 178.104 176.958C174.099 175.49 169.906 174.531 165.922 173.026C163.094 171.953 160.448 170.38 157.771 168.943C154.583 167.234 151.448 165.427 148.302 163.651C147.635 163.276 146.99 162.854 145.937 162.208C149.088 161.255 151.865 160.563 154.521 159.547C155.927 159.01 157.125 157.911 158.406 157.047C158.76 156.813 159.021 156.422 159.396 156.234C165.713 153.057 171.885 149.49 178.443 146.901C182.193 145.417 186.24 144.5 189.604 142.234C194.26 139.094 198.906 135.839 203.068 132.089C206.729 128.797 210.203 127.427 214.984 129.333C219.99 131.328 225.234 132.714 230.276 134.609C232.427 135.422 234.427 136.734 236.338 138.052C238.943 139.839 241.271 142.047 243.943 143.703C247.26 145.75 248.995 149.13 251.51 151.844C252.406 152.813 253.323 154.063 254.474 154.443C257.333 155.396 260.062 156.625 263.172 157.073C265.984 157.474 268.391 159.568 270.463 161.828C273.932 165.604 275.51 170.344 277.599 174.833C277.932 175.547 278.141 176.323 278.531 176.995C279.979 179.484 281.557 181.745 284.901 181.885C286.578 181.958 288.24 182.703 289.906 182.719C296.385 182.766 301.182 185.604 305.021 190.75C306.667 192.964 308.995 194.771 311.286 196.375C313.87 198.177 318.177 195.974 318.802 192.49C319.375 189.313 320.146 186.078 318.786 182.813C318.151 181.281 318.042 179.531 317.682 177.885C316.245 171.224 314.036 164.818 310.802 158.833C308.49 154.542 305.01 151.083 301.682 147.563C301.229 147.083 300.594 146.688 299.969 146.479C294.776 144.74 290.193 141.911 285.625 138.969C279.844 135.24 273.411 133.333 266.531 132.885C261.375 132.547 256.719 134.354 252.099 136.193C249.333 137.297 246.672 138.443 243.588 138.135C242.854 138.063 242.073 138.484 241.073 138.74C236.047 133.63 229.198 131.568 222.552 129.12C221.505 128.734 220.432 128.406 218.818 127.865C219.88 127.339 220.469 126.938 221.12 126.745C226.562 125.151 231.745 123.016 236.542 119.917C239.26 118.156 242.213 116.766 245.078 115.24C245.354 115.094 245.745 115.115 246.078 115.141C249.146 115.375 252.286 114.813 255.255 116.156C258.547 117.646 261.844 119.161 265.234 120.406C268.828 121.724 272.516 122.807 276.193 123.875C282.422 125.677 288.641 127.505 294.927 129.089C297.062 129.625 299.37 129.547 301.604 129.609C307.365 129.792 312.755 128.313 318.068 126.135C321.927 124.547 326.047 123.599 330.016 122.266C336.495 120.089 342.104 116.536 346.599 111.349C347.63 110.151 348.609 108.891 348.26 107.089C347.927 105.349 345.344 102.833 343.099 102.75C340.161 102.641 338.302 101.302 336.974 98.8229C336.187 97.3594 334.922 96.6823 333.198 96.2969C328.734 95.3073 324.37 95.7917 320.099 96.9479C317.24 97.724 314.427 97.849 311.51 98.0156C306.687 98.2917 302 97.1563 297.229 97.1563C296.958 97.1563 296.687 96.8438 296.036 96.4479C298.854 94.2969 301.25 91.974 304.443 90.7813C306.875 89.8646 309.391 89.1511 311.802 88.1927C314.62 87.0781 317.359 85.7656 320.151 84.5886C321.49 84.0261 322.838 83.4427 324.24 83.1146C327.104 82.4427 329.818 81.5261 332.552 80.375C335.786 79.0156 339.443 78.6771 342.922 77.9011C343.792 77.7031 344.76 77.7083 345.516 77.3021C347.734 76.1094 349.859 77.4115 352.026 77.375C352.385 77.3646 352.828 77.7865 353.099 78.1198C357.104 82.9479 362.151 86.5365 367.375 89.8438C371.953 92.75 376.943 94.4427 382.495 94.8229C386.526 95.0938 390.542 95.6667 394.531 94.9583C396.338 94.6354 398.052 93.6198 399.724 92.7552C402.104 91.5208 404.224 89.4948 407.177 90.0052C408.911 90.3021 410.583 90.9479 412.281 91.4427C414.224 92.0156 416.234 93.2292 418.099 93.0313C421.713 92.6563 425.542 92.9583 428.854 90.8177C431.167 89.3281 433.724 88.5 436.542 88.4271C437.495 88.4011 438.417 87.7188 439.375 87.4375C442.307 86.5677 445.286 86.7083 448.302 86.9167C449.75 87.0208 451.24 86.5573 452.922 86.3229C452.198 83.6146 450.573 82.1146 448.87 80.9531C445.062 78.3646 441.042 76.0886 437.135 73.6354C432.948 70.9948 428.828 68.25 424.609 65.6563C423.505 64.974 422.182 64.6094 420.917 64.2292C419.771 63.8854 418.573 63.6719 417.385 63.4896C416.193 63.3021 414.943 62.9636 413.792 63.1563C411.401 63.5469 407.031 62.6563 405.318 60.9531C400.208 55.8906 394.286 56.0052 388.047 58.1719C387.219 58.4583 386.583 59.2604 385.76 59.5677C383.583 60.3854 381.401 61.3958 379.135 61.7396C372.698 62.7136 366.713 64.6094 360.984 67.8594C355.333 71.0677 349.474 73.9896 342.797 74.8802C337.583 75.5781 332.432 76.8386 327.292 78.0261C326.031 78.3177 324.922 79.2761 323.766 79.9688C320.937 81.6563 317.943 82.9792 314.661 83.2969C312.708 83.4844 310.896 83.6511 309.38 85.0573C309.036 85.375 308.406 85.3854 307.354 85.7031C311.396 80.974 315.661 77.4948 320.083 74.0625C323.427 71.4688 327.026 69.7604 330.88 68.4375C332.646 67.8281 334.63 67.7813 336.531 67.6302C340.193 67.3438 343.323 65.4063 346.755 64.4115C350 63.474 353.021 61.7656 356.276 60.8802C361.984 59.3229 366.094 55.6354 370.193 51.6875C372.021 49.9271 374.479 48.8021 376.698 47.4688C379.557 45.75 382.583 44.2969 385.323 42.4115C389.896 39.2656 394.448 36.0208 397.651 31.0365C396.75 30.1094 395.917 29.2448 395.073 28.375C391.937 29.0781 388.891 29.8906 385.797 30.4271C382.734 30.9583 379.703 31.5833 376.698 32.375C376.104 32.5365 375.38 32.3229 374.74 32.1771C372.38 31.6406 370.052 30.9427 367.677 30.5313C364.109 29.9063 360.687 30.8542 357.38 32.0365C354.01 33.2448 350.635 34.5208 347.443 36.125C342.625 38.5573 338.594 41.9219 336.521 47.1458C334.958 51.0729 333.099 54.8698 331.583 58.8229C330.557 61.4844 328.531 63.7656 326.885 66.1719C326.526 66.6979 325.917 67.1094 325.333 67.4115C319.792 70.2865 314.969 74.1563 310.391 78.3281C308.396 80.1458 306.552 82.1615 304.838 84.25C302.656 86.9063 300.302 89.2917 297.109 90.6927C296.099 91.1354 295.078 91.5938 294.016 91.8542C290.26 92.7917 286.76 94.1406 283.505 96.3698C280.745 98.2604 277.604 99.599 274.63 101.182C274.458 101.005 274.292 100.828 274.125 100.651C274.651 99.9479 275.031 98.9323 275.734 98.6042C277.901 97.5833 278.88 95.5781 279.672 93.6875C282.141 87.7813 285.974 82.8542 289.708 77.7344C294.167 71.6302 300.109 67.5938 306.13 63.4583C309.26 61.3125 312.708 59.5156 314.562 55.8073C315.219 54.4948 316.698 53.5365 317.922 52.5573C321.266 49.9063 324.646 47.3021 328.068 44.7448C328.672 44.2917 329.615 44.3125 330.229 43.875C331.693 42.8333 333.078 41.6823 334.443 40.5104C335.036 40.0052 335.38 39.0938 336.031 38.7813C339.057 37.3438 340.693 34.5833 342.687 32.1406C343.75 30.8385 344.474 29.4323 345.203 27.8854C348.25 21.4427 350.922 14.7083 355.979 9.43751C357.87 7.46355 360.047 5.76563 361.922 3.78647C362.547 3.12501 362.651 1.96355 362.958 1.12501C360.057 -0.41145 357.818 0.390633 355.411 1.36459C351.245 3.05209 347.141 4.82813 343.062 6.73438C338.344 8.94793 336.245 12.9271 333.609 16.6927C330.172 21.5938 326.25 25.7396 320.969 28.9531C315.281 32.4167 309.672 36.4271 306.417 42.6875C302.026 45.8177 301.568 50.8854 300.172 55.4688C299.521 57.599 299.208 59.8386 298.656 62.0052C297.984 64.6406 296.047 66.4375 294.292 68.3594C290.635 72.3698 287 76.3906 283.448 80.4948C282.656 81.4063 282.099 82.6042 281.713 83.7656C280.583 87.2083 277.417 89.5781 276.781 93.2656C276.745 93.4844 276.651 93.724 276.51 93.8854C273.01 97.7813 270.167 102.276 264.745 104.141C260.109 105.745 255.781 108.219 251.193 109.969C247.838 111.25 244.333 112.38 240.802 112.875C235.219 113.661 229.635 114.333 224.307 116.24C218.698 118.255 213.135 120.422 207.583 122.609C203.911 124.052 200.234 125.526 196.672 127.229C194.661 128.193 192.932 129.724 191 130.88C188.115 132.604 185.229 134.359 182.224 135.849C178.323 137.781 174.307 139.479 170.328 141.25C165.047 143.604 160.177 146.641 155.411 149.891C150.146 153.479 144.365 156.078 138.24 157.755C136.667 158.188 134.615 157.807 133.036 157.167C125.005 153.906 117.161 150.172 109.062 147.12C101.677 144.333 94.0468 142.208 86.526 139.781C84.052 138.979 81.6197 138.026 79.1145 137.318C74.6666 136.073 70.1978 134.865 65.6978 133.813C56.6562 131.703 47.9843 128.5 39.4583 124.927C37.0155 123.901 34.8958 122.135 32.5833 120.786C26.6978 117.354 20.4478 114.818 13.7864 113.313C12.4999 113.021 11.3437 112.911 10.3437 114.24C11.2239 115.714 12.8697 116.078 14.2655 116.359C20.2447 117.568 25.6458 120.255 30.7603 123.286C36.6405 126.76 42.7812 129.542 49.0833 132.052C51.5624 133.036 54.078 133.927 56.526 135.01C50.4478 135.365 44.7447 133.849 39.1666 131.755C37.0624 130.964 35.0572 129.927 32.9739 129.078C31.7655 128.589 30.5833 127.557 29.1666 128.594L29.1978 128.526ZM191.76 187.984C193.937 187.839 194.526 189.917 195.578 191.292C194.307 190.156 193.036 189.026 191.771 187.891C190.182 188.052 189.292 187.036 188.698 185.609C189.719 186.401 190.74 187.193 191.76 187.984ZM358.13 248.177C356.615 249.115 355 248.844 353.073 247.271C355.031 246.344 356.458 247.927 358.109 248.208C359.088 248.724 360.073 249.24 361.411 249.943C359.406 250.375 358.531 249.688 358.13 248.177ZM247.281 248.109C246.771 247.401 245.672 246.948 246.338 245.125C246.885 246.432 247.885 246.953 247.187 248.109C249.672 250.536 249.865 251.234 248.578 254.323C248.099 252.021 247.693 250.063 247.281 248.109ZM235.833 206.979C238.865 206.099 240.833 208.151 243.026 209.573C243.635 209.568 244.302 209.391 244.838 209.583C246.625 210.214 248.312 211.365 250.135 211.63C254.635 212.281 258.396 214.51 262.208 216.677C263.443 217.385 264.568 218.286 265.745 219.104C265.63 219.328 265.516 219.557 265.401 219.781C263.307 218.99 261.213 218.198 259.115 217.406C260.75 218.917 262.693 219.807 264.5 220.911C266.484 222.125 268.344 223.542 270.255 224.865C272.547 224.766 273.958 226.521 275.755 227.453C273.807 226.807 271.562 226.755 270.271 224.771C269.661 224.708 268.99 224.802 268.463 224.573C263.521 222.448 258.573 220.333 253.687 218.083C249.026 215.938 243.646 215.318 239.807 211.406C238.609 212.109 238.396 212.984 238.911 214.047C240.146 216.573 241.463 219.068 242.656 221.615C243.427 223.26 244.026 224.984 244.703 226.672C244.443 226.781 244.187 226.885 243.927 226.995C241.109 221 238.292 215 235.24 208.505C238.047 209.453 240.417 210.052 242.615 211.042C245.698 212.427 248.641 214.125 251.656 215.646C253.437 216.547 255.354 216.932 257.969 217.458C257.052 216.516 256.75 215.964 256.292 215.771C253.615 214.635 250.854 213.682 248.213 212.469C246.411 211.641 244.75 210.49 243.026 209.474C240.354 209.396 238.088 208.167 235.838 206.891C234.01 206.932 232.109 207.292 230.62 205.708C232.557 205.229 234.297 205.646 235.833 206.979ZM140.646 161.01C141.088 160.063 142.01 160.677 142.474 160.469C143.266 160.115 143.703 158.995 144.328 158.229C144.437 158.104 144.786 158.198 144.979 158.104C148.677 156.292 152.651 154.875 155.995 152.552C161.276 148.87 166.625 145.453 172.724 143.156C171.854 145.484 170.562 147.078 168.562 148.234C165.057 150.255 161.338 151.984 158.073 154.339C154.213 157.12 149.844 158.51 145.536 160.188C144.656 160.531 143.833 161.047 143.062 161.443C144.047 165.109 147.458 165.891 149.74 168.146C146.385 168.313 140.297 165.74 138.057 163.458C138.917 162.625 139.776 161.792 140.635 160.938C139.266 161.615 137.901 162.292 136.401 163.031C131.656 161.198 126.713 159.182 122.354 156.005C125.672 157.063 128.818 158.495 132.052 159.688C134.182 160.469 136.344 161.87 138.776 160.203C139.073 160 140.005 160.719 140.646 161.01ZM327.01 241.276V241.172C327.172 241.333 327.328 241.625 327.49 241.625C332.24 241.745 336.781 243.005 341.354 244.104C342.854 244.464 344.109 245.01 345.182 246.797C343.599 246.521 342.526 246.292 341.443 246.141C332.177 244.87 322.911 243.625 313.651 242.323C311.995 242.089 310.354 241.682 308.734 241.255C304.917 240.245 301.083 239.266 297.307 238.094C294.818 237.323 292.359 236.37 290.01 235.255C287.573 234.104 285.302 232.63 282.927 231.349C281.073 230.349 279.177 229.427 277.297 228.469C277.417 228.219 277.536 227.969 277.656 227.719C281.005 229.255 284.276 231.021 287.734 232.266C291.422 233.594 295.349 234.255 299.062 235.531C305.359 237.698 307.193 238.151 310.073 237.411C306.323 235.609 301.953 236.25 298.542 233.526C303.036 232.656 325.807 237.714 330.078 240.365C329.104 240.656 328.057 240.969 327.01 241.276ZM414.49 337.328C414.177 341.552 416.187 345.344 416.755 349.422C417.24 352.906 419.401 355.813 421.62 358.531C423.849 361.26 425.521 364.188 426.573 367.641C427.38 370.307 428.042 372.969 428.687 375.672C429.807 380.37 429.578 385.031 429.474 389.74C429.463 390.307 429.198 390.87 429 391.646C427.219 389.484 425.646 387.599 424.088 385.698C423.156 384.563 422.146 383.484 421.344 382.26C419.115 378.87 417.068 375.359 414.771 372.01C413.667 370.396 411.849 369.224 410.901 367.547C408.318 362.974 404.693 359.531 400.271 356.859C398.437 355.755 397.713 354.047 397.375 352.104C397.187 351.005 397.146 349.875 397.104 348.75C396.979 345.385 397.328 341.938 396.698 338.672C395.505 332.526 396.266 326.474 396.865 320.411C397.385 315.182 398.51 310.005 397.234 304.438C402.338 309.167 405.896 314.547 408.823 320.313C411 324.604 412.974 329.036 413.755 333.875C413.953 335.083 414.245 336.276 414.495 337.49C415.76 337.177 415.583 336.156 415.469 335.292C414.5 327.839 411.068 321.281 407.557 314.849C406.016 312.042 403.401 309.818 401.276 307.328C400.521 306.438 399.437 305.698 399.734 303.922C401.354 304.917 402.667 305.901 404.115 306.583C409.969 309.333 414.583 313.516 418.234 318.766C419.495 320.578 420.24 322.755 421.51 324.557C424.818 329.224 425.99 334.786 428.047 339.958C428.797 341.839 429.437 343.656 430.609 345.344C432.771 348.464 434.859 351.656 436.708 354.969C437.729 356.797 438.786 358.927 438.812 360.932C438.88 366.641 440.37 372.438 438.125 378.083C436.906 381.135 435.776 384.198 433.479 386.661C432.833 387.354 432.344 388.188 431.484 389.359C431.37 387.432 431.099 385.865 431.213 384.328C431.536 380 430.448 375.818 429.568 371.719C428.307 365.87 425.635 360.531 421.588 355.88C419.385 353.354 418.401 350.01 417.838 346.62C417.286 343.339 416.818 339.984 414.49 337.328ZM524.193 264.833C520.057 264.672 515.927 264.432 511.792 264.375C507.531 264.318 503.266 264.313 499.01 264.526C494.823 264.74 490.656 265.266 486.479 265.651C487.219 264.714 488.078 264.24 488.974 263.849C494.588 261.401 500.057 258.573 504.729 254.661C510.161 250.125 516.198 248.401 523.099 248.531C525.391 248.568 527.854 248.125 529.953 247.229C532.417 246.177 534.937 246.203 537.432 245.927C542.208 245.401 547.026 245.12 551.828 244.88C555.615 244.693 559.443 243.734 563.323 245.167C563.458 246.505 563.588 247.807 563.703 248.953C561.276 251.151 557.651 251.141 555.5 254.599C556.802 254.068 557.5 253.781 558.198 253.495C559.844 252.813 561.448 251.99 563.146 251.479C565.755 250.688 567.302 251.615 567.208 254.182C567.141 256.151 566.911 258.781 565.661 259.906C563.057 262.26 561.146 265.354 557.906 267.073C553.588 269.359 549.01 270.693 544.234 271.464C542.573 271.734 540.891 271.932 539.271 272.37C536.13 273.224 533.062 274.38 529.896 275.13C525.625 276.141 521.073 276.552 516.927 275.672C509.479 274.099 502.24 271.51 494.927 269.281C493.161 268.745 491.469 267.974 489.74 267.307C490.417 266.667 490.943 266.609 491.463 266.563C494.719 266.26 497.974 265.911 501.234 265.688C503.458 265.536 505.729 265.292 507.917 265.573C513.328 266.26 518.703 267.276 524.193 264.833ZM462.557 297.297C463.307 296.969 463.937 296.484 464.599 296.438C471.635 295.922 478.245 296.88 483.776 301.854C485.609 303.495 487.63 304.964 489.708 306.286C493.62 308.786 497.479 311.297 500.318 315.104C501.047 316.078 502.12 316.813 503.094 317.573C505.38 319.354 507.365 321.495 508.641 324.01C511.495 329.609 513.521 335.521 514.443 341.802C514.75 343.88 515.422 345.974 517.141 347.531C517.698 348.042 517.917 348.927 518.5 350.047C516.828 349.193 515.661 348.599 514.458 347.984C513.63 349.604 514.75 349.938 515.641 350.349C518.359 351.609 518.365 351.599 519.474 353.62C513 352.594 507.297 350.302 502.25 346.156C499.578 343.964 496.609 342.188 493.005 341.354C490.12 340.682 487.12 339.286 484.87 337.38C480.531 333.724 475.88 330.375 473.859 324.401C471.703 318.036 468.797 311.938 468.302 304.776C469.776 306.292 471.047 307.656 472.375 308.964C473.01 309.583 473.745 310.104 474.443 310.656C477.51 313.068 480.703 315.339 483.615 317.922C486.057 320.099 488.016 322.708 489.672 325.62C491.474 328.786 493.911 331.589 495.937 334.635C497.073 336.339 497.687 338.443 499 339.969C500.448 341.651 502.432 342.87 504.182 344.292C504.531 344.578 504.859 344.896 505.229 345.156C507.698 346.906 510.453 347.87 513.536 347.99C512.516 347.125 511.365 346.526 510.177 346.01C506.068 344.24 502.328 341.849 499.734 338.198C496.432 333.557 493.542 328.615 490.359 323.885C488.755 321.51 487.156 319.042 485.099 317.094C480.797 313.016 476.333 309.068 471.625 305.464C469.943 304.167 468.385 302.823 466.943 301.307C466.177 300.5 465.588 299.521 464.802 298.74C464.266 298.208 463.51 297.896 462.557 297.297ZM366.703 371.661C365.838 372.052 365.292 372.464 364.708 372.521C358.479 373.135 352.266 374.052 345.979 373.875C345.094 373.849 344.161 374.042 343.323 374.333C338.458 376.016 333.62 377.76 328.771 379.474C328.562 379.547 328.323 379.531 328.099 379.552C323.13 379.99 318.286 379.245 314.146 376.521C310.328 374.01 306.766 371.016 303.437 367.87C298.104 362.813 291.937 359.589 284.74 358.391C281.609 357.865 278.708 356.854 275.516 355.37C278.172 353.208 280.849 351.604 283.932 351.74C288.87 351.948 293.781 352.682 298.708 353.193C301.698 353.5 304.484 353.276 306.458 350.521C306.875 349.943 307.661 349.318 308.312 349.271C310.807 349.094 313.292 349.495 315.255 351.125C318.182 353.547 320.463 356.776 324.219 358.167C324.604 358.307 324.87 358.776 325.213 359.073C330.125 363.401 335.151 367.708 341.479 369.729C346.969 371.479 352.698 372.115 358.536 371.521C361.083 371.26 363.708 370.089 366.703 371.661ZM256.036 113.766C258.495 112.49 258.495 112.469 260.109 112.828C262.318 113.328 264.531 113.813 266.719 114.385C272.245 115.828 277.547 114.943 282.802 113.047C285.198 112.182 287.724 111.682 290.104 110.792C292.583 109.87 294.922 110.604 297.365 110.797C302.578 111.214 307.729 111.271 313.036 110.281C317.729 109.401 322.521 108.938 327.088 107.422C329.719 106.557 332.349 105.583 334.792 104.307C335.776 103.797 336.453 103.823 337.271 104.135C339.802 105.104 342.057 106.849 344.948 106.828C345.151 106.828 345.359 107.302 345.74 107.776C343.385 111.281 340.463 114.109 336.682 116.109C328.745 120.313 320.036 122.443 311.641 125.375C306.088 127.313 300.172 127.724 294.318 126.573C289.703 125.667 285.411 123.391 280.594 123.292C280.484 123.292 280.38 123.229 280.266 123.193C273.943 121.307 267.844 118.792 261.667 116.484C259.911 115.828 258.276 114.859 256.036 113.766ZM316.557 190.911C313.771 188.797 311.667 186.62 310.208 183.922C308.094 180.01 307 175.719 304.042 172.042C301.151 168.448 298.047 165.698 293.906 163.938C292.786 163.464 291.562 163.099 290.615 162.385C286.766 159.49 282.984 156.5 279.219 153.49C277.385 152.026 275.693 150.38 273.849 148.922C270.646 146.396 266.833 145.083 263.021 143.823C260.135 142.87 257.213 142.01 254.292 141.151C252.979 140.766 251.635 140.479 249.62 139.979C253.776 137.026 257.922 135.542 261.917 135.042C268.323 134.24 274.474 136.12 280.161 139.443C284.693 142.094 289.432 144.401 294.078 146.859C296.255 148.016 298.812 148.766 300.542 150.396C307.182 156.641 311.625 164.234 313.526 173.25C314.224 176.563 315.255 179.807 315.974 183.115C316.49 185.495 317.198 187.901 316.557 190.911ZM281.844 386.589C282.021 386.458 282.193 386.328 282.365 386.203C284.375 388.271 286.349 390.38 288.396 392.406C290.135 394.13 291.818 395.969 293.781 397.396C296.484 399.359 299.453 401.01 302.281 402.74C304.963 404.37 307.5 406.109 309.854 408.12C312.052 410 313.833 412.135 315.182 414.922C317.583 419.896 319.807 425.302 325.469 427.781C326.995 428.448 328.557 429.052 330.016 429.844C332.453 431.167 334.542 432.87 335.651 436.172C332.786 436.453 330.25 436.896 327.708 436.901C325.021 436.901 322.333 436.51 319.646 436.255C315.073 435.823 310.885 434.49 307.146 431.62C304.682 429.724 302.792 427.448 300.807 425.109C295.453 418.802 292.51 411.193 288.891 403.969C286.286 398.781 284.969 392.99 282.151 387.854C281.948 387.484 281.943 387.01 281.844 386.589ZM188.328 331.568C188.161 331.438 188 331.302 187.838 331.172C188.406 329.62 189.13 328.099 189.521 326.505C190.948 320.646 194.406 316.224 199.052 312.583C204.359 308.422 210.088 304.885 214.849 299.922C219.911 294.646 226.026 290.422 230.87 284.833C231.859 283.693 233.396 282.755 234.849 282.344C241.781 280.396 248.745 278.469 256.01 278.182C258.057 278.099 260.104 277.979 262.63 277.854C261.469 279.406 260.849 280.714 259.833 281.516C256.557 284.115 253.193 286.609 249.755 288.979C248.385 289.927 246.776 290.599 245.187 291.13C241.984 292.203 238.755 293.219 235.479 294.031C232.594 294.755 230.271 296.24 228.463 298.51C226.87 300.516 225.427 302.646 223.937 304.734C223.229 305.734 222.609 306.797 221.891 307.786C221.443 308.401 220.927 308.984 220.37 309.51C219.385 310.438 218.37 311.344 217.318 312.198C215.865 313.375 214.417 314.568 212.875 315.62C210.844 317 208.578 318.073 206.693 319.62C205.312 320.755 203.906 321.401 202.213 321.401C200.349 321.396 199.042 322.318 197.724 323.49C194.641 326.234 191.463 328.88 188.328 331.568ZM179.568 338.526C179.536 337.344 180.484 337.234 181.385 337.094C182.432 336.927 183.5 336.87 184.521 336.604C186.708 336.036 187.87 334.203 189.422 332.745C192.932 329.432 196.833 326.531 200.615 323.51C201.115 323.115 201.838 322.818 202.469 322.807C205.703 322.74 208.047 321 210.401 319.036C211.828 317.844 213.583 317.021 215.24 316.13C218.495 314.391 220.391 311.224 223.036 308.839C223.109 308.771 223.115 308.625 223.182 308.531C224.021 307.344 224.87 306.161 225.719 304.974C226.437 303.969 227.26 303.026 227.844 301.948C228.802 300.161 230.255 298.917 231.844 297.74C235.198 295.25 239.073 293.927 243.068 293.219C247.963 292.349 251.786 289.745 255.484 286.74C256.401 285.995 257.375 285.318 258.323 284.604C256.26 287.12 254.323 290.021 251.609 291.396C246.906 293.786 244.49 298.01 241.911 301.984C238.917 306.594 235.786 310.953 231.677 314.615C230.344 315.802 229.271 317.271 228.021 318.563C224.411 322.297 220.865 326.099 217.12 329.693C213.406 333.26 208.359 334.198 203.729 335.88C200.146 337.177 196.458 338.255 192.609 338.375C188.328 338.516 184.042 338.484 179.568 338.526ZM282.088 278.641C285.833 277.891 289.594 276.932 293.365 278.484C294.276 278.859 295.38 278.969 296.375 278.906C299.062 278.719 301.75 278.427 304.422 278.068C307.818 277.62 311.349 277.25 314.292 279.141C318.13 281.599 322.453 282.844 326.458 284.823C329.896 286.521 333.625 288.099 336.333 290.672C339.448 293.63 342.359 297.109 343.568 301.557C343.917 302.839 344.51 304.172 345.359 305.167C348.271 308.563 350.229 312.469 351.927 316.547C352.281 317.391 352.63 318.234 352.984 319.073C351.474 318.313 350.453 317.292 349.474 316.234C346.672 313.224 343.963 310.12 341.062 307.203C339.937 306.073 338.042 305.63 337.099 304.401C335.411 302.219 333.187 301.521 330.729 301.042C327.213 300.365 323.542 300.089 320.219 298.865C313.807 296.505 307.417 294.005 302.187 289.245C299.885 287.141 297.24 285.266 294.463 283.865C290.474 281.849 286.224 280.359 282.088 278.641ZM315.437 192.922C313.917 194.385 313.292 194.703 312.333 193.865C310.141 191.953 308.062 189.911 305.974 187.88C305.333 187.26 304.917 186.38 304.229 185.833C299.786 182.323 294.844 180.036 289.068 179.807C287.719 179.75 286.224 179.755 285.078 179.172C283.427 178.339 281.677 177.26 280.63 175.807C279.349 174.031 278.62 171.813 277.885 169.708C274.828 160.891 269.198 155.177 259.661 153.573C256.833 153.104 254.229 151.724 252.359 149.078C250.349 146.234 247.812 143.766 245.474 141.094C245.844 141.063 246.411 140.891 246.937 140.979C250.781 141.625 254.635 142.135 258.271 143.792C261.036 145.052 264.109 145.661 266.854 146.964C271.865 149.349 276.354 152.526 280.38 156.406C283.911 159.807 287.734 162.896 292.411 164.667C295.167 165.703 297.656 167.026 299.443 169.536C300.958 171.667 302.875 173.505 304.391 175.635C305.323 176.938 306.031 178.479 306.479 180.021C307.052 182.01 308.406 185.448 309.552 186.844C310.906 188.5 312.208 190.208 313.63 191.813C314.094 192.333 314.865 192.583 315.437 192.922ZM364.088 205.818C365.458 210.021 363.198 211.469 360.354 212.693C358.844 213.344 357.594 214.583 356.109 215.318C354.469 216.135 352.687 216.677 350.687 217.453C351.505 214.74 352.318 212.62 352.771 210.427C353.406 207.365 353.974 204.26 354.203 201.146C354.651 195.198 362.068 190.531 367.219 190.01C373.25 189.401 378.917 188.161 382.703 182.557C384.094 180.505 386.479 179.125 388.427 177.453C388.838 177.099 389.276 176.677 389.776 176.542C394.193 175.313 398.635 174.156 403.057 172.948C404.109 172.661 405.125 172.26 406.713 171.724C406.052 174.474 405.604 176.734 404.927 178.922C404.651 179.813 403.99 180.682 403.281 181.313C402.104 182.359 400.833 183.359 399.458 184.099C396.469 185.714 393.74 187.604 391.38 190.073C390.713 190.771 389.698 191.151 388.823 191.641C388.052 192.073 387.224 192.406 386.479 192.875C384.182 194.302 381.922 195.781 379.641 197.224C376.161 199.438 372.38 201.177 369.599 204.432C368.479 205.75 366.776 206.589 364.088 205.818ZM446.937 82.9531C446.875 83.1146 446.812 83.2865 446.75 83.4479C443.047 82.5 439.323 81.6094 435.641 80.5938C430.729 79.2292 425.682 78.599 420.646 78.5261C416.849 78.4688 413.057 79.5 409.24 79.7552C406.151 79.9636 402.969 80.1094 399.937 79.6042C396.078 78.9636 392.323 77.6771 388.536 76.6042C384.703 75.5156 381.042 76.7708 377.37 77.4531C376.057 77.6979 374.891 78.0625 373.474 77.8698C369.182 77.2917 364.854 76.9688 360.542 76.5521C361.276 75.2344 362.078 74.4323 363.047 73.9792C365.385 72.8854 367.802 71.9531 370.193 70.9636C377.469 67.9479 385.088 66.9427 392.891 67.2396C399.375 67.4896 405.849 68.1198 412.318 66.8386C416.052 66.099 419.656 66.7969 422.963 68.7188C425.588 70.2448 428.167 71.849 430.776 73.3958C436.161 76.5886 441.552 79.7656 446.937 82.9531ZM356.62 77.6875C357.359 77.6198 357.698 77.5052 357.984 77.5781C360.443 78.2188 362.859 79.2344 365.354 79.4844C370.026 79.9583 374.766 80.1302 379.365 78.8854C382.422 78.0573 385.453 77.5625 388.573 78.2708C391.292 78.8906 394.062 79.3854 396.693 80.2813C403.005 82.4323 409.349 81.3698 415.708 80.8281C418.713 80.5729 421.766 80.1146 424.74 80.3906C428.599 80.75 432.443 81.5677 436.203 82.5521C437.521 82.8958 439.437 82.4636 440.307 84.3386C439.901 84.5521 439.615 84.8438 439.333 84.8281C435.948 84.6823 432.823 85.6563 429.896 87.1979C427.078 88.6875 424.156 89.6354 420.984 89.9948C417.995 90.3333 415.297 90.0625 412.719 88.2448C410.682 86.8073 408.182 85.8646 405.698 86.7136C403.062 87.6146 400.276 88.6198 398.156 90.3229C395.427 92.5104 392.526 93.0469 389.307 92.9167C386.495 92.8021 383.687 92.5833 380.88 92.3438C379.651 92.2396 378.302 92.2552 377.229 91.7448C372.677 89.5781 367.833 87.9167 364.078 84.2865C361.781 82.0677 359.297 80.0417 356.62 77.6875ZM438.068 237.786C438.068 237.516 438.068 237.245 438.068 236.969C438.338 236.828 438.594 236.63 438.88 236.563C442.161 235.781 445.547 235.292 448.713 234.182C452.13 232.984 455.385 231.708 459.146 232.292C460.573 232.51 462.224 231.396 463.635 231.656C466.76 232.24 469.375 230.901 472.073 229.943C475.385 228.771 478.599 227.318 481.865 226.005C485.708 224.464 489.729 223.823 493.828 223.26C496.719 222.865 500.005 222.109 502.161 220.344C505.208 217.849 509.151 217.313 512.073 214.823C512.375 214.568 513.125 214.797 513.656 214.87C517.406 215.349 519.859 218.13 523.083 219.922C522.557 220.432 522.297 220.906 521.937 220.995C519.552 221.589 517.156 222.141 514.745 222.62C509.328 223.677 504.568 225.984 500.344 229.583C498.286 231.333 496.031 233.016 493.594 234.12C489.213 236.099 484.672 237.776 480.094 239.266C477.672 240.057 475.042 240.464 472.484 240.557C469.224 240.672 465.948 240.344 462.682 240.12C457.13 239.745 451.573 239.354 446.026 238.87C443.365 238.635 440.719 238.156 438.068 237.786ZM272.578 380.536C273.187 383.182 273.698 385.953 274.479 388.641C276.641 396.115 276.359 403.568 274.51 411.021C273.432 415.38 270.448 418.521 267.474 421.656C264.224 425.094 261.203 428.667 260.177 433.516C259.766 435.464 259.016 437.349 258.312 439.229C255.568 446.594 250.01 451.797 244.12 457.823C244.484 455.474 244.562 453.896 244.995 452.422C245.719 449.979 245.583 447.625 245.448 445.099C245.245 441.333 245.833 437.422 248.536 434.333C249.646 433.068 251.24 432.115 252.016 430.693C254.656 425.865 258.708 422.042 260.776 416.688C262.385 412.521 263.276 408.365 263.859 404.089C264.5 399.385 265.068 394.698 267.24 390.411C268.906 387.135 270.734 383.938 272.578 380.536ZM352.854 322.021C347.463 321.198 342.229 320.172 336.838 320.422C333.099 320.594 329.333 320.63 326.609 317.292C326.286 316.896 325.604 316.807 325.099 316.552C322.401 315.193 319.583 314.016 317.036 312.406C313.531 310.198 310.193 307.714 306.865 305.24C305.812 304.458 304.849 303.458 304.125 302.365C301.781 298.813 299.703 295.068 297.25 291.594C295.911 289.698 294.245 287.859 292.333 286.594C289.625 284.802 286.547 283.583 283.646 282.083C283.156 281.828 282.755 281.422 282.307 281.083C288.729 282.781 294.776 285.099 299.932 289.323C303.141 291.958 306.479 294.432 309.786 296.943C310.219 297.271 310.802 297.443 311.349 297.583C315.484 298.656 319.63 299.688 323.76 300.766C326.88 301.578 330.219 301.984 333.047 303.391C336.984 305.349 340.422 308.026 343.151 311.792C345.838 315.505 349.479 318.531 352.854 322.021ZM435.667 235.708C435.583 235.375 435.5 235.042 435.417 234.708C438.088 232.12 440.729 229.51 443.437 226.969C444.417 226.042 445.422 224.964 446.625 224.474C449.521 223.292 452.547 222.448 455.5 221.396C457.078 220.839 458.708 220.307 460.135 219.464C466.172 215.901 472.562 214.427 479.536 215.682C483.818 216.453 487.865 216.344 491.588 213.432C493.349 212.063 495.578 210.865 498 211.146C501.573 211.568 505.12 212.208 508.656 212.859C509.297 212.974 509.849 213.589 510.75 214.177C509.661 214.594 509.047 214.901 508.401 215.057C505.411 215.776 502.755 217.01 500.302 218.969C498.88 220.099 496.88 220.625 495.057 221.099C492.682 221.724 490.213 221.979 487.802 222.479C482.458 223.578 477.453 225.62 472.599 228.063C468.474 230.141 464 230.172 459.547 230.526C456.328 230.776 452.896 230.781 449.984 231.953C445.729 233.661 441.208 233.917 436.943 235.307C436.516 235.448 436.094 235.578 435.667 235.708ZM278.641 380.568C278.745 380.391 278.849 380.214 278.953 380.036C282.167 380.396 285.604 380.161 288.536 381.271C291.656 382.448 294.833 383.531 297.927 384.786C300.422 385.802 302.713 387.177 304.443 389.438C306.198 391.734 308.109 393.958 310.219 395.932C312.26 397.839 314.646 399.37 316.859 401.089C318.641 402.474 320.365 403.922 322.167 405.276C323.849 406.542 325.906 407.307 326.333 409.88C326.516 410.958 327.766 411.849 328.495 412.849C328.953 413.474 329.547 414.099 329.724 414.813C330.536 418.161 332.578 421.172 332.281 424.865C332.172 426.172 332.88 427.536 333.333 429.359C329.031 427.229 324.474 426.234 321.588 422.484C319.802 420.172 318.156 417.672 316.932 415.031C313.937 408.583 308.781 404.474 302.838 401.068C300.203 399.552 297.323 398.266 295.099 396.271C289.448 391.219 284.104 385.823 278.641 380.568ZM271.578 356.563C272.516 356.661 273.63 356.458 274.354 356.901C277.943 359.094 282.052 359.359 285.979 360.276C290.292 361.286 294.521 362.568 298.062 365.302C301.807 368.188 305.38 371.307 309.01 374.344C310.875 375.896 312.562 377.682 314.812 378.714C319.995 381.094 325.297 381.813 330.838 379.964C333.828 378.958 336.937 378.292 339.917 377.266C343.974 375.859 348 374.547 352.401 375.349C353.005 375.464 353.698 374.958 354.365 374.901C355.141 374.844 355.932 374.969 356.719 375.01C356.75 375.24 356.781 375.474 356.812 375.703C355.818 376.151 354.792 376.542 353.833 377.057C351.151 378.495 348.193 379.625 345.917 381.557C343.672 383.469 341.443 385.219 338.865 386.672C334.573 389.099 330.24 390.615 325.193 389.656C319.484 388.573 313.729 387.526 309.047 383.88C305.344 380.995 302.026 377.62 298.568 374.427C295.073 371.208 291.698 367.854 286.849 366.661C285.115 366.234 283.469 365.448 281.745 364.974C277.219 363.719 274.969 359.615 271.578 356.563ZM334.932 102.094C332.052 103.224 329.588 104.281 327.068 105.156C324.323 106.104 321.552 107.021 318.734 107.698C316.443 108.245 314.016 108.229 311.734 108.802C308.505 109.609 305.276 109.802 302 109.422C295.427 108.661 289.094 108.948 282.807 111.656C278.276 113.604 273.286 114.359 268.245 113.151C267.229 112.906 266.115 113.083 265.068 112.932C263.26 112.667 261.338 112.573 259.651 110.547C262.838 109.365 265.635 107.5 268.458 107.458C274.536 107.359 279.474 105.052 284.443 101.932C287.338 100.115 290.828 99.0052 294.469 99.375C297.818 99.7136 301.161 100.177 304.51 100.516C309.75 101.031 314.953 101.182 320.156 99.8386C322.963 99.1198 325.932 98.7344 328.828 98.724C330.984 98.7188 333.344 99.1823 334.932 102.094ZM403.448 280.87C407.479 279.531 410.995 278.823 414.609 278.682C415.458 278.646 416.359 279.073 417.172 279.432C422.198 281.646 426.125 285.422 430.021 289.083C432.76 291.661 435.297 294.641 436.792 298.198C437.474 299.828 438.568 300.458 440.104 300.609C442.641 300.849 444.802 301.771 446.578 303.651C447.12 304.224 448.198 304.385 448.568 305C450.87 308.88 452.984 312.875 455.286 316.75C456.781 319.26 458.495 321.646 460.557 324.76C459.13 324.026 458.385 323.76 457.771 323.313C452.484 319.432 446.885 316.115 440.948 313.318C435.703 310.859 432.177 306.583 428.979 301.839C425.302 296.37 420.828 291.474 415.375 287.714C411.828 285.271 407.896 283.391 403.448 280.87ZM402.323 282.448C403.141 282.573 403.604 282.526 403.937 282.714C406.687 284.266 409.344 285.995 412.161 287.401C414.755 288.698 416.698 290.641 418.708 292.641C423.161 297.073 427.167 301.839 430.646 307.068C431.672 308.615 432.786 310.354 434.302 311.266C437.526 313.208 440.755 315.177 444.286 316.615C446.724 317.604 449.052 319.036 451.161 320.63C454.213 322.932 457.526 324.745 460.885 326.505C461.49 326.823 462.047 327.219 463.292 327.99C458.427 328.208 454.391 328.438 450.354 328.526C449.656 328.542 448.828 328.089 448.266 327.609C443.13 323.245 436.823 321.365 430.599 319.401C427.713 318.49 425.641 316.995 424.125 314.385C421.359 309.63 419.031 304.594 415.411 300.359C414.682 299.505 414.094 298.526 413.474 297.589C410.38 292.917 408.115 287.635 403.463 284.115C403.062 283.807 402.854 283.245 402.323 282.448ZM435.62 145.13C435.932 145.13 436.24 145.135 436.552 145.135C437.318 147.984 438.26 150.802 438.797 153.693C439.198 155.865 438.911 158.104 437.885 160.167C436.057 163.833 434.193 167.484 432.484 171.214C431.849 172.594 431.505 174.141 431.213 175.651C430.682 178.391 430.568 181.208 429.094 183.708C428.708 184.365 428.359 185.151 428.338 185.891C428.156 191.958 426.016 197.255 422.292 201.99C421.453 203.052 420.786 204.255 419.943 205.323C418.937 206.594 417.823 207.786 416.495 209.307C415.963 201.75 417.5 195.344 421.182 189.375C422.531 187.188 423.146 184.583 422.849 181.901C422.474 178.568 422.083 175.24 421.776 171.906C421.641 170.458 421.5 168.979 421.682 167.552C422.437 161.698 425.437 157.203 430.365 154.021C432.698 152.516 433.922 150.359 434.646 147.786C434.906 146.885 435.292 146.016 435.62 145.13ZM226.536 394.021C225.745 393.516 224.734 393.229 224.479 392.625C223.88 391.203 223.411 389.641 223.312 388.109C223.057 384.292 223.177 380.453 222.885 376.635C222.588 372.719 221.984 368.818 221.484 364.911C221.401 364.255 220.891 363.531 221.057 362.979C222.37 358.599 222.656 353.719 225.849 350.172C228.151 347.609 229.62 344.63 231.401 341.792C234.224 337.302 237.573 333.328 242.802 331.01C242.911 332.021 243.245 332.87 243.026 333.542C242.141 336.297 242.562 339.255 240.963 341.995C239.359 344.734 238.974 348.156 237.687 351.115C235.698 355.698 231.745 359.375 231.391 364.745C231.375 365.036 230.667 365.234 230.432 365.578C230.062 366.125 229.625 366.74 229.557 367.365C229.255 370.182 228.943 373.01 228.885 375.839C228.823 379.276 229.953 382.693 228.635 386.161C227.771 388.453 227.349 390.906 226.536 394.021ZM409.13 169.948C409.281 169.995 409.427 170.047 409.578 170.099C409.604 172.464 409.849 174.854 409.599 177.193C409.349 179.51 408.927 181.922 407.974 184.01C407.229 185.635 406.807 187.068 407.005 188.813C407.229 190.807 406.724 192.557 405.094 193.984C401.229 197.37 396.797 199.859 392.099 201.708C387.068 203.688 382.495 206.083 379.078 210.411C378.26 211.448 377.026 212.151 375.974 213.005C371.87 216.323 366.854 217.401 361.901 218.448C359.224 219.01 356.396 218.823 353.63 218.974C354.229 217.854 354.901 217.276 355.667 216.896C357.693 215.901 359.76 214.995 361.812 214.052C363.859 213.104 365.719 211.891 367.401 210.365C369.88 208.115 372.469 205.984 374.995 203.786C375.318 203.5 375.635 203.13 375.781 202.729C376.672 200.307 378.031 198.604 380.953 198.755C381.505 198.781 382.208 198.255 382.646 197.797C385.109 195.219 388.135 193.656 391.474 192.547C392.177 192.318 393.068 191.865 393.344 191.271C394.911 187.922 398.193 186.766 400.958 184.865C403.995 182.781 407.505 180.984 407.365 176.208C407.302 174.141 408.5 172.036 409.13 169.948ZM267.401 369.708C269.401 372.349 271.078 374.563 270.62 377.469C270.286 379.563 269.687 381.667 268.844 383.604C267.818 385.964 266.088 388.042 265.234 390.443C264.193 393.385 263.708 396.536 263.036 399.609C262.24 403.25 261.568 406.917 260.719 410.542C260.193 412.807 259.542 415.052 258.776 417.245C257.37 421.245 254.057 424.031 251.953 427.609C250.943 429.328 249.396 430.745 248.036 432.245C246.354 434.089 244.604 435.833 244.536 438.604C244.516 439.484 243.979 440.359 243.5 441.766C241.635 437.896 241.953 434.38 241.828 430.964C241.745 428.609 242.812 426.615 244.667 425.115C248.365 422.109 249.859 417.755 251.135 413.516C252.167 410.109 252.12 406.365 252.448 402.76C252.677 400.229 253.245 397.854 254.812 395.807C256.719 393.323 258.562 390.786 260.583 388.396C264.984 383.198 267.302 377.255 267.401 369.708ZM418.167 211.135C418.01 210.99 417.849 210.849 417.698 210.703C419.057 208.958 420.557 207.302 421.75 205.443C424.401 201.323 428.083 197.807 428.781 192.51C429.099 190.135 430.828 188 430.276 185.354C430.182 184.885 430.661 184.307 430.833 183.766C431.38 182.047 432.224 180.349 432.38 178.594C432.87 173.146 435.354 168.51 437.724 163.76C438.885 161.422 440.755 159.24 440.208 156.229C439.833 154.146 439.781 152.005 439.583 149.891C441.698 152.891 443.547 155.839 443.594 159.682C443.641 163.406 444.12 167.141 444.615 170.839C444.963 173.422 444.474 175.802 443.344 178.026C442.271 180.125 440.865 182.052 439.661 184.094C438.354 186.313 437.042 188.536 435.865 190.828C434.12 194.229 432.948 197.849 430.557 201.01C427.687 204.818 423.49 206.964 420.323 210.333C419.854 210.839 418.896 210.88 418.167 211.135ZM386.917 36.7031C386.469 37.2031 386.224 37.5833 385.885 37.8281C382.458 40.3021 378.307 41.6615 375.266 44.7448C374.891 45.125 374.213 45.1875 373.755 45.5104C371.036 47.4167 368.307 49.3073 365.646 51.2917C363.213 53.1042 361.104 55.5469 358.427 56.7969C352.443 59.5833 346.24 61.9271 340.026 64.1823C338.026 64.9115 335.724 64.9479 333.333 64.3906C334.094 63.4583 334.693 62.7917 335.229 62.0729C339.229 56.7031 344.307 52.724 350.526 50.1927C354.682 48.5052 358.667 46.6094 361.927 43.3177C365.062 40.1406 369.026 39.1458 373.484 39.8802C374.99 40.125 376.661 40.0313 378.135 39.6354C381.021 38.8542 383.823 37.7552 386.917 36.7031ZM456.734 218.036C456.698 217.88 456.656 217.719 456.615 217.563C458.135 216.089 459.521 214.443 461.208 213.198C463.083 211.807 465.187 210.698 467.281 209.646C469.083 208.74 470.958 207.865 472.906 207.375C475.838 206.641 478.849 206.193 481.844 205.734C486.844 204.974 491.844 204.214 496.865 203.625C501.552 203.073 506 203.599 509.943 206.698C512.641 208.813 515.562 210.688 518.552 212.365C520.578 213.505 522.865 214.219 525.099 214.948C526.687 215.469 528.437 215.521 529.995 216.099C531.542 216.672 533.281 215.661 534.797 217.281C535.849 218.406 537.854 218.609 539.401 219.302C539.969 219.552 540.437 220.016 541.646 220.891C538.833 220.734 536.823 220.745 534.854 220.49C530.906 219.99 527.088 219.021 523.755 216.703C522.922 216.125 522.25 215.234 521.349 214.87C514.828 212.245 508.687 208.276 501.187 208.984C497.271 206.646 494.49 209.552 491.391 211.083C490.281 211.635 489.12 212.13 487.927 212.469C485.87 213.057 483.859 213.359 481.615 212.833C475.474 211.406 469.505 212.135 463.812 215.01C461.526 216.161 459.099 217.036 456.734 218.036ZM244.156 339.068C244.76 340.885 245.26 341.891 245.417 342.948C245.838 345.828 246.318 348.729 246.385 351.63C246.437 353.854 245.833 356.083 245.63 358.323C245.302 361.917 244.083 365.203 241.917 368.026C240.229 370.224 238.536 372.479 236.792 374.557C233.932 377.948 233.755 381.979 232.745 385.75C231.953 388.703 231.682 391.708 229.26 394.109C228.521 391.734 229.422 389.63 229.849 387.458C230.281 385.276 230.693 383.052 230.755 380.833C230.854 377.354 230.656 373.865 230.562 370.375C230.49 367.547 232.187 365.349 233.234 362.927C234.51 359.974 235.37 356.625 237.365 354.26C239.635 351.568 240.255 348.469 241.417 345.453C242.161 343.516 243.047 341.63 244.156 339.068ZM378.12 468.021C376.458 467.333 374.802 466.625 373.135 465.953C368.635 464.141 364.234 462.135 360.437 459.057C358.109 457.172 355.641 455.776 352.656 455.167C350.922 454.818 348.896 454.365 347.693 453.224C343.771 449.516 341.219 444.859 339.792 439.63C339.693 439.266 339.854 438.828 339.885 438.458C344.818 438.609 348.719 440.521 351.797 444.089C354.943 447.724 358.88 450.245 363.172 452.271C364.385 452.844 365.578 453.505 366.849 453.891C373.74 455.979 375.724 462.099 378.12 468.021ZM388.328 33.3802C388.411 33.625 388.49 33.8646 388.573 34.1094C386.354 34.7917 384.047 35.2708 381.937 36.2031C378.958 37.5208 376.057 38.2604 372.703 37.8594C370.844 37.6406 368.672 37.0261 366.802 38.2969C364.693 39.724 362.63 41.2292 360.463 42.5677C357.495 44.3958 354.573 46.3802 351.401 47.7865C345.448 50.4271 340.13 53.7761 336.229 59.125C335.719 59.8229 334.979 60.3646 333.911 61.3958C334.76 58.8958 335.271 56.8698 336.125 55C337.391 52.2344 338.635 49.3906 340.391 46.9427C342.474 44.0208 344.401 40.9011 348.24 39.5677C352.281 38.1615 356.042 35.9688 360.052 34.4688C362.792 33.4427 365.724 33.2552 368.677 34.0573C370.583 34.5729 372.792 34.3125 374.51 35.1354C376.88 36.2708 378.588 35.375 380.479 34.3438C380.75 34.1979 381.146 34.2813 381.479 34.2396C383.76 33.9583 386.047 33.6719 388.328 33.3802ZM352.443 5.63543C352.651 7.31772 351.615 7.96876 350.729 8.57293C349.151 9.64584 347.432 10.5104 345.844 11.5625C344.963 12.1458 344.068 12.8281 343.437 13.6563C341.74 15.8958 340.177 18.2396 338.557 20.5365C338.172 21.0886 337.651 21.5781 337.385 22.1823C335.328 26.8073 332.698 31.0573 328.948 34.5052C326.542 36.724 324.213 39.099 321.516 40.9063C315.13 45.1771 308.526 49.1302 303.177 55.1771C303.307 54.1771 303.354 53.4167 303.521 52.6927C303.646 52.1458 303.922 51.6354 304.135 51.1094C306.5 45.2448 311.078 41.1563 315.604 37.0677C317.505 35.3438 319.573 33.75 321.771 32.4375C325.755 30.0625 329.401 27.4115 332.281 23.6719C333.661 21.8802 334.693 19.9375 335.88 18.0625C339.771 11.9063 345.948 8.67188 352.443 5.63543ZM301.682 63.125C301.396 62.9219 301.104 62.7136 300.812 62.5052C301.885 60.5677 302.943 58.6146 304.036 56.6875C306.401 52.5261 310.557 50.2917 314.198 47.5886C317.713 44.974 321.859 43.3542 325.021 40.0261C328.109 36.7865 331.88 34.2813 334.167 30.1927C336.307 26.3646 339.193 22.9531 341.354 19.1406C343.682 15.0417 347.141 12.4115 351.115 10.1979C350.719 11.1146 350.146 11.8854 349.594 12.6719C348.901 13.6615 348.088 14.599 347.557 15.6719C345.568 19.7031 343.828 23.8698 341.687 27.8177C339.771 31.3438 337.115 34.2604 334.151 37.1146C330.588 40.5521 326.432 43.0261 322.562 45.8854C318.328 49.0104 313.62 51.4323 311.208 56.4531C311.115 56.6458 310.958 56.8333 310.786 56.9479C307.755 59.0156 304.719 61.0677 301.682 63.125ZM251.396 255.672C255.302 263 261.812 267.755 267.833 273.385C262.057 275.385 256.495 275.625 250.573 275.667C250.338 274.135 249.807 272.688 249.969 271.323C250.474 267.219 251.271 263.156 250.974 258.979C250.901 257.891 251.245 256.776 251.396 255.672ZM209.656 124.667C214.167 123.026 218.411 120.792 223.073 119.453C227.625 118.141 231.948 115.87 237.078 116.443C232.411 119.844 227.276 121.797 222.187 123.969C218.057 125.734 214.213 126.807 209.906 125.26C209.854 125.24 209.838 125.109 209.656 124.667ZM202.375 128.344C197.036 133.995 185.302 143.26 174.417 145.172C174.734 144.594 174.896 143.964 175.297 143.656C177.531 141.974 179.74 140.229 182.12 138.781C185.187 136.917 188.38 135.255 191.578 133.615C195.146 131.792 198.771 130.099 202.375 128.344ZM382.687 63.9844C383.917 63.2969 385.229 62.7188 386.37 61.9063C390.588 58.9011 395.135 59.6406 399.641 60.75C401.224 61.1406 402.641 62.2448 402.818 64.2813C396.135 64.9427 389.469 62.5938 382.687 63.9844ZM381.213 236.766C381.286 237.063 381.359 237.365 381.432 237.667C379.937 238.432 378.516 239.438 376.932 239.917C374.359 240.698 371.661 241.047 369.052 241.74C366.229 242.49 363.432 243.344 360.672 244.292C358.656 244.99 357.083 244.453 354.906 242.693C359.13 242.052 362.667 241.599 366.172 240.953C368.448 240.531 370.693 239.885 372.927 239.255C375.703 238.469 378.453 237.594 381.213 236.766ZM106.578 149.932C100.073 148.13 93.8437 146.734 87.8593 144.656C81.8749 142.578 75.2655 142.193 69.9843 138.161C81.8853 141.495 93.6822 145.141 105.469 148.818C105.818 148.927 106.057 149.391 106.578 149.932ZM243.766 241.286C240.016 235.323 240.917 228.943 239.854 222.984C242.266 228.651 245.125 234.214 243.766 241.286ZM375.406 252.115C374.906 250.13 376.083 250.073 377.25 249.823C381.047 249.005 384.838 248.146 388.609 247.214C390.448 246.76 392.234 246.115 394.047 245.557C394.141 245.865 394.234 246.172 394.323 246.484C388.375 249.177 382.25 251.354 375.406 252.115ZM433.885 267.203C427.755 264.198 421.234 264.385 415.604 261.391C420.693 262.052 425.859 261.969 430.786 263.734C432.281 264.271 433.292 264.958 433.885 267.203ZM376.63 65.3333C369.495 68.2865 362.359 71.2396 355.224 74.1979C355.13 73.9636 355.036 73.7344 354.943 73.5C361.927 70.1511 368.672 66.1979 376.63 65.3333ZM352.26 244.349C346.521 245.797 341.948 242.385 336.76 241.141C337.401 240.714 338.068 240.495 338.646 240.641C340.792 241.177 342.906 241.854 345.042 242.438C347.443 243.099 349.854 243.708 352.26 244.349ZM234.38 210.932C231.13 211.094 228.323 209.693 225.573 206.547C228.453 206.036 232.109 207.854 234.38 210.932ZM247.036 256.266C247.734 256.63 248.391 256.792 248.411 257.01C248.578 259.073 248.703 261.151 248.693 263.229C248.693 263.964 248.292 264.703 248.073 265.438C247.865 265.401 247.651 265.365 247.437 265.328C247.312 262.5 247.187 259.667 247.036 256.266ZM254.323 298.891C253.354 293.943 253.354 293.943 254.875 293.281C254.682 295.26 254.5 297.078 254.323 298.891ZM198.922 194.865C199.021 194.651 199.12 194.443 199.213 194.24C200.74 194.953 202.266 195.667 204.37 196.656C201.495 197.349 200.37 195.755 198.922 194.865ZM288.193 96.7344C290.12 94.7552 290.12 94.7552 292.276 94.9479C290.588 97.1563 290.588 97.1563 288.193 96.7344ZM274.234 104.109C274.12 103.844 274.005 103.573 273.891 103.302C275.193 102.87 276.49 102.438 277.792 102.005C277.865 102.234 277.937 102.458 278.016 102.688C276.755 103.161 275.495 103.635 274.234 104.109ZM178.792 180.859C178.948 180.667 179.104 180.469 179.266 180.281C180.37 181.031 181.479 181.786 182.588 182.536C182.463 182.708 182.344 182.875 182.224 183.047C181.083 182.318 179.937 181.583 178.792 180.859ZM184.318 183.885C184.49 183.661 184.661 183.432 184.828 183.208C185.505 183.771 186.177 184.333 186.854 184.891C186.781 184.984 186.708 185.068 186.635 185.161C185.865 184.734 185.088 184.307 184.318 183.885ZM323.469 229.578C323.552 229.766 323.635 229.958 323.724 230.151C322.984 230.458 322.25 230.781 321.5 231.063C321.448 231.083 321.292 230.818 321.047 230.516C321.896 230.182 322.682 229.88 323.469 229.578ZM283.422 99.0156C283.531 99.2969 283.641 99.5781 283.75 99.8594C283.016 100.141 282.276 100.422 281.542 100.703C281.458 100.505 281.375 100.313 281.286 100.115C282 99.75 282.708 99.3802 283.422 99.0156ZM65.1301 136.87C65.026 137.094 64.927 137.318 64.8228 137.536C63.9687 137.182 63.1093 136.823 62.2499 136.469C62.328 136.281 62.4062 136.094 62.4895 135.906C63.3697 136.229 64.2499 136.547 65.1301 136.87ZM247.229 271.016C247.042 270.974 246.849 270.938 246.656 270.901C246.755 269.979 246.849 269.057 246.948 268.135C247.167 268.167 247.38 268.203 247.594 268.234C247.474 269.161 247.354 270.089 247.229 271.016ZM294.958 232.807C295.042 232.552 295.13 232.297 295.213 232.042C296.01 232.354 296.812 232.667 297.615 232.979C297.547 233.156 297.479 233.328 297.417 233.505C296.599 233.276 295.776 233.042 294.958 232.807Z" fill="#3D3D3D"/>
<path d="M551.396 255.885C549.714 256.005 548.031 256.125 546.344 256.245C546.365 256.495 546.38 256.74 546.401 256.99C548.078 256.896 549.76 256.797 551.438 256.698C551.427 256.427 551.411 256.156 551.396 255.885Z" fill="#3D3D3D"/>
<path d="M318.724 239.609C316.922 239.005 315.156 238.276 313.312 237.865C312.557 237.698 311.646 238.234 310.932 238.901C312.792 239.339 314.661 239.724 316.5 240.24C317.474 240.51 318.276 240.646 318.74 239.51L318.724 239.609Z" fill="#3D3D3D"/>
<path d="M318.74 239.51C319.12 240.922 320.328 240.927 321.411 240.995C323.271 241.115 325.141 241.115 327.01 241.172C327.01 241.172 327.01 241.276 327.01 241.281C324.401 239.984 321.625 239.49 318.724 239.609L318.74 239.51Z" fill="#3D3D3D"/>
</svg>
