<svg width="371" height="378" viewBox="0 0 371 378" fill="none" xmlns="http://www.w3.org/2000/svg">
<path d="M386.484 480.099C383.135 474.938 380.74 469.135 376.026 464.896C372.104 461.37 368.12 457.891 364.484 454.089C361.839 451.318 359.714 448.047 357.354 445C356.667 444.115 356.021 443.193 355.286 442.344C348.083 433.969 340.698 425.745 333.724 417.177C330.859 413.656 328.25 409.844 326.224 405.656C323.245 399.51 319.172 394 315.281 388.406C312.984 385.104 310.641 381.839 308.266 378.594C306.953 376.813 305.443 375.172 304.187 373.354C300.286 367.703 296.328 362.078 292.672 356.26C290.958 353.536 289.922 350.396 288.536 347.464C287.443 345.13 286.266 342.833 285.172 340.495C284.906 339.922 284.823 339.26 284.656 338.635C284.875 338.542 285.094 338.448 285.312 338.354C286.167 340.151 286.896 342.026 287.917 343.724C289.135 345.74 290.552 347.635 291.979 349.51C294.766 353.167 297.62 356.776 300.458 360.391C301.979 362.328 303.479 364.292 305.078 366.161C308.349 369.984 309.911 374.797 312.594 378.948C315.573 383.563 317.625 388.708 321.151 393.042C323.036 395.359 323.885 398.49 325.464 401.094C328.094 405.422 330.958 409.604 333.677 413.88C338.641 421.682 344.703 428.521 351.583 434.677C353.766 436.63 355.802 438.74 357.875 440.807C362.422 445.328 367.047 449.771 371.443 454.427C374.13 457.271 376.193 460.729 379 463.422C383.203 467.443 386.036 472.359 389.214 477.089C390.964 479.688 393.135 482 395.068 484.479C395.604 485.161 395.964 485.984 396.422 486.734C398.24 489.703 400.021 492.698 401.927 495.609C402.198 496.021 403.073 496.031 403.734 496.245C404.719 494.547 403.656 493.474 403.031 492.349C401.724 489.979 400.359 487.646 399.021 485.292C398.687 484.698 398.453 484.031 398.042 483.51C395.458 480.234 392.823 477 390.229 473.74C387.172 469.906 384.198 466.005 381.073 462.229C378.714 459.375 376.161 456.677 373.714 453.901C371.641 451.547 369.724 449.031 367.495 446.833C362.057 441.474 356.469 436.255 350.948 430.974C349.609 429.693 348.276 428.464 347.115 426.948C344.177 423.12 340.875 419.573 337.708 415.922C337.49 415.672 336.964 415.521 336.943 415.297C336.687 412.109 334.089 410.313 332.599 407.875C329.854 403.38 327.031 398.938 324.276 394.453C322.474 391.521 320.771 388.526 318.948 385.604C316.693 381.99 314.354 378.375 312.854 374.396C311.062 369.63 307.812 365.932 304.917 361.906C301.615 357.302 298.068 352.948 294.448 348.604C292.115 345.802 290.49 342.406 288.594 339.245C284.651 332.661 280.865 325.979 276.766 319.495C274.328 315.635 272.172 311.557 268.875 308.245C267.99 307.359 267.812 305.781 267.24 304.552C266.24 302.401 265.229 300.255 264.135 298.151C263.13 296.208 262.729 294.344 263.594 292.161C264.708 289.349 265.396 286.37 266.458 283.536C267.203 281.547 268.344 279.714 269.182 277.755C269.891 276.104 270.49 274.396 271.021 272.682C272.708 267.203 274.062 261.604 276.099 256.266C277.286 253.156 279.182 250.141 281.396 247.646C284.068 244.635 285.292 241.115 286.667 237.438C287.922 237.938 289.297 238.406 290.615 239.01C295.495 241.25 300.625 242.125 305.948 241.703C307.495 241.578 309.016 241 310.51 240.505C314.958 239.026 319.693 239.573 324.203 238.552C324.974 238.38 325.854 238.479 326.536 238.146C330.109 236.422 333.969 236.656 337.75 236.385C340.766 236.167 343.792 236.104 346.812 236.01C352.729 235.833 357.745 233.406 362.104 229.63C365.979 226.276 370.141 224.349 375.417 225.229C377.745 225.62 380.172 225.604 382.38 224.417C383.568 223.781 383.729 222.839 382.646 222.089C381.37 221.208 380.031 220.042 378.599 219.833C375.286 219.354 372.901 217.375 370.411 215.536C365.906 212.198 360.901 209.875 355.51 208.557C351.068 207.474 346.495 206.891 341.974 206.167C338.344 205.583 335.057 207.156 331.661 207.974C330.484 208.26 329.307 208.578 328.12 208.797C327.24 208.958 326.292 208.839 325.448 209.094C315.953 211.906 306.182 213.859 297.146 218.135C296.052 218.656 294.771 218.776 293.474 219.115C293.484 218.667 293.37 218.245 293.531 218.052C296.005 215.12 298.333 212.031 301.057 209.344C303.943 206.5 307.141 203.974 310.312 201.448C312.333 199.839 314.417 198.167 316.74 197.135C318.453 196.37 320.698 196.115 322.542 196.474C326.021 197.151 329.036 195.906 332.083 194.87C334.818 193.938 337.656 193.156 340.005 191.203C340.87 190.49 342.339 190.438 343.557 190.219C346.432 189.714 348.865 188.448 350.906 186.344C351.766 185.458 352.906 184.859 353.771 183.99C355.687 182.057 357.115 179.859 358.37 177.37C361.724 170.719 365.469 164.255 369.198 157.802C370.615 155.354 370.823 153.005 369.87 150.401C369.005 148.052 368.135 145.656 369.76 143.422C368.812 142.266 367.896 142.208 367.26 143.073C366.182 144.542 364.656 145.083 363.094 145.797C359.542 147.422 356.698 150.13 354.24 153.042C351.141 156.714 347.318 158.625 342.745 159.63C340.13 160.203 337.5 161.109 335.141 162.354C333.437 163.255 332.078 164.885 330.724 166.339C328.719 168.484 326.828 170.734 324.948 172.984C322.167 176.318 321.089 180.438 320.167 184.5C319.443 187.698 317.719 190.307 316.234 193.083C316 193.516 315.375 193.75 314.906 194.036C314.521 194.271 313.906 194.339 313.724 194.667C311.177 199.172 305.958 200.552 302.661 204.167C301.786 205.135 300.76 205.969 299.344 207.292C299.427 205.943 299.297 205.141 299.552 204.479C300.354 202.391 301.26 200.333 302.203 198.297C304.839 192.589 307.516 186.896 310.172 181.188C310.453 180.589 310.786 179.974 310.885 179.333C311.646 174.411 313.75 169.917 315.26 165.234C316.495 161.385 317.344 157.417 318.396 153.505C318.682 152.432 318.901 151.344 320.271 150.911C320.917 150.703 321.536 149.99 321.88 149.344C324.839 143.823 329.677 140.75 335.401 138.828C338.057 137.938 340.797 137.292 343.417 136.313C346.375 135.203 349.161 133.635 351.37 131.37C353.323 129.365 355.135 127.156 356.672 124.813C359.219 120.927 363.187 119.083 367.068 117.125C368.656 116.323 370.521 116.083 372.219 115.484C373.172 115.151 374.229 114.792 374.937 114.13C378.115 111.151 380.526 107.578 381.552 103.354C382.042 101.349 382.594 99.5313 383.833 97.8854C386.547 94.2813 389.234 90.651 391.844 86.9688C392.307 86.3177 392.719 85.2135 392.469 84.599C392.26 84.099 391.042 83.9323 390.245 83.7813C386.63 83.0938 383.437 84.8177 380.078 85.6094C377.677 86.1771 375.255 86.6719 372.859 87.2552C368.792 88.25 365.615 90.724 362.589 93.474C358.802 96.9167 354.766 99.8802 349.583 101.021C346.193 101.766 342.786 102.651 339.583 103.958C335.297 105.703 332.135 109.052 329.234 112.557C325.766 116.734 323.083 121.995 321.245 127.516C320.906 128.526 320.318 129.458 319.318 130.276C319.995 125.865 320.771 121.464 321.323 117.036C321.901 112.396 323.307 107.938 324.036 103.333C324.307 101.604 324.057 99.849 324.203 98.2188C324.349 96.6198 324.557 94.9063 324.885 93.3073C325.516 90.25 325.245 87.276 325.224 84.2396C325.198 79.7292 324.057 75.4844 322.427 71.4219C321.406 68.8594 319.896 66.1771 317.865 64.3958C313.052 60.1875 308.458 55.5521 302.146 53.4115C300.125 52.7344 299.823 51.8385 300.198 49.7656C300.745 46.7292 301.719 43.6667 301.609 40.6458C301.464 36.6771 301.562 32.5521 297.995 29.3333C295.365 26.9635 293.911 23.5938 292.625 20.1354C291.214 16.3333 288.901 12.8594 286.833 9.32292C285.448 6.95312 283.917 4.65104 282.229 2.48958C281.531 1.59375 280.266 1.13542 278.906 0.25C278.474 1.44271 278.021 2.21875 277.917 3.03646C277.464 6.73437 276.943 10.4375 276.776 14.151C276.703 15.8854 277.062 17.8021 277.786 19.375C279.094 22.224 280.682 24.974 282.417 27.5885C285.292 31.9115 286.958 36.625 287.698 41.7135C288.224 45.375 290.344 48.2292 292.849 50.651C295.594 53.3021 296.099 56.0938 294.865 59.5417C293.198 64.1927 291.167 68.7969 290.234 73.6042C289.141 79.2188 288.906 84.8958 291.589 90.5104C294.448 96.4948 296.062 102.995 296.719 109.651C297.089 113.417 297.802 116.885 300.609 119.813C304.422 123.781 307.906 128.063 311.51 132.224C314.13 135.245 316.286 138.339 316.302 142.714C316.318 146.583 316.198 150.401 314.703 153.932C314.203 155.115 312.312 155.714 311.057 156.578C311.5 156.917 311.948 157.25 312.391 157.583C311.896 154.984 311.568 152.344 310.859 149.802C310.089 147.047 309.125 144.464 306.969 142.198C304.224 139.313 302.01 135.979 300.724 131.943C298.875 126.151 297.818 120.156 295.818 114.438C294.693 111.219 293.734 107.906 291.094 105.401C289.094 103.505 287.193 101.443 285.573 99.224C283.542 96.4427 280.766 94.6563 277.74 93.5677C274.609 92.4375 271.187 91.849 267.854 91.6198C265.109 91.4323 262.292 92.474 259.536 92.3438C255.536 92.151 251.536 91.5208 247.578 90.8438C244.833 90.3698 242.161 89.474 239.443 88.8281C237.682 88.4063 235.953 87.9896 234.276 89.375C233.568 89.9583 232.396 89.9792 231.401 90.2604C231.568 91.7604 232.406 92.2292 233.693 92.8698C237.422 94.7396 240.859 97.1719 244.547 99.1406C248.771 101.401 252.333 104.411 255.505 107.932C257.562 110.219 258.844 112.859 259.698 115.885C260.896 120.109 262.729 124.146 264.182 128.302C264.885 130.302 265.505 132.365 265.891 134.453C266.505 137.807 267.88 140.667 270.453 142.958C272.417 144.708 274.479 145.469 277.187 144.719C279.198 144.161 281.281 144.594 282.776 146.302C286.625 150.703 291.792 153.396 296.427 156.755C297.781 157.74 299.823 157.833 301.583 158.193C302.891 158.458 304.255 158.438 305.573 158.661C307.089 158.922 308.719 158.896 309.344 160.938C309.505 161.469 310.906 161.625 311.552 161.88C309.474 168.109 307.609 173.635 305.802 179.177C305.245 180.885 304.995 182.703 304.349 184.375C302.484 189.203 300.443 193.969 298.557 198.792C297.62 201.203 296.979 203.729 296.016 206.125C295.401 207.661 294.792 209.536 293.578 210.438C290.078 213.036 287.016 215.896 285.266 220C278.531 221 271.547 220.719 265.479 225.078C265.74 220.339 263.526 216.453 261.484 212.578C260.307 210.344 258.5 208.443 257.01 206.365C255.151 203.781 254.698 200.724 254.359 197.693C254.125 195.578 254.187 193.422 254.193 191.292C254.198 188.266 254.583 185.203 254.229 182.229C253.943 179.849 252.88 177.536 251.995 175.255C250.953 172.563 249.755 169.932 248.583 167.286C248.266 166.578 247.885 165.854 247.391 165.271C245.297 162.823 244.38 159.906 243.448 156.885C242.974 155.354 242.917 152.802 240.203 152.74C238.083 148.052 232.812 147.224 229.484 143.995C227.083 141.656 224.521 139.557 223.062 136.365C222.297 134.698 220.818 133.359 219.484 131.641C217.687 131.214 217.25 132.906 216.937 134.203C216.599 135.583 216.474 137.182 216.828 138.531C217.594 141.458 217.448 144.302 217.156 147.255C216.677 152.193 216.818 157.198 216.135 162.099C215.62 165.807 215.073 169.448 215.385 173.198C215.583 175.49 216.109 177.609 217.365 179.609C219.016 182.24 220.057 185.333 222.026 187.677C225.094 191.333 226.76 195.719 229.135 199.719C231.109 203.052 233.979 205.307 237.375 206.359C241.021 207.49 243.844 209.568 246.443 212.026C249.344 214.766 252.271 217.188 256.12 218.62C257.859 219.266 259.349 220.797 261.24 221.552C261.958 221.833 262.443 223.135 262.687 224.063C263.396 226.76 263.911 229.505 264.531 232.224C265.557 236.724 266.667 241.203 267.589 245.724C267.828 246.891 267.802 248.297 267.37 249.385C264.927 255.526 263.745 261.969 262.25 268.359C261.411 271.948 259.74 275.375 258.198 278.76C256.964 281.479 256.068 284.167 256.521 287.182C256.562 287.469 256.318 287.792 256.099 288.401C254.927 286.995 253.792 285.818 252.88 284.49C249.896 280.146 247.104 275.703 243.469 271.792C241.635 269.818 240.865 266.87 239.464 264.453C237.599 261.25 235.552 258.156 233.656 254.969C232.505 253.026 231.443 251.026 230.443 249.005C228.177 244.427 225.172 240.432 221.401 236.979C220.552 236.203 220.224 234.865 219.396 234.047C214.797 229.495 210.062 225.078 205.495 220.49C203.672 218.661 201.542 217.302 199.516 215.771C198.203 214.776 197.214 213.365 195.943 212.302C192.49 209.417 188.609 206.932 185.594 203.651C183.786 201.682 180.667 200.12 181.057 196.589C178.641 192.51 177.708 187.964 176.573 183.427C176.094 181.49 176.844 179.932 176.792 178.182C176.656 173.771 176.672 169.344 176.823 164.927C176.984 160.12 177.484 155.323 177.578 150.516C177.62 148.411 176.859 146.302 176.74 144.177C176.609 141.974 176.646 139.729 176.927 137.536C177.161 135.667 178 133.88 178.281 132.01C178.63 129.688 179.724 127.995 181.255 126.198C185.708 120.969 189.849 115.479 194.057 110.042C194.734 109.167 195.323 108.12 195.615 107.063C196.719 103.047 199.302 99.875 201.443 96.4479C202.396 94.9167 203.422 93.4063 204.193 91.7865C205.771 88.4688 204.401 85.4167 203.193 82.3333C202.495 80.5677 201.844 78.7344 201.552 76.8698C200.932 72.8594 200.349 68.8177 200.135 64.7708C199.911 60.5313 200.25 56.2708 200.135 52.026C200.078 50.0417 199.516 48.0781 199.208 46.1042C199.099 45.4063 199.052 44.6979 199.01 43.9948C198.891 41.7031 198.922 39.3958 198.615 37.1354C198.5 36.3073 197.578 35.599 196.88 34.6302C193.042 38.125 188.88 40.2708 184.589 42.2969C181.589 43.7188 178.964 45.9427 176.245 47.9167C175.651 48.3438 175.38 49.2135 174.958 49.8802C173.339 52.4531 171.615 54.9688 170.135 57.6302C169.156 59.3958 168.167 61.2969 167.844 63.25C167.276 66.6875 166.896 70.2188 167.026 73.6823C167.208 78.4844 166.948 83.1719 165.516 87.7552C163.578 93.9479 163.245 100.406 162.766 106.776C162.51 110.141 163.807 113.62 164.359 117.052C165.24 122.557 168.786 126.901 170.734 131.932C172.021 135.26 172.865 138.766 173.766 142.224C176.052 150.953 174.63 159.776 174.349 168.563C174.245 171.667 174.172 174.771 173.5 177.974C173.271 176.958 172.937 175.958 172.828 174.927C172.245 169.318 169.87 164.37 167.458 159.375C165.698 155.734 164.37 151.875 162.958 148.073C162.135 145.854 161.286 143.604 160.891 141.292C160.5 139.005 160.615 136.625 160.599 134.292C160.568 130.036 160.661 125.776 160.594 121.526C160.542 118.365 160.75 115.255 161.021 112.104C161.365 108.057 162.141 103.698 159.167 100.031C156.849 97.1667 154.76 94.1094 152.281 91.3958C150.516 89.4688 149.625 87.151 149.01 84.8542C148.297 82.1875 146.646 80.375 144.635 79.0781C140.661 76.5156 136.406 74.3802 132.255 72.0938C131.88 71.8854 131.406 71.849 130.979 71.7292C129.396 72.8802 129.312 74.349 129.708 75.9896C131.271 82.4635 130.63 89.0208 130.516 95.5677C130.464 98.7188 130.198 101.938 130.724 105.01C131.062 106.969 132.339 109.047 133.792 110.458C135.432 112.063 135.75 113.542 135.776 115.74C135.828 120.448 135.911 125.208 137.724 129.729C138.984 132.87 139.792 136.188 141.01 139.349C142.266 142.609 144.25 145.141 147.854 146.354C151.151 147.469 154.276 149.115 157.437 150.615C159.401 151.557 160.943 152.891 161.943 155C163.146 157.521 165.281 159.677 166.109 162.281C167.307 166.026 169.474 169.411 169.839 173.49C170.203 177.49 171.141 181.443 171.781 185.422C171.922 186.297 171.885 187.203 171.953 188.578C169.479 184.5 166.698 181.344 163.656 178.307C162.24 176.896 161.219 174.844 159.568 173.531C156.271 170.911 152.797 168.51 149.495 165.901C147.281 164.146 145.302 162.099 143.109 160.328C137.458 155.766 133.219 149.88 128.271 144.661C124.609 140.807 122.339 136.094 121.318 130.932C120.828 128.469 121.318 125.813 121.286 123.245C121.25 119.88 121.13 116.521 121.062 113.156C121.031 111.693 120.99 110.224 121.042 108.76C121.13 106.417 121.302 104.141 120.26 101.854C118.141 97.2031 119.312 92.625 121.026 88.125C121.661 86.4531 122.312 84.776 122.766 83.0521C123.656 79.6719 124.719 76.2969 125.125 72.8542C125.469 69.9167 125.177 66.8646 124.844 63.8958C124.573 61.4479 123.828 59.0521 123.286 56.6354C123.141 55.9896 123.094 55.2656 122.776 54.7083C121.234 51.9635 119.865 49.0677 117.943 46.6094C115.891 43.9844 114.536 41.1667 113.302 38.1042C111.589 33.849 109.229 29.849 107.146 25.7448C107.042 25.5417 106.979 25.2396 106.818 25.1667C102.641 23.3646 101.177 18.6719 97.4635 16.401C96.1979 15.625 96 13.3958 93.7448 13.8385C93.0781 15.8542 93.8906 17.7552 94.5156 19.625C96.3593 25.1302 96.901 30.5469 94.5208 36.1094C92.1093 41.7448 91.0468 47.8073 90.4062 53.8385C89.8541 59.0469 91.3125 64.1979 92.7864 69.1979C93.8698 72.875 95.4166 76.4115 96.6614 80.0417C97.4218 82.2604 97.901 84.5833 98.6927 86.7865C100.437 91.651 102.865 96.0052 107.422 98.9323C111.042 101.255 114.349 103.984 116.792 107.646C117.76 109.094 118.391 110.406 118.365 112.297C118.318 115.13 118.026 117.896 117.734 120.703C117.422 123.745 117.844 126.911 118.276 129.974C118.833 133.911 119.724 137.797 120.615 142.479C118.823 140.896 117.38 139.849 116.208 138.552C112.26 134.177 107.896 130.448 102.729 127.448C95.8385 123.443 89.0833 119.094 83.276 113.563C80.8333 111.24 78.9948 108.292 76.8593 105.646C74.6093 102.854 72.3437 100.068 70.0573 97.2969C66.6823 93.2135 63.2239 89.2083 59.0208 85.9271C54.4427 82.349 49.302 79.9115 43.7395 78.224C38.9114 76.7552 34.2135 74.875 29.3958 73.3698C26.5989 72.4948 23.7135 71.7448 20.8177 71.4271C18.8802 71.2135 16.8385 71.8125 14.8593 72.1354C12.8541 72.4688 10.875 72.9635 8.86454 73.2865C7.44267 73.5208 6.22913 73.9375 5.63538 75.3958C5.51038 75.7031 5.34371 76.0885 5.08329 76.2344C2.651 77.6146 2.19267 79.8698 2.7135 82.2604C3.31767 85.0313 2.12496 87.0573 0.510376 89.0417C1.26038 91.2604 2.79683 92.7396 4.65621 93.8229C8.85933 96.2708 13.1302 98.599 17.3698 100.969C18.7552 101.745 20.2291 102.391 21.5104 103.307C25.1458 105.917 29.026 107.797 33.4583 108.792C35.677 109.286 37.7916 110.682 39.7031 112.031C45.0312 115.792 50.9635 117.12 57.3385 116.703C64.4687 116.229 71.4948 117.12 78.5781 117.724C83.1406 118.109 86.427 120.063 89.802 122.557C91.5052 123.813 93.4427 124.755 95.1823 125.969C99.3541 128.865 103.474 131.839 107.615 134.786C107.891 134.984 108.161 135.188 108.422 135.406C111.167 137.729 114.047 139.922 116.62 142.427C118.953 144.703 121.245 147.026 123.401 149.516C125.891 152.396 128.958 154.828 132.005 157.161C135.135 159.557 138.615 161.495 141.802 163.818C149.25 169.25 157.198 174.089 162.969 181.526C163.021 181.599 162.99 181.734 163.021 182.203C161.568 181.938 160.115 181.885 158.833 181.396C154.427 179.693 149.88 179.406 145.219 179.422C141.516 179.432 137.88 178.661 134.411 177.229C132.969 176.635 131.443 176.01 129.917 175.896C124.333 175.469 120.01 172.708 115.901 169.177C112.844 166.552 109.37 164.417 106.187 161.922C99.901 157 93.7448 151.917 87.4375 147.026C84.3541 144.635 81.0989 142.458 77.8333 140.318C76.5416 139.469 75.0729 138.818 73.5937 138.354C69.9843 137.214 66.3698 135.974 62.6666 135.266C59.5 134.656 56.1458 134.24 52.9791 134.609C48.5781 135.13 44.2343 134.969 39.8593 134.844C38.9948 134.818 38.151 134.401 37.2916 134.188C32.8854 133.104 28.7812 130.932 24.1302 130.688C23.276 130.641 22.3073 129.901 21.6614 129.224C20.2031 127.682 19.2135 125.448 17.4843 124.443C13.7135 122.266 10.8854 117.891 5.19267 119.271C5.29163 119.938 5.19267 121.094 5.651 121.958C8.69788 127.745 12.3698 133.073 17.2291 137.531C18.1198 138.349 18.8593 139.401 19.4583 140.458C21.7448 144.479 23.927 148.531 25.125 153.078C26.0156 156.49 28.8541 158.734 31.4323 160.745C34.2135 162.911 37.5156 164.641 40.8593 165.802C44.5573 167.094 47.8125 169.24 51.4687 170.536C54.8437 171.734 58.0885 173.625 61.552 174.13C67.2239 174.953 73.0208 175.104 78.6979 173.516C81.5208 172.729 84.3125 172.099 87.3489 173.01C91.6302 174.286 95.9948 173.198 100.021 171.948C104.354 170.609 108.26 171.87 112.375 172.302C115.849 172.667 118.281 174.938 121.229 176.24C126.057 178.375 130.833 180.63 136.286 180.828C138.516 180.906 140.625 181.583 142.703 182.708C145.823 184.396 149.052 185.917 152.714 186.443C156.906 187.052 160.51 189.354 164.177 191.375C165.146 191.906 166.286 192.25 167.073 192.974C168.859 194.604 170.474 196.427 172.156 198.172C172.021 198.375 171.891 198.578 171.755 198.786C170.38 198.354 168.984 197.953 167.615 197.484C164.234 196.328 160.922 194.891 157.464 194.042C154.911 193.417 152.135 193.167 149.521 193.411C142.651 194.047 135.75 194.302 128.943 195.901C125.516 196.708 121.703 197.323 118.078 195.849C117.271 195.526 116.219 195.25 115.443 195.49C112.443 196.406 109.656 195.51 106.823 194.813C106.057 194.625 105.245 194.198 104.531 194.318C98.4531 195.349 92.1875 195.375 86.3593 197.714C85.7395 197.964 85.0052 198.245 84.6302 198.745C81.8333 202.443 77.1718 203.349 73.7291 206.125C71.9843 207.531 69.4895 208.099 67.2552 208.797C63.2812 210.036 61.1302 212.948 59.3593 216.453C57.5468 220.042 55.25 223.396 53.5781 227.042C52.5625 229.25 51.9218 231.797 51.8385 234.224C51.6875 238.26 52.0833 242.323 52.3385 246.37C52.3802 247.047 52.8437 247.703 53.1145 248.365C53.8593 248.016 54.8854 247.87 55.3125 247.286C57.6979 244.01 60.8229 242.047 64.8125 241.38C66.9323 241.026 69.0364 240.563 71.1562 240.188C77.5885 239.063 81.3593 234.724 84.2239 229.339C85.5 226.948 86.5781 224.453 87.8125 222.036C89.0937 219.521 91.4895 218.13 93.677 216.583C95.5208 215.281 97.5416 214.224 99.4479 213.005C102.521 211.047 104.771 208.266 106.937 205.401C107.964 204.047 109.083 202.766 110.104 201.411C111.687 199.318 113.552 198.865 116.281 199.042C121.896 199.401 127.594 199.188 133.099 197.672C135.25 197.083 137.297 196.417 139.573 197.167C140.5 197.469 141.604 197.297 142.625 197.24C146.224 197.036 149.708 197.318 153.052 198.901C154.448 199.563 156.125 199.604 157.594 200.156C162.083 201.839 166.536 203.63 170.995 205.391C171.411 205.557 171.786 206.005 172.177 206.01C177.198 206.073 179.708 209.667 182.661 212.958C185.87 216.531 189.651 219.578 193.099 222.943C194.625 224.427 195.979 226.089 197.359 227.714C198.422 228.958 199.396 230.271 200.349 231.484C196.937 231.266 193.646 231.146 190.375 230.823C186.469 230.443 182.583 229.891 178.682 229.406C177.906 229.313 177.125 229.255 176.359 229.104C173.948 228.641 171.573 228.349 169.422 226.781C166.052 224.323 162.391 222.26 158.854 220.031C158.469 219.792 158.104 219.411 157.687 219.344C151.63 218.359 145.885 215.344 139.479 216.547C136.974 217.021 134.656 218.333 131.995 218.104C129.187 217.859 126.375 217.76 123.573 217.51C120.062 217.198 116.792 215.474 113.172 215.74C110.557 215.932 107.932 216.328 105.401 216.781C103.911 217.052 102.641 219.266 101.536 220.797C100.521 222.193 99.3698 223.182 97.7916 223.896C95.1041 225.104 93.5 227.542 92.1666 229.969C90.1979 233.568 87.1927 236.031 83.7968 238.604C84.0833 239.286 84.4062 240.042 84.7291 240.802C89.177 239.677 93.4062 239.073 97.6875 240.13C99.651 240.615 101.708 240.943 103.505 241.802C106.427 243.193 109.557 243.594 112.635 243.885C115.401 244.151 118.484 244.219 121 243.255C125.979 241.344 130.276 242.854 134.693 244.641C135.63 245.021 136.479 245.63 137.422 245.984C144.062 248.495 150.292 247.896 155.75 243.141C158.198 241.005 160.354 238.536 162.635 236.214C166.125 232.651 170.021 230.443 175.297 231.688C177.807 232.281 180.453 232.271 183.01 232.688C186.661 233.286 190.234 234.12 193.74 235.448C198.151 237.12 202.781 238.198 207.26 239.693C208.714 240.177 210.208 240.943 211.307 241.979C215.49 245.938 219.656 249.927 223.568 254.146C227.958 258.885 231.557 264.151 233.776 270.354C235.542 275.307 237.49 280.276 240.089 284.818C242.177 288.474 245.38 291.49 248.057 294.813C249.115 296.13 250.036 297.547 251.083 298.875C253.458 301.88 255.974 304.724 258.714 307.443C262.547 311.255 265.641 315.792 269.271 319.823C271.865 322.698 273.594 326.109 275.411 329.396C277.302 332.818 278.234 336.766 279.651 340.464C281.99 346.594 284.641 352.599 288.578 357.896C291.12 361.318 294.099 364.422 296.604 367.87C298.375 370.318 299.729 373.083 301.177 375.755C302.901 378.932 304.531 382.161 306.193 385.375C306.542 386.052 306.849 386.76 307.375 387.88C304.219 386.948 301.516 386 298.74 385.391C297.266 385.068 295.661 385.328 294.12 385.349C293.693 385.354 293.26 385.536 292.849 385.484C285.823 384.672 278.703 384.271 271.802 382.839C267.849 382.016 263.964 380.568 259.911 380.615C254.297 380.682 248.625 380.854 243.083 381.703C238.219 382.448 234.562 381.688 231.609 377.469C228.526 373.057 224.901 369.021 221.724 364.667C220.375 362.807 219.422 360.609 218.542 358.464C217.349 355.542 216.615 352.417 215.286 349.563C213.641 346.031 214.047 342.255 213.432 338.604C213.214 337.302 213.135 335.76 212.38 334.807C210.516 332.443 208.906 329.917 206.552 327.839C204.422 325.958 203.557 322.885 203.062 319.859C202.234 314.802 203.521 309.974 204.234 305.073C204.349 304.292 204.599 303.531 204.646 302.75C204.802 299.88 204.724 297.12 202 295.167C200.635 294.188 199.661 292.656 198.276 291.729C192.885 288.13 190.432 283.125 190.052 276.719C189.885 273.964 188.932 271.177 187.896 268.578C186.724 265.656 181.911 265.13 179.479 267.703C177.255 270.042 174.839 272.318 174.182 275.797C173.875 277.427 173.005 278.953 172.401 280.521C169.953 286.88 168.281 293.448 167.698 300.229C167.281 305.083 168.286 309.885 169.135 314.656C169.255 315.302 169.568 315.979 169.974 316.5C173.365 320.802 175.646 325.682 177.849 330.651C180.635 336.943 184.964 342.063 190.469 346.214C194.594 349.323 199.479 350.37 204.349 351.365C207.266 351.958 210.125 352.464 212.531 354.411C213.104 354.875 213.99 354.953 214.964 355.292C216.365 362.318 220.953 367.802 225.172 373.495C225.833 374.391 226.547 375.255 227.599 376.594C226.422 376.448 225.708 376.464 225.062 376.266C219.635 374.609 214.135 373.552 208.422 373.516C205.187 373.49 201.953 373.031 198.719 372.734C198.411 372.708 198.094 372.474 197.833 372.271C195.396 370.391 192.458 369.141 190.714 366.385C188.781 363.333 186.854 360.26 184.703 357.354C182.427 354.281 179.937 351.354 177.448 348.443C173.234 343.516 169.031 338.578 164.646 333.802C163.156 332.182 161.182 330.984 159.354 329.703C154.635 326.391 149.318 324.667 143.682 323.573C139.583 322.781 135.62 321.313 131.568 320.255C124.958 318.521 118.323 318.406 111.719 320.281C110.198 320.714 108.682 321.229 107.984 322.927C107.312 324.563 108.094 328.083 109.922 329.391C112.318 331.089 113.135 333.234 112.891 336.036C112.745 337.688 113.427 338.948 114.656 340.214C117.849 343.49 121.766 345.484 125.964 346.859C128.781 347.781 131.203 349.219 133.734 350.677C137.917 353.094 141.214 356.615 145.198 359.234C145.427 359.385 145.484 359.792 145.807 360.479C142.271 360.734 138.995 361.359 135.672 360.609C133.135 360.036 130.641 359.255 128.099 358.729C125.13 358.12 122.12 357.714 119.141 357.161C117.719 356.896 116.266 356.646 114.911 356.151C112.151 355.141 109.38 354.417 106.458 353.88C103.016 353.24 99.7656 351.516 96.4323 350.26C95.5989 349.948 94.7916 349.411 93.9375 349.339C91.4323 349.115 90.3645 346.859 88.5364 345.703C88.2291 345.51 88.0885 344.917 88.0468 344.49C87.3489 338.255 85.0989 332.49 82.5468 326.854C80.3125 321.911 77.0729 317.755 72.6406 314.396C69.4166 311.958 66.375 309.276 62.651 307.677C60.9635 306.953 58.9739 306.865 57.1041 306.672C54.4323 306.396 51.552 306.927 49.3593 304.88C48.0729 303.677 47.0312 302.224 45.8854 300.875C44.5729 299.328 43.5573 297.214 41.8958 296.354C38.6666 294.688 35.6302 292.333 31.6875 292.302C28.9323 292.281 26.3437 291.568 23.9479 290.083C23.1354 289.583 21.9948 289.646 21.0364 289.354C18.1041 288.474 15.6927 286.719 13.2864 284.891C12.1302 284.01 10.6354 283.578 9.09892 282.854C8.21871 285.516 8.75517 287.661 9.54163 289.563C11.302 293.818 13.4166 297.927 15.3333 302.12C17.3854 306.625 19.3229 311.182 21.427 315.661C21.9791 316.844 22.8802 317.875 23.7291 318.885C24.5 319.802 25.3854 320.635 26.276 321.443C27.1718 322.25 28.0312 323.224 29.0989 323.698C31.3125 324.677 34.4739 327.823 34.9739 330.182C36.4687 337.224 41.4791 340.375 47.8854 341.99C48.7343 342.203 49.7083 341.88 50.5625 342.073C52.8333 342.583 55.2083 342.938 57.2916 343.896C63.2083 346.615 69.25 348.313 75.8281 348.74C82.3125 349.161 88.8125 349.932 94.8854 352.849C99.625 355.13 104.625 356.901 109.573 358.729C110.781 359.177 112.234 358.984 113.583 359.042C116.875 359.182 120.104 359.724 123.021 361.26C124.755 362.172 126.365 363.026 128.401 362.682C128.865 362.604 129.396 362.943 130.453 363.255C124.474 364.99 119 365.557 113.422 366C109.198 366.333 105.26 365.786 101.312 364.776C99.4948 364.318 97.8125 363.266 96.1406 362.349C92.9218 360.583 89.2448 360.484 85.8281 359.427C82.6041 358.432 79.1354 358.203 75.927 357.161C70.302 355.328 64.8437 356.156 59.25 357.208C56.7552 357.677 54.0833 357.266 51.5 357.161C48.1666 357.031 44.8385 356.583 41.5156 356.656C35.9635 356.776 30.3802 356.99 24.9635 359.401C25.2083 360.672 25.4323 361.854 25.6614 363.042C28.6666 364.172 31.6614 365.167 34.5416 366.417C37.3958 367.651 40.2708 368.797 43.2187 369.781C43.7968 369.974 44.2864 370.547 44.7448 371.021C46.4218 372.766 47.9843 374.625 49.7448 376.276C52.3854 378.75 55.7656 379.839 59.1823 380.667C62.6614 381.5 66.1823 382.292 69.7291 382.698C75.0937 383.313 80.3073 382.714 84.9114 379.479C88.3698 377.057 92.0052 374.901 95.4427 372.432C97.7604 370.771 100.708 369.969 103.406 368.865C103.995 368.625 104.734 368.609 105.38 368.682C111.594 369.318 117.75 368.729 123.865 367.75C126.531 367.323 129.177 366.656 131.755 365.849C135.036 364.823 138.312 364.12 141.75 364.703C142.839 364.891 143.943 365.068 144.979 365.427C148.63 366.708 152.297 367.5 156.24 367.427C159.583 367.359 162.948 367.964 166.302 368.271C166.344 368.516 166.391 368.755 166.432 368.995C165.604 369.292 164.729 369.932 163.964 369.823C161.589 369.484 159.672 370.625 157.974 371.766C152.672 375.354 146.755 377.37 140.828 379.599C133.755 382.255 126.568 382.365 119.266 382.521C115.469 382.599 111.599 382.208 108.021 384.292C106.75 385.031 104.984 385.016 103.427 385.161C99.177 385.547 94.9218 385.87 90.6562 386.125C89.9062 386.172 89.1302 385.641 88.3698 385.667C86.5781 385.734 84.7864 385.938 83.0052 386.167C82.2291 386.266 81.4427 386.839 80.7291 386.74C77.4114 386.286 74.526 387.693 71.5208 388.641C69.9166 389.146 68.5416 389.927 67.0781 390.818C60.9948 394.531 55.0677 398.693 47.9479 400.328C45.2864 400.938 42.5364 401.161 39.8802 401.792C38.9948 402 38.2708 402.911 37.552 403.443C39.1354 406.318 41.4479 406.88 43.9948 407.385C48.4062 408.266 52.8073 409.031 57.2656 409.672C62.427 410.411 66.3593 408.24 70.6354 406.536C76.1927 404.328 81.75 403.016 87.927 403.224C94.5833 403.453 101.474 403.172 107.625 399.724C113.016 399.521 116.182 395.536 119.865 392.469C121.578 391.042 123.062 389.349 124.714 387.839C126.724 386.005 129.328 385.568 131.854 384.922C137.109 383.578 142.359 382.208 147.578 380.729C148.74 380.401 149.865 379.703 150.823 378.943C153.656 376.688 157.604 376.443 160.161 373.708C160.312 373.547 160.516 373.396 160.724 373.344C165.786 372.005 170.635 369.807 176.193 371.224C180.943 372.427 185.917 372.734 190.719 373.786C194.224 374.557 197.771 375.536 201 377.057C206.094 379.469 211.135 381.969 216.63 383.297C222.427 384.693 228.271 385.932 234.109 387.151C237.974 387.958 241.854 388.75 245.766 389.276C247.974 389.573 250.26 389.24 252.51 389.339C255.87 389.479 259.245 389.599 262.573 390C266.896 390.526 271.182 391.307 275.484 392.01C281.187 392.943 286.927 393.078 292.698 392.974C299.068 392.865 305.328 393.865 311.365 395.823C312.917 396.328 314.427 397.771 315.396 399.172C320.318 406.302 324.823 413.729 329.922 420.729C334.562 427.109 339.781 433.073 344.734 439.229C346.365 441.255 347.87 443.391 349.578 445.354C352.615 448.839 355.682 452.297 358.87 455.646C365.271 462.37 370.76 469.807 375.932 477.474C377.411 479.672 378.214 482.313 379.406 484.708C382.443 490.807 386.271 496.359 391.016 501.271C391.932 502.219 392.839 502.948 394.406 502.385C394.479 500.672 393.297 499.464 392.286 498.464C387.953 494.172 384.917 488.964 382.297 483.62C379.292 477.49 375.687 471.792 371.792 466.24C370.26 464.052 368.646 461.927 367.198 459.677C372.474 462.719 376.406 467.115 379.922 471.927C381.245 473.74 382.354 475.714 383.625 477.563C384.37 478.635 384.792 480.146 386.547 480.057L386.484 480.099ZM283.214 341.182C281.312 340.109 281.958 338.052 281.839 336.323C282.276 337.969 282.714 339.615 283.156 341.255C284.568 341.99 284.76 343.333 284.469 344.849C284.052 343.63 283.635 342.406 283.214 341.182ZM177.161 199.568C178.948 199.615 180.146 200.724 180.896 203.094C178.745 202.802 178.422 200.693 177.198 199.552C176.661 198.583 176.12 197.615 175.391 196.286C177.297 197.026 177.656 198.083 177.161 199.568ZM269.792 260.453C269.828 261.323 270.5 262.307 268.943 263.464C269.203 262.068 268.656 261.089 269.87 260.5C269.125 257.109 269.349 256.422 272.12 254.547C271.255 256.729 270.526 258.594 269.792 260.453ZM256.792 301.12C253.776 300.193 253.255 297.396 252.203 295C251.693 294.672 251.036 294.453 250.693 294C249.547 292.49 248.766 290.604 247.385 289.38C243.984 286.365 242.062 282.443 240.068 278.536C239.422 277.266 238.979 275.896 238.443 274.573C238.656 274.443 238.88 274.318 239.099 274.193C240.417 276 241.734 277.813 243.052 279.625C242.516 277.469 241.375 275.656 240.474 273.74C239.479 271.635 238.703 269.432 237.828 267.276C235.859 266.099 235.646 263.859 234.656 262.094C235.932 263.703 237.776 264.979 237.766 267.349C238.245 267.729 238.854 268.026 239.172 268.505C242.135 272.995 245.115 277.474 247.958 282.036C250.682 286.391 254.839 289.859 255.901 295.234C257.286 295.302 257.948 294.693 258.099 293.521C258.453 290.729 258.719 287.922 259.12 285.141C259.38 283.339 259.823 281.568 260.182 279.786C260.458 279.839 260.734 279.891 261.01 279.943C260.078 286.505 259.141 293.063 258.125 300.167C256.302 297.833 254.646 296.031 253.354 294C251.536 291.151 250.005 288.12 248.323 285.188C247.328 283.458 245.937 282.083 244.042 280.208C244.286 281.5 244.24 282.13 244.516 282.542C246.13 284.958 247.911 287.271 249.453 289.734C250.505 291.417 251.26 293.292 252.146 295.083C254.339 296.62 255.562 298.891 256.74 301.193C258.292 302.156 260.078 302.896 260.453 305.042C258.568 304.38 257.344 303.073 256.792 301.12ZM311.141 391.781C310.25 392.333 309.818 391.313 309.312 391.229C308.458 391.094 307.479 391.792 306.536 392.083C306.375 392.135 306.135 391.859 305.922 391.833C301.839 391.318 297.74 390.323 293.667 390.432C287.234 390.609 280.885 390.531 274.526 389.104C276.536 387.635 278.49 387.01 280.792 387.146C284.833 387.375 288.891 387.969 292.911 387.797C297.661 387.589 302.083 388.823 306.599 389.786C307.526 389.984 308.495 390.005 309.359 390.094C310.547 386.49 308.12 383.964 307.453 380.828C310.349 382.526 314.026 388.021 314.646 391.156C313.474 391.38 312.297 391.604 311.109 391.849C312.625 392.031 314.141 392.214 315.797 392.417C318.76 396.557 321.786 400.953 323.687 406C321.495 403.302 319.646 400.375 317.594 397.604C316.245 395.781 315.208 393.422 312.266 393.484C311.901 393.49 311.516 392.375 311.141 391.781ZM199.391 222.411L199.333 222.495C199.286 222.276 199.318 221.948 199.182 221.854C195.276 219.146 192.172 215.604 188.953 212.177C187.896 211.052 187.146 209.906 187.229 207.823C188.401 208.927 189.177 209.703 190 210.422C197.042 216.573 204.104 222.698 211.13 228.87C212.391 229.974 213.536 231.208 214.656 232.458C217.297 235.401 219.964 238.323 222.474 241.375C224.135 243.385 225.667 245.526 227.021 247.75C228.422 250.047 229.516 252.526 230.797 254.901C231.797 256.755 232.88 258.568 233.927 260.396C233.687 260.542 233.448 260.688 233.214 260.828C231.255 257.708 229.484 254.438 227.281 251.5C224.927 248.359 222.005 245.656 219.604 242.552C215.526 237.286 214.245 235.896 211.432 234.938C213.573 238.505 217.578 240.365 218.937 244.51C214.703 242.776 198.443 226.047 196.328 221.49C197.302 221.781 198.349 222.094 199.391 222.411ZM178.974 94.1094C181.547 90.75 181.948 86.4792 183.714 82.7552C185.219 79.5729 185.005 75.9583 184.646 72.474C184.281 68.9688 184.49 65.599 185.505 62.1406C186.292 59.4635 187.198 56.875 188.146 54.2604C189.786 49.724 192.536 45.9479 195.203 42.0729C195.526 41.6042 196.057 41.276 196.646 40.7396C196.953 43.5208 197.229 45.9635 197.49 48.4063C197.646 49.8646 197.901 51.3229 197.901 52.7865C197.901 56.8438 197.682 60.901 197.766 64.9583C197.807 66.9219 198.682 68.8906 198.552 70.8177C198.203 76.0573 199.344 80.9219 201.578 85.5833C202.5 87.5156 202.167 89.3385 201.385 91.1458C200.943 92.1719 200.354 93.1406 199.771 94.099C198.026 96.9792 195.844 99.6719 194.583 102.745C192.208 108.542 188.245 113.182 184.422 117.922C181.12 122.01 177.333 125.719 175.344 131.073C173.677 124.318 173.656 117.87 174.37 111.448C174.906 106.661 175.687 101.875 177.687 97.401C178.187 96.2813 178.594 95.1198 179.052 93.9688C177.823 93.5417 177.411 94.4896 177.031 95.2708C173.755 102.036 173.026 109.396 172.432 116.703C172.177 119.901 173.146 123.193 173.552 126.443C173.698 127.599 174.193 128.813 172.974 130.13C172.167 128.411 171.609 126.87 170.771 125.505C167.391 119.995 165.823 113.964 165.656 107.568C165.594 105.365 166.167 103.135 166.089 100.932C165.891 95.2188 167.964 89.9219 169.078 84.4688C169.484 82.4844 169.948 80.6198 169.896 78.5625C169.797 74.7656 169.807 70.9531 170.078 67.1667C170.229 65.0781 170.51 62.724 171.594 61.0313C174.667 56.2188 176.604 50.5573 181.578 47.0729C184.271 45.1823 186.896 43.2448 190.167 42.4479C191.089 42.224 191.953 41.7969 193.312 41.2865C192.354 42.9635 191.719 44.4167 190.781 45.6406C188.135 49.0781 186.755 53.1771 185.24 57.0833C183.078 62.6667 182.385 68.5938 183.219 74.7031C183.672 78.0208 182.661 81.3594 181.271 84.5052C179.927 87.5469 178.484 90.6094 178.974 94.1094ZM47.4791 94.5156C50.8437 96.9167 54.1666 99.3854 57.5937 101.698C61.125 104.083 64.6875 106.432 68.3593 108.589C71.9791 110.708 75.75 112.557 79.4531 114.526C78.3229 114.901 77.3437 114.828 76.3802 114.661C70.3489 113.625 64.2187 112.99 58.1718 113.693C51.1406 114.505 45.1458 112.635 39.4479 108.74C37.552 107.453 35.25 106.469 33 106.068C30.3645 105.594 28.2708 104.188 26.0364 103.052C21.75 100.87 17.5729 98.4583 13.427 96.026C10.1562 94.1042 6.43225 92.8021 3.97392 89.4792C4.59892 88.2865 5.20309 87.125 5.73433 86.1042C8.96871 85.599 11.9895 87.599 15.6927 85.8854C14.3125 85.6146 13.5729 85.4688 12.8333 85.3281C11.0781 84.9948 9.28642 84.8073 7.58329 84.3021C4.96871 83.526 4.18746 81.9063 5.67183 79.8073C6.81246 78.2031 8.44788 76.1302 10.1093 75.8698C13.5781 75.3385 16.875 73.7969 20.5208 74.1354C25.3854 74.5938 29.9427 75.9948 34.3645 77.9688C35.901 78.6563 37.4166 79.4167 39.0104 79.9375C42.1041 80.9479 45.3073 81.6615 48.3645 82.7708C52.4843 84.2708 56.5208 86.4271 59.5052 89.4375C64.8645 94.8438 69.4948 100.979 74.3854 106.849C75.5625 108.271 76.5573 109.844 77.6354 111.349C76.7239 111.516 76.25 111.276 75.7864 111.026C72.901 109.49 69.9895 108 67.1406 106.396C65.1979 105.302 63.1666 104.26 61.4895 102.828C57.3437 99.2813 53.4114 95.4844 47.4791 94.5156ZM116.823 101.198C116.016 101.057 115.224 101.12 114.641 100.797C108.479 97.3646 103.474 92.9323 101.578 85.7448C100.953 83.3646 100.062 81.026 99.0573 78.7813C97.1614 74.5417 95.3125 70.3281 95.0208 65.5885C94.9479 64.375 94.4583 63.1719 94.0573 62C93.125 59.2604 92.6406 56.375 92.9531 53.5781C93.6406 47.3281 95.1927 41.276 97.8698 35.5156C98.75 33.6146 99.3385 31.4948 98.7552 29.25C98.5677 28.5156 98.875 27.6563 99 26.401C99.9323 28.0313 100.578 29.1667 101.245 30.3438C102.828 29.4427 102.073 28.5469 101.557 27.7135C99.9739 25.1667 99.9635 25.1771 100.146 22.875C104.995 27.2865 108.505 32.3333 110.448 38.5677C111.479 41.8698 112.99 44.9792 115.542 47.6563C117.583 49.7969 119.328 52.6146 120.167 55.4427C121.781 60.8854 123.833 66.2292 122.245 72.3333C120.557 78.8385 119.635 85.5313 116.12 91.7917C115.724 89.7135 115.406 87.875 115.01 86.0573C114.823 85.1875 114.495 84.349 114.214 83.5052C112.974 79.8073 111.547 76.1563 110.536 72.3958C109.687 69.2396 109.484 65.9792 109.698 62.6406C109.927 59.0052 109.427 55.3229 109.401 51.6667C109.391 49.6146 110.031 47.5208 109.771 45.526C109.484 43.3281 108.495 41.2188 107.812 39.0677C107.677 38.6354 107.578 38.1875 107.411 37.7708C106.307 34.9531 104.536 32.6354 102.021 30.8385C102.401 32.125 103.031 33.2604 103.745 34.3385C106.208 38.0781 108.021 42.125 108.187 46.6042C108.401 52.2969 108.104 58.0104 108.172 63.7135C108.203 66.5729 108.187 69.5208 108.839 72.276C110.198 78.0469 111.76 83.7969 113.719 89.3906C114.417 91.401 114.979 93.3802 115.354 95.4375C115.552 96.5313 115.505 97.6719 115.734 98.7604C115.896 99.4948 116.349 100.172 116.823 101.198ZM237.76 91.6302C238.698 91.7813 239.38 91.7344 239.901 92.0052C245.443 94.9115 251.141 97.5521 256.302 101.151C257.026 101.661 257.911 102.01 258.771 102.229C263.76 103.49 268.76 104.688 273.755 105.917C273.974 105.969 274.161 106.109 274.359 106.219C278.755 108.583 282.396 111.859 284.365 116.411C286.177 120.604 287.51 125.063 288.568 129.521C290.255 136.672 293.635 142.75 298.995 147.703C301.328 149.859 303.198 152.297 305.052 155.286C301.641 155.635 298.526 155.516 296.021 153.708C292.01 150.823 288.307 147.51 284.469 144.385C282.135 142.484 279.687 141.146 276.521 142.365C275.854 142.62 274.859 142.708 274.286 142.391C272.104 141.172 270.245 139.469 269.5 137.031C268.38 133.396 268.245 129.448 265.87 126.224C265.625 125.896 265.656 125.359 265.536 124.922C263.807 118.604 261.969 112.25 257.786 107.089C254.156 102.609 249.714 98.9375 244.51 96.2344C242.24 95.0469 239.401 94.5885 237.76 91.6302ZM188.75 367.958C185.995 367.677 185.984 367.688 184.833 366.5C183.26 364.875 181.672 363.255 180.156 361.578C176.333 357.333 171.411 355.167 165.979 353.87C163.505 353.276 161.12 352.307 158.641 351.745C156.062 351.156 154.505 349.26 152.573 347.755C148.443 344.547 144.172 341.672 139.187 339.589C134.781 337.75 130.521 335.51 125.875 334.266C123.198 333.552 120.469 332.917 117.719 332.641C116.62 332.531 116.068 332.135 115.552 331.427C113.969 329.229 113.042 326.531 110.615 324.964C110.448 324.849 110.536 324.339 110.474 323.74C114.365 322.099 118.359 321.339 122.62 321.74C131.562 322.583 140.01 325.578 148.635 327.74C154.339 329.161 159.51 332.068 163.776 336.245C167.135 339.531 169.479 343.792 173.448 346.516C173.536 346.578 173.594 346.688 173.667 346.776C177.917 351.823 181.641 357.276 185.536 362.594C186.641 364.104 187.479 365.807 188.75 367.958ZM180.495 270.25C181.661 273.547 182.224 276.521 181.964 279.578C181.583 284.01 180.141 288.198 180.599 292.896C181.042 297.49 182.13 301.49 184.625 305.234C185.297 306.245 186.125 307.219 186.526 308.333C188.156 312.87 189.672 317.443 191.172 322.021C191.901 324.255 192.411 326.563 193.156 328.792C194.443 332.661 196.911 335.849 199.406 338.995C201.297 341.38 203.266 343.698 205.234 346.016C206.12 347.063 207.089 348.042 208.5 349.563C203.401 349.75 199.13 348.714 195.51 346.943C189.714 344.099 185.604 339.151 182.672 333.255C180.339 328.547 177.646 324.016 175.109 319.411C173.922 317.25 172.198 315.219 171.646 312.911C169.526 304.047 169.974 295.26 173.333 286.682C174.568 283.526 175.49 280.25 176.703 277.094C177.573 274.818 178.302 272.417 180.495 270.25ZM316.891 125.719C316.672 125.729 316.458 125.745 316.245 125.755C315.703 122.922 315.208 120.078 314.609 117.26C314.099 114.865 313.703 112.406 312.844 110.135C311.661 107.005 310.089 104 308.667 101.005C307.323 98.1667 306.156 95.3177 305.292 92.349C304.484 89.5677 304.167 86.8073 304.568 83.7344C305.286 78.2656 306.401 72.526 303.026 67.3438C302.115 65.9531 301.146 64.5885 300.359 63.125C299.047 60.6823 298.234 58.1094 299.125 54.7396C301.672 56.0781 304.036 57.099 306.156 58.4896C308.406 59.9635 310.437 61.7708 312.547 63.4583C316.13 66.3281 318.901 69.7396 320.448 74.1875C321.469 77.125 321.802 80.0677 322.177 83.1094C323.193 91.3229 321.474 99.2969 320.542 107.323C319.87 113.089 317.792 118.651 317.333 124.495C317.297 124.911 317.042 125.313 316.891 125.719ZM364.875 223.031C364.943 223.234 365.005 223.432 365.068 223.635C363.74 224.62 362.302 225.49 361.099 226.609C356.687 230.729 351.375 232.526 345.49 233.021C338.771 233.589 332.042 233.401 325.339 234.932C318.214 236.568 310.781 236.745 303.667 238.755C302.214 239.167 300.417 239.109 298.974 238.651C292.104 236.479 285.234 234.271 279 230.526C277.24 229.469 275.464 228.443 273.286 227.161C275.109 226.5 276.344 225.75 277.635 225.635C281.797 225.26 285.974 225.021 290.156 224.927C291.818 224.891 293.531 225.208 295.151 225.635C298.417 226.495 301.677 227.422 304.859 228.536C307.672 229.516 310.427 229.552 313.182 228.641C315.615 227.839 317.99 226.854 320.38 225.922C321.521 225.474 322.62 224.932 323.766 224.5C324.484 224.229 325.229 224.026 325.984 223.891C327.318 223.656 328.661 223.453 330.01 223.318C331.87 223.13 333.74 222.932 335.604 222.896C338.057 222.854 340.542 223.198 342.964 222.943C344.745 222.75 346.276 222.984 347.687 223.917C349.245 224.938 350.844 224.885 352.583 224.63C356.672 224.026 360.781 223.557 364.875 223.031ZM376.021 222.021C375.396 223.026 374.542 222.604 373.708 222.224C372.745 221.786 371.818 221.25 370.823 220.911C368.682 220.188 366.703 221.083 364.609 221.453C359.854 222.292 355 222.578 350.182 223.026C349.552 223.083 348.781 222.932 348.25 222.599C345.505 220.88 342.589 221.047 339.547 221.396C337.698 221.609 335.781 221.333 333.906 221.167C330.229 220.844 326.906 222.448 323.385 222.99C323.286 223.005 323.203 223.125 323.099 223.167C321.745 223.698 320.385 224.219 319.026 224.75C317.875 225.193 316.667 225.526 315.589 226.109C313.802 227.078 311.906 227.323 309.932 227.432C305.766 227.672 301.797 226.656 298.073 225.057C293.5 223.094 288.875 223.172 284.135 223.656C282.958 223.776 281.771 223.807 280.589 223.88C283.693 222.911 286.906 221.552 289.927 221.891C295.172 222.469 299.51 220.271 303.849 218.359C308.875 216.151 313.885 214.224 319.333 213.417C321.099 213.156 322.802 212.516 324.552 212.125C329.625 210.984 334.677 209.75 339.781 208.802C344.839 207.854 349.573 209.839 354.37 210.979C358.078 211.859 361.75 212.984 365.031 214.995C368.687 217.224 372.255 219.604 376.021 222.021ZM257.453 215.828C253.906 214.401 250.24 213.135 247.932 209.771C247.38 208.958 246.516 208.255 245.651 207.766C243.297 206.448 240.896 205.219 238.469 204.052C235.38 202.563 232.229 200.932 230.802 197.74C228.943 193.573 226.01 190.161 223.75 186.313C221.807 183.005 219.557 179.641 218.703 176C217.724 171.818 217.198 167.313 218.63 162.932C219.042 161.672 219.276 160.229 219.109 158.932C218.542 154.495 219.047 150.151 219.865 145.818C220.036 144.917 220.203 144.021 220.37 143.12C221.214 144.589 221.51 146 221.75 147.422C222.432 151.479 222.995 155.557 223.823 159.583C224.146 161.146 225.484 162.563 225.599 164.104C225.807 166.854 227.286 168.656 229.083 170.406C231.651 172.906 234.562 175.151 236.667 177.995C240.74 183.49 244.708 189.089 246.464 195.932C247.24 198.953 248.422 201.974 249.974 204.672C252.198 208.542 254.937 212.12 257.453 215.828ZM182.531 269.182C184.609 268.797 185.302 268.875 185.646 270.099C186.427 272.901 187.047 275.75 187.677 278.594C187.87 279.464 187.734 280.427 188.01 281.26C189.797 286.635 192.677 291.255 197.375 294.62C198.474 295.406 199.724 296.224 200.37 297.339C201.286 298.943 202.156 300.807 202.24 302.594C202.333 304.781 201.729 307.036 201.182 309.198C198.901 318.25 200.474 326.115 207.568 332.688C209.672 334.635 211.094 337.214 211.203 340.453C211.323 343.932 212.089 347.391 212.578 350.906C212.25 350.729 211.682 350.563 211.292 350.203C208.432 347.552 205.49 345.005 203.359 341.63C201.74 339.057 199.505 336.859 197.927 334.266C195.047 329.526 193.031 324.401 191.802 318.948C190.714 314.167 189.214 309.49 186.271 305.443C184.542 303.063 183.182 300.594 183.068 297.516C182.969 294.901 182.38 292.313 182.276 289.698C182.214 288.099 182.469 286.422 182.943 284.885C183.552 282.906 184.307 279.292 184.12 277.495C183.891 275.365 183.745 273.224 183.432 271.109C183.333 270.417 182.823 269.781 182.531 269.182ZM148.937 231.708C150.099 227.438 152.781 227.474 155.833 228.01C157.453 228.292 159.177 227.943 160.818 228.141C162.641 228.365 164.427 228.885 166.526 229.339C164.349 231.151 162.505 232.479 160.927 234.063C158.714 236.281 156.536 238.563 154.635 241.036C151 245.766 142.234 245.594 137.646 243.203C132.266 240.406 126.854 238.333 120.609 240.938C118.323 241.891 115.568 241.734 113.026 242.063C112.484 242.13 111.885 242.245 111.396 242.083C107.031 240.688 102.682 239.219 98.3229 237.797C97.2864 237.464 96.2135 237.24 94.5937 236.818C96.6562 234.88 98.2708 233.234 100.036 231.781C100.755 231.188 101.786 230.823 102.724 230.688C104.281 230.453 105.891 230.318 107.453 230.453C110.833 230.745 114.156 230.661 117.479 229.896C118.422 229.677 119.479 229.911 120.479 229.984C121.359 230.047 122.234 230.219 123.12 230.24C125.818 230.302 128.521 230.313 131.219 230.354C135.339 230.411 139.458 231.036 143.568 229.839C145.229 229.354 147.109 229.589 148.937 231.708ZM12.25 288.953C12.3958 288.849 12.5364 288.745 12.6823 288.641C15.2552 291.469 17.8802 294.255 20.401 297.125C23.7604 300.958 27.6354 304.255 31.802 307.083C34.9427 309.214 38.6823 310.432 42.0104 312.313C44.7083 313.839 47.4531 315.458 49.7083 317.542C52.5833 320.198 55.0156 323.339 57.5937 326.313C60.1979 329.328 63.9479 330.286 67.3958 331.729C68.625 332.245 69.7968 332.583 70.875 333.516C74.1458 336.359 77.5937 339 80.9635 341.719C79.6302 342.411 78.5156 342.646 77.4583 342.49C74.901 342.12 72.3698 341.578 69.8281 341.094C62.0937 339.62 55.1718 336.281 48.8125 331.745C43.526 327.979 38.4635 323.901 32.3541 321.422C28.8229 319.995 26.1927 317.432 24.4843 314.01C23.125 311.297 21.8541 308.542 20.5208 305.813C17.7708 300.193 15.0104 294.573 12.25 288.953ZM84.8698 342.917C84.2083 342.568 83.8645 342.479 83.6666 342.26C81.9635 340.375 80.5 338.203 78.5468 336.625C74.9062 333.667 71.0416 330.917 66.5104 329.438C63.5 328.453 60.6979 327.198 58.4739 324.896C56.5416 322.885 54.5 320.953 52.7916 318.76C48.6927 313.5 42.8073 310.906 37.1927 307.87C34.5416 306.432 31.7395 305.141 29.4062 303.281C26.375 300.859 23.6093 298.063 21.0052 295.182C20.0937 294.172 18.2552 293.479 18.5573 291.432C19.0104 291.479 19.4114 291.396 19.6406 291.557C22.3906 293.542 25.5364 294.443 28.8281 294.755C32.0052 295.057 34.9635 295.865 37.8125 297.313C40.4948 298.667 42.6041 300.375 43.7604 303.307C44.677 305.63 46.25 307.786 48.7916 308.443C51.4895 309.135 54.3698 309.823 57.0729 309.563C60.5625 309.229 63.276 310.375 65.8958 312.25C68.1823 313.891 70.4114 315.615 72.6302 317.354C73.5989 318.115 74.7343 318.844 75.3489 319.859C77.9635 324.167 81.1041 328.214 82.25 333.307C82.9531 336.427 83.9218 339.484 84.8698 342.917ZM104.635 164.385C104.49 164.615 104.339 164.839 104.187 165.068C103.885 165.036 103.562 165.063 103.281 164.964C100.109 163.813 97.0104 162.37 93.7552 161.557C90.2448 160.682 86.8229 159.964 84 157.411C82.927 156.443 80.9323 156.469 79.901 155.479C77.6041 153.276 74.6875 152.958 71.901 152.276C68.4895 151.438 65.0052 150.891 61.5573 150.198C57.4948 149.38 53.7864 147.708 50.052 145.927C47.4166 144.677 44.25 143.5 41.4791 143.792C37.5625 144.208 33.9739 142.49 30.1666 142.969C29.776 143.021 29.276 142.411 28.8698 142.063C25.9948 139.604 25.4739 135.932 23.7604 132.661C24.4791 132.526 24.9583 132.271 25.3073 132.396C27.625 133.208 29.9323 134.063 32.2083 134.984C37.3229 137.073 42.5677 137.755 48.0729 137.068C50.7552 136.729 53.5573 136.563 56.2031 136.979C60.9531 137.729 65.6718 138.818 70.3125 140.083C72.776 140.755 75.1979 141.859 77.3854 143.182C80.1718 144.875 82.7291 146.948 85.3333 148.927C89.776 152.286 94.2031 155.661 98.5729 159.115C100.672 160.771 102.62 162.62 104.635 164.385ZM321.318 135.865C322.26 133.318 323.354 130.724 324.177 128.047C326.469 120.615 330.792 114.536 336.427 109.318C339.724 106.266 343.943 105.281 348.146 104.286C352.755 103.203 357.234 101.87 360.755 98.3802C362.172 96.9792 363.828 95.8125 365.448 94.625C371.786 89.974 379.286 88.6771 387.521 86.8698C385.927 88.6354 384.995 89.9115 383.823 90.9063C381.88 92.5521 380.698 94.5938 379.427 96.7813C377.531 100.036 374.891 102.984 370.937 104.083C369.312 104.531 367.464 104.453 366.031 105.219C361.177 107.807 355.687 108.781 351.021 112.12C347.391 114.719 344.365 117.703 341.531 120.958C338.417 124.542 335.37 128.146 331.198 130.536C328.005 132.365 324.724 134.031 321.318 135.865ZM222.094 140.729C226.151 144.375 229.964 148.109 234.609 150.854C237.828 152.766 240.995 154.802 241.443 159.089C241.495 159.594 242.016 160.042 242.297 160.531C243.807 163.151 245.516 165.682 246.766 168.422C248.484 172.188 249.906 176.099 251.333 179.995C251.786 181.224 252.042 182.594 252.047 183.901C252.057 188.156 251.74 192.427 251.885 196.682C251.964 198.995 252.344 201.448 253.25 203.557C254.531 206.536 256.432 209.25 258.036 212.094C258.307 212.573 258.417 213.141 258.609 213.667C254.172 208.719 250.391 203.469 248.396 197.104C247.161 193.141 245.724 189.245 244.339 185.328C244.156 184.813 243.76 184.349 243.385 183.932C240.516 180.766 237.62 177.63 234.755 174.464C232.589 172.073 230.026 169.901 228.432 167.172C226.214 163.375 224.812 159.25 224.599 154.604C224.385 150.026 223.005 145.5 222.094 140.729ZM105.505 167.438C105.385 167.76 105.276 168.089 105.161 168.411C101.51 169.109 97.8698 169.839 94.2083 170.484C92.8802 170.719 91.4531 171.068 90.177 170.818C87.1093 170.219 84.1093 169.26 81.0677 168.516C79.4427 168.12 77.7916 167.672 76.1354 167.594C69.1302 167.255 62.9791 164.984 57.8385 160.109C54.6823 157.115 51.2395 154.984 46.526 155.37C44.3073 155.552 41.7864 155.333 39.9114 153.766C37.1614 151.453 34.5468 148.974 31.9427 146.484C31.4739 146.036 31.3489 145.224 30.9166 144.234C32.0573 144.484 32.7395 144.563 33.3698 144.786C36.2604 145.828 39.1614 146.255 42.2864 145.964C44.0937 145.797 46.052 146.458 47.8385 147.063C50.1666 147.844 52.3698 148.984 54.6562 149.891C59.7291 151.906 65.0312 152.943 70.4323 153.563C75.0208 154.089 78.7812 156.521 82.6927 158.667C85.526 160.224 88.3906 162.104 91.4687 162.724C95.9635 163.63 99.8854 165.896 104.219 167.073C104.646 167.193 105.073 167.318 105.505 167.438ZM316.266 132.51C316.083 132.604 315.896 132.693 315.714 132.781C313.224 130.719 310.224 129.026 308.38 126.495C306.417 123.797 304.359 121.146 302.458 118.401C300.927 116.182 299.771 113.771 299.562 110.938C299.354 108.052 298.979 105.141 298.297 102.339C297.641 99.625 296.484 97.0365 295.578 94.3802C294.849 92.25 294.198 90.0885 293.437 87.9688C292.724 85.9844 291.427 84.2188 292.479 81.8333C292.922 80.8333 292.359 79.401 292.302 78.1667C292.266 77.3906 292.109 76.5417 292.354 75.849C293.516 72.6042 293.458 68.9635 295.734 66.0469C296.536 65.0104 296.698 63.4792 297.318 61.7083C299.745 65.849 303.01 69.1823 303.37 73.901C303.589 76.8125 303.594 79.8073 303.167 82.6875C302.13 89.7188 304.187 95.9844 307.286 102.099C308.661 104.807 310.359 107.464 311.125 110.354C313.073 117.677 314.583 125.12 316.266 132.51ZM309 156.453C308.266 155.859 307.224 155.417 306.859 154.646C305.062 150.844 301.776 148.37 298.995 145.443C295.948 142.24 293.115 138.849 291.651 134.615C290.104 130.146 288.828 125.578 287.458 121.047C286.76 118.724 286.323 116.307 285.01 114.214C281.984 109.375 277.948 105.865 272.297 104.37C269.245 103.568 266.281 102.422 263.229 101.646C259.062 100.594 254.979 99.4844 251.745 96.3958C251.297 95.9688 250.437 96.0104 249.854 95.6927C249.172 95.3177 248.578 94.776 247.943 94.3073C248.047 94.099 248.146 93.8854 248.245 93.6771C249.323 93.849 250.396 94.0833 251.479 94.1823C254.51 94.4531 257.604 95.1302 260.568 94.7656C263.495 94.401 266.318 94.1563 269.271 94.3542C274.193 94.6875 278.646 95.7969 282.339 99.3646C286.516 103.406 290.755 107.438 292.661 113.057C294.177 117.5 295.099 122.146 296.24 126.708C297.391 131.318 298.37 135.974 301.771 139.63C302.99 140.943 303.932 142.5 305.115 143.844C308.208 147.375 307.839 152.047 309 156.453ZM116.391 334.417C119.422 335.052 122.057 335.521 124.646 336.172C127.458 336.885 130.281 337.641 133.005 338.625C135.224 339.422 137.24 340.766 139.464 341.542C142.609 342.641 145.411 344.25 147.943 346.365C153.021 350.609 158.474 353.844 165.214 355.031C170.068 355.885 174.656 357.995 178.208 361.771C178.922 362.531 179.948 362.995 180.745 363.698C182.109 364.911 183.661 366.042 183.964 368.667C180.651 367.901 177.286 367.927 174.901 366.411C169.766 363.156 164.38 362.38 158.51 362.26C155.089 362.188 151.568 361.203 148.724 358.896C146.109 356.776 143.573 354.552 140.953 352.432C136.859 349.125 132.594 346.146 127.51 344.411C124.76 343.474 122.073 342.167 119.646 340.583C117.839 339.406 116.12 337.724 116.391 334.417ZM157.219 147.365C153.115 146.271 149.786 144.938 146.687 143.068C145.958 142.635 145.443 141.781 144.958 141.031C141.969 136.427 140.76 131.12 139.516 125.917C138.635 122.26 138.151 118.375 138.854 114.583C139.177 112.844 138.609 111.719 137.406 110.75C135.417 109.156 134.12 107.198 133.667 104.651C133.526 103.875 132.714 103.151 132.745 102.432C132.943 97.9219 133.37 93.4271 133.573 88.9219C133.698 86.0052 133.573 83.0729 133.562 79.3385C134.354 80.7292 134.828 81.3646 135.099 82.0729C137.385 88.2135 140.245 94.0677 143.677 99.6615C146.708 104.594 147.312 110.104 147.38 115.828C147.453 122.417 148.51 128.964 151.005 135.099C152.625 139.089 154.885 142.818 157.219 147.365ZM159.026 146.667C158.411 146.115 158 145.896 157.823 145.557C156.375 142.75 155.104 139.849 153.516 137.125C152.062 134.62 151.505 131.927 150.922 129.151C149.63 123.005 148.896 116.823 148.859 110.536C148.849 108.682 148.875 106.62 148.104 105.021C146.479 101.63 144.859 98.2135 142.693 95.0729C141.198 92.9115 140.042 90.4323 139.151 87.9479C137.859 84.3438 136.083 81.0104 134.245 77.6927C133.917 77.099 133.667 76.4635 133.047 75.1354C137.24 77.6198 140.734 79.6458 144.156 81.7865C144.75 82.1563 145.193 82.9896 145.401 83.6979C147.302 90.1667 151.542 95.1979 155.667 100.255C157.578 102.599 158.49 104.984 158.328 108C158.026 113.495 157.208 118.984 157.911 124.51C158.052 125.625 158.01 126.766 158.01 127.891C158.036 133.49 157.026 139.151 158.99 144.646C159.156 145.12 159.021 145.703 159.026 146.667ZM55.8333 243.188C55.5729 243.016 55.3177 242.844 55.0573 242.672C55.9791 239.87 56.7395 236.995 57.8802 234.286C58.7343 232.25 60.2031 230.536 62.1927 229.375C65.7343 227.313 69.2968 225.281 72.7708 223.104C74.0625 222.297 75.1979 221.193 76.2656 220.089C78.2135 218.094 79.8593 215.797 82.4583 214.521C83.1458 214.182 83.8645 213.714 84.2916 213.104C87.776 208.135 92.4687 204.88 98.177 202.969C99.4635 202.536 100.682 201.896 101.969 201.469C103.51 200.964 105.094 200.573 107.042 200.031C103.339 206.635 98.5364 211.151 92.1823 214.125C89.8593 215.214 87.9114 217.047 86.6927 219.458C85.1718 222.443 83.6718 225.443 82.0989 228.401C81.4218 229.682 80.7239 231 79.7916 232.089C75.9479 236.568 70.9687 238.682 65.1093 238.635C62.3281 238.615 60.125 239.745 58.1041 241.5C57.3958 242.115 56.5937 242.625 55.8333 243.188ZM367.208 149.854C367.589 150.714 368.276 151.505 368.161 152.151C367.88 153.667 367.417 155.234 366.656 156.568C364.776 159.901 362.568 163.042 360.719 166.391C358.818 169.833 357.182 173.422 355.458 176.964C355.167 177.557 355.193 178.448 354.755 178.813C351.25 181.755 348.333 185.677 343.719 186.891C340.385 187.766 337.526 189.453 334.479 190.849C329.656 193.052 324.677 194.542 319.031 193.604C319.495 192.703 319.682 191.807 320.229 191.365C322.484 189.547 323.755 186.844 326.594 185.432C329.437 184.021 331.641 181.375 334.339 179.604C338.521 176.865 343.839 175.958 347.083 171.667C347.26 171.432 347.953 171.656 348.339 171.495C348.948 171.24 349.651 170.964 350.052 170.484C351.849 168.292 353.667 166.104 355.26 163.766C357.203 160.932 358.135 157.453 361.135 155.276C363.12 153.839 364.818 152.016 367.208 149.854ZM91.5989 236.979C91.5 236.854 91.4062 236.729 91.3073 236.604C92.5833 234.609 93.6927 232.479 95.1823 230.661C96.6614 228.865 98.3385 227.078 100.286 225.854C101.797 224.906 102.932 223.938 103.729 222.37C104.635 220.583 106.021 219.396 108.161 219.099C113.25 218.385 118.323 218.74 123.266 219.771C128.557 220.875 133.693 221.385 138.927 219.641C140.177 219.224 141.599 219.313 142.943 219.177C148.193 218.656 152.984 220.505 157.693 222.349C160.24 223.349 162.505 225.057 164.901 226.448C163.786 227.052 162.906 227.172 162.057 227.063C159.818 226.786 157.589 226.411 155.359 226.073C153.125 225.74 150.911 225.734 148.661 226.089C145.354 226.609 142.021 226.969 138.703 227.422C138.276 227.479 137.807 227.62 137.469 227.87C135.391 229.406 133.323 230.083 130.964 228.354C130.516 228.031 129.641 228.089 129.021 228.229C125.547 229.031 122.156 228.677 118.76 227.771C118.047 227.578 117.052 227.464 116.495 227.813C113.349 229.755 109.974 228.922 106.62 228.99C102.932 229.063 99.0104 228.641 96.5156 232.708C95.427 234.474 93.2708 235.578 91.5989 236.979ZM319.698 147.76C319.479 144.453 319.292 141.682 321.271 139.505C322.693 137.938 324.354 136.505 326.125 135.349C328.276 133.938 330.859 133.151 332.891 131.615C335.38 129.724 337.51 127.359 339.76 125.156C342.422 122.547 345 119.854 347.698 117.286C349.38 115.682 351.156 114.167 353 112.755C356.37 110.177 360.667 109.667 364.391 107.828C366.177 106.948 368.25 106.609 370.208 106.104C372.625 105.484 375.047 104.99 376.625 102.708C377.125 101.979 378.052 101.547 379.224 100.635C378.661 104.891 376.464 107.661 374.693 110.583C373.474 112.594 371.484 113.677 369.115 113.917C364.375 114.396 360.734 117.219 357.339 120.057C354.609 122.344 352.589 125.5 350.344 128.333C348.76 130.323 346.984 131.995 344.547 132.844C341.594 133.875 338.656 134.99 335.656 135.875C329.125 137.802 323.927 141.5 319.698 147.76ZM106.646 197.583C106.698 197.792 106.75 198 106.802 198.203C104.708 198.917 102.542 199.479 100.526 200.375C96.0468 202.37 91.0416 203.286 87.552 207.328C85.9843 209.141 83.3645 209.974 82.375 212.49C82.1979 212.938 81.4791 213.156 81.0364 213.51C79.6354 214.651 78 215.604 76.9062 216.99C73.5104 221.276 68.8854 223.786 64.2968 226.458C62.0468 227.776 59.2864 228.573 58.0885 231.385C57.2604 233.339 56.1302 235.151 55.1354 237.026C55.0104 233.365 55.0833 229.88 57.1562 226.646C59.1614 223.51 60.8073 220.12 62.4218 216.755C63.552 214.406 65.2656 212.688 67.4323 211.448C69.4791 210.281 71.7135 209.443 73.8385 208.396C76.1458 207.26 78.4687 206.12 80.7083 204.849C84.0364 202.964 87 200.583 90.7343 199.25C95.2187 197.646 99.9062 198.151 104.406 197.073C105.073 196.911 105.896 197.396 106.646 197.583ZM37.052 360.557C37.6979 360.385 38.1093 360.198 38.526 360.182C42.75 359.995 46.9635 361.135 51.2031 360.229C51.7239 360.115 52.3281 360.432 52.8854 360.417C56.2031 360.318 59.5208 360.229 62.8385 360.031C65.8645 359.849 68.9635 358.969 71.8906 359.391C78.4218 360.344 84.8958 361.792 91.3281 363.313C93.401 363.802 95.3385 365.036 97.0364 366.818C95.8906 367.177 95.0208 367.406 94.1823 367.714C87.8854 370.005 81.4583 370.547 74.875 369.245C70.4687 368.375 66.0989 367.776 61.5677 368.745C57.2031 369.677 53.3437 368.328 50.0208 365.271C48.8958 364.24 47.4479 363.401 46 362.922C43.1562 361.99 40.2135 361.37 37.052 360.557ZM78.1927 170.651C78.1354 170.802 78.0833 170.958 78.0312 171.115C75.9531 171.51 73.8906 172.13 71.7968 172.245C69.4687 172.375 67.0989 172.151 64.7656 171.88C62.7656 171.646 60.7187 171.349 58.8229 170.688C55.9687 169.693 53.2031 168.417 50.4479 167.156C45.8541 165.047 41.2552 162.943 36.7343 160.677C32.5104 158.563 29.0833 155.688 27.4895 150.927C26.3958 147.682 24.9791 144.516 23.401 141.469C22.3333 139.406 20.8125 137.552 19.3489 135.719C18.302 134.411 16.8698 133.406 15.8854 132.068C14.9062 130.74 12.8958 130.63 12.5208 128.448C12.2604 126.927 10.6927 125.656 9.776 124.229C9.44267 123.708 9.30725 123.063 8.77079 121.672C11.0416 123.344 12.7239 124.438 14.2343 125.729C17.2552 128.318 19.9218 131.219 21.4323 134.99C21.8125 135.927 21.8854 137.042 22.4375 137.839C26.4479 143.615 29.4062 150.302 36.0573 153.823C38.052 157.932 41.9739 157.026 45.401 157.448C46.6354 157.594 47.8802 157.818 49.0573 158.188C51.1041 158.828 52.9479 159.677 54.5416 161.349C58.8854 165.911 64.276 168.573 70.6145 169.297C73.1614 169.589 75.6666 170.188 78.1927 170.651ZM322.323 186.13C322.812 184.276 322.948 183.161 323.396 182.193C324.625 179.552 325.812 176.865 327.349 174.406C328.526 172.516 330.255 170.979 331.656 169.219C333.901 166.396 336.724 164.323 340.083 163.151C342.703 162.24 345.354 161.276 347.953 160.5C352.203 159.234 354.562 155.964 357.479 153.365C359.76 151.333 361.635 148.969 364.979 148.286C364.292 150.682 362.385 151.948 360.833 153.526C359.276 155.115 357.708 156.745 356.443 158.563C354.453 161.422 352.698 164.448 350.865 167.411C349.375 169.823 346.745 170.724 344.542 172.177C341.859 173.943 339.302 176.271 336.333 177.151C332.958 178.161 330.74 180.411 328.115 182.292C326.427 183.505 324.656 184.594 322.323 186.13ZM281.094 4.8125C282.104 6.30208 283.099 7.79688 284.125 9.27604C286.896 13.2604 289.474 17.3542 290.958 22.0052C291.87 24.8594 293.167 27.3854 295.328 29.5313C296.583 30.776 298.026 32.2656 298.411 33.8802C299.656 39.1302 299.229 44.4219 297.552 49.5781C297.437 49.9375 297.068 50.2135 296.833 50.5052C292.792 47.6719 290.583 43.9323 289.964 39.2656C289.333 34.5 287.422 30.2292 284.948 26.1823C284.25 25.0365 283.615 23.8281 282.76 22.8073C278.146 17.2813 279.844 11.0781 281.094 4.8125ZM34.0468 362.557C34.1093 362.313 34.177 362.063 34.2395 361.818C36.4687 362.464 38.6614 363.328 40.9375 363.703C44.1562 364.24 46.9791 365.214 49.5677 367.391C51 368.589 52.4791 370.297 54.7395 370.26C57.2864 370.224 59.8333 370.099 62.3802 370.172C65.8645 370.271 69.3958 370.214 72.8177 370.781C79.25 371.839 85.5312 371.958 91.7239 369.625C92.5364 369.323 93.4479 369.276 94.9062 369C92.8281 370.625 91.2916 372.042 89.5468 373.135C86.9739 374.75 84.375 376.443 81.5625 377.531C78.2187 378.823 74.8906 380.38 70.9531 379.385C66.802 378.339 62.4583 378.109 58.2812 377.167C55.4323 376.521 52.875 375.068 50.8437 372.776C49.5312 371.297 47.5468 370.307 46.5625 368.677C45.2031 366.422 43.2812 366.234 41.1354 366.063C40.8281 366.036 40.5468 365.745 40.2448 365.599C38.177 364.583 36.1145 363.568 34.0468 362.557ZM48.8229 405.443C49.5677 403.927 50.7968 403.948 51.8645 403.932C53.7708 403.901 55.6823 404.12 57.5885 404.109C58.6458 404.104 59.7656 404.031 60.75 403.682C63.3958 402.74 65.9895 401.641 68.6041 400.609C69.2291 400.359 69.9323 400.234 70.4843 399.875C74.7448 397.135 79.2708 395.031 84.302 394.203C87.5312 393.672 90.7812 392.958 94.026 392.932C101.708 392.87 109.401 393.188 117.193 391.068C116.536 391.833 116.078 392.438 115.542 392.953C115.141 393.344 114.625 393.615 114.161 393.938C108.958 397.547 102.891 398.448 96.8645 399.385C94.3333 399.781 91.7239 399.979 89.1666 399.87C84.5312 399.672 80.0312 399.885 75.5677 401.432C73.4323 402.172 71.5104 403.229 69.4843 404.146C62.8541 407.156 55.9166 406.474 48.8229 405.443ZM122.802 385.24C122.932 385.568 123.057 385.901 123.187 386.234C121.224 387.266 119.276 388.318 117.302 389.328C113.042 391.516 108.339 391.099 103.818 391.359C99.4375 391.615 95.0833 390.698 90.6145 391.74C86.2552 392.76 81.7291 392.781 77.5729 394.943C73.6823 396.974 69.401 398.24 65.5 400.24C61.3073 402.391 56.9739 402.693 52.4323 402.359C53.2708 401.807 54.1718 401.479 55.0625 401.125C56.1875 400.677 57.375 400.344 58.4114 399.734C62.2864 397.458 66.026 394.927 69.9843 392.807C73.526 390.906 77.3437 389.927 81.3854 389.167C86.25 388.245 91.0833 388.458 95.8906 388.193C101.141 387.906 106.406 388.464 111.177 385.589C111.359 385.484 111.594 385.411 111.802 385.406C115.469 385.344 119.135 385.292 122.802 385.24ZM270.505 251.87C271.26 243.599 268.427 236.052 266.484 228.042C272.406 229.542 277.187 232.391 282.161 235.609C281.516 237.016 281.172 238.521 280.281 239.568C277.609 242.724 274.714 245.682 272.667 249.339C272.135 250.292 271.234 251.036 270.505 251.87ZM233.505 384.292C228.833 383.193 224.062 382.729 219.427 381.292C214.901 379.885 210.047 379.417 206.073 376.12C211.839 375.844 217.198 377.026 222.646 378C227.068 378.792 230.87 380 233.62 383.656C233.656 383.703 233.594 383.823 233.505 384.292ZM241.615 385.214C249.177 383.422 264.068 382.115 274.219 386.495C273.635 386.797 273.151 387.24 272.651 387.271C269.859 387.453 267.057 387.703 264.271 387.604C260.682 387.479 257.099 387.12 253.531 386.734C249.547 386.302 245.583 385.724 241.615 385.214ZM55.5573 340.073C54.151 339.969 52.7343 339.734 51.3333 339.786C46.1614 339.984 42.7656 336.87 39.6041 333.469C38.4948 332.276 37.9166 330.573 38.8906 328.776C44.8437 331.891 49.1198 337.51 55.5573 340.073ZM151.604 196.438C151.708 196.151 151.812 195.859 151.917 195.563C153.583 195.745 155.323 195.688 156.911 196.156C159.495 196.911 161.943 198.099 164.5 198.948C167.271 199.875 170.078 200.698 172.906 201.417C174.974 201.943 175.99 203.255 176.849 205.917C172.964 204.135 169.755 202.573 166.474 201.193C164.339 200.292 162.109 199.604 159.896 198.901C157.146 198.036 154.37 197.26 151.604 196.438ZM333.542 419.74C337.99 424.813 342.432 429.396 346.297 434.422C350.156 439.438 355.469 443.391 357.672 449.656C349.552 440.339 341.693 430.823 333.854 421.276C333.625 420.995 333.682 420.474 333.542 419.74ZM268.99 268.083C268.849 275.125 264.594 279.969 262.214 285.531C263.307 279.474 263.974 273.25 268.99 268.083ZM164.88 186.792C164.208 188.724 163.193 188.13 162.083 187.698C158.458 186.297 154.818 184.938 151.156 183.646C149.37 183.01 147.521 182.573 145.698 182.047C145.792 181.74 145.88 181.427 145.974 181.12C152.432 182.13 158.74 183.672 164.88 186.792ZM124.276 142.089C127.745 147.964 133.307 151.385 136.365 156.979C132.474 153.635 128.109 150.87 124.964 146.688C124.005 145.422 123.542 144.286 124.276 142.089ZM61.3593 342.266C68.9427 343.714 76.5312 345.156 84.1198 346.604C84.0729 346.849 84.0208 347.094 83.9687 347.339C76.2916 346.302 68.4895 345.911 61.3593 342.266ZM179.969 205.99C185.562 207.927 187.51 213.286 191.167 217.172C190.401 217.177 189.719 216.995 189.318 216.557C187.812 214.932 186.422 213.208 184.953 211.542C183.307 209.677 181.63 207.839 179.969 205.99ZM260.177 298.609C262.984 300.26 264.562 302.969 265.135 307.109C262.443 305.958 260.385 302.432 260.177 298.609ZM274.474 253.766C274.089 253.083 273.63 252.583 273.734 252.391C274.729 250.573 275.76 248.771 276.906 247.036C277.318 246.422 278.052 246.026 278.641 245.531C278.797 245.677 278.953 245.823 279.115 245.974C277.661 248.406 276.214 250.839 274.474 253.766ZM291.776 214.135C289.87 218.802 289.87 218.802 288.234 218.521C289.484 216.974 290.63 215.552 291.776 214.135ZM281 331.5C280.802 331.625 280.609 331.745 280.417 331.865C279.531 330.432 278.646 328.995 277.427 327.01C280.214 328.01 280.281 329.964 281 331.5ZM152.521 364.547C149.823 365.141 149.823 365.141 148.13 363.802C150.75 362.88 150.75 362.88 152.521 364.547ZM168.24 366.042C168.187 366.328 168.135 366.615 168.083 366.906C166.76 366.552 165.432 366.203 164.115 365.849C164.172 365.62 164.234 365.385 164.297 365.156C165.609 365.453 166.927 365.745 168.24 366.042ZM290.146 354.255C289.906 354.333 289.667 354.406 289.432 354.484C288.917 353.245 288.406 352.005 287.896 350.771C288.089 350.693 288.281 350.62 288.474 350.542C289.031 351.781 289.589 353.021 290.146 354.255ZM287.187 348.693C286.917 348.786 286.651 348.885 286.385 348.979C286.13 348.141 285.875 347.302 285.62 346.464C285.729 346.427 285.833 346.391 285.943 346.354C286.359 347.135 286.771 347.917 287.187 348.693ZM195.932 234.135C195.969 233.927 196 233.724 196.031 233.516C196.823 233.661 197.609 233.797 198.391 233.974C198.448 233.984 198.432 234.292 198.474 234.682C197.578 234.49 196.755 234.313 195.932 234.135ZM157.766 365.26C157.823 364.964 157.885 364.667 157.948 364.37C158.719 364.542 159.49 364.708 160.26 364.88C160.224 365.089 160.187 365.302 160.151 365.51C159.354 365.427 158.557 365.344 157.766 365.26ZM361.026 453.401C361.229 453.271 361.437 453.141 361.646 453.01C362.167 453.781 362.687 454.552 363.208 455.323C363.042 455.432 362.87 455.547 362.698 455.656C362.141 454.906 361.583 454.156 361.026 453.401ZM282.401 241.333C282.542 241.469 282.682 241.604 282.823 241.74C282.234 242.458 281.651 243.177 281.062 243.896C280.896 243.745 280.734 243.599 280.578 243.453C281.182 242.745 281.792 242.036 282.401 241.333ZM221.542 247.078C221.328 247.245 221.115 247.411 220.906 247.578C220.406 246.88 219.911 246.182 219.411 245.479C219.562 245.37 219.714 245.26 219.865 245.146C220.422 245.792 220.984 246.432 221.542 247.078Z" fill="#3D3D3D"/>
</svg>
