<svg width="225" height="178" viewBox="0 0 225 178" fill="none" xmlns="http://www.w3.org/2000/svg">
<path d="M207.255 0.453135C199.063 18.0052 190.266 35.4323 178.964 51.3333C167.526 67.1979 153.411 80.7031 139.323 94.0417C132.193 100.604 125.307 107.536 116.99 112.932C108.661 118.323 99.3281 121.745 90.0313 124.594C71.4323 130.422 52.3333 134.646 33.0417 137.12L33 136.875C52.0208 132.875 70.7865 127.995 89.2552 122.135C98.4375 119.156 107.599 115.984 115.724 110.948C123.802 105.875 130.958 99.224 138.401 93.0156C145.75 86.6979 152.948 80.1823 159.5 73.0469C166.115 65.9531 171.911 58.1875 177.26 50.1511C188.135 34.2031 197.328 17.1458 207.026 0.333344L207.255 0.453135Z" fill="#373434"/>
<path d="M47.599 127.135C49.5261 128.688 51.3906 130.745 51.6459 133.453C51.7865 136.208 50.0573 138.578 48.4219 140.495C46.7031 142.432 44.7969 144.12 42.8906 145.755C40.9323 147.448 38.7552 148.917 36.3854 150.089C34 151.214 31.3542 152.005 28.6042 152.047C25.849 152.104 23.2292 151.37 20.8177 150.516C16.0209 148.766 11.4375 146.568 7.08335 143.974C5.99481 143.339 4.90627 142.682 3.84377 142.01L2.25523 140.974C1.74481 140.609 1.14585 140.417 0.630227 139.714C0.119811 138.958 0.442727 138 0.854185 137.479C1.26564 136.917 1.81773 136.484 2.33335 136.13C3.3646 135.406 4.3646 134.646 5.4271 133.953C9.57294 131.083 13.8906 128.385 18.5313 126.276C23.1615 124.25 28.1146 122.568 33.3334 122.458C35.9115 122.385 38.5209 122.714 40.9636 123.484C43.3906 124.297 45.6511 125.521 47.599 127.135ZM47.4375 127.328C45.5052 125.766 43.2188 124.609 40.7969 124.125C38.3646 123.667 35.8854 123.646 33.4688 124.026C28.6459 124.786 23.9844 126.5 19.3229 128.193C14.6927 129.922 10.0834 131.938 5.87502 134.625C4.82814 135.302 3.78648 135.995 2.79689 136.75C1.84377 137.396 0.854185 138.516 1.3646 139.224C1.58856 139.552 2.21877 139.859 2.74481 140.182L4.38544 141.073C5.49481 141.656 6.60419 142.224 7.72919 142.76C12.2448 144.896 16.8802 146.734 21.5729 148.281C23.9063 149.031 26.2396 149.557 28.5261 149.443C30.8229 149.318 33.099 148.682 35.2344 147.672C37.4063 146.703 39.4271 145.344 41.3646 143.88C43.349 142.339 45.4011 140.911 47.2448 139.328C49.0365 137.745 50.7761 135.849 50.9427 133.464C51.0417 131.057 49.3229 128.875 47.4375 127.328Z" fill="#373434"/>
<path d="M68.2344 138.031C65.4792 140.203 62.5781 142.156 59.7031 144.12C58.2709 145.068 56.9167 146.068 55.8438 147.234C54.7761 148.365 54.1302 149.792 53.5209 151.359C52.9219 152.932 52.3646 154.635 51.4636 156.26C50.5573 157.87 49.4323 159.271 48.3125 160.609C46.0729 163.219 43.8073 166.104 43.75 169.5L42.9636 169.177L47.1875 164.151C48.6146 162.469 50.2813 160.844 52.3073 159.672C54.2552 158.479 56.3281 157.698 58.099 156.651C59.9063 155.615 61.2813 154.359 62.2136 152.651C63.1354 150.938 63.7813 148.885 64.5156 146.813L66.7813 140.677C67.5156 138.635 68.3542 136.609 69.1563 134.589C69.5573 133.563 69.9896 132.62 70.0677 131.646C70.1094 131.167 70 130.625 69.9636 130.057C69.9115 129.51 69.9792 128.797 70.4636 128.385L70.6459 128.552C70.0886 129.432 70.8177 130.422 70.9323 131.615C71.0677 132.839 70.7084 133.974 70.4427 135.01C69.8959 137.12 69.3646 139.24 68.7448 141.323L66.9323 147.604C66.2604 149.656 65.7448 151.839 64.5573 153.948C63.4271 156.13 61.3229 157.792 59.2969 158.813C57.2448 159.865 55.1979 160.609 53.3438 161.542C49.7084 163.385 46.7136 166.724 43.6354 169.781L42.7604 170.656L42.849 169.458C43.1146 165.703 45.5469 162.823 47.3802 159.927C48.3229 158.469 49.224 157 49.8438 155.484C50.4427 153.958 50.8229 152.297 51.4219 150.594C52.0104 148.917 52.8906 147.115 54.2761 145.745C55.6094 144.365 57.2084 143.427 58.7396 142.557C61.8281 140.906 64.9011 139.26 68.1094 137.813L68.2344 138.031Z" fill="#373434"/>
<path d="M79.0156 95C78.4271 89.7864 77.8177 84.5469 76.099 79.6927C75.25 77.2812 74.0729 75.0104 72.6406 72.9479C71.1667 70.901 69.3646 69.1042 67.3229 67.6094C63.224 64.6146 58.474 62.5417 53.474 61.2135C48.4792 59.8229 43.2708 59.0521 38.0521 58.3854L38.5521 57.7292C41.8854 66.6406 46.8229 74.9323 52.7292 82.3542C54.1875 84.2135 55.7604 85.9948 57.3177 87.7864C58.8958 89.5521 60.4792 91.3021 62.25 92.7031C64.0156 94.1302 65.9583 95.0781 68.1094 95.2344C70.2656 95.4479 72.5417 94.9323 75.0625 94.7344C76.3177 94.6406 77.651 94.651 78.9844 94.9114C80.3229 95.1927 81.4479 95.6094 82.6146 96.0677C84.9219 96.9948 87.0885 98.0885 89.1979 99.1458C91.3281 100.193 93.4375 101.161 95.6146 101.776C97.8333 102.391 100.156 102.911 102.469 103.271C111.75 104.682 121.411 104.083 130.505 101.115L130.594 101.349C121.823 105.286 111.839 106.63 102.167 105.474C99.7344 105.193 97.3594 104.781 94.9479 104.203C92.5052 103.557 90.2396 102.552 88.0521 101.521C85.8646 100.505 83.7656 99.401 81.625 98.5469C80.5781 98.1198 79.4479 97.7396 78.4375 97.5052C77.4271 97.276 76.349 97.2396 75.2188 97.2969C72.974 97.4062 70.5 97.9219 67.8698 97.6302C65.2135 97.3854 62.7031 96.0677 60.8281 94.4219C58.9063 92.7708 57.3542 90.8958 55.8281 89.0417C54.2969 87.1771 52.8646 85.2396 51.4792 83.276C45.9479 75.3906 41.4427 66.8958 37.651 58.0937L37.3438 57.3698L38.151 57.4375C43.3958 57.875 48.6927 58.2083 53.9323 59.3437C59.1406 60.5 64.3542 62.4948 68.6406 65.8958C72.974 69.2031 76.2604 73.9948 77.625 79.2083C79.1406 84.3906 79.3385 89.7396 79.2708 94.9792L79.0156 95Z" fill="#373434"/>
<path d="M83.1562 98.5C80.3906 98.1979 77.7396 98.8334 75.3541 99.8907C72.9427 100.943 70.8333 102.568 68.776 104.302C66.6823 106 64.5937 107.839 62.625 109.776C60.6614 111.734 58.8385 113.818 57.1198 115.974L56.6302 115.167C59.7708 114.344 62.8802 113.438 66.0312 112.693C69.1875 111.99 72.3229 111.203 75.5052 110.599C78.6406 109.964 81.7291 109.432 84.5312 108.172C87.276 106.911 89.8437 104.974 91.25 102.063L91.4844 102.13C90.9166 105.443 88.3958 108.25 85.4791 109.974C82.5156 111.724 79.2031 112.594 76.026 113.219C72.8541 113.865 69.6458 114.323 66.4583 114.87C63.2708 115.38 60.0364 115.724 56.8229 116.156L55.3177 116.359L56.3333 115.328C58.3073 113.354 60.1719 111.302 61.8906 109.109C63.5781 106.88 65.2344 104.625 67.3125 102.646C69.3906 100.714 71.8854 99.0677 74.6823 98.1407C77.4427 97.2188 80.5833 97.1146 83.2135 98.2552L83.1562 98.5Z" fill="#373434"/>
<path d="M102.88 105.406C104.177 102.401 103.646 99.2135 103.245 96.0469C102.823 92.8698 102.146 89.7604 101.437 86.6354C100.766 83.5156 99.9583 80.3594 98.6666 77.3958C97.3489 74.4375 95.5521 71.7083 93.5052 69.2135L94.7291 68.9271C94.4062 72.2604 93.526 75.4792 92.6927 78.6094C91.8646 81.7292 91.1979 84.8281 91.1406 87.8802C91.0729 90.9115 91.7291 93.974 93.1041 96.7604C94.4583 99.5677 96.4687 102.099 99.026 104.135L98.8958 104.349C95.8489 102.99 93.2396 100.615 91.3958 97.7188C89.5781 94.8229 88.4531 91.3698 88.4635 87.8698C88.4635 84.3698 89.4218 81.0729 90.4218 77.9427C91.4166 74.8073 92.6041 71.8125 93.3854 68.7031L93.7864 67.0781L94.6093 68.4167C96.3593 71.2344 97.901 74.1302 99.401 77.0417C100.891 79.9687 102.401 82.9219 103.464 86.0833C104.469 89.25 105.021 92.5573 105.187 95.8698C105.333 99.0677 105.297 102.854 103.099 105.542L102.88 105.406Z" fill="#373434"/>
<path d="M56.3542 70.9896C59.1302 72.0208 61.349 74.1146 62.8959 76.4791C63.6459 77.7083 64.1146 79.0885 64.849 80.2812C65.5677 81.4948 66.4688 82.5625 67.4479 83.5781C69.4427 85.5729 71.1979 87.6458 73.099 89.526C74.9167 91.5 76.8021 93.2969 79.0625 95.0781L78.9688 95.3125C76.0261 95.0104 73.3281 93.3854 71.2084 91.4114C69.1459 89.3489 67.5104 86.9531 66.3229 84.3594C65.6927 83.0885 65.0469 81.8385 64.1719 80.7396C63.3177 79.6354 62.1927 78.7344 61.2396 77.7396C59.4063 75.6771 57.875 73.5521 56.1979 71.1875L56.3542 70.9896Z" fill="#373434"/>
<path d="M71.7864 108.38C72.9166 107.193 73.9896 106.521 75.2552 106.099C75.9166 105.943 76.7083 105.953 77.3281 105.641C77.9583 105.344 78.4062 104.797 78.8073 104.203C79.5625 102.958 80.526 101.906 81.8021 101.042C83.0937 100.302 84.9323 99.8385 86.4323 100.62L86.4427 100.87C85.1146 101.74 84.3021 102.484 83.2812 103.271C82.2239 103.958 81.0937 104.771 79.6719 105.271C78.9791 105.552 78.3177 105.844 77.7708 106.318C77.2239 106.771 76.8021 107.49 76.2083 107.958C74.9844 108.797 73.4271 109.109 71.8437 108.625L71.7864 108.38Z" fill="#373434"/>
<path d="M95.9739 81.9271C97.0573 83.8125 97.5469 85.7083 97.651 87.6823C97.651 88.6823 97.4166 89.7187 97.5156 90.7083C97.5937 91.7031 97.9375 92.6458 98.3489 93.5729C99.2344 95.401 99.8021 97.2864 100.292 99.1875C100.682 101.115 100.88 102.875 101.312 104.937L101.104 105.073C99.2604 103.854 98.2916 101.74 97.7031 99.8385C97.2083 97.8854 96.9062 95.901 96.9948 93.8437C97.0156 92.8177 96.9791 91.8125 96.7135 90.8541C96.4687 89.8854 95.8958 88.9635 95.5937 88.0052C95.0937 86.0521 95.0833 84.0208 95.7291 81.9531L95.9739 81.9271Z" fill="#373434"/>
<path d="M114.74 139.75C109.885 141.24 105.13 142.948 100.547 144.995C96.0365 147.094 91.599 149.557 88.7188 153.432C87.2865 155.37 86.0677 157.547 84.6771 159.729C83.2813 161.901 81.7135 163.953 79.9948 165.859C76.6302 169.745 72.8177 173.12 69.2135 176.677L68.7917 175.927C77.224 174.026 85.6875 171.594 92.9531 167.073C96.5677 164.818 99.9115 162.156 102.552 158.906C105.245 155.729 107 151.859 109.031 147.984C111.083 144.12 113.12 140.464 114.37 136.443C115.036 134.438 115.583 132.359 116.203 130.266C116.849 128.172 117.547 126.099 118.313 124.057C121.333 115.849 125.51 108.083 130.625 101.073L130.839 101.208C126.552 108.74 123.068 116.63 120.391 124.771C119.047 128.849 118.156 132.984 116.88 137.234C115.641 141.542 113.406 145.479 111.328 149.208C109.245 152.932 107.307 156.99 104.297 160.385C101.302 163.75 97.6927 166.458 93.7865 168.51C85.9583 172.677 77.3594 174.516 69.0104 176.797L67.3906 177.234L68.5781 176.042C72.1615 172.464 75.526 168.677 78.5938 164.719C80.1042 162.724 81.5365 160.677 82.8542 158.589C84.1563 156.495 85.2917 154.177 86.9792 152.094C90.375 147.896 95.1302 145.255 99.9219 143.49C104.708 141.667 109.651 140.318 114.682 139.516L114.74 139.75Z" fill="#373434"/>
<path d="M116.495 134.99C116.026 138.068 117.677 140.75 119.646 142.88C121.656 145.031 124.109 147.182 125.943 149.766C127.818 152.328 129.229 155.182 130.427 158.078C131.615 160.984 132.682 163.896 133.594 166.891L132.724 166.87C133.661 163.182 134.391 159.438 134.505 155.786C134.526 153.969 134.422 152.161 133.969 150.448C133.526 148.729 132.781 147.083 131.958 145.464C130.24 142.224 128.109 139.193 125.719 136.26C123.333 133.333 120.88 130.443 118.224 127.693L118.38 127.5C121.625 129.589 124.552 132.141 127.255 134.901C129.958 137.63 132.526 140.698 134.333 144.229C136.224 147.719 137.115 151.974 136.667 155.927C136.271 159.906 134.833 163.536 133.594 167.135L133.078 168.651L132.724 167.115C132.036 164.13 130.969 161.219 129.417 158.568C127.906 155.896 126.031 153.479 124.167 151.115C123.229 149.922 122.276 148.755 121.276 147.625C120.255 146.51 119.193 145.333 118.203 144.063C116.255 141.589 114.891 137.943 116.26 134.911L116.495 134.99Z" fill="#373434"/>
<path d="M113.042 143.448C111.375 145.042 109.24 145.922 107.25 146.781C105.167 147.615 103.453 148.396 101.802 149.646C100.115 150.828 98.4583 152.286 97.0677 153.958C95.6719 155.641 94.4948 157.5 93.151 159.292C91.8385 161.109 90.3333 162.792 88.6458 164.266C86.9896 165.766 85.2448 167.172 83.3906 168.396C79.6406 170.813 75.6615 172.734 71.4688 174.224L71.3438 174C74.7604 171.141 78.375 168.698 81.8802 166.193C85.4583 163.781 88.875 161.224 92.1302 158.38C93.7396 156.932 95.1615 155.271 96.4167 153.469C97.6719 151.672 98.7813 149.708 100.458 148.052C102.12 146.38 104.536 145.469 106.609 144.953C108.729 144.339 110.865 144.005 112.906 143.234L113.042 143.448Z" fill="#373434"/>
<path d="M119.313 124.542C115.901 124.135 112.583 123.057 109.62 124.068C106.568 124.885 103.766 126.766 100.682 128.172C97.6406 129.656 94.5625 131.094 91.7292 132.953C88.8854 134.781 86.2448 136.917 83.6563 139.089L83.0052 137.542C85.9115 136.885 88.8333 136.318 91.7604 135.792C94.6823 135.245 97.6042 134.714 100.547 134.333C103.479 133.896 106.453 133.641 109.406 133.297C110.849 133.167 112.276 132.995 113.641 132.583C115.005 132.203 116.344 131.625 117.302 130.521L117.516 130.656C116.849 132.073 115.458 133.042 114.083 133.719C112.672 134.38 111.193 134.823 109.698 135.172C106.786 135.75 103.885 136.427 100.958 136.917C98.0365 137.453 95.0937 137.844 92.1406 138.214C89.1979 138.615 86.2448 138.979 83.2813 139.24L79.625 139.573L82.6354 137.698C85.526 135.885 88.474 134.177 91.3177 132.318C94.1823 130.49 96.8802 128.406 99.724 126.51C102.542 124.651 105.573 122.839 109.177 122.12C110.932 121.729 112.938 121.885 114.583 122.422C116.26 122.922 117.813 123.625 119.38 124.297L119.313 124.542Z" fill="#373434"/>
<path d="M118.078 128.339C115.125 128.63 112.516 129.188 109.797 129.734C108.474 129.964 106.943 130.167 105.573 130.589C104.177 131.005 102.88 131.661 101.599 132.375C99.0677 133.865 96.4063 135.016 93.6979 136.047C90.9531 136.964 88.1354 137.708 85.1354 137.979L85.0469 137.745C87.474 135.969 90.0833 134.677 92.7604 133.552C95.4635 132.542 98.2344 131.646 101.115 131.094C102.552 130.792 103.958 130.422 105.286 129.823C106.63 129.255 107.766 128.318 109.219 127.734C112.063 126.724 115.391 126.646 118.135 128.094L118.078 128.339Z" fill="#373434"/>
<path d="M187.87 74.1302C181.75 76.8125 176.708 81.0625 171.859 85.5729C166.948 90.0104 161.964 94.3958 158.531 99.8594C155.036 105.286 152.844 111.516 151.589 117.953C150.328 124.396 150.146 131.057 150.568 137.641L149.927 137.344C157.464 131.87 164.109 125.208 169.625 117.818C172.37 114.109 174.823 110.208 176.865 106.099C178.932 102.01 180.495 97.6719 181.937 93.2812C183.37 88.8958 184.74 84.3906 185.958 79.9687C187.115 75.5208 187.823 71.1198 186.958 66.6302C186.594 64.3698 186.036 62.1146 185.635 59.776C185.25 57.4375 184.99 55.0885 184.859 52.7344C184.568 48.0208 184.958 43.3073 185.771 38.6979L186.026 38.7396C185.594 43.375 185.729 48.0312 186.255 52.6146C186.724 57.2396 188.031 61.5833 189.036 66.25C190.12 70.9531 189.667 76.0573 188.422 80.5937C187.193 85.1719 185.891 89.6042 184.458 94.0989C181.552 103.036 177.229 111.745 171.193 119.026C165.24 126.401 157.964 132.484 150.396 137.99L149.802 138.432L149.76 137.687C149.401 131.057 149.37 124.391 150.193 117.724C151.026 111.099 152.969 104.437 156.656 98.6667C160.375 92.8698 165.635 88.4792 170.703 84.2396C173.276 82.1406 175.885 80.0156 178.698 78.1823C181.547 76.3906 184.583 74.8958 187.781 73.8958L187.87 74.1302Z" fill="#373434"/>
<path d="M216.281 120.437C213.266 115.781 210.63 111.042 208.167 106.167C207.01 103.703 205.948 101.161 204.615 98.776C203.302 96.3698 201.552 94.2552 200.25 91.6927C198.875 89.0833 198.693 86.1198 198.198 83.5677C197.708 80.9375 197.005 78.3646 196.141 75.8802C194.495 70.8646 191.776 66.276 187.802 62.4427L187.948 62.2396C192.953 64.8021 196.688 69.6823 198.661 74.9791C199.661 77.6406 200.203 80.4375 200.536 83.2135C200.906 86.0521 200.719 88.6927 201.526 91.1771C203.26 96.2396 207.036 100.562 210 105.172C212.828 109.896 215.073 114.979 216.516 120.328L216.281 120.437Z" fill="#373434"/>
<path d="M195.266 94.6198C193.932 91.026 193.078 87.2552 193.01 83.3437C193.052 81.3958 193.297 79.3646 194.396 77.4948C194.943 76.5781 195.839 75.6927 197.016 75.3021C198.182 74.9219 199.365 75.0781 200.385 75.3229C208.12 77.9062 214.219 83.5573 218.328 90.2396C222.469 96.9375 224.568 104.729 224.865 112.427C225.203 120.161 224.167 127.771 222.781 135.302L222.5 136.875L221.859 135.359C220.302 131.651 216.583 129.609 213.25 127.125C211.573 125.865 209.875 124.417 208.677 122.469C207.391 120.505 207.036 118.297 206.443 116.448C205.271 112.682 203.25 109.094 201.115 105.573C199.005 102.021 196.75 98.4896 195.266 94.6198ZM195.5 94.5312C196.964 98.3958 199.453 101.719 201.958 105.005C204.422 108.302 207.026 111.682 208.49 115.771C209.214 117.818 209.589 119.76 210.578 121.307C211.531 122.911 212.974 124.26 214.484 125.609C216.005 126.937 217.672 128.219 219.193 129.698C220.724 131.177 222.057 132.974 222.771 135.036L221.839 135.094C223.656 127.734 224.255 120.036 223.344 112.552C222.401 105.104 220.234 97.7969 216.151 91.6094C212.187 85.4166 206.37 80.2552 199.807 77.3854C198.187 76.8333 196.74 77.0052 195.708 78.3958C194.687 79.7344 194.187 81.5729 193.984 83.401C193.599 87.1094 194.219 90.9687 195.5 94.5312Z" fill="#373434"/>
<path d="M187.156 75.776C183.641 80.526 179.74 84.8177 175.885 89.125C173.885 91.2239 171.833 93.3073 170.156 95.6875C168.469 98.0521 167.151 100.651 166.125 103.359C164.083 108.771 162.349 114.354 160.042 119.74C157.786 124.932 155.807 130.802 151.813 135.26L151.594 135.125C154.203 129.854 155.422 124.307 157.563 118.734C159.854 113.396 161.917 107.917 164.88 102.776C166.328 100.203 167.938 97.7291 169.479 95.2344C171.016 92.7396 172.51 90.1719 174.276 87.7916C177.911 83.1354 182.25 79.125 186.979 75.5989L187.156 75.776Z" fill="#373434"/>
<path d="M128.943 60.8229C126.896 55.6771 123.401 51.2865 119.193 47.875C114.948 44.4896 110.083 41.8594 104.88 40.3438C102.292 39.6094 99.6823 39.0417 97.0469 39.1719C94.3958 39.2865 91.7396 39.8229 89.1198 40.599C83.8698 42.1979 78.7083 44.3229 73.9531 47.1302L73.9739 46.4167C81.4687 51.5781 89.401 56.4688 98.1458 58.776C102.5 59.9323 106.932 60.4115 111.417 60.0573C115.901 59.7969 120.432 59.0208 125.12 58.8073C127.448 58.6823 129.896 58.7656 132.135 59.1563L138.969 60.1458C143.396 60.6823 147.906 60.7552 152.359 60.1927C161.266 59.099 169.948 55.8438 177.479 50.651L177.641 50.849C170.661 56.8177 161.917 60.9167 152.672 62.3542C148.062 63.1406 143.328 63.2656 138.656 62.7396C134.104 62.3073 129.635 61.1563 125.208 61.4167C120.734 61.5156 116.182 62.1823 111.526 62.3542C106.854 62.5833 102.068 61.8958 97.6406 60.4323C88.7448 57.4375 81.1666 52.0677 73.4948 47.1198L72.9271 46.7604L73.5104 46.3958C78.2969 43.5208 83.2812 40.9323 88.5677 38.9635C91.2187 37.9844 94.0156 37.1875 96.9479 37.0469C99.8698 36.8906 102.812 37.3385 105.531 38.2396C110.943 40.0208 116.083 42.7604 120.281 46.6094C124.484 50.4167 127.807 55.3073 129.193 60.7448L128.943 60.8229Z" fill="#373434"/>
<path d="M145.984 60.8021C144.099 60.3437 142.583 59.0521 141.255 57.6927C139.943 56.3021 138.854 54.7083 137.911 53.0052C135.99 49.5937 135.302 45.625 135.167 41.8073C135.036 37.9687 135.406 34.2083 135.927 30.4635C136.453 26.7187 137.276 23.0208 138.391 19.4271L139 17.4479L139.766 19.2656C141.266 22.8385 142.854 26.3698 144.62 29.8073C146.339 33.2917 148.583 36.4323 150.156 40.1562C151.74 43.9739 151.625 48.1979 151.115 51.9896C150.87 53.8489 150.891 55.8646 150.38 57.8073C150.104 58.7604 149.75 59.7865 148.906 60.4427C148.047 61.0833 146.927 61.0365 145.984 60.8021ZM146.042 60.5573C146.953 60.7552 147.995 60.7708 148.693 60.1667C149.349 59.5417 149.635 58.6094 149.724 57.6823C149.906 55.8125 149.594 53.9375 149.505 51.9323C149.318 48.0469 149.328 44.3542 148.203 40.8333C147.714 39.0417 146.984 37.2708 146.24 35.4844C145.505 33.6927 144.75 31.901 143.906 30.1614C142.229 26.6823 140.375 23.276 138.437 19.9114L139.812 19.7656C139.177 23.4219 138.677 27.0833 138.302 30.75C137.969 34.4062 137.797 38.1146 137.823 41.7396C137.87 45.3698 138.302 48.9271 139.391 52.3594C139.974 54.0833 140.755 55.7552 141.786 57.2604C142.833 58.75 144.26 60.0677 146.042 60.5573Z" fill="#373434"/>
<path d="M132.172 60.5677C129.75 61.6198 127.63 63.1094 125.62 64.6927C123.599 66.276 121.745 68.0573 120.068 69.9479C118.422 71.8437 116.714 73.8646 115.151 75.9792C113.563 78.0833 112.198 80.3385 110.797 82.5885L110.365 81.9062C113.604 81.2812 116.734 80.2552 119.854 79.2969C122.958 78.3073 126.063 77.2708 128.771 75.7656C131.542 74.2969 133.594 72.2396 135.406 69.4739C137.276 66.8333 139.063 63.8646 141.719 61.7396L141.891 61.9167C139.953 64.5781 138.802 67.6302 137.177 70.5521C136.359 72.0104 135.516 73.526 134.281 74.875C133.057 76.1875 131.615 77.2917 130.057 78.0989C126.943 79.7552 123.651 80.5937 120.411 81.3594C117.146 82.1094 113.802 82.4323 110.495 82.7864L109.484 82.8802L110.063 82.0885C111.615 79.9792 112.958 77.7083 114.172 75.3646C115.427 73.026 116.635 70.6302 118.37 68.4948C120.135 66.3854 122.266 64.6562 124.552 63.1875C126.833 61.7604 129.406 60.6146 132.104 60.3229L132.172 60.5677Z" fill="#373434"/>
<path d="M139.443 23.3333C140.568 24.625 140.979 26.3698 141.318 27.8646C141.651 29.4115 141.911 30.974 141.964 32.5573C141.984 34.1458 141.807 35.7552 141.901 37.3386C142 38.9167 142.354 40.4583 142.766 42.0052C143.698 45.0781 143.984 48.2552 144.875 51.0104C145.651 53.8594 146.953 56.6875 147.927 59.7969L147.714 59.9323C145.406 57.6511 143.432 55.0104 142.313 51.8125C141.776 50.2031 141.599 48.5261 141.479 46.9323C141.344 45.3281 141.354 43.7656 141.391 42.1615C141.422 40.5781 141.385 38.9948 141.099 37.4375C140.818 35.8854 140.266 34.3698 139.896 32.8229C139.552 31.2761 139.443 29.7031 139.38 28.1198C139.313 26.5052 139.474 25.0261 139.214 23.4531L139.443 23.3333Z" fill="#373434"/>
</svg>
