<svg width="275" height="296" viewBox="0 0 275 296" fill="none" xmlns="http://www.w3.org/2000/svg">
<g filter="url(#filter0_d_93_2550)">
<path d="M-5.06309 287.435C-5.56206 272.338 -5.56465 257.114 -3.1603 242.078C-0.639615 227.023 4.72751 212.671 10.1308 198.446C12.9411 191.377 15.4307 184.135 19.544 177.465C23.6675 170.792 29.2596 165.142 35.0429 159.904C46.5605 149.332 59.045 139.702 72.3206 131.222L72.4396 131.381C59.9344 140.825 47.9385 150.794 36.5269 161.342C30.878 166.636 25.317 172.051 21.2115 178.405C17.1525 184.768 14.3604 191.905 11.1908 198.839C8.13237 205.812 5.2575 212.871 3.08841 220.14C0.85987 227.394 -0.52069 234.834 -1.46433 242.308C-3.54034 257.229 -3.96433 272.328 -4.85368 287.437L-5.06309 287.435Z" fill="#373434"/>
<path d="M65.32 143.277C63.3215 142.872 61.1886 142.09 59.9916 140.293C58.867 138.42 59.2574 136.167 59.7486 134.257C60.2941 132.307 61.0671 130.463 61.8634 128.654C62.6726 126.791 63.73 125.008 65.0408 123.36C66.3748 121.744 68.0294 120.262 70.0356 119.273C72.0418 118.269 74.2419 117.862 76.3334 117.61C80.5139 117.151 84.7021 117.08 88.8696 117.361C89.9063 117.422 90.9534 117.498 91.9824 117.596L93.5361 117.762C94.0454 117.837 94.5599 117.764 95.2037 118.072C95.8577 118.418 95.9767 119.2 95.8655 119.705C95.7724 120.242 95.5294 120.735 95.2786 121.163C94.79 122.027 94.3376 122.911 93.8153 123.766C91.8272 127.216 89.6556 130.605 87.0263 133.701C84.3712 136.733 81.3515 139.639 77.5537 141.541C75.6845 142.498 73.6395 143.179 71.5558 143.497C69.472 143.78 67.3494 143.721 65.32 143.277ZM65.3639 143.087C67.3675 143.502 69.4797 143.504 71.442 142.996C73.4017 142.464 75.2347 141.609 76.8686 140.498C80.1364 138.276 82.9312 135.454 85.7285 132.643C88.4922 129.816 91.137 126.801 93.2336 123.453C93.7533 122.616 94.26 121.768 94.7099 120.897C95.1701 120.113 95.4803 118.982 94.8443 118.672C94.5547 118.518 93.9808 118.526 93.4715 118.487L91.9332 118.44C90.9017 118.421 89.8727 118.411 88.8438 118.433C84.7331 118.526 80.6354 118.87 76.6101 119.434C74.6142 119.727 72.6985 120.179 71.062 121.06C69.4203 121.951 67.9803 123.189 66.7833 124.642C65.5475 126.073 64.5651 127.728 63.6809 129.43C62.7967 131.196 61.8169 132.907 61.049 134.658C60.3174 136.389 59.746 138.318 60.5087 140.039C61.3308 141.748 63.4042 142.667 65.3639 143.087Z" fill="#373434"/>
<path d="M46.0866 142.911C47.3069 140.435 48.7159 138.057 50.1016 135.681C50.8023 134.519 51.4253 133.347 51.7795 132.163C52.1466 130.998 52.0923 129.777 51.9579 128.473C51.8131 127.167 51.5908 125.785 51.6528 124.34C51.7175 122.899 52.0277 121.529 52.3509 120.203C53.0282 117.601 53.6203 114.797 52.4052 112.412L53.1006 112.363L51.8648 117.344C51.4382 119.017 50.8126 120.731 49.763 122.257C48.7702 123.771 47.5396 125.04 46.6218 126.391C45.6782 127.746 45.1327 129.098 45.0835 130.617C45.0422 132.131 45.3266 133.789 45.5567 135.491L46.1694 140.557C46.3891 142.239 46.5261 143.941 46.6864 145.633C46.7717 146.488 46.8028 147.294 47.1104 148.004C47.2578 148.351 47.537 148.688 47.7774 149.069C48.0179 149.433 48.2325 149.955 48.0308 150.409L47.8317 150.358C47.917 149.55 47.0148 149.115 46.4848 148.326C45.9315 147.521 45.7738 146.605 45.5851 145.79C45.2025 144.124 44.8043 142.462 44.4837 140.794L43.4884 135.784C43.2169 134.121 42.7878 132.419 42.8731 130.532C42.8964 128.617 43.8271 126.72 44.9362 125.304C46.053 123.851 47.2862 122.616 48.3023 121.319C50.293 118.758 51.2573 115.386 52.3845 112.175L52.7025 111.262L53.0825 112.124C54.2821 114.834 53.566 117.696 53.2919 120.355C53.1394 121.7 53.023 123.038 53.1316 124.31C53.2557 125.582 53.5944 126.874 53.7857 128.271C53.977 129.648 53.9977 131.21 53.4884 132.649C53.0205 134.077 52.1906 135.29 51.3891 136.433C49.7294 138.667 48.0825 140.884 46.2599 143.018L46.0866 142.911Z" fill="#373434"/>
<path d="M54.147 176.666C56.5178 180.092 58.9118 183.53 61.978 186.309C63.5059 187.693 65.2122 188.863 67.0349 189.798C68.8782 190.709 70.8715 191.329 72.9294 191.658C77.0607 192.308 81.3213 192.091 85.4966 191.268C89.6874 190.484 93.8084 189.2 97.8958 187.837L97.7691 188.467C92.0064 183.427 85.2924 179.377 78.1879 176.273C76.4221 175.49 74.6047 174.799 72.7924 174.098C70.9723 173.417 69.16 172.753 67.3347 172.398C65.5043 172.022 63.7231 172.04 62.084 172.684C60.4164 173.29 58.9351 174.447 57.1538 175.465C56.267 175.973 55.282 176.435 54.2013 176.718C53.1129 176.989 52.1305 177.094 51.1015 177.184C49.0591 177.343 47.0581 177.338 45.1139 177.34C43.1569 177.357 41.2463 177.423 39.4159 177.755C37.5545 178.102 35.6543 178.554 33.8161 179.113C26.4635 181.379 19.5762 185.178 13.9919 190.433L13.8394 190.298C18.8264 184.485 25.6749 180.056 33.2215 177.472C35.1165 176.818 37.0141 176.273 39.0048 175.831C41.0421 175.426 43.0845 175.333 45.0752 175.285C47.0607 175.226 49.0178 175.263 50.9076 175.106C51.8384 175.04 52.8104 174.909 53.6429 174.72C54.4676 174.523 55.2768 174.171 56.086 173.736C57.6993 172.875 59.3229 171.649 61.3678 170.933C63.4154 170.172 65.7525 170.213 67.7432 170.702C69.7701 171.18 71.6083 171.944 73.4232 172.699C75.2407 173.465 77.0168 174.31 78.7619 175.197C85.7655 178.752 92.2365 183.095 98.2991 187.901L98.7929 188.299L98.175 188.533C94.1497 190.064 90.1295 191.685 85.8534 192.728C81.5928 193.748 77.0168 194.183 72.5985 193.311C68.1801 192.525 63.9816 190.337 61.0395 187.183C57.9966 184.104 55.8637 180.444 53.9661 176.769L54.147 176.666Z" fill="#373434"/>
<path d="M49.7998 175.675C51.9482 174.919 53.6596 173.549 55.0221 171.979C56.4052 170.399 57.3515 168.529 58.2253 166.602C59.1302 164.683 59.9859 162.671 60.715 160.632C61.4311 158.584 61.9999 156.494 62.4601 154.387L63.1245 154.78C61.1183 156.45 59.1664 158.174 57.1265 159.792C55.066 161.389 53.0469 163.033 50.9347 164.568C48.8613 166.111 46.7853 167.559 45.1953 169.417C43.6441 171.258 42.473 173.507 42.5221 176.029L42.3256 176.064C41.5112 173.556 42.323 170.716 43.8251 168.497C45.3556 166.241 47.4704 164.473 49.5774 162.925C51.6689 161.365 53.8587 159.924 55.9993 158.425C58.1555 156.955 60.4099 155.583 62.6126 154.159L63.6467 153.488L63.277 154.562C62.5609 156.628 61.9533 158.711 61.5035 160.837C61.0924 162.984 60.7124 165.137 59.9161 167.242C59.1043 169.317 57.8815 171.337 56.17 172.963C54.4792 174.569 52.2093 175.744 49.8489 175.868L49.7998 175.675Z" fill="#373434"/>
<path d="M32.7218 177.771C32.8847 180.317 34.4591 182.354 35.9328 184.419C37.4245 186.488 39.0791 188.416 40.757 190.343C42.4142 192.282 44.1799 194.198 46.2327 195.81C48.3035 197.414 50.638 198.686 53.0734 199.707L52.2771 200.334C51.2766 197.897 50.7285 195.348 50.1779 192.875C49.6246 190.411 48.9653 188.018 47.8718 185.872C46.7963 183.733 45.1753 181.834 43.1303 180.374C41.0905 178.889 38.668 177.829 36.031 177.307L36.0439 177.114C38.7921 176.992 41.5972 177.734 44.03 179.106C46.4421 180.488 48.5543 182.498 49.8469 184.94C51.1499 187.381 51.667 190.013 52.0936 192.543C52.5305 195.077 52.7683 197.578 53.35 200.022L53.6577 201.291L52.5538 200.647C50.2192 199.297 48.0114 197.819 45.8242 196.315C43.6422 194.799 41.4317 193.268 39.4772 191.439C37.5563 189.586 35.9224 187.474 34.5703 185.223C33.2725 183.047 31.8945 180.396 32.5124 177.754L32.7218 177.771Z" fill="#373434"/>
<path d="M79.7429 185.462C77.3205 185.718 74.911 185.034 72.8918 183.928C71.8835 183.333 71.0252 182.537 70.0402 181.963C69.063 181.367 68.003 180.94 66.9016 180.576C64.6964 179.883 62.6333 179.052 60.534 178.41C58.4657 177.67 56.4104 177.077 54.081 176.628L54.0681 176.432C56.3458 175.612 58.9337 175.8 61.2269 176.432C63.5071 177.15 65.6064 178.244 67.442 179.638C68.3753 180.302 69.3163 180.947 70.3685 181.406C71.4053 181.875 72.5712 182.109 73.6416 182.471C75.7563 183.267 77.6721 184.209 79.7869 185.269L79.7429 185.462Z" fill="#373434"/>
<path d="M54.4941 164.814C54.1038 166.035 53.5608 166.88 52.7853 167.618C52.3613 167.957 51.7744 168.228 51.4331 168.663C51.0789 169.087 50.9523 169.627 50.8799 170.181C50.7842 171.312 50.4688 172.384 49.8509 173.431C49.1736 174.4 47.9947 175.365 46.6012 175.345L46.5029 175.177C47.1544 174.107 47.475 173.304 47.9326 172.396C48.4574 171.549 48.9848 170.587 49.8483 169.742C50.2542 169.3 50.6291 168.865 50.8592 168.345C51.0919 167.835 51.1358 167.188 51.3944 166.655C51.9838 165.64 53.0153 164.876 54.3597 164.663L54.4941 164.814Z" fill="#373434"/>
<path d="M46.5291 191.713C45.0322 190.777 43.9671 189.627 43.1553 188.289C42.783 187.593 42.5684 186.788 42.1289 186.133C41.7023 185.467 41.1 184.935 40.4511 184.432C39.1248 183.465 38.0028 182.351 36.9376 181.199C35.9319 179.993 35.1356 178.835 34.0498 177.548L34.1506 177.382C35.9604 177.588 37.4598 178.72 38.6 179.836C39.6884 181.025 40.6501 182.302 41.3456 183.767C41.7153 184.488 42.116 185.176 42.6693 185.75C43.2096 186.341 43.9697 186.78 44.5488 187.342C45.6424 188.531 46.4076 189.942 46.6972 191.61L46.5291 191.713Z" fill="#373434"/>
<path d="M11.229 157.993C14.2486 155.259 17.1132 152.399 19.7244 149.372C22.2631 146.327 24.6106 143.06 25.2905 139.351C25.6266 137.5 25.7094 135.554 25.9239 133.547C26.1411 131.548 26.5341 129.567 27.0873 127.638C28.1215 123.754 29.6727 120.067 30.9989 116.326L31.591 116.705C26.0946 120.975 20.7714 125.636 17.1028 131.328C15.2854 134.167 13.8143 137.19 13.0775 140.377C12.2761 143.536 12.4234 146.849 12.3691 150.258C12.2967 153.669 12.1545 156.931 12.7311 160.166C12.987 161.797 13.3567 163.441 13.6799 165.116C13.9798 166.8 14.2383 168.487 14.4348 170.18C15.2621 176.955 15.0734 183.826 13.9203 190.502L13.7109 190.482C14.0651 183.733 13.6954 177.016 12.6406 170.411C12.1132 167.098 11.2342 163.904 10.5904 160.493C9.90014 157.063 10.0811 153.535 10.2259 150.209C10.3707 146.886 10.2905 143.377 11.2445 139.959C12.1985 136.568 13.8453 133.418 15.955 130.62C20.1664 124.977 25.8128 120.682 31.1075 116.172L32.1339 115.301L31.7047 116.546C30.4017 120.294 29.3314 124.11 28.5455 127.944C28.1758 129.863 27.881 131.787 27.6923 133.706C27.5113 135.62 27.5346 137.635 27.0667 139.676C26.1282 143.788 23.6101 147.291 20.7456 150.202C17.8991 153.144 14.7631 155.815 11.3583 158.137L11.229 157.993Z" fill="#373434"/>
<path d="M11.7079 161.926C10.909 159.616 8.70116 158.325 6.4571 157.531C4.17685 156.735 1.57602 156.093 -0.735252 154.938C-3.06462 153.808 -5.16649 152.313 -7.12357 150.714C-9.07549 149.108 -10.9473 147.452 -12.7285 145.684L-12.0796 145.394C-11.4023 148.292 -10.5439 151.156 -9.27456 153.737C-8.61272 155.012 -7.86039 156.235 -6.89348 157.27C-5.92657 158.315 -4.77093 159.199 -3.55842 160.039C-1.09461 161.694 1.59929 163.062 4.4509 164.268C7.29216 165.472 10.1722 166.629 13.1479 167.613L13.1065 167.803C9.93953 167.484 6.83973 166.729 3.82266 165.755C0.823695 164.798 -2.20888 163.56 -4.84849 161.731C-7.53981 159.961 -9.77611 157.309 -10.9136 154.399C-12.1029 151.488 -12.3925 148.456 -12.819 145.516L-13 144.278L-12.1701 145.223C-10.5569 147.061 -8.68769 148.717 -6.56256 150.021C-4.45811 151.351 -2.18044 152.379 0.0713675 153.376C1.20632 153.876 2.33869 154.355 3.49691 154.794C4.66289 155.214 5.87799 155.661 7.07758 156.201C9.4328 157.241 11.7932 159.304 11.9095 161.897L11.7079 161.926Z" fill="#373434"/>
<path d="M11.1045 154.824C11.7379 153.129 12.984 151.769 14.1293 150.47C15.3522 149.164 16.3217 148.019 17.0688 146.569C17.8703 145.155 18.5476 143.558 18.9535 141.905C19.3517 140.245 19.53 138.538 19.8532 136.821C20.1428 135.093 20.621 133.396 21.3139 131.777C21.9783 130.153 22.7384 128.561 23.6485 127.062C25.5099 124.066 27.7229 121.329 30.2514 118.826L30.4297 118.939C28.9794 122.125 27.224 125.094 25.5771 128.066C23.8424 131.001 22.2782 133.975 20.939 137.097C20.2927 138.67 19.8661 140.325 19.6102 142.02C19.3568 143.712 19.2689 145.47 18.651 147.208C18.0512 148.954 16.6086 150.436 15.2772 151.523C13.9483 152.692 12.498 153.671 11.2855 154.924L11.1045 154.824Z" fill="#373434"/>
<path d="M13.5216 170.189C16.1845 169.28 19.0232 168.87 20.8277 167.129C22.7667 165.489 24.1343 163.198 25.8769 161.14C27.5625 159.04 29.2946 156.96 30.6881 154.674C32.1023 152.401 33.2528 149.991 34.3489 147.574L35.4012 148.424C33.5087 149.896 31.5671 151.317 29.6126 152.706C27.6659 154.11 25.7114 155.502 23.6871 156.799C21.6912 158.132 19.6023 159.35 17.5573 160.622C16.5439 161.216 15.5563 161.838 14.7057 162.602C13.8422 163.345 13.0744 164.216 12.7796 165.32L12.5702 165.301C12.5314 164.08 13.1984 162.917 13.9585 161.968C14.7496 161.008 15.6752 160.183 16.6421 159.416C18.5707 157.995 20.4554 156.508 22.4255 155.143C24.3748 153.747 26.3965 152.443 28.4311 151.151C30.4477 149.842 32.4849 148.556 34.5661 147.335L37.1333 145.823L35.6158 148.184C34.1602 150.458 32.6297 152.68 31.2285 154.97C29.8014 157.248 28.5889 159.643 27.2031 161.96C25.82 164.243 24.2636 166.565 21.8774 168.331C20.7321 169.219 19.199 169.81 17.7874 170.013C16.368 170.25 14.9642 170.304 13.5604 170.384L13.5216 170.189Z" fill="#373434"/>
<path d="M13.0171 167.112C15.0828 165.874 16.7942 164.571 18.591 163.24C19.4804 162.62 20.53 161.941 21.3832 161.167C22.2518 160.385 22.9628 159.475 23.6427 158.53C24.9509 156.608 26.4788 154.872 28.0895 153.209C29.77 151.608 31.5642 150.104 33.6712 148.863L33.8211 148.995C32.6991 151.083 31.2617 152.897 29.7079 154.616C28.0921 156.266 26.3909 157.863 24.4726 159.253C23.5316 159.968 22.6293 160.72 21.8796 161.599C21.1014 162.463 20.6102 163.518 19.7596 164.434C18.0429 166.133 15.6231 167.352 13.0662 167.303L13.0171 167.112Z" fill="#373434"/>
<path d="M30.1173 217.96C33.5377 220.827 37.7388 222.663 42.1054 223.569C46.485 224.438 51.0429 224.567 55.4327 223.806C57.6096 223.41 59.7399 222.89 61.6349 221.877C63.5403 220.871 65.2957 219.564 66.9348 218.109C70.2027 215.155 73.2094 211.868 75.6654 208.25L75.9162 208.753C68.4834 207.778 60.8283 207.148 53.5377 208.601C49.9053 209.322 46.4643 210.54 43.2973 212.357C40.0966 214.107 37.0511 216.234 33.6799 218.026C32.0149 218.927 30.1794 219.723 28.3877 220.236L22.9922 221.94C19.5382 223.115 16.1902 224.645 13.1214 226.594C6.97612 230.476 1.79773 235.782 -1.81396 242.037L-2.00269 241.957C0.908382 235.352 5.82307 229.434 12.0899 225.197C15.1897 223.036 18.6256 221.291 22.2605 220.023C25.7688 218.729 29.4865 217.97 32.6457 216.236C35.9007 214.603 39.003 212.545 42.364 210.791C45.7171 208.999 49.4917 207.8 53.2921 207.273C60.9524 206.245 68.5248 207.332 76.0093 208.093L76.56 208.147L76.2626 208.606C73.8092 212.283 71.1049 215.833 67.9457 219.054C66.3609 220.663 64.6029 222.199 62.4958 223.322C60.4043 224.455 58.0698 225.173 55.7378 225.498C51.092 226.152 46.2936 226.045 41.7719 224.829C37.2683 223.647 33.0051 221.405 29.9648 218.099L30.1173 217.96Z" fill="#373434"/>
<path d="M17.5872 223.94C19.1436 223.598 20.7413 223.967 22.2201 224.45C23.7041 224.958 25.0975 225.688 26.4212 226.543C29.1048 228.247 31.0877 230.774 32.6053 233.384C34.1281 236.016 35.2501 238.763 36.2609 241.554C37.2666 244.347 38.0371 247.211 38.5515 250.11L38.8385 251.699L37.5976 250.701C35.1699 248.737 32.688 246.835 30.1079 245.055C27.551 243.229 24.7304 241.83 22.1916 239.784C19.6063 237.679 18.1224 234.695 17.0856 231.873C16.5763 230.493 15.8111 229.097 15.4646 227.561C15.3147 226.804 15.1932 225.966 15.5706 225.214C15.9636 224.462 16.8064 224.103 17.5872 223.94ZM17.6337 224.128C16.8892 224.311 16.1187 224.665 15.8318 225.329C15.581 225.996 15.7154 226.743 15.9946 227.422C16.5531 228.787 17.4812 229.985 18.2904 231.353C19.8726 233.992 21.2402 236.571 23.3783 238.629C24.4021 239.703 25.5939 240.682 26.809 241.669C28.0164 242.658 29.2366 243.642 30.5034 244.557C33.0319 246.398 35.6612 248.12 38.3344 249.787L37.3778 250.368C36.4885 247.6 35.4957 244.875 34.4073 242.189C33.293 239.525 32.0443 236.878 30.6767 234.361C29.2909 231.851 27.6492 229.522 25.5732 227.512C24.5055 226.513 23.3085 225.622 21.9926 224.936C20.6663 224.267 19.128 223.847 17.6337 224.128Z" fill="#373434"/>
<path d="M27.8347 219.266C29.223 217.684 30.2313 215.906 31.1206 214.097C32.0203 212.285 32.7209 210.395 33.2535 208.493C33.7628 206.596 34.2669 204.587 34.6289 202.57C35.0167 200.548 35.1796 198.497 35.376 196.439L35.9474 196.766C33.799 198.334 31.8781 200.145 29.9391 201.906C28.0182 203.683 26.1232 205.49 24.6909 207.485C23.194 209.48 22.4495 211.631 22.1418 214.192C21.7514 216.685 21.542 219.381 20.376 221.791L20.1821 221.727C20.6216 219.195 20.3321 216.668 20.4407 214.06C20.5001 212.759 20.5596 211.409 20.9655 210.037C21.3791 208.694 22.0306 207.419 22.876 206.308C24.5513 204.069 26.6635 202.328 28.7602 200.663C30.8828 198.995 33.2251 197.599 35.526 196.197L36.2344 195.775L36.1025 196.529C35.7483 198.544 35.601 200.595 35.5803 202.655C35.5234 204.723 35.526 206.816 35.0425 208.908C34.5281 210.999 33.6051 212.949 32.4701 214.773C31.3171 216.568 29.8512 218.265 27.9769 219.413L27.8347 219.266Z" fill="#373434"/>
<path d="M36.3241 247.753C35.0133 247.248 34.0645 246.179 33.2631 245.253C32.4409 244.294 31.6654 243.295 31.0397 242.208C30.4373 241.112 29.9694 239.925 29.3075 238.856C28.6509 237.794 27.8158 236.842 26.9394 235.909C25.1116 234.095 23.7207 231.983 22.0376 230.371C20.4089 228.66 18.4001 227.146 16.5283 225.319L16.6369 225.148C19.1809 225.93 21.6111 227.08 23.625 228.916C24.6204 229.851 25.3727 230.955 26.0526 232.024C26.7481 233.096 27.322 234.187 27.8908 235.318C28.457 236.434 29.0749 237.523 29.8634 238.507C30.6493 239.491 31.6162 240.353 32.4642 241.303C33.2915 242.257 33.9559 243.317 34.5893 244.399C35.2408 245.5 35.6726 246.584 36.4456 247.592L36.3241 247.753Z" fill="#373434"/>
<path d="M1.43445 60.1289C4.22918 61.2911 6.80157 62.9466 9.9143 63.3958C12.4996 63.7694 15.103 64.1088 17.647 64.663C19.5007 65.0684 21.2716 65.8033 23.0813 66.3893C23.6087 66.5627 24.1284 66.7556 24.6635 66.8996C29.935 68.328 35.2401 69.6514 40.4676 71.2165C42.616 71.8586 44.736 72.6815 46.7163 73.7998C49.6274 75.443 52.8177 76.554 55.9563 77.7455C57.8099 78.4487 59.6714 79.125 61.5405 79.7867C62.5695 80.1481 63.645 80.3996 64.6584 80.7902C67.8203 82.0013 70.9951 83.188 74.0949 84.526C75.5478 85.1535 76.8327 86.118 78.2081 86.9115C79.2991 87.5439 80.4108 88.1421 81.5018 88.7769C81.7707 88.9332 81.9827 89.17 82.2231 89.3727C82.1559 89.4655 82.0912 89.5583 82.0266 89.6511C81.1812 89.1676 80.3694 88.6207 79.4827 88.2178C78.4304 87.7417 77.3239 87.3608 76.22 86.9945C74.069 86.2791 71.9025 85.5979 69.7386 84.9118C68.5804 84.5431 67.4221 84.1597 66.2484 83.8399C63.8518 83.1806 61.8921 81.6985 59.6481 80.7609C57.1533 79.7184 54.9014 78.2314 52.2567 77.4403C50.8451 77.0154 49.6403 76.007 48.2753 75.3942C46.0054 74.3736 43.676 73.4726 41.3854 72.4959C37.1998 70.7135 32.8202 69.5928 28.2882 68.9506C26.8507 68.748 25.4314 68.4427 24.0069 68.1693C20.8916 67.5662 17.7607 67.0144 14.6661 66.3209C12.7788 65.8961 10.982 65.0732 9.08183 64.7412C6.24314 64.2455 3.72763 63.0467 1.11904 62.009C-0.313225 61.4401 -1.84632 61.0958 -3.32254 60.6221C-3.73102 60.4927 -4.1033 60.2607 -4.49627 60.0849C-6.06039 59.3891 -7.61417 58.6736 -9.19897 58.0217C-9.42389 57.9314 -9.79101 58.1536 -10.1245 58.2366C-10.0702 59.1571 -9.33599 59.3036 -8.77239 59.5844C-7.58314 60.1753 -6.38097 60.7417 -5.18397 61.318C-4.88407 61.4645 -4.60744 61.6671 -4.29203 61.7648C-2.32719 62.3825 -0.35459 62.9734 1.61284 63.5838C3.92411 64.2992 6.22246 65.0635 8.54666 65.7398C10.3021 66.2501 12.0963 66.6506 13.8698 67.1096C15.3719 67.5003 16.8507 67.9935 18.3735 68.2816C22.0912 68.9824 25.8295 69.5903 29.5601 70.2374C30.465 70.3961 31.3544 70.5353 32.2489 70.8307C34.5084 71.5754 36.8482 72.115 39.1568 72.7328C39.3145 72.7718 39.5731 72.6986 39.6429 72.7816C40.6176 73.9634 42.1843 73.9975 43.4692 74.5713C45.8296 75.6261 48.2106 76.6419 50.5762 77.6893C52.1248 78.3754 53.6476 79.1128 55.1988 79.7867C57.1196 80.6242 59.0741 81.4373 60.7779 82.6117C62.8229 84.0181 65.1781 84.631 67.4764 85.466C70.1005 86.4183 72.7582 87.2118 75.4418 87.9834C77.1766 88.4815 78.7743 89.3947 80.4237 90.1467C83.8518 91.7118 87.2438 93.3575 90.7107 94.8445C92.7738 95.7284 94.78 96.7734 97.0499 97.2227C97.66 97.3423 98.1616 97.9137 98.7329 98.2482C99.736 98.8342 100.739 99.4153 101.766 99.9598C102.712 100.463 103.387 101.088 103.622 102.167C103.924 103.556 104.452 104.899 104.783 106.284C105.015 107.255 105.041 108.269 105.227 109.25C105.382 110.08 105.6 110.903 105.848 111.712C106.639 114.292 107.601 116.837 108.211 119.452C108.565 120.975 108.601 122.645 108.361 124.193C108.071 126.061 108.524 127.756 108.953 129.548C108.299 129.677 107.598 129.848 106.887 129.948C104.25 130.327 101.884 131.303 99.7903 132.839C99.1828 133.286 98.7097 133.904 98.2236 134.482C96.781 136.206 94.6688 137.21 93.0737 138.77C92.8022 139.036 92.4093 139.224 92.2154 139.529C91.2045 141.124 89.5395 142.025 88.0426 143.104C86.8508 143.963 85.6124 144.767 84.3844 145.582C81.9801 147.174 80.5581 149.413 79.7774 152.016C79.0845 154.328 77.8798 156.155 75.4521 157.166C74.3792 157.612 73.3761 158.242 72.7815 159.275C72.4635 159.832 72.6522 160.242 73.3063 160.257C74.0742 160.274 74.948 160.386 75.5995 160.098C77.1067 159.434 78.6347 159.597 80.1704 159.678C82.947 159.825 85.6564 159.449 88.2521 158.579C90.3927 157.861 92.4454 156.912 94.5215 156.033C96.1864 155.329 97.1223 153.867 98.309 152.67C98.72 152.255 99.1207 151.831 99.5551 151.44C99.8757 151.149 100.3 150.952 100.581 150.637C103.756 147.091 107.28 143.81 109.863 139.81C110.176 139.327 110.672 138.948 111.122 138.482C111.238 138.66 111.401 138.797 111.385 138.912C111.161 140.699 111.031 142.508 110.633 144.261C110.212 146.117 109.573 147.934 108.945 149.738C108.544 150.888 108.136 152.08 107.453 153.083C106.949 153.823 106.088 154.502 105.225 154.834C103.599 155.464 102.683 156.726 101.703 157.915C100.822 158.985 99.8576 160.022 99.4129 161.39C99.25 161.893 98.6554 162.293 98.2081 162.691C97.1533 163.629 96.4889 164.752 96.2148 166.1C96.0985 166.666 95.7883 167.196 95.6668 167.76C95.3979 169.01 95.4056 170.241 95.5608 171.537C95.9822 175.007 96.1864 178.503 96.3984 181.992C96.4785 183.313 97.0318 184.29 98.1357 185.064C99.1337 185.762 100.15 186.478 100.082 187.772C100.791 187.982 101.186 187.767 101.215 187.264C101.264 186.412 101.747 185.806 102.202 185.125C103.234 183.575 103.676 181.785 103.901 180.007C104.188 177.773 105.256 176.04 106.879 174.47C107.807 173.571 108.65 172.541 109.291 171.444C109.752 170.656 109.873 169.664 110.041 168.749C110.287 167.391 110.457 166.024 110.625 164.657C110.871 162.635 110.196 160.745 109.472 158.916C108.901 157.473 108.906 156.008 108.767 154.538C108.746 154.309 108.942 154.057 109.056 153.825C109.154 153.632 109.39 153.449 109.377 153.274C109.206 150.851 110.995 148.969 111.378 146.703C111.479 146.1 111.678 145.507 111.905 144.625C112.236 145.175 112.51 145.458 112.585 145.78C112.82 146.806 113.004 147.846 113.169 148.886C113.63 151.801 114.069 154.721 114.524 157.642C114.571 157.947 114.599 158.274 114.731 158.55C115.755 160.677 116.106 162.979 116.758 165.204C117.29 167.03 118.022 168.803 118.65 170.604C118.823 171.1 119.03 171.584 118.58 172.104C118.368 172.353 118.304 172.792 118.337 173.134C118.614 176.057 117.443 178.506 115.592 180.733C114.733 181.765 113.772 182.725 112.952 183.78C112.024 184.976 111.295 186.307 110.998 187.765C110.734 189.054 110.581 190.384 110.584 191.696C110.587 193.876 109.441 195.619 108.363 197.385C107.921 198.107 107.215 198.681 106.672 199.353C106.367 199.729 106.026 200.141 105.912 200.586C105.408 202.568 105.38 204.588 106.104 206.509C106.448 207.42 106.714 208.275 106.647 209.239C106.502 211.349 106.378 213.463 106.295 215.575C106.282 215.951 106.411 216.491 106.683 216.667C106.905 216.808 107.456 216.562 107.828 216.415C109.514 215.756 110.372 214.259 111.548 213.085C112.391 212.242 113.262 211.427 114.097 210.579C115.512 209.144 116.158 207.359 116.665 205.501C117.298 203.179 118.167 200.979 120.005 199.199C121.207 198.034 122.381 196.811 123.356 195.475C124.659 193.688 125.057 191.561 125.307 189.442C125.607 186.915 125.289 184.161 124.55 181.526C124.413 181.04 124.403 180.525 124.594 179.946C125.514 181.851 126.393 183.775 127.371 185.65C128.394 187.618 129.025 189.728 129.977 191.72C130.333 192.467 130.918 193.09 131.3 193.766C131.675 194.433 132.055 195.158 132.355 195.868C132.926 197.228 133.849 198.325 134.684 199.509C135.925 201.269 137.554 202.639 139.335 203.811C140.46 204.553 141.815 205.215 143.144 205.391C146.287 205.804 149.457 206.438 152.658 205.652C153.681 205.398 154.051 205.672 154.46 206.582C155.059 207.911 155.491 209.363 156.36 210.516C157.502 212.035 158.583 213.678 160.941 214.02C162.676 214.274 164.198 215.219 165.675 216.244C167.293 217.372 169.201 218.139 171.021 218.993C172.244 219.565 173.506 220.073 174.793 220.485C175.328 220.659 175.977 220.51 176.784 220.51C176.639 219.929 176.616 219.509 176.435 219.162C175.618 217.597 174.824 216.012 173.88 214.513C173.438 213.815 172.766 213.153 172.037 212.723C170.719 211.944 169.312 211.275 167.88 210.697C165.509 209.744 163.534 208.326 161.841 206.519C160.625 205.22 158.968 204.646 157.267 204.341C155.408 204.009 154.436 203.044 154.01 201.377C153.433 199.126 153.022 196.799 152.102 194.674C151.026 192.194 149.576 189.908 146.934 188.397C144.118 186.788 141.675 184.656 139.591 182.215C138.412 180.835 137.169 179.658 135.207 179.236C132.546 178.66 129.935 177.878 127.303 177.175C125.395 176.665 123.655 176.008 122.458 174.296C121.398 172.782 120.408 171.256 120.067 169.489C119.951 168.895 120.574 168.175 120.858 167.513C120.581 167.496 120.307 167.479 120.031 167.462C120.943 168.353 121.802 169.306 122.787 170.119C123.857 171 124.958 171.764 126.473 172.096C128.397 172.521 130.222 173.259 131.859 174.511C134.201 176.303 136.272 178.381 138.661 180.107C140.005 181.079 141.305 182.132 143.084 182.434C144.428 182.664 145.778 182.984 147.058 183.435C148.658 184.004 150.297 183.987 151.846 183.636C153.454 183.274 155.033 182.625 156.481 181.856C157.67 181.223 158.557 180.09 159.734 179.434C161.448 178.479 163.278 177.698 165.106 176.945C166.373 176.423 167.727 176.088 169.03 175.644C169.876 175.354 170.706 175.073 171.026 174.099C171.161 173.686 171.642 173.378 171.978 173.012C171.502 172.467 171.024 172.499 170.315 172.577C168.26 172.807 166.168 172.736 164.105 172.912C161.737 173.115 159.436 172.851 157.161 172.287C155.685 171.918 154.434 171.215 153.255 170.248C151.608 168.903 149.749 167.792 148.012 166.537C147.174 165.934 146.357 165.284 145.628 164.566C144.459 163.409 143.11 162.642 141.419 162.405C140.126 162.225 139.064 162.457 138.144 163.448C137.461 164.183 136.479 164.549 135.393 164.266C132.598 163.531 129.721 163.804 126.882 163.68C126.052 163.643 125.178 164.132 124.351 164.444C123.736 164.676 123.175 165.035 122.567 165.287C121.869 165.575 121.197 166.004 120.382 165.365C120.17 165.199 119.545 165.499 119.209 165.565C118.374 162.586 117.642 159.942 116.882 157.305C116.649 156.492 116.259 155.715 116.07 154.895C115.53 152.522 115.077 150.129 114.545 147.753C114.278 146.569 113.857 145.414 113.604 144.227C113.441 143.465 113.182 142.577 113.441 141.908C114.185 139.991 114.677 138.081 114.286 136.023C116.807 133.899 119.783 132.212 121.114 128.942C122.296 130.866 124.273 131.821 126.174 132.815C127.272 133.389 128.539 133.667 129.723 134.097C131.199 134.634 132.218 135.713 133.187 136.814C133.86 137.583 134.421 138.443 135 139.28C135.822 140.469 136.494 141.768 137.453 142.843C138.219 143.702 139.291 144.332 140.279 144.999C141.445 145.787 142.66 146.51 143.867 147.243C144.191 147.44 144.545 147.626 144.912 147.729C146.445 148.151 147.619 149.054 148.831 150.002C149.444 150.478 150.163 151.464 151.305 150.79C153.462 152.082 155.876 151.049 158.136 151.459C159.77 151.76 161.404 151.921 162.88 152.797C163.65 153.254 164.628 153.398 165.651 153.73C166.512 153.435 166.233 152.658 166.008 152.07C165.773 151.44 165.39 150.783 164.876 150.344C163.761 149.396 163.048 148.241 162.363 147.011C161.218 144.952 159.796 143.026 158.743 140.931C157.947 139.344 157.182 137.776 156.031 136.389C155.326 135.54 154.529 134.846 153.464 134.385C152.063 133.777 150.786 132.834 149.333 132.422C147.063 131.777 145.178 130.488 143.102 129.531C141.375 128.732 139.571 128.588 137.872 129.05C136.055 129.543 134.315 129.455 132.567 129.162C130.618 128.832 128.743 128.637 126.758 129.067C125.858 129.262 124.821 129.045 123.831 129.235C123.459 129.309 122.901 128.923 122.546 128.622C121.52 127.748 120.556 126.806 119.56 125.898C117.908 124.398 116.228 122.929 114.615 121.395C114.196 120.997 113.823 120.44 113.707 119.903C113.048 116.868 111.784 114.038 110.662 111.152C110.033 109.529 109.793 107.756 109.511 106.03C109.284 104.648 108.922 103.366 107.913 102.299C107.818 102.199 107.831 102.008 107.756 101.713C108.624 101.964 109.415 102.13 110.157 102.419C112.58 103.354 114.948 104.377 117.52 104.973C118.821 105.275 119.943 106.232 121.184 106.818C122.828 107.595 124.522 108.281 126.176 109.043C127.182 109.507 128.167 110.017 129.134 110.552C131.321 111.763 133.655 112.556 136.163 112.94C136.727 113.025 137.226 113.465 137.792 113.572C140.941 114.173 144.108 114.688 147.254 115.308C148.508 115.557 149.762 115.542 151.021 115.621C151.835 115.672 152.632 115.972 153.446 116.063C155.667 116.304 157.955 116.277 160.098 116.788C161.386 117.095 163.105 116.905 163.904 118.389C166.018 119.366 167.645 120.909 169.351 122.396C170.077 123.029 170.191 123.834 170.688 124.506C171.947 126.2 173.146 127.939 174.286 129.709C175.53 131.635 176.629 133.645 177.901 135.552C178.454 136.387 179.346 137.017 179.974 137.818C180.628 138.65 181.223 139.539 181.706 140.469C182.117 141.263 182.257 142.179 182.647 142.984C183.136 143.983 183.144 144.93 182.996 146.027C182.572 149.22 182.353 152.438 182.086 155.652C182.042 156.169 182.084 156.731 182.249 157.219C182.888 159.077 182.678 160.984 182.725 162.879C182.745 163.726 182.73 164.581 182.851 165.416C183.1 167.12 184.501 167.965 185.843 168.861C186.613 169.374 187.384 169.923 188.009 170.58C189.361 171.991 190.703 173.427 191.895 174.958C193.141 176.562 194.162 178.318 195.367 179.951C195.931 180.715 196.698 181.338 197.365 182.036C197.598 182.281 197.813 182.544 198.02 182.81C198.694 183.677 199.31 184.59 200.054 185.396C200.326 185.692 200.902 185.733 201.455 185.933C202.097 183.575 203.239 181.665 204.467 179.766C205.326 178.437 205.809 176.889 206.401 175.417C206.53 175.097 206.406 174.687 206.399 174.318C206.37 172.892 206.401 171.462 206.287 170.04C206.215 169.096 206.106 168.094 205.708 167.245C205.01 165.753 204.204 164.273 203.206 162.947C201.823 161.114 200.654 159.207 200 157.043C199.118 154.118 197.497 151.501 195.962 148.881C195.15 147.497 193.663 146.469 192.5 145.265C190.636 143.334 187.978 142.542 185.801 141.073C184.361 140.101 183.056 138.943 181.737 137.82C178.415 134.988 176.6 131.164 174.323 127.646C173.521 126.405 172.707 125.17 172.112 123.742C172.482 124.081 172.895 124.386 173.219 124.762C174.99 126.808 177.324 128.139 179.684 129.475C181.409 130.449 183.009 131.621 184.63 132.749C185.576 133.406 186.543 134.07 187.337 134.873C188.12 135.669 188.72 136.631 189.364 137.542C190.535 139.2 191.657 140.894 192.844 142.542C193.725 143.768 194.485 145.04 195.233 146.344C196.192 148.022 197.058 149.928 199.292 150.6C201.031 151.125 202.733 151.787 204.501 152.211C205.757 152.514 206.758 153.193 207.64 153.935C208.661 154.797 209.842 155.08 211.026 155.073C213.376 155.054 215.721 154.797 218.069 154.626C218.281 154.609 218.488 154.504 218.697 154.441C219.041 153.584 218.674 152.983 218.064 152.443C215.651 150.309 214.131 147.572 212.397 144.979C211.559 143.729 210.791 142.401 209.736 141.331C209.064 140.65 207.968 140.167 206.98 139.984C205.861 139.778 205.328 139.28 204.718 138.426C203.415 136.595 202.084 134.751 200.098 133.445C198.72 132.536 197.482 131.445 196.114 130.52C194.705 129.565 193.193 129.082 191.368 129.533C189.695 129.948 187.95 130.107 186.23 130.329C185.158 130.466 184.154 130.341 183.164 129.773C181.98 129.091 180.507 128.796 179.452 127.99C177.937 126.83 176.117 126.061 174.853 124.557C173.612 123.08 172.146 121.774 170.796 120.379C170.499 120.074 170.269 119.708 169.865 119.188C172.003 120.147 174.017 120.672 176.106 121.078C177.078 121.268 178.061 121.808 179.103 121.898C181.184 122.076 183.281 122.123 185.362 122.296C186.758 122.413 188.136 122.706 189.529 122.836C193.118 123.17 196.479 124.389 199.953 125.16C202.523 125.729 204.749 126.991 206.577 128.752C207.453 129.592 207.976 130.756 208.687 131.758C209.617 133.066 210.582 134.353 211.528 135.652C211.939 136.221 212.358 136.783 212.733 137.371C213.335 138.311 213.883 139.249 214.938 139.876C217.084 141.153 217.846 143.248 218.363 145.453C218.555 146.273 218.738 147.099 219.02 147.89C219.571 149.443 220.052 151.037 220.819 152.492C221.476 153.733 222.43 154.853 223.376 155.933C224.155 156.821 225.116 157.568 226 158.374C226.238 158.591 226.453 158.863 226.737 159.002C228.126 159.678 229.483 160.462 230.949 160.931C232.515 161.431 233.844 162.188 235.191 163.07C237.063 164.298 239.129 165.257 241.114 166.332C241.21 166.383 241.321 166.485 241.406 166.471C243.63 166.102 245.517 167.567 247.676 167.501C248.413 167.479 249.1 168.302 249.917 167.548C249.646 166.588 248.79 166.053 248.02 165.479C245.757 163.795 244.056 161.812 243.529 159.021C242.994 156.191 241.784 153.542 240.406 151.015C239.217 148.83 237.208 147.186 235.235 145.607C233.782 144.444 232.179 143.456 230.672 142.354C229.752 141.681 228.922 140.894 227.994 140.233C225.944 138.775 223.751 137.693 221.062 137.718C218.927 137.737 216.812 137.52 214.801 136.714C214.002 136.397 213.384 136.043 212.883 135.296C212.128 134.172 211.494 133.015 210.853 131.841C210.152 130.566 209.116 129.436 208.102 128.347C206.799 126.947 205.372 125.651 203.725 124.047C204.902 124.206 205.786 124.245 206.626 124.452C209.454 125.15 212.28 125.487 215.24 125.336C219.191 125.133 223.18 125.099 227.099 125.773C228.741 126.054 230.308 126.738 231.913 127.223C233.612 127.741 235.308 128.251 237.011 128.747C239.524 129.48 242.053 130.158 244.69 130.363C247.565 130.588 250.362 130.222 253.128 129.453C255.533 128.784 257.996 128.312 260.406 127.663C261.802 127.287 263.203 126.84 264.491 126.217C265.352 125.802 266.037 125.043 266.771 124.408C267.513 123.761 268.201 123.058 268.945 122.413C269.473 121.957 269.863 121.481 269.71 120.755C269.679 120.602 269.646 120.411 269.713 120.284C270.346 119.12 269.922 118.118 269.054 117.313C268.051 116.385 267.991 115.284 268.12 114.09C267.205 113.413 266.166 113.23 265.098 113.284C262.686 113.406 260.282 113.592 257.875 113.753C257.089 113.804 256.303 113.931 255.52 113.902C253.301 113.814 251.179 114.075 249.069 114.827C248.014 115.203 246.755 115.201 245.595 115.164C242.36 115.061 239.537 116.065 237.006 117.869C234.173 119.889 231.016 121.349 227.911 122.936C225.915 123.956 224.018 124.037 221.939 123.927C220.889 123.873 219.829 124 218.774 123.974C216.256 123.913 213.736 123.805 211.215 123.715C211.047 123.71 210.879 123.7 210.713 123.681C208.94 123.475 207.148 123.358 205.398 123.038C203.811 122.745 202.226 122.426 200.654 122.006C198.834 121.517 196.898 121.354 195 121.222C193.048 121.088 191.078 121.224 189.121 121.134C184.553 120.921 179.935 121.07 175.514 119.64C175.473 119.625 175.447 119.561 175.308 119.386C175.982 119.12 176.6 118.765 177.265 118.629C179.558 118.16 181.523 117.103 183.454 115.899C184.987 114.942 186.704 114.307 188.537 113.975C189.297 113.838 190.098 113.689 190.763 113.343C193.195 112.075 195.742 112.041 198.41 112.368C200.393 112.612 202.417 112.556 204.416 112.715C208.366 113.028 212.306 113.435 216.254 113.728C218.185 113.872 220.129 113.887 222.066 113.887C222.833 113.887 223.622 113.765 224.361 113.567C226.169 113.084 228.007 112.639 229.736 111.965C231.218 111.389 232.722 110.691 233.935 109.731C235.62 108.393 237.466 107.338 239.317 106.264C239.682 106.052 240.147 105.998 240.561 105.859C242.684 105.151 244.979 104.946 246.978 103.847C247.345 103.644 247.947 103.683 248.397 103.783C249.423 104.013 250.442 104.636 251.435 104.582C253.591 104.467 255.959 105.454 257.945 103.446C257.72 103.215 257.446 102.733 257.022 102.511C254.18 101.029 251.205 99.8841 247.976 99.3884C247.381 99.2956 246.789 99.0759 246.251 98.8146C244.206 97.8258 242.197 96.8003 240.463 95.3255C239.162 94.2194 237.373 94.068 235.757 93.9459C234.012 93.8117 232.172 93.985 230.468 94.3879C228.581 94.8347 226.647 94.8298 224.775 95.262C223.051 95.66 221.187 95.7552 219.615 96.4487C217.035 97.584 214.586 99.0148 212.665 101.098C211.709 102.135 210.721 103.1 209.214 103.525C207.089 104.123 205.574 105.673 204.242 107.199C202.813 108.838 200.845 109.348 199.023 110.237C197.482 110.989 195.853 110.725 194.273 110.972C191.688 111.377 189.092 111.724 186.779 113.05C185.83 113.592 184.77 113.867 183.601 113.963C181.848 114.104 180.093 114.339 178.431 115.074C176.525 115.916 174.4 115.94 172.329 116.092C171.781 116.131 171.218 116.29 170.693 116.209C169.506 116.028 168.343 115.73 167.169 115.481C167.166 115.364 167.166 115.252 167.164 115.135C167.857 114.949 168.544 114.749 169.24 114.58C170.956 114.165 172.722 113.875 174.387 113.318C175.618 112.905 176.838 112.29 177.857 111.523C180.535 109.504 183.33 107.629 185.716 105.251C186.921 104.052 188.335 102.831 190.24 102.477C190.664 102.397 191.174 102.233 191.432 101.94C192.428 100.809 193.826 100.443 195.194 99.9891C195.561 99.8645 196.016 99.823 196.28 99.5911C198.519 97.6255 201.114 96.0043 202.895 93.587C203.084 93.3306 203.312 93.0303 203.332 92.7373C203.485 90.5716 205.171 89.0138 205.845 87.0409C206.184 86.0398 207.066 85.1755 207.805 84.3282C209.113 82.8217 209.214 81.1248 208.994 79.296C208.769 77.4232 208.808 75.5187 208.508 73.6581C208.33 72.5325 207.901 71.3703 207.275 70.3961C206.236 68.7773 204.966 67.2878 203.759 65.7667C203.557 65.5103 203.185 65.3736 202.893 65.1831C202.678 65.5103 202.293 65.8326 202.275 66.172C202.177 68.0692 201.417 69.644 199.94 70.9284C199.157 71.6145 198.413 72.3372 197.634 73.0306C195.271 75.1256 194.889 77.7943 195.165 80.6437C195.289 81.9085 195.522 83.1635 195.667 84.4283C195.819 85.7444 195.204 86.9066 194.718 88.0737C194.307 89.0602 193.756 89.9929 193.299 90.9598C192.557 92.52 192.378 94.1877 192.262 95.8675C192.205 96.6611 192.089 97.4522 192.035 98.2457C191.949 99.4739 191.298 100.131 190.119 100.763C187.689 102.067 185.383 103.615 183.511 105.627C182.779 106.413 182.112 107.197 180.962 107.49C180.496 107.61 180.083 107.961 179.677 108.247C178.237 109.253 176.717 110.039 174.896 110.278C174.136 110.378 173.428 110.793 172.67 110.955C170.349 111.45 168.014 111.895 165.682 112.351C165.465 112.393 165.189 112.312 165.023 112.412C162.924 113.679 160.902 112.918 158.78 112.388C156.476 111.812 154.077 111.589 151.729 111.16C150.693 110.972 149.677 110.669 148.661 110.386C147.882 110.171 147.12 109.907 146.393 109.678C147.87 108.886 149.266 108.086 150.713 107.37C152.438 106.513 154.201 105.732 155.951 104.916C156.298 104.755 156.639 104.577 156.998 104.438C158.123 104.001 159.188 103.503 160.509 103.564C162.577 103.659 164.659 103.527 166.735 103.49C166.96 103.486 167.213 103.542 167.404 103.461C170.186 102.287 173.392 101.991 175.721 99.8719C176.634 99.0417 177.236 97.9307 178.405 97.335C179.635 96.7099 180.83 96.0238 182.06 95.4012C183.604 94.6223 185.426 94.4538 186.859 93.4185C187.89 92.6714 188.873 91.8388 189.798 91.0135C190.344 90.5252 190.266 89.3288 190.31 88.4449C190.349 87.6367 190.558 86.953 191.019 86.2669C191.804 85.1022 191.807 83.7349 191.698 82.4408C191.536 80.5217 192.11 78.7856 192.82 76.9031C192.515 76.7102 192.177 76.4978 191.833 76.2805C190.295 77.8651 188.705 79.191 186.639 79.8795C185.693 80.1945 184.749 80.5925 183.769 80.7194C182.177 80.9245 180.77 81.574 179.413 82.2504C178.193 82.8583 176.897 83.6275 176.114 84.653C174.571 86.6795 172.376 87.1947 170.054 87.6294C169.563 87.7221 169.046 87.7026 168.555 87.8052C165.116 88.5279 162.696 90.3665 161.727 93.6359C161.29 95.1009 161.068 96.6245 160.755 98.1212C160.279 100.414 159.263 102.282 156.735 103.153C155.532 103.566 154.436 104.25 153.262 104.743C151.582 105.449 149.873 106.042 148.056 106.423C145.77 106.904 143.557 107.673 141.29 108.239C140.556 108.42 139.728 108.506 138.989 108.381C136.176 107.907 133.358 107.417 130.584 106.77C127.474 106.042 124.545 104.904 121.934 103.041C119.852 101.557 117.691 100.109 115.377 98.9978C113.513 98.1041 111.362 97.7452 109.346 97.1299C108.549 96.8882 107.779 96.5683 106.985 96.3192C105.181 95.7503 103.361 95.284 101.484 94.9226C98.857 94.4147 96.3338 93.4332 93.7304 92.7886C91.8715 92.3271 90.2247 91.4359 88.5752 90.6155C86.8586 89.7585 85.3953 88.4522 83.8027 87.3681C81.1605 85.5686 78.4253 83.896 75.3487 82.8339C73.3606 82.1454 71.2794 81.6961 69.3017 80.9905C67.8978 80.4875 66.5845 79.7501 65.2556 79.0762C63.6734 78.2753 62.1171 77.4281 60.5555 76.5955C60.2246 76.4197 59.904 76.2219 59.3818 75.9191C60.9459 75.4723 62.3239 75.1476 63.6424 74.6714C64.3404 74.4199 64.9351 73.9048 65.5711 73.4994C65.7469 73.3896 65.8761 73.2064 66.0623 73.1185C69.1983 71.6291 72.2619 69.9566 75.5168 68.7431C77.3782 68.0472 79.387 67.6175 81.0571 66.5553C83.3684 65.083 85.6745 63.557 87.7402 61.799C89.5576 60.2558 91.2821 59.6137 93.6554 60.5073C96.1399 61.4425 98.7433 62.092 101.246 62.9807C102.314 63.3616 103.306 63.9769 104.255 64.5947C105.548 65.4322 106.703 66.4674 108.03 67.2439C109.677 68.2035 110.538 69.7881 111.786 71.0602C112.231 71.5144 112.686 72.1004 113.257 72.2786C114.677 72.7254 116.031 73.3017 117.575 73.5116C118.971 73.6997 120.165 74.6812 121.194 75.7409C122.916 77.5111 123.699 79.733 124.736 81.8377C124.902 82.1722 125.005 82.536 125.199 82.851C125.918 84.0181 126.701 85.0778 128.361 85.1437C129.193 85.1779 130.018 85.5271 130.845 85.5344C134.061 85.5564 136.442 86.8871 138.348 89.2995C139.165 90.3372 140.32 91.1844 141.458 91.9365C142.74 92.7813 144.878 91.7484 145.189 90.115C145.473 88.6256 145.856 87.1093 145.181 85.5784C144.865 84.8605 144.811 84.0401 144.633 83.2685C143.919 80.1456 142.823 77.1424 141.217 74.3369C140.07 72.325 138.343 70.7037 136.691 69.0532C136.466 68.8285 136.15 68.643 135.84 68.5453C133.262 67.7298 130.987 66.404 128.72 65.0244C125.85 63.2762 122.657 62.3825 119.242 62.1726C116.683 62.0138 114.372 62.8611 112.078 63.723C110.706 64.2406 109.384 64.7778 107.854 64.6337C107.489 64.5996 107.102 64.7973 106.605 64.917C104.11 62.5217 100.711 61.5548 97.4118 60.4072C96.8922 60.2265 96.3596 60.0727 95.5582 59.8188C96.0856 59.5722 96.3777 59.3842 96.7009 59.2938C99.4025 58.5467 101.975 57.5456 104.356 56.0928C105.706 55.2675 107.171 54.6156 108.593 53.9002C108.73 53.8318 108.924 53.8416 109.09 53.8538C110.612 53.9637 112.171 53.7 113.645 54.3299C115.279 55.0282 116.915 55.7388 118.599 56.3223C120.382 56.9401 122.213 57.4479 124.038 57.9485C127.13 58.7933 130.217 59.6503 133.337 60.3926C134.397 60.6441 135.543 60.6074 136.652 60.6367C139.511 60.7222 142.187 60.0288 144.824 59.0082C146.74 58.2634 148.785 57.8191 150.755 57.194C153.971 56.1734 156.755 54.5082 158.986 52.0763C159.498 51.5147 159.984 50.9238 159.811 50.079C159.646 49.2635 158.363 48.0841 157.249 48.0451C155.791 47.9938 154.868 47.3663 154.209 46.2041C153.818 45.5179 153.19 45.2005 152.334 45.0198C150.119 44.5559 147.952 44.783 145.832 45.3251C144.413 45.6889 143.017 45.7475 141.569 45.8256C139.175 45.955 136.848 45.4227 134.48 45.4227C134.346 45.4227 134.211 45.2762 133.888 45.0907C135.287 44.0822 136.476 42.9933 138.061 42.4341C139.268 42.0044 140.517 41.6699 141.714 41.2206C143.113 40.6981 144.472 40.0828 145.858 39.531C146.523 39.2673 147.192 38.9938 147.888 38.84C149.31 38.525 150.656 38.0953 152.014 37.5557C153.619 36.9184 155.434 36.7597 157.161 36.3959C157.593 36.3031 158.074 36.3055 158.449 36.1151C159.55 35.556 160.605 36.1664 161.68 36.1493C161.859 36.1444 162.078 36.3422 162.213 36.4984C164.201 38.7619 166.706 40.4442 169.299 41.9946C171.572 43.3571 174.048 44.1506 176.804 44.3289C178.805 44.4558 180.799 44.7244 182.779 44.3923C183.676 44.241 184.527 43.7648 185.357 43.3595C186.538 42.7808 187.59 41.831 189.056 42.0703C189.917 42.2095 190.747 42.5123 191.59 42.7442C192.554 43.0128 193.552 43.5817 194.478 43.4889C196.272 43.3131 198.172 43.4547 199.816 42.4512C200.964 41.7529 202.234 41.3647 203.632 41.3305C204.105 41.3183 204.563 40.9984 205.039 40.8666C206.494 40.4588 207.973 40.5247 209.47 40.6224C210.189 40.6712 210.928 40.4539 211.763 40.3441C211.404 39.0744 210.597 38.3712 209.752 37.8267C207.862 36.6132 205.866 35.5462 203.927 34.3962C201.848 33.1582 199.803 31.8715 197.709 30.6555C197.161 30.3357 196.505 30.1648 195.876 29.9865C195.308 29.8254 194.713 29.7253 194.123 29.6398C193.531 29.5519 192.911 29.3932 192.34 29.4835C191.153 29.6667 188.984 29.2491 188.133 28.4507C185.597 26.0774 182.658 26.1311 179.56 27.1469C179.149 27.2811 178.834 27.6572 178.425 27.8012C177.345 28.1846 176.262 28.6582 175.137 28.8194C171.941 29.276 168.971 30.1648 166.127 31.6884C163.322 33.1924 160.413 34.5622 157.099 34.9797C154.511 35.3069 151.954 35.8978 149.403 36.4545C148.777 36.5912 148.226 37.0405 147.652 37.3652C146.249 38.1563 144.762 38.7765 143.133 38.9255C142.164 39.0134 141.264 39.0915 140.512 39.7507C140.341 39.8997 140.028 39.9046 139.506 40.0535C141.512 37.8365 143.63 36.2054 145.825 34.5964C147.484 33.3804 149.271 32.5796 151.184 31.9594C152.06 31.6737 153.045 31.6517 153.989 31.5809C155.806 31.4466 157.36 30.5383 159.064 30.072C160.675 29.6325 162.174 28.8316 163.79 28.4165C166.623 27.6865 168.663 25.9578 170.698 24.107C171.605 23.2817 172.826 22.7543 173.927 22.1292C175.346 21.3235 176.848 20.6423 178.208 19.7584C180.478 18.2836 182.738 16.7624 184.328 14.4258C183.88 13.9912 183.467 13.5858 183.048 13.1781C181.492 13.5077 179.979 13.8886 178.444 14.1401C176.923 14.3891 175.419 14.6821 173.927 15.0533C173.632 15.129 173.273 15.0289 172.955 14.9605C171.784 14.709 170.628 14.3818 169.449 14.1889C167.678 13.8959 165.98 14.3403 164.338 14.8946C162.665 15.461 160.99 16.0592 159.405 16.8113C157.014 17.9515 155.013 19.5289 153.984 21.9778C153.208 23.8189 152.285 25.5988 151.533 27.4521C151.024 28.6998 150.018 29.7692 149.201 30.8973C149.023 31.1439 148.72 31.3368 148.431 31.4784C145.68 32.8262 143.286 34.6403 141.013 36.5961C140.023 37.4482 139.108 38.3932 138.257 39.3723C137.174 40.6175 136.005 41.7358 134.421 42.3926C133.919 42.6002 133.412 42.815 132.885 42.9371C131.021 43.3766 129.284 44.009 127.668 45.054C126.298 45.9404 124.739 46.5679 123.262 47.3101C123.177 47.2271 123.094 47.1441 123.012 47.0611C123.273 46.7315 123.462 46.2553 123.811 46.1015C124.886 45.6229 125.372 44.6829 125.765 43.7966C126.99 41.0277 128.893 38.7179 130.747 36.3178C132.96 33.4561 135.91 31.5638 138.898 29.6251C140.452 28.6192 142.164 27.7768 143.084 26.0383C143.41 25.423 144.144 24.9738 144.752 24.5147C146.411 23.2719 148.089 22.0511 149.788 20.8522C150.088 20.6398 150.556 20.6496 150.861 20.4445C151.587 19.9561 152.275 19.4165 152.952 18.8672C153.247 18.6303 153.418 18.203 153.741 18.0565C155.243 17.3826 156.055 16.0885 157.045 14.9434C157.572 14.333 157.932 13.6737 158.294 12.9486C159.806 9.92823 161.132 6.77115 163.643 4.30019C164.581 3.37479 165.662 2.57881 166.592 1.65098C166.903 1.34089 166.954 0.796395 167.107 0.403287C165.667 -0.317004 164.555 0.0590121 163.361 0.515604C161.293 1.3067 159.255 2.13931 157.231 3.03296C154.889 4.07067 153.847 5.9361 152.539 7.70143C150.832 9.99903 148.886 11.9426 146.264 13.4491C143.441 15.0728 140.656 16.9529 139.041 19.8878C136.861 21.3552 136.634 23.731 135.941 25.8796C135.618 26.8783 135.463 27.9282 135.189 28.9439C134.855 30.1794 133.893 31.0218 133.022 31.9228C131.207 33.8028 129.403 35.6878 127.639 37.6118C127.246 38.0391 126.97 38.6007 126.778 39.1452C126.217 40.7591 124.646 41.8701 124.33 43.5988C124.312 43.7013 124.266 43.8137 124.196 43.8894C122.458 45.7157 121.047 47.8229 118.356 48.697C116.055 49.449 113.906 50.6088 111.629 51.4292C109.964 52.0299 108.224 52.5597 106.471 52.7917C103.699 53.1604 100.928 53.4753 98.2831 54.369C95.4987 55.3139 92.7376 56.3296 89.9816 57.3551C88.159 58.0315 86.3338 58.7225 84.5654 59.5209C83.5675 59.9726 82.7091 60.6905 81.75 61.2325C80.3177 62.0407 78.8854 62.8635 77.3937 63.5619C75.4573 64.4677 73.464 65.2637 71.4888 66.0939C68.8673 67.1975 66.4501 68.621 64.0845 70.1446C61.4707 71.8269 58.601 73.0453 55.5607 73.8315C54.7799 74.0342 53.7613 73.8559 52.978 73.5556C48.9914 72.0271 45.0979 70.2764 41.0777 68.8456C37.4118 67.5393 33.6243 66.5431 29.8911 65.4053C28.663 65.0293 27.4557 64.5825 26.2122 64.2504C24.0043 63.6669 21.7861 63.1004 19.5524 62.6072C15.0643 61.6183 10.7597 60.1167 6.52753 58.4417C5.31502 57.9607 4.26279 57.133 3.11491 56.5006C0.193498 54.8915 -2.90889 53.7024 -6.21551 52.9968C-6.85408 52.86 -7.42802 52.8088 -7.92441 53.4314C-7.48749 54.1224 -6.67053 54.2933 -5.97766 54.4251C-3.00971 54.9916 -0.328736 56.2515 2.21005 57.6726C5.12887 59.3012 8.17696 60.605 11.3052 61.7819C12.5358 62.2434 13.7845 62.6609 14.9996 63.1688C11.9826 63.3348 9.15163 62.6243 6.38275 61.6427C5.33828 61.2716 4.34294 60.7857 3.30881 60.3877C2.70901 60.1582 2.12215 59.6747 1.41894 60.1606L1.43445 60.1289ZM82.1274 88.0029C83.2081 87.9346 83.5002 88.9088 84.0225 89.5534C83.3917 89.0211 82.7608 88.4913 82.1326 87.959C81.3441 88.0347 80.902 87.5585 80.6073 86.8895C81.114 87.2607 81.6207 87.6318 82.1274 88.0029ZM164.71 116.221C163.958 116.661 163.157 116.534 162.2 115.796C163.172 115.362 163.88 116.104 164.7 116.236C165.186 116.478 165.675 116.719 166.339 117.049C165.344 117.252 164.909 116.929 164.71 116.221ZM109.687 116.19C109.434 115.857 108.888 115.645 109.219 114.79C109.49 115.403 109.987 115.647 109.64 116.19C110.874 117.327 110.969 117.655 110.331 119.102C110.093 118.023 109.891 117.105 109.687 116.19ZM104.004 96.9077C105.509 96.495 106.486 97.4571 107.575 98.1236C107.877 98.1212 108.208 98.0382 108.474 98.1285C109.361 98.424 110.199 98.9636 111.104 99.0881C113.337 99.3933 115.204 100.438 117.096 101.454C117.709 101.786 118.268 102.209 118.852 102.592C118.795 102.697 118.738 102.804 118.681 102.909C117.642 102.538 116.603 102.167 115.561 101.796C116.373 102.504 117.337 102.922 118.234 103.439C119.219 104.008 120.142 104.672 121.091 105.292C122.228 105.246 122.929 106.069 123.821 106.506C122.854 106.203 121.74 106.179 121.099 105.248C120.796 105.219 120.463 105.263 120.201 105.156C117.748 104.159 115.292 103.168 112.867 102.113C110.553 101.107 107.882 100.817 105.977 98.9831C105.382 99.3127 105.276 99.7229 105.532 100.221C106.145 101.405 106.799 102.575 107.391 103.769C107.774 104.54 108.071 105.349 108.407 106.14C108.278 106.191 108.151 106.24 108.022 106.291C106.623 103.481 105.225 100.668 103.71 97.6231C105.103 98.0675 106.279 98.3483 107.37 98.8122C108.901 99.4617 110.362 100.258 111.859 100.971C112.743 101.393 113.694 101.574 114.992 101.82C114.537 101.378 114.387 101.12 114.16 101.029C112.831 100.497 111.46 100.05 110.15 99.4812C109.255 99.093 108.43 98.5534 107.575 98.0772C106.248 98.0406 105.124 97.4644 104.007 96.8662C103.1 96.8857 102.156 97.0542 101.417 96.3119C102.378 96.0873 103.242 96.2826 104.004 96.9077ZM56.7551 75.3575C56.9749 74.9132 57.4325 75.2013 57.6626 75.1036C58.0555 74.9376 58.2727 74.4126 58.5829 74.0537C58.6372 73.9951 58.8104 74.039 58.9061 73.9951C60.7417 73.1454 62.7143 72.4813 64.3741 71.3923C66.9956 69.666 69.6507 68.0643 72.6781 66.9875C72.2463 68.0789 71.6052 68.8261 70.6124 69.3681C68.8725 70.3155 67.0266 71.1261 65.4056 72.2298C63.4899 73.5336 61.3208 74.1855 59.1827 74.9718C58.7458 75.1329 58.3373 75.3746 57.9547 75.5602C58.4433 77.2791 60.1367 77.6454 61.2691 78.7026C59.6041 78.7808 56.5819 77.5746 55.4702 76.5051C55.8968 76.1145 56.3234 75.7238 56.7499 75.3234C56.07 75.6408 55.3927 75.9582 54.6481 76.3049C52.2929 75.4454 49.8394 74.5005 47.6755 73.0111C49.3223 73.5068 50.8839 74.1782 52.4893 74.7374C53.5467 75.1036 54.6196 75.7604 55.827 74.9791C55.9743 74.8839 56.4371 75.2208 56.7551 75.3575ZM149.263 112.986V112.937C149.343 113.013 149.421 113.15 149.501 113.15C151.859 113.206 154.113 113.797 156.383 114.312C157.128 114.48 157.751 114.737 158.283 115.574C157.497 115.445 156.965 115.337 156.427 115.267C151.828 114.671 147.228 114.087 142.632 113.477C141.81 113.367 140.995 113.177 140.191 112.976C138.296 112.503 136.393 112.044 134.519 111.494C133.283 111.133 132.063 110.686 130.897 110.163C129.687 109.624 128.56 108.933 127.381 108.332C126.46 107.863 125.519 107.431 124.586 106.982C124.646 106.865 124.705 106.748 124.765 106.63C126.427 107.351 128.05 108.178 129.767 108.762C131.598 109.385 133.547 109.695 135.39 110.293C138.516 111.309 139.426 111.521 140.856 111.174C138.994 110.33 136.825 110.63 135.132 109.353C137.363 108.945 148.666 111.316 150.786 112.559C150.302 112.695 149.783 112.842 149.263 112.986ZM192.686 158.015C192.531 159.995 193.529 161.773 193.811 163.685C194.051 165.318 195.124 166.681 196.225 167.955C197.332 169.235 198.162 170.607 198.684 172.226C199.085 173.476 199.413 174.724 199.734 175.991C200.289 178.193 200.176 180.378 200.124 182.586C200.119 182.852 199.987 183.116 199.889 183.479C199.005 182.466 198.224 181.582 197.451 180.691C196.988 180.159 196.486 179.653 196.088 179.08C194.982 177.49 193.966 175.844 192.826 174.274C192.278 173.517 191.375 172.968 190.905 172.182C189.622 170.038 187.823 168.424 185.628 167.172C184.718 166.654 184.359 165.853 184.191 164.942C184.098 164.427 184.077 163.897 184.056 163.37C183.994 161.793 184.167 160.176 183.855 158.645C183.263 155.764 183.64 152.927 183.937 150.085C184.196 147.633 184.754 145.206 184.121 142.596C186.654 144.813 188.42 147.335 189.873 150.038C190.954 152.05 191.934 154.128 192.322 156.396C192.42 156.963 192.565 157.522 192.689 158.091C193.317 157.944 193.229 157.466 193.172 157.061C192.691 153.567 190.987 150.492 189.245 147.477C188.48 146.161 187.182 145.118 186.127 143.951C185.752 143.534 185.214 143.187 185.362 142.354C186.166 142.821 186.817 143.282 187.536 143.602C190.442 144.891 192.733 146.852 194.545 149.313C195.171 150.163 195.54 151.183 196.171 152.028C197.813 154.216 198.394 156.824 199.416 159.248C199.788 160.13 200.106 160.982 200.688 161.773C201.761 163.236 202.797 164.732 203.715 166.285C204.222 167.142 204.747 168.141 204.759 169.081C204.793 171.757 205.532 174.475 204.418 177.121C203.813 178.552 203.252 179.988 202.112 181.143C201.792 181.467 201.549 181.858 201.122 182.407C201.065 181.504 200.931 180.769 200.987 180.049C201.148 178.02 200.607 176.059 200.171 174.138C199.545 171.396 198.219 168.893 196.21 166.712C195.116 165.528 194.628 163.961 194.348 162.371C194.074 160.833 193.842 159.261 192.686 158.015ZM247.141 124.03C245.088 123.954 243.038 123.842 240.985 123.815C238.87 123.788 236.753 123.786 234.641 123.886C232.562 123.986 230.494 124.232 228.42 124.413C228.787 123.974 229.214 123.751 229.659 123.568C232.446 122.421 235.16 121.095 237.479 119.261C240.176 117.134 243.172 116.326 246.598 116.387C247.735 116.404 248.958 116.197 250 115.777C251.223 115.284 252.474 115.296 253.712 115.166C256.083 114.92 258.475 114.788 260.858 114.676C262.738 114.588 264.638 114.139 266.564 114.81C266.631 115.437 266.696 116.048 266.753 116.585C265.548 117.615 263.749 117.611 262.681 119.232C263.327 118.983 263.674 118.848 264.02 118.714C264.837 118.394 265.633 118.009 266.476 117.769C267.771 117.398 268.539 117.833 268.493 119.037C268.459 119.959 268.345 121.192 267.725 121.72C266.432 122.824 265.483 124.274 263.875 125.08C261.732 126.152 259.46 126.777 257.089 127.138C256.264 127.265 255.429 127.358 254.625 127.563C253.066 127.963 251.543 128.505 249.972 128.857C247.852 129.331 245.592 129.523 243.534 129.111C239.837 128.373 236.243 127.16 232.614 126.115C231.737 125.863 230.897 125.502 230.039 125.189C230.375 124.889 230.636 124.862 230.894 124.84C232.51 124.699 234.126 124.535 235.745 124.43C236.848 124.359 237.976 124.245 239.061 124.376C241.748 124.699 244.416 125.175 247.141 124.03ZM216.546 139.249C216.918 139.095 217.231 138.868 217.559 138.846C221.052 138.604 224.333 139.053 227.079 141.385C227.989 142.154 228.992 142.843 230.023 143.463C231.965 144.635 233.881 145.812 235.29 147.597C235.651 148.053 236.184 148.398 236.667 148.754C237.802 149.589 238.787 150.593 239.421 151.772C240.838 154.397 241.843 157.168 242.301 160.113C242.453 161.087 242.787 162.068 243.64 162.798C243.917 163.038 244.025 163.453 244.315 163.978C243.485 163.577 242.906 163.299 242.309 163.011C241.898 163.77 242.453 163.927 242.896 164.119C244.245 164.71 244.248 164.705 244.798 165.653C241.585 165.172 238.754 164.097 236.249 162.154C234.922 161.126 233.449 160.293 231.66 159.903C230.227 159.588 228.738 158.933 227.621 158.04C225.468 156.326 223.159 154.756 222.156 151.955C221.086 148.971 219.643 146.112 219.398 142.755C220.129 143.465 220.76 144.105 221.419 144.718C221.735 145.009 222.099 145.253 222.446 145.511C223.968 146.642 225.553 147.707 226.998 148.918C228.211 149.938 229.183 151.161 230.005 152.526C230.9 154.011 232.11 155.325 233.115 156.753C233.679 157.551 233.984 158.538 234.635 159.253C235.354 160.042 236.339 160.613 237.208 161.28C237.381 161.414 237.544 161.563 237.727 161.685C238.953 162.505 240.321 162.957 241.851 163.013C241.344 162.608 240.773 162.327 240.184 162.086C238.144 161.255 236.287 160.135 235 158.423C233.361 156.247 231.926 153.93 230.346 151.713C229.55 150.6 228.756 149.443 227.735 148.529C225.6 146.618 223.384 144.767 221.047 143.077C220.212 142.469 219.439 141.839 218.723 141.129C218.343 140.75 218.051 140.291 217.66 139.925C217.394 139.676 217.019 139.529 216.546 139.249ZM168.966 174.111C168.537 174.294 168.265 174.487 167.976 174.514C164.884 174.802 161.799 175.231 158.679 175.148C158.239 175.136 157.776 175.227 157.36 175.363C154.946 176.152 152.544 176.97 150.137 177.773C150.033 177.807 149.915 177.8 149.803 177.81C147.337 178.015 144.933 177.666 142.877 176.389C140.982 175.212 139.214 173.808 137.562 172.333C134.914 169.962 131.853 168.451 128.281 167.889C126.727 167.643 125.287 167.169 123.702 166.473C125.02 165.46 126.349 164.708 127.88 164.771C130.331 164.869 132.769 165.213 135.214 165.453C136.698 165.597 138.082 165.492 139.061 164.2C139.268 163.929 139.659 163.636 139.982 163.614C141.22 163.531 142.453 163.719 143.428 164.483C144.881 165.619 146.013 167.132 147.877 167.784C148.069 167.85 148.2 168.07 148.371 168.209C150.809 170.238 153.304 172.257 156.445 173.205C159.17 174.025 162.014 174.323 164.912 174.045C166.176 173.923 167.479 173.373 168.966 174.111ZM114.033 53.2092C115.253 52.611 115.253 52.6012 116.055 52.7697C117.151 53.0041 118.25 53.2312 119.335 53.4998C122.078 54.1761 124.71 53.761 127.319 52.8722C128.508 52.4669 129.762 52.2325 130.943 51.815C132.174 51.3828 133.335 51.7271 134.547 51.8174C137.135 52.0128 139.692 52.0396 142.327 51.5757C144.656 51.1631 147.034 50.9458 149.302 50.2352C150.607 49.8299 151.913 49.3733 153.125 48.7751C153.614 48.5358 153.95 48.5481 154.356 48.6946C155.613 49.1487 156.732 49.9667 158.167 49.9569C158.268 49.9569 158.371 50.1791 158.56 50.4013C157.391 52.0445 155.941 53.3703 154.064 54.3079C150.124 56.2784 145.801 57.277 141.634 58.6517C138.878 59.56 135.941 59.7529 133.035 59.2133C130.744 58.7884 128.614 57.7214 126.223 57.675C126.168 57.675 126.117 57.6457 126.06 57.6286C122.921 56.7447 119.894 55.5654 116.828 54.4837C115.956 54.1761 115.145 53.7219 114.033 53.2092ZM144.074 89.3751C142.691 88.3838 141.647 87.3632 140.923 86.0984C139.873 84.2647 139.33 82.2528 137.862 80.529C136.427 78.8442 134.886 77.555 132.831 76.7298C132.275 76.5076 131.667 76.3367 131.197 76.0021C129.286 74.6446 127.409 73.2431 125.54 71.8318C124.63 71.1457 123.79 70.3741 122.875 69.6904C121.285 68.5062 119.392 67.8909 117.5 67.3C116.068 66.8532 114.617 66.4503 113.167 66.0475C112.515 65.8668 111.848 65.7325 110.848 65.4981C112.911 64.1137 114.969 63.4178 116.952 63.1834C120.132 62.8074 123.185 63.6888 126.008 65.2466C128.257 66.4894 130.61 67.5711 132.916 68.7235C133.997 69.2656 135.266 69.6172 136.124 70.3814C139.421 73.309 141.626 76.8689 142.57 81.0955C142.916 82.6484 143.428 84.1695 143.785 85.72C144.041 86.8358 144.392 87.9639 144.074 89.3751ZM126.843 181.109C126.931 181.047 127.016 180.986 127.102 180.928C128.1 181.897 129.079 182.886 130.095 183.836C130.959 184.644 131.794 185.506 132.769 186.175C134.11 187.095 135.584 187.87 136.988 188.68C138.319 189.444 139.578 190.26 140.747 191.202C141.838 192.084 142.722 193.085 143.392 194.391C144.584 196.723 145.688 199.257 148.498 200.42C149.255 200.732 150.031 201.015 150.755 201.387C151.965 202.007 153.001 202.805 153.552 204.353C152.13 204.485 150.871 204.693 149.609 204.695C148.275 204.695 146.941 204.512 145.607 204.392C143.337 204.19 141.259 203.565 139.403 202.219C138.18 201.33 137.241 200.263 136.256 199.167C133.599 196.21 132.138 192.643 130.341 189.256C129.048 186.824 128.394 184.109 126.996 181.702C126.895 181.528 126.892 181.306 126.843 181.109ZM80.4237 155.315C80.341 155.254 80.2608 155.19 80.1807 155.129C80.4625 154.402 80.8219 153.689 81.0158 152.941C81.7241 150.195 83.4408 148.122 85.7469 146.415C88.3813 144.464 91.2252 142.806 93.5882 140.479C96.1011 138.006 99.1363 136.026 101.541 133.406C102.032 132.871 102.794 132.431 103.516 132.239C106.957 131.325 110.413 130.422 114.02 130.288C115.036 130.249 116.052 130.192 117.306 130.134C116.729 130.861 116.422 131.474 115.918 131.85C114.291 133.069 112.621 134.238 110.915 135.349C110.235 135.794 109.436 136.109 108.648 136.358C107.058 136.861 105.455 137.337 103.829 137.718C102.396 138.057 101.243 138.753 100.346 139.818C99.5551 140.758 98.8389 141.756 98.0995 142.735C97.7479 143.204 97.4403 143.702 97.0835 144.166C96.8612 144.454 96.6052 144.728 96.3286 144.974C95.84 145.409 95.3358 145.834 94.8136 146.234C94.0923 146.786 93.3736 147.345 92.6083 147.838C91.6 148.485 90.4754 148.988 89.5395 149.714C88.8544 150.246 88.1564 150.549 87.3162 150.549C86.3906 150.546 85.7417 150.978 85.0876 151.528C83.5571 152.815 81.9801 154.055 80.4237 155.315ZM76.0752 158.577C76.0597 158.023 76.5302 157.971 76.9775 157.905C77.4971 157.827 78.0271 157.8 78.5338 157.676C79.6197 157.41 80.1962 156.55 80.9666 155.867C82.7091 154.314 84.6455 152.954 86.5225 151.538C86.7707 151.352 87.13 151.213 87.4429 151.208C89.0483 151.176 90.2117 150.361 91.3803 149.44C92.0887 148.881 92.9599 148.495 93.7821 148.078C95.3979 147.262 96.3389 145.778 97.6523 144.659C97.6885 144.628 97.6911 144.559 97.7247 144.515C98.1409 143.959 98.5623 143.404 98.9837 142.848C99.3405 142.376 99.749 141.934 100.039 141.429C100.514 140.592 101.236 140.008 102.024 139.456C103.689 138.289 105.612 137.669 107.595 137.337C110.026 136.929 111.923 135.708 113.759 134.299C114.214 133.95 114.697 133.633 115.168 133.298C114.144 134.478 113.182 135.838 111.835 136.482C109.501 137.603 108.301 139.583 107.021 141.446C105.535 143.607 103.981 145.651 101.941 147.367C101.279 147.924 100.747 148.612 100.126 149.218C98.3348 150.969 96.5742 152.751 94.7154 154.436C92.872 156.108 90.3669 156.548 88.0685 157.336C86.2898 157.944 84.4594 158.45 82.5488 158.506C80.4237 158.572 78.296 158.557 76.0752 158.577ZM126.965 130.503C128.823 130.151 130.69 129.702 132.562 130.429C133.014 130.605 133.562 130.656 134.056 130.627C135.39 130.539 136.724 130.402 138.05 130.234C139.736 130.024 141.489 129.851 142.95 130.737C144.855 131.889 147.001 132.473 148.989 133.401C150.695 134.197 152.546 134.937 153.891 136.143C155.437 137.53 156.882 139.161 157.482 141.246C157.655 141.847 157.95 142.472 158.371 142.938C159.816 144.53 160.788 146.361 161.631 148.273C161.807 148.669 161.98 149.064 162.156 149.457C161.406 149.101 160.9 148.622 160.413 148.127C159.023 146.715 157.678 145.26 156.238 143.893C155.68 143.363 154.739 143.155 154.271 142.579C153.433 141.556 152.329 141.229 151.109 141.004C149.364 140.687 147.541 140.557 145.892 139.984C142.709 138.877 139.537 137.705 136.941 135.474C135.799 134.487 134.485 133.608 133.107 132.952C131.127 132.007 129.017 131.308 126.965 130.503ZM143.518 90.3176C142.764 91.0037 142.453 91.1527 141.978 90.7596C140.889 89.8635 139.858 88.9063 138.821 87.9541C138.503 87.6635 138.296 87.2509 137.955 86.9945C135.75 85.3488 133.296 84.2769 130.429 84.1695C129.759 84.1427 129.017 84.1451 128.449 83.8716C127.629 83.481 126.76 82.9755 126.241 82.2943C125.605 81.4617 125.243 80.4216 124.878 79.4351C123.361 75.3014 120.566 72.6229 115.832 71.8708C114.428 71.6511 113.136 71.0041 112.208 69.7637C111.21 68.4305 109.951 67.2732 108.79 66.0206C108.973 66.006 109.255 65.9254 109.516 65.9669C111.424 66.2697 113.337 66.5089 115.142 67.2854C116.515 67.8763 118.04 68.162 119.403 68.7724C121.89 69.8907 124.118 71.3801 126.117 73.1991C127.869 74.7935 129.767 76.2414 132.089 77.0716C133.456 77.5575 134.692 78.1777 135.579 79.3546C136.331 80.3532 137.283 81.2151 138.035 82.2137C138.498 82.8242 138.849 83.5469 139.072 84.2696C139.356 85.2023 140.028 86.8138 140.597 87.4682C141.269 88.2447 141.916 89.0455 142.621 89.7976C142.851 90.0417 143.234 90.1589 143.518 90.3176ZM167.668 96.3632C168.348 98.3336 167.226 99.0124 165.814 99.5862C165.064 99.8914 164.444 100.473 163.707 100.817C162.893 101.2 162.009 101.454 161.016 101.818C161.422 100.546 161.825 99.552 162.05 98.5241C162.365 97.0884 162.647 95.6331 162.761 94.173C162.983 91.3846 166.665 89.1969 169.222 88.9527C172.215 88.6671 175.028 88.0859 176.908 85.4587C177.598 84.4967 178.782 83.8497 179.749 83.0659C179.953 82.8998 180.171 82.7021 180.419 82.6386C182.611 82.0624 184.816 81.5203 187.011 80.9538C187.533 80.8195 188.038 80.6315 188.826 80.38C188.498 81.6692 188.275 82.7289 187.939 83.7544C187.802 84.172 187.474 84.5797 187.122 84.8752C186.538 85.3659 185.907 85.8347 185.225 86.1814C183.741 86.9384 182.386 87.8247 181.215 88.982C180.884 89.3092 180.38 89.4875 179.946 89.717C179.563 89.9196 179.152 90.0759 178.782 90.2957C177.642 90.9647 176.52 91.6581 175.388 92.3344C173.661 93.3722 171.784 94.1877 170.403 95.7137C169.847 96.3315 169.002 96.7246 167.668 96.3632ZM208.793 38.7643C208.762 38.84 208.731 38.9206 208.7 38.9963C206.861 38.5519 205.013 38.1344 203.185 37.6582C200.747 37.0185 198.242 36.7231 195.742 36.6889C193.857 36.662 191.975 37.1455 190.08 37.2651C188.547 37.3628 186.967 37.4312 185.463 37.1943C183.547 36.894 181.683 36.2909 179.803 35.7879C177.901 35.2776 176.083 35.866 174.26 36.1859C173.609 36.3007 173.03 36.4716 172.327 36.3812C170.196 36.1102 168.048 35.9588 165.907 35.7635C166.272 35.1458 166.67 34.7697 167.151 34.5573C168.312 34.0446 169.511 33.6075 170.698 33.1436C174.31 31.7299 178.092 31.2586 181.965 31.3978C185.183 31.515 188.397 31.8104 191.608 31.2098C193.462 30.8631 195.251 31.1903 196.892 32.0912C198.195 32.8066 199.475 33.5587 200.77 34.2838C203.444 35.7806 206.119 37.27 208.793 38.7643ZM163.961 36.2958C164.328 36.264 164.496 36.2103 164.638 36.2445C165.858 36.5448 167.058 37.021 168.296 37.1382C170.615 37.3603 172.968 37.4409 175.251 36.8574C176.768 36.4691 178.273 36.2372 179.821 36.5692C181.171 36.8598 182.546 37.0918 183.852 37.5117C186.985 38.5201 190.134 38.022 193.291 37.7681C194.783 37.6485 196.298 37.4336 197.774 37.563C199.69 37.7315 201.598 38.1148 203.464 38.5763C204.118 38.7374 205.07 38.5348 205.501 39.4138C205.3 39.5139 205.158 39.6506 205.018 39.6433C203.338 39.5749 201.786 40.0315 200.333 40.7543C198.935 41.4526 197.484 41.897 195.91 42.0654C194.426 42.2241 193.087 42.0972 191.807 41.245C190.796 40.5711 189.555 40.1292 188.322 40.5272C187.014 40.9496 185.631 41.4208 184.578 42.2193C183.224 43.2448 181.784 43.4962 180.186 43.4352C178.79 43.3815 177.396 43.2789 176.003 43.1666C175.393 43.1178 174.723 43.1251 174.191 42.8858C171.931 41.8701 169.527 41.0912 167.663 39.3894C166.523 38.3492 165.289 37.3994 163.961 36.2958ZM204.39 111.35C204.39 111.223 204.39 111.096 204.39 110.967C204.524 110.901 204.651 110.808 204.793 110.776C206.422 110.41 208.102 110.181 209.674 109.661C211.37 109.099 212.986 108.501 214.853 108.774C215.561 108.877 216.38 108.354 217.081 108.476C218.632 108.75 219.93 108.122 221.269 107.673C222.914 107.124 224.509 106.442 226.13 105.827C228.038 105.104 230.034 104.804 232.068 104.54C233.503 104.355 235.134 104.001 236.205 103.173C237.717 102.003 239.674 101.752 241.125 100.585C241.275 100.465 241.647 100.573 241.911 100.607C243.772 100.831 244.99 102.135 246.59 102.975C246.329 103.215 246.2 103.437 246.021 103.478C244.837 103.757 243.648 104.015 242.451 104.24C239.762 104.736 237.399 105.817 235.302 107.505C234.281 108.325 233.162 109.114 231.952 109.631C229.778 110.559 227.523 111.345 225.251 112.044C224.049 112.415 222.743 112.605 221.474 112.649C219.855 112.703 218.229 112.549 216.608 112.444C213.852 112.268 211.094 112.085 208.34 111.858C207.019 111.748 205.706 111.523 204.39 111.35ZM122.244 178.271C122.546 179.512 122.8 180.811 123.187 182.071C124.26 185.574 124.121 189.068 123.203 192.562C122.668 194.606 121.186 196.078 119.71 197.548C118.097 199.16 116.598 200.835 116.088 203.108C115.884 204.021 115.512 204.905 115.163 205.786C113.8 209.239 111.042 211.678 108.118 214.503C108.299 213.402 108.337 212.662 108.552 211.971C108.911 210.826 108.844 209.722 108.777 208.538C108.676 206.773 108.968 204.939 110.31 203.491C110.861 202.898 111.652 202.451 112.037 201.785C113.348 199.521 115.359 197.729 116.386 195.219C117.184 193.266 117.626 191.317 117.916 189.313C118.234 187.108 118.516 184.91 119.594 182.901C120.421 181.365 121.329 179.866 122.244 178.271ZM162.091 150.839C159.416 150.453 156.817 149.972 154.142 150.09C152.285 150.17 150.416 150.187 149.064 148.622C148.904 148.437 148.565 148.395 148.314 148.275C146.975 147.638 145.576 147.086 144.312 146.332C142.572 145.297 140.915 144.132 139.263 142.972C138.741 142.606 138.262 142.137 137.903 141.624C136.74 139.959 135.708 138.204 134.49 136.575C133.826 135.686 132.999 134.824 132.05 134.231C130.706 133.391 129.178 132.82 127.738 132.117C127.495 131.997 127.296 131.806 127.073 131.648C130.261 132.444 133.262 133.53 135.822 135.51C137.414 136.746 139.072 137.906 140.713 139.083C140.928 139.236 141.217 139.317 141.489 139.383C143.542 139.886 145.6 140.369 147.65 140.875C149.198 141.256 150.856 141.446 152.259 142.105C154.214 143.023 155.92 144.278 157.275 146.044C158.609 147.785 160.416 149.203 162.091 150.839ZM203.198 110.376C203.157 110.22 203.115 110.063 203.074 109.907C204.4 108.694 205.711 107.47 207.055 106.279C207.541 105.844 208.04 105.339 208.637 105.109C210.075 104.555 211.577 104.159 213.043 103.666C213.826 103.405 214.635 103.156 215.344 102.76C218.34 101.09 221.512 100.399 224.974 100.988C227.099 101.349 229.108 101.298 230.957 99.9329C231.83 99.2908 232.937 98.7292 234.139 98.861C235.913 99.0588 237.673 99.3591 239.429 99.6643C239.747 99.718 240.021 100.006 240.468 100.282C239.928 100.477 239.623 100.621 239.302 100.695C237.818 101.032 236.499 101.61 235.282 102.528C234.576 103.058 233.583 103.305 232.678 103.527C231.499 103.82 230.274 103.94 229.077 104.174C226.424 104.689 223.94 105.646 221.53 106.792C219.483 107.766 217.262 107.78 215.052 107.946C213.454 108.064 211.75 108.066 210.305 108.615C208.193 109.416 205.949 109.536 203.831 110.188C203.619 110.254 203.41 110.315 203.198 110.376ZM125.253 178.286C125.305 178.203 125.357 178.12 125.408 178.037C127.003 178.205 128.71 178.096 130.165 178.616C131.714 179.167 133.291 179.675 134.827 180.264C136.065 180.74 137.202 181.384 138.061 182.444C138.932 183.521 139.881 184.563 140.928 185.489C141.941 186.383 143.125 187.1 144.224 187.906C145.108 188.556 145.964 189.234 146.859 189.869C147.694 190.463 148.715 190.821 148.927 192.028C149.017 192.533 149.638 192.951 150 193.419C150.227 193.712 150.522 194.005 150.61 194.34C151.013 195.91 152.027 197.321 151.879 199.052C151.825 199.665 152.177 200.305 152.402 201.159C150.266 200.161 148.004 199.694 146.572 197.936C145.685 196.852 144.868 195.68 144.26 194.442C142.774 191.42 140.214 189.493 137.265 187.896C135.956 187.186 134.527 186.583 133.423 185.648C130.618 183.279 127.965 180.75 125.253 178.286ZM121.747 167.032C122.213 167.079 122.766 166.983 123.125 167.191C124.907 168.219 126.947 168.344 128.896 168.773C131.037 169.247 133.136 169.848 134.894 171.129C136.753 172.482 138.526 173.945 140.328 175.368C141.254 176.096 142.091 176.933 143.208 177.417C145.781 178.533 148.412 178.87 151.163 178.003C152.647 177.531 154.191 177.219 155.669 176.738C157.683 176.079 159.682 175.463 161.866 175.839C162.166 175.893 162.51 175.656 162.841 175.629C163.226 175.603 163.619 175.661 164.01 175.681C164.025 175.788 164.041 175.898 164.056 176.005C163.562 176.215 163.053 176.399 162.577 176.64C161.246 177.314 159.778 177.844 158.648 178.75C157.533 179.646 156.427 180.466 155.147 181.148C153.017 182.285 150.866 182.996 148.361 182.547C145.527 182.039 142.67 181.548 140.346 179.839C138.508 178.486 136.861 176.904 135.145 175.407C133.41 173.898 131.735 172.326 129.328 171.767C128.467 171.567 127.65 171.198 126.794 170.976C124.547 170.387 123.43 168.463 121.747 167.032ZM153.195 47.7374C151.766 48.2673 150.543 48.7629 149.291 49.1731C147.929 49.6175 146.554 50.0472 145.155 50.3647C144.017 50.621 142.813 50.6137 141.68 50.8823C140.077 51.2607 138.474 51.3511 136.848 51.1728C133.586 50.8164 130.442 50.9507 127.321 52.2203C125.072 53.1335 122.595 53.4875 120.093 52.9211C119.589 52.8063 119.035 52.8893 118.516 52.8185C117.619 52.694 116.665 52.6501 115.827 51.7002C117.409 51.146 118.798 50.2719 120.199 50.2523C123.216 50.2059 125.667 49.1243 128.133 47.6617C129.571 46.8096 131.303 46.2895 133.11 46.4629C134.772 46.6216 136.432 46.8389 138.094 46.9976C140.695 47.2393 143.278 47.3101 145.861 46.6802C147.254 46.3432 148.728 46.1625 150.165 46.1577C151.236 46.1552 152.407 46.3725 153.195 47.7374ZM187.205 131.548C189.206 130.92 190.951 130.588 192.745 130.522C193.167 130.505 193.614 130.705 194.017 130.874C196.512 131.911 198.462 133.682 200.395 135.398C201.755 136.607 203.014 138.003 203.756 139.671C204.095 140.435 204.638 140.731 205.401 140.802C206.66 140.914 207.733 141.346 208.614 142.227C208.883 142.496 209.418 142.572 209.602 142.86C210.744 144.679 211.794 146.552 212.937 148.368C213.679 149.545 214.529 150.663 215.553 152.124C214.845 151.779 214.475 151.655 214.17 151.445C211.546 149.626 208.767 148.07 205.819 146.759C203.216 145.607 201.466 143.602 199.878 141.378C198.053 138.814 195.832 136.519 193.126 134.756C191.365 133.611 189.413 132.729 187.205 131.548ZM186.647 132.287C187.053 132.346 187.283 132.324 187.448 132.412C188.813 133.14 190.132 133.95 191.53 134.609C192.818 135.217 193.782 136.128 194.78 137.066C196.991 139.144 198.979 141.378 200.706 143.829C201.215 144.554 201.768 145.37 202.521 145.797C204.121 146.708 205.724 147.631 207.477 148.305C208.687 148.769 209.842 149.44 210.889 150.187C212.404 151.266 214.049 152.116 215.716 152.941C216.016 153.09 216.293 153.276 216.91 153.637C214.496 153.74 212.492 153.847 210.489 153.889C210.142 153.896 209.731 153.684 209.452 153.459C206.903 151.413 203.772 150.532 200.682 149.611C199.25 149.184 198.221 148.483 197.469 147.26C196.096 145.03 194.94 142.669 193.144 140.684C192.782 140.284 192.49 139.825 192.182 139.385C190.646 137.195 189.522 134.719 187.213 133.069C187.014 132.925 186.91 132.661 186.647 132.287ZM203.175 67.9129C203.33 67.9129 203.482 67.9153 203.637 67.9153C204.017 69.2509 204.485 70.5719 204.752 71.927C204.951 72.9452 204.809 73.9951 204.299 74.962C203.392 76.6809 202.466 78.3925 201.618 80.1408C201.303 80.7878 201.132 81.513 200.987 82.2211C200.724 83.5054 200.667 84.8263 199.935 85.9983C199.744 86.306 199.571 86.6747 199.56 87.0214C199.47 89.8659 198.407 92.3491 196.559 94.5686C196.143 95.0667 195.812 95.6307 195.393 96.1312C194.894 96.727 194.341 97.2861 193.681 97.9991C193.418 94.4563 194.18 91.453 196.008 88.6549C196.678 87.6294 196.983 86.4085 196.835 85.1511C196.649 83.5884 196.455 82.0282 196.303 80.4655C196.236 79.7867 196.166 79.0933 196.256 78.4243C196.631 75.6798 198.12 73.5727 200.566 72.0808C201.724 71.3752 202.332 70.3643 202.691 69.1582C202.82 68.7357 203.012 68.328 203.175 67.9129ZM99.3896 184.593C98.9966 184.356 98.4951 184.222 98.3684 183.938C98.0711 183.272 97.8384 182.539 97.7893 181.821C97.6626 180.032 97.7221 178.232 97.5773 176.443C97.4299 174.606 97.13 172.778 96.8819 170.946C96.8405 170.639 96.5871 170.299 96.6699 170.04C97.3214 167.987 97.4636 165.699 99.0484 164.036C100.191 162.835 100.92 161.438 101.804 160.108C103.206 158.003 104.868 156.14 107.464 155.054C107.518 155.527 107.683 155.925 107.575 156.24C107.135 157.532 107.345 158.919 106.551 160.203C105.755 161.487 105.563 163.091 104.925 164.478C103.937 166.627 101.975 168.351 101.799 170.868C101.791 171.005 101.44 171.098 101.323 171.259C101.14 171.515 100.923 171.803 100.889 172.096C100.739 173.417 100.584 174.743 100.556 176.069C100.525 177.68 101.086 179.282 100.431 180.908C100.002 181.983 99.7929 183.133 99.3896 184.593ZM190.026 79.5474C190.101 79.5694 190.173 79.5938 190.248 79.6183C190.261 80.7268 190.383 81.8475 190.258 82.9438C190.134 84.0303 189.925 85.1608 189.452 86.1399C189.082 86.9017 188.873 87.5732 188.971 88.3912C189.082 89.3263 188.831 90.1467 188.022 90.8157C186.104 92.4028 183.904 93.5699 181.572 94.4367C179.074 95.3646 176.804 96.4877 175.108 98.5167C174.703 99.0026 174.09 99.3323 173.568 99.7327C171.53 101.288 169.041 101.793 166.582 102.284C165.253 102.548 163.849 102.46 162.477 102.531C162.774 102.006 163.107 101.735 163.487 101.557C164.493 101.09 165.519 100.665 166.538 100.223C167.554 99.7791 168.477 99.2102 169.312 98.4948C170.543 97.44 171.828 96.4413 173.082 95.4109C173.242 95.2767 173.4 95.1033 173.472 94.9153C173.914 93.7799 174.589 92.9815 176.039 93.0523C176.313 93.0645 176.662 92.8179 176.879 92.603C178.102 91.3944 179.604 90.6619 181.262 90.1418C181.611 90.0344 182.053 89.822 182.19 89.5436C182.968 87.9736 184.597 87.4316 185.969 86.5404C187.477 85.5637 189.219 84.7213 189.149 82.4823C189.118 81.513 189.713 80.5266 190.026 79.5474ZM119.674 173.195C120.667 174.433 121.499 175.471 121.272 176.833C121.106 177.815 120.809 178.801 120.39 179.709C119.881 180.816 119.023 181.79 118.599 182.915C118.081 184.295 117.841 185.772 117.508 187.213C117.112 188.919 116.778 190.638 116.357 192.338C116.096 193.4 115.773 194.452 115.393 195.48C114.695 197.355 113.05 198.662 112.006 200.339C111.504 201.145 110.737 201.809 110.062 202.512C109.227 203.377 108.358 204.194 108.324 205.493C108.314 205.906 108.048 206.316 107.81 206.976C106.884 205.161 107.042 203.513 106.98 201.912C106.939 200.808 107.469 199.873 108.389 199.17C110.225 197.761 110.967 195.719 111.6 193.732C112.112 192.135 112.089 190.38 112.252 188.69C112.365 187.503 112.647 186.39 113.425 185.43C114.372 184.266 115.287 183.077 116.29 181.956C118.474 179.519 119.625 176.733 119.674 173.195ZM194.511 98.8561C194.434 98.7878 194.354 98.7218 194.279 98.6535C194.953 97.8355 195.698 97.0591 196.29 96.1874C197.606 94.256 199.434 92.6079 199.78 90.1247C199.938 89.0113 200.796 88.0103 200.522 86.7699C200.476 86.5501 200.713 86.2791 200.799 86.0252C201.07 85.2194 201.489 84.4234 201.567 83.6006C201.81 81.0466 203.043 78.8735 204.219 76.6467C204.796 75.5504 205.724 74.5274 205.452 73.1161C205.266 72.1394 205.24 71.1359 205.142 70.1446C206.192 71.551 207.11 72.933 207.133 74.7349C207.156 76.4807 207.394 78.2314 207.64 79.965C207.813 81.176 207.57 82.2919 207.009 83.3345C206.476 84.3185 205.778 85.2219 205.181 86.179C204.532 87.2192 203.88 88.2617 203.296 89.3361C202.43 90.9305 201.848 92.6274 200.662 94.1095C199.237 95.8944 197.153 96.9004 195.582 98.4801C195.349 98.717 194.873 98.7365 194.511 98.8561ZM178.999 17.0823C178.777 17.3167 178.656 17.4949 178.487 17.6097C176.786 18.7695 174.726 19.4068 173.216 20.8522C173.03 21.0305 172.694 21.0598 172.466 21.2112C171.117 22.1048 169.762 22.9911 168.441 23.9214C167.234 24.7711 166.187 25.9163 164.858 26.5023C161.887 27.8085 158.808 28.9073 155.724 29.9645C154.731 30.3064 153.588 30.3235 152.402 30.0622C152.779 29.6251 153.076 29.3126 153.343 28.9757C155.328 26.4583 157.849 24.5929 160.936 23.4062C162.999 22.6151 164.977 21.7264 166.595 20.1832C168.151 18.6938 170.119 18.2274 172.332 18.5717C173.079 18.6865 173.909 18.6425 174.641 18.457C176.073 18.0907 177.464 17.5755 178.999 17.0823ZM213.656 102.091C213.637 102.018 213.617 101.942 213.596 101.869C214.351 101.178 215.039 100.407 215.876 99.823C216.807 99.1711 217.852 98.651 218.891 98.1578C219.785 97.733 220.716 97.3228 221.683 97.0933C223.139 96.749 224.633 96.539 226.119 96.3241C228.601 95.9676 231.083 95.6112 233.575 95.3353C235.902 95.0764 238.11 95.323 240.067 96.7758C241.406 97.7672 242.857 98.6462 244.341 99.4324C245.346 99.9671 246.481 100.302 247.59 100.643C248.379 100.888 249.248 100.912 250.021 101.183C250.789 101.452 251.652 100.978 252.404 101.737C252.927 102.265 253.922 102.36 254.69 102.685C254.972 102.802 255.204 103.019 255.804 103.429C254.408 103.356 253.41 103.361 252.433 103.241C250.473 103.007 248.578 102.553 246.923 101.466C246.51 101.195 246.176 100.778 245.729 100.607C242.492 99.3762 239.444 97.5157 235.721 97.8477C233.777 96.7514 232.397 98.1139 230.858 98.8317C230.308 99.0905 229.731 99.3225 229.139 99.4812C228.118 99.7571 227.12 99.8987 226.006 99.6521C222.958 98.9831 219.995 99.3249 217.169 100.673C216.034 101.212 214.829 101.623 213.656 102.091ZM108.136 158.831C108.436 159.683 108.684 160.154 108.761 160.65C108.971 162 109.209 163.36 109.242 164.72C109.268 165.763 108.968 166.808 108.867 167.858C108.705 169.542 108.1 171.083 107.024 172.406C106.186 173.437 105.346 174.494 104.48 175.468C103.061 177.058 102.973 178.948 102.471 180.715C102.078 182.1 101.944 183.509 100.742 184.634C100.375 183.521 100.822 182.534 101.034 181.516C101.248 180.493 101.453 179.451 101.484 178.41C101.533 176.779 101.435 175.144 101.388 173.508C101.352 172.182 102.195 171.151 102.714 170.016C103.348 168.632 103.774 167.062 104.764 165.953C105.892 164.691 106.199 163.238 106.776 161.824C107.146 160.916 107.585 160.032 108.136 158.831ZM174.633 219.284C173.808 218.962 172.986 218.63 172.159 218.315C169.925 217.465 167.74 216.525 165.856 215.082C164.7 214.198 163.475 213.544 161.993 213.258C161.132 213.094 160.127 212.882 159.529 212.347C157.583 210.609 156.316 208.426 155.607 205.974C155.558 205.804 155.638 205.598 155.654 205.425C158.102 205.496 160.039 206.392 161.567 208.065C163.128 209.769 165.083 210.951 167.213 211.9C167.815 212.169 168.407 212.479 169.038 212.66C172.458 213.639 173.444 216.508 174.633 219.284ZM179.7 15.5245C179.741 15.6393 179.78 15.7516 179.821 15.8664C178.72 16.1862 177.575 16.4108 176.528 16.8479C175.049 17.4656 173.609 17.8124 171.944 17.6244C171.021 17.5218 169.943 17.2337 169.015 17.8295C167.968 18.4985 166.944 19.2041 165.869 19.8316C164.395 20.6886 162.945 21.6189 161.37 22.2782C158.415 23.5161 155.775 25.0861 153.839 27.5937C153.586 27.9209 153.219 28.1748 152.689 28.6582C153.11 27.4862 153.363 26.5364 153.787 25.6599C154.416 24.3634 155.033 23.0302 155.905 21.8826C156.939 20.5128 157.895 19.0503 159.801 18.4252C161.807 17.766 163.674 16.738 165.664 16.0348C167.024 15.5538 168.48 15.4659 169.946 15.8419C170.892 16.0837 171.988 15.9616 172.841 16.3474C174.017 16.8796 174.865 16.4597 175.804 15.9762C175.938 15.9079 176.135 15.9469 176.3 15.9274C177.433 15.7955 178.568 15.6613 179.7 15.5245ZM161.887 2.51777C161.991 3.30643 161.476 3.61164 161.037 3.89487C160.253 4.39785 159.4 4.80317 158.612 5.29639C158.175 5.56985 157.73 5.88971 157.417 6.27794C156.574 7.32785 155.799 8.4266 154.995 9.50338C154.803 9.76219 154.545 9.99171 154.413 10.2749C153.392 12.4431 152.086 14.4355 150.225 16.0519C149.03 17.0921 147.875 18.2055 146.535 19.0527C143.366 21.0549 140.088 22.9081 137.433 25.7429C137.497 25.2741 137.52 24.9176 137.603 24.5782C137.665 24.3218 137.802 24.0826 137.908 23.836C139.082 21.0866 141.355 19.1699 143.601 17.2532C144.545 16.445 145.571 15.6979 146.662 15.0826C148.64 13.9692 150.45 12.7264 151.879 10.9733C152.564 10.1333 153.076 9.22258 153.666 8.34358C155.597 5.45754 158.663 3.94126 161.887 2.51777ZM136.691 29.4689C136.548 29.3737 136.404 29.276 136.259 29.1783C136.791 28.27 137.316 27.3544 137.859 26.451C139.033 24.5001 141.096 23.4526 142.903 22.1854C144.648 20.9597 146.706 20.2003 148.275 18.6401C149.809 17.1214 151.68 15.9469 152.815 14.0302C153.878 12.2356 155.31 10.6363 156.383 8.84901C157.539 6.92742 159.255 5.69438 161.228 4.65667C161.031 5.0864 160.747 5.44777 160.473 5.81646C160.129 6.28038 159.726 6.71988 159.462 7.22286C158.475 9.11271 157.611 11.066 156.548 12.9168C155.597 14.5698 154.279 15.9372 152.807 17.2752C151.039 18.8867 148.976 20.0465 147.055 21.387C144.953 22.852 142.616 23.9873 141.419 26.3411C141.373 26.4314 141.295 26.5193 141.21 26.5731C139.705 27.5424 138.198 28.5044 136.691 29.4689ZM111.729 119.735C113.668 123.17 116.9 125.399 119.889 128.039C117.021 128.977 114.26 129.089 111.321 129.108C111.205 128.391 110.941 127.712 111.021 127.072C111.272 125.148 111.667 123.243 111.52 121.285C111.484 120.775 111.654 120.252 111.729 119.735ZM91.0106 58.3196C93.2495 57.5505 95.3565 56.503 97.6704 55.8755C99.9299 55.2602 102.076 54.1956 104.622 54.4642C102.306 56.0586 99.7567 56.9742 97.2309 57.9924C95.1807 58.8201 93.2727 59.3231 91.1347 58.598C91.1088 58.5882 91.1011 58.5271 91.0106 58.3196ZM87.3963 60.0434C84.7464 62.6926 78.9216 67.0363 73.5183 67.9324C73.676 67.6614 73.7562 67.366 73.9552 67.2219C75.0643 66.4333 76.1605 65.6153 77.342 64.9365C78.8648 64.0624 80.4496 63.2835 82.037 62.5144C83.8079 61.6598 85.6073 60.8663 87.3963 60.0434ZM176.9 29.8718C177.51 29.5495 178.162 29.2784 178.728 28.8975C180.822 27.4887 183.079 27.8354 185.315 28.3555C186.101 28.5386 186.804 29.0562 186.892 30.0109C183.575 30.321 180.266 29.2198 176.9 29.8718ZM176.168 110.872C176.205 111.011 176.241 111.152 176.277 111.294C175.535 111.653 174.829 112.124 174.043 112.349C172.766 112.715 171.427 112.879 170.132 113.203C168.73 113.555 167.342 113.955 165.972 114.4C164.971 114.727 164.191 114.475 163.11 113.65C165.207 113.35 166.962 113.137 168.702 112.835C169.832 112.637 170.946 112.334 172.055 112.039C173.433 111.67 174.798 111.26 176.168 110.872ZM39.8445 70.1641C36.6155 69.3193 33.5234 68.6649 30.5529 67.6907C27.5824 66.7165 24.3016 66.5358 21.6801 64.646C27.5875 66.2086 33.4433 67.9178 39.2939 69.6416C39.4671 69.6929 39.586 69.9102 39.8445 70.1641ZM107.942 112.991C106.08 110.195 106.528 107.204 106 104.411C107.197 107.067 108.617 109.675 107.942 112.991ZM173.286 118.067C173.038 117.137 173.622 117.11 174.201 116.993C176.086 116.609 177.968 116.207 179.84 115.77C180.752 115.557 181.639 115.254 182.539 114.993C182.585 115.137 182.632 115.281 182.676 115.428C179.723 116.69 176.683 117.711 173.286 118.067ZM202.314 125.141C199.271 123.732 196.034 123.82 193.239 122.416C195.765 122.726 198.33 122.687 200.775 123.515C201.517 123.766 202.019 124.088 202.314 125.141ZM173.893 30.5041C170.351 31.8886 166.81 33.273 163.268 34.6599C163.221 34.55 163.175 34.4426 163.128 34.3327C166.595 32.7627 169.943 30.9095 173.893 30.5041ZM161.797 114.427C158.948 115.105 156.678 113.506 154.103 112.923C154.421 112.722 154.752 112.62 155.039 112.688C156.104 112.94 157.153 113.257 158.213 113.531C159.405 113.841 160.602 114.126 161.797 114.427ZM103.283 98.7609C101.67 98.8366 100.276 98.1798 98.9113 96.705C100.341 96.4657 102.156 97.3179 103.283 98.7609ZM109.565 120.013C109.912 120.184 110.238 120.26 110.248 120.362C110.331 121.329 110.393 122.303 110.388 123.278C110.388 123.622 110.188 123.969 110.08 124.313C109.976 124.296 109.87 124.279 109.765 124.262C109.702 122.936 109.64 121.608 109.565 120.013ZM113.182 139.996C112.701 137.676 112.701 137.676 113.456 137.366C113.361 138.294 113.27 139.146 113.182 139.996ZM85.6823 91.2284C85.7314 91.1283 85.7805 91.0306 85.827 90.9354C86.5845 91.2699 87.342 91.6044 88.3865 92.0683C86.9594 92.393 86.401 91.6459 85.6823 91.2284ZM129.995 45.2249C130.951 44.2971 130.951 44.2971 132.022 44.3875C131.184 45.4227 131.184 45.4227 129.995 45.2249ZM123.066 48.6823C123.009 48.5578 122.952 48.4309 122.895 48.3039C123.542 48.1012 124.185 47.8986 124.832 47.6959C124.868 47.8033 124.904 47.9083 124.943 48.0158C124.317 48.238 123.692 48.4602 123.066 48.6823ZM75.69 84.6627C75.7676 84.5724 75.8451 84.4796 75.9253 84.3917C76.4733 84.7433 77.024 85.0973 77.5747 85.4489C77.5126 85.5295 77.4532 85.6077 77.3937 85.6882C76.8275 85.3464 76.2588 85.0021 75.69 84.6627ZM78.433 86.0813C78.5183 85.9763 78.6036 85.8689 78.6864 85.7639C79.0225 86.0276 79.356 86.2913 79.6921 86.5526C79.6559 86.5965 79.6197 86.6356 79.5835 86.6795C79.2009 86.4793 78.8156 86.2791 78.433 86.0813ZM147.505 107.502C147.546 107.59 147.588 107.68 147.632 107.771C147.265 107.915 146.9 108.066 146.528 108.198C146.502 108.208 146.424 108.083 146.303 107.942C146.724 107.785 147.115 107.644 147.505 107.502ZM127.626 46.2944C127.681 46.4262 127.735 46.5581 127.789 46.6899C127.425 46.8218 127.058 46.9536 126.693 47.0855C126.652 46.9927 126.61 46.9024 126.566 46.8096C126.921 46.6387 127.272 46.4653 127.626 46.2944ZM19.2706 64.0404C19.2189 64.1454 19.1697 64.2504 19.118 64.353C18.694 64.1869 18.2675 64.0185 17.8409 63.8524C17.8797 63.7645 17.9184 63.6766 17.9598 63.5887C18.3967 63.7401 18.8337 63.889 19.2706 64.0404ZM109.661 126.928C109.568 126.908 109.472 126.891 109.377 126.874C109.426 126.442 109.472 126.01 109.521 125.578C109.63 125.592 109.736 125.609 109.842 125.624C109.783 126.059 109.723 126.493 109.661 126.928ZM133.353 109.016C133.394 108.896 133.438 108.777 133.48 108.657C133.875 108.803 134.273 108.95 134.671 109.096C134.638 109.179 134.604 109.26 134.573 109.343C134.167 109.236 133.759 109.126 133.353 109.016Z" fill="#3D3D3D"/>
<path d="M145.147 112.204C144.253 111.921 143.376 111.579 142.461 111.386C142.086 111.308 141.634 111.56 141.28 111.872C142.202 112.077 143.131 112.258 144.043 112.5C144.527 112.627 144.925 112.69 145.155 112.158L145.147 112.204Z" fill="#3D3D3D"/>
<path d="M145.157 112.157C145.346 112.819 145.946 112.821 146.483 112.853C147.406 112.909 148.335 112.909 149.263 112.936C149.263 112.936 149.263 112.985 149.263 112.987C147.967 112.379 146.589 112.147 145.149 112.204L145.157 112.157Z" fill="#3D3D3D"/>
</g>
<defs>
<filter id="filter0_d_93_2550" x="-17" y="0.00012207" width="291.017" height="295.437" filterUnits="userSpaceOnUse" color-interpolation-filters="sRGB">
<feFlood flood-opacity="0" result="BackgroundImageFix"/>
<feColorMatrix in="SourceAlpha" type="matrix" values="0 0 0 0 0 0 0 0 0 0 0 0 0 0 0 0 0 0 127 0" result="hardAlpha"/>
<feOffset dy="4"/>
<feGaussianBlur stdDeviation="2"/>
<feComposite in2="hardAlpha" operator="out"/>
<feColorMatrix type="matrix" values="0 0 0 0 0 0 0 0 0 0 0 0 0 0 0 0 0 0 0.25 0"/>
<feBlend mode="normal" in2="BackgroundImageFix" result="effect1_dropShadow_93_2550"/>
<feBlend mode="normal" in="SourceGraphic" in2="effect1_dropShadow_93_2550" result="shape"/>
</filter>
</defs>
</svg>
