<svg width="435" height="435" viewBox="0 0 435 435" fill="none" xmlns="http://www.w3.org/2000/svg">
<g clip-path="url(#clip0_120_2)">
<g filter="url(#filter0_d_120_2)">
<path d="M-12.4429 377.367C10.9224 369.938 34.2368 361.698 56.0804 349.959C77.8931 338.034 97.2208 322.231 116.339 306.439C125.78 298.406 135.639 290.76 143.824 280.986C152.006 271.2 157.896 259.768 163.064 248.273C173.565 225.304 182.148 201.403 188.577 176.933L188.274 176.84C179.987 200.68 170.643 224.034 160.125 246.832C154.809 258.152 149.266 269.411 141.56 278.998C133.82 288.521 124.267 296.563 115.211 305.063C106.043 313.416 96.6541 321.547 86.5941 328.727C76.5826 335.992 65.8704 342.084 54.8913 347.546C33.0655 358.734 10.1496 367.544 -12.5526 377.053L-12.4429 377.367Z" fill="#373434"/>
<path d="M173.572 193.938C175.18 196.712 177.43 199.484 180.775 200.302C184.2 200.974 187.457 199.17 190.135 197.399C192.855 195.526 195.297 193.373 197.674 191.199C200.126 188.978 202.338 186.429 204.215 183.577C206.032 180.703 207.48 177.425 208.005 173.883C208.556 170.337 208.088 166.822 207.441 163.553C206.081 157.049 204.121 150.739 201.632 144.651C201.026 143.131 200.392 141.607 199.733 140.117L198.712 137.881C198.346 137.156 198.203 136.351 197.416 135.552C196.56 134.761 195.303 135.006 194.586 135.444C193.807 135.873 193.176 136.505 192.643 137.115C191.561 138.314 190.433 139.469 189.381 140.714C185.079 145.557 180.96 150.644 177.516 156.258C174.184 161.871 171.227 167.967 170.188 174.685C169.645 178.002 169.613 181.429 170.154 184.723C170.749 187.996 171.892 191.141 173.572 193.938ZM173.842 193.771C172.219 190.994 171.17 187.834 170.977 184.622C170.826 181.4 171.231 178.192 172.121 175.144C173.91 169.05 176.856 163.34 179.775 157.626C182.743 151.961 186.056 146.366 190.145 141.414C191.172 140.182 192.22 138.966 193.331 137.82C194.305 136.709 195.882 135.63 196.674 136.416C197.051 136.764 197.322 137.628 197.633 138.371L198.466 140.646C199.006 142.185 199.527 143.717 200.002 145.268C201.892 151.477 203.388 157.798 204.511 164.129C205.048 167.278 205.306 170.387 204.762 173.315C204.209 176.259 203.021 179.082 201.391 181.665C199.808 184.287 197.76 186.653 195.589 188.898C193.325 191.179 191.186 193.573 188.883 195.667C186.596 197.705 183.92 199.605 180.909 199.392C177.882 199.086 175.45 196.479 173.842 193.771Z" fill="#373434"/>
<path d="M183.632 222.539C186.825 219.371 189.769 215.974 192.724 212.611C194.161 210.934 195.643 209.366 197.284 208.193C198.886 207.015 200.782 206.436 202.844 205.931C204.916 205.443 207.143 205.023 209.33 204.151C211.501 203.274 213.446 202.066 215.314 200.864C218.965 198.443 222.965 196.039 227.223 196.566L226.951 195.499L219.936 200.044C217.587 201.59 215.267 203.454 213.45 205.853C211.622 208.159 210.286 210.689 208.672 212.795C207.061 214.938 205.258 216.488 202.959 217.385C200.66 218.266 197.98 218.736 195.258 219.312L187.195 221.138C184.515 221.724 181.839 222.435 179.167 223.113C177.814 223.448 176.565 223.839 175.326 223.764C174.725 223.728 174.07 223.493 173.365 223.339C172.693 223.176 171.784 223.141 171.189 223.683L171.363 223.956C172.56 223.392 173.672 224.506 175.142 224.873C176.649 225.267 178.129 225.004 179.474 224.846C182.211 224.52 184.952 224.215 187.666 223.79L195.831 222.57C198.514 222.075 201.332 221.798 204.179 220.645C207.102 219.577 209.544 217.157 211.166 214.726C212.843 212.27 214.125 209.757 215.607 207.529C218.549 203.161 223.235 199.897 227.594 196.471L228.834 195.497L227.327 195.396C222.584 195.067 218.556 197.686 214.618 199.537C212.635 200.496 210.644 201.396 208.642 201.922C206.629 202.422 204.484 202.619 202.252 203.083C200.049 203.54 197.645 204.36 195.696 205.901C193.739 207.376 192.288 209.274 190.932 211.09C188.332 214.785 185.751 218.453 183.384 222.338L183.632 222.539Z" fill="#373434"/>
<path d="M127.955 228.742C121.535 227.05 115.088 225.325 109.318 222.239C106.443 220.703 103.809 218.777 101.477 216.556C99.1715 214.289 97.2359 211.641 95.7139 208.735C92.6804 202.903 90.9088 196.405 90.1093 189.708C89.2344 183.009 89.1674 176.145 89.2345 169.291L88.3342 169.819C98.8977 175.723 108.418 183.579 116.682 192.535C118.751 194.756 120.707 197.101 122.676 199.435C124.619 201.791 126.534 204.147 127.973 206.686C129.457 209.223 130.308 211.901 130.132 214.705C130.03 217.527 128.987 220.371 128.308 223.594C127.966 225.197 127.752 226.921 127.85 228.69C127.972 230.463 128.293 231.995 128.663 233.584C129.428 236.725 130.427 239.722 131.382 242.633C132.321 245.572 133.167 248.468 133.561 251.39C133.95 254.361 134.195 257.452 134.249 260.507C134.411 272.745 131.994 285.113 126.705 296.318L126.984 296.473C133.426 285.859 136.826 273.207 137.057 260.509C137.121 257.318 137.018 254.182 136.71 250.962C136.326 247.694 135.457 244.584 134.551 241.576C133.657 238.57 132.638 235.661 131.942 232.749C131.583 231.319 131.305 229.792 131.186 228.446C131.079 227.101 131.218 225.7 131.483 224.256C132.004 221.374 133.081 218.274 133.167 214.826C133.321 211.351 132.103 207.873 130.376 205.16C128.641 202.384 126.561 200.042 124.511 197.737C122.439 195.425 120.264 193.226 118.044 191.091C109.14 182.534 99.2912 175.197 88.9399 168.721L88.0883 168.198L88.0317 169.247C87.6773 176.1 87.1773 182.999 87.6934 189.965C88.2379 196.898 89.8315 203.981 93.3457 210.125C96.7339 216.318 102.159 221.419 108.444 224.116C114.66 227.006 121.319 228.216 127.887 229.071L127.955 228.742Z" fill="#373434"/>
<path d="M131.619 234.718C131.718 231.09 132.97 227.785 134.701 224.894C136.437 221.968 138.836 219.541 141.352 217.189C143.843 214.796 146.505 212.427 149.268 210.23C152.05 208.048 154.972 206.063 157.969 204.238L157.04 203.457C155.473 207.362 153.796 211.217 152.324 215.148C150.898 219.098 149.378 223.009 148.069 227.005C146.732 230.947 145.537 234.839 143.477 238.223C141.425 241.542 138.558 244.517 134.672 245.805L134.718 246.118C138.961 245.978 142.907 243.228 145.563 239.777C148.263 236.262 149.928 232.14 151.26 228.148C152.613 224.171 153.739 220.112 154.978 216.094C156.163 212.069 157.153 207.953 158.243 203.885L158.762 201.974L157.298 203.106C154.488 205.296 151.599 207.335 148.562 209.158C145.48 210.938 142.371 212.673 139.538 215.004C136.76 217.344 134.275 220.266 132.629 223.71C131.001 227.114 130.326 231.147 131.3 234.747L131.619 234.718Z" fill="#373434"/>
<path d="M136.847 261.425C132.866 262.555 128.972 261.303 125.076 260.217C121.177 259.1 117.403 257.667 113.623 256.196C109.837 254.766 106.027 253.158 102.543 250.958C99.0677 248.729 95.9652 245.918 93.1996 242.825L92.6314 244.359C96.8558 244.539 101.032 243.977 105.09 243.46C109.139 242.959 113.129 242.651 116.956 243.121C120.76 243.576 124.475 244.976 127.721 247.245C130.998 249.499 133.817 252.55 135.924 256.217L136.212 256.089C135.04 251.912 132.52 248.115 129.214 245.213C125.911 242.353 121.784 240.275 117.406 239.664C113.026 239.036 108.739 239.685 104.652 240.416C100.555 241.134 96.6078 242.129 92.5816 242.584L90.4847 242.812L92.0179 244.114C95.2388 246.875 98.5893 249.383 101.974 251.842C105.377 254.291 108.81 256.774 112.577 258.706C116.364 260.578 120.406 261.88 124.522 262.689C128.497 263.453 133.236 264.083 136.978 261.724L136.847 261.425Z" fill="#373434"/>
<path d="M101.839 195.185C102.648 198.951 104.883 202.187 107.575 204.612C108.984 205.797 110.629 206.652 111.993 207.818C113.388 208.96 114.563 210.313 115.666 211.764C117.819 214.695 120.107 217.331 122.126 220.127C124.283 222.823 126.208 225.577 128.044 228.821L128.354 228.738C128.483 224.883 126.917 221.111 124.814 218.018C122.59 214.99 119.879 212.442 116.839 210.45C115.358 209.412 113.905 208.348 112.685 207.026C111.451 205.726 110.519 204.105 109.438 202.699C107.176 199.963 104.782 197.605 102.113 195.013L101.839 195.185Z" fill="#373434"/>
<path d="M145.936 221.81C144.258 223.052 143.23 224.325 142.487 225.883C142.174 226.705 142.049 227.727 141.55 228.474C141.078 229.232 140.315 229.713 139.498 230.124C137.814 230.878 136.328 231.933 135.032 233.424C133.881 234.96 132.988 237.248 133.703 239.328L134.011 239.38C135.328 237.831 136.4 236.911 137.563 235.735C138.603 234.493 139.815 233.18 140.683 231.434C141.156 230.585 141.638 229.787 142.32 229.162C142.989 228.54 143.959 228.121 144.644 227.443C145.908 226.014 146.569 224.056 146.232 221.927L145.936 221.81Z" fill="#373434"/>
<path d="M108.672 248.297C110.845 250.029 113.133 251.001 115.584 251.493C116.833 251.672 118.173 251.559 119.389 251.861C120.624 252.141 121.738 252.755 122.83 253.453C124.963 254.919 127.226 255.991 129.512 256.967C131.856 257.815 134.022 258.385 136.531 259.311L136.738 259.072C135.527 256.47 133.052 254.84 130.782 253.738C128.42 252.755 125.991 252.006 123.404 251.755C122.117 251.591 120.864 251.362 119.712 250.846C118.54 250.36 117.492 249.458 116.343 248.893C113.987 247.899 111.444 247.522 108.749 247.986L108.672 248.297Z" fill="#373434"/>
<path d="M177.752 282.893C180.45 276.888 183.413 271.056 186.76 265.507C190.17 260.058 194.016 254.775 199.36 251.746C202.027 250.241 204.964 249.064 207.933 247.656C210.89 246.247 213.729 244.589 216.409 242.714C221.848 239.067 226.726 234.745 231.799 230.736L230.932 230.055C227.1 240.597 222.593 251.087 215.69 259.661C212.24 263.92 208.335 267.762 203.816 270.587C199.378 273.498 194.229 275.072 189.036 276.999C183.848 278.952 178.924 280.93 173.683 281.823C171.059 282.322 168.357 282.657 165.636 283.081C162.905 283.54 160.19 284.067 157.506 284.69C146.721 287.121 136.288 291.121 126.634 296.464L126.769 296.768C136.926 292.584 147.4 289.502 158.039 287.504C163.371 286.497 168.696 286.088 174.235 285.205C179.835 284.377 185.149 282.199 190.17 280.185C195.188 278.162 200.599 276.386 205.362 273.105C210.087 269.842 214.1 265.669 217.342 260.997C223.904 251.639 227.692 240.859 231.983 230.49L232.81 228.482L231.115 229.796C226.018 233.777 220.704 237.446 215.223 240.699C212.465 242.289 209.661 243.775 206.816 245.097C203.976 246.404 200.879 247.459 197.981 249.261C192.15 252.893 188.028 258.562 184.986 264.427C181.881 270.279 179.34 276.423 177.468 282.778L177.752 282.893Z" fill="#373434"/>
<path d="M171.492 284.304C175.424 284.253 178.494 286.86 180.819 289.787C183.164 292.77 185.43 296.32 188.338 299.152C191.22 302.031 194.55 304.366 197.964 306.429C201.391 308.485 204.85 310.389 208.435 312.101L208.562 310.971C203.789 311.525 198.978 311.79 194.398 311.29C192.116 310.988 189.872 310.526 187.813 309.636C185.733 308.756 183.807 307.501 181.922 306.145C178.171 303.348 174.746 300.057 171.492 296.44C168.243 292.84 165.047 289.153 162.069 285.229L161.799 285.396C163.854 289.961 166.542 294.195 169.523 298.181C172.47 302.159 175.866 306.024 179.969 308.991C184.011 312.06 189.176 313.973 194.194 314.098C199.24 314.305 204.025 313.096 208.74 312.144L210.728 311.748L208.868 311.015C205.256 309.593 201.797 307.689 198.749 305.216C195.671 302.785 192.973 299.933 190.336 297.102C189.007 295.672 187.716 294.236 186.468 292.74C185.25 291.223 183.966 289.643 182.547 288.139C179.792 285.176 175.464 282.759 171.434 283.986L171.492 284.304Z" fill="#373434"/>
<path d="M182.668 281.364C184.952 279.499 186.421 276.897 187.842 274.479C189.238 271.941 190.513 269.865 192.363 267.962C194.135 265.995 196.245 264.117 198.576 262.618C200.922 261.12 203.446 259.934 205.917 258.521C208.419 257.149 210.783 255.514 212.923 253.599C215.08 251.728 217.143 249.724 218.989 247.552C222.659 243.144 225.758 238.348 228.341 233.205L228.081 233.003C223.917 236.899 220.235 241.132 216.499 245.205C212.863 249.395 209.079 253.346 204.958 257.041C202.868 258.86 200.544 260.397 198.077 261.695C195.609 262.993 192.959 264.075 190.604 265.939C188.227 267.782 186.669 270.747 185.662 273.328C184.525 275.952 183.745 278.652 182.422 281.147L182.668 281.364Z" fill="#373434"/>
<path d="M157.943 286.07C158.02 281.588 157.246 277.117 159.019 273.469C160.571 269.678 163.404 266.392 165.698 262.666C168.082 259.006 170.411 255.289 173.225 251.964C176.007 248.617 179.128 245.592 182.292 242.639L180.47 241.523C179.146 245.157 177.933 248.831 176.767 252.509C175.58 256.187 174.414 259.864 173.428 263.596C172.374 267.306 171.54 271.093 170.599 274.848C170.193 276.685 169.727 278.501 168.974 280.19C168.266 281.88 167.311 283.502 165.763 284.544L165.898 284.844C167.786 284.24 169.24 282.615 170.319 280.961C171.396 279.261 172.2 277.427 172.897 275.561C174.124 271.905 175.467 268.278 176.586 264.59C177.76 260.914 178.762 257.184 179.734 253.438C180.743 249.709 181.708 245.962 182.548 242.184L183.598 237.524L180.73 241.073C177.964 244.484 175.318 247.978 172.502 251.315C169.722 254.687 166.649 257.797 163.785 261.128C160.974 264.433 158.188 268.023 156.66 272.553C155.868 274.747 155.718 277.36 156.103 279.583C156.439 281.837 157.052 283.969 157.622 286.115L157.943 286.07Z" fill="#373434"/>
<path d="M162.901 285.154C163.779 281.394 164.927 278.123 166.081 274.712C166.591 273.047 167.11 271.106 167.875 269.411C168.641 267.684 169.686 266.132 170.8 264.603C173.097 261.6 175 258.375 176.752 255.063C178.374 251.678 179.792 248.177 180.65 244.352L180.376 244.197C177.73 247.006 175.663 250.145 173.795 253.4C172.068 256.712 170.462 260.124 169.279 263.749C168.652 265.546 167.946 267.303 166.97 268.902C166.029 270.538 164.658 271.841 163.676 273.608C161.924 277.102 161.251 281.383 162.585 285.187L162.901 285.154Z" fill="#373434"/>
<path d="M83.0483 365.548C87.4597 358.128 93.6501 352.38 100.128 346.928C106.527 341.379 112.867 335.735 120.299 332.278C127.688 328.746 135.862 327.023 144.126 326.556C152.402 326.09 160.763 327.045 168.922 328.768L168.664 327.893C160.513 336.639 151.039 344.031 140.838 349.82C135.729 352.705 130.424 355.174 124.937 357.067C119.463 359.008 113.764 360.247 108.024 361.32C102.297 362.382 96.4193 363.348 90.6827 364.124C84.9168 364.821 79.291 364.948 73.8277 363.025C71.0646 362.15 68.3345 361.027 65.4806 360.086C62.6228 359.172 59.7367 358.411 56.8115 357.823C50.9672 356.601 45.0009 356.262 39.0988 356.485L39.1058 356.821C44.9769 357.097 50.7779 358.106 56.4221 359.6C62.1259 361.038 67.3333 363.502 72.9908 365.642C78.6873 367.88 85.1494 368.211 91.0401 367.416C96.9779 366.657 102.742 365.761 108.614 364.72C120.295 362.571 131.931 358.549 142.082 352.063C152.332 345.699 161.198 337.394 169.389 328.616L170.045 327.921L169.12 327.735C160.892 326.081 152.556 324.849 144.085 324.716C135.646 324.605 126.982 325.919 119.131 329.646C111.236 333.407 104.836 339.411 98.6605 345.194C95.5896 348.14 92.4853 351.127 89.7015 354.432C86.971 357.786 84.5714 361.439 82.7738 365.393L83.0483 365.548Z" fill="#373434"/>
<path d="M136.055 410.529C130.755 405.805 125.281 401.548 119.612 397.494C116.732 395.557 113.732 393.736 110.98 391.586C108.197 389.457 105.857 386.822 102.88 384.681C99.8491 382.438 96.1744 381.668 93.0695 380.574C89.8623 379.47 86.7707 378.098 83.8119 376.538C77.8221 373.512 72.5573 369.181 68.4448 363.364L68.161 363.517C70.506 370.44 75.9631 376.136 82.2494 379.63C85.4074 381.4 88.8095 382.598 92.2239 383.525C95.7096 384.516 99.0451 384.751 102.01 386.237C108.043 389.385 112.8 395.035 118.05 399.686C123.468 404.183 129.441 407.992 135.882 410.81L136.055 410.529Z" fill="#373434"/>
<path d="M107.397 378.771C103.137 376.406 98.5645 374.627 93.6837 373.836C91.242 373.54 88.6561 373.487 86.1291 374.575C84.8879 375.115 83.6297 376.112 82.9366 377.565C82.2613 379.004 82.2488 380.559 82.3818 381.92C84.2754 392.367 90.2906 401.256 97.9334 407.761C105.599 414.307 114.982 418.414 124.556 420.175C134.173 422.004 143.868 422.026 153.524 421.59L155.542 421.503L153.758 420.409C149.393 417.731 147.479 412.568 144.947 407.815C143.655 405.425 142.14 402.974 139.913 401.077C137.676 399.068 134.974 398.214 132.768 397.113C128.261 394.93 124.117 391.673 120.086 388.283C116.008 384.924 111.987 381.378 107.397 378.771ZM107.246 379.059C111.824 381.64 115.555 385.449 119.229 389.267C122.929 393.039 126.705 397.016 131.568 399.637C133.999 400.94 136.37 401.767 138.128 403.324C139.971 404.843 141.409 406.945 142.839 409.14C144.236 411.339 145.553 413.72 147.138 415.95C148.721 418.192 150.737 420.236 153.197 421.53L153.432 420.338C143.909 421.359 134.177 420.753 124.979 418.233C115.823 415.681 107.061 411.576 100.024 405.195C92.9624 398.968 87.513 390.531 85.061 381.545C84.644 379.354 85.1141 377.51 87.0298 376.43C88.8812 375.353 91.265 375.038 93.59 375.103C98.2911 375.269 103.014 376.76 107.246 379.059Z" fill="#373434"/>
<path d="M85.2307 364.919C91.7795 361.233 97.8235 356.967 103.872 352.759C106.847 350.555 109.809 348.279 113.069 346.537C116.32 344.786 119.799 343.554 123.363 342.711C130.479 341.043 137.766 339.804 144.9 337.795C151.787 335.813 159.468 334.309 165.732 329.95L165.601 329.646C158.555 332.072 151.413 332.646 144.072 334.41C136.999 336.415 129.789 338.094 122.846 340.997C119.378 342.408 116.008 344.043 112.622 345.585C109.237 347.123 105.762 348.591 102.486 350.442C96.0331 354.307 90.27 359.188 85.038 364.66L85.2307 364.919Z" fill="#373434"/>
<path d="M76.5839 287.08C70.5029 283.512 65.6147 278.216 62.0712 272.17C58.5773 266.082 56.1257 259.33 55.1261 252.341C54.6573 248.867 54.3993 245.398 55.0157 242.014C55.618 238.615 56.7503 235.28 58.1697 232.035C61.0801 225.548 64.6255 219.264 68.9577 213.629L68.062 213.525C73.226 224.126 77.969 235.249 79.3481 246.947C80.04 252.778 79.873 258.589 78.6561 264.315C77.5533 270.054 75.8038 275.766 74.7239 281.78C74.1657 284.76 73.8514 287.944 73.9542 290.903L74.0066 299.904C73.9155 305.714 73.2221 311.552 71.7563 317.202C68.8441 328.503 63.2735 339.131 55.479 347.924L55.698 348.166C64.3711 340.229 71.0099 329.668 74.4028 317.994C76.1782 312.178 77.1566 306.087 77.3017 299.964C77.5514 294.012 76.8795 288.031 77.9731 282.361C78.8669 276.605 80.4871 270.846 81.5107 264.865C82.5991 258.876 82.5729 252.571 81.5015 246.595C79.2923 234.572 73.8892 223.821 69.0262 213.027L68.6697 212.233L68.1143 212.925C63.6945 218.589 59.5928 224.559 56.2214 231.033C54.5388 234.277 53.0538 237.744 52.3747 241.507C51.6744 245.251 51.7296 249.132 52.3835 252.802C53.6757 260.111 56.2127 267.238 60.3057 273.35C64.3401 279.453 69.8794 284.624 76.4432 287.386L76.5839 287.08Z" fill="#373434"/>
<path d="M73.6131 309.077C73.3669 306.564 72.0127 304.371 70.5427 302.418C69.0325 300.467 67.2277 298.78 65.261 297.259C61.3269 294.164 56.4786 292.564 51.7311 291.702C46.9462 290.851 42.1852 290.656 37.41 290.657C32.6387 290.658 27.8696 291.061 23.1793 291.858L20.6009 292.286L22.7428 293.6C26.9497 296.177 31.0901 298.864 35.091 301.759C39.1504 304.603 42.6882 308.067 47.075 310.761C51.5721 313.495 56.8768 314.098 61.7086 314.122C64.0758 314.139 66.5928 314.529 69.1123 314.213C70.3494 314.031 71.6945 313.757 72.6584 312.784C73.6132 311.79 73.748 310.335 73.6131 309.077ZM73.3014 309.111C73.3864 310.325 73.2304 311.669 72.3508 312.46C71.4547 313.194 70.2428 313.396 69.0691 313.344C66.6998 313.252 64.4055 312.51 61.9117 312.037C57.0868 311.097 52.4665 310.447 48.2582 308.358C46.1038 307.405 44.0137 306.151 41.9038 304.866C39.7956 303.597 37.6874 302.3 35.6569 300.898C31.5899 298.11 27.6556 295.106 23.7818 292.007L23.3604 293.755C28.0427 293.584 32.7045 293.596 37.3559 293.775C41.9856 293.997 46.6542 294.435 51.1858 295.122C55.7137 295.837 60.0931 297.034 64.1994 299.052C66.2519 300.11 68.2066 301.422 69.9115 303.021C71.5897 304.641 72.9953 306.717 73.3014 309.111Z" fill="#373434"/>
<path d="M75.7051 291.204C77.4466 288.265 79.6717 285.797 81.9997 283.484C84.3332 281.159 86.8768 279.083 89.531 277.254C92.1836 275.467 95.0109 273.626 97.9224 271.991C100.827 270.318 103.889 268.96 106.941 267.556L106.162 266.875C104.82 270.944 102.996 274.799 101.259 278.655C99.4859 282.489 97.6503 286.309 95.3043 289.533C92.9894 292.851 90.0633 295.132 86.2899 296.978C82.6638 298.915 78.6409 300.688 75.5246 303.735L75.7173 303.994C79.3793 301.967 83.394 301.031 87.3312 299.452C89.2961 298.66 91.3364 297.842 93.2364 296.491C95.0884 295.142 96.7188 293.481 98.002 291.612C100.606 287.889 102.228 283.79 103.742 279.746C105.246 275.663 106.231 271.402 107.24 267.198L107.536 265.907L106.446 266.515C103.536 268.138 100.466 269.465 97.3249 270.613C94.1797 271.818 90.9773 272.944 88.008 274.802C85.0647 276.705 82.5283 279.145 80.3018 281.832C78.1224 284.526 76.2458 287.639 75.4157 291.071L75.7051 291.204Z" fill="#373434"/>
<path d="M27.887 293.912C29.3084 295.603 31.4137 296.446 33.2272 297.143C35.1028 297.854 37.0143 298.475 38.9862 298.824C40.9635 299.132 43.0141 299.19 44.9779 299.6C46.9293 300.012 48.8017 300.747 50.6603 301.554C54.343 303.308 58.2666 304.247 61.5649 305.892C64.989 307.403 68.298 309.595 72.0212 311.405L72.2308 311.15C69.7753 307.767 66.816 304.75 63.0093 302.73C61.0828 301.743 59.023 301.217 57.0474 300.777C55.0666 300.315 53.1079 300.047 51.0974 299.808C49.1075 299.564 47.134 299.228 45.238 298.58C43.3414 297.937 41.5418 296.956 39.6728 296.197C37.8022 295.478 35.8484 295.054 33.882 294.693C31.8743 294.315 29.9991 294.257 28.0748 293.642L27.887 293.912Z" fill="#373434"/>
</g>
</g>
<defs>
<filter id="filter0_d_120_2" x="-16.5527" y="135.036" width="253.363" height="294.788" filterUnits="userSpaceOnUse" color-interpolation-filters="sRGB">
<feFlood flood-opacity="0" result="BackgroundImageFix"/>
<feColorMatrix in="SourceAlpha" type="matrix" values="0 0 0 0 0 0 0 0 0 0 0 0 0 0 0 0 0 0 127 0" result="hardAlpha"/>
<feOffset dy="4"/>
<feGaussianBlur stdDeviation="2"/>
<feComposite in2="hardAlpha" operator="out"/>
<feColorMatrix type="matrix" values="0 0 0 0 0 0 0 0 0 0 0 0 0 0 0 0 0 0 0.25 0"/>
<feBlend mode="normal" in2="BackgroundImageFix" result="effect1_dropShadow_120_2"/>
<feBlend mode="normal" in="SourceGraphic" in2="effect1_dropShadow_120_2" result="shape"/>
</filter>
<clipPath id="clip0_120_2">
<rect width="435" height="435" fill="white"/>
</clipPath>
</defs>
</svg>
