<svg width="433" height="435" viewBox="0 0 433 435" fill="none" xmlns="http://www.w3.org/2000/svg">
<g clip-path="url(#clip0_120_36)">
<g filter="url(#filter0_d_120_36)">
<path d="M432.82 412.658C429.75 408.219 427.554 403.229 423.233 399.583C419.638 396.551 415.985 393.559 412.653 390.289C410.227 387.906 408.279 385.094 406.116 382.473C405.486 381.712 404.894 380.919 404.221 380.189C397.618 372.987 390.848 365.914 384.455 358.546C381.829 355.519 379.437 352.24 377.579 348.639C374.849 343.354 371.115 338.615 367.548 333.804C365.443 330.965 363.294 328.156 361.117 325.366C359.914 323.834 358.529 322.423 357.379 320.86C353.803 316 350.174 311.163 346.823 306.16C345.252 303.817 344.302 301.116 343.032 298.595C342.029 296.588 340.95 294.613 339.947 292.602C339.704 292.109 339.627 291.54 339.475 291.003C339.675 290.922 339.876 290.841 340.076 290.761C340.859 292.306 341.528 293.918 342.463 295.379C343.581 297.112 344.879 298.742 346.188 300.355C348.742 303.499 351.358 306.603 353.96 309.712C355.354 311.378 356.729 313.066 358.195 314.674C361.194 317.962 362.626 322.101 365.085 325.67C367.816 329.639 369.697 334.064 372.929 337.791C374.658 339.784 375.436 342.476 376.882 344.715C379.294 348.437 381.919 352.034 384.412 355.711C388.962 362.421 394.519 368.302 400.826 373.596C402.827 375.276 404.694 377.09 406.594 378.868C410.762 382.756 415.002 386.576 419.031 390.58C421.495 393.026 423.386 396 425.959 398.316C429.812 401.774 432.409 406.002 435.322 410.069C436.926 412.304 438.917 414.292 440.688 416.424C441.18 417.011 441.509 417.719 441.929 418.364C443.596 420.917 445.229 423.492 446.976 425.996C447.224 426.35 448.026 426.359 448.633 426.543C449.535 425.082 448.561 424.16 447.988 423.192C446.79 421.154 445.539 419.148 444.312 417.123C444.006 416.613 443.792 416.039 443.414 415.591C441.046 412.774 438.63 409.993 436.253 407.189C433.45 403.892 430.724 400.537 427.859 397.29C425.696 394.836 423.357 392.515 421.113 390.128C419.213 388.104 417.456 385.94 415.412 384.05C410.428 379.441 405.305 374.953 400.244 370.411C399.017 369.31 397.794 368.252 396.73 366.949C394.037 363.657 391.01 360.607 388.107 357.467C387.907 357.252 387.424 357.122 387.405 356.929C387.171 354.188 384.789 352.643 383.423 350.547C380.907 346.681 378.32 342.861 375.794 339.004C374.142 336.483 372.581 333.907 370.91 331.395C368.842 328.286 366.699 325.178 365.323 321.756C363.681 317.657 360.702 314.477 358.047 311.015C355.02 307.055 351.769 303.311 348.451 299.575C346.312 297.166 344.822 294.245 343.084 291.527C339.47 285.865 335.999 280.119 332.241 274.542C330.007 271.223 328.03 267.716 325.008 264.867C324.196 264.106 324.034 262.749 323.509 261.692C322.592 259.842 321.666 257.997 320.663 256.187C319.742 254.516 319.374 252.913 320.167 251.036C321.189 248.618 321.819 246.056 322.793 243.619C323.475 241.908 324.521 240.331 325.29 238.647C325.939 237.227 326.488 235.758 326.975 234.285C328.522 229.573 329.763 224.758 331.63 220.167C332.719 217.493 334.457 214.899 336.486 212.754C338.935 210.165 340.057 207.137 341.318 203.975C342.468 204.405 343.729 204.808 344.937 205.328C349.41 207.254 354.113 208.006 358.993 207.643C360.411 207.536 361.805 207.039 363.175 206.613C367.252 205.341 371.592 205.811 375.727 204.934C376.434 204.786 377.241 204.871 377.866 204.584C381.141 203.102 384.679 203.303 388.145 203.07C390.91 202.882 393.684 202.828 396.453 202.748C401.877 202.596 406.474 200.508 410.471 197.261C414.023 194.376 417.838 192.719 422.674 193.476C424.808 193.812 427.033 193.799 429.058 192.777C430.146 192.231 430.294 191.42 429.301 190.775C428.131 190.018 426.904 189.015 425.591 188.836C422.555 188.424 420.368 186.722 418.086 185.141C413.956 182.27 409.368 180.272 404.426 179.139C400.354 178.207 396.162 177.706 392.017 177.083C388.69 176.581 385.677 177.934 382.564 178.637C381.485 178.884 380.406 179.157 379.317 179.345C378.51 179.484 377.642 179.381 376.868 179.6C368.164 182.019 359.207 183.698 350.924 187.376C349.921 187.824 348.747 187.927 347.558 188.218C347.567 187.833 347.462 187.47 347.61 187.304C349.878 184.782 352.012 182.126 354.509 179.815C357.154 177.37 360.086 175.197 362.994 173.025C364.846 171.641 366.756 170.203 368.885 169.316C370.456 168.658 372.514 168.438 374.204 168.747C377.393 169.33 380.158 168.259 382.951 167.368C385.457 166.566 388.059 165.894 390.213 164.215C391.005 163.601 392.352 163.556 393.469 163.368C396.104 162.934 398.334 161.845 400.206 160.036C400.993 159.274 402.039 158.759 402.832 158.011C404.589 156.35 405.897 154.459 407.047 152.318C410.122 146.599 413.555 141.04 416.973 135.491C418.272 133.386 418.463 131.365 417.589 129.126C416.797 127.106 415.999 125.046 417.489 123.124C416.62 122.13 415.78 122.08 415.197 122.824C414.209 124.087 412.81 124.553 411.378 125.167C408.122 126.564 405.515 128.893 403.261 131.397C400.42 134.555 396.916 136.198 392.724 137.063C390.327 137.556 387.916 138.335 385.753 139.405C384.192 140.18 382.946 141.582 381.705 142.832C379.866 144.677 378.133 146.612 376.41 148.547C373.86 151.414 372.872 154.957 372.027 158.45C371.363 161.2 369.783 163.444 368.422 165.832C368.207 166.203 367.634 166.405 367.205 166.651C366.851 166.853 366.288 166.911 366.121 167.193C363.786 171.068 359.002 172.255 355.98 175.363C355.178 176.196 354.237 176.913 352.939 178.05C353.015 176.89 352.896 176.201 353.13 175.632C353.865 173.836 354.696 172.066 355.56 170.315C357.976 165.406 360.43 160.511 362.865 155.602C363.122 155.086 363.428 154.558 363.519 154.007C364.216 149.774 366.145 145.909 367.529 141.882C368.661 138.572 369.439 135.159 370.404 131.795C370.666 130.873 370.867 129.937 372.122 129.565C372.714 129.386 373.283 128.772 373.598 128.217C376.309 123.469 380.745 120.826 385.992 119.174C388.427 118.408 390.938 117.852 393.34 117.01C396.052 116.056 398.606 114.708 400.63 112.76C402.421 111.035 404.082 109.136 405.491 107.12C407.826 103.779 411.464 102.194 415.021 100.509C416.477 99.8197 418.186 99.6136 419.743 99.0985C420.616 98.8119 421.586 98.5028 422.235 97.934C425.147 95.372 427.358 92.2994 428.298 88.6669C428.747 86.9425 429.253 85.3793 430.39 83.9639C432.877 80.8644 435.341 77.7425 437.733 74.5759C438.158 74.016 438.535 73.0664 438.306 72.5379C438.115 72.1079 436.997 71.9646 436.267 71.8347C432.954 71.2435 430.027 72.726 426.947 73.4068C424.746 73.895 422.526 74.3206 420.33 74.8222C416.601 75.6777 413.689 77.8052 410.915 80.1702C407.444 83.1308 403.743 85.6794 398.993 86.6603C395.885 87.3008 392.762 88.0622 389.826 89.1865C385.897 90.6869 382.998 93.567 380.339 96.5813C377.159 100.174 374.701 104.697 373.015 109.445C372.705 110.314 372.165 111.116 371.249 111.819C371.869 108.025 372.581 104.24 373.087 100.433C373.617 96.4425 374.906 92.6084 375.574 88.649C375.822 87.1619 375.593 85.6525 375.727 84.2506C375.861 82.8755 376.052 81.4019 376.352 80.0268C376.93 77.3977 376.682 74.8401 376.663 72.2289C376.639 68.35 375.593 64.6996 374.099 61.206C373.163 59.0023 371.779 56.6956 369.917 55.1637C365.505 51.5447 361.294 47.5583 355.507 45.7175C353.655 45.1352 353.378 44.3648 353.722 42.5821C354.223 39.9709 355.116 37.3372 355.015 34.7394C354.882 31.3263 354.972 27.7789 351.702 25.0109C349.291 22.9729 347.959 20.075 346.78 17.1009C345.486 13.8312 343.366 10.8437 341.47 7.80247C340.2 5.76451 338.797 3.78478 337.25 1.92598C336.61 1.15559 335.45 0.761435 334.204 0C333.807 1.0257 333.392 1.69307 333.296 2.39628C332.881 5.57639 332.404 8.76098 332.251 11.9545C332.184 13.446 332.513 15.0943 333.177 16.447C334.376 18.897 335.832 21.262 337.422 23.5104C340.057 27.228 341.585 31.2816 342.263 35.6576C342.745 38.8063 344.688 41.2608 346.985 43.3436C349.501 45.6234 349.964 48.0242 348.833 50.9893C347.305 54.9891 345.443 58.9485 344.588 63.0827C343.585 67.9111 343.371 72.7932 345.829 77.6216C348.451 82.768 349.931 88.3578 350.532 94.082C350.871 97.3204 351.525 100.303 354.099 102.821C357.594 106.234 360.788 109.915 364.092 113.494C366.493 116.092 368.47 118.753 368.484 122.515C368.499 125.843 368.389 129.126 367.018 132.163C366.56 133.179 364.827 133.695 363.676 134.438C364.082 134.729 364.493 135.016 364.899 135.303C364.445 133.068 364.144 130.797 363.495 128.611C362.788 126.241 361.905 124.02 359.928 122.072C357.412 119.59 355.383 116.724 354.204 113.252C352.509 108.272 351.54 103.116 349.706 98.1983C348.675 95.4302 347.796 92.5816 345.376 90.4272C343.542 88.7968 341.8 87.0231 340.315 85.115C338.453 82.7232 335.908 81.1869 333.134 80.2508C330.265 79.2788 327.128 78.7727 324.072 78.5756C321.556 78.4144 318.973 79.3102 316.447 79.1982C312.781 79.0325 309.114 78.4905 305.485 77.9083C302.969 77.5007 300.52 76.7303 298.028 76.1749C296.414 75.8121 294.829 75.4538 293.291 76.6452C292.642 77.1468 291.568 77.1647 290.656 77.4066C290.809 78.6966 291.577 79.0997 292.757 79.6506C296.175 81.2586 299.326 83.3503 302.707 85.0434C306.579 86.9873 309.844 89.5761 312.752 92.604C314.638 94.5703 315.812 96.8411 316.595 99.4434C317.694 103.076 319.374 106.547 320.706 110.121C321.351 111.841 321.919 113.615 322.272 115.411C322.836 118.296 324.096 120.755 326.455 122.725C328.255 124.23 330.145 124.884 332.628 124.239C334.471 123.76 336.381 124.132 337.751 125.601C341.279 129.386 346.016 131.701 350.265 134.59C351.506 135.437 353.378 135.518 354.992 135.827C356.19 136.055 357.441 136.037 358.649 136.23C360.038 136.454 361.533 136.431 362.105 138.187C362.254 138.644 363.538 138.778 364.13 138.998C362.225 144.355 360.516 149.107 358.859 153.873C358.348 155.342 358.119 156.905 357.527 158.343C355.818 162.495 353.946 166.593 352.218 170.741C351.358 172.814 350.771 174.987 349.888 177.047C349.324 178.368 348.766 179.981 347.653 180.756C344.445 182.991 341.637 185.45 340.033 188.979C333.86 189.839 327.457 189.597 321.895 193.346C322.134 189.27 320.105 185.929 318.233 182.597C317.154 180.675 315.497 179.04 314.132 177.253C312.427 175.032 312.012 172.402 311.702 169.796C311.487 167.977 311.544 166.123 311.549 164.291C311.554 161.689 311.907 159.055 311.582 156.497C311.32 154.45 310.346 152.462 309.534 150.5C308.579 148.184 307.481 145.922 306.407 143.647C306.116 143.038 305.767 142.415 305.313 141.914C303.394 139.808 302.554 137.3 301.699 134.702C301.265 133.386 301.212 131.191 298.725 131.137C296.782 127.106 291.95 126.394 288.899 123.617C286.698 121.606 284.349 119.801 283.012 117.055C282.31 115.622 280.954 114.471 279.732 112.993C278.085 112.625 277.684 114.081 277.397 115.196C277.087 116.383 276.972 117.758 277.297 118.918C277.999 121.435 277.865 123.881 277.598 126.421C277.159 130.667 277.287 134.971 276.662 139.186C276.189 142.375 275.688 145.506 275.975 148.731C276.156 150.701 276.638 152.524 277.789 154.244C279.302 156.506 280.257 159.167 282.062 161.182C284.874 164.327 286.402 168.098 288.579 171.538C290.389 174.404 293.019 176.344 296.132 177.249C299.474 178.221 302.062 180.008 304.445 182.122C307.104 184.478 309.787 186.561 313.315 187.792C314.91 188.348 316.276 189.665 318.009 190.314C318.668 190.556 319.112 191.676 319.336 192.473C319.985 194.793 320.458 197.153 321.026 199.492C321.967 203.361 322.984 207.213 323.829 211.101C324.048 212.104 324.025 213.314 323.628 214.25C321.389 219.531 320.305 225.071 318.935 230.567C318.166 233.653 316.634 236.6 315.22 239.512C314.089 241.85 313.268 244.161 313.683 246.754C313.721 247.001 313.497 247.278 313.296 247.802C312.222 246.593 311.181 245.581 310.346 244.439C307.61 240.703 305.051 236.882 301.718 233.519C300.038 231.821 299.331 229.286 298.047 227.208C296.338 224.453 294.461 221.793 292.723 219.051C291.668 217.381 290.694 215.661 289.777 213.923C287.701 209.986 284.946 206.551 281.489 203.581C280.711 202.914 280.41 201.762 279.651 201.059C275.435 197.145 271.095 193.346 266.908 189.4C265.237 187.828 263.284 186.659 261.427 185.342C260.224 184.487 259.316 183.273 258.152 182.359C254.986 179.878 251.429 177.741 248.665 174.92C247.008 173.227 244.148 171.883 244.506 168.846C242.291 165.339 241.436 161.429 240.395 157.527C239.956 155.861 240.644 154.522 240.596 153.017C240.472 149.223 240.486 145.416 240.625 141.618C240.773 137.484 241.231 133.359 241.317 129.225C241.355 127.415 240.658 125.601 240.548 123.774C240.429 121.879 240.462 119.948 240.72 118.063C240.935 116.455 241.704 114.918 241.961 113.311C242.281 111.313 243.284 109.857 244.688 108.312C248.77 103.815 252.565 99.0941 256.423 94.418C257.044 93.6655 257.583 92.7652 257.851 91.856C258.863 88.4026 261.231 85.6749 263.193 82.7277C264.067 81.4109 265.008 80.1119 265.714 78.719C267.161 75.8658 265.905 73.2411 264.798 70.5895C264.158 69.0711 263.561 67.4945 263.294 65.891C262.725 62.4422 262.191 58.9664 261.995 55.4862C261.79 51.8403 262.1 48.1765 261.995 44.526C261.942 42.8195 261.427 41.1309 261.145 39.4334C261.045 38.8332 261.002 38.224 260.964 37.6194C260.854 35.6486 260.882 33.6644 260.601 31.7205C260.496 31.0083 259.651 30.3992 259.011 29.5661C255.492 32.5715 251.677 34.4169 247.743 36.1592C244.993 37.382 242.587 39.2945 240.095 40.9921C239.55 41.3594 239.302 42.1074 238.915 42.6807C237.43 44.8933 235.85 47.0567 234.494 49.3455C233.597 50.8639 232.689 52.4987 232.393 54.1784C231.873 57.1345 231.524 60.1713 231.644 63.1499C231.811 67.2795 231.572 71.3107 230.259 75.2522C228.483 80.5778 228.178 86.1318 227.738 91.6096C227.504 94.5031 228.693 97.4951 229.199 100.447C230.006 105.181 233.258 108.917 235.043 113.243C236.222 116.105 236.996 119.12 237.822 122.094C239.918 129.601 238.614 137.188 238.357 144.744C238.261 147.414 238.194 150.083 237.578 152.838C237.368 151.965 237.063 151.105 236.963 150.218C236.428 145.394 234.251 141.139 232.04 136.843C230.426 133.712 229.209 130.394 227.915 127.124C227.161 125.216 226.382 123.281 226.02 121.292C225.661 119.326 225.766 117.279 225.752 115.272C225.723 111.613 225.809 107.949 225.747 104.294C225.7 101.575 225.891 98.9015 226.139 96.1917C226.454 92.7115 227.165 88.9625 224.439 85.8093C222.315 83.3458 220.4 80.7166 218.127 78.383C216.509 76.7258 215.692 74.7326 215.129 72.7574C214.475 70.4641 212.961 68.9054 211.118 67.7901C207.476 65.5864 203.575 63.75 199.77 61.7838C199.426 61.6046 198.991 61.5732 198.6 61.4702C197.148 62.4601 197.072 63.7232 197.435 65.1341C198.867 70.7015 198.28 76.3406 198.175 81.9707C198.127 84.6805 197.884 87.4486 198.366 90.0912C198.676 91.7753 199.846 93.5625 201.178 94.7763C202.682 96.1558 202.973 97.4279 202.997 99.318C203.045 103.367 203.121 107.461 204.783 111.349C205.938 114.05 206.678 116.903 207.795 119.621C208.946 122.425 210.765 124.602 214.069 125.646C217.091 126.604 219.956 128.02 222.854 129.31C224.654 130.12 226.067 131.267 226.984 133.081C228.087 135.249 230.044 137.103 230.803 139.343C231.902 142.563 233.888 145.474 234.222 148.982C234.556 152.421 235.416 155.821 236.003 159.243C236.132 159.995 236.098 160.775 236.16 161.957C233.893 158.45 231.343 155.736 228.555 153.125C227.256 151.911 226.32 150.146 224.807 149.017C221.785 146.764 218.6 144.7 215.573 142.456C213.544 140.946 211.73 139.186 209.72 137.663C204.539 133.739 200.653 128.678 196.117 124.19C192.761 120.876 190.679 116.822 189.743 112.383C189.294 110.265 189.743 107.98 189.715 105.772C189.681 102.879 189.571 99.9899 189.509 97.0964C189.481 95.8378 189.442 94.5747 189.49 93.3161C189.571 91.3006 189.729 89.3432 188.774 87.3769C186.831 83.3772 187.905 79.4401 189.476 75.5702C190.058 74.1324 190.655 72.6902 191.071 71.2076C191.887 68.3007 192.861 65.3983 193.233 62.4377C193.548 59.9115 193.281 57.2868 192.976 54.7338C192.727 52.6286 192.045 50.5683 191.548 48.49C191.414 47.9346 191.371 47.312 191.08 46.8327C189.667 44.4723 188.411 41.982 186.649 39.8679C184.768 37.6104 183.527 35.1873 182.395 32.5536C180.825 28.8942 178.662 25.4543 176.752 21.9249C176.657 21.7502 176.599 21.4904 176.451 21.4277C172.622 19.8779 171.28 15.8423 167.876 13.8895C166.716 13.2221 166.535 11.3051 164.467 11.6858C163.856 13.4192 164.601 15.054 165.174 16.662C166.864 21.3963 167.361 26.0545 165.179 30.8381C162.968 35.6844 161.994 40.898 161.407 46.0847C160.901 50.5638 162.238 54.9935 163.589 59.2934C164.582 62.4556 166 65.4969 167.141 68.6188C167.838 70.5268 168.277 72.5245 169.003 74.4191C170.603 78.6025 172.827 82.347 177.005 84.8642C180.323 86.8618 183.355 89.2089 185.594 92.3576C186.482 93.6028 187.06 94.7315 187.036 96.3574C186.993 98.794 186.726 101.172 186.458 103.587C186.172 106.202 186.559 108.926 186.955 111.559C187.466 114.945 188.282 118.287 189.099 122.313C187.456 120.952 186.134 120.051 185.06 118.936C181.44 115.174 177.44 111.967 172.703 109.387C166.387 105.943 160.194 102.203 154.871 97.4458C152.632 95.4482 150.946 92.913 148.989 90.6377C146.926 88.2369 144.849 85.8406 142.753 83.4578C139.659 79.9462 136.489 76.5018 132.636 73.6801C128.439 70.603 123.727 68.5068 118.628 67.0556C114.202 65.7925 109.895 64.1756 105.479 62.8811C102.915 62.1286 100.27 61.4837 97.6156 61.2104C95.8395 61.0268 93.9679 61.5419 92.1536 61.8196C90.3154 62.1062 88.5011 62.5317 86.6582 62.8094C85.3548 63.011 84.2423 63.3693 83.6981 64.6235C83.5835 64.8877 83.4307 65.2192 83.192 65.3446C80.9623 66.5315 80.5421 68.4709 81.0196 70.5268C81.5734 72.9097 80.4801 74.652 79 76.3585C79.6875 78.2666 81.096 79.5386 82.8005 80.4703C86.6534 82.5754 90.5685 84.5775 94.4549 86.6155C95.7249 87.2829 97.076 87.8383 98.2506 88.6266C101.583 90.8706 105.14 92.4875 109.203 93.343C111.237 93.7685 113.175 94.9689 114.928 96.129C119.812 99.3628 125.25 100.505 131.094 100.147C137.63 99.7391 144.071 100.505 150.564 101.025C154.747 101.356 157.759 103.036 160.853 105.181C162.414 106.261 164.19 107.071 165.785 108.115C169.609 110.605 173.386 113.163 177.182 115.698C177.435 115.868 177.683 116.043 177.922 116.231C180.438 118.228 183.078 120.114 185.437 122.269C187.576 124.226 189.676 126.224 191.653 128.365C193.935 130.841 196.747 132.933 199.54 134.94C202.41 137 205.599 138.666 208.521 140.664C215.349 145.336 222.634 149.497 227.924 155.893C227.972 155.955 227.944 156.072 227.972 156.475C226.64 156.247 225.308 156.202 224.134 155.781C220.094 154.316 215.926 154.07 211.653 154.083C208.259 154.092 204.926 153.429 201.746 152.197C200.424 151.687 199.025 151.149 197.626 151.051C192.508 150.684 188.545 148.31 184.778 145.273C181.975 143.015 178.791 141.179 175.873 139.034C170.111 134.801 164.467 130.429 158.685 126.224C155.859 124.168 152.875 122.295 149.881 120.455C148.697 119.724 147.351 119.165 145.995 118.766C142.686 117.785 139.373 116.719 135.978 116.11C133.075 115.586 130.001 115.228 127.098 115.546C123.063 115.993 119.081 115.855 115.071 115.747C114.278 115.725 113.505 115.366 112.717 115.183C108.678 114.251 104.916 112.383 100.652 112.173C99.8691 112.133 98.9811 111.497 98.389 110.914C97.0522 109.588 96.145 107.667 94.5599 106.802C91.1032 104.93 88.5107 101.168 83.2922 102.355C83.3829 102.928 83.2922 103.922 83.7124 104.666C86.5054 109.642 89.8714 114.224 94.326 118.058C95.1424 118.761 95.8204 119.666 96.3694 120.576C98.4654 124.033 100.466 127.518 101.564 131.428C102.38 134.362 104.983 136.292 107.346 138.021C109.895 139.885 112.922 141.372 115.988 142.37C119.377 143.481 122.362 145.327 125.713 146.442C128.807 147.472 131.781 149.098 134.957 149.532C140.156 150.24 145.47 150.37 150.674 149.004C153.262 148.328 155.821 147.786 158.604 148.569C162.529 149.667 166.53 148.731 170.221 147.656C174.193 146.505 177.774 147.589 181.546 147.96C184.73 148.274 186.96 150.227 189.662 151.346C194.088 153.183 198.466 155.122 203.465 155.292C205.508 155.36 207.442 155.942 209.347 156.909C212.207 158.361 215.167 159.668 218.524 160.121C222.367 160.645 225.671 162.625 229.032 164.363C229.92 164.819 230.966 165.115 231.687 165.738C233.324 167.14 234.804 168.707 236.347 170.208C236.222 170.382 236.103 170.557 235.979 170.736C234.719 170.364 233.439 170.02 232.183 169.616C229.085 168.622 226.048 167.386 222.878 166.656C220.538 166.118 217.994 165.903 215.597 166.114C209.299 166.66 202.973 166.88 196.733 168.255C193.591 168.949 190.097 169.478 186.774 168.21C186.034 167.932 185.069 167.695 184.358 167.901C181.608 168.689 179.053 167.919 176.456 167.319C175.754 167.157 175.009 166.79 174.355 166.893C168.783 167.78 163.04 167.802 157.697 169.813C157.129 170.028 156.456 170.27 156.112 170.7C153.548 173.88 149.275 174.66 146.119 177.047C144.52 178.256 142.233 178.745 140.185 179.345C136.542 180.411 134.57 182.915 132.946 185.929C131.285 189.015 129.179 191.9 127.647 195.035C126.716 196.934 126.129 199.124 126.052 201.212C125.914 204.683 126.277 208.176 126.511 211.657C126.549 212.239 126.974 212.803 127.222 213.372C127.905 213.072 128.845 212.947 129.237 212.445C131.423 209.628 134.288 207.939 137.945 207.366C139.889 207.061 141.817 206.662 143.761 206.34C149.657 205.373 153.114 201.641 155.74 197.01C156.909 194.954 157.898 192.809 159.029 190.731C160.204 188.567 162.4 187.371 164.405 186.041C166.095 184.921 167.948 184.012 169.695 182.964C172.512 181.28 174.575 178.888 176.561 176.425C177.502 175.26 178.528 174.158 179.464 172.994C180.915 171.193 182.625 170.803 185.126 170.956C190.273 171.265 195.496 171.081 200.543 169.778C202.515 169.272 204.391 168.698 206.478 169.343C207.328 169.603 208.34 169.455 209.276 169.406C212.575 169.231 215.769 169.473 218.834 170.835C220.114 171.404 221.651 171.439 222.997 171.914C227.113 173.361 231.195 174.902 235.282 176.416C235.664 176.559 236.008 176.944 236.366 176.949C240.968 177.002 243.27 180.093 245.977 182.924C248.918 185.996 252.384 188.616 255.545 191.51C256.944 192.786 258.185 194.215 259.45 195.613C260.424 196.683 261.317 197.812 262.191 198.856C259.063 198.667 256.046 198.564 253.048 198.287C249.467 197.96 245.905 197.485 242.329 197.068C241.618 196.988 240.901 196.938 240.2 196.809C237.989 196.41 235.812 196.159 233.84 194.811C230.751 192.697 227.395 190.923 224.153 189.006C223.799 188.8 223.465 188.473 223.083 188.415C217.531 187.568 212.264 184.975 206.392 186.01C204.095 186.417 201.971 187.546 199.531 187.349C196.957 187.138 194.379 187.053 191.811 186.838C188.593 186.57 185.594 185.087 182.276 185.315C179.879 185.481 177.473 185.822 175.153 186.211C173.787 186.444 172.622 188.348 171.61 189.665C170.679 190.865 169.624 191.716 168.177 192.33C165.713 193.369 164.243 195.465 163.021 197.552C161.216 200.647 158.461 202.766 155.348 204.978C155.611 205.565 155.907 206.215 156.203 206.869C160.28 205.901 164.157 205.381 168.082 206.291C169.882 206.707 171.767 206.989 173.415 207.728C176.093 208.924 178.963 209.269 181.784 209.52C184.319 209.749 187.146 209.807 189.452 208.978C194.016 207.334 197.955 208.633 202.004 210.17C202.863 210.497 203.642 211.021 204.506 211.325C210.593 213.484 216.303 212.969 221.307 208.88C223.551 207.043 225.528 204.92 227.619 202.922C230.818 199.859 234.389 197.96 239.226 199.03C241.527 199.541 243.952 199.532 246.297 199.89C249.643 200.405 252.919 201.122 256.132 202.264C260.176 203.702 264.42 204.629 268.526 205.914C269.858 206.331 271.229 206.989 272.236 207.881C276.07 211.285 279.89 214.716 283.475 218.344C287.5 222.42 290.799 226.948 292.833 232.283C294.452 236.542 296.237 240.815 298.62 244.721C300.534 247.865 303.471 250.458 305.925 253.316C306.894 254.449 307.739 255.668 308.699 256.81C310.876 259.394 313.182 261.84 315.693 264.178C319.207 267.456 322.043 271.358 325.371 274.824C327.749 277.297 329.334 280.231 331 283.057C332.733 286 333.588 289.395 334.886 292.575C337.03 297.847 339.46 303.011 343.07 307.566C345.4 310.509 348.131 313.178 350.427 316.143C352.051 318.249 353.292 320.627 354.619 322.925C356.2 325.657 357.694 328.434 359.217 331.197C359.537 331.78 359.819 332.389 360.301 333.352C357.407 332.55 354.93 331.735 352.385 331.211C351.034 330.933 349.563 331.157 348.15 331.175C347.758 331.18 347.362 331.336 346.985 331.292C340.544 330.593 334.017 330.248 327.691 329.016C324.068 328.308 320.506 327.063 316.791 327.104C311.644 327.162 306.445 327.31 301.365 328.04C296.906 328.68 293.554 328.026 290.847 324.398C288.02 320.605 284.697 317.133 281.785 313.389C280.548 311.79 279.675 309.9 278.868 308.054C277.774 305.542 277.101 302.854 275.884 300.4C274.375 297.363 274.747 294.116 274.184 290.976C273.984 289.856 273.912 288.53 273.22 287.711C271.51 285.677 270.035 283.505 267.877 281.718C265.924 280.101 265.132 277.458 264.678 274.856C263.919 270.507 265.098 266.355 265.752 262.14C265.857 261.468 266.087 260.814 266.13 260.142C266.273 257.674 266.201 255.3 263.704 253.621C262.453 252.779 261.56 251.462 260.29 250.664C255.349 247.569 253.1 243.265 252.752 237.756C252.599 235.386 251.725 232.99 250.775 230.755C249.701 228.242 245.289 227.79 243.059 230.003C241.021 232.014 238.805 233.971 238.204 236.963C237.922 238.365 237.125 239.677 236.571 241.026C234.327 246.494 232.794 252.143 232.26 257.974C231.878 262.149 232.799 266.278 233.577 270.381C233.687 270.937 233.974 271.519 234.346 271.967C237.454 275.666 239.545 279.863 241.565 284.136C244.119 289.547 248.087 293.95 253.134 297.52C256.915 300.194 261.393 301.094 265.857 301.949C268.531 302.46 271.152 302.894 273.358 304.57C273.883 304.968 274.695 305.035 275.588 305.327C276.872 311.369 281.078 316.085 284.946 320.981C285.552 321.751 286.206 322.495 287.171 323.646C286.092 323.52 285.437 323.534 284.845 323.364C279.87 321.939 274.829 321.03 269.591 320.999C266.626 320.976 263.661 320.582 260.696 320.327C260.415 320.304 260.123 320.103 259.885 319.928C257.65 318.311 254.957 317.236 253.358 314.867C251.587 312.242 249.82 309.6 247.848 307.1C245.762 304.458 243.48 301.94 241.197 299.437C237.335 295.199 233.482 290.953 229.462 286.846C228.096 285.453 226.287 284.423 224.611 283.321C220.285 280.472 215.411 278.99 210.245 278.049C206.487 277.368 202.854 276.105 199.139 275.196C193.081 273.705 186.998 273.606 180.944 275.219C179.55 275.59 178.16 276.034 177.521 277.494C176.905 278.9 177.621 281.928 179.297 283.052C181.493 284.513 182.243 286.358 182.018 288.768C181.885 290.187 182.51 291.271 183.637 292.36C186.563 295.177 190.154 296.893 194.002 298.075C196.585 298.868 198.805 300.104 201.126 301.358C204.959 303.436 207.982 306.464 211.634 308.717C211.844 308.847 211.897 309.196 212.193 309.788C208.951 310.007 205.948 310.545 202.902 309.9C200.576 309.407 198.29 308.735 195.96 308.283C193.238 307.759 190.479 307.409 187.748 306.935C186.444 306.706 185.112 306.491 183.871 306.066C181.34 305.197 178.8 304.574 176.122 304.113C172.966 303.562 169.987 302.079 166.931 301C166.167 300.731 165.427 300.27 164.644 300.207C162.347 300.014 161.369 298.075 159.693 297.081C159.411 296.915 159.282 296.404 159.244 296.037C158.604 290.676 156.542 285.717 154.202 280.871C152.154 276.62 149.184 273.046 145.121 270.157C142.166 268.061 139.378 265.754 135.964 264.379C134.417 263.757 132.593 263.681 130.879 263.515C128.43 263.277 125.79 263.734 123.78 261.974C122.6 260.939 121.645 259.69 120.595 258.53C119.392 257.199 118.461 255.381 116.938 254.642C113.978 253.209 111.194 251.184 107.58 251.157C105.054 251.139 102.681 250.526 100.485 249.249C99.7402 248.819 98.6946 248.873 97.8161 248.622C95.1281 247.865 92.9175 246.356 90.7117 244.784C89.6518 244.027 88.2815 243.655 86.8731 243.032C86.0662 245.321 86.5579 247.166 87.2789 248.801C88.8927 252.461 90.8311 255.995 92.5881 259.6C94.4692 263.474 96.2453 267.394 98.1742 271.246C98.6803 272.262 99.5062 273.149 100.284 274.018C100.991 274.806 101.803 275.523 102.619 276.217C103.44 276.912 104.228 277.749 105.207 278.157C107.236 278.999 110.134 281.704 110.593 283.733C111.963 289.789 116.556 292.499 122.428 293.887C123.207 294.071 124.099 293.793 124.882 293.959C126.964 294.398 129.141 294.702 131.051 295.526C136.475 297.865 142.013 299.325 148.043 299.692C153.987 300.055 159.946 300.718 165.513 303.226C169.858 305.188 174.441 306.711 178.977 308.283C180.085 308.668 181.417 308.502 182.653 308.551C185.671 308.672 188.631 309.138 191.304 310.46C192.894 311.243 194.37 311.978 196.237 311.682C196.661 311.615 197.148 311.906 198.118 312.175C192.637 313.667 187.619 314.155 182.505 314.535C178.633 314.822 175.024 314.352 171.405 313.483C169.738 313.089 168.196 312.184 166.664 311.396C163.713 309.877 160.342 309.792 157.21 308.883C154.255 308.027 151.075 307.83 148.134 306.935C142.978 305.358 137.974 306.07 132.846 306.975C130.559 307.378 128.11 307.024 125.742 306.935C122.686 306.823 119.635 306.437 116.589 306.5C111.5 306.603 106.381 306.787 101.416 308.861C101.64 309.953 101.846 310.97 102.056 311.991C104.811 312.963 107.556 313.819 110.196 314.894C112.813 315.955 115.448 316.941 118.15 317.787C118.68 317.953 119.129 318.446 119.549 318.853C121.087 320.354 122.519 321.953 124.133 323.373C126.553 325.5 129.652 326.436 132.784 327.148C135.973 327.865 139.201 328.546 142.452 328.895C147.37 329.424 152.149 328.909 156.37 326.127C159.54 324.044 162.873 322.19 166.024 320.067C168.148 318.638 170.851 317.948 173.324 316.999C173.863 316.793 174.541 316.779 175.133 316.842C180.829 317.389 186.473 316.882 192.078 316.04C194.522 315.673 196.948 315.1 199.311 314.406C202.319 313.523 205.322 312.919 208.473 313.42C209.471 313.581 210.483 313.734 211.434 314.043C214.78 315.145 218.142 315.825 221.756 315.763C224.821 315.704 227.905 316.224 230.98 316.488C231.018 316.699 231.061 316.905 231.1 317.111C230.34 317.366 229.538 317.917 228.836 317.823C226.659 317.532 224.902 318.513 223.346 319.494C218.485 322.58 213.062 324.313 207.628 326.23C201.145 328.514 194.556 328.609 187.862 328.743C184.382 328.81 180.834 328.474 177.554 330.266C176.389 330.902 174.771 330.888 173.343 331.014C169.447 331.345 165.546 331.623 161.636 331.842C160.949 331.883 160.237 331.426 159.54 331.448C157.898 331.507 156.255 331.681 154.622 331.878C153.911 331.963 153.19 332.456 152.536 332.371C149.495 331.981 146.85 333.191 144.095 334.006C142.624 334.44 141.364 335.112 140.022 335.878C134.446 339.072 129.012 342.65 122.486 344.057C120.046 344.581 117.525 344.773 115.09 345.315C114.278 345.495 113.615 346.278 112.956 346.735C114.407 349.208 116.527 349.691 118.862 350.126C122.906 350.883 126.94 351.541 131.027 352.092C135.759 352.728 139.363 350.86 143.283 349.396C148.377 347.497 153.472 346.368 159.134 346.547C165.236 346.744 171.553 346.502 177.191 343.537C182.133 343.362 185.036 339.936 188.411 337.298C189.982 336.071 191.343 334.615 192.856 333.316C194.699 331.739 197.086 331.363 199.402 330.808C204.219 329.652 209.032 328.474 213.816 327.202C214.881 326.92 215.912 326.32 216.79 325.666C219.388 323.726 223.007 323.516 225.351 321.164C225.49 321.026 225.676 320.896 225.867 320.851C230.507 319.7 234.952 317.81 240.047 319.028C244.401 320.063 248.961 320.327 253.363 321.232C256.576 321.895 259.827 322.737 262.788 324.044C267.457 326.118 272.079 328.268 277.116 329.41C282.43 330.611 287.786 331.677 293.139 332.725C296.681 333.419 300.238 334.1 303.824 334.552C305.848 334.808 307.944 334.521 310.007 334.606C313.086 334.727 316.18 334.83 319.231 335.175C323.194 335.627 327.123 336.299 331.067 336.904C336.295 337.705 341.556 337.822 346.846 337.732C352.686 337.638 358.424 338.498 363.958 340.182C365.381 340.617 366.765 341.858 367.653 343.062C372.165 349.194 376.295 355.581 380.969 361.601C385.223 367.088 390.007 372.216 394.548 377.511C396.042 379.253 397.422 381.089 398.988 382.778C401.772 385.774 404.584 388.749 407.506 391.629C413.373 397.411 418.406 403.807 423.147 410.4C424.503 412.29 425.238 414.561 426.331 416.622C429.115 421.866 432.624 426.641 436.974 430.865C437.814 431.68 438.645 432.307 440.082 431.823C440.149 430.35 439.065 429.311 438.139 428.451C434.166 424.76 431.383 420.281 428.981 415.685C426.226 410.414 422.922 405.514 419.351 400.739C417.947 398.858 416.467 397.03 415.14 395.095C419.977 397.711 423.581 401.491 426.804 405.63C428.017 407.189 429.034 408.886 430.199 410.476C430.881 411.399 431.268 412.698 432.877 412.622L432.82 412.658ZM338.152 293.193C336.409 292.27 337.001 290.501 336.892 289.014C337.293 290.429 337.694 291.845 338.1 293.256C339.393 293.887 339.57 295.043 339.303 296.346C338.921 295.298 338.539 294.245 338.152 293.193ZM240.935 171.408C242.572 171.448 243.671 172.402 244.358 174.44C242.386 174.19 242.09 172.375 240.968 171.395C240.477 170.561 239.98 169.728 239.312 168.586C241.059 169.222 241.388 170.132 240.935 171.408ZM325.848 223.768C325.882 224.516 326.498 225.362 325.07 226.357C325.309 225.156 324.808 224.314 325.92 223.808C325.237 220.892 325.443 220.301 327.983 218.689C327.19 220.565 326.522 222.169 325.848 223.768ZM313.931 258.74C311.167 257.943 310.69 255.538 309.725 253.477C309.257 253.195 308.656 253.007 308.34 252.617C307.29 251.318 306.574 249.697 305.309 248.644C302.191 246.051 300.429 242.678 298.601 239.319C298.009 238.226 297.603 237.048 297.111 235.911C297.307 235.799 297.512 235.691 297.713 235.584C298.921 237.138 300.128 238.697 301.336 240.255C300.845 238.401 299.799 236.842 298.973 235.194C298.061 233.384 297.35 231.49 296.548 229.635C294.743 228.623 294.547 226.697 293.64 225.179C294.81 226.563 296.5 227.66 296.49 229.698C296.93 230.025 297.488 230.28 297.779 230.692C300.496 234.553 303.227 238.405 305.834 242.329C308.331 246.073 312.141 249.057 313.115 253.679C314.385 253.737 314.991 253.213 315.13 252.205C315.454 249.805 315.698 247.39 316.066 244.999C316.304 243.449 316.71 241.926 317.04 240.394C317.293 240.439 317.546 240.484 317.799 240.528C316.944 246.172 316.085 251.811 315.154 257.921C313.483 255.914 311.964 254.364 310.78 252.617C309.114 250.167 307.71 247.561 306.168 245.039C305.256 243.552 303.981 242.369 302.244 240.757C302.468 241.868 302.425 242.41 302.678 242.763C304.158 244.842 305.791 246.83 307.204 248.949C308.169 250.396 308.861 252.008 309.673 253.549C311.683 254.87 312.805 256.823 313.884 258.803C315.306 259.632 316.944 260.268 317.288 262.113C315.559 261.544 314.437 260.42 313.931 258.74ZM363.753 336.707C362.936 337.181 362.54 336.304 362.077 336.232C361.294 336.115 360.396 336.716 359.532 336.966C359.384 337.011 359.164 336.774 358.969 336.751C355.226 336.308 351.468 335.453 347.734 335.547C341.838 335.699 336.018 335.632 330.188 334.404C332.031 333.141 333.822 332.604 335.932 332.72C339.637 332.917 343.356 333.428 347.042 333.28C351.396 333.101 355.45 334.163 359.589 334.991C360.439 335.161 361.327 335.179 362.12 335.255C363.208 332.156 360.984 329.984 360.372 327.287C363.027 328.747 366.398 333.473 366.966 336.169C365.892 336.362 364.813 336.554 363.724 336.765C365.113 336.922 366.503 337.078 368.021 337.253C370.738 340.814 373.512 344.594 375.254 348.934C373.244 346.614 371.549 344.097 369.668 341.714C368.432 340.147 367.482 338.118 364.784 338.171C364.45 338.176 364.096 337.217 363.753 336.707ZM261.312 191.053L261.26 191.125C261.217 190.937 261.245 190.654 261.121 190.574C257.54 188.245 254.695 185.199 251.744 182.252C250.775 181.284 250.087 180.299 250.164 178.507C251.238 179.457 251.95 180.124 252.704 180.742C259.159 186.032 265.633 191.299 272.074 196.607C273.229 197.557 274.28 198.618 275.306 199.693C277.727 202.224 280.171 204.736 282.473 207.361C283.996 209.09 285.399 210.931 286.641 212.844C287.925 214.819 288.928 216.951 290.102 218.993C291.019 220.588 292.012 222.146 292.972 223.719C292.752 223.844 292.532 223.969 292.317 224.09C290.522 221.407 288.899 218.595 286.879 216.068C284.721 213.368 282.043 211.043 279.842 208.373C276.103 203.845 274.929 202.649 272.351 201.825C274.313 204.893 277.985 206.492 279.231 210.058C275.349 208.566 260.443 194.179 258.505 190.26C259.398 190.511 260.357 190.78 261.312 191.053ZM242.596 80.7166C244.955 77.8276 245.323 74.1548 246.941 70.9523C248.321 68.2156 248.125 65.1072 247.796 62.1107C247.462 59.0963 247.653 56.1984 248.584 53.2243C249.304 50.9221 250.135 48.696 251.004 46.4475C252.508 42.5463 255.029 39.299 257.474 35.9666C257.77 35.5635 258.257 35.2813 258.796 34.82C259.078 37.2118 259.331 39.3125 259.57 41.4131C259.713 42.6672 259.947 43.9214 259.947 45.18C259.947 48.6691 259.746 52.1583 259.823 55.6475C259.861 57.3361 260.663 59.0291 260.544 60.6864C260.224 65.1923 261.269 69.3757 263.317 73.3844C264.163 75.0462 263.857 76.6138 263.141 78.168C262.735 79.0504 262.195 79.8835 261.661 80.7077C260.061 83.1846 258.061 85.5002 256.905 88.1428C254.728 93.128 251.095 97.1188 247.59 101.195C244.563 104.711 241.092 107.9 239.269 112.504C237.741 106.695 237.722 101.15 238.376 95.6273C238.868 91.5111 239.584 87.3948 241.417 83.5474C241.875 82.5844 242.248 81.5855 242.668 80.5957C241.541 80.2284 241.164 81.0436 240.815 81.7154C237.812 87.5337 237.144 93.8626 236.6 100.147C236.366 102.897 237.254 105.728 237.626 108.522C237.76 109.517 238.213 110.56 237.096 111.694C236.356 110.216 235.845 108.89 235.077 107.716C231.978 102.977 230.541 97.7907 230.388 92.2904C230.331 90.3958 230.856 88.4788 230.784 86.5841C230.603 81.6706 232.503 77.1155 233.525 72.4259C233.897 70.7194 234.322 69.1159 234.275 67.3467C234.184 64.0815 234.193 60.8028 234.442 57.5466C234.58 55.7505 234.838 53.726 235.831 52.2703C238.648 48.1317 240.424 43.263 244.984 40.2665C247.452 38.6406 249.858 36.9744 252.857 36.2891C253.702 36.0965 254.494 35.7292 255.74 35.2903C254.862 36.7325 254.279 37.9822 253.42 39.0348C250.995 41.9909 249.729 45.5159 248.34 48.8752C246.359 53.6767 245.724 58.7738 246.488 64.0277C246.903 66.8809 245.977 69.7519 244.702 72.4573C243.47 75.073 242.148 77.7067 242.596 80.7166ZM122.056 81.066C125.14 83.1308 128.186 85.2539 131.328 87.2426C134.565 89.294 137.831 91.314 141.197 93.1683C144.515 94.9913 147.972 96.5813 151.366 98.2744C150.33 98.5969 149.433 98.5342 148.549 98.3909C143.021 97.4995 137.401 96.9531 131.858 97.5578C125.412 98.2565 119.917 96.6485 114.694 93.2982C112.956 92.1919 110.846 91.3454 108.783 91.0005C106.367 90.5929 104.448 89.3835 102.4 88.4071C98.4702 86.5304 94.6411 84.4566 90.8406 82.3649C87.8423 80.7121 84.4285 79.5924 82.175 76.7348C82.7479 75.7091 83.3018 74.7102 83.7888 73.8323C86.7537 73.3979 89.5229 75.1178 92.9175 73.6442C91.6523 73.4113 90.9743 73.2859 90.2963 73.165C88.6873 72.8783 87.0449 72.7171 85.4837 72.2826C83.0869 71.6152 82.3708 70.2222 83.7315 68.4172C84.7771 67.0377 86.2763 65.255 87.7993 65.031C90.9791 64.5742 94.0013 63.2484 97.3434 63.5395C101.803 63.9337 105.98 65.1385 110.034 66.8361C111.442 67.4273 112.832 68.0813 114.293 68.5292C117.129 69.3981 120.065 70.0117 122.868 70.9658C126.644 72.2557 130.344 74.11 133.08 76.6989C137.993 81.3482 142.238 86.6245 146.721 91.6723C147.8 92.8951 148.712 94.2478 149.7 95.5422C148.864 95.6855 148.43 95.4795 148.005 95.2645C145.36 93.9432 142.691 92.6622 140.079 91.2827C138.299 90.3421 136.437 89.4462 134.899 88.2145C131.099 85.1643 127.494 81.8991 122.056 81.066ZM185.623 86.8126C184.883 86.6916 184.157 86.7454 183.622 86.4677C177.974 83.516 173.386 79.7043 171.648 73.5233C171.075 71.4764 170.259 69.4653 169.337 67.5348C167.599 63.8889 165.904 60.2654 165.637 56.1894C165.57 55.1458 165.121 54.1112 164.754 53.1034C163.899 50.7474 163.455 48.266 163.742 45.8608C164.372 40.486 165.795 35.2813 168.249 30.3275C169.056 28.6927 169.595 26.8697 169.06 24.9392C168.888 24.3077 169.17 23.5687 169.285 22.4892C170.139 23.8911 170.731 24.8676 171.343 25.8798C172.794 25.105 172.102 24.3346 171.629 23.6179C170.178 21.4277 170.168 21.4366 170.335 19.4569C174.78 23.2506 177.998 27.5908 179.779 32.9522C180.724 35.7919 182.109 38.4659 184.448 40.7681C186.32 42.609 187.919 45.0322 188.688 47.4643C190.168 52.1449 192.049 56.7404 190.593 61.9898C189.046 67.5841 188.201 73.3396 184.978 78.7234C184.616 76.9363 184.324 75.3552 183.961 73.792C183.79 73.044 183.489 72.3229 183.231 71.5973C182.095 68.4172 180.786 65.2774 179.86 62.0435C179.082 59.3292 178.896 56.5254 179.091 53.6543C179.302 50.5279 178.843 47.3613 178.819 44.217C178.81 42.4523 179.397 40.6517 179.158 38.9362C178.896 37.0461 177.989 35.2321 177.363 33.3822C177.239 33.0105 177.148 32.6253 176.995 32.2669C175.983 29.8438 174.36 27.8506 172.054 26.3053C172.402 27.4117 172.98 28.3881 173.634 29.3153C175.893 32.5312 177.554 36.0114 177.707 39.8634C177.903 44.759 177.63 49.6725 177.693 54.577C177.721 57.036 177.707 59.5711 178.304 61.9405C179.55 66.9033 180.982 71.8481 182.777 76.6586C183.417 78.3875 183.933 80.0895 184.277 81.8588C184.458 82.7994 184.415 83.7803 184.625 84.7164C184.773 85.3479 185.188 85.9302 185.623 86.8126ZM296.486 78.5846C297.345 78.7145 297.97 78.6742 298.448 78.9071C303.528 81.4064 308.751 83.6773 313.483 86.7723C314.146 87.2112 314.958 87.5113 315.746 87.6994C320.32 88.7833 324.903 89.8135 329.482 90.8706C329.682 90.9154 329.854 91.0363 330.036 91.1304C334.065 93.1638 337.403 95.9811 339.207 99.8958C340.869 103.501 342.091 107.335 343.06 111.17C344.607 117.319 347.706 122.546 352.619 126.806C354.758 128.66 356.472 130.756 358.171 133.327C355.044 133.627 352.189 133.524 349.892 131.97C346.216 129.489 342.822 126.64 339.303 123.953C337.164 122.318 334.92 121.167 332.017 122.215C331.406 122.434 330.494 122.51 329.969 122.237C327.968 121.189 326.264 119.724 325.581 117.628C324.555 114.502 324.43 111.107 322.253 108.334C322.029 108.052 322.057 107.591 321.948 107.215C320.363 101.781 318.677 96.3171 314.843 91.8784C311.516 88.0264 307.443 84.8687 302.673 82.5441C300.592 81.5228 297.989 81.1287 296.486 78.5846ZM251.558 316.22C249.032 315.978 249.023 315.987 247.968 314.965C246.526 313.568 245.07 312.175 243.68 310.733C240.176 307.082 235.664 305.219 230.684 304.104C228.416 303.593 226.23 302.76 223.957 302.276C221.594 301.77 220.166 300.14 218.395 298.845C214.609 296.086 210.694 293.614 206.124 291.822C202.085 290.241 198.18 288.315 193.921 287.245C191.467 286.631 188.965 286.085 186.444 285.847C185.437 285.753 184.931 285.413 184.458 284.804C183.007 282.913 182.157 280.593 179.932 279.245C179.779 279.147 179.86 278.708 179.803 278.193C183.369 276.782 187.031 276.128 190.937 276.473C199.135 277.198 206.879 279.774 214.785 281.632C220.013 282.855 224.754 285.355 228.665 288.947C231.744 291.773 233.893 295.437 237.531 297.779C237.612 297.833 237.664 297.927 237.731 298.003C241.627 302.344 245.041 307.033 248.612 311.606C249.624 312.905 250.393 314.37 251.558 316.22ZM243.991 232.193C245.06 235.028 245.576 237.586 245.337 240.215C244.988 244.027 243.666 247.628 244.086 251.668C244.492 255.618 245.49 259.058 247.777 262.279C248.393 263.148 249.152 263.985 249.519 264.944C251.014 268.845 252.403 272.777 253.778 276.715C254.447 278.636 254.914 280.62 255.597 282.537C256.776 285.865 259.04 288.606 261.327 291.312C263.06 293.363 264.864 295.356 266.669 297.349C267.481 298.25 268.369 299.092 269.663 300.4C264.989 300.561 261.073 299.67 257.755 298.147C252.441 295.701 248.674 291.446 245.986 286.376C243.847 282.327 241.379 278.43 239.054 274.471C237.965 272.612 236.385 270.865 235.879 268.881C233.936 261.257 234.346 253.701 237.426 246.324C238.557 243.61 239.402 240.793 240.515 238.078C241.312 236.121 241.98 234.056 243.991 232.193ZM369.024 107.9C368.823 107.909 368.627 107.922 368.432 107.931C367.935 105.495 367.482 103.049 366.932 100.626C366.465 98.5655 366.102 96.4514 365.314 94.4986C364.23 91.8067 362.788 89.2223 361.485 86.6469C360.253 84.2058 359.184 81.7557 358.391 79.2027C357.651 76.8109 357.36 74.437 357.727 71.7944C358.386 67.0914 359.408 62.1555 356.314 57.6989C355.479 56.503 354.591 55.3295 353.87 54.0709C352.666 51.9702 351.922 49.7576 352.738 46.8596C355.073 48.0107 357.24 48.8886 359.184 50.0845C361.246 51.3521 363.108 52.9063 365.042 54.3575C368.327 56.8255 370.867 59.7592 372.285 63.5843C373.22 66.1105 373.526 68.6411 373.87 71.2569C374.801 78.3203 373.225 85.1777 372.371 92.0799C371.755 97.0382 369.85 101.822 369.43 106.847C369.396 107.206 369.162 107.55 369.024 107.9ZM413.011 191.586C413.073 191.761 413.13 191.931 413.187 192.106C411.97 192.952 410.652 193.7 409.549 194.663C405.505 198.206 400.635 199.751 395.24 200.177C389.081 200.665 382.913 200.504 376.768 201.821C370.236 203.227 363.423 203.379 356.901 205.108C355.569 205.462 353.922 205.413 352.6 205.019C346.302 203.151 340.005 201.252 334.29 198.031C332.676 197.122 331.048 196.24 329.052 195.138C330.723 194.569 331.855 193.924 333.039 193.826C336.853 193.503 340.683 193.297 344.516 193.216C346.039 193.185 347.61 193.458 349.095 193.826C352.089 194.565 355.078 195.362 357.995 196.32C360.573 197.162 363.099 197.194 365.624 196.41C367.854 195.72 370.031 194.874 372.223 194.072C373.268 193.687 374.276 193.221 375.326 192.849C375.985 192.616 376.668 192.442 377.36 192.325C378.582 192.124 379.814 191.949 381.051 191.832C382.755 191.671 384.469 191.501 386.178 191.47C388.427 191.434 390.704 191.729 392.925 191.51C394.557 191.344 395.961 191.546 397.255 192.348C398.683 193.225 400.148 193.181 401.743 192.961C405.491 192.442 409.258 192.038 413.011 191.586ZM423.228 190.717C422.655 191.582 421.872 191.219 421.108 190.892C420.225 190.516 419.375 190.054 418.463 189.763C416.501 189.141 414.686 189.911 412.767 190.229C408.408 190.95 403.958 191.196 399.542 191.582C398.964 191.631 398.258 191.501 397.771 191.214C395.254 189.736 392.581 189.88 389.793 190.18C388.098 190.363 386.341 190.126 384.622 189.983C381.251 189.705 378.205 191.084 374.977 191.55C374.887 191.564 374.81 191.667 374.715 191.703C373.473 192.159 372.227 192.607 370.981 193.064C369.926 193.445 368.818 193.732 367.83 194.233C366.192 195.066 364.455 195.277 362.645 195.371C358.825 195.577 355.187 194.703 351.774 193.328C347.582 191.64 343.342 191.707 338.997 192.124C337.918 192.227 336.83 192.253 335.746 192.316C338.591 191.483 341.537 190.314 344.306 190.605C349.114 191.102 353.091 189.212 357.068 187.568C361.676 185.669 366.269 184.012 371.263 183.318C372.881 183.094 374.443 182.543 376.047 182.207C380.697 181.226 385.328 180.165 390.007 179.349C394.643 178.534 398.983 180.241 403.381 181.222C406.78 181.979 410.146 182.946 413.154 184.675C416.506 186.592 419.776 188.639 423.228 190.717ZM314.538 185.392C311.286 184.164 307.925 183.076 305.81 180.182C305.304 179.484 304.511 178.879 303.719 178.458C301.561 177.325 299.36 176.268 297.135 175.264C294.304 173.983 291.415 172.582 290.107 169.836C288.402 166.253 285.714 163.319 283.642 160.009C281.861 157.165 279.799 154.271 279.016 151.14C278.118 147.544 277.636 143.669 278.949 139.903C279.326 138.819 279.541 137.578 279.388 136.463C278.868 132.646 279.331 128.911 280.081 125.184C280.238 124.41 280.391 123.639 280.544 122.864C281.317 124.127 281.589 125.341 281.809 126.564C282.434 130.053 282.95 133.56 283.709 137.023C284.005 138.366 285.232 139.585 285.337 140.91C285.528 143.275 286.884 144.825 288.531 146.33C290.885 148.48 293.554 150.41 295.483 152.856C299.217 157.581 302.855 162.396 304.464 168.282C305.175 170.88 306.259 173.477 307.682 175.797C309.72 179.125 312.232 182.202 314.538 185.392ZM245.857 231.275C247.762 230.943 248.397 231.01 248.712 232.063C249.429 234.473 249.997 236.923 250.574 239.368C250.751 240.116 250.627 240.945 250.88 241.662C252.518 246.284 255.158 250.257 259.464 253.15C260.472 253.827 261.618 254.53 262.21 255.488C263.05 256.868 263.847 258.471 263.924 260.008C264.01 261.889 263.456 263.828 262.955 265.687C260.863 273.472 262.305 280.235 268.808 285.888C270.737 287.563 272.04 289.78 272.141 292.566C272.25 295.558 272.952 298.532 273.401 301.555C273.1 301.403 272.58 301.26 272.222 300.951C269.601 298.671 266.903 296.48 264.95 293.578C263.465 291.365 261.417 289.475 259.971 287.245C257.33 283.169 255.483 278.761 254.356 274.072C253.358 269.96 251.983 265.938 249.285 262.458C247.7 260.411 246.454 258.288 246.349 255.641C246.258 253.392 245.719 251.166 245.623 248.918C245.566 247.543 245.8 246.1 246.234 244.779C246.793 243.077 247.485 239.969 247.314 238.423C247.103 236.591 246.97 234.75 246.683 232.932C246.593 232.336 246.125 231.79 245.857 231.275ZM215.062 199.048C216.127 195.375 218.586 195.407 221.383 195.868C222.868 196.11 224.449 195.81 225.953 195.98C227.624 196.173 229.261 196.62 231.185 197.01C229.19 198.569 227.5 199.711 226.053 201.073C224.024 202.981 222.028 204.943 220.285 207.07C216.953 211.137 208.917 210.989 204.711 208.933C199.779 206.528 194.818 204.745 189.094 206.985C186.998 207.805 184.472 207.67 182.142 207.952C181.646 208.011 181.097 208.109 180.648 207.97C176.647 206.77 172.66 205.507 168.664 204.284C167.714 203.997 166.73 203.805 165.246 203.442C167.136 201.776 168.616 200.36 170.235 199.111C170.894 198.6 171.839 198.287 172.698 198.17C174.126 197.969 175.601 197.852 177.034 197.969C180.132 198.219 183.178 198.148 186.224 197.489C187.089 197.301 188.058 197.503 188.975 197.566C189.781 197.619 190.584 197.767 191.395 197.785C193.868 197.839 196.346 197.848 198.819 197.884C202.596 197.933 206.373 198.47 210.14 197.44C211.663 197.024 213.386 197.225 215.062 199.048ZM89.7616 248.277C89.8953 248.188 90.0242 248.098 90.1579 248.008C92.5165 250.441 94.9228 252.837 97.2336 255.305C100.313 258.601 103.865 261.437 107.685 263.869C110.564 265.701 113.992 266.749 117.043 268.366C119.516 269.678 122.032 271.071 124.099 272.863C126.735 275.147 128.965 277.848 131.328 280.405C133.715 282.999 137.153 283.823 140.313 285.063C141.44 285.507 142.514 285.798 143.503 286.6C146.501 289.045 149.662 291.316 152.751 293.654C151.529 294.25 150.507 294.452 149.538 294.317C147.193 293.999 144.873 293.533 142.543 293.117C135.453 291.849 129.108 288.978 123.278 285.077C118.432 281.839 113.791 278.331 108.191 276.199C104.954 274.972 102.543 272.768 100.977 269.826C99.7306 267.492 98.5657 265.123 97.3434 262.776C94.8225 257.943 92.2921 253.11 89.7616 248.277ZM156.332 294.684C155.725 294.384 155.41 294.308 155.229 294.12C153.668 292.499 152.326 290.631 150.536 289.274C147.198 286.73 143.656 284.365 139.502 283.093C136.742 282.246 134.173 281.167 132.135 279.187C130.363 277.458 128.492 275.796 126.926 273.911C123.168 269.387 117.773 267.156 112.626 264.545C110.196 263.309 107.628 262.198 105.489 260.599C102.71 258.516 100.175 256.111 97.7874 253.634C96.9519 252.765 95.2665 252.169 95.5435 250.409C95.9588 250.449 96.3265 250.378 96.5365 250.517C99.0574 252.223 101.941 252.998 104.959 253.267C107.871 253.527 110.583 254.221 113.195 255.466C115.653 256.631 117.587 258.1 118.647 260.621C119.487 262.619 120.929 264.473 123.259 265.038C125.732 265.633 128.373 266.225 130.85 266.001C134.049 265.714 136.537 266.699 138.938 268.312C141.034 269.723 143.078 271.205 145.112 272.701C146 273.355 147.041 273.982 147.604 274.856C150.001 278.56 152.88 282.04 153.93 286.421C154.575 289.104 155.463 291.733 156.332 294.684ZM174.451 141.152C174.317 141.349 174.179 141.542 174.04 141.739C173.763 141.712 173.467 141.734 173.209 141.649C170.302 140.659 167.461 139.419 164.477 138.72C161.259 137.968 158.122 137.349 155.534 135.155C154.551 134.322 152.722 134.344 151.777 133.493C149.671 131.598 146.998 131.325 144.443 130.738C141.316 130.017 138.122 129.547 134.961 128.951C131.237 128.248 127.838 126.81 124.415 125.278C121.999 124.204 119.096 123.191 116.556 123.442C112.965 123.8 109.676 122.322 106.186 122.734C105.828 122.779 105.369 122.255 104.997 121.955C102.361 119.841 101.884 116.683 100.313 113.87C100.972 113.754 101.411 113.534 101.731 113.642C103.856 114.341 105.971 115.075 108.057 115.868C112.746 117.664 117.554 118.251 122.6 117.66C125.059 117.369 127.628 117.225 130.053 117.584C134.407 118.228 138.733 119.165 142.987 120.253C145.245 120.831 147.466 121.78 149.471 122.918C152.025 124.374 154.369 126.156 156.757 127.858C160.829 130.747 164.887 133.65 168.893 136.619C170.817 138.044 172.603 139.634 174.451 141.152ZM373.082 116.625C373.946 114.435 374.949 112.204 375.703 109.902C377.804 103.51 381.767 98.2834 386.933 93.7954C389.955 91.1707 393.822 90.3241 397.675 89.4686C401.901 88.537 406.007 87.3904 409.234 84.3894C410.533 83.1846 412.051 82.1813 413.536 81.16C419.346 77.1603 426.222 76.045 433.77 74.4908C432.309 76.0091 431.454 77.1065 430.38 77.962C428.599 79.3774 427.515 81.1332 426.35 83.0144C424.613 85.8138 422.192 88.3489 418.568 89.294C417.078 89.6792 415.384 89.612 414.071 90.2704C409.621 92.4965 404.589 93.334 400.311 96.2051C396.983 98.4401 394.209 101.007 391.612 103.806C388.756 106.888 385.963 109.987 382.139 112.043C379.212 113.615 376.204 115.048 373.082 116.625ZM282.124 120.808C285.843 123.944 289.338 127.155 293.597 129.516C296.548 131.159 299.45 132.911 299.861 136.597C299.909 137.031 300.386 137.417 300.644 137.838C302.029 140.091 303.595 142.267 304.741 144.623C306.316 147.862 307.62 151.226 308.928 154.576C309.343 155.633 309.577 156.811 309.582 157.935C309.591 161.594 309.3 165.267 309.434 168.927C309.505 170.915 309.854 173.025 310.685 174.839C311.859 177.401 313.602 179.735 315.072 182.18C315.321 182.592 315.421 183.08 315.598 183.533C311.53 179.278 308.064 174.763 306.235 169.289C305.103 165.881 303.786 162.531 302.516 159.162C302.349 158.719 301.986 158.32 301.642 157.962C299.011 155.239 296.357 152.542 293.731 149.819C291.745 147.763 289.395 145.895 287.934 143.548C285.901 140.283 284.616 136.736 284.421 132.741C284.225 128.803 282.96 124.911 282.124 120.808ZM175.248 143.777C175.138 144.055 175.038 144.337 174.933 144.614C171.586 145.215 168.249 145.842 164.892 146.397C163.675 146.599 162.367 146.899 161.197 146.684C158.385 146.169 155.635 145.345 152.846 144.704C151.357 144.364 149.843 143.978 148.325 143.911C141.903 143.62 136.265 141.667 131.552 137.475C128.659 134.899 125.503 133.068 121.182 133.399C119.148 133.556 116.837 133.368 115.119 132.019C112.598 130.031 110.201 127.899 107.814 125.758C107.384 125.373 107.269 124.674 106.873 123.823C107.919 124.038 108.544 124.105 109.122 124.298C111.772 125.193 114.431 125.561 117.296 125.31C118.953 125.167 120.748 125.735 122.385 126.255C124.52 126.927 126.539 127.908 128.635 128.687C133.285 130.42 138.146 131.312 143.097 131.845C147.303 132.297 150.75 134.389 154.336 136.234C156.933 137.573 159.559 139.19 162.381 139.723C166.501 140.503 170.096 142.451 174.069 143.463C174.46 143.566 174.852 143.674 175.248 143.777ZM368.451 113.741C368.284 113.821 368.112 113.897 367.945 113.973C365.662 112.2 362.912 110.744 361.222 108.567C359.422 106.247 357.536 103.967 355.794 101.607C354.39 99.6987 353.33 97.625 353.139 95.1884C352.948 92.707 352.604 90.2032 351.979 87.7935C351.377 85.4599 350.317 83.2338 349.487 80.9495C348.818 79.1176 348.221 77.2588 347.524 75.4358C346.87 73.7293 345.681 72.2109 346.646 70.1595C347.052 69.2996 346.536 68.0678 346.484 67.0063C346.45 66.3389 346.307 65.6088 346.531 65.0131C347.596 62.2227 347.543 59.0919 349.63 56.5836C350.365 55.6923 350.513 54.3754 351.081 52.8526C353.306 56.4134 356.3 59.28 356.629 63.338C356.83 65.8418 356.835 68.4172 356.443 70.8941C355.493 76.9408 357.379 82.3291 360.22 87.5874C361.48 89.9165 363.037 92.2009 363.738 94.6867C365.524 100.984 366.909 107.385 368.451 113.741ZM361.79 134.331C361.117 133.82 360.162 133.439 359.828 132.776C358.181 129.507 355.168 127.379 352.619 124.862C349.826 122.107 347.228 119.191 345.887 115.55C344.469 111.707 343.299 107.779 342.043 103.882C341.404 101.885 341.002 99.8062 339.799 98.0057C337.025 93.8447 333.325 90.8258 328.145 89.5403C325.347 88.8505 322.63 87.8651 319.833 87.1978C316.013 86.293 312.27 85.339 309.305 82.6829C308.894 82.3156 308.107 82.3515 307.572 82.0782C306.946 81.7557 306.402 81.2899 305.82 80.8868C305.915 80.7076 306.006 80.524 306.096 80.3449C307.085 80.4927 308.068 80.6942 309.061 80.7793C311.84 81.0122 314.676 81.5945 317.393 81.281C320.076 80.9674 322.664 80.7569 325.371 80.9271C329.883 81.2138 333.965 82.1678 337.35 85.236C341.179 88.7117 345.066 92.1785 346.813 97.0113C348.202 100.832 349.047 104.827 350.093 108.751C351.148 112.715 352.046 116.719 355.163 119.863C356.281 120.992 357.145 122.331 358.229 123.487C361.065 126.524 360.726 130.541 361.79 134.331ZM185.227 287.375C188.005 287.921 190.421 288.324 192.794 288.884C195.372 289.498 197.96 290.147 200.457 290.994C202.491 291.679 204.339 292.835 206.377 293.502C209.261 294.447 211.83 295.831 214.15 297.65C218.805 301.3 223.804 304.081 229.982 305.103C234.432 305.837 238.638 307.651 241.895 310.898C242.549 311.552 243.489 311.951 244.22 312.556C245.471 313.599 246.893 314.571 247.17 316.829C244.134 316.17 241.049 316.193 238.863 314.889C234.155 312.09 229.218 311.423 223.838 311.32C220.701 311.257 217.473 310.41 214.866 308.426C212.47 306.603 210.144 304.691 207.743 302.868C203.99 300.023 200.08 297.461 195.42 295.97C192.899 295.164 190.436 294.039 188.211 292.678C186.554 291.666 184.978 290.219 185.227 287.375ZM222.654 126.515C218.891 125.574 215.84 124.427 213 122.82C212.331 122.448 211.858 121.713 211.414 121.068C208.674 117.109 207.566 112.545 206.425 108.07C205.618 104.926 205.174 101.584 205.819 98.3237C206.115 96.8277 205.594 95.8602 204.492 95.0271C202.668 93.6565 201.479 91.9724 201.063 89.7822C200.935 89.1148 200.19 88.4922 200.218 87.8741C200.4 83.9953 200.791 80.1299 200.978 76.2555C201.092 73.7472 200.978 71.2255 200.968 68.0141C201.694 69.21 202.128 69.7564 202.376 70.3656C204.472 75.6463 207.094 80.6808 210.24 85.4913C213.019 89.7329 213.573 94.4717 213.635 99.3942C213.701 105.06 214.671 110.69 216.958 115.967C218.442 119.398 220.515 122.605 222.654 126.515ZM224.31 125.915C223.747 125.44 223.37 125.252 223.207 124.96C221.88 122.546 220.715 120.051 219.259 117.709C217.927 115.555 217.416 113.239 216.881 110.852C215.697 105.566 215.024 100.25 214.991 94.8435C214.981 93.2489 215.005 91.4752 214.298 90.1002C212.809 87.1843 211.324 84.2461 209.338 81.5452C207.967 79.6864 206.907 77.5544 206.091 75.4179C204.907 72.3184 203.279 69.4519 201.593 66.5987C201.293 66.0881 201.063 65.5417 200.495 64.3995C204.339 66.536 207.542 68.2783 210.679 70.1192C211.223 70.4372 211.629 71.1539 211.82 71.763C213.563 77.326 217.449 81.6527 221.231 86.0019C222.983 88.0174 223.818 90.0688 223.67 92.6622C223.394 97.3876 222.644 102.108 223.289 106.861C223.417 107.819 223.379 108.8 223.379 109.768C223.403 114.583 222.477 119.451 224.277 124.177C224.43 124.584 224.305 125.086 224.31 125.915ZM129.714 208.92C129.475 208.772 129.241 208.624 129.003 208.476C129.848 206.067 130.545 203.594 131.591 201.265C132.374 199.514 133.72 198.04 135.544 197.042C138.79 195.268 142.056 193.521 145.241 191.649C146.425 190.955 147.466 190.005 148.444 189.055C150.23 187.34 151.739 185.365 154.121 184.267C154.751 183.976 155.41 183.573 155.802 183.049C158.996 178.776 163.298 175.977 168.53 174.333C169.71 173.961 170.827 173.41 172.006 173.043C173.419 172.608 174.871 172.272 176.657 171.807C173.262 177.486 168.86 181.369 163.035 183.927C160.906 184.863 159.12 186.44 158.003 188.513C156.609 191.08 155.234 193.66 153.792 196.204C153.171 197.306 152.531 198.439 151.677 199.375C148.153 203.227 143.589 205.046 138.217 205.005C135.668 204.987 133.648 205.959 131.796 207.469C131.146 207.997 130.411 208.436 129.714 208.92ZM415.15 128.656C415.498 129.395 416.128 130.076 416.023 130.631C415.766 131.934 415.341 133.283 414.644 134.429C412.92 137.296 410.896 139.997 409.201 142.877C407.458 145.837 405.959 148.923 404.378 151.969C404.111 152.48 404.135 153.246 403.734 153.559C400.521 156.09 397.847 159.462 393.617 160.506C390.561 161.259 387.94 162.71 385.147 163.91C380.726 165.805 376.161 167.086 370.986 166.28C371.411 165.505 371.583 164.734 372.084 164.354C374.151 162.79 375.316 160.466 377.918 159.252C380.525 158.038 382.545 155.763 385.018 154.24C388.852 151.884 393.727 151.105 396.701 147.414C396.863 147.212 397.498 147.405 397.852 147.266C398.41 147.047 399.055 146.809 399.423 146.397C401.07 144.511 402.736 142.63 404.197 140.619C405.978 138.183 406.833 135.191 409.583 133.318C411.402 132.082 412.958 130.514 415.15 128.656ZM162.5 203.581C162.41 203.473 162.324 203.366 162.233 203.258C163.403 201.543 164.42 199.711 165.785 198.148C167.141 196.603 168.678 195.066 170.464 194.014C171.849 193.199 172.889 192.365 173.62 191.017C174.451 189.481 175.721 188.46 177.683 188.204C182.348 187.591 186.998 187.895 191.529 188.782C196.38 189.732 201.087 190.171 205.886 188.67C207.032 188.312 208.335 188.388 209.567 188.272C214.379 187.824 218.772 189.414 223.088 190.999C225.423 191.859 227.5 193.328 229.696 194.524C228.674 195.044 227.867 195.147 227.089 195.053C225.036 194.815 222.992 194.493 220.949 194.202C218.901 193.915 216.872 193.911 214.809 194.215C211.777 194.663 208.722 194.972 205.68 195.362C205.289 195.411 204.859 195.532 204.549 195.747C202.644 197.068 200.748 197.651 198.586 196.164C198.175 195.886 197.373 195.935 196.805 196.056C193.62 196.746 190.512 196.441 187.399 195.662C186.745 195.496 185.833 195.398 185.322 195.698C182.438 197.368 179.345 196.652 176.27 196.71C172.889 196.773 169.294 196.41 167.007 199.908C166.009 201.426 164.033 202.376 162.5 203.581ZM371.597 126.855C371.397 124.011 371.225 121.628 373.039 119.756C374.342 118.408 375.865 117.176 377.489 116.182C379.461 114.968 381.829 114.291 383.691 112.97C385.973 111.344 387.926 109.311 389.988 107.416C392.428 105.172 394.791 102.856 397.265 100.648C398.807 99.2688 400.435 97.9654 402.125 96.7515C405.214 94.5344 409.153 94.0955 412.567 92.5144C414.204 91.7574 416.104 91.4663 417.9 91.0318C420.115 90.4988 422.335 90.0733 423.782 88.1115C424.24 87.4844 425.09 87.1127 426.164 86.3288C425.649 89.9882 423.634 92.371 422.01 94.8838C420.893 96.6127 419.069 97.5443 416.897 97.7504C412.552 98.1624 409.215 100.59 406.102 103.031C403.6 104.997 401.748 107.712 399.69 110.148C398.238 111.859 396.61 113.297 394.376 114.027C391.669 114.914 388.976 115.873 386.226 116.634C380.239 118.291 375.474 121.471 371.597 126.855ZM176.294 169.702C176.341 169.881 176.389 170.06 176.437 170.235C174.518 170.848 172.531 171.332 170.684 172.102C166.578 173.818 161.989 174.606 158.791 178.082C157.353 179.64 154.952 180.357 154.045 182.521C153.882 182.906 153.224 183.094 152.818 183.398C151.533 184.379 150.034 185.199 149.032 186.39C145.919 190.077 141.679 192.236 137.473 194.533C135.41 195.666 132.88 196.352 131.781 198.77C131.022 200.45 129.986 202.009 129.074 203.621C128.96 200.472 129.027 197.476 130.927 194.695C132.765 191.998 134.274 189.082 135.754 186.189C136.79 184.169 138.361 182.691 140.347 181.625C142.223 180.621 144.271 179.9 146.219 179C148.334 178.024 150.464 177.043 152.517 175.95C155.568 174.328 158.284 172.281 161.708 171.135C165.819 169.755 170.116 170.19 174.241 169.263C174.852 169.124 175.606 169.54 176.294 169.702ZM112.498 309.855C113.09 309.707 113.467 309.546 113.849 309.532C117.721 309.371 121.583 310.352 125.47 309.573C125.947 309.474 126.501 309.747 127.012 309.734C130.053 309.649 133.094 309.573 136.136 309.402C138.91 309.246 141.751 308.489 144.434 308.852C150.421 309.671 156.356 310.916 162.252 312.224C164.152 312.645 165.928 313.707 167.485 315.239C166.434 315.548 165.637 315.745 164.868 316.009C159.096 317.98 153.204 318.446 147.17 317.326C143.13 316.578 139.125 316.063 134.971 316.896C130.97 317.698 127.432 316.538 124.386 313.908C123.355 313.022 122.027 312.3 120.7 311.888C118.093 311.087 115.396 310.554 112.498 309.855ZM150.211 146.54C150.158 146.67 150.111 146.805 150.063 146.939C148.158 147.279 146.267 147.812 144.348 147.911C142.214 148.023 140.041 147.83 137.902 147.597C136.069 147.396 134.193 147.141 132.455 146.572C129.838 145.716 127.303 144.619 124.777 143.535C120.566 141.721 116.35 139.911 112.206 137.963C108.334 136.145 105.193 133.672 103.732 129.578C102.729 126.788 101.43 124.065 99.9837 121.444C99.0049 119.671 97.6108 118.076 96.2692 116.5C95.3095 115.375 93.9965 114.511 93.0942 113.36C92.1966 112.218 90.3536 112.124 90.0099 110.247C89.7711 108.939 88.334 107.846 87.4937 106.619C87.1882 106.171 87.064 105.616 86.5723 104.42C88.6539 105.857 90.1961 106.798 91.5807 107.909C94.3498 110.135 96.7944 112.63 98.1789 115.873C98.5275 116.679 98.5943 117.637 99.1004 118.323C102.777 123.29 105.489 129.041 111.586 132.069C113.414 135.603 117.009 134.823 120.151 135.186C121.282 135.312 122.424 135.504 123.503 135.822C125.379 136.373 127.069 137.103 128.53 138.541C132.512 142.465 137.454 144.753 143.264 145.376C145.599 145.627 147.895 146.142 150.211 146.54ZM374.003 159.852C374.452 158.258 374.576 157.299 374.987 156.466C376.114 154.195 377.202 151.884 378.611 149.77C379.69 148.144 381.275 146.823 382.559 145.309C384.617 142.881 387.205 141.098 390.284 140.091C392.686 139.307 395.116 138.478 397.498 137.811C401.394 136.722 403.557 133.91 406.231 131.675C408.322 129.928 410.041 127.894 413.106 127.307C412.476 129.368 410.728 130.456 409.306 131.813C407.878 133.18 406.441 134.581 405.281 136.145C403.457 138.604 401.848 141.206 400.167 143.754C398.802 145.828 396.391 146.603 394.371 147.853C391.912 149.371 389.568 151.373 386.847 152.13C383.753 152.999 381.719 154.934 379.313 156.551C377.766 157.595 376.142 158.531 374.003 159.852ZM336.209 3.92363C337.135 5.20463 338.047 6.49012 338.988 7.76216C341.528 11.1886 343.891 14.7091 345.252 18.7089C346.087 21.1634 347.276 23.3358 349.257 25.1811C350.408 26.2516 351.731 27.5326 352.084 28.9211C353.225 33.436 352.834 37.9867 351.296 42.4209C351.191 42.73 350.852 42.9673 350.637 43.2182C346.932 40.7816 344.908 37.5656 344.34 33.5524C343.762 29.4541 342.01 25.7813 339.742 22.3011C339.102 21.3157 338.52 20.2766 337.737 19.3987C333.507 14.6464 335.063 9.31191 336.209 3.92363ZM109.743 311.575C109.8 311.364 109.862 311.149 109.919 310.939C111.963 311.494 113.973 312.238 116.059 312.56C119.01 313.022 121.598 313.859 123.971 315.731C125.283 316.762 126.639 318.231 128.712 318.199C131.046 318.168 133.381 318.06 135.716 318.123C138.91 318.208 142.147 318.159 145.284 318.647C151.18 319.556 156.938 319.659 162.615 317.653C163.36 317.393 164.195 317.353 165.532 317.115C163.627 318.513 162.219 319.731 160.619 320.672C158.261 322.06 155.878 323.516 153.3 324.452C150.235 325.563 147.184 326.902 143.574 326.047C139.769 325.146 135.787 324.949 131.958 324.138C129.347 323.583 127.002 322.333 125.14 320.363C123.937 319.091 122.118 318.24 121.216 316.838C119.97 314.898 118.208 314.737 116.241 314.589C115.959 314.567 115.701 314.316 115.424 314.191C113.529 313.317 111.638 312.444 109.743 311.575ZM123.288 348.455C123.97 347.152 125.097 347.17 126.076 347.156C127.823 347.129 129.576 347.318 131.323 347.309C132.292 347.304 133.319 347.241 134.221 346.941C136.647 346.131 139.024 345.185 141.421 344.299C141.994 344.084 142.639 343.976 143.145 343.667C147.05 341.311 151.199 339.502 155.811 338.789C158.771 338.333 161.751 337.719 164.725 337.697C171.767 337.643 178.819 337.916 185.962 336.093C185.36 336.751 184.94 337.271 184.448 337.714C184.081 338.05 183.608 338.283 183.183 338.561C178.413 341.665 172.851 342.44 167.327 343.246C165.007 343.586 162.615 343.757 160.271 343.663C156.021 343.492 151.896 343.676 147.805 345.006C145.847 345.642 144.085 346.552 142.228 347.34C136.15 349.929 129.791 349.342 123.288 348.455ZM191.104 331.081C191.223 331.363 191.338 331.65 191.457 331.936C189.657 332.823 187.872 333.728 186.062 334.597C182.157 336.478 177.845 336.12 173.701 336.344C169.686 336.563 165.694 335.775 161.598 336.671C157.602 337.549 153.453 337.567 149.643 339.425C146.076 341.172 142.152 342.261 138.576 343.981C134.732 345.83 130.76 346.09 126.596 345.804C127.365 345.329 128.191 345.047 129.008 344.742C130.039 344.357 131.127 344.07 132.078 343.546C135.63 341.589 139.058 339.412 142.686 337.589C145.933 335.954 149.433 335.112 153.138 334.458C157.597 333.665 162.028 333.849 166.434 333.621C171.247 333.374 176.074 333.854 180.447 331.381C180.615 331.292 180.829 331.229 181.02 331.224C184.382 331.171 187.743 331.126 191.104 331.081ZM326.502 216.386C327.195 209.274 324.597 202.784 322.817 195.895C328.245 197.185 332.628 199.635 337.188 202.403C336.596 203.612 336.281 204.907 335.464 205.807C333.015 208.521 330.36 211.065 328.484 214.21C327.997 215.029 327.171 215.67 326.502 216.386ZM292.585 330.266C288.302 329.321 283.929 328.922 279.679 327.686C275.53 326.477 271.081 326.073 267.438 323.238C272.723 323.001 277.636 324.018 282.63 324.855C286.684 325.536 290.169 326.575 292.69 329.719C292.723 329.76 292.666 329.863 292.585 330.266ZM300.019 331.059C306.951 329.518 320.601 328.394 329.907 332.16C329.372 332.42 328.928 332.801 328.47 332.828C325.91 332.985 323.342 333.2 320.787 333.114C317.498 333.007 314.213 332.698 310.943 332.366C307.29 331.995 303.657 331.498 300.019 331.059ZM129.461 292.239C128.172 292.149 126.873 291.948 125.589 291.992C120.848 292.163 117.735 289.484 114.837 286.559C113.82 285.534 113.29 284.069 114.183 282.524C119.64 285.202 123.56 290.035 129.461 292.239ZM217.507 168.716C217.602 168.47 217.698 168.219 217.793 167.964C219.321 168.12 220.916 168.071 222.372 168.474C224.74 169.124 226.984 170.145 229.328 170.875C231.868 171.672 234.442 172.38 237.034 172.998C238.93 173.45 239.861 174.579 240.648 176.868C237.087 175.336 234.146 173.992 231.138 172.805C229.18 172.031 227.137 171.439 225.108 170.835C222.587 170.091 220.042 169.424 217.507 168.716ZM384.288 360.75C388.365 365.113 392.438 369.054 395.98 373.376C399.518 377.69 404.388 381.089 406.408 386.478C398.964 378.465 391.76 370.281 384.574 362.071C384.364 361.83 384.416 361.382 384.288 360.75ZM325.113 230.33C324.984 236.385 321.083 240.551 318.902 245.334C319.904 240.125 320.515 234.773 325.113 230.33ZM229.677 160.421C229.061 162.083 228.13 161.572 227.113 161.2C223.79 159.995 220.452 158.826 217.096 157.716C215.458 157.169 213.763 156.793 212.092 156.341C212.178 156.076 212.26 155.808 212.345 155.543C218.266 156.412 224.048 157.738 229.677 160.421ZM192.455 121.977C195.635 127.03 200.734 129.973 203.537 134.783C199.97 131.907 195.969 129.529 193.085 125.932C192.207 124.844 191.782 123.868 192.455 121.977ZM134.78 294.125C141.731 295.37 148.688 296.61 155.644 297.856C155.601 298.066 155.553 298.277 155.506 298.487C148.468 297.596 141.316 297.26 134.78 294.125ZM243.508 176.931C248.636 178.597 250.422 183.206 253.773 186.547C253.072 186.552 252.446 186.395 252.078 186.019C250.699 184.621 249.424 183.139 248.077 181.705C246.569 180.102 245.031 178.521 243.508 176.931ZM317.035 256.581C319.608 258.001 321.055 260.33 321.58 263.891C319.112 262.901 317.226 259.869 317.035 256.581ZM330.141 218.017C329.787 217.43 329.367 217 329.463 216.834C330.375 215.271 331.32 213.721 332.37 212.23C332.747 211.701 333.421 211.361 333.96 210.935C334.103 211.061 334.247 211.186 334.395 211.316C333.063 213.408 331.735 215.5 330.141 218.017ZM346.001 183.936C344.254 187.949 344.254 187.949 342.755 187.707C343.901 186.377 344.951 185.154 346.001 183.936ZM336.123 284.866C335.942 284.974 335.765 285.077 335.588 285.18C334.777 283.948 333.965 282.712 332.848 281.005C335.402 281.865 335.464 283.545 336.123 284.866ZM218.347 313.286C215.874 313.796 215.874 313.796 214.322 312.645C216.724 311.853 216.724 311.853 218.347 313.286ZM232.756 314.571C232.708 314.818 232.661 315.064 232.613 315.315C231.4 315.01 230.183 314.71 228.975 314.406C229.027 314.208 229.085 314.007 229.142 313.81C230.345 314.065 231.553 314.316 232.756 314.571ZM344.507 304.435C344.287 304.502 344.068 304.565 343.853 304.632C343.38 303.566 342.912 302.5 342.444 301.439C342.621 301.372 342.798 301.309 342.974 301.242C343.485 302.308 343.996 303.374 344.507 304.435ZM341.795 299.652C341.547 299.732 341.303 299.817 341.06 299.898C340.826 299.177 340.592 298.456 340.358 297.735C340.458 297.703 340.554 297.672 340.654 297.641C341.036 298.312 341.413 298.984 341.795 299.652ZM258.142 201.135C258.175 200.956 258.204 200.782 258.233 200.602C258.958 200.728 259.679 200.844 260.396 200.996C260.448 201.005 260.434 201.27 260.472 201.606C259.651 201.44 258.896 201.288 258.142 201.135ZM223.155 313.899C223.207 313.644 223.265 313.389 223.322 313.134C224.029 313.281 224.735 313.425 225.442 313.572C225.408 313.752 225.375 313.935 225.342 314.114C224.611 314.043 223.881 313.971 223.155 313.899ZM409.482 389.698C409.669 389.586 409.859 389.474 410.05 389.362C410.528 390.025 411.005 390.688 411.483 391.351C411.33 391.445 411.172 391.543 411.015 391.638C410.504 390.993 409.993 390.348 409.482 389.698ZM337.407 207.325C337.536 207.442 337.665 207.558 337.794 207.675C337.255 208.293 336.72 208.911 336.18 209.529C336.027 209.399 335.879 209.274 335.736 209.148C336.29 208.539 336.849 207.93 337.407 207.325ZM281.618 212.266C281.422 212.409 281.226 212.552 281.035 212.696C280.577 212.096 280.124 211.495 279.665 210.891C279.804 210.797 279.942 210.703 280.081 210.604C280.591 211.159 281.107 211.71 281.618 212.266Z" fill="#3D3D3D"/>
</g>
</g>
<defs>
<filter id="filter0_d_120_36" x="75" y="0" width="378" height="439.992" filterUnits="userSpaceOnUse" color-interpolation-filters="sRGB">
<feFlood flood-opacity="0" result="BackgroundImageFix"/>
<feColorMatrix in="SourceAlpha" type="matrix" values="0 0 0 0 0 0 0 0 0 0 0 0 0 0 0 0 0 0 127 0" result="hardAlpha"/>
<feOffset dy="4"/>
<feGaussianBlur stdDeviation="2"/>
<feComposite in2="hardAlpha" operator="out"/>
<feColorMatrix type="matrix" values="0 0 0 0 0 0 0 0 0 0 0 0 0 0 0 0 0 0 0.25 0"/>
<feBlend mode="normal" in2="BackgroundImageFix" result="effect1_dropShadow_120_36"/>
<feBlend mode="normal" in="SourceGraphic" in2="effect1_dropShadow_120_36" result="shape"/>
</filter>
<clipPath id="clip0_120_36">
<rect width="435" height="435" fill="white"/>
</clipPath>
</defs>
</svg>
