<svg width="435" height="435" viewBox="0 0 435 435" fill="none" xmlns="http://www.w3.org/2000/svg">
<g clip-path="url(#clip0_118_21)">
<path d="M-22.7555 -14.3638C-18.6982 -10.3227 -15.3835 -5.62987 -10.2585 -2.53328C-6.00223 0.0393497 -1.68976 2.56884 2.36461 5.41046C5.31783 7.48344 7.88997 10.0417 10.6367 12.3817C11.4354 13.0679 12.2064 13.7808 13.0397 14.4242C21.2403 20.7775 29.5751 26.9817 37.6008 33.529C40.9 36.218 44.0199 39.1858 46.6836 42.5391C50.5998 47.4673 55.3861 51.7219 60.0241 56.0714C62.7638 58.6393 65.5363 61.1685 68.3329 63.6792C69.8744 65.0565 71.5761 66.2863 73.0695 67.7006C77.7343 72.1001 82.4392 76.4687 86.9044 81.0323C88.9971 83.172 90.5542 85.7446 92.3921 88.1015C93.8479 89.976 95.3645 91.8093 96.8185 93.6878C97.177 94.1505 97.3782 94.7041 97.6537 95.2223C97.4695 95.3258 97.2899 95.4311 97.1103 95.5365C95.9775 94.0949 94.949 92.5733 93.686 91.2343C92.1861 89.6488 90.5228 88.1805 88.8536 86.7385C85.6024 83.9258 82.2995 81.1582 79.0047 78.3844C77.2422 76.8973 75.4903 75.3859 73.6656 73.9683C69.9444 71.0635 67.5776 67.1213 64.3228 63.8691C60.7045 60.2532 57.83 56.0824 53.769 52.7711C51.6034 50.9994 50.218 48.4143 48.2687 46.3653C45.0282 42.9557 41.5978 39.7 38.2897 36.3478C32.2429 30.2261 25.3825 25.0573 17.9121 20.5687C15.542 19.1467 13.2771 17.5679 10.9803 16.0381C5.96114 12.6839 0.878044 9.40328 -4.04019 5.91465C-7.03822 3.78384 -9.59259 1.06004 -12.6797 -0.926363C-17.2919 -3.89313 -20.8344 -7.78434 -24.6553 -11.4781C-26.7538 -13.5047 -29.1898 -15.2342 -31.4335 -17.1358C-32.0555 -17.6592 -32.5407 -18.3257 -33.1023 -18.9145C-35.3405 -21.2517 -37.5467 -23.6135 -39.8526 -25.8932C-40.1814 -26.2132 -40.9831 -26.1212 -41.6262 -26.235C-42.1911 -24.6645 -41.0113 -23.8668 -40.2264 -22.9747C-38.5689 -21.095 -36.8713 -19.2461 -35.1897 -17.3849C-34.7699 -16.9151 -34.4311 -16.3695 -33.9492 -15.9691C-30.9537 -13.4592 -27.9254 -10.9881 -24.9202 -8.48845C-21.3885 -5.55474 -17.9145 -2.54964 -14.3321 0.328923C-11.6261 2.50218 -8.77345 4.52216 -5.99899 6.62389C-3.65055 8.40707 -1.41635 10.3431 1.0418 11.9715C7.0451 15.9427 13.1511 19.7753 19.2155 23.6671C20.6852 24.6139 22.1417 25.5166 23.4952 26.6829C26.9154 29.6263 30.6229 32.2893 34.2201 35.0588C34.468 35.2428 34.973 35.3163 35.0356 35.5069C35.894 38.2064 38.6111 39.446 40.4482 41.3695C43.8226 44.9043 47.2611 48.3897 50.6497 51.9162C52.8678 54.2254 55.0039 56.6003 57.2353 58.8912C59.9963 61.733 62.8336 64.5596 64.9731 67.7974C67.5434 71.6782 71.2255 74.4747 74.6488 77.5974C78.5581 81.1608 82.64 84.4859 86.7829 87.794C89.4615 89.9314 91.6027 92.655 93.95 95.1499C98.827 100.339 103.583 105.634 108.584 110.722C111.56 113.749 114.322 117 117.972 119.46C118.954 120.119 119.422 121.447 120.182 122.435C121.517 124.166 122.856 125.888 124.262 127.568C125.557 129.118 126.29 130.666 125.928 132.637C125.461 135.174 125.421 137.804 125.008 140.354C124.718 142.144 124.037 143.847 123.659 145.619C123.335 147.115 123.126 148.646 122.981 150.177C122.515 155.062 122.374 160.016 121.567 164.822C121.094 167.621 119.96 170.423 118.43 172.814C116.584 175.699 116.161 178.856 115.627 182.158C114.39 181.879 113.041 181.634 111.726 181.263C106.84 179.901 102 179.738 97.2344 180.709C95.8509 180.993 94.5802 181.662 93.3148 182.257C89.5546 184.032 85.139 184.104 81.2291 185.492C80.5633 185.73 79.7408 185.745 79.1827 186.106C76.2708 187.992 72.7114 188.232 69.3183 188.895C66.6165 189.424 63.8736 189.823 61.14 190.251C55.7913 191.081 51.698 193.728 48.4658 197.463C45.5957 200.782 42.1782 202.907 37.2054 202.754C35.0076 202.686 32.8006 202.976 31.0197 204.243C30.0641 204.928 30.1003 205.752 31.2344 206.27C32.5658 206.878 34.0144 207.725 35.361 207.738C38.4747 207.772 41.0312 209.198 43.6607 210.491C48.4146 212.831 53.4254 214.252 58.5907 214.767C62.8513 215.19 67.1244 215.162 71.3873 215.269C74.805 215.357 77.4912 213.634 80.4254 212.542C81.4423 212.162 82.4481 211.759 83.4882 211.438C84.2575 211.197 85.1413 211.189 85.8602 210.878C93.9574 207.384 102.476 204.592 109.863 199.896C110.757 199.329 111.897 199.075 113.018 198.64C113.094 199.024 113.281 199.374 113.172 199.553C111.497 202.353 109.974 205.262 108.02 207.874C105.952 210.639 103.533 213.176 101.14 215.699C99.6141 217.308 98.0451 218.979 96.1314 220.131C94.7188 220.98 92.7257 221.458 90.9766 221.358C87.6793 221.177 85.1728 222.583 82.6057 223.819C80.2964 224.931 77.8649 225.927 76.1066 227.863C75.461 228.576 74.1334 228.792 73.0654 229.116C70.5474 229.877 68.5795 231.242 67.1338 233.275C66.5241 234.128 65.6014 234.774 64.9844 235.619C63.6177 237.494 62.7491 239.544 62.091 241.816C60.3412 247.899 58.192 253.863 56.0617 259.82C55.255 262.076 55.523 264.116 56.8999 266.236C58.1456 268.15 59.4107 270.105 58.3653 272.205C59.4544 273.089 60.3006 273.03 60.711 272.216C61.4078 270.837 62.6879 270.196 63.9725 269.408C66.8891 267.61 68.9458 264.97 70.6137 262.186C72.7175 258.691 75.8287 256.617 79.7953 255.234C82.0636 254.441 84.2772 253.366 86.1851 252.028C87.5557 251.065 88.479 249.51 89.4295 248.115C90.8325 246.045 92.1113 243.902 93.3856 241.757C95.2647 238.583 95.4387 234.933 95.483 231.348C95.5177 228.519 96.577 226.089 97.3864 223.541C97.5147 223.144 98.0388 222.874 98.4042 222.575C98.7144 222.329 99.2574 222.202 99.3608 221.9C100.799 217.747 105.279 215.969 107.573 212.493C108.182 211.567 108.955 210.732 109.985 209.439C110.17 210.602 110.447 211.279 110.347 211.871C110.024 213.753 109.599 215.62 109.143 217.473C107.858 222.664 106.534 227.849 105.237 233.044C105.099 233.587 104.915 234.152 104.948 234.71C105.215 239.016 104.179 243.108 103.725 247.295C103.347 250.732 103.357 254.23 103.164 257.698C103.112 258.653 103.128 259.612 101.968 260.137C101.418 260.39 100.99 261.072 100.804 261.665C99.1925 266.73 95.3874 269.915 90.5518 272.218C88.3094 273.286 85.9385 274.154 83.7482 275.288C81.2664 276.575 79.0366 278.236 77.4713 280.434C76.0857 282.377 74.8648 284.473 73.9294 286.653C72.3708 290.278 69.1168 292.31 65.9647 294.429C64.673 295.297 63.0266 295.717 61.5952 296.423C60.7918 296.817 59.8988 297.245 59.3811 297.898C57.0776 300.811 55.5803 304.145 55.4695 307.885C55.4183 309.657 55.2716 311.278 54.4626 312.83C52.6969 316.226 50.9639 319.646 49.305 323.093C49.0129 323.708 48.8522 324.702 49.2012 325.199C49.4888 325.602 50.6292 325.608 51.3857 325.646C54.808 325.823 57.383 323.984 60.2834 322.921C62.3622 322.158 64.4714 321.46 66.5401 320.683C70.044 319.365 72.4546 316.887 74.6733 314.183C77.4463 310.803 80.5436 307.803 85.0362 306.233C87.9749 305.206 90.9058 304.059 93.5688 302.576C97.1302 300.59 99.3515 297.357 101.31 294.025C103.646 290.052 105.064 285.236 105.659 280.3C105.767 279.389 106.119 278.525 106.868 277.708C107.114 281.567 107.273 285.428 107.638 289.282C108.019 293.325 107.611 297.306 107.847 301.335C107.936 302.846 108.512 304.321 108.697 305.734C108.875 307.125 109.02 308.617 109.035 310.024C109.06 312.715 109.889 315.233 110.502 317.831C111.411 321.693 113.28 325.199 115.556 328.491C116.992 330.574 118.889 332.696 121.088 333.991C126.293 337.051 131.385 340.498 137.549 341.608C139.523 341.96 139.974 342.693 140.036 344.515C140.133 347.175 139.847 349.914 140.541 352.485C141.452 355.871 142.165 359.418 146.046 361.766C148.9 363.498 150.887 366.217 152.735 369.036C154.758 372.132 157.548 374.846 160.12 377.641C161.85 379.513 163.694 381.31 165.651 382.967C166.463 383.659 167.706 383.902 169.117 384.511C169.28 383.436 169.541 382.72 169.473 382.008C169.165 378.79 168.912 375.558 168.336 372.355C168.062 370.861 167.361 369.254 166.393 367.989C164.644 365.699 162.662 363.526 160.571 361.483C157.105 358.111 154.666 354.263 152.998 349.982C151.802 346.906 149.314 344.702 146.556 342.91C143.541 340.955 142.531 338.618 142.98 335.525C143.585 331.35 144.534 327.173 144.446 322.948C144.343 318.014 143.443 313.122 139.903 308.616C136.13 303.817 133.383 298.43 131.487 292.8C130.413 289.618 129.08 286.723 125.949 284.54C121.707 281.574 117.698 278.304 113.596 275.149C110.623 272.86 108.049 270.455 107.182 266.708C106.412 263.392 105.773 260.109 106.444 256.914C106.665 255.84 108.272 255.114 109.244 254.229C108.772 253.992 108.305 253.757 107.833 253.519C108.791 255.689 109.611 257.919 110.751 260.014C111.992 262.287 113.372 264.388 115.785 266.084C118.846 268.242 121.512 270.845 123.477 274.162C126.291 278.908 128.426 283.924 131.368 288.596C133.024 291.226 134.546 293.956 137.441 295.802C139.629 297.199 141.761 298.749 143.677 300.466C146.07 302.619 148.95 303.828 151.912 304.413C154.985 305.027 158.215 305.14 161.3 304.955C163.834 304.802 166.198 303.59 168.728 303.386C172.411 303.094 176.175 303.178 179.912 303.308C182.504 303.396 185.114 303.863 187.713 304.109C189.4 304.264 191.054 304.424 192.313 303.048C192.844 302.463 193.906 302.315 194.757 301.96C194.315 300.697 193.455 300.388 192.16 299.983C188.399 298.813 184.789 297.116 181.053 295.851C176.764 294.399 172.926 292.224 169.349 289.569C167.03 287.842 165.345 285.729 163.975 283.232C162.058 279.753 159.601 276.504 157.461 273.107C156.427 271.473 155.463 269.777 154.702 268.033C153.487 265.228 151.675 262.935 148.886 261.265C146.753 259.989 144.728 259.572 142.407 260.525C140.685 261.23 138.704 261.097 137.007 259.807C132.643 256.476 127.411 254.758 122.533 252.407C121.107 251.72 119.228 251.872 117.556 251.766C116.313 251.687 115.074 251.86 113.831 251.819C112.403 251.771 110.918 251.978 109.952 250.3C109.7 249.864 108.39 249.89 107.754 249.746C108.429 244.166 109.044 239.22 109.604 234.265C109.78 232.738 109.654 231.153 109.911 229.647C110.667 225.296 111.591 220.978 112.362 216.629C112.745 214.46 112.836 212.223 113.243 210.06C113.504 208.671 113.689 206.999 114.621 206.083C117.298 203.46 119.526 200.658 120.319 196.944C126.252 195.317 132.669 194.76 137.343 190.333C138.031 194.422 140.808 197.502 143.42 200.588C144.932 202.371 146.949 203.789 148.713 205.397C150.911 207.405 151.92 209.967 152.827 212.529C153.452 214.314 153.818 216.166 154.231 217.994C154.817 220.591 155.062 223.257 155.97 225.766C156.693 227.772 158.119 229.629 159.369 231.482C160.844 233.673 162.453 235.791 164.04 237.919C164.464 238.492 164.951 239.068 165.52 239.515C167.9 241.375 169.306 243.762 170.749 246.252C171.479 247.505 172.03 249.687 174.513 249.43C177.36 253.204 182.326 253.311 185.986 255.699C188.63 257.431 191.373 258.933 193.328 261.504C194.349 262.844 195.956 263.821 197.51 265.146C199.228 265.305 199.296 263.804 199.324 262.656C199.364 261.432 199.165 260.052 198.58 258.933C197.309 256.518 196.889 254.06 196.572 251.498C196.043 247.213 194.936 242.939 194.597 238.663C194.341 235.425 194.126 232.243 193.107 229.07C192.481 227.125 191.584 225.371 190.051 223.801C188.035 221.732 186.476 219.202 184.229 217.42C180.719 214.635 178.345 211.07 175.398 207.912C172.949 205.281 169.894 203.68 166.591 203.164C163.057 202.611 160.075 201.152 157.227 199.345C154.052 197.326 150.912 195.586 147.13 194.801C145.415 194.446 143.757 193.303 141.888 192.872C141.184 192.712 140.483 191.65 140.079 190.883C138.909 188.656 137.897 186.362 136.807 184.101C134.99 180.363 133.104 176.652 131.38 172.886C130.932 171.908 130.68 170.702 130.861 169.722C131.883 164.181 131.7 158.525 131.805 152.882C131.87 149.71 132.72 146.583 133.464 143.502C134.057 141.034 134.343 138.631 133.343 136.096C133.247 135.858 133.407 135.551 133.487 135.004C134.827 136.077 136.092 136.95 137.184 137.989C140.753 141.372 144.164 144.86 148.238 147.792C150.297 149.277 151.574 151.714 153.325 153.625C155.646 156.157 158.117 158.575 160.467 161.09C161.894 162.62 163.252 164.212 164.561 165.83C167.52 169.494 171.036 172.575 175.15 175.105C176.075 175.673 176.633 176.78 177.547 177.386C182.626 180.761 187.799 184.008 192.86 187.414C194.876 188.775 197.081 189.697 199.228 190.778C200.616 191.478 201.794 192.578 203.155 193.343C206.867 195.421 210.891 197.104 214.275 199.57C216.308 201.053 219.453 202.035 219.786 205.105C222.787 208.324 224.526 212.116 226.446 215.875C227.264 217.474 226.886 218.899 227.273 220.389C228.261 224.155 229.114 227.95 229.84 231.752C230.635 235.892 231.118 240.06 231.976 244.189C232.346 245.994 233.455 247.715 233.98 249.52C234.528 251.397 234.931 253.323 235.111 255.233C235.261 256.862 234.849 258.489 234.954 260.123C235.094 262.151 234.428 263.731 233.384 265.441C230.353 270.428 227.661 275.609 224.892 280.747C224.444 281.574 224.113 282.538 224.053 283.474C223.838 287.044 222.105 290.054 220.828 293.238C220.257 294.661 219.617 296.07 219.231 297.549C218.444 300.568 220.29 303.03 221.996 305.532C222.976 306.965 223.931 308.46 224.555 310.023C225.909 313.389 227.228 316.788 228.216 320.231C229.246 323.838 229.775 327.526 230.712 331.149C231.151 332.845 232.048 334.459 232.714 336.123C232.947 336.704 233.133 337.305 233.304 337.903C233.864 339.853 234.286 341.835 235.011 343.735C235.274 344.431 236.253 344.936 237.078 345.686C239.891 342.251 243.259 339.941 246.77 337.712C249.224 336.153 251.18 333.946 253.271 331.946C253.727 331.512 253.804 330.737 254.055 330.119C255.027 327.728 256.107 325.374 256.927 322.927C257.477 321.302 258.005 319.557 257.918 317.844C257.766 314.838 257.415 311.771 256.619 308.814C255.513 304.723 254.835 300.673 255.241 296.584C255.796 291.058 254.836 285.485 254.026 279.973C253.598 277.059 251.734 274.229 250.561 271.35C248.684 266.734 244.6 263.413 241.844 259.327C240.021 256.625 238.566 253.717 237.064 250.855C233.281 243.64 232.846 235.917 231.383 228.351C230.87 225.685 230.33 223.017 230.314 220.195C230.717 221.038 231.222 221.857 231.518 222.726C233.15 227.463 236.282 231.437 239.455 235.438C241.774 238.359 243.734 241.514 245.762 244.612C246.947 246.418 248.163 248.252 248.976 250.186C249.776 252.1 250.136 254.151 250.61 256.15C251.471 259.789 252.219 263.452 253.114 267.086C253.778 269.789 254.196 272.476 254.569 275.207C255.045 278.718 255.194 282.541 258.621 285.343C261.29 287.529 263.792 289.912 266.582 291.953C268.564 293.405 269.828 295.288 270.838 297.187C272.008 299.391 273.872 300.753 275.949 301.635C280.076 303.377 284.363 304.721 288.593 306.209C288.977 306.341 289.414 306.323 289.826 306.375C291.042 305.211 290.83 303.936 290.149 302.579C287.458 297.212 286.76 291.516 285.583 285.898C285.014 283.188 284.622 280.401 283.543 277.828C282.855 276.189 281.283 274.558 279.687 273.508C277.875 272.322 277.3 271.092 276.845 269.211C275.877 265.185 274.869 261.117 272.331 257.447C270.571 254.897 269.186 252.149 267.456 249.579C265.675 246.929 263.375 244.984 259.857 244.356C256.632 243.783 253.465 242.729 250.297 241.8C248.322 241.217 246.656 240.253 245.331 238.56C243.747 236.534 241.38 234.931 240.112 232.796C238.292 229.725 235.659 227.073 234.525 223.619C233.412 220.228 231.783 216.95 230.421 213.615C230.12 212.883 229.98 212.101 229.647 210.932C232.7 214.141 235.848 216.534 239.213 218.784C240.778 219.835 242.11 221.473 243.868 222.41C247.382 224.277 251.018 225.937 254.536 227.797C256.895 229.045 259.096 230.573 261.442 231.84C267.482 235.105 272.489 239.667 278.017 243.572C282.106 246.458 285.096 250.236 287.033 254.541C287.964 256.598 288.043 258.928 288.57 261.128C289.26 264.005 290.025 266.871 290.75 269.744C291.061 271 291.391 272.249 291.626 273.51C292.006 275.526 292.293 277.498 293.689 279.337C296.528 283.079 296.361 287.136 295.685 291.19C295.432 292.697 295.161 294.207 295.088 295.734C294.938 298.73 294.636 301.743 294.937 304.74C295.197 307.297 296.063 309.88 296.945 312.387C297.669 314.452 298.817 316.419 299.786 318.426C300.047 318.966 300.228 319.578 300.626 320.024C302.57 322.196 304.384 324.523 306.613 326.409C308.996 328.424 310.778 330.685 312.504 333.166C314.899 336.62 317.825 339.774 320.53 343.058C320.66 343.216 320.781 343.47 320.941 343.51C325.096 344.576 327.349 348.435 331.174 349.955C332.479 350.475 333.092 352.362 335.063 351.725C335.275 349.925 334.161 348.391 333.225 346.856C330.474 342.349 328.918 337.77 329.996 332.735C331.088 327.628 330.87 322.313 330.27 317.074C329.756 312.545 327.419 308.298 325.099 304.183C323.39 301.155 321.294 298.302 319.446 295.334C318.318 293.52 317.43 291.587 316.28 289.787C313.737 285.817 310.676 282.364 305.954 280.375C302.203 278.795 298.658 276.837 295.716 273.98C294.545 272.849 293.718 271.795 293.376 270.174C292.86 267.738 292.581 265.337 292.301 262.901C291.989 260.255 290.985 257.594 289.992 255.019C288.715 251.711 287.147 248.479 285.416 244.57C287.36 245.722 288.879 246.454 290.201 247.433C294.65 250.729 299.353 253.422 304.642 255.406C311.7 258.052 318.705 261.007 325.08 265.085C327.752 266.791 330.003 269.11 332.465 271.13C335.066 273.272 337.668 275.401 340.294 277.51C344.166 280.625 348.104 283.662 352.572 285.993C357.441 288.537 362.599 290.041 367.991 290.851C372.678 291.555 377.328 292.632 382.01 293.372C384.722 293.801 387.495 294.117 390.194 294.054C391.998 294.014 393.741 293.27 395.481 292.769C397.243 292.255 398.951 291.605 400.716 291.096C401.966 290.736 402.991 290.24 403.244 288.919C403.3 288.64 403.377 288.299 403.586 288.138C405.529 286.681 405.505 284.698 404.563 282.703C403.472 280.404 404.158 278.53 405.24 276.643C404.123 274.829 402.436 273.74 400.529 273.023C396.22 271.404 391.88 269.897 387.552 268.348C386.14 267.84 384.674 267.457 383.324 266.817C379.506 264.997 375.604 263.828 371.373 263.485C369.258 263.313 367.056 262.359 365.051 261.422C359.465 258.809 353.805 258.345 348.083 259.432C341.677 260.648 335.106 260.691 328.535 260.984C324.311 261.173 320.932 259.874 317.374 258.122C315.575 257.241 313.629 256.651 311.803 255.81C307.44 253.808 303.106 251.726 298.76 249.673C298.469 249.538 298.182 249.395 297.907 249.237C294.95 247.558 291.899 246.01 289.065 244.157C286.498 242.472 283.954 240.744 281.504 238.859C278.669 236.674 275.398 234.94 272.172 233.288C268.852 231.591 265.307 230.331 261.947 228.704C254.105 224.902 245.918 221.663 239.208 215.948C239.146 215.892 239.146 215.767 239.028 215.37C240.4 215.437 241.735 215.315 242.995 215.59C247.344 216.542 251.541 216.269 255.783 215.727C259.152 215.294 262.611 215.535 266.057 216.367C267.485 216.714 268.994 217.071 270.405 216.997C275.571 216.728 280.052 218.594 284.486 221.152C287.781 223.055 291.364 224.49 294.747 226.262C301.436 229.764 308.038 233.416 314.736 236.884C318.013 238.581 321.404 240.073 324.793 241.535C326.137 242.115 327.604 242.508 329.04 242.737C332.548 243.298 336.084 243.948 339.593 244.134C342.599 244.295 345.732 244.27 348.542 243.591C352.451 242.641 356.437 242.282 360.447 241.894C361.237 241.817 362.09 242.079 362.914 242.16C367.135 242.586 371.3 243.978 375.585 243.661C376.372 243.602 377.399 244.122 378.114 244.627C379.745 245.784 381.082 247.587 382.857 248.248C386.713 249.685 390.15 253.112 395.063 251.276C394.836 250.721 394.701 249.715 394.118 249.025C390.209 244.418 385.823 240.268 380.527 237.007C379.553 236.404 378.675 235.591 377.921 234.751C375.051 231.564 372.271 228.344 370.293 224.583C368.81 221.764 365.788 220.162 363.048 218.739C360.09 217.198 356.745 216.096 353.475 215.48C349.852 214.797 346.471 213.329 342.886 212.634C339.583 211.993 336.253 210.744 333.005 210.71C327.676 210.648 322.366 211.177 317.512 213.187C315.094 214.19 312.674 215.046 309.732 214.614C305.585 214.004 301.822 215.436 298.398 216.967C294.722 218.61 290.913 217.972 287.086 218.073C283.851 218.159 281.19 216.491 278.249 215.708C273.434 214.43 268.643 213.046 263.644 213.502C261.595 213.687 259.542 213.345 257.429 212.621C254.26 211.533 251.02 210.597 247.584 210.563C243.646 210.524 239.91 208.96 236.178 207.648C235.19 207.299 234.09 207.138 233.23 206.607C231.283 205.411 229.46 204.038 227.585 202.738C227.665 202.541 227.745 202.355 227.825 202.158C229.17 202.373 230.517 202.559 231.855 202.804C235.156 203.411 238.455 204.261 241.767 204.593C244.217 204.837 246.793 204.736 249.125 204.231C255.26 202.898 261.495 201.892 267.375 199.742C270.343 198.659 273.693 197.699 277.281 198.549C278.08 198.735 279.089 198.848 279.751 198.556C282.304 197.429 285.014 197.877 287.733 198.155C288.464 198.225 289.29 198.499 289.918 198.313C295.245 196.738 300.949 196.003 305.799 193.332C306.313 193.048 306.927 192.721 307.173 192.25C308.993 188.766 313.059 187.451 315.654 184.682C316.965 183.274 319.127 182.504 321.028 181.654C324.397 180.139 325.79 177.395 326.717 174.19C327.666 170.909 329.099 167.774 329.908 164.456C330.403 162.451 330.485 160.196 330.088 158.105C329.43 154.63 328.277 151.197 327.254 147.758C327.085 147.18 326.532 146.671 326.157 146.134C325.547 146.516 324.642 146.761 324.367 147.311C322.835 150.389 320.376 152.432 316.872 153.451C315.009 154 313.188 154.639 311.329 155.203C305.693 156.9 303.11 161.046 301.551 165.989C300.862 168.184 300.369 170.445 299.716 172.656C299.039 174.958 297.129 176.425 295.442 177.997C294.016 179.326 292.383 180.46 290.889 181.721C288.472 183.753 286.965 186.389 285.557 189.093C284.889 190.368 284.118 191.595 283.454 192.873C282.424 194.849 280.813 195.448 278.297 195.609C273.11 195.941 267.964 196.772 263.247 198.702C261.403 199.456 259.673 200.254 257.45 199.873C256.55 199.72 255.574 199.992 254.659 200.16C251.418 200.745 248.194 200.903 244.838 199.927C243.436 199.519 241.899 199.674 240.458 199.37C236.04 198.441 231.636 197.416 227.228 196.414C226.818 196.319 226.392 195.977 226.03 196.018C221.448 196.539 218.457 193.747 215.122 191.264C211.504 188.567 207.465 186.387 203.665 183.9C201.986 182.805 200.425 181.535 198.85 180.297C197.642 179.353 196.497 178.339 195.39 177.409C198.54 177.209 201.558 176.932 204.604 176.837C208.236 176.714 211.882 176.747 215.529 176.714C216.251 176.708 216.976 176.669 217.704 176.709C219.986 176.832 222.207 176.809 224.475 177.907C228.026 179.627 231.762 180.979 235.421 182.486C235.818 182.648 236.221 182.932 236.614 182.943C242.324 183.092 248.146 185.021 253.741 183.258C255.933 182.568 257.784 181.177 260.256 181.069C262.857 180.959 265.439 180.721 268.039 180.616C271.298 180.487 274.609 181.583 277.857 180.944C280.198 180.482 282.514 179.84 284.725 179.167C286.03 178.768 286.752 176.721 287.462 175.286C288.11 173.972 288.966 172.994 290.263 172.202C292.474 170.86 293.458 168.59 294.196 166.358C295.287 163.046 297.536 160.595 300.129 158.003C299.734 157.453 299.293 156.844 298.848 156.223C295.02 157.695 291.287 158.697 287.179 158.282C285.297 158.091 283.36 158.04 281.555 157.511C278.621 156.649 275.694 156.667 272.834 156.766C270.263 156.855 267.445 157.155 265.339 158.267C261.185 160.469 256.975 159.668 252.601 158.638C251.675 158.421 250.784 157.998 249.851 157.798C243.316 156.402 237.763 157.63 233.723 162.331C231.908 164.435 230.426 166.799 228.806 169.05C226.33 172.5 223.213 174.837 218.164 174.376C215.764 174.154 213.356 174.462 210.948 174.396C207.502 174.3 204.086 173.995 200.632 173.256C196.288 172.33 191.864 171.937 187.491 171.166C186.076 170.912 184.567 170.429 183.363 169.664C178.78 166.754 174.2 163.811 169.81 160.641C164.889 157.084 160.579 152.982 157.345 147.915C154.767 143.877 152.023 139.839 148.771 136.246C146.149 133.354 142.643 131.134 139.555 128.589C138.335 127.586 137.216 126.473 136.006 125.46C133.256 123.152 130.405 121.003 127.38 118.986C123.147 116.159 119.435 112.623 115.342 109.586C112.42 107.416 110.177 104.692 107.878 102.083C105.489 99.3631 103.865 96.0878 101.855 93.0841C98.5214 88.0992 94.9339 83.255 90.3116 79.1675C87.3262 76.5224 84.0064 74.2046 81.0513 71.5389C78.9553 69.6433 77.1857 67.4265 75.3434 65.3035C73.1487 62.7782 71.0326 60.1954 68.897 57.6329C68.4439 57.091 68.0247 56.5203 67.3279 55.623C70.3853 56.0615 73.0294 56.5622 75.678 56.7666C77.0798 56.8757 78.4897 56.4686 79.8932 56.2753C80.2796 56.2255 80.6371 56.0188 81.0258 56.0133C87.5813 55.9061 94.1414 55.4401 100.707 55.8812C104.463 56.1303 108.287 56.9329 111.971 56.429C117.071 55.7276 122.2 54.933 127.075 53.5715C131.362 52.3797 134.84 52.6146 138.352 55.8913C142.03 59.3209 146.12 62.3657 149.862 65.7319C151.457 67.1709 152.754 68.9428 153.971 70.6856C155.633 73.0531 156.913 75.6458 158.677 77.9373C160.871 80.775 161.241 84.058 162.515 87.1145C162.967 88.2049 163.343 89.5221 164.215 90.2496C166.379 92.0637 168.336 94.0439 170.887 95.5581C173.195 96.9245 174.581 99.4572 175.622 101.995C177.366 106.236 177.144 110.52 177.45 114.799C177.499 115.48 177.42 116.163 177.533 116.832C177.954 119.314 178.565 121.667 181.422 123.029C182.855 123.715 184.048 124.917 185.49 125.554C191.102 128.019 194.315 132.028 195.92 137.474C196.606 139.816 198.02 142.096 199.472 144.204C201.11 146.576 205.592 146.474 207.306 143.994C208.871 141.734 210.628 139.504 210.545 136.45C210.507 135.02 211 133.615 211.241 132.199C212.232 126.471 212.466 120.653 211.668 114.78C211.102 110.57 209.242 106.572 207.534 102.582C207.302 102.039 206.883 101.493 206.41 101.096C202.484 97.7952 199.453 93.8745 196.474 89.8705C192.706 84.799 187.759 80.9036 181.934 77.9762C177.569 75.7801 172.917 75.4429 168.286 75.1437C165.512 74.9673 162.816 74.8624 160.241 73.4676C159.627 73.1355 158.807 73.1714 157.852 72.9954C155.204 67.1319 149.948 62.9585 144.998 58.5611C144.218 57.8685 143.396 57.2108 142.176 56.1838C143.275 56.1722 143.921 56.0804 144.552 56.1743C149.815 56.9726 155.034 57.2513 160.242 56.6351C163.196 56.2827 166.228 56.3062 169.229 56.191C169.518 56.1809 169.85 56.3435 170.131 56.4887C172.717 57.821 175.634 58.5598 177.761 60.7191C180.12 63.113 182.474 65.5292 185.001 67.7695C187.68 70.1427 190.519 72.3686 193.354 74.5783C198.159 78.3165 202.947 82.0711 207.875 85.6604C209.55 86.8785 211.58 87.6824 213.5 88.5684C218.442 90.8692 223.622 91.7372 228.968 92.0323C232.854 92.2413 236.751 93.0469 240.647 93.4956C247.007 94.2279 253.073 93.5632 258.72 91.2069C260.019 90.6603 261.293 90.0454 261.596 88.5109C261.891 87.0309 260.492 84.1032 258.57 83.1971C256.055 82.011 254.89 80.2715 254.57 77.8426C254.378 76.4078 253.507 75.4061 252.139 74.4598C248.594 72.0162 244.64 70.7578 240.542 70.0579C237.797 69.5908 235.312 68.6342 232.723 67.6709C228.441 66.0785 224.75 63.4373 220.606 61.6494C220.371 61.5479 220.241 61.203 219.808 60.6507C222.979 60.0311 225.841 59.1195 229.015 59.387C231.436 59.5845 233.86 59.9714 236.277 60.1287C239.099 60.3164 241.92 60.3207 244.741 60.4501C246.092 60.5136 247.46 60.5647 248.787 60.8342C251.501 61.3844 254.167 61.6873 256.929 61.8154C260.195 61.9686 263.485 63.0752 266.767 63.7745C267.59 63.9463 268.429 64.3135 269.222 64.28C271.55 64.1825 272.958 65.9931 274.852 66.7767C275.168 66.9033 275.411 67.3978 275.534 67.759C277.39 73.0209 280.568 77.7075 283.994 82.2415C286.994 86.2211 290.76 89.4095 295.455 91.7864C298.865 93.5082 302.161 95.4594 305.864 96.4028C307.543 96.8285 309.372 96.6796 311.115 96.6327C313.598 96.5632 316.12 95.7794 318.513 97.2837C319.92 98.165 321.155 99.2946 322.464 100.316C323.959 101.491 325.297 103.189 326.983 103.734C330.249 104.797 333.473 106.466 337.07 106.04C339.579 105.747 342.079 106.06 344.551 107.059C345.387 107.396 346.417 107.21 347.344 107.35C350.184 107.772 352.724 108.998 355.274 110.29C356.496 110.914 357.946 111.111 359.486 111.559C359.767 109.178 358.86 107.401 357.771 105.858C355.334 102.414 352.606 99.1346 350.038 95.7598C347.288 92.1335 344.631 88.4515 341.839 84.8501C341.109 83.9048 340.082 83.125 339.111 82.3546C338.231 81.6574 337.262 81.0421 336.292 80.4551C335.319 79.862 334.347 79.1299 333.282 78.8486C331.074 78.257 327.578 75.9256 326.662 73.9567C323.925 68.0985 318.743 65.9684 312.595 65.3178C311.779 65.2305 310.958 65.6172 310.14 65.5482C307.974 65.3692 305.739 65.3384 303.655 64.7571C297.736 63.1032 291.901 62.3373 285.832 62.7218C279.845 63.1031 273.773 63.1832 267.674 61.3746C262.911 59.9644 258.013 59.0158 253.149 58.0143C251.956 57.7691 250.67 58.0998 249.433 58.2061C246.409 58.4607 243.363 58.3688 240.406 57.3866C238.647 56.8007 237.016 56.2513 235.227 56.7787C234.822 56.8973 234.271 56.6693 233.25 56.5225C238.35 54.3533 243.225 53.2418 248.219 52.2254C251.996 51.4581 255.696 51.4762 259.488 51.8901C261.227 52.0771 262.966 52.7843 264.668 53.3791C267.945 54.5281 271.315 54.192 274.631 54.7034C277.764 55.1892 280.962 54.9906 284.088 55.5208C289.569 56.447 294.378 55.1147 299.265 53.5756C301.445 52.8895 303.958 52.9344 306.334 52.7273C309.395 52.4601 312.512 52.4622 315.525 52.0203C320.555 51.2836 325.599 50.462 330.057 47.7799C329.586 46.72 329.152 45.7343 328.712 44.7405C325.752 44.1132 322.832 43.6042 319.965 42.8627C317.126 42.1288 314.283 41.4796 311.406 40.97C310.836 40.8733 310.279 40.4356 309.772 40.0819C307.903 38.7799 306.115 37.3637 304.19 36.1531C301.301 34.3292 298.01 33.7852 294.74 33.4667C291.407 33.1451 288.047 32.8742 284.734 32.9273C279.732 33.0164 275.1 34.1265 271.543 37.4188C268.866 39.8923 265.975 42.153 263.33 44.6643C261.545 46.3529 259.018 47.3706 256.78 48.6282C256.291 48.9033 255.623 48.9954 255.015 49.0121C249.235 49.1747 243.745 50.3817 238.366 51.9156C236.023 52.584 233.744 53.4631 231.554 54.4478C228.765 55.699 225.919 56.6749 222.675 56.5697C221.648 56.5359 220.607 56.5103 219.597 56.315C216.02 55.6379 212.526 55.377 208.95 55.8935C205.916 56.3317 202.739 56.1974 199.623 56.3162C199.533 56.1138 199.448 55.9134 199.363 55.713C200.056 55.3625 200.728 54.7138 201.449 54.7217C203.674 54.7386 205.198 53.5435 206.521 52.3675C210.651 48.6921 215.636 46.2907 220.601 43.7021C226.525 40.6181 233.043 39.701 239.663 38.7361C243.103 38.2377 246.702 38.1302 249.559 35.9365C250.57 35.16 252.177 34.9679 253.569 34.6639C257.365 33.8519 261.176 33.0902 265.008 32.3806C265.685 32.2541 266.497 32.6236 267.178 32.5131C268.799 32.2502 270.389 31.8728 271.968 31.4713C272.654 31.3003 273.259 30.7192 273.929 30.7197C277.041 30.7341 279.389 29.1967 281.943 28.0415C283.303 27.4255 284.405 26.6014 285.558 25.6697C290.37 21.793 294.954 17.5486 301.118 15.3382C303.424 14.5091 305.886 14.0024 308.179 13.1634C308.945 12.8824 309.425 12.0167 309.974 11.4787C307.971 9.19463 305.756 8.98009 303.338 8.83698C299.152 8.58993 294.99 8.43529 290.807 8.39183C285.964 8.34765 282.804 10.6606 279.249 12.6062C274.616 15.1356 269.816 16.8952 264.149 17.4192C258.044 17.9857 251.824 19.0074 246.892 22.664C242.027 23.4568 239.925 27.2326 237.173 30.2797C235.891 31.695 234.867 33.3224 233.659 34.8032C232.19 36.6043 229.903 37.2779 227.733 38.1171C223.209 39.8708 218.7 41.6404 214.235 43.5062C213.241 43.9195 212.354 44.6437 211.629 45.404C209.491 47.6622 205.943 48.3214 204.152 50.9556C204.047 51.1124 203.885 51.2638 203.709 51.3369C199.359 53.0599 195.378 55.4954 190.042 54.9159C185.477 54.4282 180.886 54.7333 176.312 54.3769C172.968 54.1179 169.543 53.6846 166.31 52.7466C161.195 51.2668 156.12 49.6977 150.851 49.1858C145.301 48.6537 139.741 48.2568 134.183 47.88C130.509 47.6277 126.82 47.3978 123.153 47.3894C121.083 47.3865 119.066 47.9312 116.999 48.1077C113.913 48.3693 110.817 48.6551 107.706 48.6892C103.668 48.7324 99.6094 48.5501 95.5578 48.4382C90.1792 48.2928 84.9287 48.833 79.6969 49.5786C73.917 50.4005 68.0218 50.2584 62.1378 49.2693C60.6263 49.0166 58.9716 47.9514 57.816 46.8609C51.9356 41.3114 46.3774 35.4629 40.3681 30.0503C34.8894 25.1119 28.9758 20.5971 23.2586 15.888C21.3792 14.3361 19.5868 12.6821 17.6488 11.1915C14.2035 8.55492 10.7279 5.93895 7.1727 3.43299C0.0277732 -1.59862 -6.42836 -7.34362 -12.6335 -13.322C-14.4105 -15.0367 -15.6585 -17.2065 -17.2138 -19.1239C-21.1725 -24.0031 -25.749 -28.3212 -31.0295 -31.9901C-32.0489 -32.6995 -33.0165 -33.218 -34.3315 -32.5582C-34.0623 -31.0802 -32.7552 -30.1794 -31.6372 -29.4372C-26.8497 -26.2552 -23.0614 -22.1376 -19.6374 -17.8597C-15.6972 -12.9499 -11.298 -8.48216 -6.66754 -4.16487C-4.8449 -2.46898 -2.95907 -0.832455 -1.19683 0.928807C-6.59548 -1.07318 -11.04 -4.39112 -15.1817 -8.11254C-16.7433 -9.51778 -18.1368 -11.0766 -19.6611 -12.5187C-20.5462 -13.3529 -21.2266 -14.5992 -22.8054 -14.3228L-22.7555 -14.3638ZM98.4682 92.8741C100.408 93.5764 100.221 95.4157 100.673 96.8811C99.9506 95.5204 99.2266 94.1637 98.5088 92.805C97.0747 92.3354 96.6424 91.2105 96.6062 89.8764C97.2269 90.8756 97.8476 91.8749 98.4682 92.8741ZM222.752 202.111C221.121 202.273 219.809 201.457 218.664 199.51C220.677 199.522 221.384 201.29 222.724 202.128C223.401 202.896 224.083 203.667 225.009 204.716C223.122 204.301 222.593 203.438 222.752 202.111ZM126.489 160.516C126.283 159.773 125.481 159.008 126.673 157.838C126.708 159.061 127.402 159.842 126.407 160.481C127.749 163.302 127.682 163.918 125.527 165.842C125.884 163.869 126.19 162.191 126.489 160.516ZM130.367 124.187C133.296 124.638 134.317 126.974 135.744 128.903C136.275 129.127 136.913 129.239 137.314 129.591C138.654 130.751 139.733 132.28 141.228 133.17C144.918 135.364 147.435 138.509 150.018 141.626C150.852 142.64 151.527 143.764 152.274 144.842C152.1 144.973 151.923 145.109 151.748 145.24C150.196 143.839 148.643 142.438 147.086 141.034C147.999 142.824 149.387 144.246 150.586 145.783C151.902 147.472 153.041 149.272 154.256 151.019C156.28 151.801 156.916 153.697 158.164 155.097C156.689 153.864 154.757 152.982 154.302 150.952C153.793 150.675 153.178 150.496 152.798 150.12C149.219 146.613 145.632 143.111 142.144 139.528C138.816 136.109 134.351 133.61 132.332 129.125C131.055 129.224 130.575 129.825 130.666 130.846C130.889 133.276 131.195 135.714 131.375 138.144C131.492 139.715 131.433 141.283 131.454 142.851C131.191 142.839 130.934 142.824 130.671 142.812C130.238 137.086 129.807 131.356 129.339 125.153C131.459 126.944 133.316 128.298 134.893 129.893C137.105 132.128 139.091 134.553 141.199 136.868C142.443 138.237 143.979 139.256 146.073 140.645C145.594 139.568 145.517 139.024 145.183 138.702C143.24 136.815 141.162 135.038 139.276 133.103C137.989 131.783 136.933 130.263 135.777 128.826C133.482 127.764 131.927 125.957 130.402 124.12C128.8 123.467 127.028 123.035 126.266 121.243C128.11 121.596 129.481 122.573 130.367 124.187ZM63.134 52.7067C63.8371 52.1343 64.4313 52.9585 64.904 52.9699C65.7107 52.9907 66.467 52.2824 67.2672 51.9203C67.4042 51.8639 67.6758 52.0677 67.8747 52.0669C71.696 52.0409 75.624 52.4267 79.3091 51.8704C85.1341 50.9813 90.9286 50.3244 96.9983 50.821C95.4603 52.3085 93.8027 53.0659 91.6769 53.217C87.953 53.4775 84.1417 53.4308 80.5139 54.0407C76.2268 54.7608 71.9637 54.2064 67.6587 53.8986C66.7786 53.8365 65.8905 53.9297 65.0879 53.9491C64.7107 57.1742 67.4114 59.0613 68.635 61.6729C65.6655 60.5457 61.2415 56.2598 60.0628 53.6434C61.0893 53.3164 62.1159 52.9893 63.1494 52.646C61.732 52.6601 60.3192 52.6761 58.7677 52.6901C55.2624 49.4838 51.6464 46.0614 48.9275 41.9528C51.454 44.0198 53.7052 46.3144 56.1138 48.4556C57.7016 49.8625 59.1083 51.7639 61.7811 51.3772C62.1073 51.3302 62.6755 52.2394 63.134 52.7067ZM198.04 185.073L198.075 184.992C198.161 185.178 198.199 185.464 198.339 185.524C202.425 187.398 205.946 190.081 209.549 192.651C210.731 193.493 211.638 194.39 211.969 196.183C210.687 195.375 209.832 194.794 208.941 194.271C201.32 189.808 193.69 185.366 186.084 180.882C184.724 180.078 183.435 179.147 182.172 178.207C179.195 175.99 176.195 173.79 173.309 171.462C171.405 169.929 169.59 168.265 167.924 166.517C166.194 164.706 164.717 162.707 163.084 160.819C161.81 159.345 160.473 157.917 159.162 156.466C159.35 156.316 159.538 156.166 159.726 156.016C162.119 158.468 164.366 161.069 166.952 163.335C169.709 165.751 172.898 167.738 175.694 170.124C180.436 174.172 181.876 175.212 184.626 175.715C181.975 172.906 177.964 171.767 175.916 168.367C180.113 169.374 198.192 181.847 201.011 185.512C200.067 185.375 199.053 185.226 198.04 185.073ZM241.746 292.677C240.055 295.85 240.527 299.557 239.65 302.946C238.899 305.842 239.8 308.916 240.814 311.865C241.833 314.827 242.301 317.733 242.055 320.817C241.86 323.197 241.54 325.518 241.192 327.866C240.586 331.945 238.821 335.49 237.148 339.119C236.948 339.557 236.528 339.895 236.095 340.426C235.275 338.075 234.542 336.016 233.828 333.952C233.4 332.718 232.885 331.5 232.599 330.246C231.802 326.769 231.204 323.268 230.335 319.798C229.918 318.127 228.733 316.533 228.473 314.871C227.766 310.341 225.774 306.301 222.831 302.562C221.61 301.015 221.555 299.413 221.914 297.773C222.121 296.846 222.464 295.95 222.806 295.059C223.828 292.391 225.29 289.836 225.84 287.056C226.87 281.822 229.564 277.392 232.122 272.894C234.332 269.016 237.049 265.405 237.812 260.59C240.656 266.187 241.938 271.711 242.542 277.299C242.991 281.458 243.216 285.65 242.269 289.712C242.035 290.727 241.887 291.766 241.696 292.805C242.901 293.036 243.09 292.174 243.281 291.458C244.944 285.289 244.167 278.895 243.279 272.569C242.884 269.804 241.36 267.092 240.351 264.356C239.994 263.38 239.302 262.397 240.156 261.125C241.229 262.507 242.038 263.766 243.067 264.84C247.228 269.176 249.83 274.163 251.237 279.621C251.723 281.505 251.638 283.48 252.137 285.36C253.441 290.235 252.59 295.007 252.638 299.807C252.658 301.552 252.604 303.208 253.054 304.962C253.883 308.202 254.625 311.472 255.117 314.745C255.39 316.551 255.592 318.607 254.941 320.179C253.081 324.651 252.427 329.724 248.58 333.281C246.495 335.202 244.484 337.164 241.661 338.222C240.868 338.519 240.162 338.985 239.022 339.576C239.57 338.032 239.862 336.709 240.477 335.555C242.213 332.305 242.673 328.639 243.286 325.116C244.156 320.088 243.63 314.928 241.678 309.789C240.613 306.995 240.882 304.022 241.532 301.17C242.156 298.407 242.876 295.618 241.746 292.677ZM361.401 277.32C357.863 275.644 354.356 273.91 350.783 272.315C347.102 270.674 343.398 269.071 339.63 267.643C335.921 266.24 332.125 265.088 328.367 263.823C329.325 263.37 330.23 263.323 331.14 263.354C336.839 263.552 342.54 263.398 347.913 262.102C354.156 260.604 359.979 261.524 365.93 264.211C367.908 265.099 370.197 265.677 372.321 265.766C374.814 265.87 376.995 266.835 379.255 267.555C383.581 268.935 387.86 270.521 392.112 272.134C395.464 273.407 399.111 274.095 402 276.665C401.668 277.759 401.343 278.822 401.058 279.757C398.211 280.56 395.066 279.193 392.035 281.081C393.344 281.155 394.047 281.193 394.749 281.232C396.408 281.317 398.078 281.277 399.725 281.516C402.257 281.877 403.289 283.179 402.345 285.144C401.625 286.652 400.542 288.615 399.078 289.023C396.025 289.881 393.324 291.574 389.933 291.699C385.414 291.862 380.989 291.185 376.581 289.995C375.047 289.584 373.519 289.107 371.965 288.841C368.95 288.329 365.897 288.08 362.894 287.478C358.845 286.664 354.753 285.279 351.447 283.04C345.506 279.023 340.088 274.294 334.485 269.817C333.132 268.737 331.921 267.502 330.643 266.335C331.446 266.09 331.922 266.242 332.39 266.401C335.319 267.386 338.264 268.334 341.172 269.381C343.154 270.097 345.209 270.757 347.015 271.796C351.484 274.36 355.812 277.165 361.401 277.32ZM296.953 279.509C297.714 279.534 298.425 279.393 299.015 279.604C305.3 281.84 310.719 285.063 313.852 291.011C314.893 292.976 316.155 294.877 317.516 296.686C320.073 300.1 322.582 303.501 323.768 307.531C324.074 308.563 324.759 309.537 325.349 310.494C326.737 312.739 327.741 315.15 328.004 317.588C328.602 323.019 328.375 328.383 327.065 333.621C326.633 335.355 326.513 337.238 327.483 339.095C327.795 339.701 327.688 340.473 327.818 341.564C326.653 340.272 325.839 339.372 325 338.442C323.737 339.394 324.597 340.073 325.233 340.727C327.171 342.728 327.179 342.722 327.463 344.712C322.185 341.486 318.001 337.564 315.01 332.443C313.426 329.734 311.445 327.238 308.594 325.238C306.313 323.633 304.177 321.422 302.863 319.094C300.323 314.62 297.408 310.268 297.661 304.857C297.927 299.091 297.452 293.251 299.429 287.487C300.2 289.22 300.845 290.76 301.56 292.276C301.903 292.997 302.366 293.678 302.787 294.369C304.641 297.397 306.651 300.363 308.312 303.466C309.702 306.077 310.526 308.844 310.986 311.732C311.488 314.874 312.663 317.971 313.399 321.103C313.813 322.855 313.64 324.725 314.267 326.405C314.959 328.258 316.273 329.951 317.315 331.715C317.522 332.069 317.7 332.439 317.934 332.781C319.49 335.069 321.56 336.852 324.198 338.101C323.602 337.045 322.803 336.147 321.945 335.3C318.971 332.381 316.526 329.117 315.5 325.301C314.191 320.449 313.341 315.515 312.166 310.639C311.571 308.188 311.012 305.666 309.88 303.377C307.513 298.588 304.963 293.84 302.084 289.268C301.059 287.628 300.158 285.997 299.414 284.276C299.02 283.36 298.838 282.377 298.418 281.474C298.13 280.859 297.579 280.332 296.953 279.509ZM188.699 301.512C187.817 301.492 187.203 301.608 186.677 301.434C181.06 299.578 175.355 297.964 169.954 295.47C169.193 295.118 168.319 294.918 167.492 294.831C162.701 294.319 157.912 293.865 153.124 293.382C152.919 293.361 152.716 293.259 152.514 293.191C148.051 291.67 144.094 289.274 141.413 285.601C138.941 282.215 136.853 278.547 135.019 274.849C132.086 268.911 127.813 264.088 121.963 260.458C119.421 258.875 117.241 257.001 114.966 254.648C118 253.96 120.864 253.713 123.497 254.974C127.716 256.987 131.735 259.4 135.844 261.644C138.337 263.004 140.833 263.873 143.473 262.467C144.03 262.173 144.923 261.981 145.504 262.188C147.731 262.985 149.754 264.229 150.912 266.234C152.64 269.218 153.537 272.588 156.331 275.079C156.619 275.333 156.692 275.797 156.891 276.157C159.702 281.37 162.62 286.608 167.438 290.554C171.618 293.974 176.381 296.617 181.652 298.342C183.952 299.094 186.626 299.165 188.699 301.512ZM179.243 59.1497C181.807 59.077 181.814 59.0608 183.096 59.9458C184.846 61.1629 186.606 62.3698 188.314 63.6358C192.629 66.8306 197.532 68.128 202.734 68.6207C205.106 68.8451 207.468 69.4023 209.835 69.6005C212.298 69.8115 214.083 71.26 216.14 72.3255C220.528 74.604 224.983 76.579 229.926 77.7972C234.298 78.8702 238.616 80.3049 243.093 80.8361C245.668 81.1483 248.28 81.3754 250.831 81.2968C251.857 81.2681 252.437 81.5422 253.042 82.0921C254.915 83.7953 256.288 85.9996 258.806 87.0666C258.982 87.1428 259.004 87.59 259.175 88.1017C255.952 89.9499 252.463 91.0578 248.507 91.1986C240.199 91.498 231.919 89.8937 223.641 89.0314C218.167 88.4599 212.889 86.563 208.191 83.4725C204.487 81.0371 201.524 77.6558 197.373 75.7733C197.278 75.7323 197.208 75.6445 197.121 75.5732C192.263 71.7349 187.81 67.4897 183.22 63.3775C181.916 62.2085 180.821 60.841 179.243 59.1497ZM205.886 141.924C204.177 139.232 203.081 136.748 202.721 134.1C202.198 130.26 202.691 126.508 201.357 122.535C200.054 118.652 198.281 115.347 195.276 112.423C194.463 111.635 193.522 110.892 192.939 109.981C190.569 106.283 188.289 102.537 186.03 98.7807C184.929 96.9536 184.012 95.0372 182.901 93.2102C180.967 90.0422 178.097 87.591 175.209 85.1804C173.023 83.3566 170.773 81.5922 168.524 79.8277C167.514 79.0356 166.443 78.3089 164.86 77.1641C169.463 76.4213 173.563 76.8188 177.201 77.9264C183.035 79.7025 187.746 83.4723 191.569 88.1921C194.614 91.9553 197.956 95.5288 201.165 99.1849C202.668 100.901 204.637 102.444 205.591 104.362C209.261 111.715 210.568 119.295 209.189 127.03C208.682 129.872 208.487 132.786 208 135.632C207.648 137.679 207.455 139.819 205.886 141.924ZM109.971 281.337C110.169 281.302 110.362 281.265 110.553 281.232C111.604 283.596 112.61 285.979 113.707 288.325C114.639 290.319 115.482 292.382 116.708 294.229C118.396 296.772 120.42 299.171 122.296 301.578C124.078 303.853 125.696 306.158 127.066 308.606C128.343 310.895 129.172 313.226 129.408 315.902C129.822 320.676 129.937 325.721 134.021 329.774C135.123 330.865 136.277 331.921 137.278 333.084C138.95 335.028 140.192 337.138 140.046 340.125C137.463 339.271 135.111 338.665 132.902 337.717C130.567 336.71 128.364 335.398 126.115 334.192C122.288 332.142 119.099 329.534 116.815 325.897C115.313 323.497 114.435 321.015 113.497 318.45C110.966 311.53 110.968 304.5 110.251 297.517C109.733 292.5 110.534 287.495 109.813 282.438C109.761 282.074 109.915 281.703 109.971 281.337ZM47.232 203.432C47.131 203.268 47.0363 203.102 46.9398 202.941C47.9545 201.944 49.0945 201.031 49.9694 199.936C53.1782 195.907 57.6683 193.758 62.9273 192.663C68.936 191.411 75.101 190.803 80.9041 188.721C87.0747 186.508 93.8056 185.51 99.8912 182.972C101.134 182.454 102.784 182.3 104.184 182.524C110.86 183.604 117.557 184.713 123.964 187.213C125.77 187.915 127.588 188.589 129.825 189.438C128.294 190.212 127.316 190.998 126.165 191.242C122.446 192.039 118.685 192.721 114.902 193.279C113.394 193.504 111.77 193.424 110.212 193.242C107.069 192.878 103.923 192.459 100.804 191.864C98.0541 191.346 95.5375 191.632 93.2045 192.724C91.1462 193.688 89.1771 194.807 87.1813 195.876C86.23 196.389 85.3345 196.984 84.3776 197.486C83.782 197.797 83.1381 198.058 82.4772 198.259C81.3106 198.612 80.1238 198.937 78.9229 199.209C77.2651 199.581 75.6065 199.967 73.9138 200.209C71.6856 200.523 69.357 200.51 67.1994 201.008C65.6189 201.375 64.1804 201.351 62.7101 200.717C61.0922 200.014 59.6468 200.242 58.1084 200.661C54.5077 201.644 50.8587 202.514 47.232 203.432ZM37.284 205.569C37.6542 204.637 38.5143 204.907 39.3442 205.135C40.3096 205.397 41.2563 205.753 42.2323 205.929C44.3232 206.306 45.9482 205.313 47.7865 204.759C51.949 203.494 56.3125 202.697 60.6122 201.761C61.1796 201.64 61.9082 201.68 62.4591 201.908C65.2913 203.067 67.9118 202.591 70.6166 201.943C72.2571 201.549 74.0582 201.566 75.7962 201.493C79.2084 201.358 81.9194 199.601 85.0194 198.735C85.1054 198.709 85.159 198.598 85.2493 198.55C86.3768 197.939 87.5115 197.337 88.648 196.73C89.6102 196.216 90.6418 195.79 91.5109 195.169C92.9437 194.137 94.6243 193.712 96.3997 193.39C100.15 192.708 103.96 193.129 107.668 194.075C112.213 195.232 116.409 194.636 120.631 193.681C121.678 193.445 122.752 193.282 123.815 193.082C121.178 194.268 118.52 195.802 115.701 195.856C110.812 195.956 107.293 198.34 103.718 200.47C99.5678 202.938 95.3837 205.16 90.5836 206.472C89.0264 206.898 87.6008 207.64 86.0809 208.177C81.6907 209.734 77.332 211.366 72.8714 212.762C68.4467 214.149 63.7478 212.988 59.1605 212.563C55.6121 212.231 52.0466 211.689 48.6631 210.339C44.897 208.844 41.1842 207.214 37.284 205.569ZM146.462 197.343C149.967 198.162 153.556 198.825 156.31 201.447C156.975 202.081 157.898 202.58 158.783 202.904C161.18 203.765 163.613 204.545 166.054 205.266C169.155 206.19 172.346 207.225 174.267 209.801C176.775 213.154 180.112 215.744 182.925 218.787C185.341 221.398 188.05 224.024 189.537 227.044C191.249 230.515 192.608 234.317 192.163 238.234C192.036 239.363 192.103 240.624 192.506 241.717C193.894 245.453 194.282 249.23 194.387 253.043C194.411 253.833 194.43 254.621 194.456 255.407C193.4 254.249 192.856 253.071 192.361 251.88C190.939 248.485 189.629 245.052 188.09 241.693C187.492 240.391 185.994 239.336 185.589 238.025C184.856 235.693 183.159 234.316 181.185 233.021C178.358 231.176 175.262 229.585 172.787 227.386C168.01 223.146 163.299 218.803 160.357 213.135C159.065 210.634 157.397 208.181 155.456 206.05C152.668 202.985 149.477 200.231 146.462 197.343ZM204.238 143.07C202.425 143.64 201.776 143.653 201.225 142.641C199.963 140.33 198.844 137.961 197.712 135.596C197.364 134.873 197.298 134.032 196.885 133.348C194.205 128.949 190.68 125.315 185.74 122.972C184.588 122.422 183.287 121.866 182.488 120.982C181.334 119.714 180.176 118.218 179.755 116.694C179.239 114.83 179.352 112.829 179.421 110.915C179.729 102.9 176.758 96.3397 169.014 91.5162C166.715 90.0912 164.917 88.0401 164.182 85.2784C163.391 82.3098 162.017 79.4362 160.884 76.4785C161.216 76.5928 161.767 76.6717 162.194 76.9378C165.316 78.8814 168.492 80.7234 171.093 83.3759C173.072 85.3942 175.536 87.0205 177.483 89.0634C181.033 92.7993 183.865 96.9566 186.058 101.488C187.983 105.461 190.265 109.299 193.733 112.431C195.778 114.271 197.496 116.235 198.204 118.86C198.805 121.087 199.851 123.237 200.452 125.465C200.824 126.828 200.921 128.295 200.792 129.664C200.621 131.428 200.642 134.613 201.169 136.13C201.788 137.927 202.345 139.746 203.041 141.529C203.269 142.108 203.854 142.592 204.238 143.07ZM242.164 171.348C241.941 175.135 239.491 175.416 236.61 175.304C235.079 175.245 233.576 175.742 232.04 175.758C230.34 175.78 228.611 175.534 226.613 175.389C228.235 173.582 229.653 172.235 230.784 170.697C232.365 168.55 233.901 166.344 235.147 164.004C237.535 159.539 245.546 158.683 250.195 160.208C255.639 161.994 260.978 163.152 266.15 160.205C268.048 159.128 270.584 158.947 272.838 158.375C273.314 158.253 273.836 158.088 274.316 158.17C278.565 158.868 282.813 159.632 287.06 160.348C288.07 160.519 289.087 160.588 290.647 160.765C289.148 162.659 288 164.252 286.676 165.702C286.137 166.293 285.27 166.722 284.443 166.948C283.069 167.322 281.629 167.625 280.186 167.686C277.047 167.823 274.041 168.273 271.162 169.312C270.348 169.605 269.338 169.521 268.413 169.574C267.598 169.622 266.767 169.571 265.963 169.658C263.488 169.908 261.027 170.213 258.561 170.482C254.795 170.903 250.926 170.841 247.416 172.334C246 172.941 244.239 172.956 242.164 171.348ZM355.42 106.691C355.312 106.794 355.2 106.904 355.091 107.006C352.193 104.88 349.258 102.791 346.401 100.62C342.593 97.7162 338.421 95.3339 334.071 93.3896C330.792 91.9221 327.152 91.3044 323.75 90.0724C320.997 89.0772 318.184 87.9982 315.72 86.4687C312.583 84.5233 309.754 82.1139 306.825 79.8591C303.861 77.5746 300.259 77.1802 296.84 76.3355C295.618 76.0343 294.482 75.8811 293.316 75.2001C289.783 73.1414 286.132 71.2678 282.526 69.3271C283.607 68.5758 284.573 68.2517 285.567 68.2617C287.966 68.2862 290.378 68.4656 292.787 68.5907C300.121 68.9685 307.077 71.0411 313.755 74.1963C319.303 76.8212 324.715 79.7383 330.764 81.1645C334.257 81.988 337.153 83.8823 339.38 86.6188C341.147 88.7913 342.847 91.0071 344.594 93.1899C348.199 97.6951 351.814 102.19 355.42 106.691ZM278.738 68.7417C279.403 68.9661 279.735 69.0038 279.96 69.1679C281.88 70.5882 283.638 72.285 285.721 73.4147C289.62 75.5348 293.679 77.4449 298.092 78.1988C301.026 78.6995 303.825 79.4501 306.297 81.171C308.45 82.6727 310.691 84.0965 312.674 85.7801C317.435 89.8213 323.302 91.3711 329.008 93.3324C331.704 94.2599 334.509 95.0467 337 96.3763C340.231 98.1025 343.295 100.18 346.231 102.356C347.26 103.118 349.07 103.499 349.196 105.286C348.771 105.3 348.424 105.42 348.185 105.302C345.293 103.92 342.252 103.507 339.191 103.611C336.243 103.716 333.386 103.359 330.51 102.45C327.8 101.593 325.547 100.371 323.919 97.9893C322.633 96.1063 320.778 94.4351 318.335 94.1653C315.743 93.8796 312.985 93.6183 310.571 94.1505C307.465 94.8317 304.765 94.1624 302.013 92.8546C299.608 91.7114 297.243 90.4889 294.885 89.2502C293.853 88.7084 292.676 88.215 291.915 87.4154C288.689 84.0217 285.04 80.9122 282.998 76.6771C281.749 74.088 280.272 71.5788 278.738 68.7417ZM295.68 223.975C295.771 223.764 295.862 223.553 295.955 223.338C296.238 223.33 296.526 223.271 296.797 223.326C299.91 223.947 303.015 224.835 306.139 225.157C309.509 225.505 312.766 225.73 315.836 227.594C317.002 228.299 318.811 228.05 319.949 228.782C322.468 230.407 325.189 230.344 327.854 230.609C331.125 230.938 334.405 231.01 337.683 231.211C341.54 231.451 345.248 232.459 348.997 233.557C351.641 234.332 354.75 234.975 357.216 234.408C360.701 233.607 364.306 234.666 367.681 233.822C368.029 233.736 368.603 234.196 369.04 234.452C372.137 236.231 373.333 239.316 375.531 241.92C374.903 242.121 374.517 242.392 374.175 242.327C371.904 241.895 369.637 241.427 367.381 240.897C362.321 239.69 357.41 239.704 352.532 240.924C350.157 241.516 347.632 241.981 345.144 241.928C340.674 241.828 336.165 241.432 331.688 240.877C329.318 240.586 326.897 239.917 324.644 239.031C321.774 237.899 319.038 236.416 316.277 235.017C311.58 232.644 306.884 230.257 302.229 227.801C299.996 226.621 297.859 225.257 295.68 223.975ZM103.957 273.151C103.597 275.44 103.109 277.79 102.884 280.176C102.25 286.808 99.501 292.508 95.3901 297.621C92.9885 300.612 89.3407 301.94 85.7037 303.268C81.7254 304.728 77.9007 306.379 75.3798 309.771C74.3678 311.135 73.0827 312.322 71.84 313.523C66.9808 318.231 60.4049 320.201 53.2629 322.688C54.3691 320.995 54.9673 319.795 55.8382 318.809C57.2879 317.177 57.9615 315.293 58.6928 313.274C59.7819 310.265 61.6077 307.439 64.9937 306.046C66.3826 305.476 68.0873 305.331 69.2393 304.514C73.1556 301.743 77.9602 300.283 81.5556 296.888C84.3539 294.245 86.5243 291.341 88.4681 288.229C90.6052 284.806 92.6736 281.367 96.0008 278.842C98.5495 276.915 101.212 275.109 103.957 273.151ZM193.352 257.654C188.946 254.993 184.745 252.232 179.978 250.407C176.672 249.139 173.389 247.756 172.145 244.135C171.997 243.706 171.434 243.381 171.081 242.993C169.195 240.923 167.143 238.95 165.471 236.742C163.169 233.708 161.104 230.522 159.044 227.347C158.393 226.345 157.892 225.204 157.631 224.081C156.789 220.436 156.242 216.74 155.279 213.115C154.753 211.136 153.923 209.08 152.688 207.377C150.938 204.967 148.674 202.864 146.658 200.608C146.319 200.226 146.107 199.759 145.831 199.328C150.839 203.057 155.313 207.128 158.372 212.351C160.273 215.606 162.342 218.785 164.371 221.979C164.636 222.397 165.085 222.75 165.513 223.064C168.744 225.45 171.999 227.807 175.224 230.194C177.661 231.996 180.424 233.564 182.408 235.719C185.17 238.72 187.257 242.094 188.362 246.05C189.448 249.95 191.593 253.671 193.352 257.654ZM294.293 221.456C294.333 221.166 294.372 220.875 294.412 220.584C297.603 219.569 300.773 218.526 303.98 217.561C305.142 217.206 306.378 216.743 307.587 216.812C310.5 216.976 313.412 217.453 316.331 217.74C317.889 217.898 319.484 218.095 321.007 217.973C327.447 217.46 333.494 218.707 339.13 222.298C342.59 224.503 346.142 225.934 350.355 225.062C352.344 224.655 354.683 224.557 356.692 225.684C359.654 227.351 362.52 229.18 365.373 231.012C365.891 231.341 366.164 232.027 366.749 232.823C365.663 232.74 365.026 232.749 364.412 232.629C361.574 232.068 358.852 232.034 356.063 232.64C354.448 232.988 352.534 232.648 350.791 232.334C348.518 231.931 346.288 231.204 344.025 230.69C339.014 229.543 333.98 229.258 328.943 229.342C324.661 229.414 320.765 227.762 316.778 226.369C313.898 225.358 310.915 224.075 307.992 223.897C303.721 223.633 299.709 222.138 295.536 221.622C295.118 221.572 294.708 221.515 294.293 221.456ZM109.212 275.447C109.362 275.348 109.512 275.249 109.662 275.15C112.333 276.635 115.398 277.74 117.572 279.703C119.886 281.789 122.282 283.824 124.547 285.961C126.373 287.687 127.901 289.617 128.644 292.026C129.396 294.473 130.309 296.922 131.478 299.25C132.611 301.5 134.168 303.586 135.514 305.755C136.595 307.502 137.606 309.275 138.716 311.006C139.752 312.622 141.282 313.989 140.788 316.154C140.584 317.062 141.371 318.224 141.668 319.276C141.856 319.935 142.162 320.644 142.076 321.266C141.656 324.179 142.418 327.29 140.919 330.055C140.385 331.032 140.541 332.361 140.322 333.95C137.301 330.679 133.677 328.196 132.431 324.193C131.656 321.723 131.067 319.158 130.891 316.643C130.457 310.498 127.359 305.364 123.342 300.484C121.562 298.316 119.492 296.234 118.231 293.847C115.02 287.794 112.192 281.588 109.212 275.447ZM111.145 254.101C111.926 254.53 112.963 254.789 113.443 255.405C115.823 258.458 119.303 260.205 122.406 262.391C125.813 264.794 129.056 267.377 131.213 270.834C133.496 274.485 135.551 278.255 137.684 281.98C138.782 283.888 139.647 285.912 141.255 287.559C144.957 291.355 149.321 293.902 154.756 294.538C157.69 294.876 160.615 295.522 163.548 295.839C167.545 296.264 171.483 296.751 175.036 299.025C175.523 299.34 176.294 299.206 176.893 299.412C177.586 299.658 178.232 300.052 178.901 300.379C178.851 300.569 178.799 300.764 178.749 300.954C177.735 300.93 176.712 300.85 175.706 300.892C172.893 301.007 169.944 300.778 167.317 301.431C164.725 302.078 162.201 302.606 159.473 302.772C154.929 303.054 150.656 302.611 146.594 299.973C142 296.989 137.353 294.017 134.511 289.422C132.264 285.787 130.516 281.915 128.585 278.132C126.631 274.315 124.827 270.437 121.016 267.691C119.653 266.708 118.487 265.479 117.149 264.464C113.64 261.79 113.065 257.749 111.145 254.101ZM251.697 79.6253C248.815 79.4263 246.32 79.3266 243.836 79.0635C241.134 78.7732 238.419 78.4488 235.744 77.9203C233.569 77.4874 231.466 76.5656 229.292 76.157C226.216 75.5757 223.346 74.5156 220.628 72.9917C215.174 69.936 209.577 67.7857 203.206 67.5394C198.615 67.3586 194.028 66.0769 190.054 63.2462C189.254 62.6749 188.227 62.3952 187.368 61.8852C185.888 61.001 184.25 60.2077 183.465 57.9971C186.631 58.2707 189.687 57.8664 192.153 58.8919C197.466 61.0927 202.53 61.1458 207.895 60.5778C211.021 60.2471 214.425 60.6908 217.463 62.3432C220.258 63.862 223.007 65.4762 225.802 66.9949C230.18 69.3602 234.649 71.4278 239.62 72.331C242.3 72.8232 245.008 73.6356 247.527 74.7128C249.402 75.5168 251.296 76.7621 251.697 79.6253ZM251.129 244.561C255.081 245.029 258.373 245.794 261.56 247.039C262.309 247.329 262.948 248 263.533 248.584C267.155 252.192 269.297 256.605 271.451 260.917C272.964 263.952 274.166 267.223 274.269 270.554C274.314 272.08 275.052 272.981 276.336 273.674C278.459 274.811 280.026 276.34 280.937 278.47C281.215 279.119 282.097 279.649 282.212 280.266C282.908 284.151 283.402 288.056 284.099 291.937C284.554 294.452 285.241 296.953 285.986 300.152C284.993 299.045 284.435 298.559 284.052 297.98C280.764 292.976 277.015 288.293 272.798 283.89C269.068 280.009 267.443 275.357 266.259 270.462C264.903 264.824 262.662 259.334 259.189 254.361C256.929 251.129 254.146 248.191 251.129 244.561ZM249.622 245.368C250.29 245.772 250.708 245.909 250.935 246.18C252.802 248.42 254.528 250.762 256.503 252.914C258.32 254.896 259.355 257.137 260.429 259.449C262.808 264.57 264.685 269.783 265.95 275.16C266.321 276.75 266.705 278.523 267.715 279.8C269.862 282.522 272.006 285.266 274.59 287.709C276.375 289.393 277.915 291.381 279.212 293.413C281.09 296.35 283.358 299.004 285.684 301.634C286.102 302.108 286.453 302.625 287.275 303.692C282.976 302.039 279.393 300.705 275.857 299.261C275.246 299.012 274.679 298.349 274.351 297.765C271.357 292.44 266.51 288.612 261.764 284.75C259.564 282.958 258.266 281.017 257.826 278.417C257.022 273.676 256.692 268.88 254.971 264.225C254.625 263.287 254.443 262.304 254.219 261.341C253.102 256.542 252.909 251.58 250.052 247.094C249.807 246.704 249.815 246.188 249.622 245.368ZM324.693 150.883C324.965 151 325.23 151.119 325.501 151.236C325.209 153.742 325.081 156.291 324.575 158.743C324.194 160.585 323.192 162.223 321.608 163.445C318.788 165.616 315.941 167.761 313.204 170.025C312.188 170.862 311.37 171.939 310.609 173.006C309.227 174.941 308.18 177.093 306.06 178.488C305.504 178.854 304.937 179.336 304.67 179.904C302.473 184.563 298.833 187.886 294.007 190.179C292.922 190.692 291.938 191.379 290.847 191.895C289.546 192.508 288.177 193.019 286.513 193.706C288.591 187.62 292.079 183.206 297.283 179.937C299.19 178.738 300.599 176.94 301.243 174.739C302.037 172.002 302.816 169.264 303.67 166.552C304.039 165.373 304.413 164.168 305.051 163.125C307.675 158.848 311.791 156.471 317.141 155.839C319.673 155.541 321.461 154.32 322.955 152.587C323.484 151.983 324.111 151.45 324.693 150.883ZM59.4319 266.399C58.914 265.709 58.1326 265.107 58.114 264.541C58.0716 263.209 58.1895 261.816 58.6182 260.587C59.6795 257.517 61.0736 254.572 62.1033 251.489C63.1617 248.327 63.948 245.062 64.8265 241.831C64.9746 241.289 64.7746 240.534 65.1049 240.166C67.717 237.246 69.606 233.552 73.5713 231.986C76.4321 230.852 78.7091 229.082 81.2103 227.539C85.1712 225.099 89.4158 223.259 94.7369 223.413C94.4923 224.241 94.4966 225.027 94.0807 225.469C92.3857 227.283 91.7579 229.746 89.4483 231.28C87.1342 232.813 85.6494 235.334 83.5377 237.157C80.2692 239.981 75.5996 241.364 73.4873 245.414C73.3757 245.635 72.6939 245.524 72.3748 245.704C71.8698 245.991 71.2832 246.306 71.0144 246.768C69.805 248.849 68.5831 250.935 67.5829 253.117C66.3733 255.771 66.2068 258.856 63.8964 261.064C62.3753 262.525 61.1844 264.278 59.4319 266.399ZM293.343 160.287C293.459 160.38 293.568 160.476 293.681 160.573C292.909 162.424 292.319 164.378 291.316 166.106C290.319 167.818 289.143 169.538 287.613 170.808C286.42 171.795 285.572 172.752 285.157 174.185C284.682 175.823 283.655 176.997 281.759 177.498C277.264 178.687 272.578 178.965 267.875 178.644C262.84 178.3 258.063 178.453 253.64 180.544C252.582 181.045 251.273 181.13 250.072 181.401C245.392 182.447 240.673 181.407 236.019 180.367C233.505 179.801 231.111 178.595 228.658 177.677C229.555 177.029 230.332 176.83 231.125 176.821C233.219 176.806 235.32 176.875 237.419 176.909C239.516 176.938 241.539 176.689 243.513 176.131C246.423 175.308 249.387 174.618 252.32 173.853C252.697 173.751 253.097 173.582 253.358 173.324C254.946 171.771 256.699 170.954 259.186 172.167C259.657 172.394 260.445 172.248 260.979 172.055C263.985 170.97 267.139 170.887 270.412 171.274C271.099 171.359 272.025 171.34 272.465 170.981C274.952 168.959 278.191 169.288 281.232 168.844C284.569 168.359 288.223 168.275 289.706 164.502C290.346 162.868 292.094 161.678 293.343 160.287ZM103.099 262.776C103.949 265.582 104.661 267.935 103.287 270.027C102.293 271.533 101.066 272.948 99.6819 274.141C97.9978 275.594 95.7974 276.565 94.2485 278.115C92.3547 280.017 90.875 282.29 89.2586 284.432C87.3429 286.969 85.527 289.573 83.5713 292.079C82.353 293.646 81.033 295.151 79.6311 296.572C77.0653 299.161 73.2515 300.09 70.2212 302.089C68.7659 303.049 66.9462 303.573 65.2612 304.232C63.1803 305.037 61.0738 305.741 60.0838 307.874C59.7699 308.551 59.0099 309.032 58.121 309.948C57.802 306.235 59.2594 303.615 60.2991 300.907C61.0179 299.042 62.6158 297.888 64.7304 297.415C68.9525 296.46 71.7143 293.628 74.2475 290.804C76.288 288.537 77.5059 285.602 79.0021 282.918C80.0519 281.032 81.3432 279.395 83.3928 278.388C85.8836 277.167 88.3376 275.882 90.8964 274.777C96.4661 272.378 100.477 268.617 103.099 262.776ZM287.35 195.757C287.264 195.585 287.171 195.415 287.089 195.244C288.856 194.395 290.715 193.667 292.376 192.665C296.063 190.45 300.444 189.091 302.83 185.227C303.904 183.496 306.124 182.481 306.533 180.213C306.609 179.812 307.22 179.542 307.551 179.184C308.604 178.05 309.908 177.044 310.633 175.735C312.889 171.675 316.605 168.995 320.26 166.183C322.055 164.797 324.412 163.798 324.949 161.248C325.323 159.485 325.998 157.798 326.536 156.076C327.365 159.206 327.98 162.195 326.729 165.207C325.518 168.125 324.68 171.213 323.867 174.279C323.301 176.422 322.076 178.093 320.347 179.402C318.71 180.635 316.841 181.609 315.109 182.748C313.228 183.987 311.341 185.227 309.548 186.571C306.889 188.566 304.655 190.947 301.516 192.514C297.744 194.404 293.376 194.502 289.493 195.94C288.916 196.158 288.07 195.831 287.35 195.757ZM318.828 48.1711C318.271 48.3927 317.931 48.5971 317.554 48.6609C313.746 49.3036 309.683 48.8069 306.005 50.0687C305.552 50.2244 304.942 50.0193 304.436 50.0991C301.434 50.5651 298.428 51.015 295.449 51.5633C292.727 52.0636 290.074 53.1758 287.328 53.1462C281.194 53.074 275.018 52.575 268.863 52.003C266.88 51.8215 264.868 50.9872 262.979 49.6571C263.953 49.2159 264.697 48.9211 265.405 48.5622C270.684 45.8785 276.432 44.682 282.685 45.0409C286.862 45.284 290.96 45.3005 294.899 43.9583C298.69 42.6585 302.467 43.369 306.093 45.6119C307.318 46.3667 308.802 46.9202 310.215 47.1643C312.984 47.6371 315.787 47.8312 318.828 48.1711ZM318.532 215.586C318.553 215.451 318.571 215.31 318.587 215.172C320.404 214.594 322.16 213.831 324.044 213.494C326.14 213.113 328.341 213.038 330.513 213.003C332.383 212.972 334.306 212.994 336.163 213.342C338.956 213.869 341.722 214.648 344.477 215.414C349.076 216.695 353.675 217.977 358.234 219.4C362.491 220.727 366.178 222.803 368.561 226.695C370.194 229.353 372.102 231.909 374.135 234.335C375.511 235.983 377.258 237.396 378.953 238.801C380.158 239.802 381.661 240.499 382.819 241.533C383.97 242.559 385.821 242.423 386.593 244.253C387.129 245.524 388.802 246.433 389.913 247.553C390.322 247.96 390.574 248.497 391.329 249.631C388.939 248.456 387.189 247.71 385.565 246.774C382.303 244.905 379.313 242.719 377.196 239.665C376.667 238.902 376.382 237.957 375.722 237.335C370.94 232.846 366.94 227.454 360.187 225.195C357.571 221.905 354.179 223.127 350.972 223.158C349.823 223.172 348.648 223.123 347.498 222.939C345.513 222.627 343.665 222.109 341.892 220.858C337.038 217.445 331.608 215.776 325.697 215.882C323.324 215.921 320.922 215.694 318.532 215.586ZM93.2053 230.197C93.1192 231.839 93.2157 232.81 92.9961 233.692C92.3946 236.093 91.8358 238.533 90.9197 240.818C90.2175 242.57 88.9435 244.08 88.0144 245.748C86.5216 248.425 84.3585 250.528 81.5278 251.915C79.3233 252.994 77.095 254.117 74.881 255.082C71.2578 256.651 69.7492 259.725 67.6042 262.284C65.9241 264.287 64.6789 266.527 61.7682 267.489C61.924 265.362 63.4138 264.061 64.5147 262.529C65.6236 260.991 66.7285 259.413 67.5284 257.708C68.7836 255.035 69.7845 252.243 70.8758 249.489C71.7629 247.259 73.9764 246.183 75.6997 244.689C77.8006 242.867 79.6726 240.58 82.2 239.486C85.0774 238.24 86.6573 236.058 88.6796 234.144C89.9777 232.914 91.3805 231.777 93.2053 230.197ZM166.232 380.85C165.02 379.692 163.819 378.519 162.597 377.372C159.297 374.273 156.148 371.062 153.885 367.241C152.496 364.9 150.821 362.888 148.433 361.294C147.044 360.373 145.437 359.26 144.775 357.921C142.614 353.563 141.962 348.979 142.48 344.371C142.517 344.05 142.804 343.77 142.956 343.493C147.189 345.46 149.935 348.41 151.41 352.343C152.921 356.354 155.494 359.793 158.541 362.98C159.402 363.881 160.216 364.843 161.19 365.619C166.474 369.829 166.141 375.339 166.232 380.85ZM321.171 46.1116C321.161 46.3335 321.148 46.5495 321.139 46.7714C318.982 46.4713 316.817 45.9799 314.671 45.9156C311.641 45.8255 308.872 45.3144 306.093 43.745C304.552 42.8778 302.872 41.5851 300.82 41.8743C298.509 42.1954 296.211 42.5949 293.879 42.8256C290.686 43.137 287.481 43.5877 284.253 43.4944C278.195 43.3203 272.45 43.9361 267.264 46.6407C266.586 46.9931 265.762 47.1378 264.488 47.541C266.065 45.9118 267.19 44.5249 268.56 43.3885C270.589 41.7085 272.626 39.9599 274.973 38.7109C277.765 37.2156 280.487 35.5077 284.269 35.9076C288.253 36.3269 292.256 36.0281 296.244 36.3627C298.968 36.5901 301.578 37.543 303.874 39.2745C305.356 40.3906 307.362 41.0153 308.579 42.3005C310.256 44.073 312.04 44.0154 314.029 43.9207C314.314 43.9086 314.629 44.1218 314.933 44.2143C317.009 44.8502 319.091 45.4839 321.171 46.1116ZM299.324 11.0512C298.94 12.4397 297.821 12.5584 296.849 12.6972C295.117 12.9415 293.334 12.9708 291.6 13.195C290.64 13.3195 289.632 13.5153 288.806 13.9242C286.579 15.0324 284.434 16.2725 282.255 17.4546C281.735 17.7402 281.118 17.9264 280.684 18.2974C277.343 21.1291 273.63 23.4539 269.214 24.7343C266.378 25.5608 263.557 26.5384 260.606 26.9351C253.625 27.8688 246.56 28.4731 239.881 31.1787C240.33 30.4486 240.626 29.8738 241.015 29.3723C241.307 28.9932 241.718 28.699 242.081 28.3693C246.105 24.6872 251.456 23.2182 256.762 21.7296C258.992 21.0992 261.324 20.6326 263.674 20.4339C267.933 20.0771 271.991 19.3785 275.75 17.5449C277.551 16.6665 279.1 15.5397 280.761 14.5242C286.21 11.1869 292.662 10.9824 299.324 11.0512ZM235.912 36.8096C235.731 36.544 235.548 36.2724 235.364 36.0008C236.947 34.8937 238.522 33.7685 240.12 32.6773C243.572 30.3219 247.934 30.1391 252.004 29.3978C255.937 28.6787 260.082 28.9707 263.947 27.563C267.719 26.1971 271.836 25.6588 275.196 23.3309C278.342 21.1512 281.995 19.5752 285.154 17.4155C288.553 15.0951 292.441 14.3423 296.637 14.1074C295.985 14.6731 295.229 15.0588 294.485 15.4645C293.551 15.9758 292.53 16.4016 291.708 17.0382C288.625 19.4327 285.713 22.0264 282.527 24.2994C279.677 26.3277 276.39 27.6042 272.856 28.7168C268.606 30.0594 264.165 30.4289 259.842 31.2059C255.114 32.0533 250.21 32.1753 246.428 35.1825C246.282 35.2975 246.083 35.385 245.896 35.4098C242.568 35.8845 239.24 36.345 235.912 36.8096ZM127.521 167.949C128.451 175.121 132.508 181.265 135.846 187.907C130.157 187.3 125.244 185.402 120.087 183.215C120.398 181.935 120.423 180.608 121.022 179.605C122.84 176.598 124.897 173.732 126.043 170.367C126.346 169.492 127.019 168.752 127.521 167.949ZM135.293 50.2594C139.762 50.6718 144.2 50.5221 148.699 51.2264C153.094 51.91 157.612 51.7612 161.876 54.1301C156.679 55.0304 151.562 54.6273 146.412 54.412C142.231 54.2395 138.532 53.6348 135.31 50.8156C135.272 50.7798 135.302 50.6726 135.293 50.2594ZM127.732 50.3949C121.196 52.7961 107.889 55.6159 97.7912 53.0254C98.2614 52.6941 98.6135 52.2637 99.0651 52.1747C101.571 51.7016 104.076 51.1701 106.63 50.9343C109.921 50.6315 113.253 50.5338 116.582 50.4543C120.294 50.3714 124.012 50.4114 127.732 50.3949ZM305.986 67.8369C307.285 67.762 308.619 67.8036 309.883 67.5981C314.557 66.8383 318.258 69.1184 321.799 71.6709C323.043 72.5686 323.903 73.9596 323.372 75.6123C317.345 73.6232 312.344 69.2951 305.986 67.8369ZM246.638 201.873C246.602 202.131 246.564 202.394 246.525 202.657C244.97 202.693 243.397 202.943 241.86 202.723C239.363 202.367 236.902 201.628 234.403 201.19C231.699 200.716 228.982 200.333 226.266 200.037C224.28 199.825 223.094 198.818 221.795 196.631C225.679 197.715 228.904 198.687 232.165 199.498C234.284 200.022 236.451 200.36 238.604 200.707C241.279 201.134 243.962 201.483 246.638 201.873ZM37.2649 31.31C32.2199 27.4683 27.2782 24.0466 22.7784 20.1851C18.2787 16.3236 12.6671 13.5464 9.43446 8.42703C18.6518 15.4836 27.6736 22.7446 36.6759 30.0261C36.9422 30.242 36.9945 30.6929 37.2649 31.31ZM125.728 153.884C124.475 147.833 127.402 143.201 128.481 138.161C128.671 143.479 129.286 148.884 125.728 153.884ZM236.435 211.653C236.668 209.919 237.71 210.316 238.807 210.558C242.38 211.344 245.962 212.096 249.551 212.783C251.3 213.119 253.069 213.285 254.831 213.531C254.809 213.805 254.787 214.08 254.759 214.356C248.688 214.225 242.636 213.625 236.435 211.653ZM282.161 245.322C277.846 240.683 272.119 238.386 268.235 233.943C272.433 236.365 276.949 238.237 280.635 241.458C281.753 242.436 282.4 243.351 282.161 245.322ZM300.271 66.6176C293.081 66.2439 285.89 65.8701 278.698 65.5004C278.695 65.2827 278.691 65.069 278.688 64.8513C285.881 64.8602 293.068 64.3086 300.271 66.6176ZM218.94 196.929C213.468 195.906 210.642 191.535 206.555 188.621C207.255 188.529 207.907 188.608 208.36 188.938C210.044 190.16 211.653 191.48 213.312 192.735C215.175 194.15 217.065 195.528 218.94 196.929ZM127.777 126.722C124.899 125.63 122.932 123.486 121.6 120.005C124.274 120.687 126.839 123.473 127.777 126.722ZM123.535 166.777C124.019 167.323 124.534 167.695 124.479 167.873C123.931 169.542 123.341 171.208 122.633 172.822C122.386 173.394 121.79 173.82 121.353 174.31C121.184 174.204 121.011 174.095 120.838 173.987C121.679 171.737 122.523 169.483 123.535 166.777ZM115.539 202.711C116.36 198.494 116.36 198.494 117.904 198.548C117.071 200.018 116.302 201.366 115.539 202.711ZM102.377 100.917C102.534 100.788 102.69 100.663 102.84 100.54C103.926 101.668 105.012 102.795 106.507 104.355C103.777 103.817 103.335 102.154 102.377 100.917ZM212.899 57.9342C215.238 57.1147 215.238 57.1147 217.046 58.0729C214.838 59.1607 214.838 59.1607 212.899 57.9342ZM198.296 58.4479C198.285 58.198 198.277 57.9441 198.268 57.6902C199.545 57.8415 200.816 57.9908 202.093 58.142C202.079 58.3478 202.067 58.5496 202.058 58.7574C200.804 58.6542 199.55 58.5511 198.296 58.4479ZM89.5978 82.4638C89.7982 82.3723 90.0005 82.2767 90.2037 82.1911C90.9108 83.1891 91.6206 84.1932 92.3322 85.1932C92.1658 85.2802 92.0058 85.3651 91.844 85.4541C91.0982 84.4587 90.3497 83.4572 89.5978 82.4638ZM93.3808 86.892C93.6054 86.7819 93.8317 86.6678 94.0518 86.5558C94.4508 87.2477 94.8454 87.9377 95.2463 88.6255C95.1514 88.6712 95.0601 88.7088 94.9652 88.7545C94.4392 88.133 93.9086 87.5095 93.3808 86.892ZM198.895 174.633C198.904 174.811 198.912 174.992 198.924 175.175C198.178 175.137 197.432 175.114 196.686 175.052C196.634 175.049 196.587 174.783 196.476 174.456C197.326 174.514 198.11 174.574 198.895 174.633ZM207.988 57.9233C207.989 58.1833 207.989 58.4434 207.99 58.7035C207.257 58.6473 206.52 58.5892 205.788 58.5331C205.782 58.3477 205.774 58.1664 205.764 57.979C206.506 57.9624 207.246 57.9398 207.988 57.9233ZM5.6521 5.60171C5.48635 5.73713 5.32512 5.87449 5.16112 6.00585C4.5382 5.40986 3.9125 4.80786 3.28505 4.20992C3.41593 4.09314 3.5468 3.97637 3.6822 3.86155C4.33825 4.44295 4.99605 5.02031 5.6521 5.60171ZM118.745 178.339C118.596 178.237 118.441 178.136 118.286 178.035C118.682 177.354 119.073 176.671 119.469 175.99C119.648 176.097 119.822 176.205 119.997 176.309C119.581 176.987 119.165 177.664 118.745 178.339ZM173.045 166.464C173.203 166.296 173.366 166.131 173.524 165.963C174.111 166.505 174.703 167.049 175.294 167.593C175.176 167.706 175.06 167.814 174.946 167.929C174.312 167.444 173.676 166.953 173.045 166.464Z" fill="#3D3D3D"/>
</g>
<defs>
<clipPath id="clip0_118_21">
<rect width="435" height="435" fill="white"/>
</clipPath>
</defs>
</svg>
