<svg width="435" height="435" viewBox="0 0 435 435" fill="none" xmlns="http://www.w3.org/2000/svg">
<g clip-path="url(#clip0_120_5)">
<g filter="url(#filter0_d_120_5)">
<path d="M406.872 0.169211C393.971 25.1412 380.106 49.935 362.307 72.5647C344.29 95.1321 322.057 114.346 299.874 133.329C288.639 142.667 277.794 152.53 264.691 160.207C251.572 167.879 236.877 172.746 222.232 176.799C192.935 185.09 162.853 191.101 132.46 194.624L132.4 194.272C162.359 188.581 191.917 181.639 221.011 173.303C235.474 169.059 249.902 164.553 262.699 157.384C275.427 150.166 286.691 140.703 298.421 131.864C309.992 122.878 321.336 113.612 331.656 103.455C342.071 93.3643 351.2 82.3166 359.623 70.8771C376.76 48.185 391.237 23.9211 406.516 0L406.872 0.169211Z" fill="#373434"/>
<path d="M406.872 0.169211C393.971 25.1412 380.106 49.935 362.307 72.5647C344.29 95.1321 322.057 114.346 299.874 133.329C288.639 142.667 277.794 152.53 264.691 160.207C251.572 167.879 236.877 172.746 222.232 176.799C192.935 185.09 162.853 191.101 132.46 194.624L132.4 194.272C162.359 188.581 191.917 181.639 221.011 173.303C235.474 169.059 249.902 164.553 262.699 157.384C275.427 150.166 286.691 140.703 298.421 131.864C309.992 122.878 321.336 113.612 331.656 103.455C342.071 93.3643 351.2 82.3166 359.623 70.8771C376.76 48.185 391.237 23.9211 406.516 0L406.872 0.169211Z" fill="#373434"/>
<path d="M155.39 180.414C158.435 182.623 161.366 185.549 161.771 189.405C161.989 193.328 159.27 196.694 156.69 199.419C153.981 202.176 150.986 204.58 147.976 206.909C144.896 209.314 141.466 211.402 137.729 213.072C133.977 214.671 129.806 215.797 125.476 215.855C121.136 215.94 117.009 214.893 113.208 213.682C105.655 211.193 98.4384 208.063 91.5777 204.376C89.8625 203.472 88.1474 202.537 86.4767 201.579L83.9756 200.105C83.1699 199.589 82.2308 199.308 81.4103 198.311C80.6095 197.238 81.1186 195.87 81.7661 195.136C82.4137 194.33 83.2787 193.72 84.0992 193.217C85.7204 192.188 87.2972 191.101 88.9679 190.113C95.5023 186.034 102.299 182.196 109.609 179.19C116.9 176.309 124.705 173.918 132.925 173.762C136.988 173.65 141.095 174.127 144.946 175.222C148.761 176.376 152.33 178.121 155.39 180.414ZM155.143 180.69C152.098 178.464 148.495 176.821 144.684 176.126C140.853 175.476 136.943 175.449 133.142 175.988C125.54 177.075 118.2 179.51 110.86 181.915C103.569 184.382 96.3031 187.245 89.6747 191.07C88.0238 192.032 86.3877 193.021 84.8258 194.089C83.3281 195.011 81.7661 196.61 82.5718 197.612C82.9228 198.084 83.9113 198.516 84.7467 198.974L87.3268 200.243C89.0766 201.076 90.8214 201.886 92.5959 202.648C99.7037 205.685 107.014 208.299 114.399 210.498C118.076 211.567 121.754 212.32 125.352 212.15C128.97 211.972 132.554 211.068 135.925 209.634C139.335 208.259 142.519 206.326 145.578 204.238C148.697 202.051 151.93 200.021 154.831 197.763C157.664 195.514 160.397 192.811 160.659 189.418C160.812 185.994 158.108 182.89 155.143 180.69Z" fill="#373434"/>
<path d="M187.898 195.915C183.559 199.005 178.987 201.784 174.454 204.58C172.2 205.934 170.07 207.355 168.384 209.011C166.699 210.623 165.68 212.654 164.721 214.88C163.782 217.12 162.898 219.542 161.479 221.853C160.055 224.146 158.276 226.137 156.516 228.043C152.992 231.757 149.428 235.862 149.329 240.694L148.099 240.23L154.742 233.079C156.996 230.688 159.625 228.377 162.809 226.707C165.883 225.01 169.14 223.897 171.938 222.41C174.78 220.931 176.945 219.15 178.413 216.719C179.861 214.283 180.885 211.362 182.041 208.41L185.61 199.682C186.771 196.779 188.081 193.898 189.352 191.017C189.984 189.556 190.666 188.22 190.79 186.827C190.849 186.15 190.681 185.384 190.617 184.573C190.538 183.799 190.652 182.779 191.403 182.196L191.7 182.432C190.82 183.683 191.961 185.09 192.149 186.787C192.362 188.528 191.793 190.14 191.373 191.618C190.513 194.624 189.678 197.638 188.704 200.604L185.842 209.536C184.789 212.458 183.974 215.561 182.105 218.567C180.326 221.671 177.009 224.035 173.821 225.482C170.594 226.987 167.366 228.043 164.445 229.365C158.711 231.997 154 236.739 149.152 241.094L147.772 242.332L147.911 240.636C148.331 235.292 152.157 231.187 155.048 227.068C156.536 224.997 157.955 222.909 158.928 220.753C159.873 218.58 160.476 216.216 161.415 213.793C162.339 211.402 163.733 208.842 165.913 206.896C168.013 204.932 170.534 203.596 172.941 202.354C177.81 200.003 182.644 197.669 187.701 195.608L187.898 195.915Z" fill="#373434"/>
<path d="M204.876 134.692C203.952 127.273 202.993 119.819 200.289 112.917C198.945 109.479 197.091 106.251 194.832 103.316C192.514 100.404 189.677 97.8481 186.459 95.7152C179.999 91.4582 172.525 88.5103 164.646 86.6178C156.777 84.6407 148.572 83.5409 140.357 82.5924L141.143 81.6662C146.397 94.3392 154.168 106.139 163.47 116.702C165.773 119.342 168.245 121.876 170.701 124.423C173.188 126.943 175.679 129.433 178.472 131.419C181.254 133.454 184.314 134.803 187.7 135.026C191.096 135.333 194.679 134.594 198.653 134.317C200.63 134.175 202.731 134.193 204.832 134.567C206.932 134.968 208.712 135.555 210.551 136.206C214.179 137.528 217.594 139.091 220.916 140.592C224.272 142.079 227.594 143.455 231.024 144.332C234.514 145.209 238.171 145.944 241.819 146.461C256.44 148.469 271.659 147.618 285.978 143.388L286.117 143.722C272.307 149.328 256.578 151.234 241.34 149.595C237.509 149.19 233.772 148.607 229.971 147.783C226.126 146.866 222.552 145.432 219.107 143.971C215.662 142.524 212.355 140.952 208.989 139.741C207.338 139.127 205.558 138.588 203.967 138.254C202.375 137.933 200.675 137.88 198.9 137.96C195.361 138.111 191.466 138.851 187.324 138.432C183.138 138.085 179.183 136.206 176.232 133.872C173.207 131.521 170.761 128.849 168.354 126.218C165.941 123.559 163.683 120.803 161.508 118.006C152.793 106.79 145.7 94.6999 139.725 82.1783L139.245 81.1497L140.51 81.2432C148.775 81.871 157.118 82.343 165.368 83.9594C173.573 85.6026 181.778 88.4391 188.53 93.2794C195.361 97.9861 200.536 104.804 202.687 112.222C205.079 119.592 205.385 127.206 205.282 134.665L204.876 134.692Z" fill="#373434"/>
<path d="M211.401 139.675C207.042 139.243 202.87 140.147 199.113 141.647C195.312 143.148 191.996 145.464 188.748 147.922C185.456 150.344 182.164 152.962 179.06 155.719C175.971 158.497 173.094 161.463 170.395 164.535L169.619 163.382C174.562 162.216 179.466 160.92 184.423 159.864C189.396 158.862 194.339 157.749 199.346 156.885C204.293 155.981 209.157 155.229 213.561 153.434C217.886 151.64 221.939 148.883 224.149 144.738L224.515 144.836C223.62 149.551 219.651 153.546 215.064 155.995C210.393 158.484 205.173 159.726 200.166 160.617C195.174 161.534 190.122 162.184 185.1 162.968C180.078 163.689 174.982 164.179 169.926 164.789L167.548 165.083L169.155 163.618C172.259 160.808 175.195 157.887 177.899 154.77C180.558 151.595 183.168 148.385 186.445 145.571C189.722 142.819 193.647 140.481 198.051 139.158C202.405 137.849 207.348 137.698 211.49 139.323L211.401 139.675Z" fill="#373434"/>
<path d="M242.472 149.498C244.509 145.223 243.678 140.69 243.046 136.179C242.378 131.66 241.311 127.233 240.199 122.794C239.136 118.354 237.866 113.861 235.829 109.644C233.758 105.432 230.926 101.549 227.698 98L229.631 97.5948C229.122 102.337 227.733 106.915 226.418 111.368C225.123 115.812 224.07 120.22 223.976 124.562C223.867 128.876 224.905 133.231 227.065 137.195C229.201 141.189 232.369 144.791 236.398 147.69L236.195 147.993C231.395 146.06 227.283 142.681 224.377 138.557C221.52 134.443 219.74 129.527 219.76 124.548C219.76 119.565 221.272 114.877 222.849 110.424C224.411 105.957 226.28 101.7 227.515 97.2741L228.148 94.9675L229.443 96.8734C232.196 100.881 234.623 104.995 236.986 109.141C239.334 113.305 241.716 117.508 243.382 122.001C244.973 126.508 245.838 131.214 246.1 135.93C246.333 140.481 246.273 145.864 242.808 149.689L242.472 149.498Z" fill="#373434"/>
<path d="M169.191 100.529C173.561 101.994 177.05 104.973 179.492 108.339C180.668 110.089 181.41 112.053 182.571 113.75C183.698 115.477 185.117 116.991 186.664 118.439C189.803 121.28 192.566 124.227 195.566 126.899C198.423 129.709 201.389 132.269 204.957 134.803L204.804 135.137C200.168 134.705 195.922 132.394 192.581 129.584C189.338 126.65 186.753 123.243 184.89 119.552C183.901 117.744 182.878 115.963 181.504 114.404C180.159 112.832 178.38 111.55 176.882 110.134C173.995 107.2 171.583 104.176 168.939 100.81L169.191 100.529Z" fill="#373434"/>
<path d="M193.493 153.728C195.268 152.04 196.968 151.083 198.96 150.486C199.998 150.259 201.244 150.273 202.222 149.827C203.211 149.413 203.918 148.634 204.55 147.783C205.742 146.016 207.259 144.515 209.266 143.29C211.302 142.235 214.194 141.58 216.561 142.689L216.571 143.041C214.49 144.279 213.205 145.339 211.599 146.461C209.933 147.436 208.154 148.594 205.915 149.302C204.817 149.703 203.779 150.121 202.914 150.789C202.054 151.444 201.387 152.463 200.458 153.127C198.53 154.325 196.073 154.77 193.582 154.075L193.493 153.728Z" fill="#373434"/>
<path d="M231.594 116.087C233.295 118.773 234.066 121.471 234.234 124.281C234.234 125.701 233.868 127.18 234.021 128.582C234.145 130.003 234.689 131.339 235.336 132.661C236.725 135.262 237.62 137.947 238.396 140.645C239.009 143.388 239.32 145.891 239.997 148.83L239.676 149.026C236.77 147.285 235.242 144.279 234.313 141.58C233.542 138.797 233.062 135.974 233.206 133.049C233.23 131.588 233.171 130.154 232.751 128.792C232.37 127.411 231.471 126.106 230.991 124.739C230.205 121.961 230.191 119.066 231.209 116.127L231.594 116.087Z" fill="#373434"/>
<path d="M261.152 198.364C253.501 200.479 246.012 202.915 238.796 205.823C231.688 208.815 224.704 212.32 220.161 217.832C217.902 220.584 215.99 223.688 213.795 226.792C211.6 229.882 209.129 232.803 206.425 235.515C201.126 241.041 195.116 245.841 189.447 250.904L188.779 249.836C202.056 247.133 215.387 243.668 226.834 237.243C232.523 234.028 237.792 230.243 241.949 225.621C246.195 221.101 248.963 215.588 252.161 210.08C255.389 204.581 258.602 199.38 260.569 193.662C261.617 190.808 262.482 187.842 263.456 184.867C264.474 181.888 265.571 178.936 266.777 176.033C271.537 164.357 278.116 153.31 286.168 143.331L286.509 143.527C279.757 154.24 274.271 165.471 270.054 177.048C267.934 182.85 266.53 188.733 264.523 194.784C262.571 200.911 259.052 206.518 255.779 211.821C252.497 217.12 249.443 222.895 244.698 227.722C239.982 232.509 234.298 236.365 228.149 239.287C215.822 245.213 202.268 247.832 189.12 251.073L186.575 251.697L188.438 250C194.078 244.906 199.382 239.523 204.216 233.89C206.593 231.049 208.852 228.141 210.923 225.162C212.974 222.187 214.769 218.888 217.423 215.922C222.771 209.955 230.265 206.201 237.807 203.681C245.345 201.089 253.135 199.17 261.063 198.03L261.152 198.364Z" fill="#373434"/>
<path d="M263.915 191.587C263.179 195.968 265.774 199.785 268.878 202.817C272.046 205.881 275.907 208.94 278.798 212.609C281.749 216.256 283.973 220.321 285.856 224.44C287.73 228.573 289.415 232.718 290.849 236.975L289.475 236.949C290.957 231.703 292.099 226.373 292.287 221.185C292.317 218.594 292.149 216.02 291.437 213.589C290.74 211.135 289.569 208.797 288.269 206.491C285.565 201.886 282.214 197.571 278.442 193.399C274.691 189.236 270.825 185.117 266.639 181.207L266.886 180.931C271.997 183.905 276.603 187.539 280.864 191.462C285.12 195.345 289.163 199.713 292.01 204.736C294.991 209.706 296.395 215.757 295.683 221.377C295.065 227.041 292.796 232.202 290.849 237.323L290.033 239.482L289.475 237.296C288.392 233.052 286.707 228.907 284.27 225.135C281.887 221.337 278.936 217.899 276 214.533C274.518 212.836 273.02 211.18 271.443 209.563C269.837 207.978 268.166 206.308 266.609 204.5C263.535 200.982 261.384 195.79 263.544 191.475L263.915 191.587Z" fill="#373434"/>
<path d="M258.477 203.623C255.853 205.894 252.487 207.145 249.348 208.37C246.071 209.55 243.367 210.663 240.772 212.444C238.113 214.127 235.503 216.202 233.308 218.58C231.114 220.976 229.26 223.616 227.145 226.163C225.074 228.751 222.711 231.146 220.052 233.248C217.442 235.377 214.689 237.38 211.772 239.117C205.866 242.555 199.593 245.298 192.995 247.413L192.797 247.092C198.175 243.027 203.874 239.549 209.39 235.987C215.03 232.553 220.408 228.92 225.538 224.872C228.074 222.81 230.313 220.446 232.29 217.885C234.267 215.325 236.017 212.529 238.652 210.177C241.266 207.8 245.082 206.504 248.345 205.765C251.681 204.887 255.047 204.42 258.26 203.316L258.477 203.623Z" fill="#373434"/>
<path d="M268.353 176.727C262.975 176.144 257.756 174.612 253.085 176.046C248.28 177.212 243.861 179.884 239.007 181.888C234.218 184.003 229.369 186.047 224.905 188.692C220.422 191.297 216.265 194.329 212.187 197.42L211.164 195.22C215.741 194.285 220.348 193.479 224.95 192.726C229.557 191.952 234.158 191.199 238.795 190.656C243.416 190.032 248.092 189.667 252.748 189.177C255.017 188.999 257.271 188.75 259.421 188.162C261.566 187.623 263.672 186.8 265.185 185.228L265.521 185.424C264.473 187.441 262.278 188.821 260.113 189.779C257.894 190.727 255.561 191.35 253.208 191.849C248.621 192.673 244.049 193.63 239.442 194.329C234.84 195.091 230.204 195.652 225.553 196.177C220.916 196.747 216.265 197.264 211.599 197.638L205.841 198.114L210.581 195.443C215.138 192.864 219.775 190.433 224.253 187.788C228.766 185.188 233.017 182.222 237.495 179.524C241.933 176.879 246.708 174.305 252.393 173.276C255.156 172.719 258.309 172.942 260.904 173.704C263.544 174.416 265.99 175.418 268.462 176.375L268.353 176.727Z" fill="#373434"/>
<path d="M266.406 182.124C261.755 182.543 257.643 183.335 253.362 184.114C251.281 184.435 248.869 184.725 246.709 185.326C244.509 185.922 242.473 186.857 240.451 187.873C236.463 189.988 232.276 191.631 228.01 193.092C223.68 194.396 219.247 195.456 214.521 195.843L214.383 195.514C218.199 192.98 222.311 191.141 226.527 189.543C230.788 188.109 235.148 186.826 239.69 186.047C241.949 185.615 244.173 185.09 246.254 184.239C248.375 183.433 250.169 182.097 252.453 181.265C256.936 179.831 262.175 179.719 266.5 181.777L266.406 182.124Z" fill="#373434"/>
<path d="M376.34 104.995C366.702 108.811 358.759 114.863 351.122 121.28C343.381 127.594 335.537 133.828 330.125 141.607C324.628 149.329 321.163 158.194 319.186 167.35C317.209 176.518 316.917 185.994 317.58 195.358L316.576 194.94C328.444 187.147 338.918 177.676 347.598 167.154C351.928 161.881 355.793 156.329 359.001 150.486C362.263 144.666 364.725 138.49 366.993 132.243C369.247 126.009 371.412 119.592 373.325 113.304C375.149 106.972 376.266 100.712 374.902 94.3261C374.329 91.1111 373.454 87.8961 372.816 84.5698C372.213 81.2435 371.798 77.9082 371.595 74.5552C371.135 67.8491 371.753 61.1386 373.033 54.5839L373.434 54.6418C372.757 61.2365 372.969 67.8625 373.79 74.386C374.531 80.9674 376.587 87.148 378.179 93.7829C379.879 100.476 379.168 107.738 377.205 114.195C375.278 120.71 373.216 127.011 370.962 133.409C366.385 146.127 359.574 158.515 350.069 168.877C340.692 179.368 329.23 188.024 317.318 195.857L316.374 196.485L316.309 195.425C315.741 185.994 315.696 176.505 316.992 167.029C318.306 157.593 321.366 148.117 327.174 139.911C333.031 131.659 341.315 125.412 349.298 119.383C353.351 116.395 357.459 113.376 361.892 110.762C366.375 108.215 371.16 106.082 376.202 104.666L376.34 104.995Z" fill="#373434"/>
<path d="M421.087 170.881C416.342 164.259 412.185 157.513 408.305 150.58C406.481 147.075 404.815 143.455 402.715 140.062C400.644 136.638 397.891 133.632 395.839 129.99C393.674 126.271 393.383 122.054 392.607 118.425C391.836 114.68 390.723 111.025 389.364 107.489C386.769 100.351 382.489 93.8274 376.231 88.3681L376.463 88.0742C384.347 91.7256 390.229 98.6677 393.333 106.206C394.91 109.996 395.76 113.972 396.284 117.922C396.872 121.961 396.581 125.719 397.851 129.25C400.584 136.455 406.531 142.609 411.197 149.164C415.65 155.883 419.184 163.119 421.453 170.729L421.087 170.881Z" fill="#373434"/>
<path d="M387.99 134.149C385.89 129.041 384.545 123.671 384.437 118.105C384.501 115.335 384.881 112.441 386.616 109.782C387.476 108.478 388.885 107.222 390.744 106.665C392.582 106.127 394.446 106.345 396.052 106.696C408.231 110.37 417.84 118.412 424.315 127.915C430.835 137.448 434.142 148.536 434.606 159.486C435.145 170.493 433.509 181.318 431.329 192.032L430.879 194.272L429.876 192.117C427.419 186.845 421.567 183.937 416.313 180.401C413.673 178.602 410.999 176.545 409.111 173.775C407.09 170.979 406.531 167.835 405.592 165.208C403.753 159.851 400.565 154.739 397.199 149.734C393.877 144.68 390.323 139.661 387.99 134.149ZM388.361 134.024C390.665 139.519 394.584 144.252 398.524 148.923C402.404 153.617 406.516 158.426 408.82 164.246C409.961 167.154 410.545 169.923 412.107 172.119C413.609 174.403 415.878 176.322 418.26 178.246C420.653 180.134 423.277 181.96 425.675 184.061C428.087 186.163 430.187 188.719 431.314 191.658L429.846 191.743C432.703 181.265 433.647 170.311 432.209 159.668C430.726 149.066 427.316 138.673 420.885 129.865C414.642 121.053 405.478 113.71 395.143 109.631C392.592 108.838 390.304 109.088 388.682 111.065C387.076 112.971 386.29 115.584 385.969 118.189C385.361 123.462 386.335 128.957 388.361 134.024Z" fill="#373434"/>
<path d="M375.213 107.338C369.678 114.097 363.534 120.207 357.459 126.329C354.31 129.322 351.078 132.287 348.433 135.667C345.779 139.034 343.708 142.734 342.087 146.586C338.869 154.28 336.135 162.229 332.507 169.892C328.953 177.284 325.834 185.633 319.542 191.974L319.201 191.783C323.314 184.28 325.226 176.394 328.598 168.463C332.211 160.866 335.458 153.069 340.124 145.753C342.408 142.093 344.944 138.575 347.37 135.026C349.792 131.477 352.145 127.817 354.923 124.437C360.657 117.811 367.488 112.107 374.937 107.084L375.213 107.338Z" fill="#373434"/>
<path d="M283.522 86.0614C280.295 78.7408 274.793 72.4934 268.165 67.6353C261.477 62.8261 253.816 59.0812 245.621 56.9215C241.543 55.8796 237.435 55.0736 233.278 55.2562C229.107 55.4209 224.92 56.1868 220.793 57.2867C212.528 59.5666 204.397 62.5857 196.909 66.5799L196.939 65.5647C208.742 72.912 221.242 79.8674 235.008 83.1537C241.869 84.7968 248.853 85.4781 255.917 84.9749C262.975 84.6009 270.112 83.501 277.497 83.1938C281.16 83.0156 285.025 83.1403 288.549 83.6969L299.315 85.0996C306.284 85.8655 313.392 85.9635 320.406 85.1709C334.434 83.6079 348.11 78.9768 359.973 71.5895L360.225 71.87C349.237 80.3662 335.457 86.1995 320.9 88.2434C313.634 89.3566 306.175 89.5392 298.82 88.7866C291.653 88.1766 284.61 86.5334 277.635 86.9075C270.592 87.0455 263.42 87.994 256.085 88.2434C248.73 88.564 241.187 87.5932 234.217 85.5048C220.204 81.2434 208.263 73.6066 196.177 66.5666L195.288 66.05L196.212 65.5335C203.75 61.4457 211.599 57.7587 219.928 54.9623C224.099 53.5685 228.504 52.4286 233.125 52.2326C237.727 52.01 242.363 52.6512 246.644 53.9292C255.17 56.4629 263.267 60.3592 269.88 65.8407C276.494 71.2555 281.733 78.2109 283.913 85.9501L283.522 86.0614Z" fill="#373434"/>
<path d="M310.362 86.0309C307.397 85.3808 305.004 83.5417 302.918 81.6092C300.842 79.6321 299.132 77.3655 297.649 74.9432C294.619 70.0895 293.537 64.4387 293.319 59.0106C293.122 53.5424 293.705 48.1989 294.526 42.8688C295.346 37.5431 296.646 32.2798 298.406 27.1634L299.36 24.3491L300.566 26.9363C302.928 32.017 305.434 37.0399 308.212 41.9381C310.921 46.8942 314.46 51.3605 316.931 56.6595C319.433 62.0876 319.245 68.099 318.444 73.496C318.058 76.141 318.093 79.0087 317.282 81.7739C316.852 83.1276 316.294 84.5882 314.964 85.5188C313.61 86.4361 311.845 86.3693 310.362 86.0309ZM310.456 85.688C311.895 85.9641 313.531 85.9908 314.628 85.127C315.661 84.2364 316.111 82.9139 316.249 81.5958C316.546 78.9374 316.052 76.2657 315.913 73.4114C315.617 67.8853 315.631 62.6308 313.852 57.6213C313.081 55.0742 311.939 52.5539 310.763 50.0068C309.606 47.4642 308.415 44.9171 307.085 42.4413C304.446 37.4852 301.525 32.6449 298.48 27.858L300.645 27.6487C299.636 32.8497 298.851 38.0552 298.267 43.274C297.738 48.475 297.462 53.7517 297.506 58.9127C297.585 64.0736 298.267 69.141 299.977 74.0259C300.892 76.475 302.128 78.8528 303.749 80.9947C305.4 83.1098 307.644 84.9889 310.456 85.688Z" fill="#373434"/>
<path d="M288.609 85.6964C284.793 87.2015 281.457 89.3166 278.288 91.5698C275.105 93.8274 272.184 96.3567 269.539 99.0462C266.944 101.74 264.256 104.621 261.799 107.627C259.298 110.619 257.148 113.834 254.943 117.032L254.261 116.061C259.362 115.17 264.29 113.71 269.203 112.347C274.097 110.94 278.985 109.462 283.246 107.324C287.615 105.236 290.848 102.31 293.705 98.3738C296.646 94.6156 299.458 90.3898 303.64 87.3662L303.917 87.6201C300.862 91.405 299.053 95.7466 296.488 99.9056C295.203 101.981 293.873 104.136 291.93 106.055C289.998 107.921 287.729 109.493 285.272 110.646C280.369 112.997 275.184 114.195 270.083 115.282C264.938 116.35 259.669 116.813 254.464 117.312L252.867 117.45L253.782 116.324C256.223 113.318 258.339 110.089 260.252 106.754C262.234 103.423 264.132 100.017 266.865 96.9801C269.648 93.9788 273.004 91.5119 276.603 89.4279C280.201 87.3974 284.249 85.7676 288.5 85.3535L288.609 85.6964Z" fill="#373434"/>
<path d="M300.057 32.7249C301.836 34.5639 302.484 37.0397 303.008 39.1682C303.537 41.368 303.952 43.5944 304.031 45.8476C304.061 48.1008 303.779 50.3985 303.932 52.6517C304.09 54.8915 304.649 57.0912 305.296 59.2865C306.764 63.6593 307.214 68.179 308.618 72.1064C309.839 76.1541 311.895 80.1751 313.423 84.6013L313.081 84.7973C309.453 81.5511 306.349 77.7973 304.585 73.2464C303.735 70.9487 303.458 68.5708 303.27 66.2998C303.057 64.0199 303.072 61.7935 303.132 59.5136C303.181 57.256 303.117 55.0028 302.667 52.7897C302.222 50.5766 301.357 48.4214 300.769 46.2216C300.23 44.0264 300.057 41.7821 299.963 39.5334C299.854 37.2357 300.106 35.1339 299.701 32.8941L300.057 32.7249Z" fill="#373434"/>
</g>
</g>
<defs>
<filter id="filter0_d_120_5" x="77" y="0" width="361.71" height="259.697" filterUnits="userSpaceOnUse" color-interpolation-filters="sRGB">
<feFlood flood-opacity="0" result="BackgroundImageFix"/>
<feColorMatrix in="SourceAlpha" type="matrix" values="0 0 0 0 0 0 0 0 0 0 0 0 0 0 0 0 0 0 127 0" result="hardAlpha"/>
<feOffset dy="4"/>
<feGaussianBlur stdDeviation="2"/>
<feComposite in2="hardAlpha" operator="out"/>
<feColorMatrix type="matrix" values="0 0 0 0 0 0 0 0 0 0 0 0 0 0 0 0 0 0 0.25 0"/>
<feBlend mode="normal" in2="BackgroundImageFix" result="effect1_dropShadow_120_5"/>
<feBlend mode="normal" in="SourceGraphic" in2="effect1_dropShadow_120_5" result="shape"/>
</filter>
<clipPath id="clip0_120_5">
<rect width="435" height="435" fill="white"/>
</clipPath>
</defs>
</svg>
