<svg width="258" height="245" viewBox="0 0 258 245" fill="none" xmlns="http://www.w3.org/2000/svg">
<g clip-path="url(#clip0_123_351)">
<g filter="url(#filter0_d_123_351)">
<path d="M88.5568 -150.47C103.224 -140.431 117.665 -129.832 130.252 -117.081C142.777 -104.206 152.653 -89.1211 162.383 -74.0902C167.13 -66.5023 172.266 -59.0978 175.729 -50.5513C179.186 -41.9931 180.651 -32.7546 181.592 -23.622C183.599 -5.33528 184.04 13.2122 182.838 31.7093L182.605 31.7116C182.355 13.2737 181.253 -5.04673 179.194 -23.2159C178.107 -32.2601 176.843 -41.306 173.676 -49.6242C170.467 -57.9051 165.642 -65.5234 161.272 -73.3585C156.787 -81.1155 152.094 -88.7578 146.71 -95.8769C141.381 -103.042 135.286 -109.532 128.854 -115.632C116.147 -127.992 102.12 -138.908 88.4087 -150.273L88.5568 -150.47Z" fill="#373434"/>
<path d="M176.28 16.6746C178.056 15.0613 180.282 13.5823 182.82 13.6984C185.38 13.9358 187.246 15.8754 188.715 17.671C190.185 19.5469 191.395 21.5638 192.557 23.579C193.76 25.6438 194.715 27.888 195.365 30.2789C195.969 32.6699 196.223 35.2713 195.764 37.8628C195.319 40.4645 194.173 42.8353 192.955 44.9942C190.48 49.2791 187.63 53.3009 184.462 57.0583C183.682 57.9991 182.881 58.9396 182.072 59.8475L180.833 61.2057C180.406 61.636 180.117 62.175 179.377 62.5714C178.593 62.9503 177.769 62.5191 177.367 62.0617C176.922 61.5993 176.624 61.0254 176.393 60.4899C175.914 59.4246 175.39 58.3799 174.943 57.2895C173.055 53.0013 171.353 48.5814 170.247 43.9316C169.22 39.3015 168.567 34.414 169.407 29.4872C169.801 27.0478 170.579 24.6337 171.729 22.4362C172.911 20.2625 174.445 18.2901 176.28 16.6746ZM176.43 16.8489C174.641 18.4603 173.168 20.462 172.283 22.6769C171.423 24.9063 170.957 27.24 170.873 29.5634C170.705 34.2102 171.436 38.8266 172.154 43.4368C172.911 48.0272 173.93 52.6356 175.645 56.9554C176.077 58.0315 176.528 59.1021 177.042 60.1358C177.465 61.1181 178.321 62.1996 179.058 61.8123C179.405 61.6447 179.798 61.0952 180.19 60.6394L181.305 59.2126C182.042 58.2478 182.768 57.2786 183.463 56.2874C186.238 52.3238 188.765 48.1973 191.033 43.9865C192.145 41.8894 193.05 39.7578 193.354 37.5917C193.652 35.414 193.48 33.1861 192.936 31.0391C192.439 28.8706 191.553 26.7859 190.555 24.7622C189.496 22.6942 188.555 20.573 187.429 18.6256C186.297 16.7261 184.865 14.8409 182.701 14.3656C180.507 13.9552 178.193 15.2826 176.43 16.8489Z" fill="#373434"/>
<path d="M190.02 -1.31404C191.518 1.56748 192.793 4.56 194.081 7.52874C194.696 9.00262 195.373 10.4097 196.25 11.5703C197.099 12.7296 198.295 13.5282 199.625 14.3086C200.965 15.081 202.431 15.8324 203.759 16.8979C205.08 17.9623 206.163 19.2105 207.196 20.4402C209.193 22.8952 211.439 25.4087 214.548 25.9173L214.11 26.611L210.246 21.9703C208.957 20.401 207.767 18.6139 207.05 16.5557C206.305 14.5598 205.958 12.5085 205.317 10.6977C204.688 8.85897 203.785 7.39961 202.379 6.29544C200.972 5.20203 199.201 4.31728 197.427 3.35042L192.195 0.403504C190.446 -0.559555 188.736 -1.61469 187.02 -2.64095C186.15 -3.15512 185.364 -3.68679 184.476 -3.88976C184.044 -3.99143 183.53 -3.96123 183.001 -3.99842C182.489 -4.02371 181.844 -4.18404 181.554 -4.69157L181.741 -4.84468C182.448 -4.20096 183.489 -4.75412 184.606 -4.70763C185.755 -4.6713 186.733 -4.18328 187.638 -3.7944C189.484 -2.99773 191.339 -2.21747 193.144 -1.36025L198.589 1.18464C200.355 2.08506 202.268 2.86309 203.999 4.25833C205.799 5.61342 206.95 7.81733 207.521 9.85548C208.121 11.9265 208.434 13.9565 208.957 15.8231C210 19.4949 212.526 22.7576 214.787 26.0626L215.432 27.0002L214.35 26.7604C210.943 26.0109 208.728 23.339 206.397 21.2274C205.227 20.1459 204.039 19.1038 202.757 18.3209C201.464 17.5528 200.003 16.9746 198.545 16.1835C197.105 15.406 195.609 14.3374 194.599 12.8529C193.57 11.4143 192.997 9.78215 192.471 8.22624C191.508 5.09618 190.552 1.99028 189.797 -1.22455L190.02 -1.31404Z" fill="#373434"/>
<path d="M152.389 -17.1745C147.489 -17.3114 142.561 -17.4346 137.791 -16.4613C135.413 -15.9761 133.116 -15.1721 130.96 -14.0945C128.812 -12.9803 126.836 -11.5216 125.09 -9.79915C121.597 -6.33284 118.836 -2.14031 116.709 2.39296C114.535 6.91374 112.883 11.7169 111.329 16.5425L110.82 15.9837C119.613 14.0272 128.13 10.4796 136.021 5.90208C137.994 4.77303 139.915 3.53032 141.842 2.29932C143.755 1.04736 145.647 -0.20914 147.254 -1.69384C148.885 -3.16814 150.11 -4.8696 150.64 -6.87316C151.226 -8.87649 151.16 -11.0875 151.435 -13.4861C151.571 -14.6809 151.819 -15.9365 152.303 -17.1587C152.804 -18.3798 153.388 -19.3848 154.019 -20.4237C155.291 -22.4714 156.689 -24.366 158.04 -26.2117C159.387 -28.0799 160.655 -29.938 161.615 -31.9054C162.582 -33.9124 163.477 -36.0293 164.226 -38.1622C167.197 -46.7141 168.39 -55.8923 167.295 -64.848L167.528 -64.8992C169.57 -56.1206 169.002 -46.5404 166.197 -37.5836C165.498 -35.3305 164.693 -33.1514 163.726 -30.9555C162.692 -28.7409 161.357 -26.7391 160.017 -24.8169C158.69 -22.8928 157.293 -21.062 156.125 -19.1606C155.539 -18.2319 154.988 -17.2181 154.586 -16.2976C154.199 -15.3776 153.969 -14.3652 153.818 -13.295C153.512 -11.1647 153.544 -8.77117 152.799 -6.33331C152.096 -3.86069 150.429 -1.67282 148.579 -0.124698C146.714 1.46456 144.709 2.67587 142.73 3.87192C140.737 5.06191 138.699 6.15827 136.643 7.19629C128.394 11.3636 119.767 14.4767 110.988 16.8809L110.267 17.0721L110.475 16.3228C111.826 11.4387 113.087 6.49652 115.076 1.71459C117.075 -3.03733 119.849 -7.68034 123.753 -11.2641C127.575 -14.9074 132.574 -17.3663 137.615 -17.9601C142.654 -18.7023 147.611 -18.1766 152.418 -17.4176L152.389 -17.1745Z" fill="#373434"/>
<path d="M156.357 -20.6079C155.579 -18.043 155.686 -15.4658 156.227 -13.0802C156.762 -10.6682 157.877 -8.46831 159.096 -6.29795C160.286 -4.10326 161.598 -1.89056 163.024 0.220692C164.469 2.32648 166.055 4.32141 167.733 6.22524L166.898 6.5817C166.711 3.51582 166.435 0.464019 166.32 -2.59804C166.24 -5.66442 166.088 -8.72386 166.102 -11.7968C166.082 -14.838 166.154 -17.8154 165.499 -20.6174C164.833 -23.3707 163.516 -26.0475 161.089 -27.7573L161.193 -27.9675C164.139 -26.9937 166.267 -24.2463 167.326 -21.276C168.4 -18.2533 168.605 -15.0164 168.606 -11.9399C168.629 -8.86958 168.471 -5.78942 168.402 -2.71503C168.295 0.353656 168.026 3.44752 167.843 6.52804L167.759 7.97649L166.998 6.87771C165.537 4.76001 163.985 2.73341 162.281 0.825784C160.531 -1.05866 158.753 -2.91878 157.312 -5.1397C155.908 -7.35492 154.845 -9.92094 154.494 -12.6767C154.148 -15.3992 154.614 -18.37 156.14 -20.6956L156.357 -20.6079Z" fill="#373434"/>
<path d="M126.223 0.978964C127.667 -1.49726 129.993 -3.30662 132.449 -4.45155C133.716 -4.99303 135.069 -5.25286 136.299 -5.78758C137.544 -6.29963 138.688 -7.00748 139.8 -7.79877C141.993 -9.4076 144.217 -10.7863 146.288 -12.3303C148.43 -13.7769 150.424 -15.3132 152.472 -17.2098L152.667 -17.086C151.859 -14.3544 149.878 -12.0306 147.682 -10.2959C145.413 -8.63299 142.913 -7.40354 140.313 -6.63335C139.033 -6.21059 137.766 -5.76687 136.598 -5.08849C135.432 -4.43161 134.397 -3.48891 133.309 -2.72534C131.082 -1.27375 128.854 -0.11299 126.376 1.15497L126.223 0.978964Z" fill="#373434"/>
<path d="M199.988 -44.8794C200.479 -40.1109 201.196 -35.4028 202.25 -30.8178C203.37 -26.2895 204.834 -21.7879 207.878 -18.5603C209.4 -16.9527 211.188 -15.5191 212.942 -13.9179C214.688 -12.3194 216.292 -10.5677 217.736 -8.69975C220.701 -5.01373 223.118 -0.97499 225.742 2.88781L224.971 3.18582C224.748 -5.00132 224.034 -13.2962 221.19 -20.7392C219.762 -24.4405 217.919 -27.9408 215.41 -30.8585C212.971 -33.8189 209.726 -35.9864 206.531 -38.4115C203.346 -40.8554 200.351 -43.2619 196.881 -44.9679C195.156 -45.8609 193.339 -46.6545 191.526 -47.5144C189.719 -48.4032 187.939 -49.3328 186.197 -50.3248C179.194 -54.2584 172.808 -59.222 167.28 -64.9642L167.444 -65.1492C173.599 -60.1137 180.227 -55.7869 187.226 -52.1881C190.736 -50.3811 194.378 -48.9908 198.061 -47.2261C201.796 -45.492 205.016 -42.8634 208.07 -40.4103C211.121 -37.9589 214.505 -35.5916 217.083 -32.3064C219.635 -29.0398 221.476 -25.2844 222.661 -21.3349C225.08 -13.4109 225.222 -5.06457 225.813 3.09792L225.925 4.67844L225.042 3.40423C222.395 -0.441601 219.52 -4.11435 216.432 -7.52926C214.869 -9.21634 213.249 -10.8357 211.56 -12.3511C209.87 -13.8558 207.944 -15.2365 206.333 -17.1018C203.087 -20.8552 201.517 -25.6835 200.751 -30.4273C199.943 -35.176 199.593 -40.0106 199.761 -44.8571L199.988 -44.8794Z" fill="#373434"/>
<path d="M203.081 -42.7902C204.247 -41.0094 204.669 -38.8804 205.104 -36.8895C205.491 -34.82 205.902 -33.103 206.758 -31.3843C207.541 -29.6397 208.583 -27.8852 209.869 -26.3492C211.166 -24.8153 212.661 -23.4576 214.064 -21.9558C215.502 -20.4774 216.778 -18.842 217.831 -17.0575C218.909 -15.2966 219.89 -13.4671 220.678 -11.56C222.223 -7.70814 223.278 -3.70305 223.891 0.437974L223.661 0.528962C221.648 -3.06558 220.055 -6.79816 218.383 -10.4294C216.807 -14.1186 215.076 -17.6731 213.046 -21.118C212.005 -22.826 210.732 -24.3834 209.303 -25.8062C207.874 -27.2248 206.268 -28.5324 205.049 -30.3291C203.811 -32.1137 203.41 -34.5141 203.306 -36.5336C203.122 -38.6084 203.204 -40.6659 202.86 -42.6882L203.081 -42.7902Z" fill="#373434"/>
<path d="M299.633 13.9796C296.585 15.821 293.223 17.1082 290.63 19.7477C288.475 21.9398 286.34 24.1728 284.043 26.1998C282.368 27.6757 280.437 28.8437 278.621 30.1522C278.089 30.5317 277.545 30.8903 277.035 31.2975C272.01 35.3029 267.06 39.4132 261.935 43.2817C259.83 44.8722 257.574 46.31 255.134 47.4097C251.548 49.0266 248.273 51.2789 244.957 53.4261C242.999 54.6947 241.061 55.9893 239.132 57.3014C238.073 58.0257 237.085 58.8707 236.009 59.5599C232.659 61.7156 229.322 63.9006 225.895 65.909C224.288 66.8501 222.478 67.3973 220.768 68.1492C219.408 68.7437 218.067 69.3815 216.705 69.9743C216.369 70.1205 215.997 70.1567 215.637 70.2436C215.596 70.1152 215.553 69.9893 215.51 69.8634C216.557 69.3982 217.641 69.0091 218.641 68.4485C219.825 67.782 220.957 66.9977 222.073 66.2057C224.25 64.6637 226.405 63.0831 228.562 61.5084C229.718 60.6666 230.889 59.8349 232.009 58.9444C234.304 57.1303 237.074 56.3036 239.526 54.828C242.252 53.1877 245.231 52.0873 247.823 50.1296C249.209 49.0866 251.004 48.646 252.536 47.7781C255.085 46.3358 257.561 44.7538 260.083 43.2612C264.688 40.5323 268.801 37.1588 272.566 33.3073C273.759 32.085 275.037 30.9513 276.288 29.7905C279.03 27.2556 281.733 24.6703 284.546 22.2179C286.263 20.7237 288.295 19.5924 289.933 18.0213C292.38 15.6739 295.269 14.1228 298.07 12.3712C299.607 11.4088 301.001 10.1944 302.478 9.12407C302.885 8.82674 303.364 8.63516 303.805 8.38484C305.554 7.38585 307.315 6.41027 309.037 5.36106C309.279 5.21063 309.324 4.70769 309.477 4.33355C308.566 3.74404 307.916 4.33844 307.257 4.67749C305.869 5.39402 304.494 6.13982 303.114 6.87392C302.766 7.05636 302.382 7.17762 302.069 7.40877C300.115 8.84226 298.181 10.3018 296.232 11.7429C293.944 13.4369 291.619 15.0847 289.359 16.8183C287.652 18.1279 286.023 19.5509 284.353 20.9135C282.936 22.0661 281.438 23.1253 280.105 24.369C276.851 27.4073 273.671 30.5298 270.46 33.6177C269.679 34.3654 268.928 35.1121 268.025 35.7548C265.745 37.3794 263.604 39.2229 261.41 40.9825C261.263 41.1049 261.153 41.4011 261.025 41.4095C259.226 41.5111 258.102 42.9733 256.663 43.7924C254.019 45.2968 251.397 46.8479 248.757 48.3622C247.028 49.3533 245.268 50.2842 243.548 51.2862C241.416 52.525 239.284 53.8126 236.984 54.6108C234.226 55.5711 232.004 57.3783 229.612 58.9768C226.881 60.8026 224.278 62.7709 221.677 64.779C219.997 66.0775 218.018 66.9571 216.156 67.9979C212.284 70.1596 208.361 72.2309 204.537 74.4838C202.262 75.8251 199.874 77.0003 197.867 78.8405C197.328 79.3359 196.437 79.4137 195.722 79.7227C194.468 80.2661 193.218 80.8129 191.987 81.4072C190.851 81.9545 189.788 82.1592 188.601 81.6308C187.072 80.9503 185.431 80.5154 183.888 79.8652C182.804 79.4092 181.825 78.7281 180.764 78.2211C179.869 77.7902 178.937 77.4231 177.998 77.0958C174.999 76.0489 171.916 75.1895 169.011 73.9472C167.319 73.2221 165.709 72.0935 164.409 70.7874C162.839 69.2121 160.916 68.4612 158.917 67.6203C159.25 66.9098 159.576 66.1262 159.976 65.3821C161.453 62.6174 162.174 59.6935 162.176 56.6377C162.175 55.7503 161.919 54.8714 161.708 54.0074C161.078 51.4387 161.597 48.7365 161.228 46.137C161.164 45.6942 161.26 45.1905 161.105 44.7941C160.297 42.725 160.602 40.5184 160.62 38.347C160.635 36.6181 160.736 34.8841 160.817 33.1514C160.982 29.7623 159.848 26.8544 157.923 24.3014C156.212 22.034 155.319 19.6195 156.051 16.613C156.374 15.2841 156.475 13.894 155.909 12.6108C155.603 11.9215 155.082 11.8149 154.613 12.4251C154.062 13.1415 153.347 13.8921 153.166 14.7107C152.747 16.6028 151.528 17.9381 150.382 19.3386C148.309 21.8702 146.779 24.702 145.796 27.7693C144.986 30.2996 144.458 32.908 143.846 35.4892C143.354 37.5581 144.089 39.4643 144.398 41.4229C144.505 42.1019 144.629 42.7778 144.697 43.4618C144.749 43.9682 144.642 44.5081 144.744 44.9947C145.896 50.4748 146.555 56.1024 148.55 61.3371C148.791 61.9705 148.804 62.7049 148.933 63.4563C148.683 63.4425 148.44 63.5018 148.342 63.4072C146.803 61.9492 145.177 60.5667 143.791 58.9683C142.325 57.2764 141.046 55.4057 139.772 53.5533C138.961 52.3723 138.115 51.1552 137.638 49.809C137.288 48.8156 137.243 47.5264 137.53 46.4761C138.065 44.495 137.505 42.7479 137.059 40.9905C136.659 39.4095 136.346 37.7722 135.359 36.3983C134.995 35.8936 135.029 35.0507 134.963 34.3493C134.808 32.6959 134.206 31.2836 133.118 30.0851C132.662 29.5803 132.375 28.9171 131.925 28.4091C130.927 27.2835 129.754 26.4339 128.416 25.6782C124.832 23.6618 121.373 21.4207 117.916 19.1921C116.607 18.3482 115.296 18.1929 113.793 18.701C112.435 19.1613 111.049 19.6268 109.869 18.6619C109.176 19.1875 109.105 19.7124 109.562 20.0896C110.336 20.7296 110.574 21.6098 110.903 22.5158C111.655 24.5739 113.045 26.2395 114.574 27.6906C116.494 29.5186 117.394 31.7386 117.753 34.3718C117.959 35.8778 118.349 37.3948 118.943 38.7663C119.37 39.752 120.226 40.5576 120.977 41.3546C122.094 42.5329 123.272 43.6469 124.452 44.7585C126.198 46.3993 128.461 47.0753 130.7 47.6622C132.466 48.1251 133.852 49.1502 135.344 50.0413C135.576 50.1815 135.677 50.543 135.818 50.8124C135.933 51.0399 135.943 51.3906 136.118 51.5008C138.535 53.0256 139.074 56.0334 140.957 57.9742C141.459 58.4898 141.883 59.0918 142.561 59.9214C141.809 59.8527 141.35 59.9154 140.992 59.7621C139.855 59.2711 138.741 58.7209 137.639 58.1535C134.553 56.5599 131.477 54.9432 128.391 53.3413C128.069 53.1729 127.739 52.972 127.385 52.9049C124.655 52.3951 122.226 51.1252 119.663 50.1942C117.56 49.4275 115.369 48.8871 113.222 48.2282C112.631 48.0473 112.029 47.9068 111.849 47.118C111.76 46.7435 111.388 46.3761 111.041 46.1699C108.076 44.3971 106.569 41.5809 105.745 38.2744C105.364 36.7411 105.123 35.1607 104.693 33.6488C104.205 31.9353 103.45 30.3172 102.275 29.0201C101.236 27.8722 100.08 26.8009 98.8341 25.8903C96.7642 24.3744 95.9082 22.0741 94.9845 19.8222C94.6068 18.8996 94.5541 17.8306 94.2953 16.848C94.151 16.2968 93.9973 15.6858 93.655 15.2685C92.1255 13.4097 90.2301 11.9765 87.9033 11.325C86.8001 11.017 85.8041 10.6744 84.9361 9.93908C83.0359 8.33271 81.1167 6.74256 79.1711 5.19335C78.8234 4.91924 78.2216 4.66609 77.8658 4.80115C77.5767 4.91342 77.4271 5.60746 77.3068 6.0626C76.7583 8.1205 77.5803 9.9769 77.8751 11.9105C78.0872 13.2965 78.254 14.6908 78.4761 16.0728C78.8531 18.4139 80.096 20.2699 81.5055 22.0444C83.2669 24.2622 84.7486 26.6181 85.1569 29.6011C85.4245 31.5524 85.7674 33.5175 86.3555 35.372C87.1434 37.8526 88.8833 39.7111 90.7189 41.4248C92.9071 43.4691 95.7409 45.0854 98.7547 46.2187C99.3109 46.4271 99.8068 46.776 100.222 47.3604C97.7751 46.9072 95.3381 46.4011 92.8789 46.0222C90.2993 45.6229 87.8591 44.7522 85.3068 44.2671C84.3497 44.0852 83.3522 44.2059 82.4443 44.0978C81.551 43.9892 80.5985 43.8447 79.7157 43.6344C78.0279 43.2292 76.3453 43.3412 74.6406 43.3087C72.1067 43.2598 69.6732 43.8508 67.3212 44.7242C65.834 45.274 64.263 46.0982 63.1709 47.2362C60.5903 49.9307 57.781 52.495 56.2979 56.0783C55.8258 57.2262 55.309 57.3865 54.1607 57.1397C52.4832 56.7836 50.8046 56.1815 49.1065 56.2029C46.8703 56.2292 44.5591 56.1099 42.593 58.1083C41.1441 59.5768 39.1875 60.3632 37.1868 61.0493C34.9899 61.7988 32.934 63.0746 30.856 64.2059C29.4625 64.9679 28.1023 65.8109 26.8143 66.7447C26.2772 67.1316 25.9666 67.8508 25.4049 68.6159C26.0569 68.8832 26.4715 69.1536 26.9264 69.2234C28.9798 69.5384 31.0355 69.8891 33.1146 70.038C34.0848 70.1049 35.1805 69.9282 36.0958 69.5359C37.7527 68.8277 39.3667 67.9596 40.9129 67.004C43.467 65.4185 46.188 64.5329 49.081 64.1849C51.1593 63.9369 52.8575 62.7646 54.3316 61.3636C55.941 59.8317 57.5327 59.5813 59.4115 60.338C61.9483 61.3588 64.4416 62.5893 67.0974 63.1956C70.1993 63.903 73.377 64.1188 76.6505 62.6651C80.1372 61.1152 83.8603 60.2822 87.6273 60.006C89.7568 59.8485 91.739 59.4885 93.5061 57.9214C95.9052 55.7994 98.4646 53.8668 100.964 51.8602C102.777 50.4058 104.612 49.2129 107.069 49.2694C109.243 49.3182 111.38 49.4417 113.294 50.349C113.938 50.6518 114.187 51.7444 114.617 52.4749C114.825 52.2244 115.033 51.9764 115.241 51.7259C113.761 51.9709 112.26 52.1219 110.803 52.49C109.221 52.8914 107.729 53.4039 106.359 54.6096C104.617 56.1382 102.647 57.3559 100.319 58.0359C96.9878 59.0096 93.5749 59.5268 90.2741 60.5906C88.4162 61.189 86.5125 61.6896 84.9867 63.1659C83.8328 64.2812 82.5896 65.3385 81.27 66.2378C79.616 67.3595 78.4908 68.9261 77.7459 70.6398C76.9689 72.4167 76.4849 74.3673 76.2063 76.2761C75.978 77.8444 76.435 79.4745 76.2389 81.0476C75.9508 83.3382 75.4173 85.6184 74.8578 87.8758C74.4712 89.4413 73.8451 90.9591 73.3593 92.5045C73.0462 93.5087 72.7346 94.4914 73.4354 95.4739C73.7332 95.8887 73.6901 96.5591 73.8035 97.1329C74.6512 97.0609 74.9541 96.5851 75.3733 95.8588C76.5869 93.7495 78.1105 91.815 79.3804 89.7357C80.8373 87.3484 82.6897 85.3496 84.8089 83.5844C86.1866 82.441 87.725 81.7438 89.463 81.2989C91.8859 80.6737 94.2341 79.6842 96.6343 78.9103C97.7896 78.5358 98.9745 78.2131 100.163 78.0215C102.075 77.7191 103.742 76.9729 105.144 75.5341C106.215 74.4338 106.735 73.2645 106.436 71.7012C106.214 70.542 106.551 69.3551 107.575 68.5224C110.219 66.3834 111.963 63.4637 114.058 60.8579C114.671 60.0963 114.816 58.9274 115.096 57.925C115.304 57.1799 115.354 56.3978 115.539 55.6464C115.752 54.7837 115.812 53.8469 116.986 53.5199C117.291 53.4345 117.442 52.6319 117.613 52.2672C121.02 53.5495 124.038 54.6969 127.068 55.8123C128.002 56.1578 129.01 56.3282 129.92 56.7205C132.547 57.8607 135.132 59.0978 137.756 60.247C139.064 60.8191 140.453 61.2236 141.755 61.8096C142.591 62.1856 143.614 62.5593 144.069 63.2704C145.368 65.3114 146.837 67.1069 149.062 68.17C149.321 72.0401 148.849 76.0375 151.023 79.577C148.375 79.3578 146.093 80.569 143.827 81.6793C142.517 82.3219 141.371 83.3296 140.139 84.1535C138.602 85.1796 136.869 85.3943 135.149 85.547C133.951 85.649 132.746 85.5826 131.548 85.5487C129.848 85.5005 128.147 85.2335 126.461 85.3951C125.112 85.5225 123.768 86.1014 122.448 86.574C120.888 87.1307 119.356 87.78 117.821 88.4151C117.408 88.5839 116.985 88.7906 116.632 89.0674C115.164 90.2274 113.49 90.7116 111.747 91.2019C110.869 91.4516 109.433 91.4464 109.276 92.9995C106.549 94.1452 105.848 97.1547 103.885 99.0123C102.462 100.353 101.172 101.791 99.3124 102.58C98.3428 102.993 97.5256 103.82 96.4977 104.56C96.1785 105.582 97.1094 105.858 97.8241 106.054C98.5855 106.27 99.4749 106.364 100.25 106.182C101.925 105.785 103.517 105.912 105.161 106.12C107.911 106.467 110.728 106.459 113.448 106.92C115.508 107.27 117.528 107.636 119.644 107.51C120.942 107.433 122.154 107.16 123.334 106.471C124.886 105.566 126.669 105.01 128.072 103.92C130.265 102.216 132.8 101.326 135.153 100.023C137.113 98.941 138.506 97.3297 139.252 95.3973C140.049 93.3299 141.344 91.7408 142.839 90.2872C144.509 88.6678 146 87.026 146.975 84.8434C147.416 83.854 148.344 83.022 148.853 81.9502C149.043 81.5461 149.798 81.2851 150.329 81.1583C151.873 80.7934 153.438 80.5351 154.993 80.2235C157.565 79.7005 160.13 79.1302 162.708 78.6678C163.377 78.5477 164.164 78.5822 164.755 78.846C168.092 80.3341 171.657 81.1056 175.176 82.0511C177.153 82.5859 179.002 83.5923 180.836 84.5271C182.305 85.2736 183.773 85.823 185.487 85.6097C185.649 85.5886 185.82 85.7335 186.153 85.8681C185.309 86.5169 184.601 87.1517 183.811 87.6548C181.237 89.3013 178.617 90.8351 176.261 92.8602C175.068 93.8828 173.379 94.2805 171.959 95.0495C170.078 96.0684 168.248 97.1968 166.373 98.2357C165.233 98.8665 164.063 99.4455 162.882 99.9902C160.21 101.221 157.832 102.883 155.722 104.995C155.249 105.47 154.484 105.637 153.988 106.099C151.226 108.668 148.531 111.313 145.752 113.865C144.643 114.881 143.784 116.081 142.833 117.221C142.217 117.957 141.378 118.504 140.725 119.213C138.949 121.151 137.381 123.34 135.405 125.018C134.216 126.024 133.2 127.788 131.236 127.512C128.836 128.838 126.24 129.305 123.642 129.888C122.536 130.137 121.693 129.684 120.71 129.687C118.226 129.701 115.742 129.629 113.269 129.477C110.576 129.315 107.904 128.958 105.21 128.837C104.033 128.78 102.814 129.187 101.617 129.225C100.372 129.266 99.1146 129.211 97.8956 129.022C96.8567 128.859 95.891 128.354 94.8549 128.163C93.5674 127.931 92.6634 127.279 91.7262 126.376C88.9922 123.75 86.0928 121.3 83.2305 118.81C82.7701 118.408 82.2086 118.056 81.6302 117.873C79.4231 117.185 77.7602 115.658 75.9307 114.383C75.1126 113.812 74.3129 113.203 73.4362 112.736C71.6468 111.785 69.8698 112.526 68.0854 113.174C67.0626 113.548 66.005 113.896 64.9464 114.032C62.6662 114.332 60.3701 114.605 58.088 114.669C55.6987 114.734 53.3224 114.48 50.9341 114.486C49.8168 114.488 48.6915 114.783 47.5647 114.929C47.1711 114.98 46.7715 115 46.375 115.011C45.083 115.047 43.7884 114.995 42.5056 115.14C42.0364 115.192 41.5955 115.709 41.0204 116.095C42.8111 118.345 43.8264 120.759 44.773 123.247C45.4352 124.986 46.5668 126.522 47.5511 128.109C47.7644 128.454 48.2399 128.622 48.595 128.872C49.9673 129.838 51.3029 130.863 52.7299 131.745C53.6766 132.334 54.7018 132.929 55.785 133.143C57.6861 133.519 59.6512 133.785 61.6037 133.761C64.3061 133.726 66.9286 133.946 69.436 134.832C72.8244 136.033 76.4359 136.318 79.9903 136.686C81.8687 136.88 83.8789 136.186 85.8308 135.92C88.9607 135.497 91.5618 133.527 94.4718 132.486C96.3964 131.797 98.4033 131.365 100.387 130.896C105.387 129.717 110.277 130.659 115.201 130.948C116.935 131.052 118.674 131.14 120.443 131.57C119.864 131.685 119.286 131.865 118.704 131.909C115.53 132.164 112.643 133.452 109.732 134.761C107.607 135.718 105.381 136.42 103.182 137.172C101.9 137.612 100.597 138.066 99.2826 138.26C97.9821 138.448 96.652 138.347 95.3398 138.324C92.9518 138.28 90.5632 138.164 88.1736 138.142C86.3971 138.125 84.6612 137.96 82.9042 137.761C80.6452 137.502 78.2334 136.996 76.041 138.647C74.3315 139.932 72.5193 141.085 70.8849 142.466C69.7227 143.447 68.3822 143.923 67.0642 144.243C65.5356 144.611 64.4442 145.534 63.6266 146.663C62.0086 148.905 60.6189 151.308 59.1464 153.654C59.0149 153.867 58.9705 154.136 58.8849 154.379C59.4583 155.302 60.2837 155.372 61.2204 155.169C64.9242 154.367 68.579 154.831 72.2465 154.991C74.0155 155.067 75.8101 155.264 77.559 155.008C78.6732 154.845 79.8951 154.142 80.7565 153.333C81.7306 152.414 82.5739 152.255 83.8094 152.272C86.4537 152.311 89.1294 152.332 91.751 151.358C93.5721 150.684 95.4697 150.269 97.2998 149.617C99.1865 148.945 100.698 147.847 101.541 145.801C102.312 143.926 103.377 142.16 104.363 140.374C104.981 139.262 105.797 138.397 107.026 137.854C108.497 137.205 109.803 136.013 111.302 135.574C113.457 134.944 115.454 133.754 117.761 133.602C120.026 133.453 122.286 132.973 124.548 132.664C125.045 132.594 125.553 132.631 126.327 132.61C123.928 133.97 122.027 135.515 120.188 137.214C119.331 138.003 118.135 138.56 117.323 139.485C115.705 141.335 114.201 143.291 112.587 145.144C111.504 146.387 110.267 147.49 109.173 148.722C106.357 151.892 102.861 154.232 99.7098 156.99C97.3807 159.031 94.6333 160.264 91.6907 160.772C90.2837 161.018 88.8153 160.702 87.3707 160.679C85.4812 160.651 83.5892 160.67 81.6982 160.662C80.8724 160.656 80.0481 160.662 79.2289 160.608C77.9178 160.525 76.6468 160.392 75.3171 160.955C72.6116 162.101 70.0934 161.366 67.6421 160.321C66.7307 159.931 65.8201 159.531 64.8735 159.247C63.0171 158.688 61.1699 158.034 59.2549 157.749C57.6212 157.508 55.8938 157.632 54.2113 157.778C52.8264 157.897 51.448 158.289 50.068 158.567C49.6963 158.641 49.2898 158.656 48.9597 158.829C47.3515 159.675 45.6629 160.416 44.1974 161.48C42.6317 162.618 40.9884 163.351 39.2144 164.015C36.746 164.935 34.3974 166.226 31.9958 167.361C31.8805 167.416 31.7058 167.45 31.6603 167.541C30.4617 169.907 27.758 170.677 26.3172 172.77C25.825 173.485 24.5656 173.564 24.7123 174.864C25.8115 175.275 26.9146 174.836 27.9954 174.504C31.1686 173.532 34.2338 173.299 37.2481 174.742C40.305 176.205 43.6603 176.902 47.0169 177.355C49.9178 177.749 52.8752 176.988 55.7473 176.217C57.8614 175.648 59.9156 174.816 62.0097 174.154C63.2898 173.75 64.6134 173.51 65.8873 173.091C68.6976 172.161 71.2502 170.835 73.0994 168.268C74.5679 166.229 76.2467 164.374 78.4116 163.027C79.269 162.491 80.0351 162.151 81.093 162.196C82.684 162.262 84.2228 162.467 85.7833 162.677C87.4801 162.9 89.2743 162.703 91.0129 162.501C93.2473 162.239 95.4708 161.788 98.1392 161.343C97.1695 162.348 96.5168 163.16 95.7348 163.812C93.1029 166.009 90.8156 168.454 88.8978 171.367C86.3391 175.256 83.5937 179.063 80.2252 182.311C78.8156 183.673 77.0762 184.683 75.4973 185.867C73.8235 187.118 72.1585 188.371 70.502 189.642C68.0573 191.515 65.6527 193.441 63.6219 195.799C61.4068 198.37 59.8063 201.278 58.6095 204.438C57.5697 207.184 56.301 209.849 55.2392 212.587C54.6236 214.173 54.0717 215.813 53.7657 217.468C53.5599 218.573 53.8031 219.752 53.8939 220.891C53.9909 222.045 54.179 223.187 54.2719 224.342C54.3378 225.16 54.5175 225.862 55.3116 226.222C55.4791 226.3 55.6831 226.401 55.7567 226.553C56.4204 227.965 57.6651 228.26 59.0343 227.997C60.6129 227.692 61.6988 228.402 62.7413 229.356C64.0201 228.959 64.9175 228.101 65.6101 227.05C67.174 224.678 68.6723 222.268 70.1955 219.873C70.6942 219.091 71.121 218.258 71.6943 217.535C73.3224 215.492 74.5526 213.297 75.3084 210.772C75.6863 209.51 76.5653 208.317 77.4084 207.242C79.7579 204.246 80.772 200.869 80.823 197.212C80.8809 193.118 81.6942 189.107 82.351 185.057C82.7728 182.453 84.0178 180.597 85.5695 178.702C86.3513 177.744 86.969 176.65 87.729 175.668C89.5404 173.322 91.3977 171.006 93.2387 168.678C93.3603 168.522 93.4866 168.37 93.6203 168.226C95.0499 166.687 96.4087 165.069 97.9309 163.632C99.3142 162.33 100.721 161.05 102.214 159.851C103.945 158.465 105.448 156.742 106.895 155.034C108.381 153.276 109.624 151.313 111.072 149.519C114.455 145.334 117.529 140.851 121.965 137.654C122.007 137.625 122.085 137.645 122.349 137.635C122.132 138.46 122.038 139.293 121.705 140.018C120.552 142.52 120.187 145.119 119.984 147.789C119.824 149.91 119.231 151.98 118.269 153.95C117.87 154.766 117.453 155.63 117.319 156.502C116.827 159.692 115.086 162.131 112.918 164.434C111.305 166.145 109.949 168.104 108.407 169.889C105.359 173.418 102.229 176.871 99.202 180.412C97.7205 182.143 96.3528 183.977 95.0043 185.814C94.4696 186.542 94.0363 187.375 93.709 188.214C92.9092 190.265 92.0506 192.318 91.4854 194.428C91.0004 196.234 90.615 198.147 90.6808 199.966C90.7761 202.496 90.4912 204.982 90.2211 207.486C90.1688 207.979 89.8957 208.458 89.7396 208.947C88.9332 211.454 87.5291 213.774 87.1796 216.435C87.1162 216.924 86.6596 217.468 86.2514 217.825C85.319 218.639 84.0191 219.171 83.3787 220.15C81.9861 222.276 79.4014 223.835 79.9224 227.116C80.2991 227.064 80.9462 227.139 81.4522 226.891C84.8365 225.229 87.9948 223.204 90.7135 220.486C91.2156 219.987 91.8363 219.578 92.4586 219.25C94.8206 217.999 97.1921 216.808 99.799 216.189C101.754 215.726 103.143 214.134 104.384 212.687C105.727 211.125 106.844 209.258 107.648 207.362C108.539 205.261 109.89 203.43 110.784 201.354C111.607 199.441 112.815 197.606 113.251 195.633C113.971 192.395 114.319 189.076 113.681 185.804C113.363 184.174 113.136 182.566 113.783 180.84C114.695 178.408 114.279 175.891 113.759 173.566C113.201 171.069 114.087 168.847 114.513 166.499C114.873 164.514 116.257 163.153 117.123 161.483C118.539 158.749 120.018 156.045 120.371 152.927C120.518 151.65 120.994 150.452 121.718 149.278C122.804 147.516 123.804 145.688 124.265 143.6C124.792 141.206 126.249 139.173 127.548 137.103C127.892 136.556 128.134 135.911 128.576 135.47C129.574 134.47 130.666 133.574 131.72 132.634C131.833 132.713 131.939 132.791 132.052 132.87C131.746 133.657 131.457 134.449 131.133 135.226C130.331 137.143 129.377 139.02 128.745 140.987C128.28 142.441 128.014 144.027 128.032 145.527C128.082 149.474 127.914 153.431 128.508 157.35C128.806 159.328 128.98 161.519 127.989 163.573C127.77 164.031 127.57 164.628 127.668 165.077C128.047 166.809 127.421 168.39 126.899 170.004C126.762 170.439 126.484 170.899 126.52 171.311C126.826 174.803 126.556 178.394 127.608 181.767C127.72 182.125 127.847 182.55 128.11 182.773C130.058 184.426 130.362 187.11 131.763 189.123C132.477 190.142 132.683 191.58 132.972 192.871C133.489 195.161 135.029 196.438 136.917 197.504C138.849 198.594 140.629 199.957 142.602 200.968C143.794 201.583 145.196 201.985 146.555 202.07C148.814 202.212 151.111 202.045 153.395 201.959C153.778 201.946 154.167 201.688 154.551 201.544C154.39 201.113 154.353 200.523 154.044 200.269C152.313 198.855 151.348 197.037 151.158 194.743C151.053 193.522 150.886 192.313 150.77 191.092C150.428 187.391 148.163 185.17 145.268 183.448C143.982 182.685 142.63 182.032 141.329 181.289C139.975 180.517 139.301 179.124 138.532 177.85C137.883 176.773 137.382 175.601 136.783 174.494C135.82 172.704 134.362 171.373 132.85 170.093C132.137 169.487 131.468 168.825 130.753 168.221C129.647 167.285 129.478 166.21 129.699 164.651C130.155 161.438 130.292 158.173 129.687 154.997C129.451 153.755 129.172 152.577 129.695 151.281C129.906 150.757 129.86 150.119 129.872 149.536C129.921 147.469 130.234 145.48 131.274 143.587C131.708 142.796 131.808 141.835 132.183 141.004C133.329 138.457 134.533 135.933 135.724 133.404C135.836 133.169 136.105 132.962 136.125 132.736C136.385 129.862 138.516 128.475 140.496 126.831C142.647 125.047 144.528 122.926 146.571 120.999C147.471 120.147 148.466 119.394 149.442 118.627C150.188 118.039 150.969 117.499 151.692 116.97C151.415 118.921 151.202 120.803 150.873 122.674C150.485 124.906 149.998 127.123 149.553 129.351C149.464 129.792 149.396 130.24 149.277 130.677C148.909 132.048 148.64 133.406 147.662 134.616C146.131 136.512 144.807 138.577 143.396 140.572C143.244 140.789 143.014 140.99 142.957 141.228C142.134 144.684 140.182 147.93 140.57 151.616C140.722 153.059 141.356 154.404 141.108 155.928C140.844 157.53 140.663 159.141 140.396 160.742C140.06 162.748 138.951 164.594 138.936 166.673C138.926 168.172 139.031 169.684 139.17 171.136C139.253 171.994 140.442 172.753 141.25 173.411C141.989 174.01 142.492 174.685 142.822 175.599C143.38 177.156 144.675 178.11 145.978 178.908C147.911 180.09 149.158 181.844 150.449 183.829C150.844 183.674 151.282 183.501 151.727 183.326C151.295 180.763 151.145 178.332 151.93 175.893C152.291 174.776 152.57 173.604 153.132 172.586C154.046 170.933 154.41 169.147 154.713 167.388C154.987 165.808 155.159 164.043 154.732 162.586C153.884 159.711 154.924 157.27 156.129 154.766C156.383 154.235 156.761 153.758 157.006 153.221C158.715 149.456 158.656 145.881 156.23 142.684C155.145 141.25 153.855 139.978 152.653 138.639C150.809 136.591 149.745 134.327 150.679 131.322C151.125 129.894 151.24 128.378 151.589 126.921C152.09 124.836 152.717 122.802 153.622 120.813C154.757 118.31 155.569 115.676 156.61 113.131C156.95 112.308 157.445 111.464 158.078 110.85C160.486 108.511 162.914 106.18 165.46 104C168.315 101.556 171.434 99.5704 175.02 98.391C177.877 97.4507 180.756 96.409 183.421 94.9879C185.566 93.8422 187.405 92.0519 189.392 90.5677C190.176 89.9807 191.016 89.4727 191.805 88.8933C193.601 87.5779 195.311 86.1763 196.961 84.6476C199.272 82.5099 201.96 80.8 204.384 78.7796C206.116 77.3378 208.108 76.3964 210.035 75.4032C212.043 74.3717 214.301 73.8934 216.439 73.1378C219.985 71.8848 223.477 70.4551 226.626 68.2766C228.664 66.8703 230.539 65.2092 232.586 63.8246C234.04 62.8434 235.654 62.1111 237.219 61.32C239.08 60.3769 240.968 59.4907 242.845 58.5894C243.242 58.3979 243.653 58.2316 244.304 57.9471C243.638 59.7418 242.987 61.275 242.52 62.8571C242.273 63.6944 242.347 64.6171 242.289 65.5026C242.271 65.7459 242.354 65.996 242.308 66.2338C241.537 70.2454 240.99 74.316 239.875 78.2483C239.238 80.4985 238.247 82.7031 238.092 85.0268C237.879 88.2443 237.72 91.4943 237.949 94.6778C238.147 97.4763 237.555 99.5591 235.055 101.188C232.438 102.893 230.009 104.91 227.423 106.665C226.319 107.413 225.044 107.926 223.797 108.396C222.102 109.038 220.316 109.414 218.656 110.131C216.599 111.025 214.496 110.738 212.42 111.036C211.68 111.142 210.807 111.165 210.24 111.583C208.828 112.618 207.338 113.502 206.064 114.82C204.913 116.013 203.151 116.462 201.429 116.701C198.551 117.101 195.898 116.297 193.18 115.814C192.747 115.738 192.33 115.583 191.896 115.548C190.289 115.417 188.738 115.422 187.52 116.95C186.908 117.716 186.002 118.255 185.419 119.035C183.159 122.07 180.239 123.402 176.624 123.529C175.07 123.581 173.462 124.087 171.957 124.643C170.262 125.271 169.753 128.018 171.086 129.45C172.301 130.757 173.473 132.175 175.395 132.601C176.295 132.802 177.111 133.322 177.967 133.69C181.426 135.188 185.038 136.24 188.817 136.67C191.525 136.983 194.265 136.474 196.981 136.056C197.351 135.999 197.747 135.829 198.055 135.603C200.624 133.726 203.466 132.491 206.353 131.301C210.01 129.797 213.081 127.391 215.658 124.298C217.591 121.98 218.397 119.198 219.176 116.423C219.641 114.76 220.051 113.133 221.254 111.782C221.54 111.46 221.623 110.954 221.855 110.4C225.864 109.702 229.149 107.15 232.534 104.821C233.068 104.454 233.584 104.056 234.383 103.472C234.25 104.144 234.225 104.552 234.085 104.922C232.913 108.004 232.071 111.141 231.791 114.412C231.634 116.266 231.231 118.111 230.92 119.958C230.889 120.135 230.745 120.312 230.618 120.461C229.454 121.829 228.618 123.491 226.994 124.45C225.194 125.513 223.381 126.571 221.655 127.761C219.827 129.023 218.071 130.405 216.325 131.788C213.37 134.132 210.408 136.463 207.531 138.906C206.554 139.737 205.791 140.848 204.991 141.88C202.919 144.533 201.714 147.554 200.845 150.766C200.218 153.101 199.215 155.35 198.436 157.654C197.165 161.415 196.805 165.216 197.558 169.026C197.734 169.902 197.956 170.775 198.878 171.199C199.767 171.61 201.778 171.215 202.591 170.185C203.655 168.838 204.893 168.399 206.455 168.583C207.377 168.691 208.116 168.316 208.883 167.63C210.866 165.852 212.159 163.639 213.122 161.25C213.765 159.651 214.681 158.286 215.616 156.858C217.16 154.497 219.285 152.661 220.934 150.415C221.028 150.287 221.26 150.262 221.661 150.084C221.644 152.113 221.849 154 221.275 155.892C220.842 157.337 220.29 158.754 219.883 160.202C219.404 161.893 219.041 163.611 218.599 165.31C218.387 166.123 218.18 166.949 217.841 167.716C217.15 169.284 216.62 170.861 216.186 172.524C215.673 174.49 214.559 176.322 213.702 178.214C213.489 178.688 213.152 179.142 213.072 179.63C212.835 181.064 211.522 181.64 210.789 182.672C210.669 182.844 210.329 182.915 210.087 182.934C206.556 183.243 203.215 184.448 199.939 185.828C197.064 187.035 194.587 188.831 192.499 191.321C190.985 193.131 189.342 194.834 188.278 196.944C187.797 197.9 187.656 199.039 187.463 200.108C187.189 201.632 187.357 203.291 186.109 204.515C185.378 205.234 184.513 205.811 183.706 206.449C182.779 207.176 181.545 207.727 180.988 208.669C179.906 210.493 178.448 212.197 178.255 214.456C178.118 216.031 177.602 217.505 176.661 218.855C176.343 219.313 176.328 219.969 176.121 220.512C175.495 222.177 174.402 223.534 173.267 224.886C172.72 225.533 172.412 226.386 171.934 227.254C173.389 227.798 174.618 227.522 175.723 227.1C178.19 226.152 180.592 225.002 183.033 223.964C185.654 222.854 188.299 221.811 190.911 220.671C191.596 220.374 192.215 219.87 192.822 219.398C193.37 218.971 193.879 218.477 194.371 217.977C194.867 217.477 195.449 216.999 195.761 216.394C196.414 215.141 198.321 213.374 199.67 213.124C203.687 212.371 205.683 209.545 206.877 205.9C207.036 205.417 206.899 204.856 207.046 204.368C207.435 203.076 207.74 201.719 208.371 200.54C210.163 197.191 211.388 193.754 211.924 189.996C212.45 186.288 213.176 182.575 215.088 179.141C216.58 176.458 217.8 173.622 219.049 170.814C219.355 170.125 219.312 169.29 219.404 168.52C219.631 166.637 220.078 164.795 221.071 163.147C221.663 162.166 222.215 161.258 222.114 160.085C222.091 159.82 222.305 159.52 222.527 158.921C223.233 162.367 223.305 165.512 223.303 168.714C223.301 171.135 222.816 173.387 222.072 175.634C221.733 176.664 221.068 177.613 220.478 178.558C219.34 180.375 219.119 182.481 218.375 184.422C217.67 186.256 217.386 188.236 216.654 190.058C215.374 193.254 215.593 196.392 215.932 199.611C216.082 201.046 215.733 202.571 215.559 204.051C215.335 205.958 214.935 207.857 214.826 209.763C214.644 212.943 214.514 216.145 215.623 219.28C216.347 219.159 217.019 219.049 217.698 218.935C218.469 217.23 219.161 215.53 219.991 213.898C220.814 212.283 221.584 210.652 222.27 208.978C222.404 208.646 222.749 208.375 223.035 208.121C224.089 207.185 225.205 206.317 226.208 205.333C227.72 203.857 228.481 201.937 229.098 199.994C229.726 198.013 230.325 196.007 230.715 193.98C231.299 190.918 231.196 187.921 229.59 185.24C228.384 183.222 227.338 181.107 226.104 179.103C225.276 177.751 224.962 176.053 224.461 174.492C224.351 174.151 224.379 173.73 224.446 173.357C225.083 169.809 225.029 166.275 224.757 162.758C224.638 161.225 224.379 159.699 224.043 158.211C223.616 156.316 223.369 154.429 223.85 152.468C224.002 151.848 224.151 151.218 224.403 150.633C225.284 148.559 225.894 146.47 226.028 144.21C226.141 142.293 226.632 140.377 226.956 138.46C227.094 138.437 227.23 138.417 227.366 138.396C227.497 138.873 227.817 139.384 227.72 139.822C227.425 141.175 227.978 142.291 228.545 143.281C230.318 146.371 231.184 149.785 232.17 153.214C233.343 157.306 233.084 161.422 232.841 165.606C232.714 167.781 232.321 169.991 233.329 172.074C233.686 172.812 233.6 173.821 233.613 174.717C233.636 177.156 233.625 179.598 233.58 182.044C233.572 182.476 233.237 182.913 233.219 183.346C233.177 184.375 233.21 185.403 233.259 186.428C233.278 186.872 233.565 187.332 233.479 187.74C233.072 189.634 233.734 191.305 234.131 193.042C234.342 193.967 234.717 194.767 235.153 195.616C236.965 199.153 239.036 202.61 239.631 206.712C239.856 208.246 239.858 209.825 240.09 211.354C240.168 211.864 240.649 212.293 240.915 212.711C242.601 211.847 243.019 210.531 243.417 209.08C244.107 206.567 244.736 204.055 245.298 201.513C245.945 198.568 244.901 196.281 244.138 193.811C243.147 190.592 242.659 187.393 243.055 183.857C243.481 180.048 243.637 176.098 241.978 172.522C242.104 169.433 240.009 167.563 238.454 165.409C237.731 164.407 236.844 163.529 236.071 162.562C235.131 161.385 235.002 159.886 234.754 158.433C234.235 155.402 233.704 152.378 233.106 149.365C232.975 148.695 232.635 148.042 232.252 147.481C231.111 145.825 231.152 143.56 229.732 142.058C229.648 141.969 229.573 141.847 229.55 141.728C229.028 138.808 228.012 136.002 229.057 132.84C229.946 130.134 230.342 127.289 231.15 124.557C231.74 122.56 232.449 120.54 233.449 118.716C235.03 115.831 236.661 112.983 237.655 109.852C238.698 106.553 239.657 103.227 240.603 99.8984C241.231 97.6986 241.847 95.4862 242.321 93.2529C242.587 91.9918 242.504 90.6778 242.658 89.3906C242.889 87.4693 243.106 85.5378 243.482 83.6366C243.971 81.1691 244.604 78.7242 245.192 76.2726C245.971 73.0176 246.304 69.7335 246.506 66.4288C246.731 62.7781 247.573 59.2078 248.945 55.7765C249.296 54.8948 250.175 54.0528 251.005 53.5189C255.231 50.802 259.603 48.3281 263.759 45.5113C267.551 42.9438 271.134 40.0451 274.812 37.2964C276.024 36.3935 277.289 35.5595 278.47 34.6112C280.561 32.9234 282.643 31.2139 284.666 29.4387C288.729 25.8703 293.151 22.8331 297.687 19.9853C298.988 19.1701 300.505 18.7485 301.905 18.1001C305.465 16.4496 308.753 14.335 311.725 11.6901C312.3 11.1796 312.748 10.6709 312.503 9.76652C311.543 9.69976 310.812 10.3556 310.205 10.921C307.601 13.3416 304.539 15.0072 301.423 16.4257C297.846 18.0601 294.486 20.0433 291.192 22.1909C289.897 23.0368 288.632 23.9304 287.304 24.7293C289.247 21.752 291.892 19.5616 294.752 17.6189C295.831 16.8866 296.985 16.2809 298.083 15.5772C298.718 15.1681 299.585 14.9481 299.614 13.9427L299.633 13.9796ZM217.003 71.1067C216.315 72.1793 215.188 71.778 214.213 71.8245C215.157 71.5968 216.099 71.3674 217.041 71.1422C217.519 70.3416 218.278 70.2538 219.118 70.4402C218.413 70.6623 217.708 70.8845 217.003 71.1067ZM132.73 129.787C132.837 128.767 133.516 128.095 134.881 127.701C134.617 128.926 133.419 129.081 132.724 129.767C132.156 130.059 131.586 130.354 130.811 130.755C131.312 129.67 131.92 129.482 132.73 129.787ZM171.077 77.6189C171.568 77.6099 172.149 77.2404 172.73 78.1494C171.959 77.9801 171.382 78.2809 171.109 77.5748C169.171 77.9522 168.794 77.8151 167.865 76.2011C169.055 76.727 170.066 77.1751 171.077 77.6189ZM193.323 85.6562C192.666 87.3707 191.073 87.6277 189.683 88.1959C189.475 88.4845 189.323 88.8562 189.052 89.0459C188.154 89.6812 187.059 90.1 186.311 90.8715C184.466 92.7777 182.175 93.8204 179.894 94.9081C179.152 95.258 178.362 95.4936 177.592 95.7808C177.532 95.6538 177.47 95.525 177.41 95.3979C178.485 94.6706 179.561 93.9433 180.639 93.2135C179.402 93.4904 178.334 94.1143 177.219 94.6047C175.993 95.1429 174.72 95.5558 173.471 96.0239C172.723 97.1352 171.455 97.2267 170.419 97.7684C171.38 97.0621 172.179 96.0222 173.508 96.0619C173.746 95.7953 173.937 95.4484 174.22 95.2756C176.874 93.6421 179.524 92.0029 182.214 90.4373C184.779 88.9431 186.914 86.6123 189.98 86.0819C190.082 85.2884 189.767 84.9022 189.116 84.7981C187.566 84.5547 186.001 84.3606 184.456 84.0907C183.458 83.9164 182.485 83.6356 181.5 83.4035C181.542 83.2452 181.583 83.091 181.625 82.9327C185.264 83.5631 188.906 84.1952 192.849 84.8784C191.457 85.8907 190.372 86.8109 189.172 87.5227C187.49 88.5221 185.718 89.3533 184 90.2766C182.983 90.8211 182.149 91.5977 181.012 92.657C181.748 92.5332 182.098 92.5712 182.342 92.4183C183.772 91.5285 185.15 90.54 186.602 89.6929C187.593 89.1148 188.68 88.7083 189.727 88.2282C190.685 86.9957 192.015 86.3303 193.36 85.6875C193.974 84.8132 194.471 83.8008 195.69 83.6164C195.233 84.685 194.447 85.3681 193.323 85.6562ZM246.666 55.8467C246.934 56.3646 246.342 56.598 246.275 56.8843C246.158 57.3726 246.505 57.9442 246.63 58.4884C246.647 58.5807 246.485 58.7144 246.46 58.8357C245.988 61.1685 245.244 63.502 245.121 65.8346C244.933 69.5232 244.603 73.157 243.516 76.7783C242.782 75.6088 242.52 74.4803 242.697 73.1612C243.01 70.8512 243.526 68.5359 243.608 66.2298C243.706 63.5048 244.598 60.9934 245.341 58.418C245.492 57.8913 245.548 57.3356 245.638 56.8434C243.667 56.1099 242.141 57.461 240.349 57.7989C241.435 56.1652 244.683 54.1386 246.472 53.8289C246.545 54.5055 246.619 55.1822 246.702 55.8656C246.874 54.9997 247.045 54.1362 247.234 53.1885C249.69 51.5531 252.294 49.8839 255.214 48.8686C253.597 50.0855 251.873 51.0991 250.224 52.2325C249.141 52.9804 247.771 53.5407 247.671 55.2299C247.659 55.436 247.017 55.6403 246.666 55.8467ZM146.556 117.388L146.602 117.422C146.475 117.445 146.291 117.423 146.235 117.499C144.54 119.697 142.41 121.424 140.34 123.218C139.662 123.807 138.985 124.219 137.82 124.141C138.49 123.486 138.962 123.055 139.404 122.595C143.172 118.647 146.928 114.691 150.708 110.756C151.385 110.053 152.133 109.413 152.882 108.79C154.651 107.322 156.412 105.837 158.238 104.442C159.441 103.521 160.715 102.675 162.023 101.933C163.377 101.161 164.817 100.573 166.208 99.8732C167.293 99.3267 168.359 98.735 169.435 98.1626C169.505 98.3007 169.574 98.4387 169.644 98.5767C167.803 99.6519 165.888 100.615 164.139 101.837C162.273 103.14 160.622 104.773 158.771 106.105C155.631 108.362 154.796 109.077 154.129 110.675C156.226 109.498 157.452 107.231 159.843 106.514C158.676 108.914 148.556 117.984 145.901 119.13C146.108 118.576 146.331 117.981 146.556 117.388ZM73.6074 127.218C71.8372 125.692 69.4562 125.401 67.4466 124.337C65.7299 123.427 63.6904 123.496 61.7146 123.653C59.7305 123.812 57.851 123.643 55.9519 123.011C54.4871 122.521 53.075 121.964 51.6498 121.385C49.1738 120.379 47.1802 118.749 45.1227 117.163C44.8738 116.973 44.7155 116.664 44.4389 116.318C46.0157 116.185 47.3977 116.059 48.7813 115.947C49.6085 115.879 50.4371 115.755 51.2586 115.777C53.5368 115.834 55.8053 116.016 58.0884 116.028C59.188 116.035 60.3374 115.562 61.4108 115.663C64.3371 115.94 67.121 115.357 69.8375 114.148C70.9622 113.645 71.9721 113.862 72.9529 114.336C73.5064 114.607 74.0234 114.956 74.538 115.304C76.0773 116.343 77.4898 117.633 79.1597 118.403C82.3048 119.847 84.7331 122.181 87.2218 124.442C89.3669 126.395 91.2801 128.614 94.1969 129.831C90.3297 130.691 86.7078 130.609 83.1323 130.105C80.4714 129.729 77.8182 129.211 75.3967 128C74.791 127.698 74.1598 127.446 73.5338 127.168C73.2352 127.866 73.7504 128.116 74.1744 128.344C77.8234 130.321 81.9256 130.846 85.9991 131.293C87.7803 131.483 89.673 130.978 91.5145 130.79C92.1716 130.726 92.8749 130.457 93.562 131.177C92.5598 131.614 91.6684 131.911 90.8645 132.37C87.6182 134.229 84.1634 135.036 80.5669 135.041C79.3253 135.043 78.0998 134.683 76.8592 134.693C73.6409 134.726 70.7624 133.462 67.7516 132.742C66.6563 132.482 65.6266 132.19 64.4712 132.191C62.3368 132.19 60.1952 132.131 58.0832 131.92C56.9174 131.804 55.6047 131.606 54.7041 130.964C52.1424 129.132 49.0499 127.941 47.3154 125.041C46.3795 123.471 45.4084 121.939 45.1069 120.054C45.0221 119.523 44.8208 119.021 44.5968 118.234C45.4933 118.809 46.284 119.193 46.9276 119.749C48.7405 121.314 50.9765 122.166 53.1034 123.09C56.1398 124.406 59.4372 124.891 62.9042 124.504C64.789 124.291 66.616 124.919 68.3181 125.761C69.968 126.573 71.6215 127.447 73.6074 127.218ZM67.9227 202.535C69.4239 200.64 70.9581 198.774 72.413 196.846C73.9112 194.858 75.388 192.852 76.7639 190.779C78.1164 188.737 79.3227 186.604 80.5952 184.511C80.7564 185.166 80.6701 185.725 80.5341 186.274C79.6819 189.717 79.0491 193.215 79.1735 196.691C79.3129 200.73 77.9929 204.135 75.5496 207.342C74.7413 208.409 74.0866 209.713 73.7594 210.994C73.3756 212.497 72.4927 213.675 71.7531 214.94C70.3361 217.361 68.7959 219.721 67.2425 222.06C66.0171 223.904 65.12 226.019 63.1418 227.378C62.4998 227.005 61.8759 226.641 61.3267 226.321C61.1884 224.461 62.446 222.758 61.6518 220.616C61.4379 221.402 61.3241 221.824 61.2102 222.246C60.9447 223.244 60.7561 224.268 60.3961 225.234C59.8462 226.721 58.8993 227.147 57.7899 226.264C56.9379 225.59 55.8476 224.623 55.7794 223.667C55.6328 221.673 54.9178 219.763 55.2734 217.677C55.7491 214.897 56.7387 212.306 58.0469 209.806C58.5008 208.936 58.9943 208.079 59.3596 207.173C60.0654 205.416 60.6116 203.594 61.3727 201.858C62.3997 199.518 63.7902 197.24 65.6147 195.576C68.8885 192.582 72.542 190.019 76.0609 187.304C76.9097 186.648 77.8376 186.102 78.7317 185.506C78.7825 186.034 78.6262 186.3 78.467 186.561C77.4761 188.192 76.5061 189.838 75.4787 191.447C74.7771 192.543 74.101 193.692 73.2198 194.63C71.0436 196.954 68.734 199.153 67.9227 202.535ZM74.7925 162.918C74.6791 163.378 74.6767 163.833 74.4689 164.159C72.2659 167.641 69.5552 170.44 65.4315 171.42C64.0683 171.748 62.7167 172.22 61.4101 172.766C58.9464 173.792 56.4961 174.789 53.822 174.883C53.1369 174.908 52.4395 175.173 51.7647 175.384C50.1823 175.879 48.5445 176.114 46.9848 175.894C43.5086 175.41 40.1797 174.434 37.0681 172.817C36.0378 172.284 34.8746 171.916 33.588 172.217C33.1684 172.313 32.6991 172.127 31.9995 172.036C32.9572 171.528 33.6245 171.172 34.3137 170.806C33.8797 169.888 33.3444 170.306 32.8536 170.591C31.3533 171.46 31.3562 171.466 30.0741 171.328C32.7682 168.615 35.7585 166.678 39.3465 165.655C41.2451 165.113 43.061 164.295 44.6774 162.87C45.9735 161.731 47.6311 160.774 49.2565 160.337C52.382 159.488 55.4788 158.392 58.8337 159.391C62.4091 160.453 66.1256 161.076 69.481 163.181C68.2976 163.38 67.2516 163.533 66.2112 163.731C65.7159 163.828 65.2305 164.004 64.7438 164.152C62.6111 164.809 60.4978 165.571 58.3427 166.099C56.5303 166.538 54.6931 166.608 52.826 166.438C50.795 166.252 48.7065 166.485 46.6513 166.444C45.5015 166.423 44.3535 166.025 43.2212 166.145C41.9727 166.278 40.7448 166.814 39.5077 167.174C39.2597 167.245 39.005 167.295 38.7614 167.384C37.1299 167.976 35.7491 168.958 34.63 170.371C35.3673 170.172 36.0315 169.826 36.6713 169.435C38.8791 168.079 41.2348 167.098 43.7548 167.069C46.9597 167.029 50.1567 167.282 53.3595 167.327C54.9701 167.347 56.6206 167.401 58.1978 167.068C61.4983 166.374 64.7966 165.561 68.0267 164.521C69.1849 164.152 70.3207 163.858 71.4933 163.673C72.1169 163.576 72.7558 163.619 73.375 163.504C73.7967 163.424 74.1967 163.171 74.7925 162.918ZM74.8587 93.511C74.9838 92.9764 74.9899 92.5846 75.1661 92.2912C77.046 89.1578 78.7861 85.9331 81.0379 83.0311C81.3555 82.6227 81.5921 82.1209 81.7522 81.6309C82.6857 78.7913 83.5823 75.9437 84.4965 73.1013C84.5361 72.9794 84.6259 72.8717 84.694 72.7594C86.217 70.2772 88.2224 68.2398 90.8649 67.1796C93.3008 66.2017 95.8639 65.5021 98.4131 64.9621C102.505 64.102 106.071 62.2511 109.091 59.2533C110.407 57.9512 111.859 56.9152 113.623 55.8966C113.666 57.8528 113.454 59.6369 112.328 61.0444C110.528 63.3011 108.504 65.3738 106.574 67.5269C105.404 68.8341 104.541 70.2192 105.083 72.048C105.196 72.4329 105.202 73.0072 104.998 73.329C104.215 74.5614 103.178 75.6002 101.774 75.9925C99.6852 76.58 97.4608 76.5999 95.5444 77.9139C95.3487 78.0495 95.0484 78.0215 94.7976 78.0864C91.1754 78.9859 87.5228 79.9461 84.4368 82.2658C81.7611 84.2792 79.4982 86.7691 77.7441 89.7119C76.9795 90.996 76.5933 92.6144 74.8587 93.511ZM227.787 125.598C227.505 127.172 227.514 127.179 226.796 127.822C225.811 128.698 224.83 129.582 223.819 130.425C221.268 132.556 219.829 135.341 218.855 138.435C218.411 139.845 217.761 141.197 217.334 142.609C216.887 144.077 215.752 144.938 214.822 146.025C212.835 148.344 211.029 150.751 209.634 153.572C208.403 156.069 206.953 158.476 206.048 161.122C205.524 162.642 205.047 164.199 204.77 165.765C204.657 166.395 204.412 166.706 203.99 166.989C202.684 167.864 201.129 168.356 200.139 169.724C200.069 169.82 199.786 169.763 199.444 169.787C198.699 167.535 198.451 165.236 198.869 162.803C199.744 157.693 201.807 152.898 203.405 147.988C204.463 144.741 206.325 141.821 208.86 139.441C210.858 137.564 213.354 136.286 215.063 134.05C215.101 133.999 215.165 133.97 215.22 133.928C218.244 131.567 221.471 129.516 224.632 127.361C225.531 126.749 226.527 126.296 227.787 125.598ZM172.564 128.908C174.468 128.286 176.163 128.006 177.867 128.201C180.337 128.482 182.623 129.368 185.281 129.175C187.878 128.988 190.174 128.424 192.388 127.049C192.986 126.677 193.571 126.219 194.216 126.006C196.834 125.139 199.47 124.335 202.111 123.545C203.395 123.159 204.712 122.9 205.998 122.508C208.228 121.824 210.13 120.458 212.008 119.074C213.429 118.027 214.821 116.932 216.213 115.837C216.838 115.344 217.43 114.805 218.349 114.02C218.226 116.94 217.453 119.377 216.294 121.421C214.437 124.699 211.474 126.981 208.031 128.574C205.286 129.842 202.621 131.321 199.922 132.705C198.656 133.353 197.438 134.312 196.116 134.594C191.044 135.682 186.131 135.295 181.465 133.246C179.751 132.494 177.952 131.92 176.233 131.179C174.996 130.644 173.681 130.192 172.564 128.908ZM97.5538 48.6845C97.5505 48.8104 97.549 48.9338 97.5452 49.0555C95.9308 49.3271 94.3105 49.5678 92.7021 49.8701C91.3342 50.1264 89.9352 50.3182 88.6219 50.7768C86.8145 51.4085 85.0541 52.2673 83.3077 53.0343C81.6556 53.765 80.0053 54.3913 78.2976 54.8434C76.7019 55.2644 75.1366 55.4059 73.4313 55.1314C70.3897 54.6381 67.217 53.9203 64.1577 55.7765C63.3337 56.2773 62.525 56.8157 61.6689 57.2439C60.2381 57.9597 58.7588 58.387 56.9071 57.8313C57.7722 56.3908 58.4521 55.0521 59.3283 53.8537C60.2573 52.5884 61.36 51.4506 62.4024 50.2686C64.1753 48.2567 66.2156 46.7204 68.7843 45.8966C70.4789 45.3556 72.1445 45.2085 73.8702 45.0376C78.5256 44.5758 82.9263 45.6744 87.3897 46.3285C90.5965 46.7959 93.6273 48.0662 96.8848 48.416C97.1195 48.4411 97.332 48.5934 97.5538 48.6845ZM154.344 22.6173C154.459 22.5814 154.576 22.5495 154.689 22.516C155.183 23.29 155.609 24.1273 156.183 24.8315C158.295 27.4163 159.066 30.4881 159.079 33.8639C159.095 37.7212 158.687 41.5731 159.248 45.4348C159.844 49.5407 159.609 53.7985 160.42 57.9034C160.585 58.7417 160.471 59.7711 160.151 60.5896C158.621 64.4894 157.071 68.3971 154.687 71.9114C154.017 72.9023 153.362 73.9051 152.545 75.1352C152.256 74.0817 151.889 73.3631 151.884 72.6231C151.86 70.2322 151.914 67.8337 152.048 65.4416C152.1 64.4872 152.358 63.5102 152.671 62.5888C153.301 60.7305 153.965 58.8786 154.737 57.0709C155.412 55.476 155.555 53.8978 155.17 52.3056C154.829 50.9006 154.381 49.5259 153.967 48.1428C153.767 47.4828 153.509 46.8441 153.317 46.1827C153.199 45.7712 153.118 45.338 153.076 44.9039C153.004 44.1377 152.953 43.3637 152.936 42.5895C152.915 41.5211 152.885 40.45 152.95 39.3807C153.039 37.9738 153.345 36.5568 153.309 35.1642C153.281 34.1437 153.48 33.2708 154.065 32.4738C154.712 31.5976 154.754 30.6812 154.688 29.6782C154.534 27.3305 154.455 24.9709 154.344 22.6173ZM154.278 16.2212C154.815 16.5924 154.536 17.0744 154.287 17.5446C153.999 18.0919 153.655 18.6133 153.421 19.1806C152.917 20.3958 153.331 21.5412 153.443 22.748C153.702 25.4822 153.644 28.2659 153.68 31.0324C153.683 31.397 153.565 31.8348 153.352 32.1349C152.264 33.6798 152.227 35.3512 152.286 37.1006C152.323 38.1618 152.083 39.2569 151.906 40.3274C151.554 42.4279 152.307 44.3543 152.453 46.3787C152.458 46.4352 152.521 46.4852 152.54 46.5477C152.778 47.3302 153.01 48.1158 153.245 48.9032C153.443 49.5698 153.578 50.265 153.856 50.8916C154.319 51.926 154.37 53.0165 154.344 54.1487C154.292 56.5406 153.541 58.7969 152.475 60.909C151.169 63.498 151.006 66.148 151.064 68.8701C151.078 69.5449 151.043 70.2245 151.032 70.9037C150.627 69.1114 150.006 67.2521 150.333 65.5257C150.896 62.5309 149.853 60.0142 148.977 57.503C147.962 54.5883 147.106 51.6914 146.898 48.5613C146.831 47.5459 146.549 46.5612 146.407 45.551C145.994 42.6326 145.529 39.7214 145.226 36.7851C144.923 33.872 146.25 31.1898 147.103 28.4606C147.765 26.3501 148.56 24.262 149.837 22.4107C151.255 20.3491 152.75 18.3412 154.278 16.2212ZM145.469 84.0398C144.508 86.0478 143.635 88.1311 141.641 89.3998C141.159 89.7065 140.729 90.1907 140.413 90.6795C139.567 92.006 138.768 93.3665 138.004 94.7418C137.029 96.4869 135.973 98.2702 134.115 99.0385C131.695 100.043 129.648 101.672 127.383 102.912C125.44 103.976 123.449 105.216 121.369 105.652C118.977 106.152 116.424 106.387 114.028 105.504C113.338 105.25 112.54 105.094 111.804 105.169C109.287 105.432 106.874 105.078 104.473 104.547C103.976 104.438 103.48 104.327 102.985 104.22C103.845 103.757 104.652 103.609 105.46 103.494C107.767 103.157 110.084 102.895 112.384 102.482C113.275 102.321 114.127 101.573 115 101.53C116.553 101.448 117.632 100.629 118.695 99.6279C120.211 98.1937 121.603 96.555 123.296 95.3901C126.562 93.1417 129.882 90.949 133.806 90.041C135.538 89.6441 137.286 89.0105 138.869 88.1608C141.144 86.9405 143.275 85.4258 145.469 84.0398ZM172.057 127.724C171.932 126.531 172.007 126.133 172.711 125.955C174.319 125.547 175.945 125.235 177.57 124.915C178.067 124.815 178.603 124.907 179.084 124.761C182.18 123.816 184.905 122.235 187.004 119.59C187.496 118.974 188.01 118.268 188.665 117.919C189.607 117.414 190.691 116.942 191.699 116.924C192.932 116.9 194.17 117.281 195.36 117.622C200.337 119.061 204.824 118.276 208.834 114.31C210.02 113.131 211.534 112.356 213.356 112.339C215.316 112.321 217.29 111.933 219.287 111.704C219.173 111.888 219.053 112.211 218.832 112.43C217.216 114.029 215.657 115.677 213.664 116.848C212.147 117.739 210.814 118.987 209.286 119.854C206.494 121.434 203.529 122.511 200.412 123.139C197.679 123.692 194.984 124.483 192.58 126.107C191.167 127.066 189.718 127.806 187.985 127.828C186.513 127.846 185.033 128.148 183.562 128.167C182.661 128.18 181.731 128.011 180.89 127.718C179.808 127.339 177.811 126.854 176.794 126.938C175.59 127.035 174.38 127.09 173.175 127.236C172.783 127.284 172.406 127.565 172.057 127.724ZM149.506 146.42C147.164 145.693 147.301 144.156 147.74 142.418C147.973 141.494 147.854 140.501 148.04 139.562C148.244 138.523 148.618 137.507 148.965 136.312C149.889 137.583 150.55 138.658 151.369 139.587C152.511 140.886 153.695 142.167 155.001 143.291C157.491 145.444 157.002 150.459 155.453 153.055C153.639 156.093 152.232 159.166 153.415 162.778C153.847 164.103 153.636 165.676 153.706 167.139C153.721 167.449 153.758 167.792 153.645 168.072C152.665 170.553 151.643 173.022 150.652 175.498C150.416 176.087 150.243 176.696 149.933 177.619C148.938 176.41 148.088 175.461 147.349 174.428C147.049 174.008 146.891 173.412 146.855 172.873C146.797 171.977 146.791 171.052 146.938 170.163C147.253 168.229 147.356 166.327 147.074 164.41C146.994 163.868 147.176 163.266 147.26 162.694C147.335 162.19 147.473 161.691 147.522 161.188C147.681 159.64 147.805 158.093 147.952 156.548C148.17 154.187 148.704 151.839 148.218 149.467C148.019 148.51 148.235 147.434 149.506 146.42ZM175.501 225.537C175.451 225.455 175.396 225.369 175.346 225.287C177.048 223.853 178.731 222.391 180.455 220.988C182.76 219.121 184.785 216.951 186.558 214.604C187.896 212.835 188.748 210.713 189.954 208.832C190.929 207.31 191.964 205.764 193.237 204.502C194.855 202.894 196.726 201.546 198.511 200.113C200.321 198.664 201.028 196.53 201.994 194.579C202.339 193.881 202.58 193.212 203.155 192.608C204.896 190.777 206.535 188.844 208.211 186.95C208.543 187.726 208.623 188.365 208.489 188.969C208.167 190.427 207.747 191.869 207.36 193.318C206.186 197.728 203.999 201.644 201.17 205.22C198.818 208.192 196.3 211.034 194.634 214.498C193.672 216.498 192.115 217.967 190.118 218.896C188.532 219.634 186.927 220.324 185.337 221.048C182.056 222.541 178.78 224.042 175.501 225.537ZM209.062 184.733C208.837 185.103 208.77 185.3 208.639 185.411C207.504 186.359 206.217 187.165 205.244 188.258C203.418 190.303 201.704 192.479 200.667 195.05C199.979 196.76 199.151 198.349 197.758 199.586C196.542 200.664 195.365 201.807 194.057 202.753C190.919 205.023 189.198 208.356 187.241 211.527C186.316 213.026 185.464 214.612 184.314 215.922C182.82 217.622 181.128 219.165 179.39 220.614C178.782 221.122 178.312 222.166 177.177 221.963C177.223 221.702 177.192 221.472 177.296 221.345C178.531 219.798 179.178 218.009 179.505 216.128C179.816 214.315 180.405 212.63 181.341 211.019C182.224 209.501 183.277 208.319 184.976 207.699C186.32 207.209 187.603 206.34 188.084 204.893C188.594 203.358 189.111 201.718 189.086 200.164C189.057 198.165 189.821 196.624 190.992 195.151C192.015 193.864 193.082 192.614 194.159 191.37C194.63 190.826 195.09 190.185 195.688 189.847C198.224 188.411 200.638 186.673 203.55 186.09C205.33 185.733 207.09 185.225 209.062 184.733ZM109.719 170.815C109.84 170.903 109.96 170.992 110.083 171.082C110.052 171.255 110.052 171.44 109.983 171.597C109.196 173.397 108.243 175.151 107.642 177.004C106.994 179.003 106.436 180.953 104.877 182.533C104.286 183.133 104.211 184.274 103.607 184.854C102.268 186.135 101.959 187.803 101.453 189.386C100.829 191.328 100.364 193.315 99.8191 195.281C99.176 197.594 98.071 199.697 96.9043 201.81C96.0811 203.3 95.2809 205.094 95.3207 206.686C95.3768 208.935 94.2525 210.966 94.3496 213.155C94.3586 213.38 93.9975 213.658 93.7814 213.885C92.2721 215.494 90.1875 215.741 88.2764 216.674C88.2313 216.26 88.1105 215.982 88.1954 215.784C88.7559 214.467 89.3386 213.159 89.9591 211.867C91.3613 208.972 91.9808 205.977 91.8405 202.814C91.7735 201.274 91.805 199.663 92.1566 198.155C92.7906 195.446 93.6147 192.76 94.5349 190.119C95.02 188.72 95.7485 187.349 96.5908 186.114C97.6668 184.542 98.9451 183.107 100.174 181.642C102.259 179.151 104.354 176.662 106.487 174.208C107.511 173.032 108.639 171.942 109.719 170.815ZM103.448 46.2978C102.061 45.721 100.652 45.0567 99.187 44.5472C95.1165 43.125 91.8996 40.5594 89.2246 37.2558C87.6589 35.3251 87.2939 32.8947 86.9277 30.4709C86.5226 27.8186 85.9781 25.2299 84.1766 23.1639C83.4527 22.3342 82.8736 21.3656 82.2805 20.4208C79.9546 16.7243 79.5619 12.4092 78.9185 7.66856C79.837 8.60704 80.5117 9.15901 81.0177 9.84372C81.8536 10.982 82.9472 11.6868 84.1173 12.4477C85.8619 13.5813 87.3977 15.1353 87.8367 17.4163C88.016 18.3518 87.8889 19.4133 88.2529 20.2428C89.487 23.0623 89.7863 26.2181 91.4523 28.9395C92.7488 31.0574 94.289 32.8336 95.9888 34.5042C97.8586 36.3411 99.7467 38.1387 100.902 40.5606C101.783 42.4148 102.573 44.3194 103.448 46.2978ZM101.719 103.196C103.948 100.927 106.214 98.7972 107.966 96.1775C109.182 94.3607 110.467 92.5759 112.894 92.3833C113.181 92.3605 113.456 92.0682 113.744 91.9136C115.281 91.0872 116.779 90.1448 118.375 89.4711C120.568 88.5417 122.827 87.7808 125.078 87.0215C125.789 86.7812 126.566 86.654 127.303 86.6702C129.693 86.7263 132.076 86.9704 134.469 86.9495C135.774 86.9382 137.168 86.7537 138.391 86.2669C140.124 85.5767 141.73 84.5253 143.4 83.6491C143.683 83.502 144.002 83.4458 144.307 83.3454C141.333 85.8146 138.212 87.905 134.551 88.9537C132.27 89.6039 130.016 90.3682 127.757 91.1058C127.462 91.2022 127.183 91.4207 126.932 91.6323C125.025 93.2291 123.134 94.8443 121.227 96.437C119.787 97.6406 118.452 99.0798 116.85 99.9523C114.618 101.167 112.239 101.911 109.621 101.967C107.041 102.02 104.437 102.746 101.719 103.196ZM111.473 170.363C111.65 170.432 111.827 170.502 112.004 170.572C112.232 172.675 112.479 174.77 112.673 176.875C112.747 177.638 112.879 178.463 112.681 179.19C112.206 180.939 111.535 182.639 110.982 184.373C110.684 185.298 110.357 186.239 110.239 187.186C109.736 191.191 108.183 194.681 105.214 197.555C103.391 199.319 102.041 201.26 102.049 203.964C102.049 205.24 101.811 206.681 100.849 207.729C99.4265 209.274 97.9156 210.734 96.4037 212.187C96.1313 212.451 95.6672 212.51 95.094 212.743C95.285 212.094 95.3608 211.704 95.5146 211.349C96.2284 209.707 96.5977 208.053 96.5748 206.259C96.5637 205.221 97.0212 204.107 97.4405 203.094C97.9836 201.772 98.7234 200.527 99.3346 199.228C100.693 196.353 101.515 193.33 102.107 190.247C102.609 187.627 104.141 185.51 105.523 183.298C106.525 181.701 107.709 180.083 108.194 178.33C108.905 175.769 110.355 173.557 111.211 171.095C111.296 170.848 111.384 170.606 111.473 170.363ZM101.338 49.1419C101.381 49.2488 101.424 49.3557 101.466 49.4625C100.196 50.8582 99.1118 52.5531 97.605 53.5716C96.0032 54.6562 94.4233 55.7983 92.7957 56.8452C91.4818 57.6882 90.0782 58.3183 88.4754 58.3945C86.8474 58.471 85.1978 58.645 83.5909 58.9937C82.0375 59.3327 80.5321 59.9559 79.0027 60.437C77.771 60.8233 76.5312 61.1623 75.3062 61.5687C74.1619 61.9476 73.1103 62.6663 71.8187 62.0274C71.2762 61.7613 70.4481 62.0591 69.7514 62.0759C69.3151 62.0877 68.832 62.1632 68.4535 62.0136C66.6835 61.3029 64.6391 61.2814 63.0998 59.9361C62.5563 59.4578 61.7047 59.3458 60.7375 58.9641C63.1717 57.634 65.1894 55.8131 67.8542 55.6788C69.5 55.5926 71.1805 55.6339 72.7778 55.9196C76.6801 56.6146 80.2897 55.5284 83.8584 53.8425C85.4433 53.0965 87.0109 52.1604 88.6667 51.7645C92.8665 50.7531 97.1129 49.9987 101.338 49.1419ZM114.454 53.6534C114.086 54.0625 113.791 54.6536 113.343 54.8499C111.128 55.8236 109.589 57.6717 107.824 59.2214C105.884 60.9219 103.853 62.4948 101.413 63.2697C98.8354 64.0908 96.2131 64.7546 93.6081 65.4725C92.2734 65.8437 90.8958 66.055 89.6595 66.7777C86.8098 68.4406 84.6575 70.7022 83.5641 73.915C82.9777 75.6507 82.1993 77.3323 81.6258 79.0699C80.8486 81.4392 80.0406 83.7632 78.1627 85.5735C77.9029 85.8205 77.8881 86.3116 77.6831 86.6442C77.4404 87.0282 77.1111 87.3602 76.8207 87.7168C76.708 87.6567 76.593 87.595 76.4803 87.5349C76.625 86.9203 76.806 86.3097 76.908 85.6901C77.1959 83.958 77.716 82.1962 77.6435 80.4938C77.5695 78.8129 77.5619 77.192 77.8069 75.5038C78.2111 72.6909 79.035 70.1559 81.2057 68.0926C83.6605 65.7586 86.1154 63.3907 89.355 62.3764C91.9181 61.5749 94.5656 61.1146 97.1807 60.5286C99.8199 59.934 102.478 59.44 104.684 57.5463C105.474 56.8692 106.392 56.351 107.199 55.6941C109.322 53.9729 111.924 54.2534 114.454 53.6534ZM205.706 166.554C206.199 164.829 206.581 163.324 207.063 161.852C207.59 160.25 208.14 158.646 208.813 157.098C209.362 155.841 210.208 154.703 210.742 153.442C211.499 151.658 212.53 150.075 213.831 148.657C216.441 145.81 218.503 142.735 219.472 138.891C220.172 136.122 221.561 133.526 223.841 131.547C224.301 131.148 224.607 130.566 225.036 130.122C225.779 129.358 226.485 128.484 227.969 128.351C227.393 130.237 227.255 132.163 226.298 133.506C224.241 136.4 223.56 139.478 223.23 142.835C223.038 144.792 222.325 146.797 220.902 148.391C219.594 149.857 218.232 151.28 216.924 152.746C214.883 155.045 213.017 157.445 211.816 160.334C211.166 161.89 210.311 163.414 209.315 164.78C208.572 165.797 207.55 166.757 205.706 166.554ZM102.529 140.45C101.73 142.785 100.83 144.672 99.6433 146.42C99.3661 146.831 98.8647 147.116 98.4241 147.381C95.7025 149.025 92.666 149.641 89.6913 150.28C87.5979 150.728 85.3964 150.95 83.298 150.493C82.3373 150.282 81.679 150.591 81.0807 151.265C80.0974 152.381 78.9404 153.098 77.4904 153.32C77.0484 153.388 76.604 153.843 76.2029 153.816C73.6817 153.633 71.1745 153.325 68.6557 153.144C67.0227 153.028 65.3697 153.056 63.2719 153.01C64.0917 152.578 64.4673 152.314 64.8789 152.171C68.4316 150.949 71.8422 149.396 75.1382 147.513C78.0442 145.847 81.1644 145.582 84.3796 145.626C88.0824 145.68 91.8058 145.172 95.3629 143.832C97.675 142.959 99.8703 141.722 102.529 140.45ZM102.216 139.406C101.878 139.75 101.738 139.983 101.54 140.079C99.8989 140.867 98.2119 141.553 96.6126 142.421C95.1394 143.219 93.604 143.499 92.0198 143.793C88.5097 144.442 85.0061 144.772 81.4783 144.703C80.4358 144.681 79.277 144.638 78.3479 145.054C76.3696 145.938 74.378 146.816 72.5182 148.009C71.2356 148.834 69.794 149.462 68.3562 149.935C66.2776 150.62 64.3266 151.588 62.3826 152.595C62.0325 152.776 61.6639 152.909 60.8908 153.244C62.4751 150.882 63.7684 148.907 65.1243 146.977C65.3586 146.644 65.8463 146.402 66.2538 146.293C69.9697 145.3 72.9859 142.944 76.0104 140.655C77.4131 139.594 78.7943 139.106 80.4784 139.244C83.5489 139.495 86.5931 140.043 89.7272 139.721C90.359 139.656 90.9979 139.699 91.629 139.713C94.7757 139.782 97.9072 140.439 101.08 139.399C101.356 139.31 101.678 139.396 102.216 139.406ZM151.766 199.91C151.658 200.058 151.549 200.201 151.441 200.348C149.91 199.778 148.331 199.302 146.86 198.611C145.756 198.091 144.859 197.225 144.297 196.068C143.298 194.011 142.319 191.941 141.252 189.919C140.857 189.169 140.288 188.503 139.718 187.872C138.683 186.728 137.47 185.754 136.868 184.244C136.709 183.848 136.48 183.427 136.158 183.176C133.523 181.109 131.908 178.372 131.09 175.073C130.907 174.332 130.603 173.625 130.42 172.879C130.202 171.991 130.057 171.077 129.84 169.955C133.384 172.172 135.701 174.987 137.083 178.669C137.589 180.018 138.534 181.158 139.83 181.894C141.442 182.805 143.057 183.708 144.645 184.651C145.336 185.06 146.042 185.477 146.613 186.029C148.956 188.295 149.917 191.175 149.629 194.534C149.492 196.124 150.028 197.404 150.921 198.585C151.232 199.001 151.486 199.467 151.766 199.91ZM113.367 20.2185C113.865 20.0106 114.341 19.6284 114.698 19.7055C115.538 19.8877 116.394 20.1771 117.11 20.6304C118.895 21.7565 120.561 23.066 122.359 24.175C124.203 25.3139 126.147 26.3029 128.057 27.3427C128.377 27.5177 128.876 27.5137 129.063 27.7724C130.557 29.8203 132.628 31.5484 133.102 34.2094C133.446 36.1299 134.263 37.7939 134.909 39.5592C135.93 42.354 136.539 45.228 135.762 48.4467C135.275 48.1683 134.782 48.0481 134.559 47.7258C133.64 46.4094 132.179 45.6423 131.513 43.9951C130.85 42.3455 129.461 41.047 128.591 39.4755C127.24 37.0425 126.972 33.9809 124.706 32.0612C124.582 31.9586 124.739 31.5605 124.667 31.3379C124.552 30.9853 124.43 30.5787 124.175 30.3428C123.027 29.2807 121.877 28.2103 120.64 27.2601C119.133 26.1085 117.223 25.5252 116.136 23.7724C115.416 22.6172 114.471 21.6178 113.367 20.2185ZM149.887 179.337C149.814 179.393 149.74 179.444 149.665 179.498C148.604 178.739 147.457 178.073 146.503 177.192C145.559 176.318 144.633 175.332 144.034 174.202C143.568 173.32 143.077 172.654 142.233 172.178C141.269 171.632 140.665 170.823 140.594 169.589C140.425 166.665 140.85 163.765 141.651 160.95C142.51 157.935 143.026 155 142.282 151.978C142.104 151.255 142.218 150.444 142.202 149.67C142.145 146.654 143.4 143.941 144.646 141.267C145.321 139.823 146.382 138.553 147.271 137.201C147.562 137.849 147.587 138.354 147.491 138.839C147.233 140.117 146.922 141.387 146.632 142.661C146.345 143.934 146.242 145.205 146.339 146.496C146.483 148.397 146.535 150.312 146.64 152.218C146.655 152.464 146.71 152.734 146.838 152.934C147.607 154.144 147.894 155.34 146.817 156.666C146.615 156.918 146.606 157.42 146.658 157.776C146.953 159.777 146.602 161.712 145.941 163.646C145.8 164.052 145.694 164.619 145.862 164.943C146.81 166.775 146.189 168.697 146.079 170.62C145.956 172.729 145.541 174.969 147.713 176.462C148.654 177.107 149.176 178.358 149.887 179.337ZM110.052 47.3952C108.187 47.4748 106.623 47.5418 105.489 46.3772C104.673 45.5368 103.944 44.5679 103.374 43.5381C102.68 42.2848 102.354 40.7923 101.581 39.6063C100.633 38.1552 99.3991 36.8985 98.2649 35.579C96.9215 34.0153 95.5234 32.5019 94.2049 30.9188C93.3793 29.9316 92.6062 28.8922 91.8959 27.8159C90.6033 25.848 90.5093 23.3788 89.6456 21.22C89.2306 20.1832 89.1353 18.9924 88.9382 17.8627C88.6999 16.4687 88.529 15.0752 87.3203 14.1388C86.9361 13.8416 86.7325 13.3034 86.2728 12.6187C88.638 13.0042 90.0915 14.3014 91.6539 15.358C92.7295 16.0873 93.2475 17.2412 93.2735 18.6038C93.3316 21.3259 94.751 23.4511 96.1951 25.436C97.3533 27.0335 99.0346 28.2339 100.524 29.565C101.57 30.4992 102.43 31.5419 102.798 32.9482C103.244 34.6567 103.735 36.3528 104.099 38.0847C104.889 41.8537 106.73 44.8849 110.052 47.3952ZM128.449 170.145C128.568 170.119 128.686 170.089 128.803 170.066C129.109 171.275 129.327 172.522 129.742 173.691C130.657 176.284 130.948 179.165 133.062 181.223C134.008 182.148 134.36 183.659 135.727 184.263C135.968 184.372 136.059 184.786 136.241 185.044C136.816 185.863 137.279 186.814 138.006 187.461C140.259 189.47 141.461 192.153 142.754 194.819C143.393 196.129 143.717 197.722 145.245 198.447C146.301 198.951 147.27 199.625 148.279 200.222C146.214 200.239 144.264 200.147 142.539 198.914C140.867 197.72 139.041 196.727 137.225 195.753C135.956 195.074 135.067 194.066 134.469 192.808C133.906 191.618 133.535 190.326 133.043 189.093C132.509 187.754 131.973 186.41 131.361 185.107C130.452 183.176 129.248 181.442 128.668 179.285C127.967 176.69 128.464 174.013 128.06 171.422C127.998 171.037 128.31 170.572 128.449 170.145ZM216.814 212.377C216.746 212.002 216.662 211.763 216.67 211.524C216.754 209.103 217.585 206.704 217.265 204.266C217.226 203.965 217.432 203.626 217.447 203.305C217.539 201.402 217.642 199.5 217.679 197.599C217.714 195.862 217.357 194.072 217.727 192.403C218.556 188.676 219.658 184.99 220.803 181.329C221.17 180.149 221.95 179.053 223.024 178.11C223.176 178.772 223.265 179.272 223.399 179.759C224.404 183.395 224.418 187.085 223.394 190.839C222.708 193.347 222.174 195.842 222.51 198.452C222.839 200.965 221.912 203.156 220.044 205.015C219.415 205.644 218.879 206.462 218.545 207.285C217.895 208.898 217.415 210.576 216.814 212.377ZM112.049 186.051C112.131 186.085 112.217 186.118 112.301 186.149C112.431 187.347 112.684 188.536 112.654 189.737C112.624 191.074 112.39 192.427 112.134 193.756C111.914 194.9 111.655 196.069 111.2 197.146C110.513 198.766 109.671 200.329 108.84 201.889C107.45 204.491 106.06 207.094 104.586 209.65C103.211 212.037 101.44 213.959 98.6988 214.804C96.8259 215.384 94.9822 216.148 93.2031 217.008C91.9956 217.589 90.888 218.433 89.7914 219.247C89.0107 219.825 88.3826 220.631 87.5873 221.176C86.7978 221.717 86.6458 222.866 85.4017 223.051C84.5378 223.179 83.7543 224.057 82.9116 224.559C82.6042 224.745 82.2361 224.814 81.4293 225.097C82.471 223.824 83.1613 222.874 83.9553 222.03C85.5422 220.335 87.2926 218.854 89.4754 218.041C90.0205 217.837 90.6488 217.812 91.1224 217.507C94.5436 215.293 98.4309 213.698 100.708 209.935C103.102 208.855 102.771 206.597 103.161 204.638C103.299 203.935 103.481 203.227 103.743 202.555C104.192 201.394 104.753 200.349 105.763 199.464C108.52 197.038 110.259 193.99 110.948 190.371C111.226 188.919 111.676 187.491 112.049 186.051ZM131.711 46.4539C130.694 46.1449 130.075 46.0522 129.55 45.7806C128.124 45.039 126.668 44.3175 125.355 43.4023C124.348 42.7008 123.566 41.6887 122.64 40.8619C121.155 39.5342 120.115 37.8875 119.609 35.9459C119.215 34.4338 118.797 32.9007 118.476 31.4008C117.957 28.9476 116.226 27.5482 114.898 25.8415C113.859 24.5047 112.616 23.3961 112.386 21.472C113.697 21.8992 114.322 23.0103 115.14 23.9204C115.961 24.8364 116.807 25.7561 117.772 26.5098C119.285 27.6922 120.905 28.7382 122.489 29.8333C123.772 30.7222 124.162 32.2391 124.877 33.5227C125.749 35.0875 126.942 36.5854 127.303 38.2965C127.716 40.2447 128.88 41.5482 129.819 43.0795C130.423 44.0627 130.955 45.095 131.711 46.4539ZM28.0654 67.4292C28.9454 66.8714 29.8328 66.3229 30.7077 65.7575C33.0691 64.2305 35.482 62.813 38.1632 62.0302C39.8063 61.5496 41.2803 60.843 42.5828 59.6368C43.3375 58.9341 44.2393 58.1282 45.1624 57.9341C48.167 57.2982 51.1196 57.6166 53.938 58.6518C54.1344 58.7243 54.2731 58.9431 54.4267 59.0785C52.6547 61.3514 50.4563 62.5641 47.8059 62.8487C45.102 63.143 42.62 64.1739 40.2357 65.5331C39.5614 65.9174 38.855 66.263 38.2444 66.7356C34.9339 69.298 31.5267 68.2344 28.0654 67.4292ZM217.803 214.126C217.666 214.085 217.532 214.044 217.395 214.003C217.858 212.736 218.443 211.493 218.757 210.195C219.201 208.363 219.875 206.755 221.213 205.307C221.953 204.503 222.977 203.681 223.058 202.386C223.152 200.927 223.196 199.464 223.35 198.007C223.563 196.013 223.691 193.989 224.162 192.037C225.045 188.372 225.394 184.775 224.364 181.192C224.23 180.724 224.245 180.199 224.156 179.36C224.974 180.575 225.698 181.477 226.235 182.49C227.027 183.988 227.861 185.503 228.343 187.128C228.922 189.063 229.643 190.989 228.909 193.231C228.137 195.593 227.813 198.08 227.093 200.458C226.603 202.082 225.672 203.524 224.295 204.653C223.407 205.382 222.759 206.507 221.799 207.047C220.475 207.792 220.283 208.889 220.088 210.116C220.059 210.291 219.885 210.45 219.789 210.621C219.125 211.787 218.462 212.957 217.803 214.126ZM242.544 206.288C241.724 205.837 241.793 205.136 241.831 204.522C241.899 203.429 242.109 202.337 242.19 201.246C242.235 200.641 242.241 199.996 242.091 199.429C241.682 197.899 241.18 196.398 240.718 194.886C240.606 194.524 240.568 194.119 240.392 193.797C239.046 191.318 238.065 188.692 237.829 185.801C237.674 183.944 237.422 182.073 237.551 180.212C237.859 175.812 238.384 171.412 237.545 166.919C237.944 167.307 238.266 167.577 238.53 167.892C238.73 168.13 238.862 168.426 239.022 168.698C240.812 171.726 241.048 175.217 241.302 178.682C241.411 180.14 241.405 181.634 241.229 183.097C240.908 185.748 240.826 188.33 241.493 190.907C241.813 192.142 242.32 193.262 242.744 194.433C244.136 198.274 243.439 202.239 242.544 206.288ZM234.527 163.621C234.717 163.552 234.91 163.483 235.103 163.414C235.594 164.551 236.097 165.687 236.576 166.831C237.609 169.303 237.166 171.989 237.109 174.586C237.057 177.094 236.344 179.575 236.731 182.15C237.104 184.662 236.915 187.255 237.942 189.666C238.904 191.924 239.424 194.396 240.372 196.658C241.39 199.092 241.364 201.579 240.975 204.173C240.704 203.687 240.559 203.166 240.4 202.649C240.2 202 240.064 201.311 239.77 200.711C238.666 198.458 237.414 196.279 236.399 193.982C235.493 191.929 235.114 189.726 234.87 187.399C234.573 184.6 234.909 181.835 234.975 179.08C235.05 176.066 235.6 173.059 234.201 170.284C234.148 170.177 234.118 170.042 234.127 169.924C234.255 167.822 234.392 165.722 234.527 163.621ZM166.292 77.0874C161.683 76.5342 157.318 78.0471 152.733 79.0438C153.841 75.6714 155.657 72.9743 157.685 70.1725C158.447 70.5621 159.275 70.7846 159.826 71.3061C161.476 72.8838 163.007 74.5852 164.967 75.809C165.476 76.1301 165.853 76.6558 166.292 77.0874ZM238.972 100.203C238.142 102.862 237.669 105.59 236.653 108.222C235.663 110.793 235.178 113.57 233.15 115.798C233.251 112.491 234.158 109.435 234.951 106.331C235.593 103.81 236.445 101.65 238.622 100.127C238.649 100.109 238.712 100.144 238.972 100.203ZM239.854 95.5742C239.186 91.2159 239.122 82.6663 242.035 76.9173C242.182 77.2556 242.407 77.5373 242.405 77.8265C242.38 79.4276 242.393 81.037 242.214 82.6303C241.983 84.6833 241.618 86.7289 241.242 88.7701C240.819 91.045 240.319 93.3043 239.854 95.5742ZM206.145 201.479C206.026 202.282 205.829 203.089 205.796 203.891C205.674 206.859 203.773 208.758 201.723 210.517C201.002 211.135 200.021 211.441 199.054 210.86C201.07 207.498 204.419 205.126 206.145 201.479ZM129.826 144.38C129.668 144.318 129.509 144.253 129.349 144.189C129.526 143.235 129.57 142.238 129.904 141.336C130.446 139.869 131.224 138.485 131.818 137.03C132.46 135.457 133.047 133.861 133.579 132.252C133.966 131.075 134.748 130.509 136.283 130.059C135.108 132.257 134.087 134.07 133.163 135.931C132.564 137.14 132.075 138.408 131.583 139.666C130.973 141.23 130.411 142.81 129.826 144.38ZM263.367 43.4235C266.417 40.949 269.191 38.4719 272.184 36.3327C275.176 34.1936 277.632 31.2076 281.251 30.0371C275.655 34.5521 269.956 38.9161 264.247 43.265C264.077 43.3936 263.788 43.3551 263.367 43.4235ZM175.326 78.1911C179.274 78.3723 181.799 80.8794 184.816 82.3243C181.463 81.6097 178.001 81.1401 175.326 78.1911ZM125.008 136.635C126.063 137.048 125.682 137.62 125.39 138.251C124.441 140.306 123.512 142.372 122.623 144.451C122.189 145.465 121.859 146.517 121.48 147.552C121.311 147.496 121.142 147.44 120.973 147.38C121.831 143.7 122.98 140.106 125.008 136.635ZM98.0846 159.243C101.54 157.337 103.711 154.206 106.988 152.533C104.935 154.713 103.186 157.173 100.698 158.916C99.943 159.445 99.2881 159.696 98.0846 159.243ZM207.639 198.187C208.792 193.863 209.945 189.54 211.096 185.215C211.233 185.247 211.367 185.278 211.504 185.31C210.579 189.692 210.005 194.158 207.639 198.187ZM136.462 128.273C137.802 125.098 140.899 124.058 143.246 122.022C143.214 122.463 143.081 122.849 142.817 123.073C141.836 123.909 140.804 124.683 139.807 125.498C138.683 126.413 137.578 127.349 136.462 128.273ZM192.067 83.6815C193.119 82.0986 194.712 81.2343 197.061 80.9665C196.293 82.4892 194.221 83.6172 192.067 83.6815ZM167.535 74.841C167.131 75.0506 166.833 75.3069 166.728 75.2453C165.753 74.6504 164.786 74.0309 163.866 73.3476C163.539 73.1078 163.349 72.6776 163.098 72.3348C163.186 72.2486 163.276 72.16 163.366 72.0714C164.667 72.9358 165.97 73.8019 167.535 74.841ZM146.062 64.3565C148.597 65.5157 148.597 65.5157 148.366 66.4477C147.552 65.7108 146.807 65.0316 146.062 64.3565ZM211.468 72.2324C211.529 72.3487 211.588 72.4633 211.645 72.5738C210.801 73.0593 209.956 73.5449 208.789 74.2125C209.474 72.6327 210.572 72.6234 211.468 72.2324ZM224.245 146.298C224.459 147.851 224.459 147.851 223.628 148.804C223.23 147.288 223.23 147.288 224.245 146.298ZM225.791 137.318C225.949 137.351 226.109 137.386 226.269 137.42C226.011 138.174 225.755 138.926 225.497 139.68C225.37 139.64 225.245 139.601 225.116 139.563C225.341 138.815 225.566 138.067 225.791 137.318ZM224.654 67.3268C224.686 67.4632 224.72 67.6014 224.747 67.7386C224.032 68.0137 223.313 68.2894 222.596 68.5669C222.563 68.452 222.53 68.3411 222.495 68.2286C223.213 67.9296 223.936 67.6299 224.654 67.3268ZM221.398 68.9407C221.439 69.0947 221.481 69.2504 221.523 69.402C221.039 69.5372 220.557 69.6699 220.075 69.8067C220.058 69.7418 220.046 69.6803 220.03 69.6153C220.486 69.3918 220.944 69.1659 221.398 68.9407ZM152.982 119.539C152.869 119.517 152.755 119.493 152.639 119.472C152.758 119.024 152.868 118.573 153.002 118.128C153.011 118.096 153.183 118.109 153.402 118.093C153.257 118.601 153.119 119.07 152.982 119.539ZM224.88 143.307C224.717 143.267 224.554 143.226 224.391 143.186C224.52 142.748 224.651 142.308 224.78 141.871C224.896 141.896 225.011 141.92 225.129 141.943C225.045 142.398 224.965 142.852 224.88 143.307ZM283.503 28.1733C283.439 28.0512 283.374 27.9315 283.313 27.811C283.765 27.5245 284.222 27.2372 284.677 26.9482C284.733 27.0462 284.789 27.1442 284.844 27.2446C284.396 27.5536 283.951 27.8643 283.503 28.1733ZM160.909 70.1166C160.993 70.0419 161.075 69.9631 161.158 69.8842C161.534 70.2318 161.911 70.5769 162.287 70.9244C162.198 71.0172 162.108 71.1058 162.02 71.1962C161.649 70.8371 161.278 70.4781 160.909 70.1166ZM161.401 105.062C161.485 105.184 161.568 105.309 161.653 105.432C161.239 105.705 160.822 105.981 160.406 106.256C160.351 106.166 160.298 106.079 160.241 105.991C160.625 105.681 161.014 105.37 161.401 105.062Z" fill="#3D3D3D"/>
<path d="M150.164 114.029C151.055 113.377 151.99 112.784 152.81 112.05C153.145 111.749 153.222 111.145 153.172 110.591C152.335 111.324 151.517 112.079 150.652 112.776C150.195 113.146 149.858 113.479 150.202 114.068L150.164 114.029Z" fill="#3D3D3D"/>
<path d="M150.201 114.071C149.442 113.789 149.022 114.356 148.617 114.844C147.921 115.681 147.275 116.561 146.603 117.423C146.603 117.423 146.557 117.389 146.554 117.387C148.033 116.582 149.213 115.436 150.162 114.031L150.201 114.071Z" fill="#3D3D3D"/>
</g>
</g>
<defs>
<filter id="filter0_d_123_351" x="20.7002" y="-150.47" width="295.871" height="387.826" filterUnits="userSpaceOnUse" color-interpolation-filters="sRGB">
<feFlood flood-opacity="0" result="BackgroundImageFix"/>
<feColorMatrix in="SourceAlpha" type="matrix" values="0 0 0 0 0 0 0 0 0 0 0 0 0 0 0 0 0 0 127 0" result="hardAlpha"/>
<feOffset dy="4"/>
<feGaussianBlur stdDeviation="2"/>
<feComposite in2="hardAlpha" operator="out"/>
<feColorMatrix type="matrix" values="0 0 0 0 0 0 0 0 0 0 0 0 0 0 0 0 0 0 0.25 0"/>
<feBlend mode="normal" in2="BackgroundImageFix" result="effect1_dropShadow_123_351"/>
<feBlend mode="normal" in="SourceGraphic" in2="effect1_dropShadow_123_351" result="shape"/>
</filter>
<clipPath id="clip0_123_351">
<rect width="258" height="245" fill="white"/>
</clipPath>
</defs>
</svg>
