<svg width="304" height="378" viewBox="0 0 304 378" fill="none" xmlns="http://www.w3.org/2000/svg">
<path d="M290.706 361.074C288.184 357.191 286.379 352.825 282.829 349.635C279.875 346.981 276.874 344.363 274.136 341.502C272.143 339.417 270.543 336.956 268.766 334.663C268.248 333.997 267.762 333.303 267.209 332.665C261.783 326.363 256.221 320.174 250.968 313.727C248.811 311.078 246.845 308.209 245.319 305.058C243.076 300.434 240.008 296.287 237.078 292.078C235.348 289.593 233.582 287.136 231.794 284.694C230.805 283.354 229.667 282.119 228.722 280.752C225.784 276.499 222.803 272.267 220.049 267.889C218.758 265.839 217.978 263.476 216.934 261.27C216.11 259.514 215.224 257.786 214.4 256.026C214.2 255.595 214.137 255.097 214.012 254.627C214.176 254.556 214.341 254.486 214.506 254.415C215.149 255.767 215.698 257.178 216.467 258.456C217.385 259.972 218.452 261.399 219.527 262.81C221.626 265.561 223.775 268.277 225.913 270.997C227.059 272.455 228.189 273.932 229.393 275.339C231.856 278.216 233.033 281.837 235.053 284.961C237.297 288.433 238.843 292.305 241.499 295.566C242.919 297.31 243.558 299.665 244.747 301.625C246.728 304.882 248.885 308.029 250.933 311.247C254.671 317.117 259.237 322.263 264.419 326.896C266.063 328.365 267.597 329.953 269.158 331.508C272.583 334.91 276.066 338.253 279.377 341.757C281.401 343.897 282.955 346.499 285.069 348.525C288.235 351.551 290.369 355.251 292.762 358.809C294.08 360.765 295.715 362.505 297.171 364.37C297.575 364.884 297.845 365.503 298.191 366.067C299.56 368.301 300.901 370.555 302.337 372.746C302.541 373.055 303.2 373.063 303.698 373.224C304.44 371.946 303.639 371.139 303.169 370.292C302.184 368.509 301.156 366.753 300.148 364.982C299.897 364.535 299.721 364.033 299.411 363.642C297.465 361.176 295.48 358.743 293.526 356.289C291.224 353.405 288.984 350.469 286.63 347.628C284.853 345.48 282.931 343.45 281.087 341.361C279.526 339.59 278.082 337.697 276.404 336.043C272.308 332.01 268.099 328.083 263.941 324.109C262.933 323.145 261.928 322.22 261.054 321.08C258.841 318.199 256.354 315.53 253.969 312.783C253.804 312.595 253.408 312.481 253.392 312.313C253.2 309.914 251.243 308.562 250.121 306.728C248.054 303.346 245.927 300.002 243.852 296.628C242.495 294.422 241.212 292.168 239.839 289.97C238.141 287.25 236.379 284.53 235.25 281.535C233.9 277.949 231.452 275.167 229.271 272.137C226.784 268.673 224.113 265.396 221.386 262.128C219.629 260.019 218.405 257.464 216.977 255.085C214.008 250.131 211.156 245.103 208.069 240.224C206.233 237.32 204.609 234.251 202.126 231.758C201.459 231.092 201.325 229.905 200.894 228.98C200.141 227.361 199.38 225.747 198.556 224.163C197.799 222.701 197.497 221.298 198.148 219.656C198.987 217.54 199.505 215.298 200.305 213.166C200.866 211.669 201.725 210.289 202.357 208.816C202.89 207.573 203.342 206.288 203.742 204.999C205.013 200.876 206.033 196.663 207.566 192.645C208.461 190.306 209.889 188.037 211.556 186.159C213.568 183.894 214.49 181.245 215.526 178.478C216.471 178.854 217.507 179.207 218.499 179.661C222.175 181.347 226.039 182.005 230.048 181.688C231.213 181.593 232.358 181.158 233.484 180.786C236.834 179.673 240.4 180.085 243.797 179.316C244.378 179.187 245.041 179.262 245.555 179.011C248.246 177.714 251.153 177.89 254 177.686C256.272 177.521 258.551 177.474 260.826 177.404C265.282 177.271 269.06 175.444 272.343 172.603C275.262 170.079 278.396 168.629 282.37 169.291C284.124 169.585 285.952 169.573 287.615 168.68C288.509 168.202 288.631 167.492 287.815 166.928C286.854 166.266 285.846 165.388 284.767 165.231C282.272 164.87 280.475 163.381 278.6 161.998C275.207 159.486 271.437 157.738 267.377 156.746C264.031 155.931 260.587 155.492 257.182 154.947C254.448 154.508 251.972 155.692 249.415 156.307C248.528 156.523 247.642 156.762 246.747 156.926C246.084 157.048 245.37 156.958 244.735 157.15C237.584 159.266 230.224 160.736 223.418 163.953C222.595 164.345 221.63 164.435 220.653 164.69C220.661 164.353 220.574 164.036 220.696 163.891C222.559 161.684 224.313 159.36 226.364 157.338C228.538 155.198 230.946 153.297 233.335 151.396C234.857 150.185 236.426 148.927 238.176 148.151C239.467 147.575 241.157 147.383 242.546 147.654C245.166 148.163 247.438 147.227 249.732 146.447C251.792 145.745 253.93 145.157 255.699 143.688C256.35 143.151 257.456 143.111 258.374 142.947C260.54 142.567 262.372 141.614 263.909 140.031C264.557 139.365 265.416 138.914 266.067 138.26C267.511 136.806 268.585 135.152 269.531 133.278C272.057 128.274 274.878 123.41 277.686 118.554C278.753 116.712 278.91 114.945 278.192 112.985C277.541 111.217 276.886 109.415 278.11 107.733C277.396 106.863 276.706 106.82 276.227 107.471C275.415 108.576 274.266 108.984 273.089 109.52C270.413 110.743 268.272 112.781 266.42 114.972C264.086 117.735 261.207 119.173 257.762 119.93C255.793 120.361 253.812 121.043 252.035 121.979C250.752 122.657 249.729 123.884 248.709 124.978C247.198 126.592 245.774 128.285 244.358 129.978C242.264 132.487 241.451 135.587 240.757 138.644C240.212 141.05 238.913 143.013 237.795 145.102C237.619 145.428 237.148 145.604 236.795 145.82C236.505 145.996 236.042 146.047 235.905 146.294C233.986 149.684 230.056 150.722 227.573 153.442C226.914 154.171 226.141 154.798 225.074 155.794C225.137 154.779 225.039 154.175 225.231 153.677C225.835 152.106 226.517 150.558 227.227 149.025C229.212 144.73 231.229 140.446 233.229 136.151C233.441 135.7 233.692 135.238 233.767 134.756C234.339 131.052 235.924 127.67 237.062 124.147C237.992 121.25 238.631 118.264 239.423 115.321C239.639 114.513 239.804 113.694 240.836 113.369C241.322 113.212 241.789 112.675 242.048 112.189C244.276 108.035 247.92 105.723 252.231 104.277C254.232 103.606 256.295 103.12 258.268 102.384C260.497 101.549 262.595 100.369 264.259 98.6644C265.73 97.1555 267.095 95.4938 268.252 93.7302C270.17 90.8065 273.159 89.4192 276.082 87.9456C277.278 87.342 278.683 87.1617 279.961 86.711C280.679 86.4602 281.476 86.1898 282.009 85.692C284.402 83.4503 286.218 80.7618 286.991 77.5833C287.36 76.0745 287.776 74.7067 288.709 73.4682C290.753 70.7562 292.777 68.0245 294.743 65.2537C295.092 64.7638 295.402 63.933 295.213 63.4705C295.056 63.0943 294.138 62.9689 293.538 62.8552C290.816 62.3379 288.411 63.6351 285.881 64.2308C284.073 64.658 282.248 65.0303 280.444 65.4693C277.38 66.2178 274.987 68.0794 272.708 70.1487C269.856 72.7393 266.816 74.9693 262.913 75.8276C260.359 76.388 257.794 77.0543 255.381 78.038C252.153 79.3509 249.772 81.8709 247.587 84.5085C244.974 87.6516 242.954 91.61 241.569 95.7642C241.314 96.5246 240.871 97.2261 240.118 97.8414C240.628 94.5219 241.212 91.2102 241.628 87.8789C242.063 84.387 243.123 81.0322 243.672 77.5677C243.876 76.2665 243.687 74.9458 243.797 73.7191C243.907 72.5159 244.064 71.2265 244.311 70.0233C244.786 67.7228 244.582 65.4849 244.566 63.2001C244.547 59.8061 243.687 56.612 242.46 53.5551C241.691 51.6269 240.553 49.6085 239.023 48.2682C235.399 45.1015 231.939 41.6135 227.184 40.0027C225.662 39.4932 225.435 38.8191 225.717 37.2593C226.129 34.9744 226.863 32.67 226.78 30.3969C226.67 27.4105 226.745 24.3065 224.058 21.8845C222.077 20.1013 220.982 17.5656 220.013 14.9633C218.95 12.1023 217.209 9.48824 215.651 6.82715C214.608 5.04394 213.455 3.31167 212.184 1.68523C211.658 1.01114 210.705 0.666254 209.681 0C209.355 0.897483 209.014 1.48144 208.936 2.09674C208.594 4.87933 208.202 7.66584 208.076 10.4602C208.021 11.7653 208.292 13.2075 208.837 14.3911C209.822 16.5349 211.019 18.6042 212.325 20.5716C214.49 23.8245 215.745 27.3713 216.303 31.2003C216.699 33.9554 218.295 36.1031 220.182 37.9255C222.249 39.9204 222.63 42.021 221.7 44.6155C220.445 48.1153 218.915 51.5798 218.213 55.1972C217.389 59.422 217.213 63.6939 219.233 67.9187C221.386 72.4218 222.603 77.3129 223.097 82.3216C223.375 85.1551 223.913 87.7653 226.027 89.9678C228.899 92.9542 231.523 96.1757 234.237 99.3071C236.211 101.58 237.835 103.908 237.846 107.2C237.858 110.112 237.768 112.985 236.642 115.642C236.266 116.532 234.842 116.982 233.896 117.633C234.23 117.888 234.567 118.139 234.9 118.389C234.528 116.434 234.281 114.447 233.747 112.534C233.167 110.461 232.441 108.517 230.817 106.812C228.75 104.641 227.082 102.133 226.113 99.0955C224.721 94.7374 223.924 90.2265 222.418 85.9233C221.571 83.5012 220.849 81.0087 218.86 79.1236C217.354 77.697 215.922 76.145 214.702 74.4755C213.172 72.3826 211.081 71.0384 208.802 70.2193C206.445 69.3688 203.867 68.926 201.357 68.7535C199.289 68.6124 197.167 69.3963 195.092 69.2983C192.079 69.1533 189.067 68.6791 186.085 68.1696C184.018 67.8129 182.006 67.1388 179.958 66.6529C178.632 66.3354 177.33 66.0219 176.066 67.0644C175.533 67.5033 174.65 67.519 173.901 67.7306C174.027 68.8593 174.658 69.2121 175.627 69.6941C178.436 71.1011 181.025 72.9313 183.802 74.4128C186.984 76.1137 189.667 78.3789 192.056 81.0283C193.605 82.7488 194.57 84.7358 195.214 87.0128C196.116 90.1912 197.497 93.2286 198.591 96.356C199.121 97.861 199.588 99.413 199.878 100.985C200.341 103.508 201.376 105.66 203.314 107.384C204.793 108.701 206.346 109.274 208.386 108.709C209.901 108.29 211.47 108.615 212.595 109.901C215.494 113.212 219.386 115.238 222.877 117.766C223.897 118.507 225.435 118.578 226.761 118.848C227.745 119.048 228.773 119.032 229.766 119.201C230.907 119.397 232.135 119.377 232.606 120.913C232.727 121.313 233.782 121.431 234.269 121.623C232.704 126.31 231.299 130.468 229.938 134.638C229.518 135.924 229.33 137.291 228.844 138.55C227.439 142.183 225.902 145.769 224.482 149.398C223.775 151.212 223.293 153.113 222.567 154.916C222.104 156.072 221.645 157.483 220.731 158.161C218.095 160.117 215.789 162.268 214.471 165.356C209.398 166.109 204.138 165.897 199.568 169.178C199.764 165.611 198.097 162.688 196.559 159.772C195.673 158.09 194.311 156.66 193.189 155.096C191.789 153.152 191.448 150.852 191.193 148.571C191.016 146.98 191.063 145.357 191.067 143.754C191.071 141.477 191.361 139.173 191.095 136.935C190.879 135.144 190.079 133.404 189.412 131.687C188.627 129.661 187.725 127.682 186.842 125.691C186.603 125.158 186.317 124.613 185.944 124.174C184.367 122.332 183.677 120.137 182.975 117.864C182.618 116.712 182.574 114.792 180.531 114.745C178.934 111.217 174.964 110.594 172.458 108.164C170.649 106.405 168.719 104.825 167.621 102.423C167.044 101.169 165.93 100.162 164.926 98.8682C163.572 98.5468 163.243 99.8206 163.008 100.796C162.753 101.835 162.658 103.038 162.925 104.053C163.502 106.256 163.392 108.396 163.172 110.618C162.811 114.333 162.917 118.099 162.403 121.787C162.015 124.578 161.603 127.317 161.839 130.139C161.988 131.863 162.384 133.459 163.329 134.964C164.573 136.943 165.357 139.271 166.84 141.034C169.151 143.785 170.406 147.085 172.195 150.095C173.681 152.604 175.843 154.301 178.401 155.092C181.146 155.943 183.273 157.506 185.23 159.356C187.415 161.418 189.62 163.24 192.519 164.318C193.829 164.804 194.951 165.956 196.375 166.524C196.916 166.736 197.281 167.716 197.465 168.413C197.999 170.443 198.387 172.509 198.854 174.555C199.627 177.941 200.462 181.311 201.157 184.713C201.337 185.591 201.317 186.649 200.992 187.468C199.152 192.089 198.262 196.937 197.136 201.746C196.504 204.446 195.245 207.025 194.084 209.572C193.154 211.618 192.479 213.64 192.821 215.909C192.852 216.125 192.668 216.368 192.503 216.827C191.62 215.768 190.765 214.883 190.079 213.883C187.831 210.615 185.728 207.272 182.99 204.328C181.609 202.843 181.029 200.625 179.974 198.806C178.569 196.396 177.028 194.068 175.6 191.67C174.733 190.208 173.932 188.703 173.179 187.182C171.473 183.737 169.209 180.731 166.369 178.133C165.73 177.549 165.483 176.542 164.859 175.926C161.395 172.501 157.829 169.178 154.389 165.725C153.016 164.349 151.412 163.326 149.886 162.174C148.897 161.426 148.152 160.363 147.195 159.564C144.594 157.393 141.671 155.523 139.4 153.054C138.039 151.573 135.689 150.397 135.983 147.74C134.163 144.671 133.461 141.25 132.606 137.836C132.245 136.378 132.81 135.206 132.771 133.89C132.669 130.57 132.68 127.239 132.794 123.915C132.916 120.298 133.292 116.689 133.363 113.071C133.394 111.488 132.822 109.901 132.731 108.302C132.633 106.644 132.661 104.955 132.873 103.305C133.049 101.898 133.681 100.553 133.893 99.1465C134.155 97.3985 134.979 96.1248 136.132 94.7727C139.486 90.8379 142.605 86.7071 145.775 82.6155C146.285 81.9571 146.728 81.1694 146.948 80.3738C147.779 77.3521 149.725 74.9654 151.337 72.3866C152.055 71.2343 152.828 70.0978 153.408 68.8789C154.597 66.3824 153.565 64.0858 152.655 61.7657C152.13 60.4371 151.639 59.0576 151.42 57.6545C150.953 54.6368 150.513 51.5955 150.353 48.5503C150.184 45.3602 150.439 42.1543 150.353 38.9602C150.309 37.467 149.886 35.9895 149.654 34.5041C149.572 33.979 149.537 33.446 149.505 32.9169C149.415 31.1925 149.439 29.4563 149.207 27.7554C149.121 27.1322 148.427 26.5992 147.901 25.8703C145.01 28.5 141.875 30.1147 138.643 31.6392C136.384 32.7092 134.406 34.3826 132.359 35.868C131.912 36.1894 131.708 36.8439 131.39 37.3455C130.17 39.2816 128.871 41.1745 127.757 43.1772C127.02 44.5058 126.275 45.9363 126.031 47.4059C125.604 49.9926 125.317 52.6498 125.415 55.256C125.553 58.8694 125.357 62.3967 124.278 65.8455C122.819 70.5054 122.567 75.3651 122.207 80.1582C122.014 82.69 122.991 85.308 123.407 87.8907C124.07 92.0332 126.741 95.3018 128.208 99.0877C129.177 101.592 129.813 104.23 130.492 106.832C132.214 113.4 131.143 120.039 130.931 126.651C130.852 128.987 130.797 131.323 130.291 133.733C130.119 132.969 129.868 132.216 129.785 131.44C129.346 127.219 127.557 123.496 125.741 119.738C124.415 116.998 123.415 114.094 122.352 111.233C121.732 109.564 121.093 107.87 120.794 106.13C120.5 104.41 120.586 102.619 120.575 100.863C120.551 97.6611 120.622 94.4552 120.571 91.2572C120.532 88.8783 120.688 86.5386 120.892 84.1675C121.151 81.1223 121.736 77.842 119.496 75.0829C117.75 72.9274 116.177 70.6269 114.31 68.585C112.98 67.1349 112.309 65.3909 111.847 63.6625C111.309 61.6559 110.066 60.2921 108.551 59.3162C105.558 57.388 102.353 55.7812 99.2269 54.0606C98.9445 53.9039 98.5875 53.8764 98.2658 53.7863C97.0733 54.6524 97.0105 55.7576 97.3087 56.9922C98.4855 61.8637 98.003 66.7979 97.9167 71.7242C97.8775 74.0953 97.6774 76.5173 98.0736 78.8296C98.3286 80.3032 99.2897 81.867 100.384 82.9291C101.62 84.1362 101.859 85.2492 101.879 86.9031C101.918 90.446 101.981 94.0281 103.346 97.4299C104.295 99.7931 104.903 102.29 105.821 104.669C106.767 107.122 108.261 109.027 110.976 109.94C113.459 110.778 115.812 112.017 118.194 113.146C119.672 113.855 120.834 114.858 121.587 116.446C122.493 118.342 124.101 119.965 124.725 121.925C125.627 124.742 127.259 127.29 127.534 130.359C127.808 133.368 128.514 136.343 128.997 139.337C129.103 139.996 129.075 140.678 129.126 141.712C127.263 138.644 125.168 136.269 122.877 133.984C121.81 132.922 121.042 131.377 119.798 130.39C117.315 128.419 114.698 126.612 112.211 124.648C110.544 123.328 109.053 121.787 107.402 120.455C103.146 117.022 99.9526 112.593 96.226 108.666C93.4683 105.766 91.7579 102.219 90.9891 98.3352C90.6203 96.4814 90.9891 94.4827 90.9655 92.5505C90.9381 90.0188 90.8478 87.4909 90.7968 84.9592C90.7733 83.8579 90.7419 82.7527 90.7812 81.6514C90.8478 79.8878 90.9773 78.1751 90.1927 76.4546C88.5962 72.9548 89.4788 69.5099 90.7694 66.1238C91.248 64.8657 91.7383 63.6038 92.0796 62.3065C92.7504 59.763 93.5506 57.2234 93.8566 54.6328C94.1155 52.4224 93.8958 50.1258 93.6448 47.8919C93.4408 46.0499 92.8798 44.2471 92.4719 42.4286C92.362 41.9427 92.3267 41.3979 92.0874 40.9786C90.9263 38.9132 89.8946 36.7341 88.4471 34.8843C86.9015 32.909 85.8816 30.7888 84.9519 28.4843C83.6613 25.2824 81.8843 22.2725 80.3151 19.1842C80.2367 19.0314 80.1896 18.804 80.068 18.7492C76.9219 17.3932 75.8196 13.862 73.0227 12.1533C72.0695 11.5693 71.9204 9.89192 70.2218 10.225C69.7197 11.7418 70.3317 13.1722 70.8024 14.5792C72.1911 18.7217 72.599 22.7977 70.8063 26.9833C68.9901 31.2238 68.1898 35.7857 67.7073 40.3241C67.2915 44.2432 68.3899 48.1192 69.5 51.8816C70.316 54.6485 71.481 57.3096 72.4186 60.0413C72.9913 61.7108 73.3522 63.4587 73.9485 65.1165C75.2626 68.777 77.0906 72.0534 80.5231 74.256C83.2494 76.0039 85.7404 78.0576 87.5802 80.8127C88.3098 81.9022 88.7845 82.8899 88.7648 84.3125C88.7295 86.4445 88.5099 88.5256 88.2902 90.638C88.0548 92.9268 88.3726 95.3096 88.6982 97.6141C89.1179 100.577 89.7887 103.501 90.4595 107.024C89.11 105.833 88.0234 105.045 87.1408 104.069C84.1673 100.777 80.88 97.9707 76.9886 95.7133C71.7988 92.6995 66.7109 89.427 62.337 85.2649C60.4972 83.5169 59.1125 81.2987 57.5041 79.3078C55.8095 77.2071 54.1031 75.1104 52.381 73.0254C49.839 69.9528 47.2343 66.939 44.0686 64.4699C40.6205 61.7774 36.7487 59.9433 32.5591 58.6735C28.9227 57.5683 25.3844 56.1535 21.7558 55.0208C19.6492 54.3624 17.476 53.7981 15.2949 53.559C13.8357 53.3983 12.2979 53.849 10.8073 54.092C9.29701 54.3428 7.80635 54.7151 6.29215 54.9581C5.22123 55.1345 4.30722 55.448 3.86002 56.5454C3.76588 56.7766 3.64035 57.0666 3.44421 57.1764C1.61227 58.2149 1.26706 59.9119 1.65934 61.7108C2.11438 63.7958 1.21606 65.3203 0 66.8135C0.564881 68.4831 1.7221 69.5961 3.12254 70.4113C6.28823 72.2533 9.50491 74.0052 12.6981 75.7884C13.7415 76.3723 14.8517 76.8583 15.8167 77.5481C18.5548 79.5116 21.4773 80.9264 24.8156 81.6749C26.4867 82.0472 28.0793 83.0976 29.519 84.1126C33.532 86.9423 38 87.9416 42.8015 87.6281C48.1718 87.2715 53.4637 87.9416 58.7987 88.3963C62.235 88.6863 64.7103 90.1559 67.2523 92.0332C68.535 92.9777 69.9943 93.6871 71.3045 94.6003C74.4467 96.7793 77.5496 99.0171 80.6682 101.235C80.8761 101.384 81.0801 101.537 81.2762 101.702C83.3435 103.45 85.5128 105.1 87.4507 106.985C89.2081 108.697 90.9341 110.445 92.5582 112.319C94.4333 114.486 96.7438 116.316 99.0386 118.072C101.396 119.875 104.017 121.333 106.417 123.081C112.027 127.168 118.013 130.809 122.36 136.406C122.399 136.461 122.375 136.563 122.399 136.915C121.304 136.715 120.21 136.676 119.245 136.308C115.926 135.026 112.502 134.811 108.991 134.822C106.202 134.83 103.464 134.25 100.851 133.172C99.7643 132.726 98.615 132.255 97.4656 132.169C93.2603 131.848 90.0044 129.771 86.9094 127.113C84.6067 125.138 81.9902 123.531 79.5934 121.654C74.8586 117.951 70.2218 114.125 65.4713 110.445C63.149 108.646 60.6973 107.008 58.2377 105.397C57.2649 104.759 56.1586 104.269 55.0446 103.92C52.3261 103.062 49.6036 102.129 46.8145 101.596C44.4295 101.137 41.9032 100.824 39.5182 101.102C36.2034 101.494 32.9318 101.373 29.6367 101.278C28.9855 101.259 28.35 100.945 27.7027 100.785C24.384 99.9695 21.2929 98.3352 17.7898 98.151C17.1465 98.1157 16.4169 97.5592 15.9304 97.0497C14.8321 95.8897 14.0867 94.2083 12.7844 93.452C9.94427 91.8137 7.81419 88.5217 3.52659 89.5602C3.60112 90.0619 3.52659 90.9319 3.87179 91.5825C6.16662 95.9367 8.93219 99.946 12.5921 103.301C13.2629 103.916 13.82 104.708 14.2711 105.503C15.9932 108.529 17.6369 111.578 18.5391 114.999C19.2099 117.566 21.3478 119.256 23.2896 120.768C25.3844 122.399 27.8714 123.7 30.3898 124.574C33.175 125.546 35.6268 127.16 38.3806 128.136C40.9225 129.038 43.3664 130.46 45.9751 130.841C50.247 131.46 54.613 131.573 58.8889 130.378C61.015 129.786 63.1176 129.312 65.4046 129.998C68.6292 130.958 71.9165 130.139 74.9488 129.198C78.2125 128.191 81.1546 129.14 84.2536 129.465C86.8701 129.739 88.7021 131.448 90.9224 132.428C94.5588 134.035 98.156 135.732 102.263 135.881C103.942 135.939 105.531 136.449 107.096 137.295C109.446 138.565 111.878 139.71 114.636 140.105C117.793 140.564 120.508 142.296 123.27 143.817C123.999 144.217 124.858 144.475 125.451 145.02C126.796 146.247 128.012 147.618 129.279 148.931C129.177 149.084 129.079 149.237 128.977 149.394C127.942 149.068 126.89 148.767 125.859 148.414C123.313 147.544 120.818 146.462 118.213 145.823C116.291 145.353 114.2 145.165 112.231 145.349C107.057 145.827 101.859 146.019 96.732 147.223C94.1508 147.83 91.2793 148.293 88.5491 147.183C87.941 146.94 87.1486 146.733 86.5641 146.913C84.3046 147.603 82.2059 146.929 80.0719 146.403C79.4953 146.262 78.8833 145.941 78.3459 146.031C73.768 146.807 69.0489 146.827 64.6593 148.586C64.1925 148.775 63.6394 148.986 63.3569 149.362C61.2504 152.145 57.7395 152.827 55.1465 154.916C53.8324 155.974 51.9534 156.401 50.2705 156.926C47.2774 157.859 45.6573 160.05 44.3236 162.688C42.9584 165.388 41.2285 167.912 39.9693 170.655C39.2043 172.317 38.7218 174.233 38.6591 176.06C38.5453 179.097 38.8434 182.154 39.0357 185.199C39.067 185.709 39.4162 186.202 39.6202 186.7C40.1811 186.438 40.9539 186.328 41.2756 185.889C43.0722 183.424 45.4259 181.946 48.4307 181.445C50.0273 181.178 51.6121 180.829 53.2087 180.547C58.0533 179.701 60.8934 176.436 63.051 172.383C64.012 170.585 64.8241 168.707 65.7538 166.889C66.7188 164.996 68.5233 163.949 70.1708 162.785C71.5595 161.806 73.0815 161.01 74.5173 160.093C76.8317 158.619 78.5264 156.527 80.1582 154.371C80.931 153.352 81.7744 152.388 82.5433 151.369C83.7358 149.794 85.1402 149.453 87.1957 149.586C91.4245 149.856 95.716 149.696 99.8624 148.555C101.483 148.112 103.024 147.611 104.738 148.175C105.437 148.402 106.268 148.273 107.037 148.23C109.748 148.077 112.372 148.289 114.891 149.48C115.942 149.978 117.205 150.009 118.311 150.425C121.693 151.69 125.047 153.039 128.405 154.363C128.718 154.489 129.001 154.826 129.295 154.83C133.077 154.877 134.967 157.581 137.192 160.058C139.608 162.746 142.456 165.039 145.053 167.571C146.202 168.688 147.222 169.938 148.262 171.161C149.062 172.097 149.796 173.085 150.513 173.998C147.944 173.834 145.465 173.743 143.001 173.5C140.059 173.214 137.133 172.799 134.195 172.434C133.61 172.364 133.022 172.321 132.445 172.207C130.629 171.858 128.84 171.639 127.22 170.459C124.682 168.609 121.924 167.057 119.261 165.38C118.97 165.2 118.696 164.914 118.382 164.863C113.82 164.122 109.493 161.853 104.668 162.758C102.781 163.115 101.035 164.102 99.0308 163.93C96.9164 163.746 94.7981 163.671 92.6876 163.483C90.0437 163.248 87.5802 161.951 84.8538 162.151C82.8846 162.296 80.9075 162.593 79.001 162.934C77.8791 163.138 76.9219 164.804 76.0903 165.956C75.3254 167.006 74.4584 167.751 73.2698 168.288C71.2457 169.197 70.0374 171.031 69.0332 172.858C67.5504 175.566 65.287 177.42 62.7293 179.356C62.945 179.869 63.1883 180.437 63.4315 181.01C66.7815 180.163 69.9668 179.708 73.1914 180.504C74.6703 180.868 76.2198 181.115 77.5731 181.762C79.7738 182.808 82.1314 183.11 84.4498 183.33C86.5328 183.53 88.8551 183.58 90.7498 182.855C94.4999 181.417 97.7363 182.554 101.063 183.898C101.769 184.184 102.408 184.643 103.118 184.909C108.12 186.798 112.812 186.347 116.923 182.769C118.766 181.162 120.39 179.305 122.109 177.557C124.737 174.876 127.671 173.214 131.645 174.151C133.536 174.598 135.528 174.59 137.454 174.903C140.204 175.354 142.895 175.981 145.535 176.981C148.858 178.239 152.345 179.05 155.719 180.175C156.813 180.539 157.939 181.115 158.767 181.895C161.917 184.874 165.055 187.876 168.001 191.05C171.308 194.617 174.019 198.579 175.69 203.247C177.02 206.974 178.487 210.713 180.444 214.13C182.017 216.881 184.43 219.151 186.446 221.651C187.242 222.643 187.937 223.709 188.725 224.708C190.514 226.969 192.409 229.109 194.472 231.155C197.359 234.024 199.689 237.437 202.424 240.471C204.377 242.634 205.68 245.201 207.049 247.674C208.473 250.249 209.175 253.22 210.242 256.002C212.003 260.615 214 265.134 216.965 269.12C218.88 271.695 221.124 274.03 223.01 276.625C224.344 278.467 225.364 280.548 226.455 282.558C227.753 284.949 228.981 287.379 230.232 289.797C230.495 290.307 230.727 290.84 231.123 291.682C228.746 290.981 226.71 290.267 224.619 289.809C223.509 289.566 222.3 289.762 221.139 289.777C220.818 289.781 220.492 289.919 220.182 289.879C214.89 289.268 209.528 288.966 204.33 287.888C201.353 287.269 198.426 286.18 195.374 286.215C191.146 286.266 186.874 286.395 182.7 287.034C179.036 287.594 176.282 287.022 174.058 283.848C171.736 280.528 169.005 277.491 166.613 274.215C165.597 272.815 164.879 271.162 164.216 269.547C163.317 267.348 162.764 264.997 161.764 262.849C160.524 260.192 160.83 257.35 160.367 254.603C160.203 253.623 160.144 252.463 159.575 251.746C158.171 249.967 156.959 248.066 155.185 246.502C153.581 245.087 152.93 242.775 152.557 240.498C151.933 236.693 152.902 233.06 153.44 229.372C153.526 228.784 153.714 228.212 153.75 227.624C153.867 225.464 153.809 223.387 151.757 221.918C150.729 221.181 149.996 220.028 148.952 219.331C144.892 216.623 143.044 212.856 142.758 208.036C142.633 205.963 141.915 203.866 141.134 201.91C140.251 199.712 136.627 199.316 134.795 201.252C133.12 203.012 131.3 204.724 130.805 207.342C130.574 208.569 129.919 209.717 129.464 210.897C127.62 215.682 126.361 220.624 125.921 225.727C125.608 229.38 126.365 232.993 127.004 236.583C127.094 237.069 127.33 237.578 127.636 237.97C130.189 241.208 131.908 244.88 133.567 248.619C135.666 253.353 138.926 257.205 143.072 260.329C146.179 262.669 149.858 263.456 153.526 264.205C155.723 264.652 157.876 265.032 159.689 266.498C160.12 266.847 160.787 266.905 161.521 267.16C162.576 272.447 166.032 276.574 169.209 280.857C169.708 281.532 170.245 282.182 171.037 283.189C170.151 283.08 169.613 283.091 169.127 282.942C165.04 281.696 160.897 280.901 156.594 280.873C154.158 280.854 151.722 280.509 149.286 280.285C149.054 280.266 148.815 280.089 148.619 279.936C146.783 278.522 144.57 277.581 143.256 275.508C141.801 273.211 140.349 270.899 138.729 268.712C137.015 266.4 135.14 264.197 133.265 262.006C130.091 258.299 126.926 254.584 123.623 250.99C122.501 249.771 121.014 248.869 119.637 247.905C116.083 245.413 112.078 244.116 107.834 243.293C104.746 242.697 101.761 241.592 98.7091 240.796C93.7311 239.491 88.7335 239.405 83.7594 240.816C82.6139 241.141 81.4724 241.529 80.9467 242.807C80.4407 244.037 81.0291 246.686 82.406 247.67C84.2105 248.948 84.8264 250.563 84.642 252.671C84.5321 253.913 85.046 254.862 85.9718 255.814C88.3765 258.279 91.3264 259.78 94.4882 260.815C96.6104 261.509 98.4345 262.59 100.341 263.688C103.491 265.506 105.974 268.156 108.975 270.127C109.148 270.241 109.191 270.546 109.434 271.064C106.77 271.256 104.303 271.726 101.8 271.162C99.8899 270.73 98.0108 270.143 96.0965 269.747C93.8605 269.288 91.5932 268.983 89.3493 268.567C88.2784 268.367 87.1839 268.179 86.164 267.807C84.0849 267.046 81.998 266.502 79.7973 266.098C77.2044 265.616 74.7566 264.319 72.246 263.374C71.6183 263.139 71.0103 262.735 70.367 262.681C68.4801 262.512 67.6759 260.815 66.299 259.945C66.0676 259.8 65.9617 259.353 65.9303 259.032C65.4046 254.341 63.71 250.002 61.7878 245.762C60.105 242.042 57.665 238.915 54.3267 236.387C51.8985 234.553 49.6076 232.534 46.8028 231.331C45.5318 230.787 44.0333 230.72 42.625 230.575C40.6126 230.367 38.4433 230.767 36.7918 229.227C35.8229 228.321 35.0383 227.228 34.1753 226.213C33.1868 225.049 32.4218 223.458 31.1705 222.811C28.7383 221.557 26.4514 219.785 23.4818 219.762C21.4067 219.746 19.457 219.209 17.6525 218.092C17.0406 217.716 16.1815 217.763 15.4597 217.544C13.2512 216.881 11.4349 215.561 9.6226 214.185C8.75174 213.523 7.6259 213.197 6.46868 212.653C5.80572 214.655 6.20977 216.27 6.80211 217.701C8.12802 220.902 9.72067 223.995 11.1643 227.15C12.7098 230.54 14.1691 233.969 15.7539 237.339C16.1697 238.229 16.8484 239.005 17.4878 239.765C18.0684 240.455 18.7352 241.082 19.406 241.69C20.0808 242.297 20.728 243.03 21.5322 243.387C23.1994 244.123 25.5805 246.491 25.9571 248.266C27.0829 253.565 30.8566 255.936 35.6817 257.151C36.3211 257.311 37.0546 257.068 37.698 257.213C39.4083 257.597 41.1971 257.864 42.7662 258.585C47.2225 260.631 51.7729 261.908 56.7274 262.23C61.6113 262.547 66.5069 263.127 71.0809 265.322C74.6506 267.039 78.4165 268.371 82.1432 269.747C83.0533 270.084 84.1477 269.939 85.1637 269.982C87.6429 270.088 90.075 270.495 92.2718 271.651C93.5781 272.337 94.7902 272.98 96.324 272.721C96.6732 272.663 97.0733 272.917 97.8696 273.152C93.3663 274.458 89.2434 274.885 85.0421 275.218C81.8607 275.469 78.8951 275.057 75.9216 274.297C74.5526 273.952 73.2855 273.16 72.0263 272.471C69.602 271.142 66.8325 271.067 64.2592 270.272C61.831 269.523 59.2184 269.351 56.802 268.567C52.5654 267.188 48.4543 267.811 44.2412 268.602C42.3622 268.955 40.3498 268.645 38.4041 268.567C35.8935 268.469 33.3868 268.132 30.8841 268.187C26.7024 268.277 22.4972 268.438 18.4175 270.252C18.6019 271.209 18.7705 272.098 18.9431 272.992C21.2066 273.842 23.4622 274.591 25.6315 275.531C27.7812 276.46 29.9466 277.322 32.1669 278.063C32.6023 278.208 32.971 278.639 33.3162 278.996C34.5794 280.309 35.7562 281.708 37.0821 282.95C39.071 284.812 41.6169 285.631 44.1902 286.254C46.8106 286.881 49.4624 287.477 52.1338 287.783C56.1743 288.245 60.101 287.794 63.5688 285.361C66.1735 283.538 68.9116 281.916 71.5006 280.058C73.2463 278.808 75.4666 278.204 77.4986 277.373C77.9419 277.193 78.4989 277.181 78.9853 277.236C83.6652 277.714 88.3019 277.271 92.9073 276.535C94.9158 276.213 96.9085 275.712 98.8503 275.104C101.322 274.332 103.789 273.803 106.378 274.242C107.198 274.383 108.03 274.516 108.81 274.787C111.56 275.751 114.322 276.347 117.291 276.292C119.81 276.241 122.344 276.695 124.87 276.927C124.902 277.111 124.937 277.291 124.968 277.471C124.345 277.695 123.685 278.177 123.109 278.095C121.32 277.84 119.876 278.698 118.598 279.556C114.604 282.257 110.148 283.773 105.684 285.451C100.357 287.449 94.9432 287.532 89.4435 287.649C86.5838 287.708 83.6691 287.414 80.9742 288.982C80.017 289.538 78.6872 289.527 77.5143 289.636C74.3133 289.926 71.1084 290.169 67.8956 290.361C67.3307 290.397 66.7462 289.997 66.1735 290.017C64.8241 290.067 63.4746 290.22 62.133 290.393C61.5485 290.467 60.9562 290.898 60.4188 290.824C57.92 290.483 55.7467 291.541 53.4833 292.254C52.2751 292.635 51.2394 293.222 50.1371 293.893C45.5553 296.687 41.0912 299.818 35.7287 301.049C33.7242 301.507 31.653 301.676 29.6524 302.15C28.9855 302.307 28.4402 302.993 27.8989 303.393C29.0914 305.556 30.8331 305.979 32.7514 306.359C36.074 307.022 39.3887 307.598 42.7466 308.08C46.6341 308.636 49.5958 307.002 52.8164 305.721C57.002 304.059 61.1876 303.071 65.8401 303.228C70.8534 303.4 76.0432 303.189 80.676 300.594C84.7361 300.441 87.1212 297.443 89.8946 295.135C91.1852 294.061 92.3032 292.787 93.5467 291.651C95.0609 290.271 97.0223 289.942 98.9249 289.456C102.883 288.445 106.837 287.414 110.768 286.301C111.643 286.054 112.49 285.529 113.212 284.957C115.346 283.26 118.319 283.076 120.245 281.018C120.359 280.897 120.512 280.783 120.669 280.744C124.482 279.737 128.134 278.083 132.32 279.149C135.897 280.054 139.643 280.285 143.26 281.077C145.9 281.657 148.572 282.394 151.004 283.538C154.84 285.353 158.638 287.234 162.776 288.233C167.142 289.284 171.544 290.216 175.941 291.133C178.852 291.741 181.774 292.337 184.72 292.732C186.383 292.956 188.106 292.705 189.8 292.78C192.33 292.885 194.872 292.975 197.379 293.277C200.635 293.673 203.863 294.261 207.104 294.79C211.399 295.492 215.722 295.593 220.068 295.515C224.866 295.433 229.581 296.185 234.128 297.659C235.297 298.039 236.434 299.125 237.164 300.179C240.871 305.544 244.264 311.133 248.105 316.4C251.6 321.201 255.53 325.689 259.261 330.321C260.489 331.846 261.622 333.452 262.909 334.93C265.196 337.552 267.507 340.154 269.907 342.674C274.728 347.734 278.863 353.33 282.758 359.099C283.873 360.753 284.477 362.74 285.375 364.543C287.662 369.132 290.545 373.31 294.119 377.006C294.809 377.719 295.492 378.268 296.673 377.845C296.727 376.555 295.837 375.646 295.076 374.893C291.812 371.664 289.525 367.745 287.552 363.724C285.289 359.111 282.574 354.823 279.64 350.646C278.487 349 277.27 347.401 276.18 345.708C280.154 347.996 283.115 351.304 285.763 354.925C286.76 356.289 287.595 357.775 288.552 359.166C289.113 359.973 289.431 361.11 290.753 361.043L290.706 361.074ZM212.925 256.543C211.493 255.736 211.98 254.188 211.889 252.887C212.219 254.125 212.548 255.363 212.882 256.598C213.945 257.151 214.09 258.162 213.87 259.302C213.557 258.385 213.243 257.464 212.925 256.543ZM133.049 149.982C134.395 150.017 135.297 150.852 135.862 152.635C134.242 152.415 133.998 150.828 133.077 149.97C132.673 149.241 132.265 148.512 131.715 147.513C133.151 148.069 133.422 148.865 133.049 149.982ZM202.816 195.796C202.843 196.451 203.349 197.192 202.177 198.062C202.373 197.011 201.961 196.275 202.875 195.832C202.314 193.28 202.483 192.763 204.569 191.352C203.918 192.994 203.369 194.397 202.816 195.796ZM193.025 226.397C190.753 225.699 190.361 223.595 189.569 221.792C189.184 221.545 188.69 221.381 188.431 221.04C187.568 219.903 186.98 218.484 185.94 217.563C183.379 215.294 181.931 212.343 180.429 209.404C179.942 208.447 179.609 207.417 179.205 206.421C179.366 206.323 179.534 206.229 179.699 206.135C180.691 207.495 181.684 208.859 182.676 210.223C182.272 208.6 181.413 207.236 180.735 205.794C179.985 204.211 179.401 202.553 178.742 200.931C177.259 200.045 177.098 198.36 176.353 197.031C177.314 198.242 178.703 199.202 178.695 200.985C179.056 201.271 179.515 201.495 179.754 201.855C181.986 205.234 184.23 208.604 186.372 212.037C188.423 215.314 191.554 217.924 192.354 221.968C193.397 222.019 193.896 221.561 194.009 220.679C194.276 218.578 194.476 216.466 194.778 214.373C194.974 213.017 195.308 211.685 195.578 210.344C195.786 210.383 195.994 210.423 196.202 210.462C195.5 215.4 194.794 220.334 194.029 225.68C192.656 223.924 191.408 222.568 190.436 221.04C189.067 218.896 187.913 216.615 186.646 214.408C185.897 213.107 184.85 212.073 183.422 210.662C183.606 211.634 183.571 212.108 183.779 212.418C184.995 214.236 186.336 215.976 187.497 217.83C188.29 219.096 188.859 220.507 189.526 221.855C191.177 223.011 192.099 224.72 192.985 226.452C194.154 227.177 195.5 227.734 195.782 229.348C194.362 228.85 193.441 227.867 193.025 226.397ZM233.959 294.618C233.288 295.033 232.963 294.265 232.582 294.202C231.939 294.1 231.201 294.625 230.491 294.845C230.37 294.884 230.189 294.676 230.028 294.657C226.953 294.269 223.866 293.52 220.798 293.603C215.953 293.736 211.171 293.677 206.382 292.603C207.896 291.498 209.367 291.028 211.101 291.13C214.145 291.302 217.201 291.749 220.229 291.619C223.807 291.463 227.137 292.392 230.538 293.117C231.237 293.266 231.966 293.281 232.617 293.348C233.512 290.636 231.684 288.735 231.182 286.376C233.363 287.653 236.132 291.788 236.599 294.147C235.716 294.316 234.83 294.484 233.935 294.669C235.077 294.806 236.218 294.943 237.466 295.096C239.698 298.211 241.977 301.519 243.409 305.317C241.757 303.287 240.365 301.084 238.819 298.999C237.803 297.628 237.023 295.852 234.806 295.899C234.532 295.903 234.241 295.064 233.959 294.618ZM149.792 167.171L149.748 167.234C149.713 167.069 149.737 166.822 149.635 166.752C146.693 164.714 144.355 162.049 141.93 159.47C141.134 158.623 140.569 157.761 140.632 156.193C141.515 157.024 142.099 157.608 142.719 158.149C148.022 162.778 153.342 167.387 158.634 172.031C159.583 172.862 160.446 173.79 161.289 174.731C163.278 176.945 165.287 179.144 167.177 181.441C168.429 182.953 169.582 184.564 170.602 186.238C171.657 187.966 172.481 189.831 173.446 191.619C174.199 193.014 175.015 194.378 175.804 195.753C175.623 195.863 175.443 195.973 175.266 196.079C173.791 193.731 172.458 191.27 170.798 189.059C169.025 186.696 166.824 184.662 165.016 182.326C161.944 178.364 160.979 177.318 158.861 176.597C160.473 179.281 163.49 180.68 164.514 183.8C161.325 182.495 149.078 169.907 147.485 166.477C148.219 166.697 149.007 166.932 149.792 167.171ZM134.414 70.6269C136.352 68.099 136.654 64.8853 137.984 62.0831C139.118 59.6885 138.957 56.9687 138.686 54.3467C138.412 51.7092 138.569 49.1735 139.333 46.5712C139.926 44.5567 140.608 42.6089 141.322 40.6415C142.558 37.2279 144.629 34.3866 146.638 31.4707C146.881 31.118 147.281 30.8711 147.724 30.4674C147.956 32.5602 148.164 34.3983 148.36 36.2364C148.478 37.3337 148.67 38.4311 148.67 39.5324C148.67 42.5854 148.505 45.6384 148.568 48.6914C148.599 50.1689 149.258 51.6504 149.16 53.1005C148.897 57.0431 149.756 60.7036 151.439 64.2112C152.134 65.6652 151.882 67.0369 151.294 68.3969C150.961 69.1689 150.517 69.8979 150.078 70.619C148.764 72.7863 147.12 74.8125 146.171 77.1248C144.382 81.4868 141.397 84.9788 138.518 88.5452C136.031 91.6217 133.179 94.4121 131.68 98.441C130.425 93.3579 130.409 88.506 130.947 83.6737C131.351 80.072 131.939 76.4703 133.445 73.1038C133.822 72.2611 134.128 71.3872 134.473 70.521C133.547 70.1997 133.237 70.913 132.951 71.5008C130.484 76.5918 129.934 82.1295 129.487 87.6281C129.295 90.0345 130.025 92.5114 130.331 94.9569C130.441 95.827 130.813 96.7401 129.895 97.7317C129.287 96.4383 128.867 95.2783 128.236 94.2514C125.69 90.105 124.509 85.5666 124.384 80.7539C124.337 79.0961 124.768 77.4187 124.709 75.7609C124.56 71.4616 126.122 67.4759 126.961 63.3725C127.267 61.8793 127.616 60.4763 127.577 58.9282C127.502 56.0712 127.51 53.2024 127.714 50.3531C127.828 48.7816 128.04 47.0101 128.856 45.7364C131.17 42.1151 132.629 37.855 136.376 35.2331C138.404 33.8104 140.381 32.3525 142.844 31.7529C143.539 31.5844 144.19 31.263 145.214 30.8789C144.492 32.1409 144.013 33.2343 143.307 34.1553C141.314 36.742 140.275 39.8263 139.133 42.7657C137.505 46.967 136.984 51.427 137.611 56.0241C137.953 58.5206 137.192 61.0328 136.144 63.4C135.132 65.6887 134.046 67.9932 134.414 70.6269ZM35.3757 70.9326C37.9098 72.7393 40.4126 74.597 42.9938 76.3371C45.6534 78.132 48.3366 79.8996 51.1022 81.5221C53.8285 83.1172 56.6686 84.5085 59.4577 85.9899C58.6064 86.2721 57.869 86.2172 57.1432 86.0918C52.6007 85.3119 47.9835 84.8338 43.4292 85.3628C38.1334 85.9742 33.6183 84.5673 29.3268 81.6357C27.8989 80.6677 26.165 79.927 24.4703 79.6252C22.4854 79.2686 20.9085 78.2104 19.2256 77.356C15.9971 75.7139 12.8511 73.8993 9.72851 72.0691C7.265 70.6229 4.46021 69.6432 2.60865 67.1427C3.07939 66.2453 3.53443 65.3713 3.93456 64.6031C6.37061 64.223 8.64582 65.7279 11.4349 64.4385C10.3954 64.2347 9.83835 64.125 9.28131 64.0192C7.95934 63.7684 6.6099 63.6273 5.32715 63.2471C3.35791 62.6632 2.76949 61.4443 3.88748 59.8649C4.74657 58.6578 5.97833 57.098 7.2297 56.902C9.84227 56.5023 12.3254 55.3422 15.0713 55.597C18.7352 55.9418 22.1677 56.9961 25.4981 58.4814C26.6553 58.9988 27.7969 59.571 28.9972 59.9629C31.3274 60.7232 33.7399 61.2601 36.0426 62.0949C39.1455 63.2236 42.1857 64.8461 44.4334 67.1114C48.47 71.1795 51.9573 75.7962 55.6408 80.2131C56.5274 81.283 57.2766 82.4666 58.0886 83.5992C57.4022 83.7246 57.0452 83.5444 56.696 83.3562C54.5228 82.2001 52.33 81.0792 50.1842 79.8721C48.721 79.0491 47.1911 78.2653 45.928 77.1875C42.8055 74.5186 39.8438 71.6615 35.3757 70.9326ZM87.6037 75.9608C86.9957 75.855 86.3994 75.902 85.96 75.659C81.3194 73.0763 77.5496 69.7411 76.1217 64.3327C75.651 62.5417 74.9802 60.782 74.2231 59.0928C72.7952 55.9026 71.4026 52.7321 71.1829 49.1656C71.128 48.2525 70.7592 47.3472 70.4572 46.4654C69.755 44.4039 69.3902 42.2327 69.6256 40.1281C70.1434 35.4251 71.3124 30.8711 73.3287 26.5365C73.9916 25.106 74.4349 23.5109 73.9955 21.8218C73.8543 21.2692 74.0858 20.6225 74.1799 19.678C74.8821 20.9047 75.3685 21.7591 75.8706 22.6448C77.0632 21.9668 76.4944 21.2927 76.106 20.6656C74.9135 18.7492 74.9056 18.757 75.0429 17.0248C78.695 20.3443 81.339 24.1419 82.8022 28.8331C83.5789 31.3179 84.7165 33.6576 86.6387 35.672C88.1764 37.2828 89.4906 39.4031 90.1221 41.5312C91.3382 45.6267 92.8838 49.6477 91.6873 54.2409C90.4163 59.1359 89.722 64.172 87.0741 68.8828C86.776 67.3191 86.5367 65.9357 86.2386 64.5679C86.0973 63.9134 85.8502 63.2824 85.6384 62.6475C84.7048 59.8649 83.6299 57.1176 82.8689 54.288C82.2295 51.913 82.0765 49.4596 82.2373 46.9474C82.4099 44.2118 82.0333 41.441 82.0137 38.6898C82.0059 37.1456 82.4884 35.5701 82.2922 34.0691C82.0765 32.4152 81.3312 30.828 80.8173 29.2094C80.7153 28.8841 80.6407 28.547 80.5152 28.2335C79.6836 26.1132 78.3498 24.3692 76.4551 23.0171C76.7415 23.9852 77.2161 24.8395 77.7536 25.6508C79.609 28.4647 80.9742 31.5099 81.0997 34.8804C81.2605 39.164 81.0369 43.4633 81.0879 47.7547C81.1115 49.9064 81.0997 52.1246 81.5901 54.1978C82.6139 58.5402 83.7907 62.867 85.2657 67.0761C85.7914 68.5889 86.215 70.0782 86.4975 71.6262C86.6465 72.4493 86.6112 73.3076 86.7838 74.1267C86.9054 74.6793 87.2467 75.1887 87.6037 75.9608ZM178.691 68.7614C179.397 68.875 179.911 68.8397 180.303 69.0435C184.477 71.2304 188.768 73.2174 192.656 75.9255C193.201 76.3096 193.868 76.5722 194.515 76.7368C198.273 77.6852 202.039 78.5866 205.801 79.5116C205.966 79.5507 206.107 79.6566 206.256 79.7389C209.567 81.5182 212.309 83.9833 213.792 87.4086C215.157 90.5635 216.161 93.9183 216.958 97.2731C218.229 102.654 220.774 107.228 224.811 110.955C226.568 112.577 227.977 114.412 229.373 116.661C226.804 116.924 224.458 116.834 222.571 115.474C219.551 113.302 216.761 110.81 213.87 108.458C212.113 107.028 210.269 106.021 207.884 106.938C207.382 107.13 206.633 107.196 206.201 106.957C204.558 106.04 203.157 104.759 202.596 102.925C201.753 100.189 201.651 97.2182 199.862 94.7923C199.678 94.5454 199.701 94.1417 199.611 93.8125C198.309 89.0586 196.924 84.2772 193.774 80.3934C191.04 77.0229 187.694 74.2599 183.775 72.2259C182.064 71.3323 179.926 70.9874 178.691 68.7614ZM141.777 276.691C139.702 276.48 139.694 276.488 138.827 275.594C137.643 274.371 136.446 273.152 135.305 271.891C132.425 268.696 128.718 267.066 124.627 266.09C122.764 265.643 120.967 264.914 119.1 264.491C117.158 264.048 115.985 262.622 114.53 261.489C111.419 259.075 108.202 256.912 104.448 255.344C101.129 253.96 97.9206 252.275 94.4215 251.339C92.4052 250.802 90.3496 250.323 88.2784 250.116C87.4507 250.033 87.0349 249.736 86.6465 249.203C85.454 247.549 84.7557 245.519 82.9277 244.339C82.8022 244.253 82.8689 243.869 82.8218 243.418C85.7521 242.183 88.7609 241.611 91.9697 241.913C98.7052 242.548 105.068 244.801 111.564 246.428C115.86 247.498 119.755 249.685 122.968 252.828C125.498 255.301 127.263 258.507 130.252 260.556C130.319 260.603 130.362 260.686 130.417 260.752C133.618 264.55 136.423 268.653 139.357 272.655C140.189 273.791 140.82 275.073 141.777 276.691ZM135.56 203.168C136.438 205.649 136.862 207.887 136.666 210.188C136.38 213.523 135.293 216.674 135.638 220.209C135.972 223.665 136.792 226.675 138.671 229.493C139.177 230.254 139.8 230.986 140.102 231.825C141.33 235.239 142.472 238.68 143.601 242.125C144.151 243.806 144.535 245.542 145.096 247.219C146.065 250.131 147.924 252.53 149.803 254.897C151.227 256.692 152.71 258.436 154.193 260.18C154.86 260.968 155.59 261.705 156.653 262.849C152.812 262.99 149.596 262.21 146.869 260.878C142.503 258.738 139.408 255.015 137.199 250.578C135.442 247.035 133.414 243.626 131.504 240.161C130.609 238.535 129.311 237.006 128.895 235.27C127.298 228.6 127.636 221.988 130.166 215.533C131.096 213.158 131.79 210.693 132.704 208.318C133.359 206.605 133.908 204.799 135.56 203.168ZM238.29 94.4121C238.125 94.42 237.964 94.4317 237.803 94.4396C237.395 92.3076 237.023 90.1677 236.572 88.0474C236.187 86.2446 235.889 84.3948 235.242 82.6861C234.351 80.3307 233.167 78.0693 232.096 75.8158C231.084 73.6799 230.205 71.5361 229.554 69.3022C228.946 67.2094 228.706 65.1322 229.008 62.8199C229.55 58.7048 230.389 54.3859 227.847 50.4864C227.161 49.44 226.431 48.4132 225.839 47.3119C224.85 45.4738 224.238 43.5378 224.909 41.0021C226.827 42.0093 228.608 42.7774 230.205 43.8238C231.9 44.933 233.429 46.2929 235.018 47.5627C237.717 49.7222 239.804 52.2892 240.969 55.6361C241.738 57.8465 241.989 60.0609 242.271 62.3496C243.036 68.5301 241.742 74.5303 241.04 80.5697C240.534 84.9082 238.968 89.0939 238.623 93.4911C238.596 93.8047 238.403 94.1064 238.29 94.4121ZM274.43 167.637C274.481 167.79 274.528 167.939 274.576 168.092C273.575 168.833 272.492 169.487 271.586 170.33C268.264 173.43 264.262 174.782 259.83 175.154C254.769 175.581 249.701 175.44 244.652 176.593C239.286 177.823 233.688 177.956 228.33 179.469C227.235 179.779 225.882 179.736 224.795 179.391C219.621 177.757 214.447 176.095 209.751 173.277C208.426 172.481 207.088 171.709 205.448 170.745C206.821 170.248 207.751 169.683 208.724 169.597C211.858 169.315 215.004 169.135 218.154 169.064C219.405 169.037 220.696 169.276 221.916 169.597C224.376 170.244 226.831 170.941 229.228 171.78C231.346 172.517 233.422 172.544 235.497 171.858C237.329 171.255 239.117 170.514 240.918 169.813C241.777 169.475 242.605 169.068 243.468 168.743C244.009 168.539 244.57 168.386 245.139 168.284C246.143 168.108 247.155 167.955 248.171 167.853C249.572 167.712 250.98 167.563 252.384 167.535C254.232 167.504 256.103 167.763 257.927 167.571C259.269 167.426 260.422 167.602 261.485 168.304C262.658 169.072 263.862 169.033 265.173 168.841C268.252 168.386 271.347 168.033 274.43 167.637ZM282.825 166.877C282.354 167.633 281.711 167.316 281.083 167.03C280.358 166.701 279.659 166.297 278.91 166.042C277.298 165.498 275.807 166.172 274.23 166.45C270.649 167.081 266.993 167.296 263.364 167.633C262.89 167.677 262.309 167.563 261.909 167.312C259.842 166.019 257.645 166.144 255.354 166.407C253.961 166.567 252.518 166.36 251.105 166.234C248.336 165.991 245.833 167.198 243.181 167.606C243.107 167.618 243.044 167.708 242.966 167.739C241.946 168.139 240.922 168.531 239.898 168.931C239.031 169.264 238.121 169.515 237.309 169.954C235.964 170.683 234.536 170.867 233.049 170.949C229.911 171.129 226.921 170.365 224.117 169.162C220.672 167.684 217.189 167.743 213.619 168.108C212.733 168.198 211.838 168.221 210.948 168.276C213.286 167.547 215.706 166.524 217.981 166.779C221.932 167.214 225.199 165.56 228.467 164.122C232.253 162.46 236.026 161.01 240.13 160.403C241.459 160.207 242.742 159.725 244.06 159.431C247.881 158.572 251.686 157.644 255.53 156.93C259.339 156.217 262.905 157.71 266.518 158.568C269.311 159.231 272.077 160.077 274.548 161.59C277.302 163.268 279.989 165.059 282.825 166.877ZM193.523 162.217C190.851 161.143 188.09 160.191 186.352 157.659C185.936 157.048 185.285 156.519 184.634 156.15C182.861 155.159 181.052 154.234 179.224 153.356C176.898 152.235 174.525 151.008 173.45 148.606C172.05 145.471 169.841 142.904 168.139 140.007C166.675 137.519 164.981 134.987 164.337 132.248C163.6 129.1 163.204 125.71 164.282 122.414C164.592 121.466 164.769 120.38 164.643 119.405C164.216 116.065 164.596 112.797 165.212 109.536C165.342 108.858 165.467 108.184 165.593 107.506C166.228 108.611 166.452 109.673 166.632 110.743C167.146 113.796 167.57 116.865 168.193 119.894C168.437 121.07 169.445 122.136 169.531 123.296C169.688 125.366 170.802 126.722 172.155 128.038C174.089 129.92 176.282 131.609 177.867 133.749C180.935 137.883 183.924 142.096 185.246 147.246C185.83 149.519 186.721 151.792 187.89 153.822C189.565 156.734 191.628 159.427 193.523 162.217ZM137.094 202.365C138.659 202.075 139.181 202.134 139.439 203.055C140.028 205.163 140.495 207.307 140.969 209.447C141.114 210.101 141.012 210.826 141.22 211.453C142.566 215.498 144.735 218.974 148.274 221.506C149.101 222.098 150.043 222.713 150.529 223.552C151.22 224.759 151.875 226.162 151.937 227.506C152.008 229.152 151.553 230.849 151.141 232.476C149.423 239.287 150.608 245.205 155.95 250.151C157.535 251.617 158.606 253.557 158.689 255.994C158.779 258.612 159.355 261.215 159.724 263.86C159.477 263.727 159.049 263.602 158.755 263.331C156.602 261.336 154.385 259.42 152.781 256.88C151.561 254.944 149.878 253.29 148.689 251.339C146.52 247.772 145.002 243.916 144.076 239.812C143.256 236.215 142.127 232.695 139.91 229.65C138.608 227.859 137.584 226.001 137.498 223.685C137.423 221.718 136.98 219.77 136.901 217.802C136.854 216.599 137.046 215.337 137.403 214.181C137.862 212.692 138.431 209.972 138.29 208.62C138.117 207.017 138.008 205.406 137.772 203.815C137.698 203.294 137.313 202.816 137.094 202.365ZM111.792 174.167C112.666 170.953 114.687 170.98 116.985 171.384C118.205 171.596 119.504 171.333 120.739 171.482C122.112 171.651 123.458 172.043 125.039 172.383C123.399 173.747 122.01 174.747 120.822 175.938C119.155 177.608 117.515 179.324 116.083 181.186C113.345 184.744 106.743 184.615 103.287 182.816C99.2348 180.712 95.159 179.152 90.4556 181.111C88.7335 181.829 86.6583 181.711 84.744 181.958C84.336 182.009 83.8849 182.095 83.5161 181.974C80.2288 180.923 76.9533 179.818 73.67 178.748C72.8893 178.497 72.0812 178.329 70.8612 178.011C72.4147 176.553 73.6307 175.315 74.9605 174.222C75.5019 173.775 76.2786 173.5 76.9847 173.399C78.1576 173.222 79.3698 173.12 80.5466 173.222C83.0925 173.442 85.5952 173.379 88.098 172.803C88.808 172.638 89.6043 172.815 90.3575 172.869C91.0204 172.916 91.6795 173.046 92.3463 173.061C94.3783 173.109 96.4143 173.116 98.4463 173.148C101.549 173.191 104.652 173.661 107.747 172.76C108.999 172.395 110.415 172.572 111.792 174.167ZM8.84196 217.242C8.9518 217.164 9.05772 217.085 9.16755 217.007C11.1054 219.135 13.0825 221.232 14.9811 223.391C17.5113 226.276 20.4299 228.756 23.5681 230.885C25.9335 232.487 28.7501 233.405 31.2568 234.819C33.2888 235.968 35.3561 237.186 37.0546 238.754C39.22 240.753 41.052 243.116 42.9938 245.354C44.9551 247.623 47.7796 248.344 50.3764 249.43C51.3022 249.818 52.1848 250.073 52.9969 250.774C55.4604 252.914 58.0573 254.901 60.5953 256.947C59.5911 257.468 58.7516 257.644 57.9553 257.527C56.0292 257.249 54.1227 256.841 52.2084 256.477C46.383 255.367 41.1697 252.855 36.3799 249.442C32.3983 246.608 28.5854 243.539 23.9839 241.674C21.3243 240.6 19.3433 238.672 18.0566 236.097C17.0327 234.055 16.0756 231.982 15.0713 229.928C13.0001 225.699 10.921 221.471 8.84196 217.242ZM63.5374 257.848C63.0392 257.586 62.7803 257.519 62.6312 257.354C61.3485 255.936 60.2462 254.301 58.7751 253.114C56.0331 250.888 53.1224 248.819 49.7096 247.705C47.4422 246.965 45.3317 246.02 43.6567 244.288C42.2013 242.775 40.6636 241.321 39.3769 239.671C36.2897 235.713 31.857 233.761 27.6282 231.476C25.6315 230.395 23.521 229.423 21.7636 228.024C19.4806 226.201 17.3976 224.097 15.4362 221.929C14.7497 221.169 13.3649 220.648 13.5925 219.107C13.9337 219.143 14.2358 219.08 14.4084 219.202C16.4796 220.695 18.849 221.373 21.3282 221.608C23.7211 221.835 25.9492 222.443 28.095 223.532C30.1152 224.551 31.704 225.837 32.5748 228.043C33.2652 229.791 34.4499 231.414 36.3642 231.907C38.3962 232.429 40.5655 232.946 42.6015 232.75C45.2297 232.499 47.2735 233.361 49.2467 234.772C50.9688 236.007 52.6477 237.304 54.3188 238.613C55.0485 239.185 55.9036 239.734 56.3665 240.498C58.3358 243.739 60.7012 246.784 61.5642 250.617C62.0938 252.965 62.8234 255.265 63.5374 257.848ZM78.4244 123.508C78.3145 123.68 78.2008 123.849 78.087 124.021C77.8595 123.998 77.6163 124.017 77.4044 123.943C75.0155 123.077 72.6814 121.991 70.2297 121.38C67.5857 120.721 65.0084 120.18 62.8823 118.26C62.0742 117.531 60.5718 117.551 59.7951 116.806C58.0651 115.148 55.8683 114.909 53.7696 114.396C51.2002 113.765 48.5759 113.353 45.979 112.832C42.9192 112.217 40.1262 110.959 37.3136 109.618C35.3286 108.678 32.9436 107.792 30.8566 108.012C27.9067 108.325 25.2039 107.032 22.3364 107.392C22.0421 107.432 21.6656 106.973 21.3596 106.71C19.1942 104.861 18.8019 102.098 17.5113 99.6364C18.0527 99.5345 18.4136 99.3424 18.6764 99.4365C20.422 100.048 22.1598 100.691 23.8741 101.384C27.7263 102.956 31.6765 103.469 35.8229 102.952C37.8431 102.697 39.9536 102.572 41.9464 102.885C45.5239 103.45 49.078 104.269 52.5732 105.221C54.4287 105.727 56.2528 106.558 57.9003 107.553C59.999 108.827 61.9251 110.387 63.8865 111.876C67.2327 114.404 70.567 116.943 73.8582 119.542C75.4391 120.788 76.9063 122.179 78.4244 123.508ZM241.624 102.047C242.334 100.13 243.158 98.1784 243.778 96.164C245.504 90.5714 248.76 85.9977 253.004 82.0708C255.487 79.7741 258.665 79.0334 261.83 78.2849C265.302 77.4697 268.676 76.4664 271.327 73.8406C272.394 72.7863 273.642 71.9084 274.862 71.0149C279.636 67.5151 285.285 66.5392 291.487 65.1793C290.286 66.5078 289.584 67.468 288.701 68.2166C287.238 69.455 286.348 70.9913 285.391 72.6374C283.963 75.0868 281.974 77.3051 278.996 78.132C277.773 78.4691 276.38 78.4103 275.301 78.9864C271.645 80.9342 267.511 81.6671 263.996 84.1793C261.262 86.1349 258.982 88.3806 256.848 90.83C254.503 93.5264 252.208 96.2385 249.066 98.0373C246.661 99.413 244.19 100.667 241.624 102.047ZM166.891 105.707C169.947 108.451 172.818 111.261 176.318 113.326C178.742 114.764 181.127 116.297 181.464 119.522C181.503 119.902 181.896 120.239 182.108 120.608C183.245 122.579 184.532 124.484 185.473 126.545C186.768 129.379 187.839 132.322 188.914 135.254C189.255 136.178 189.447 137.209 189.451 138.193C189.459 141.395 189.22 144.609 189.329 147.81C189.388 149.551 189.675 151.396 190.357 152.984C191.322 155.225 192.754 157.267 193.962 159.407C194.166 159.768 194.249 160.195 194.394 160.591C191.052 156.868 188.204 152.917 186.701 148.128C185.771 145.145 184.689 142.214 183.645 139.267C183.508 138.879 183.21 138.53 182.927 138.216C180.766 135.834 178.585 133.474 176.427 131.091C174.795 129.292 172.865 127.658 171.665 125.605C169.994 122.748 168.939 119.644 168.778 116.148C168.617 112.703 167.578 109.297 166.891 105.707ZM79.0795 125.804C78.9893 126.047 78.9069 126.294 78.8206 126.537C76.0707 127.063 73.3287 127.611 70.5709 128.097C69.5706 128.274 68.4958 128.536 67.5347 128.348C65.2242 127.897 62.9647 127.176 60.6738 126.616C59.4498 126.318 58.2063 125.981 56.9589 125.922C51.6827 125.667 47.0499 123.959 43.1781 120.29C40.8009 118.037 38.208 116.434 34.6578 116.724C32.9867 116.861 31.0881 116.696 29.6759 115.517C27.6047 113.777 25.6354 111.911 23.674 110.038C23.321 109.701 23.2268 109.089 22.9012 108.345C23.7603 108.533 24.2742 108.592 24.7489 108.76C26.926 109.544 29.111 109.865 31.4647 109.646C32.8259 109.52 34.3009 110.018 35.6464 110.473C37.3999 111.061 39.0592 111.919 40.7813 112.601C44.6021 114.118 48.5955 114.897 52.6634 115.364C56.1194 115.76 58.9517 117.59 61.8977 119.205C64.0317 120.376 66.1892 121.791 68.5076 122.258C71.8929 122.94 74.8468 124.644 78.1105 125.53C78.4322 125.62 78.7539 125.714 79.0795 125.804ZM237.819 99.5227C237.682 99.5932 237.54 99.6599 237.403 99.7265C235.528 98.1745 233.269 96.9008 231.88 94.9961C230.401 92.966 228.851 90.9711 227.42 88.9057C226.266 87.2362 225.396 85.4216 225.239 83.2896C225.082 81.1184 224.799 78.9276 224.285 76.8191C223.791 74.7772 222.92 72.8294 222.238 70.8307C221.688 69.2277 221.198 67.6013 220.625 66.0062C220.088 64.513 219.111 63.1844 219.904 61.3894C220.237 60.637 219.813 59.5592 219.77 58.6304C219.743 58.0464 219.625 57.4076 219.809 56.8863C220.684 54.4447 220.641 51.7052 222.355 49.5105C222.959 48.7306 223.081 47.5784 223.548 46.2459C225.376 49.3616 227.835 51.8698 228.106 55.4206C228.271 57.6114 228.275 59.8649 227.953 62.0322C227.173 67.323 228.722 72.0378 231.056 76.6388C232.092 78.6768 233.371 80.6755 233.947 82.8507C235.414 88.361 236.552 93.9614 237.819 99.5227ZM232.347 117.539C231.794 117.092 231.009 116.759 230.734 116.179C229.381 113.318 226.906 111.456 224.811 109.254C222.516 106.844 220.382 104.292 219.28 101.106C218.115 97.7434 217.154 94.3063 216.122 90.8967C215.596 89.1487 215.267 87.3302 214.278 85.7548C211.999 82.1139 208.959 79.4724 204.703 78.3476C202.404 77.744 200.172 76.8818 197.873 76.2979C194.735 75.5062 191.66 74.6714 189.223 72.3474C188.886 72.026 188.239 72.0574 187.8 71.8183C187.286 71.5361 186.838 71.1285 186.36 70.7758C186.438 70.619 186.513 70.4583 186.587 70.3016C187.399 70.4309 188.207 70.6073 189.023 70.6817C191.306 70.8855 193.637 71.395 195.869 71.1207C198.073 70.8463 200.199 70.6621 202.424 70.8111C206.131 71.0619 209.485 71.8967 212.266 74.5813C215.412 77.6225 218.605 80.6559 220.041 84.8847C221.182 88.2277 221.877 91.7236 222.736 95.1568C223.603 98.6252 224.34 102.129 226.902 104.88C227.82 105.868 228.53 107.04 229.42 108.051C231.75 110.708 231.472 114.223 232.347 117.539ZM87.2781 251.452C89.5612 251.93 91.5461 252.283 93.4957 252.773C95.614 253.31 97.7402 253.878 99.7918 254.619C101.463 255.218 102.981 256.23 104.656 256.814C107.025 257.641 109.136 258.852 111.042 260.443C114.867 263.637 118.974 266.071 124.05 266.964C127.706 267.607 131.162 269.194 133.838 272.035C134.375 272.608 135.148 272.957 135.748 273.486C136.776 274.399 137.945 275.249 138.172 277.224C135.677 276.648 133.143 276.668 131.347 275.527C127.479 273.078 123.423 272.494 119.002 272.404C116.424 272.349 113.773 271.608 111.631 269.872C109.662 268.277 107.751 266.604 105.778 265.008C102.695 262.52 99.4819 260.278 95.6533 258.973C93.582 258.268 91.5579 257.284 89.7298 256.092C88.3686 255.207 87.0741 253.941 87.2781 251.452ZM118.029 110.7C114.938 109.877 112.431 108.874 110.097 107.467C109.548 107.142 109.159 106.499 108.795 105.934C106.543 102.47 105.633 98.4763 104.695 94.5611C104.032 91.8098 103.668 88.8861 104.197 86.033C104.44 84.724 104.013 83.8775 103.107 83.1485C101.608 81.9493 100.631 80.4757 100.29 78.5592C100.184 77.9753 99.5721 77.4305 99.5956 76.8897C99.7447 73.4957 100.066 70.1135 100.219 66.7234C100.314 64.5287 100.219 62.3222 100.212 59.5122C100.808 60.5586 101.165 61.0367 101.369 61.5697C103.091 66.1904 105.244 70.5955 107.83 74.8047C110.113 78.5161 110.568 82.6626 110.619 86.9697C110.674 91.9274 111.47 96.8538 113.349 101.471C114.569 104.473 116.271 107.279 118.029 110.7ZM119.39 110.175C118.927 109.759 118.617 109.595 118.484 109.34C117.393 107.228 116.436 105.045 115.24 102.995C114.145 101.11 113.726 99.0838 113.286 96.9949C112.313 92.3703 111.76 87.7182 111.733 82.9878C111.725 81.5926 111.745 80.0406 111.164 78.8375C109.94 76.2861 108.72 73.7151 107.088 71.3519C105.962 69.7255 105.091 67.8599 104.421 65.9905C103.448 63.2785 102.11 60.7702 100.725 58.2737C100.478 57.8269 100.29 57.3488 99.8232 56.3494C102.981 58.2189 105.613 59.7434 108.19 61.3542C108.638 61.6324 108.971 62.2595 109.128 62.7925C110.56 67.6601 113.753 71.446 116.86 75.2514C118.3 77.0151 118.986 78.81 118.864 81.0792C118.637 85.2139 118.021 89.3447 118.551 93.5029C118.656 94.3416 118.625 95.1999 118.625 96.0464C118.645 100.259 117.884 104.52 119.363 108.654C119.488 109.011 119.386 109.45 119.39 110.175ZM41.6679 182.804C41.4717 182.675 41.2795 182.546 41.0834 182.416C41.7777 180.308 42.3504 178.145 43.2095 176.107C43.8528 174.574 44.9591 173.285 46.4576 172.411C49.1251 170.859 51.8083 169.33 54.4248 167.692C55.3976 167.085 56.2528 166.254 57.0569 165.423C58.5241 163.922 59.7637 162.194 61.7211 161.234C62.2389 160.979 62.7803 160.626 63.102 160.168C65.7263 156.429 69.2607 153.979 73.5601 152.541C74.529 152.216 75.447 151.734 76.4159 151.412C77.577 151.032 78.7696 150.738 80.2367 150.33C77.4476 155.3 73.8308 158.698 69.045 160.936C67.2954 161.755 65.8283 163.134 64.9104 164.949C63.7649 167.195 62.6351 169.452 61.4505 171.678C60.9405 172.642 60.4148 173.634 59.7127 174.453C56.8177 177.823 53.0675 179.414 48.6543 179.379C46.5596 179.363 44.9002 180.214 43.3782 181.535C42.8447 181.997 42.2406 182.381 41.6679 182.804ZM276.188 112.573C276.474 113.22 276.992 113.816 276.906 114.302C276.694 115.442 276.345 116.622 275.772 117.625C274.356 120.133 272.693 122.497 271.3 125.017C269.868 127.607 268.636 130.308 267.338 132.973C267.118 133.419 267.138 134.09 266.808 134.364C264.168 136.578 261.972 139.529 258.496 140.442C255.985 141.101 253.832 142.371 251.537 143.421C247.904 145.079 244.154 146.2 239.902 145.494C240.251 144.816 240.392 144.142 240.804 143.809C242.503 142.441 243.46 140.407 245.598 139.345C247.74 138.283 249.399 136.292 251.431 134.96C254.581 132.898 258.586 132.216 261.03 128.987C261.163 128.81 261.685 128.979 261.976 128.857C262.434 128.665 262.964 128.458 263.266 128.097C264.619 126.447 265.989 124.801 267.189 123.041C268.652 120.909 269.354 118.291 271.614 116.653C273.108 115.572 274.387 114.2 276.188 112.573ZM68.6056 178.133C68.5311 178.039 68.4605 177.945 68.386 177.851C69.347 176.35 70.1826 174.747 71.3045 173.379C72.4186 172.027 73.6817 170.683 75.1488 169.762C76.2864 169.048 77.1416 168.319 77.7418 167.14C78.4244 165.795 79.4678 164.902 81.0801 164.678C84.9127 164.142 88.7335 164.408 92.4562 165.184C96.4417 166.015 100.31 166.399 104.252 165.086C105.193 164.772 106.264 164.839 107.276 164.737C111.231 164.345 114.84 165.737 118.386 167.124C120.304 167.876 122.01 169.162 123.815 170.208C122.975 170.663 122.313 170.753 121.673 170.671C119.986 170.463 118.307 170.181 116.628 169.926C114.946 169.675 113.278 169.671 111.584 169.938C109.093 170.33 106.582 170.6 104.083 170.941C103.762 170.984 103.409 171.09 103.154 171.278C101.588 172.434 100.031 172.944 98.2541 171.643C97.9167 171.4 97.2577 171.443 96.7909 171.549C94.1744 172.152 91.6206 171.886 89.063 171.204C88.5255 171.059 87.7763 170.973 87.3566 171.235C84.9872 172.697 82.4452 172.07 79.919 172.121C77.1416 172.176 74.1878 171.858 72.3087 174.919C71.4889 176.248 69.8648 177.079 68.6056 178.133ZM240.404 110.998C240.239 108.509 240.098 106.424 241.589 104.786C242.66 103.606 243.911 102.529 245.245 101.659C246.865 100.597 248.811 100.005 250.341 98.8486C252.216 97.426 253.82 95.6467 255.515 93.9889C257.519 92.0254 259.461 89.9992 261.493 88.067C262.76 86.86 264.098 85.7195 265.486 84.6574C268.024 82.7174 271.261 82.3333 274.066 80.9499C275.411 80.2875 276.972 80.0328 278.447 79.6526C280.267 79.1863 282.092 78.814 283.28 77.0974C283.657 76.5487 284.355 76.2234 285.238 75.5376C284.814 78.7395 283.159 80.8245 281.825 83.0231C280.907 84.5359 279.408 85.3511 277.624 85.5314C274.054 85.8919 271.312 88.0161 268.754 90.152C266.699 91.8725 265.177 94.2475 263.486 96.3795C262.293 97.8767 260.956 99.1347 259.12 99.7735C256.895 100.55 254.683 101.388 252.424 102.054C247.504 103.505 243.589 106.287 240.404 110.998ZM79.9386 148.488C79.9778 148.645 80.017 148.802 80.0562 148.955C78.4793 149.492 76.8474 149.915 75.3293 150.589C71.9557 152.09 68.1859 152.78 65.5576 155.821C64.3769 157.185 62.4037 157.812 61.6584 159.705C61.525 160.042 60.9837 160.207 60.6502 160.473C59.595 161.331 58.3632 162.049 57.5394 163.091C54.9818 166.317 51.4984 168.206 48.0424 170.216C46.3477 171.208 44.2687 171.807 43.3664 173.924C42.7427 175.393 41.8914 176.757 41.1422 178.168C41.048 175.413 41.103 172.791 42.6642 170.357C44.1745 167.998 45.4141 165.447 46.6302 162.915C47.4814 161.147 48.772 159.854 50.4039 158.921C51.9456 158.043 53.6284 157.412 55.2289 156.625C56.9667 155.77 58.7163 154.912 60.4031 153.956C62.9097 152.537 65.1418 150.746 67.9544 149.743C71.332 148.535 74.8625 148.916 78.2518 148.104C78.7539 147.983 79.3737 148.347 79.9386 148.488ZM27.5223 271.122C28.0087 270.993 28.3186 270.852 28.6324 270.84C31.8138 270.699 34.9873 271.557 38.1805 270.875C38.5728 270.789 39.0278 271.028 39.4476 271.017C41.9464 270.942 44.4452 270.875 46.944 270.727C49.2231 270.589 51.5572 269.927 53.7618 270.244C58.681 270.962 63.557 272.051 68.4016 273.196C69.9629 273.564 71.4222 274.493 72.701 275.833C71.838 276.104 71.1829 276.276 70.5513 276.507C65.8087 278.232 60.968 278.639 56.0096 277.659C52.6909 277.005 49.3997 276.554 45.9868 277.283C42.6995 277.985 39.7928 276.97 37.29 274.669C36.4427 273.893 35.3522 273.262 34.2616 272.902C32.1198 272.2 29.9034 271.734 27.5223 271.122ZM58.5084 128.223C58.4652 128.336 58.426 128.454 58.3868 128.571C56.8216 128.869 55.2682 129.336 53.6912 129.422C51.9377 129.52 50.1528 129.351 48.3954 129.147C46.8891 128.971 45.3474 128.748 43.9195 128.25C41.7698 127.501 39.6868 126.541 37.6117 125.593C34.1518 124.006 30.688 122.422 27.283 120.717C24.1016 119.126 21.5204 116.963 20.32 113.381C19.4963 110.939 18.4293 108.556 17.2407 106.264C16.4365 104.712 15.291 103.316 14.1887 101.937C13.4002 100.953 12.3215 100.197 11.5801 99.1896C10.8426 98.1902 9.32839 98.1079 9.04595 96.4658C8.84981 95.3214 7.66905 94.3651 6.97864 93.2913C6.72758 92.8993 6.62559 92.4134 6.22154 91.367C7.93188 92.625 9.19894 93.448 10.3365 94.42C12.6118 96.3678 14.6202 98.5508 15.7578 101.388C16.0442 102.094 16.0991 102.932 16.5149 103.532C19.5355 107.878 21.7636 112.91 26.773 115.56C28.2755 118.652 31.2293 117.97 33.8105 118.288C34.7402 118.397 35.6778 118.566 36.5643 118.844C38.106 119.326 39.4946 119.965 40.695 121.223C43.9666 124.656 48.0267 126.659 52.8007 127.204C54.719 127.423 56.6058 127.874 58.5084 128.223ZM242.381 139.87C242.75 138.475 242.852 137.636 243.189 136.907C244.115 134.92 245.009 132.898 246.167 131.048C247.053 129.626 248.356 128.469 249.411 127.145C251.102 125.021 253.228 123.461 255.758 122.579C257.731 121.893 259.728 121.168 261.685 120.584C264.886 119.632 266.663 117.171 268.86 115.215C270.578 113.686 271.99 111.907 274.509 111.394C273.991 113.197 272.555 114.149 271.386 115.336C270.213 116.532 269.033 117.758 268.079 119.126C266.581 121.278 265.259 123.555 263.878 125.785C262.756 127.599 260.775 128.277 259.116 129.371C257.096 130.699 255.169 132.451 252.933 133.114C250.392 133.874 248.72 135.567 246.743 136.982C245.472 137.895 244.139 138.714 242.381 139.87ZM211.328 3.43317C212.089 4.55404 212.839 5.67884 213.611 6.79187C215.698 9.79002 217.64 12.8705 218.758 16.3703C219.445 18.5179 220.421 20.4187 222.049 22.0334C222.995 22.9701 224.081 24.091 224.372 25.3059C225.309 29.2564 224.988 33.2382 223.724 37.1182C223.638 37.3886 223.36 37.5963 223.183 37.8158C220.139 35.6838 218.476 32.8698 218.009 29.3583C217.534 25.7723 216.095 22.5586 214.231 19.5134C213.706 18.6512 213.227 17.742 212.584 16.9738C209.108 12.8156 210.387 8.1479 211.328 3.43317ZM25.2588 272.627C25.3059 272.443 25.3569 272.255 25.404 272.071C27.0829 272.557 28.7344 273.207 30.4487 273.49C32.873 273.893 34.9991 274.626 36.9487 276.264C38.0275 277.166 39.1416 278.451 40.8441 278.424C42.7623 278.396 44.6806 278.302 46.5988 278.357C49.2231 278.432 51.8828 278.388 54.4601 278.816C59.3047 279.611 64.0356 279.701 68.6998 277.946C69.3117 277.718 69.9982 277.683 71.0966 277.475C69.5314 278.698 68.3742 279.764 67.0601 280.587C65.1222 281.802 63.1647 283.076 61.0464 283.895C58.528 284.867 56.0213 286.039 53.0557 285.29C49.9292 284.502 46.6576 284.33 43.5116 283.62C41.3658 283.135 39.4397 282.041 37.9098 280.317C36.9213 279.204 35.4267 278.459 34.6853 277.232C33.6614 275.535 32.2139 275.394 30.5977 275.265C30.3663 275.245 30.1545 275.026 29.9269 274.916C28.3696 274.152 26.8162 273.388 25.2588 272.627ZM36.3878 304.898C36.9487 303.757 37.8745 303.773 38.6787 303.761C40.1144 303.737 41.5541 303.902 42.9898 303.894C43.7862 303.89 44.6296 303.835 45.371 303.573C47.3637 302.863 49.3173 302.037 51.2865 301.261C51.7573 301.072 52.2868 300.978 52.7026 300.708C55.9115 298.646 59.3204 297.063 63.1098 296.44C65.5419 296.04 67.9898 295.503 70.4336 295.484C76.2198 295.437 82.0137 295.676 87.8822 294.081C87.3879 294.657 87.0427 295.111 86.6387 295.499C86.3366 295.793 85.9483 295.997 85.5991 296.24C81.6803 298.956 77.1102 299.634 72.5716 300.34C70.6651 300.637 68.6998 300.786 66.7737 300.704C63.2824 300.555 59.8931 300.716 56.5313 301.88C54.9229 302.436 53.4754 303.232 51.9495 303.922C46.9558 306.187 41.7306 305.674 36.3878 304.898ZM92.107 289.695C92.2051 289.942 92.2993 290.193 92.3973 290.444C90.9184 291.22 89.4513 292.011 87.9646 292.772C84.7557 294.418 81.2135 294.104 77.8085 294.3C74.5094 294.492 71.23 293.802 67.8642 294.586C64.5809 295.354 61.1719 295.37 58.0416 296.997C55.1112 298.525 51.8867 299.477 48.9485 300.982C45.7907 302.601 42.5269 302.828 39.1063 302.577C39.7378 302.162 40.4165 301.915 41.0873 301.649C41.9346 301.312 42.829 301.061 43.6096 300.602C46.5282 298.889 49.3447 296.985 52.3261 295.39C54.9936 293.959 57.869 293.222 60.913 292.65C64.5769 291.957 68.2173 292.117 71.838 291.917C75.7922 291.702 79.7581 292.121 83.3514 289.958C83.4887 289.879 83.6652 289.825 83.8221 289.821C86.5838 289.774 89.3454 289.734 92.107 289.695ZM203.353 189.338C203.922 183.114 201.788 177.435 200.325 171.408C204.785 172.536 208.386 174.68 212.133 177.102C211.646 178.16 211.387 179.293 210.716 180.081C208.704 182.456 206.523 184.682 204.981 187.433C204.581 188.15 203.903 188.711 203.353 189.338ZM175.486 288.982C171.967 288.155 168.374 287.806 164.883 286.724C161.474 285.666 157.818 285.314 154.825 282.833C159.167 282.625 163.204 283.515 167.307 284.248C170.637 284.843 173.501 285.753 175.572 288.504C175.6 288.539 175.553 288.629 175.486 288.982ZM181.594 289.676C187.29 288.327 198.505 287.344 206.15 290.64C205.711 290.867 205.346 291.2 204.97 291.224C202.867 291.361 200.756 291.549 198.658 291.474C195.955 291.38 193.256 291.11 190.569 290.82C187.568 290.495 184.583 290.06 181.594 289.676ZM41.4599 255.708C40.4008 255.63 39.3338 255.454 38.2786 255.493C34.3832 255.642 31.8256 253.298 29.4444 250.739C28.6089 249.841 28.1735 248.56 28.907 247.208C33.3908 249.551 36.6114 253.78 41.4599 255.708ZM113.8 147.626C113.879 147.411 113.957 147.191 114.035 146.968C115.291 147.105 116.601 147.062 117.797 147.415C119.743 147.983 121.587 148.876 123.513 149.515C125.6 150.213 127.714 150.832 129.844 151.373C131.402 151.769 132.167 152.756 132.814 154.759C129.887 153.419 127.471 152.243 125 151.204C123.391 150.526 121.712 150.009 120.045 149.48C117.974 148.829 115.883 148.245 113.8 147.626ZM250.831 315.656C254.181 319.473 257.527 322.922 260.438 326.704C263.345 330.478 267.346 333.452 269.005 338.167C262.89 331.156 256.97 323.995 251.066 316.812C250.894 316.6 250.937 316.208 250.831 315.656ZM202.212 201.538C202.106 206.837 198.901 210.481 197.108 214.667C197.932 210.109 198.434 205.426 202.212 201.538ZM123.799 140.368C123.293 141.822 122.528 141.375 121.693 141.05C118.962 139.996 116.22 138.973 113.463 138.001C112.117 137.523 110.725 137.194 109.352 136.798C109.422 136.566 109.489 136.331 109.56 136.1C114.424 136.86 119.174 138.02 123.799 140.368ZM93.2172 106.73C95.8298 111.151 100.019 113.726 102.322 117.935C99.3917 115.419 96.1044 113.338 93.735 110.191C93.0132 109.238 92.6641 108.384 93.2172 106.73ZM45.8299 257.358C51.5415 258.448 57.257 259.533 62.9725 260.623C62.9372 260.807 62.898 260.991 62.8587 261.176C57.0766 260.396 51.2002 260.102 45.8299 257.358ZM135.164 154.814C139.377 156.272 140.844 160.305 143.598 163.228C143.021 163.232 142.507 163.095 142.205 162.766C141.071 161.543 140.024 160.246 138.918 158.992C137.678 157.589 136.415 156.205 135.164 154.814ZM195.574 224.508C197.689 225.75 198.877 227.788 199.309 230.904C197.281 230.038 195.731 227.385 195.574 224.508ZM206.343 190.764C206.052 190.251 205.707 189.875 205.786 189.73C206.535 188.362 207.311 187.006 208.174 185.701C208.484 185.238 209.037 184.94 209.481 184.568C209.598 184.678 209.716 184.788 209.838 184.901C208.743 186.731 207.653 188.562 206.343 190.764ZM219.374 160.943C217.938 164.455 217.938 164.455 216.707 164.243C217.648 163.079 218.511 162.01 219.374 160.943ZM211.258 249.257C211.109 249.352 210.964 249.442 210.818 249.532C210.152 248.454 209.485 247.372 208.567 245.879C210.665 246.632 210.716 248.101 211.258 249.257ZM114.49 274.124C112.458 274.571 112.458 274.571 111.184 273.564C113.157 272.87 113.157 272.87 114.49 274.124ZM126.329 275.249C126.29 275.465 126.251 275.68 126.212 275.9C125.215 275.633 124.215 275.371 123.223 275.104C123.266 274.932 123.313 274.755 123.36 274.583C124.348 274.806 125.341 275.026 126.329 275.249ZM218.146 266.38C217.966 266.439 217.785 266.494 217.609 266.553C217.22 265.62 216.836 264.687 216.452 263.758C216.597 263.699 216.742 263.645 216.887 263.586C217.307 264.519 217.726 265.451 218.146 266.38ZM215.918 262.195C215.714 262.265 215.514 262.34 215.314 262.41C215.122 261.779 214.93 261.148 214.737 260.517C214.82 260.49 214.898 260.462 214.981 260.435C215.294 261.023 215.604 261.611 215.918 262.195ZM147.187 175.993C147.214 175.836 147.238 175.683 147.261 175.527C147.858 175.636 148.45 175.738 149.038 175.872C149.082 175.879 149.07 176.111 149.101 176.405C148.427 176.26 147.807 176.126 147.187 175.993ZM118.441 274.661C118.484 274.438 118.531 274.215 118.578 273.991C119.159 274.12 119.739 274.246 120.32 274.375C120.292 274.532 120.265 274.693 120.237 274.849C119.637 274.787 119.037 274.724 118.441 274.661ZM271.531 340.985C271.684 340.887 271.841 340.789 271.998 340.691C272.391 341.271 272.783 341.851 273.175 342.431C273.05 342.513 272.92 342.6 272.791 342.682C272.371 342.118 271.951 341.553 271.531 340.985ZM212.313 181.409C212.419 181.511 212.525 181.613 212.631 181.715C212.187 182.256 211.748 182.797 211.305 183.337C211.179 183.224 211.058 183.114 210.94 183.004C211.395 182.471 211.854 181.938 212.313 181.409ZM166.475 185.732C166.314 185.857 166.154 185.983 165.997 186.108C165.62 185.583 165.247 185.058 164.871 184.529C164.985 184.447 165.098 184.364 165.212 184.278C165.632 184.764 166.056 185.246 166.475 185.732Z" fill="#3D3D3D"/>
</svg>
