<svg width="267" height="272" viewBox="0 0 267 272" fill="none" xmlns="http://www.w3.org/2000/svg">
<path d="M7.48813 271.17C7.0174 256.927 7.01496 242.565 9.28324 228.38C11.6613 214.177 16.7247 200.637 21.8222 187.217C24.4734 180.548 26.8222 173.716 30.7027 167.423C34.5929 161.127 39.8685 155.797 45.3246 150.856C56.1904 140.882 67.9684 131.797 80.4927 123.797L80.6049 123.947C68.8074 132.856 57.4904 142.262 46.7246 152.213C41.3953 157.207 36.149 162.316 32.2758 168.309C28.4466 174.312 25.8124 181.045 22.8222 187.587C19.9369 194.166 17.2247 200.826 15.1783 207.683C13.0759 214.527 11.7735 221.545 10.8832 228.596C8.9247 242.673 8.52471 256.918 7.68569 271.172L7.48813 271.17Z" fill="#373434"/>
<path d="M73.8878 135.169C72.0025 134.787 69.9903 134.05 68.861 132.354C67.8001 130.588 68.1684 128.461 68.6318 126.66C69.1464 124.82 69.8757 123.08 70.6269 121.374C71.3903 119.616 72.3879 117.934 73.6244 116.38C74.883 114.855 76.4439 113.456 78.3366 112.524C80.2293 111.577 82.3049 111.192 84.278 110.955C88.2219 110.522 92.1731 110.455 96.1048 110.72C97.0829 110.777 98.0707 110.849 99.0414 110.941L100.507 111.098C100.988 111.169 101.473 111.1 102.08 111.39C102.697 111.717 102.81 112.454 102.705 112.931C102.617 113.438 102.388 113.903 102.151 114.306C101.69 115.122 101.263 115.956 100.771 116.762C98.8951 120.017 96.8463 123.214 94.3658 126.135C91.8609 128.996 89.0122 131.737 85.4293 133.531C83.6659 134.434 81.7366 135.077 79.7707 135.376C77.8049 135.644 75.8025 135.588 73.8878 135.169ZM73.9293 134.989C75.8195 135.381 77.8122 135.383 79.6634 134.904C81.5122 134.402 83.2415 133.596 84.7829 132.548C87.8658 130.452 90.5024 127.789 93.1414 125.137C95.7487 122.47 98.2438 119.625 100.222 116.467C100.712 115.677 101.19 114.878 101.615 114.055C102.049 113.316 102.341 112.249 101.741 111.957C101.468 111.812 100.927 111.819 100.446 111.782L98.9951 111.738C98.0219 111.72 97.0512 111.71 96.0804 111.731C92.2024 111.819 88.3366 112.143 84.539 112.676C82.6561 112.952 80.8488 113.378 79.3049 114.21C77.7561 115.05 76.3976 116.218 75.2683 117.589C74.1025 118.939 73.1757 120.501 72.3415 122.106C71.5074 123.771 70.583 125.386 69.8586 127.038C69.1684 128.671 68.6293 130.491 69.3488 132.115C70.1244 133.727 72.0805 134.593 73.9293 134.989Z" fill="#373434"/>
<path d="M55.7438 134.824C56.895 132.488 58.2242 130.244 59.5316 128.003C60.1925 126.907 60.7803 125.801 61.1145 124.684C61.4608 123.585 61.4096 122.433 61.2828 121.203C61.1462 119.971 60.9364 118.667 60.995 117.303C61.0559 115.944 61.3486 114.652 61.6535 113.401C62.2925 110.946 62.8511 108.301 61.7047 106.051L62.3608 106.005L61.195 110.704C60.7925 112.282 60.2023 113.899 59.212 115.338C58.2755 116.767 57.1145 117.964 56.2486 119.238C55.3584 120.517 54.8438 121.793 54.7974 123.226C54.7584 124.654 55.0267 126.218 55.2438 127.823L55.8218 132.603C56.0291 134.19 56.1584 135.796 56.3096 137.392C56.3901 138.198 56.4194 138.958 56.7096 139.629C56.8486 139.956 57.112 140.274 57.3389 140.633C57.5657 140.976 57.7681 141.469 57.5779 141.898L57.3901 141.849C57.4706 141.087 56.6194 140.677 56.1194 139.933C55.5974 139.173 55.4486 138.309 55.2706 137.539C54.9096 135.968 54.534 134.4 54.2316 132.826L53.2926 128.1C53.0365 126.531 52.6316 124.926 52.7121 123.145C52.734 121.339 53.6121 119.549 54.6584 118.213C55.7121 116.843 56.8755 115.677 57.834 114.454C59.712 112.037 60.6218 108.856 61.6852 105.827L61.9852 104.966L62.3437 105.779C63.4754 108.336 62.7998 111.035 62.5413 113.544C62.3974 114.813 62.2876 116.075 62.3901 117.276C62.5071 118.476 62.8267 119.694 63.0071 121.012C63.1876 122.311 63.2071 123.785 62.7267 125.142C62.2852 126.49 61.5023 127.634 60.7462 128.712C59.1803 130.82 57.6267 132.912 55.9072 134.925L55.7438 134.824Z" fill="#373434"/>
<path d="M63.3485 166.669C65.585 169.901 67.8436 173.144 70.7362 175.766C72.1777 177.072 73.7874 178.175 75.5069 179.057C77.246 179.917 79.1264 180.502 81.0679 180.813C84.9654 181.425 88.9849 181.22 92.9239 180.444C96.8776 179.705 100.765 178.493 104.621 177.208L104.502 177.802C99.0654 173.048 92.7313 169.226 86.0289 166.298C84.363 165.559 82.6484 164.907 80.9386 164.246C79.2216 163.603 77.5118 162.977 75.7899 162.643C74.063 162.288 72.3826 162.304 70.8362 162.912C69.2631 163.484 67.8655 164.575 66.185 165.536C65.3484 166.015 64.4192 166.45 63.3997 166.718C62.3728 166.973 61.446 167.072 60.4753 167.158C58.5485 167.307 56.6607 167.303 54.8265 167.305C52.9802 167.321 51.1778 167.383 49.4509 167.697C47.6949 168.024 45.9022 168.45 44.168 168.977C37.2315 171.115 30.734 174.699 25.4657 179.656L25.3218 179.53C30.0266 174.045 36.4876 169.867 43.6071 167.429C45.3949 166.812 47.1851 166.298 49.0631 165.882C50.9851 165.499 52.9119 165.412 54.79 165.366C56.6631 165.31 58.5094 165.345 60.2924 165.197C61.1704 165.135 62.0875 165.011 62.8728 164.833C63.6509 164.647 64.4143 164.315 65.1777 163.905C66.6997 163.092 68.2314 161.936 70.1606 161.261C72.0923 160.542 74.2972 160.581 76.1752 161.042C78.0874 161.493 79.8216 162.214 81.5337 162.926C83.2484 163.649 84.924 164.446 86.5703 165.283C93.1776 168.637 99.2825 172.734 105.002 177.268L105.468 177.643L104.885 177.864C101.087 179.309 97.2947 180.838 93.2605 181.822C89.241 182.785 84.924 183.195 80.7557 182.372C76.5874 181.63 72.6265 179.567 69.8509 176.59C66.9801 173.686 64.968 170.233 63.1777 166.766L63.3485 166.669Z" fill="#373434"/>
<path d="M59.2465 165.734C61.2733 165.02 62.8879 163.728 64.1733 162.247C65.4782 160.756 66.3709 158.992 67.1952 157.174C68.0489 155.364 68.8562 153.466 69.544 151.542C70.2196 149.61 70.7562 147.638 71.1903 145.65L71.8172 146.021C69.9245 147.597 68.083 149.223 66.1587 150.75C64.2148 152.256 62.3099 153.807 60.3172 155.256C58.3611 156.711 56.4026 158.077 54.9026 159.83C53.4392 161.567 52.3343 163.689 52.3807 166.068L52.1953 166.1C51.427 163.735 52.1929 161.056 53.6099 158.962C55.0538 156.834 57.0489 155.166 59.0367 153.705C61.0099 152.233 63.0757 150.874 65.0952 149.46C67.1294 148.073 69.2562 146.779 71.3342 145.436L72.3098 144.802L71.9611 145.816C71.2855 147.765 70.7123 149.73 70.2879 151.736C69.9001 153.761 69.5416 155.792 68.7904 157.778C68.0245 159.736 66.8708 161.641 65.2562 163.175C63.6611 164.691 61.5197 165.799 59.2928 165.916L59.2465 165.734Z" fill="#373434"/>
<path d="M43.1342 167.711C43.2879 170.113 44.7732 172.034 46.1634 173.983C47.5708 175.934 49.1317 177.754 50.7146 179.571C52.2781 181.4 53.9439 183.208 55.8805 184.729C57.8341 186.242 60.0366 187.442 62.3341 188.405L61.5829 188.997C60.639 186.698 60.1219 184.293 59.6024 181.96C59.0805 179.636 58.4585 177.378 57.4268 175.354C56.4122 173.336 54.8829 171.544 52.9537 170.166C51.0293 168.766 48.7439 167.766 46.2561 167.273L46.2683 167.091C48.861 166.976 51.5073 167.676 53.8024 168.971C56.078 170.274 58.0707 172.17 59.2902 174.474C60.5195 176.777 61.0073 179.26 61.4097 181.647C61.8219 184.038 62.0463 186.396 62.5951 188.702L62.8853 189.9L61.8439 189.292C59.6414 188.018 57.5585 186.625 55.4951 185.206C53.4366 183.775 51.3512 182.331 49.5073 180.606C47.6952 178.857 46.1537 176.865 44.8781 174.741C43.6537 172.688 42.3537 170.187 42.9366 167.694L43.1342 167.711Z" fill="#373434"/>
<path d="M87.4941 174.967C85.2087 175.208 82.9355 174.563 81.0307 173.52C80.0795 172.958 79.2697 172.207 78.3404 171.666C77.4185 171.104 76.4185 170.7 75.3795 170.357C73.299 169.703 71.3527 168.92 69.3722 168.314C67.421 167.616 65.482 167.056 63.2844 166.633L63.2722 166.448C65.421 165.674 67.8624 165.852 70.0258 166.448C72.1771 167.125 74.1575 168.157 75.8892 169.473C76.7697 170.099 77.6575 170.707 78.6502 171.14C79.6282 171.583 80.7282 171.804 81.738 172.145C83.7331 172.896 85.5404 173.785 87.5355 174.785L87.4941 174.967Z" fill="#373434"/>
<path d="M63.6752 155.488C63.3069 156.64 62.7947 157.437 62.063 158.133C61.663 158.453 61.1094 158.709 60.7874 159.119C60.4533 159.519 60.3338 160.028 60.2655 160.551C60.1752 161.618 59.8777 162.629 59.2948 163.617C58.6557 164.532 57.5435 165.442 56.2289 165.423L56.1362 165.264C56.7509 164.255 57.0533 163.497 57.485 162.641C57.9801 161.841 58.4777 160.934 59.2923 160.137C59.6752 159.72 60.0289 159.31 60.246 158.819C60.4655 158.338 60.5069 157.727 60.7508 157.225C61.3069 156.267 62.2801 155.546 63.5484 155.345L63.6752 155.488Z" fill="#373434"/>
<path d="M56.1611 180.863C54.7489 179.981 53.744 178.896 52.9781 177.634C52.6269 176.977 52.4245 176.217 52.0099 175.6C51.6074 174.971 51.0391 174.469 50.4269 173.994C49.1757 173.082 48.1172 172.032 47.1123 170.945C46.1635 169.807 45.4123 168.715 44.3879 167.501L44.4831 167.344C46.1904 167.538 47.605 168.607 48.6806 169.659C49.7074 170.781 50.6147 171.986 51.2708 173.368C51.6196 174.047 51.9977 174.697 52.5196 175.238C53.0294 175.796 53.7464 176.21 54.2928 176.74C55.3245 177.862 56.0464 179.193 56.3196 180.767L56.1611 180.863Z" fill="#373434"/>
<path d="M22.8585 149.052C25.7072 146.472 28.4096 143.775 30.8731 140.919C33.2682 138.046 35.4828 134.964 36.1243 131.465C36.4413 129.719 36.5194 127.883 36.7218 125.99C36.9267 124.103 37.2974 122.235 37.8194 120.415C38.795 116.75 40.2584 113.272 41.5096 109.743L42.0681 110.1C36.8828 114.129 31.8609 118.526 28.3999 123.896C26.6853 126.575 25.2975 129.426 24.6023 132.433C23.8463 135.413 23.9853 138.539 23.9341 141.755C23.8658 144.973 23.7316 148.05 24.2755 151.102C24.517 152.641 24.8658 154.191 25.1706 155.772C25.4536 157.361 25.6975 158.953 25.8828 160.549C26.6633 166.941 26.4853 173.423 25.3975 179.721L25.1999 179.702C25.534 173.336 25.1853 166.999 24.1902 160.768C23.6926 157.642 22.8633 154.629 22.256 151.411C21.6048 148.175 21.7755 144.846 21.9121 141.709C22.0487 138.574 21.9731 135.264 22.8731 132.039C23.7731 128.839 25.3267 125.868 27.317 123.228C31.2901 117.904 36.6169 113.853 41.612 109.598L42.5803 108.776L42.1754 109.95C40.9462 113.486 39.9364 117.087 39.195 120.703C38.8462 122.514 38.5681 124.329 38.3901 126.139C38.2194 127.945 38.2413 129.846 37.7999 131.771C36.9145 135.651 34.5389 138.956 31.8365 141.702C29.1511 144.477 26.1926 146.998 22.9804 149.188L22.8585 149.052Z" fill="#373434"/>
<path d="M23.3097 152.763C22.556 150.584 20.4731 149.366 18.356 148.617C16.2048 147.866 13.7512 147.26 11.5707 146.171C9.37313 145.104 7.39021 143.694 5.54388 142.186C3.70242 140.67 1.93658 139.108 0.256097 137.44L0.868289 137.166C1.50731 139.9 2.31706 142.602 3.51462 145.037C4.13901 146.24 4.84876 147.394 5.76095 148.37C6.67314 149.356 7.76338 150.19 8.90728 150.983C11.2317 152.544 13.7731 153.834 16.4633 154.972C19.1438 156.108 21.8609 157.2 24.6682 158.128L24.6292 158.308C21.6414 158.006 18.717 157.294 15.8707 156.375C13.0414 155.472 10.1804 154.304 7.69021 152.579C5.1512 150.909 3.04145 148.407 1.96828 145.661C0.846337 142.916 0.573168 140.055 0.170731 137.281L0 136.114L0.782924 137.005C2.30487 138.74 4.06828 140.301 6.07315 141.531C8.0585 142.787 10.2073 143.757 12.3317 144.696C13.4024 145.169 14.4707 145.62 15.5634 146.035C16.6633 146.431 17.8097 146.852 18.9414 147.361C21.1633 148.343 23.3902 150.289 23.4999 152.736L23.3097 152.763Z" fill="#373434"/>
<path d="M22.741 146.062C23.3385 144.464 24.5141 143.181 25.5946 141.955C26.7483 140.723 27.6629 139.643 28.3678 138.274C29.1239 136.941 29.7629 135.434 30.1458 133.875C30.5214 132.308 30.6897 130.698 30.9946 129.079C31.2678 127.448 31.719 125.847 32.3726 124.32C32.9995 122.788 33.7165 121.286 34.5751 119.872C36.3312 117.045 38.419 114.463 40.8043 112.102L40.9726 112.208C39.6043 115.214 37.9482 118.015 36.3946 120.818C34.758 123.587 33.2824 126.393 32.019 129.339C31.4092 130.822 31.0068 132.384 30.7653 133.983C30.5263 135.579 30.4434 137.238 29.8605 138.878C29.2946 140.525 27.9336 141.923 26.6775 142.948C25.4239 144.051 24.0556 144.975 22.9117 146.157L22.741 146.062Z" fill="#373434"/>
<path d="M25.0199 160.558C27.5321 159.701 30.2101 159.314 31.9126 157.672C33.7418 156.124 35.0321 153.963 36.676 152.021C38.2662 150.04 39.9004 148.078 41.215 145.922C42.5491 143.777 43.6345 141.504 44.6686 139.223L45.6613 140.025C43.876 141.414 42.0443 142.755 40.2004 144.065C38.3638 145.39 36.5199 146.703 34.6101 147.926C32.7272 149.184 30.7565 150.333 28.8272 151.533C27.8711 152.093 26.9394 152.68 26.137 153.401C25.3224 154.102 24.598 154.924 24.3199 155.965L24.1224 155.947C24.0858 154.795 24.7151 153.698 25.4321 152.802C26.1785 151.897 27.0516 151.118 27.9638 150.395C29.7833 149.055 31.5614 147.652 33.4199 146.364C35.2589 145.046 37.1662 143.816 39.0857 142.598C40.9882 141.363 42.9101 140.149 44.8735 138.998L47.2954 137.572L45.8637 139.799C44.4906 141.944 43.0467 144.04 41.7247 146.201C40.3784 148.35 39.2345 150.609 37.9272 152.795C36.6223 154.949 35.154 157.14 32.9028 158.805C31.8223 159.644 30.376 160.201 29.0443 160.392C27.7053 160.616 26.3809 160.666 25.0565 160.742L25.0199 160.558Z" fill="#373434"/>
<path d="M24.5437 157.656C26.4925 156.488 28.1071 155.258 29.8022 154.003C30.6412 153.417 31.6315 152.777 32.4364 152.047C33.2559 151.31 33.9266 150.451 34.568 149.559C35.8022 147.746 37.2436 146.108 38.7632 144.54C40.3485 143.029 42.0412 141.61 44.029 140.44L44.1704 140.564C43.1119 142.533 41.7558 144.245 40.29 145.867C38.7656 147.424 37.1607 148.93 35.351 150.241C34.4632 150.916 33.612 151.625 32.9046 152.455C32.1705 153.27 31.7071 154.265 30.9047 155.129C29.2851 156.732 27.0022 157.882 24.59 157.836L24.5437 157.656Z" fill="#373434"/>
<path d="M40.6759 205.626C43.9027 208.33 47.8661 210.062 51.9856 210.917C56.1173 211.737 60.4172 211.859 64.5587 211.14C66.6123 210.767 68.6221 210.277 70.4099 209.321C72.2074 208.372 73.8635 207.139 75.4099 205.766C78.4928 202.979 81.3294 199.879 83.6464 196.465L83.883 196.939C76.8708 196.02 69.6489 195.426 62.7709 196.797C59.3441 197.476 56.0977 198.626 53.11 200.339C50.0905 201.991 47.2173 203.997 44.0368 205.688C42.4661 206.538 40.7344 207.289 39.0442 207.773L33.9539 209.381C30.6954 210.489 27.5369 211.933 24.6418 213.771C18.8442 217.434 13.9589 222.439 10.5516 228.341L10.3735 228.265C13.1199 222.034 17.7564 216.45 23.6686 212.453C26.593 210.415 29.8344 208.768 33.2637 207.572C36.5734 206.352 40.0807 205.635 43.0612 204C46.1319 202.459 49.0587 200.517 52.2295 198.863C55.3929 197.172 58.9538 196.041 62.5392 195.544C69.766 194.574 76.9099 195.599 83.9708 196.317L84.4903 196.368L84.2098 196.801C81.8952 200.27 79.344 203.62 76.3635 206.658C74.8684 208.176 73.2099 209.625 71.2221 210.684C69.2489 211.753 67.0465 212.43 64.8465 212.737C60.4636 213.354 55.9368 213.253 51.6709 212.106C47.4222 210.991 43.4002 208.876 40.532 205.757L40.6759 205.626Z" fill="#373434"/>
<path d="M28.8554 211.267C30.3237 210.945 31.831 211.293 33.2261 211.749C34.6261 212.228 35.9407 212.917 37.1895 213.723C39.7212 215.331 41.5919 217.715 43.0236 220.177C44.4602 222.66 45.5187 225.252 46.4724 227.885C47.4211 230.52 48.148 233.222 48.6333 235.956L48.9041 237.456L47.7333 236.514C45.4431 234.662 43.1017 232.867 40.6675 231.188C38.2553 229.465 35.5944 228.145 33.1993 226.215C30.7602 224.229 29.3602 221.414 28.3822 218.751C27.9017 217.45 27.1798 216.132 26.8529 214.683C26.7115 213.969 26.5968 213.179 26.9529 212.47C27.3237 211.76 28.1188 211.422 28.8554 211.267ZM28.8993 211.445C28.1968 211.617 27.47 211.951 27.1993 212.578C26.9627 213.207 27.0895 213.912 27.3529 214.552C27.8798 215.84 28.7554 216.971 29.5188 218.261C31.0115 220.751 32.3017 223.183 34.3188 225.125C35.2846 226.139 36.409 227.062 37.5553 227.993C38.6944 228.926 39.8456 229.854 41.0407 230.718C43.426 232.455 45.9065 234.079 48.4285 235.652L47.526 236.2C46.687 233.588 45.7504 231.017 44.7236 228.484C43.6724 225.971 42.4943 223.474 41.2041 221.099C39.8968 218.731 38.348 216.533 36.3895 214.637C35.3822 213.695 34.2529 212.854 33.0114 212.207C31.7602 211.576 30.309 211.18 28.8993 211.445Z" fill="#373434"/>
<path d="M38.5249 206.858C39.8347 205.366 40.7859 203.689 41.6249 201.982C42.4737 200.273 43.1346 198.49 43.6371 196.695C44.1176 194.906 44.5932 193.01 44.9346 191.107C45.3005 189.2 45.4541 187.265 45.6395 185.323L46.1785 185.632C44.1517 187.111 42.3395 188.82 40.5103 190.481C38.6981 192.158 36.9103 193.862 35.5591 195.744C34.1469 197.626 33.4444 199.655 33.1542 202.072C32.7859 204.424 32.5883 206.967 31.4883 209.24L31.3054 209.18C31.7201 206.792 31.4469 204.407 31.5493 201.947C31.6054 200.72 31.6615 199.446 32.0444 198.151C32.4347 196.884 33.0493 195.682 33.8469 194.634C35.4274 192.521 37.42 190.879 39.3981 189.308C41.4005 187.735 43.6102 186.417 45.781 185.095L46.4493 184.697L46.3249 185.408C45.9907 187.309 45.8517 189.244 45.8322 191.188C45.7785 193.139 45.781 195.113 45.3249 197.087C44.8395 199.059 43.9688 200.899 42.8981 202.62C41.8103 204.313 40.4273 205.914 38.659 206.997L38.5249 206.858Z" fill="#373434"/>
<path d="M46.5339 233.733C45.2974 233.256 44.4022 232.248 43.6461 231.375C42.8705 230.469 42.1388 229.527 41.5486 228.502C40.9803 227.468 40.5388 226.348 39.9144 225.339C39.2949 224.337 38.5071 223.439 37.6803 222.559C35.9559 220.848 34.6437 218.855 33.0559 217.335C31.5194 215.72 29.6242 214.292 27.8584 212.569L27.9608 212.408C30.3608 213.145 32.6535 214.23 34.5535 215.962C35.4925 216.844 36.2023 217.885 36.8437 218.894C37.4998 219.905 38.0413 220.935 38.5779 222.002C39.112 223.054 39.6949 224.082 40.4388 225.01C41.1803 225.938 42.0925 226.751 42.8925 227.647C43.673 228.548 44.2998 229.548 44.8974 230.568C45.512 231.607 45.9193 232.63 46.6486 233.581L46.5339 233.733Z" fill="#373434"/>
<path d="M13.6168 56.7261C16.2533 57.8225 18.6801 59.3843 21.6167 59.8081C24.0557 60.1606 26.5118 60.4807 28.9118 61.0036C30.6606 61.386 32.3313 62.0794 34.0386 62.6322C34.5362 62.7958 35.0264 62.9777 35.5313 63.1136C40.5045 64.4612 45.5093 65.7097 50.441 67.1862C52.4678 67.792 54.4678 68.5683 56.3361 69.6233C59.0824 71.1736 62.0922 72.2216 65.0531 73.3457C66.8019 74.0092 68.558 74.6472 70.3214 75.2715C71.2921 75.6124 72.3068 75.8496 73.2629 76.2182C76.2458 77.3607 79.2409 78.4802 82.1653 79.7425C83.536 80.3345 84.7482 81.2444 86.0458 81.9931C87.075 82.5897 88.1238 83.154 89.1531 83.7529C89.4067 83.9003 89.6067 84.1238 89.8335 84.315C89.7701 84.4025 89.7092 84.49 89.6482 84.5776C88.8506 84.1215 88.0848 83.6055 87.2482 83.2254C86.2555 82.7762 85.2116 82.4169 84.1701 82.0714C82.1409 81.3964 80.097 80.7538 78.0555 80.1065C76.9629 79.7587 75.8702 79.397 74.7629 79.0953C72.5019 78.4733 70.6531 77.0751 68.5361 76.1906C66.1824 75.207 64.058 73.8041 61.5629 73.0578C60.2312 72.657 59.0946 71.7057 57.8068 71.1275C55.6654 70.1646 53.4678 69.3146 51.3069 68.3932C47.3581 66.7117 43.2264 65.6544 38.9508 65.0486C37.5947 64.8574 36.2557 64.5694 34.9118 64.3115C31.9728 63.7425 29.0191 63.2219 26.0996 62.5677C24.3192 62.1669 22.624 61.3906 20.8314 61.0774C18.1533 60.6097 15.7802 59.4787 13.3192 58.4997C11.968 57.963 10.5216 57.6382 9.12896 57.1914C8.7436 57.0693 8.39238 56.8504 8.02165 56.6846C6.54605 56.0281 5.0802 55.3532 3.58508 54.7381C3.37289 54.6529 3.02655 54.8625 2.71191 54.9409C2.76313 55.8093 3.45581 55.9475 3.98752 56.2124C5.10947 56.7698 6.24361 57.3042 7.37287 57.8479C7.6558 57.9861 7.91677 58.1773 8.21433 58.2694C10.068 58.8522 11.929 59.4096 13.785 59.9855C15.9655 60.6604 18.1338 61.3814 20.3265 62.0195C21.9826 62.5009 23.6753 62.8787 25.3484 63.3117C26.7655 63.6803 28.1606 64.1456 29.5972 64.4174C33.1045 65.0785 36.6313 65.6521 40.1508 66.2625C41.0045 66.4122 41.8435 66.5435 42.6874 66.8223C44.8191 67.5248 47.0264 68.0339 49.2044 68.6167C49.3532 68.6535 49.5971 68.5844 49.663 68.6628C50.5825 69.7776 52.0605 69.8099 53.2727 70.3512C55.4995 71.3463 57.7459 72.3046 59.9776 73.2928C61.4385 73.9401 62.8751 74.6357 64.3385 75.2715C66.1507 76.0616 67.9946 76.8286 69.6019 77.9366C71.5312 79.2634 73.7531 79.8416 75.9214 80.6294C78.397 81.5277 80.9043 82.2764 83.436 83.0043C85.0726 83.4742 86.5799 84.3357 88.136 85.0452C91.3701 86.5217 94.5701 88.0743 97.8408 89.4771C99.7872 90.311 101.68 91.2969 103.821 91.7207C104.397 91.8336 104.87 92.3726 105.409 92.6882C106.355 93.241 107.302 93.7892 108.27 94.3029C109.163 94.7774 109.799 95.3671 110.021 96.3853C110.307 97.696 110.804 98.9629 111.116 100.269C111.336 101.186 111.36 102.142 111.536 103.068C111.682 103.851 111.887 104.627 112.121 105.39C112.868 107.824 113.775 110.225 114.351 112.692C114.685 114.129 114.719 115.705 114.492 117.165C114.219 118.927 114.646 120.526 115.051 122.217C114.433 122.339 113.772 122.5 113.102 122.594C110.614 122.951 108.382 123.873 106.407 125.322C105.833 125.743 105.387 126.326 104.929 126.872C103.568 128.498 101.575 129.445 100.07 130.917C99.814 131.168 99.4433 131.345 99.2603 131.633C98.3067 133.137 96.736 133.987 95.3238 135.006C94.1994 135.816 93.0311 136.574 91.8726 137.344C89.6043 138.846 88.2628 140.958 87.5262 143.413C86.8726 145.595 85.736 147.318 83.4458 148.271C82.4336 148.693 81.4872 149.287 80.9263 150.262C80.6263 150.787 80.8043 151.174 81.4214 151.188C82.1458 151.204 82.9702 151.31 83.5848 151.038C85.0067 150.411 86.4482 150.566 87.897 150.642C90.5165 150.78 93.0726 150.425 95.5213 149.605C97.5408 148.928 99.4774 148.032 101.436 147.203C103.007 146.539 103.89 145.159 105.009 144.031C105.397 143.639 105.775 143.238 106.185 142.87C106.487 142.596 106.887 142.409 107.153 142.112C110.148 138.767 113.472 135.671 115.909 131.898C116.204 131.442 116.672 131.085 117.097 130.645C117.207 130.813 117.36 130.942 117.346 131.051C117.133 132.737 117.011 134.444 116.636 136.097C116.238 137.848 115.636 139.562 115.043 141.264C114.665 142.349 114.28 143.473 113.636 144.42C113.16 145.118 112.348 145.758 111.533 146.072C109.999 146.666 109.136 147.857 108.212 148.979C107.38 149.988 106.47 150.967 106.051 152.256C105.897 152.731 105.336 153.109 104.914 153.484C103.919 154.369 103.292 155.428 103.033 156.7C102.924 157.234 102.631 157.734 102.516 158.266C102.263 159.446 102.27 160.607 102.416 161.83C102.814 165.103 103.007 168.402 103.207 171.693C103.282 172.94 103.804 173.861 104.846 174.591C105.787 175.25 106.746 175.925 106.682 177.146C107.351 177.344 107.724 177.141 107.751 176.667C107.797 175.863 108.253 175.291 108.682 174.649C109.655 173.186 110.072 171.498 110.285 169.821C110.555 167.713 111.563 166.077 113.094 164.596C113.97 163.749 114.765 162.777 115.37 161.742C115.804 160.998 115.919 160.063 116.077 159.199C116.309 157.918 116.47 156.628 116.629 155.339C116.86 153.431 116.224 151.648 115.541 149.923C115.002 148.562 115.007 147.18 114.875 145.793C114.855 145.576 115.041 145.339 115.148 145.12C115.241 144.938 115.463 144.766 115.451 144.6C115.29 142.315 116.977 140.539 117.338 138.401C117.433 137.832 117.621 137.272 117.836 136.441C118.148 136.959 118.407 137.226 118.477 137.53C118.699 138.498 118.872 139.479 119.029 140.46C119.463 143.211 119.877 145.966 120.307 148.721C120.351 149.009 120.377 149.317 120.502 149.577C121.468 151.584 121.799 153.756 122.414 155.855C122.916 157.578 123.607 159.25 124.199 160.95C124.363 161.417 124.558 161.874 124.133 162.364C123.933 162.599 123.872 163.014 123.904 163.336C124.165 166.094 123.06 168.404 121.314 170.505C120.504 171.479 119.597 172.384 118.824 173.379C117.948 174.508 117.26 175.764 116.98 177.139C116.731 178.355 116.587 179.61 116.59 180.847C116.592 182.904 115.511 184.549 114.494 186.215C114.077 186.896 113.412 187.438 112.899 188.071C112.612 188.426 112.29 188.815 112.182 189.234C111.707 191.105 111.68 193.01 112.363 194.823C112.687 195.682 112.938 196.488 112.875 197.398C112.738 199.388 112.621 201.383 112.543 203.376C112.531 203.73 112.653 204.239 112.909 204.405C113.119 204.539 113.638 204.306 113.99 204.168C115.58 203.546 116.39 202.134 117.499 201.026C118.294 200.231 119.116 199.462 119.904 198.663C121.238 197.308 121.848 195.624 122.326 193.871C122.924 191.681 123.743 189.605 125.477 187.926C126.611 186.827 127.719 185.673 128.638 184.413C129.868 182.727 130.243 180.721 130.48 178.721C130.763 176.337 130.463 173.739 129.765 171.253C129.636 170.795 129.626 170.309 129.807 169.763C130.675 171.56 131.504 173.375 132.426 175.144C133.392 177.001 133.987 178.991 134.885 180.87C135.221 181.575 135.772 182.163 136.133 182.801C136.487 183.43 136.846 184.114 137.128 184.784C137.668 186.067 138.538 187.101 139.326 188.219C140.497 189.879 142.033 191.172 143.714 192.277C144.775 192.978 146.053 193.602 147.306 193.768C150.272 194.157 153.263 194.756 156.282 194.014C157.248 193.775 157.597 194.033 157.982 194.892C158.548 196.145 158.955 197.515 159.775 198.603C160.853 200.035 161.872 201.586 164.097 201.908C165.733 202.148 167.17 203.039 168.563 204.007C170.089 205.071 171.889 205.794 173.606 206.6C174.76 207.139 175.95 207.619 177.165 208.008C177.67 208.171 178.282 208.031 179.043 208.031C178.906 207.483 178.884 207.086 178.714 206.759C177.943 205.283 177.194 203.788 176.304 202.374C175.887 201.715 175.253 201.09 174.565 200.685C173.321 199.95 171.994 199.319 170.643 198.773C168.406 197.875 166.543 196.536 164.945 194.832C163.799 193.606 162.236 193.065 160.631 192.777C158.877 192.464 157.96 191.554 157.558 189.981C157.014 187.857 156.626 185.662 155.758 183.658C154.743 181.317 153.375 179.161 150.882 177.735C148.226 176.217 145.921 174.206 143.955 171.903C142.843 170.601 141.67 169.491 139.819 169.093C137.309 168.549 134.846 167.812 132.363 167.149C130.563 166.667 128.921 166.047 127.792 164.433C126.792 163.005 125.858 161.565 125.536 159.897C125.426 159.337 126.014 158.658 126.282 158.034C126.021 158.017 125.763 158.001 125.502 157.985C126.363 158.826 127.172 159.724 128.102 160.491C129.111 161.323 130.15 162.044 131.58 162.357C133.394 162.758 135.116 163.454 136.66 164.635C138.87 166.326 140.824 168.286 143.077 169.915C144.346 170.832 145.572 171.825 147.25 172.11C148.519 172.327 149.792 172.629 150.999 173.055C152.509 173.591 154.055 173.575 155.516 173.244C157.033 172.903 158.524 172.29 159.889 171.564C161.011 170.968 161.848 169.899 162.958 169.279C164.575 168.379 166.302 167.641 168.026 166.932C169.221 166.439 170.499 166.123 171.728 165.704C172.526 165.43 173.309 165.165 173.611 164.246C173.738 163.857 174.192 163.567 174.509 163.221C174.06 162.707 173.609 162.737 172.941 162.811C171.002 163.028 169.028 162.961 167.082 163.127C164.848 163.318 162.677 163.069 160.531 162.537C159.138 162.189 157.958 161.526 156.845 160.614C155.292 159.344 153.538 158.296 151.899 157.112C151.109 156.543 150.338 155.931 149.65 155.253C148.548 154.161 147.275 153.438 145.68 153.215C144.46 153.044 143.458 153.263 142.589 154.198C141.946 154.892 141.019 155.237 139.994 154.97C137.358 154.277 134.643 154.535 131.965 154.417C131.182 154.383 130.358 154.843 129.577 155.138C128.997 155.357 128.468 155.696 127.894 155.933C127.236 156.205 126.602 156.61 125.833 156.007C125.633 155.85 125.043 156.133 124.726 156.195C123.938 153.385 123.248 150.89 122.531 148.403C122.311 147.636 121.943 146.903 121.765 146.129C121.255 143.89 120.829 141.633 120.326 139.391C120.075 138.274 119.677 137.185 119.438 136.065C119.285 135.347 119.041 134.508 119.285 133.877C119.987 132.069 120.451 130.267 120.082 128.325C122.46 126.321 125.268 124.73 126.524 121.645C127.638 123.461 129.504 124.361 131.297 125.299C132.333 125.84 133.529 126.103 134.646 126.508C136.038 127.015 136.999 128.033 137.914 129.072C138.548 129.797 139.077 130.608 139.624 131.398C140.399 132.52 141.033 133.746 141.938 134.759C142.66 135.57 143.672 136.164 144.604 136.793C145.704 137.537 146.85 138.219 147.989 138.91C148.294 139.097 148.628 139.272 148.975 139.368C150.421 139.767 151.528 140.619 152.672 141.513C153.25 141.962 153.928 142.893 155.006 142.257C157.041 143.476 159.319 142.501 161.45 142.888C162.992 143.171 164.533 143.324 165.926 144.15C166.653 144.581 167.575 144.717 168.541 145.03C169.353 144.752 169.089 144.019 168.877 143.464C168.655 142.87 168.294 142.25 167.809 141.835C166.758 140.942 166.084 139.852 165.438 138.691C164.358 136.749 163.016 134.932 162.024 132.956C161.272 131.458 160.55 129.979 159.465 128.671C158.799 127.869 158.048 127.215 157.043 126.78C155.721 126.206 154.516 125.317 153.146 124.928C151.004 124.32 149.226 123.103 147.267 122.2C145.638 121.447 143.936 121.311 142.333 121.747C140.619 122.212 138.977 122.129 137.328 121.853C135.489 121.542 133.721 121.357 131.848 121.763C130.999 121.947 130.021 121.742 129.087 121.922C128.736 121.991 128.209 121.627 127.875 121.344C126.907 120.519 125.997 119.63 125.058 118.773C123.499 117.359 121.914 115.972 120.392 114.525C119.997 114.15 119.646 113.625 119.536 113.118C118.914 110.255 117.721 107.585 116.663 104.862C116.07 103.33 115.843 101.658 115.577 100.029C115.363 98.7256 115.021 97.5163 114.07 96.5097C113.98 96.4152 113.992 96.2355 113.921 95.9568C114.741 96.1941 115.487 96.3507 116.187 96.6225C118.472 97.5048 120.707 98.4699 123.133 99.032C124.36 99.3176 125.419 100.221 126.59 100.773C128.141 101.506 129.738 102.153 131.299 102.872C132.248 103.31 133.177 103.791 134.089 104.295C136.153 105.438 138.355 106.187 140.721 106.548C141.253 106.629 141.724 107.044 142.258 107.145C145.228 107.712 148.216 108.198 151.185 108.783C152.367 109.018 153.55 109.004 154.738 109.078C155.506 109.126 156.258 109.409 157.026 109.494C159.121 109.722 161.28 109.697 163.302 110.179C164.516 110.469 166.138 110.289 166.892 111.69C168.887 112.611 170.421 114.067 172.031 115.47C172.716 116.066 172.823 116.826 173.292 117.46C174.48 119.059 175.611 120.699 176.687 122.369C177.86 124.186 178.897 126.082 180.097 127.881C180.619 128.669 181.46 129.263 182.053 130.019C182.67 130.804 183.231 131.643 183.687 132.52C184.075 133.269 184.206 134.133 184.575 134.893C185.036 135.835 185.043 136.729 184.904 137.763C184.504 140.776 184.297 143.812 184.045 146.843C184.004 147.332 184.043 147.861 184.199 148.322C184.801 150.075 184.604 151.874 184.648 153.662C184.667 154.461 184.653 155.267 184.767 156.055C185.001 157.663 186.323 158.46 187.589 159.305C188.316 159.789 189.043 160.307 189.633 160.927C190.909 162.258 192.175 163.613 193.299 165.057C194.475 166.57 195.438 168.227 196.575 169.768C197.106 170.489 197.831 171.076 198.46 171.735C198.679 171.965 198.882 172.214 199.077 172.465C199.714 173.283 200.294 174.144 200.997 174.904C201.253 175.183 201.797 175.222 202.318 175.411C202.923 173.186 204.001 171.385 205.16 169.593C205.97 168.339 206.426 166.879 206.984 165.49C207.106 165.188 206.989 164.801 206.982 164.453C206.955 163.108 206.984 161.758 206.877 160.418C206.809 159.526 206.706 158.582 206.331 157.78C205.672 156.373 204.911 154.977 203.97 153.726C202.665 151.996 201.562 150.197 200.945 148.156C200.114 145.397 198.584 142.927 197.136 140.456C196.37 139.15 194.967 138.18 193.87 137.044C192.111 135.222 189.604 134.476 187.55 133.089C186.192 132.172 184.96 131.08 183.716 130.021C180.582 127.349 178.87 123.742 176.721 120.422C175.965 119.252 175.197 118.086 174.636 116.739C174.984 117.059 175.375 117.347 175.68 117.702C177.35 119.632 179.553 120.888 181.78 122.148C183.406 123.067 184.916 124.172 186.445 125.237C187.338 125.856 188.25 126.483 188.999 127.241C189.738 127.991 190.304 128.899 190.911 129.758C192.016 131.322 193.075 132.921 194.194 134.476C195.026 135.632 195.743 136.832 196.448 138.062C197.353 139.645 198.17 141.444 200.277 142.077C201.918 142.573 203.523 143.197 205.192 143.598C206.377 143.883 207.321 144.524 208.153 145.224C209.116 146.037 210.231 146.304 211.348 146.297C213.565 146.279 215.777 146.037 217.992 145.876C218.192 145.86 218.387 145.761 218.584 145.701C218.909 144.892 218.562 144.326 217.987 143.816C215.711 141.803 214.277 139.221 212.64 136.775C211.85 135.595 211.126 134.342 210.131 133.333C209.497 132.691 208.462 132.235 207.531 132.062C206.475 131.868 205.972 131.398 205.397 130.592C204.167 128.864 202.911 127.125 201.038 125.893C199.738 125.036 198.57 124.006 197.279 123.133C195.95 122.233 194.523 121.777 192.801 122.203C191.223 122.594 189.577 122.744 187.955 122.954C186.943 123.083 185.997 122.965 185.062 122.429C183.945 121.786 182.555 121.507 181.56 120.747C180.131 119.653 178.414 118.927 177.221 117.508C176.05 116.115 174.667 114.882 173.394 113.567C173.114 113.279 172.897 112.934 172.516 112.443C174.533 113.348 176.433 113.843 178.404 114.226C179.321 114.405 180.248 114.915 181.231 115C183.194 115.168 185.172 115.212 187.136 115.375C188.453 115.486 189.753 115.762 191.067 115.884C194.453 116.2 197.623 117.349 200.901 118.077C203.326 118.614 205.426 119.805 207.15 121.466C207.977 122.258 208.47 123.357 209.14 124.301C210.018 125.536 210.928 126.75 211.821 127.975C212.209 128.512 212.604 129.042 212.957 129.597C213.526 130.484 214.043 131.368 215.038 131.96C217.062 133.165 217.782 135.142 218.27 137.222C218.45 137.996 218.623 138.774 218.889 139.52C219.409 140.985 219.862 142.49 220.587 143.863C221.206 145.033 222.106 146.09 222.999 147.108C223.733 147.947 224.64 148.651 225.474 149.412C225.699 149.617 225.901 149.872 226.17 150.004C227.479 150.642 228.76 151.381 230.143 151.823C231.621 152.296 232.874 153.01 234.145 153.841C235.911 155 237.86 155.905 239.733 156.919C239.823 156.967 239.928 157.064 240.009 157.05C242.106 156.702 243.887 158.084 245.923 158.022C246.618 158.001 247.267 158.778 248.038 158.066C247.782 157.161 246.974 156.656 246.248 156.115C244.113 154.525 242.509 152.655 242.011 150.022C241.506 147.352 240.365 144.853 239.065 142.469C237.943 140.407 236.048 138.857 234.187 137.367C232.816 136.27 231.304 135.337 229.882 134.298C229.014 133.663 228.231 132.921 227.355 132.297C225.421 130.922 223.353 129.901 220.816 129.924C218.801 129.943 216.806 129.738 214.909 128.977C214.155 128.678 213.572 128.344 213.099 127.639C212.387 126.579 211.789 125.488 211.184 124.38C210.523 123.177 209.545 122.111 208.589 121.083C207.36 119.763 206.014 118.54 204.46 117.027C205.57 117.177 206.404 117.213 207.197 117.409C209.865 118.068 212.531 118.386 215.323 118.243C219.05 118.052 222.814 118.02 226.511 118.655C228.06 118.92 229.538 119.565 231.053 120.024C232.655 120.512 234.255 120.993 235.862 121.461C238.233 122.152 240.618 122.792 243.106 122.986C245.818 123.198 248.457 122.852 251.067 122.127C253.335 121.496 255.66 121.051 257.933 120.438C259.25 120.084 260.572 119.662 261.787 119.075C262.599 118.683 263.245 117.967 263.938 117.368C264.638 116.757 265.287 116.094 265.989 115.486C266.487 115.055 266.855 114.606 266.711 113.922C266.682 113.777 266.65 113.597 266.713 113.477C267.311 112.378 266.911 111.434 266.091 110.674C265.145 109.798 265.089 108.76 265.211 107.633C264.348 106.995 263.367 106.822 262.36 106.873C260.084 106.988 257.816 107.163 255.545 107.315C254.804 107.364 254.062 107.483 253.323 107.456C251.231 107.373 249.228 107.619 247.238 108.329C246.243 108.684 245.055 108.681 243.96 108.647C240.909 108.55 238.245 109.497 235.857 111.199C233.184 113.104 230.206 114.481 227.277 115.979C225.394 116.942 223.604 117.018 221.643 116.914C220.653 116.863 219.653 116.983 218.657 116.958C216.282 116.9 213.904 116.799 211.526 116.714C211.367 116.709 211.209 116.7 211.053 116.681C209.379 116.488 207.689 116.377 206.038 116.076C204.54 115.799 203.045 115.497 201.562 115.101C199.845 114.64 198.019 114.486 196.228 114.362C194.387 114.235 192.528 114.364 190.682 114.279C186.372 114.078 182.016 114.219 177.845 112.869C177.806 112.855 177.782 112.795 177.65 112.629C178.287 112.378 178.87 112.044 179.497 111.915C181.66 111.473 183.514 110.476 185.336 109.34C186.782 108.437 188.401 107.838 190.131 107.525C190.848 107.396 191.604 107.255 192.231 106.928C194.526 105.733 196.928 105.701 199.445 106.009C201.316 106.24 203.226 106.187 205.111 106.336C208.838 106.631 212.555 107.016 216.279 107.292C218.101 107.428 219.935 107.442 221.762 107.442C222.487 107.442 223.231 107.327 223.928 107.14C225.633 106.684 227.367 106.265 228.999 105.629C230.396 105.086 231.816 104.427 232.96 103.521C234.55 102.259 236.292 101.264 238.038 100.251C238.382 100.05 238.821 99.9994 239.211 99.8681C241.213 99.2001 243.379 99.0066 245.265 97.9701C245.611 97.7789 246.179 97.8157 246.604 97.9102C247.572 98.1267 248.533 98.7141 249.47 98.6634C251.504 98.5552 253.738 99.4858 255.611 97.5923C255.399 97.3735 255.14 96.9197 254.74 96.7101C252.06 95.3118 249.252 94.2315 246.206 93.7639C245.645 93.6764 245.087 93.469 244.579 93.2226C242.65 92.2897 240.755 91.3222 239.118 89.9309C237.892 88.8874 236.204 88.7446 234.679 88.6294C233.033 88.5027 231.296 88.6663 229.689 89.0463C227.909 89.4679 226.084 89.4633 224.318 89.871C222.692 90.2465 220.933 90.3363 219.45 90.9905C217.016 92.0616 214.706 93.4115 212.894 95.3763C211.992 96.3553 211.06 97.2652 209.638 97.666C207.633 98.2304 206.204 99.6931 204.948 101.133C203.599 102.678 201.743 103.16 200.023 103.998C198.57 104.708 197.033 104.459 195.543 104.692C193.104 105.074 190.655 105.401 188.472 106.652C187.577 107.163 186.577 107.424 185.475 107.513C183.821 107.647 182.165 107.868 180.597 108.562C178.799 109.356 176.794 109.379 174.841 109.522C174.323 109.559 173.792 109.709 173.297 109.633C172.177 109.462 171.08 109.181 169.972 108.946C169.97 108.836 169.97 108.73 169.967 108.619C170.621 108.444 171.27 108.255 171.926 108.096C173.545 107.705 175.211 107.431 176.782 106.905C177.943 106.516 179.094 105.936 180.055 105.212C182.582 103.307 185.219 101.538 187.47 99.2946C188.606 98.1636 189.94 97.0118 191.738 96.6778C192.138 96.6018 192.619 96.4475 192.862 96.171C193.801 95.1045 195.121 94.759 196.411 94.3306C196.758 94.2131 197.187 94.1739 197.436 93.9551C199.548 92.1008 201.997 90.5713 203.677 88.2908C203.855 88.0489 204.07 87.7656 204.089 87.4892C204.233 85.446 205.823 83.9764 206.46 82.1151C206.779 81.1707 207.611 80.3553 208.309 79.556C209.543 78.1347 209.638 76.5338 209.431 74.8085C209.218 73.0417 209.255 71.245 208.972 69.4897C208.804 68.4278 208.399 67.3313 207.809 66.4122C206.828 64.885 205.631 63.4799 204.492 62.0448C204.301 61.803 203.95 61.674 203.675 61.4943C203.472 61.803 203.109 62.107 203.092 62.4272C202.999 64.217 202.282 65.7028 200.889 66.9144C200.15 67.5617 199.448 68.2435 198.714 68.8977C196.484 70.8741 196.123 73.3918 196.384 76.08C196.501 77.2732 196.721 78.4572 196.858 79.6504C197.001 80.892 196.421 81.9884 195.962 83.0895C195.575 84.0201 195.055 84.9001 194.623 85.8122C193.923 87.2842 193.755 88.8575 193.645 90.4423C193.592 91.1909 193.482 91.9372 193.431 92.6859C193.35 93.8445 192.736 94.4642 191.623 95.0608C189.331 96.2908 187.155 97.7512 185.389 99.6493C184.699 100.391 184.07 101.13 182.984 101.407C182.545 101.52 182.155 101.851 181.772 102.121C180.414 103.07 178.98 103.812 177.262 104.037C176.545 104.132 175.877 104.524 175.162 104.676C172.972 105.143 170.77 105.562 168.57 105.993C168.365 106.032 168.104 105.956 167.948 106.051C165.967 107.246 164.06 106.528 162.058 106.028C159.884 105.484 157.621 105.274 155.406 104.869C154.428 104.692 153.47 104.406 152.511 104.139C151.777 103.936 151.058 103.687 150.372 103.471C151.765 102.724 153.082 101.969 154.448 101.294C156.075 100.485 157.738 99.7484 159.389 98.979C159.716 98.827 160.038 98.6588 160.377 98.5275C161.438 98.1152 162.443 97.6453 163.689 97.7029C165.641 97.7927 167.604 97.6683 169.563 97.6338C169.775 97.6292 170.014 97.6821 170.194 97.6061C172.819 96.4981 175.843 96.2194 178.041 94.22C178.902 93.4368 179.47 92.3887 180.572 91.8267C181.733 91.237 182.86 90.5897 184.021 90.0023C185.477 89.2675 187.197 89.1085 188.548 88.1319C189.521 87.427 190.448 86.6415 191.321 85.8629C191.836 85.4022 191.762 84.2735 191.804 83.4396C191.84 82.6772 192.038 82.0322 192.472 81.3849C193.214 80.2862 193.216 78.9962 193.114 77.7754C192.96 75.9648 193.501 74.327 194.172 72.551C193.884 72.3691 193.565 72.1687 193.24 71.9637C191.789 73.4586 190.289 74.7094 188.34 75.359C187.448 75.6562 186.558 76.0316 185.633 76.1514C184.131 76.3449 182.804 76.9576 181.523 77.5957C180.372 78.1693 179.15 78.8949 178.411 79.8623C176.955 81.7742 174.884 82.2603 172.694 82.6703C172.231 82.7578 171.743 82.7394 171.28 82.8361C168.036 83.518 165.753 85.2525 164.838 88.3369C164.426 89.719 164.216 91.1563 163.921 92.5684C163.472 94.7314 162.514 96.4935 160.128 97.3159C158.994 97.7052 157.96 98.3501 156.853 98.8155C155.267 99.4812 153.655 100.041 151.941 100.4C149.785 100.854 147.697 101.58 145.558 102.114C144.865 102.285 144.085 102.365 143.387 102.248C140.733 101.801 138.075 101.338 135.458 100.727C132.524 100.041 129.76 98.9675 127.297 97.2099C125.333 95.8094 123.294 94.4434 121.111 93.3953C119.353 92.5523 117.324 92.2136 115.421 91.6332C114.67 91.4051 113.943 91.1034 113.194 90.8684C111.492 90.3317 109.775 89.8917 108.004 89.5508C105.526 89.0717 103.146 88.1457 100.69 87.5376C98.9359 87.1022 97.3823 86.2614 95.8262 85.4874C94.2067 84.6789 92.8262 83.4466 91.3238 82.4238C88.8311 80.7261 86.2506 79.1482 83.3482 78.1462C81.4726 77.4966 79.5092 77.0728 77.6433 76.4071C76.319 75.9326 75.0799 75.2369 73.8263 74.6012C72.3336 73.8456 70.8653 73.0463 69.3922 72.2608C69.08 72.095 68.7775 71.9084 68.2848 71.6227C69.7604 71.2012 71.0604 70.8948 72.3043 70.4457C72.9629 70.2084 73.5238 69.7224 74.1238 69.34C74.2897 69.2363 74.4116 69.0636 74.5873 68.9806C77.5458 67.5755 80.436 65.9976 83.5067 64.8528C85.2628 64.1963 87.1579 63.7909 88.7335 62.7888C90.914 61.3998 93.0896 59.9602 95.0384 58.3016C96.753 56.8458 98.3799 56.24 100.619 57.0831C102.963 57.9653 105.419 58.5781 107.78 59.4165C108.787 59.7759 109.724 60.3564 110.619 60.9391C111.838 61.7292 112.929 62.7059 114.18 63.4384C115.733 64.3437 116.546 65.8387 117.724 67.0388C118.143 67.4672 118.572 68.0201 119.111 68.1882C120.451 68.6098 121.729 69.1534 123.185 69.3515C124.502 69.5289 125.629 70.4549 126.599 71.4546C128.224 73.1246 128.963 75.2208 129.941 77.2064C130.097 77.522 130.194 77.8652 130.377 78.1623C131.055 79.2634 131.794 80.2631 133.36 80.3253C134.146 80.3576 134.924 80.687 135.704 80.6939C138.738 80.7146 140.985 81.97 142.782 84.2459C143.553 85.2249 144.643 86.0242 145.716 86.7336C146.926 87.5306 148.943 86.5563 149.236 85.0152C149.504 83.6101 149.865 82.1796 149.228 80.7353C148.931 80.0581 148.88 79.2841 148.711 78.5562C148.038 75.6101 147.004 72.7768 145.489 70.1301C144.407 68.232 142.777 66.7025 141.219 65.1453C141.007 64.9334 140.709 64.7583 140.416 64.6662C137.985 63.8968 135.838 62.646 133.699 61.3446C130.992 59.6953 127.98 58.8522 124.758 58.6541C122.343 58.5044 120.163 59.3037 117.999 60.1168C116.704 60.6051 115.458 61.1119 114.014 60.976C113.67 60.9438 113.304 61.1303 112.836 61.2432C110.482 58.9835 107.275 58.0713 104.163 56.9887C103.673 56.8182 103.17 56.6731 102.414 56.4335C102.912 56.2009 103.187 56.0235 103.492 55.9383C106.041 55.2334 108.468 54.289 110.714 52.9184C111.987 52.1398 113.37 51.5248 114.711 50.8499C114.841 50.7854 115.024 50.7946 115.18 50.8061C116.616 50.9097 118.087 50.661 119.477 51.2553C121.019 51.9141 122.563 52.5844 124.15 53.1349C125.833 53.7177 127.56 54.1968 129.282 54.669C132.199 55.466 135.111 56.2746 138.055 56.9748C139.055 57.2121 140.136 57.1775 141.182 57.2052C143.88 57.2858 146.404 56.6316 148.892 55.6688C150.699 54.9662 152.628 54.547 154.487 53.9573C157.521 52.9944 160.148 51.4234 162.253 49.1291C162.736 48.5993 163.194 48.0419 163.031 47.2449C162.875 46.4755 161.665 45.3629 160.614 45.3261C159.238 45.2777 158.367 44.6857 157.745 43.5892C157.377 42.942 156.785 42.6425 155.977 42.4721C153.887 42.0344 151.843 42.2486 149.843 42.76C148.504 43.1032 147.187 43.1585 145.821 43.2322C143.563 43.3543 141.367 42.8521 139.133 42.8521C139.007 42.8521 138.88 42.7139 138.575 42.5389C139.894 41.5875 141.016 40.5602 142.511 40.0327C143.65 39.6272 144.828 39.3117 145.958 38.8878C147.277 38.3949 148.56 37.8144 149.867 37.2938C150.494 37.045 151.126 36.787 151.782 36.6419C153.124 36.3448 154.394 35.9393 155.675 35.4303C157.189 34.8291 158.902 34.6793 160.531 34.3361C160.938 34.2486 161.392 34.2509 161.745 34.0712C162.784 33.5437 163.78 34.1196 164.794 34.1035C164.963 34.0989 165.17 34.2854 165.297 34.4329C167.172 36.5682 169.536 38.1553 171.982 39.618C174.126 40.9034 176.462 41.652 179.062 41.8202C180.95 41.9399 182.831 42.1933 184.699 41.8801C185.545 41.7372 186.348 41.2881 187.131 40.9057C188.245 40.3598 189.238 39.4637 190.621 39.6894C191.433 39.8207 192.216 40.1064 193.011 40.3252C193.921 40.5786 194.862 41.1153 195.736 41.0278C197.428 40.8619 199.221 40.9955 200.772 40.0488C201.855 39.39 203.053 39.0237 204.372 38.9915C204.818 38.98 205.25 38.6782 205.699 38.5538C207.072 38.1691 208.467 38.2313 209.879 38.3235C210.557 38.3695 211.255 38.1645 212.043 38.0609C211.704 36.8631 210.943 36.1996 210.145 35.686C208.362 34.5411 206.479 33.5345 204.65 32.4496C202.689 31.2817 200.76 30.0677 198.784 28.9206C198.267 28.6189 197.648 28.4576 197.055 28.2895C196.519 28.1374 195.958 28.043 195.401 27.9624C194.843 27.8794 194.258 27.7297 193.719 27.8149C192.599 27.9877 190.553 27.5938 189.75 26.8406C187.358 24.6016 184.584 24.6522 181.662 25.6105C181.275 25.7372 180.977 26.0919 180.592 26.2278C179.572 26.5895 178.55 27.0364 177.489 27.1884C174.475 27.6191 171.672 28.4576 168.989 29.895C166.343 31.3139 163.599 32.6062 160.472 33.0001C158.031 33.3088 155.619 33.8662 153.211 34.3914C152.621 34.5204 152.102 34.9442 151.56 35.2506C150.236 35.9969 148.833 36.582 147.297 36.7225C146.382 36.8055 145.533 36.8792 144.824 37.5011C144.663 37.6416 144.367 37.6462 143.875 37.7868C145.767 35.6952 147.765 34.1564 149.836 32.6384C151.402 31.4913 153.087 30.7358 154.892 30.1507C155.719 29.8812 156.648 29.8604 157.538 29.7936C159.253 29.6669 160.719 28.81 162.326 28.3701C163.845 27.9554 165.26 27.1999 166.784 26.8083C169.458 26.1196 171.382 24.4887 173.302 22.7426C174.158 21.9641 175.309 21.4665 176.348 20.8768C177.687 20.1167 179.104 19.474 180.387 18.6401C182.528 17.2488 184.66 15.8137 186.16 13.6093C185.738 13.1993 185.348 12.8169 184.953 12.4322C183.484 12.7432 182.058 13.1025 180.609 13.3398C179.175 13.5747 177.755 13.8512 176.348 14.2013C176.07 14.2727 175.731 14.1783 175.431 14.1138C174.326 13.8765 173.236 13.5678 172.123 13.3859C170.453 13.1094 168.85 13.5287 167.302 14.0516C165.724 14.586 164.143 15.1503 162.648 15.8598C160.392 16.9355 158.504 18.4236 157.533 20.734C156.802 22.4708 155.931 24.1501 155.221 25.8984C154.741 27.0755 153.792 28.0844 153.021 29.1487C152.853 29.3813 152.567 29.5633 152.294 29.6969C149.699 30.9684 147.441 32.6799 145.297 34.525C144.363 35.3289 143.499 36.2204 142.697 37.1441C141.675 38.3189 140.572 39.3739 139.077 39.9935C138.604 40.1893 138.126 40.392 137.628 40.5072C135.87 40.9218 134.231 41.5184 132.707 42.5043C131.414 43.3405 129.943 43.9325 128.55 44.6327C128.47 44.5544 128.392 44.4761 128.314 44.3978C128.56 44.0868 128.738 43.6376 129.068 43.4925C130.082 43.041 130.541 42.1542 130.911 41.318C132.068 38.7058 133.863 36.5267 135.611 34.2624C137.699 31.5627 140.482 29.7775 143.302 27.9485C144.767 26.9995 146.382 26.2048 147.25 24.5647C147.558 23.9842 148.25 23.5604 148.824 23.1273C150.389 21.9549 151.972 20.8031 153.575 19.6721C153.858 19.4717 154.299 19.4809 154.587 19.2874C155.272 18.8267 155.921 18.3176 156.56 17.7994C156.838 17.5759 156.999 17.1728 157.304 17.0346C158.721 16.3988 159.487 15.178 160.421 14.0976C160.919 13.5218 161.258 12.8998 161.599 12.2157C163.026 9.36627 164.277 6.38786 166.645 4.05672C167.531 3.1837 168.55 2.43276 169.428 1.55743C169.721 1.26489 169.77 0.751212 169.914 0.38035C168.555 -0.29918 167.506 0.0555574 166.38 0.48631C164.428 1.23264 162.506 2.01813 160.597 2.86121C158.387 3.84019 157.404 5.60006 156.17 7.26549C154.56 9.43307 152.724 11.2667 150.25 12.6879C147.587 14.2197 144.96 15.9934 143.436 18.7622C141.38 20.1466 141.165 22.3879 140.511 24.415C140.207 25.3571 140.06 26.3476 139.802 27.3059C139.487 28.4714 138.58 29.2661 137.758 30.1161C136.046 31.8898 134.343 33.6681 132.68 35.4833C132.309 35.8864 132.048 36.4162 131.868 36.9299C131.338 38.4525 129.855 39.5005 129.558 41.1314C129.541 41.2282 129.497 41.3341 129.431 41.4055C127.792 43.1285 126.46 45.1165 123.921 45.9411C121.75 46.6506 119.724 47.7447 117.575 48.5187C116.004 49.0854 114.363 49.5852 112.709 49.8041C110.094 50.1519 107.48 50.449 104.985 51.2921C102.358 52.1836 99.753 53.1418 97.153 54.1093C95.4335 54.7474 93.7116 55.3992 92.0433 56.1525C91.1018 56.5786 90.2921 57.2559 89.3872 57.7672C88.036 58.5297 86.6848 59.306 85.2775 59.9648C83.4506 60.8194 81.5702 61.5703 79.7067 62.3535C77.2336 63.3947 74.9531 64.7376 72.7214 66.175C70.2556 67.7621 67.5483 68.9115 64.68 69.6533C63.9434 69.8444 62.9824 69.6763 62.2434 69.393C58.4824 67.951 54.8093 66.2994 51.0166 64.9495C47.5581 63.7172 43.9849 62.7773 40.463 61.7039C39.3045 61.3492 38.1654 60.9276 36.9923 60.6144C34.9094 60.0638 32.8167 59.5294 30.7094 59.0641C26.4752 58.1312 22.4143 56.7145 18.4216 55.1343C17.2777 54.6806 16.285 53.8997 15.2021 53.3031C12.446 51.7851 9.51921 50.6633 6.39971 49.9976C5.79727 49.8686 5.25581 49.8202 4.78752 50.4076C5.19971 51.0595 5.97044 51.2207 6.62409 51.3451C9.42408 51.8795 11.9533 53.0681 14.3485 54.4087C17.1021 55.9452 19.9777 57.1752 22.9289 58.2855C24.0899 58.7209 25.2679 59.1148 26.4143 59.5939C23.5679 59.7505 20.8972 59.0802 18.285 58.1542C17.2997 57.8041 16.3606 57.3457 15.385 56.9702C14.8192 56.7537 14.2655 56.2976 13.6021 56.756L13.6168 56.7261ZM89.7433 83.0227C90.7628 82.9582 91.0384 83.8773 91.5311 84.4854C90.936 83.9833 90.3409 83.4834 89.7482 82.9813C89.0043 83.0527 88.5872 82.6035 88.3092 81.9723C88.7872 82.3225 89.2653 82.6726 89.7433 83.0227ZM167.653 109.644C166.943 110.059 166.187 109.939 165.284 109.243C166.202 108.833 166.87 109.534 167.643 109.658C168.102 109.886 168.563 110.114 169.189 110.425C168.25 110.616 167.841 110.312 167.653 109.644ZM115.743 109.614C115.504 109.301 114.99 109.101 115.302 108.294C115.558 108.872 116.026 109.103 115.699 109.614C116.863 110.688 116.953 110.996 116.351 112.362C116.126 111.344 115.936 110.478 115.743 109.614ZM110.382 91.4235C111.802 91.0343 112.724 91.9418 113.751 92.5707C114.036 92.5684 114.348 92.4901 114.599 92.5753C115.436 92.854 116.226 93.3631 117.08 93.4806C119.187 93.7685 120.948 94.7544 122.733 95.7126C123.311 96.0259 123.838 96.4244 124.39 96.7861C124.336 96.8851 124.282 96.9865 124.229 97.0855C123.248 96.7354 122.268 96.3853 121.285 96.0351C122.05 96.7031 122.96 97.097 123.807 97.5854C124.736 98.1221 125.607 98.7487 126.502 99.3337C127.575 99.29 128.236 100.066 129.077 100.479C128.165 100.193 127.114 100.17 126.509 99.2923C126.224 99.2646 125.909 99.3061 125.663 99.2047C123.348 98.2649 121.031 97.3297 118.743 96.3346C116.56 95.3856 114.041 95.1114 112.243 93.3815C111.682 93.6925 111.582 94.0795 111.824 94.5494C112.402 95.6666 113.019 96.77 113.577 97.8964C113.938 98.6243 114.219 99.3867 114.536 100.133C114.414 100.181 114.294 100.227 114.172 100.276C112.853 97.6245 111.533 94.9709 110.104 92.0985C111.419 92.5177 112.529 92.7826 113.558 93.2203C115.002 93.833 116.38 94.5839 117.792 95.2566C118.626 95.6551 119.524 95.8255 120.748 96.0582C120.319 95.6412 120.177 95.3971 119.963 95.3118C118.709 94.8097 117.416 94.3881 116.18 93.8514C115.336 93.4852 114.558 92.9761 113.751 92.5269C112.499 92.4924 111.438 91.9487 110.385 91.3844C109.529 91.4028 108.638 91.5618 107.941 90.8615C108.848 90.6496 109.663 90.8339 110.382 91.4235ZM65.8068 71.0929C66.0141 70.6737 66.4458 70.9455 66.6629 70.8534C67.0336 70.6967 67.2385 70.2015 67.5312 69.8629C67.5824 69.8076 67.7458 69.849 67.8361 69.8076C69.5678 69.006 71.4287 68.3794 72.9946 67.3521C75.4677 65.7235 77.9726 64.2124 80.8287 63.1966C80.4214 64.2262 79.8165 64.9311 78.8799 65.4425C77.2385 66.3362 75.497 67.101 73.9677 68.1422C72.1604 69.3722 70.1141 69.9873 68.097 70.729C67.6848 70.881 67.2995 71.1091 66.9385 71.2841C67.3995 72.9058 68.997 73.2513 70.0653 74.2487C68.4946 74.3224 65.6434 73.1845 64.5946 72.1756C64.997 71.807 65.3995 71.4385 65.8019 71.0607C65.1605 71.3601 64.5214 71.6596 63.819 71.9867C61.5971 71.1759 59.2824 70.2844 57.241 68.8793C58.7946 69.3469 60.2678 69.9803 61.7824 70.5078C62.78 70.8534 63.7922 71.473 64.9312 70.7359C65.0702 70.6461 65.5068 70.9639 65.8068 71.0929ZM153.08 106.592V106.546C153.155 106.617 153.228 106.746 153.304 106.746C155.528 106.799 157.655 107.357 159.797 107.843C160.499 108.002 161.087 108.244 161.589 109.034C160.848 108.912 160.345 108.81 159.838 108.744C155.499 108.181 151.16 107.631 146.824 107.055C146.048 106.951 145.28 106.772 144.521 106.583C142.733 106.136 140.938 105.703 139.17 105.185C138.004 104.844 136.853 104.422 135.753 103.929C134.611 103.42 133.548 102.768 132.436 102.202C131.568 101.759 130.68 101.352 129.799 100.928C129.855 100.817 129.911 100.707 129.968 100.596C131.536 101.276 133.068 102.056 134.687 102.607C136.414 103.194 138.253 103.487 139.992 104.051C142.941 105.01 143.799 105.21 145.148 104.883C143.392 104.086 141.346 104.369 139.748 103.164C141.853 102.78 152.516 105.016 154.516 106.189C154.06 106.318 153.57 106.456 153.08 106.592ZM194.045 149.073C193.899 150.941 194.84 152.618 195.106 154.422C195.333 155.963 196.345 157.248 197.384 158.451C198.428 159.658 199.211 160.952 199.704 162.479C200.082 163.659 200.392 164.836 200.694 166.031C201.218 168.109 201.111 170.171 201.062 172.253C201.058 172.504 200.933 172.753 200.84 173.096C200.006 172.14 199.27 171.306 198.54 170.466C198.104 169.963 197.631 169.487 197.255 168.945C196.211 167.446 195.253 165.893 194.177 164.412C193.66 163.698 192.809 163.18 192.365 162.438C191.155 160.415 189.458 158.893 187.387 157.711C186.528 157.223 186.189 156.467 186.031 155.608C185.943 155.122 185.923 154.622 185.904 154.125C185.845 152.637 186.009 151.112 185.714 149.667C185.155 146.949 185.511 144.273 185.792 141.591C186.036 139.279 186.562 136.989 185.965 134.526C188.355 136.618 190.021 138.998 191.392 141.548C192.411 143.446 193.336 145.406 193.701 147.546C193.794 148.08 193.931 148.608 194.048 149.144C194.64 149.006 194.558 148.555 194.504 148.172C194.05 144.876 192.443 141.976 190.799 139.131C190.077 137.89 188.853 136.906 187.858 135.805C187.504 135.411 186.997 135.084 187.136 134.298C187.894 134.738 188.509 135.174 189.187 135.476C191.928 136.692 194.089 138.541 195.799 140.863C196.389 141.665 196.738 142.628 197.333 143.425C198.882 145.489 199.431 147.949 200.394 150.236C200.745 151.068 201.045 151.872 201.594 152.618C202.606 153.998 203.584 155.41 204.45 156.875C204.928 157.683 205.423 158.626 205.436 159.512C205.467 162.037 206.165 164.601 205.114 167.098C204.543 168.448 204.014 169.802 202.938 170.892C202.636 171.198 202.406 171.567 202.004 172.085C201.95 171.233 201.823 170.539 201.877 169.86C202.028 167.946 201.518 166.096 201.106 164.283C200.516 161.696 199.265 159.335 197.37 157.278C196.338 156.161 195.877 154.682 195.614 153.182C195.355 151.731 195.136 150.248 194.045 149.073ZM245.418 117.011C243.482 116.939 241.548 116.833 239.611 116.808C237.616 116.783 235.618 116.78 233.626 116.875C231.665 116.969 229.714 117.202 227.757 117.372C228.104 116.958 228.506 116.748 228.926 116.575C231.555 115.493 234.116 114.242 236.304 112.512C238.848 110.506 241.674 109.743 244.906 109.801C245.979 109.817 247.133 109.621 248.116 109.225C249.27 108.76 250.45 108.771 251.618 108.649C253.855 108.416 256.111 108.292 258.36 108.186C260.133 108.103 261.926 107.679 263.743 108.313C263.806 108.905 263.867 109.481 263.921 109.987C262.784 110.959 261.087 110.955 260.079 112.484C260.689 112.249 261.016 112.123 261.343 111.996C262.113 111.694 262.865 111.33 263.66 111.105C264.882 110.754 265.606 111.164 265.562 112.3C265.53 113.171 265.423 114.334 264.838 114.832C263.618 115.873 262.723 117.241 261.206 118.001C259.184 119.012 257.04 119.602 254.804 119.943C254.026 120.063 253.238 120.15 252.479 120.344C251.009 120.722 249.572 121.233 248.089 121.565C246.089 122.012 243.957 122.194 242.016 121.804C238.528 121.109 235.138 119.964 231.714 118.978C230.887 118.741 230.094 118.4 229.284 118.105C229.601 117.822 229.848 117.796 230.092 117.775C231.616 117.642 233.14 117.488 234.667 117.389C235.709 117.322 236.772 117.213 237.796 117.338C240.331 117.642 242.848 118.091 245.418 117.011ZM216.555 131.368C216.906 131.223 217.201 131.009 217.511 130.988C220.806 130.76 223.901 131.184 226.492 133.384C227.35 134.11 228.296 134.759 229.27 135.344C231.101 136.45 232.909 137.56 234.238 139.244C234.579 139.675 235.082 140 235.538 140.336C236.609 141.124 237.538 142.07 238.135 143.183C239.472 145.659 240.421 148.274 240.852 151.052C240.996 151.971 241.311 152.897 242.116 153.586C242.377 153.811 242.479 154.203 242.752 154.698C241.97 154.32 241.423 154.058 240.86 153.786C240.472 154.502 240.996 154.65 241.413 154.832C242.687 155.389 242.689 155.385 243.209 156.278C240.177 155.825 237.506 154.811 235.143 152.977C233.892 152.008 232.501 151.222 230.814 150.854C229.462 150.556 228.057 149.939 227.004 149.096C224.972 147.479 222.794 145.998 221.848 143.356C220.838 140.541 219.477 137.844 219.245 134.676C219.935 135.347 220.531 135.95 221.153 136.528C221.45 136.802 221.794 137.033 222.121 137.277C223.557 138.343 225.053 139.348 226.416 140.49C227.56 141.453 228.477 142.607 229.253 143.895C230.096 145.295 231.238 146.535 232.187 147.882C232.718 148.635 233.006 149.566 233.621 150.241C234.299 150.985 235.228 151.524 236.048 152.153C236.211 152.279 236.365 152.42 236.538 152.535C237.694 153.309 238.984 153.735 240.428 153.788C239.95 153.406 239.411 153.141 238.855 152.913C236.931 152.13 235.179 151.072 233.965 149.458C232.418 147.405 231.065 145.219 229.574 143.128C228.823 142.077 228.074 140.985 227.111 140.124C225.096 138.32 223.006 136.574 220.801 134.98C220.014 134.407 219.284 133.812 218.609 133.142C218.25 132.785 217.975 132.352 217.606 132.006C217.355 131.772 217.001 131.633 216.555 131.368ZM171.667 164.258C171.263 164.43 171.006 164.612 170.733 164.638C167.816 164.91 164.906 165.315 161.963 165.237C161.548 165.225 161.111 165.31 160.719 165.439C158.441 166.183 156.175 166.955 153.904 167.713C153.806 167.745 153.694 167.738 153.589 167.747C151.263 167.941 148.994 167.612 147.055 166.407C145.267 165.297 143.599 163.972 142.041 162.581C139.543 160.344 136.655 158.918 133.285 158.388C131.819 158.156 130.46 157.709 128.965 157.052C130.209 156.096 131.463 155.387 132.907 155.447C135.219 155.539 137.519 155.864 139.826 156.089C141.226 156.225 142.531 156.126 143.455 154.908C143.65 154.652 144.019 154.376 144.324 154.355C145.492 154.277 146.655 154.454 147.575 155.175C148.946 156.246 150.014 157.674 151.772 158.289C151.953 158.351 152.077 158.559 152.238 158.69C154.538 160.604 156.892 162.509 159.855 163.403C162.426 164.177 165.109 164.458 167.843 164.195C169.036 164.08 170.265 163.562 171.667 164.258ZM119.843 50.198C120.994 49.6336 120.994 49.6244 121.75 49.7833C122.785 50.0045 123.821 50.2187 124.846 50.4721C127.433 51.1101 129.916 50.7186 132.377 49.8801C133.499 49.4977 134.682 49.2766 135.797 48.8827C136.958 48.475 138.053 48.7997 139.197 48.885C141.638 49.0693 144.05 49.0946 146.536 48.6569C148.733 48.2676 150.977 48.0626 153.116 47.3923C154.348 47.0099 155.58 46.5792 156.724 46.0148C157.185 45.7891 157.502 45.8006 157.885 45.9388C159.07 46.3673 160.126 47.1389 161.48 47.1297C161.575 47.1297 161.672 47.3393 161.85 47.5489C160.748 49.0992 159.38 50.35 157.609 51.2345C153.892 53.0935 149.814 54.0356 145.882 55.3324C143.282 56.1893 140.511 56.3713 137.77 55.8622C135.609 55.4614 133.599 54.4548 131.343 54.411C131.292 54.411 131.243 54.3834 131.189 54.3673C128.229 53.5334 125.372 52.4208 122.48 51.4004C121.658 51.1101 120.892 50.6817 119.843 50.198ZM148.185 84.3173C146.88 83.3821 145.894 82.4192 145.211 81.226C144.221 79.4961 143.709 77.598 142.324 75.9717C140.97 74.3823 139.516 73.1661 137.577 72.3875C137.053 72.1779 136.48 72.0166 136.036 71.7011C134.233 70.4203 132.463 69.0981 130.699 67.7667C129.841 67.1194 129.048 66.3915 128.185 65.7465C126.685 64.6293 124.899 64.0489 123.114 63.4914C121.763 63.0699 120.394 62.6898 119.026 62.3097C118.411 62.1393 117.782 62.0126 116.838 61.7914C118.785 60.4854 120.726 59.8289 122.597 59.6077C125.597 59.253 128.477 60.0845 131.141 61.5542C133.263 62.7267 135.482 63.7471 137.658 64.8343C138.677 65.3457 139.875 65.6774 140.685 66.3984C143.794 69.1603 145.875 72.5188 146.765 76.5061C147.092 77.9712 147.575 79.4062 147.911 80.8689C148.153 81.9216 148.485 82.9859 148.185 84.3173ZM131.929 170.859C132.011 170.802 132.092 170.744 132.172 170.689C133.114 171.603 134.038 172.536 134.997 173.432C135.811 174.195 136.599 175.008 137.519 175.639C138.785 176.508 140.175 177.238 141.499 178.003C142.755 178.724 143.943 179.493 145.046 180.382C146.075 181.214 146.909 182.158 147.541 183.39C148.665 185.59 149.706 187.981 152.358 189.078C153.072 189.373 153.804 189.64 154.487 189.99C155.628 190.575 156.606 191.328 157.126 192.789C155.785 192.913 154.597 193.109 153.406 193.111C152.148 193.111 150.889 192.938 149.631 192.826C147.489 192.634 145.528 192.045 143.777 190.775C142.624 189.937 141.738 188.93 140.809 187.896C138.302 185.107 136.924 181.741 135.228 178.546C134.009 176.252 133.392 173.69 132.072 171.419C131.977 171.256 131.975 171.046 131.929 170.859ZM88.136 146.525C88.0579 146.468 87.9823 146.408 87.9067 146.35C88.1726 145.664 88.5116 144.991 88.6945 144.286C89.3628 141.695 90.9823 139.739 93.1579 138.129C95.6433 136.289 98.3262 134.725 100.555 132.529C102.926 130.196 105.79 128.328 108.058 125.856C108.521 125.352 109.241 124.937 109.921 124.755C113.168 123.894 116.429 123.041 119.831 122.915C120.79 122.878 121.748 122.825 122.931 122.769C122.387 123.456 122.097 124.034 121.621 124.389C120.087 125.538 118.511 126.642 116.902 127.69C116.26 128.109 115.507 128.406 114.763 128.641C113.263 129.116 111.751 129.565 110.216 129.924C108.865 130.244 107.777 130.901 106.931 131.905C106.185 132.792 105.509 133.734 104.812 134.658C104.48 135.1 104.19 135.57 103.853 136.008C103.643 136.279 103.402 136.537 103.141 136.77C102.68 137.18 102.204 137.581 101.712 137.959C101.031 138.479 100.353 139.007 99.6311 139.472C98.6798 140.083 97.6189 140.557 96.736 141.241C96.0896 141.743 95.4311 142.029 94.6384 142.029C93.7652 142.027 93.153 142.434 92.536 142.953C91.0921 144.167 89.6043 145.337 88.136 146.525ZM84.0336 149.603C84.0189 149.08 84.4628 149.032 84.8848 148.969C85.375 148.896 85.875 148.87 86.3531 148.753C87.3775 148.502 87.9214 147.691 88.6482 147.046C90.2921 145.581 92.1189 144.298 93.8896 142.962C94.1238 142.787 94.4628 142.656 94.7579 142.651C96.2725 142.621 97.3701 141.852 98.4725 140.983C99.1408 140.456 99.9628 140.092 100.738 139.698C102.263 138.928 103.151 137.528 104.39 136.473C104.424 136.443 104.426 136.378 104.458 136.337C104.851 135.812 105.248 135.289 105.646 134.764C105.982 134.319 106.368 133.902 106.641 133.425C107.09 132.635 107.77 132.085 108.514 131.564C110.085 130.463 111.899 129.878 113.77 129.565C116.063 129.18 117.853 128.028 119.585 126.699C120.014 126.37 120.47 126.07 120.914 125.755C119.948 126.867 119.041 128.15 117.77 128.759C115.568 129.816 114.436 131.684 113.229 133.442C111.826 135.48 110.36 137.408 108.436 139.028C107.812 139.553 107.309 140.202 106.724 140.774C105.033 142.425 103.373 144.107 101.619 145.696C99.8798 147.274 97.5164 147.689 95.3482 148.433C93.6701 149.006 91.9433 149.483 90.1409 149.536C88.136 149.598 86.1287 149.584 84.0336 149.603ZM132.043 123.117C133.797 122.786 135.558 122.362 137.324 123.048C137.75 123.214 138.268 123.262 138.733 123.235C139.992 123.152 141.25 123.023 142.502 122.864C144.092 122.666 145.746 122.502 147.124 123.338C148.921 124.426 150.946 124.976 152.821 125.852C154.431 126.602 156.177 127.3 157.445 128.438C158.904 129.747 160.267 131.285 160.833 133.253C160.997 133.819 161.275 134.409 161.672 134.849C163.036 136.351 163.953 138.078 164.748 139.882C164.914 140.255 165.077 140.628 165.243 140.999C164.536 140.663 164.058 140.211 163.599 139.744C162.287 138.412 161.019 137.04 159.66 135.75C159.133 135.25 158.245 135.054 157.804 134.51C157.014 133.545 155.972 133.237 154.821 133.025C153.175 132.725 151.455 132.603 149.899 132.062C146.897 131.018 143.904 129.913 141.455 127.807C140.377 126.877 139.138 126.047 137.838 125.428C135.97 124.536 133.98 123.877 132.043 123.117ZM147.66 85.2064C146.948 85.8537 146.655 85.9942 146.207 85.6234C145.18 84.778 144.207 83.875 143.228 82.9766C142.928 82.7025 142.733 82.3132 142.411 82.0714C140.331 80.5188 138.016 79.5076 135.311 79.4062C134.68 79.3809 133.98 79.3832 133.443 79.1252C132.67 78.7566 131.85 78.2798 131.36 77.6372C130.76 76.8517 130.419 75.8704 130.075 74.9398C128.643 71.04 126.007 68.513 121.541 67.8035C120.216 67.5962 118.997 66.9858 118.121 65.8156C117.18 64.5579 115.992 63.4661 114.897 62.2844C115.07 62.2706 115.336 62.1945 115.582 62.2337C117.382 62.5193 119.187 62.7451 120.89 63.4776C122.185 64.035 123.624 64.3045 124.909 64.8804C127.255 65.9354 129.358 67.3405 131.243 69.0566C132.897 70.5608 134.687 71.9268 136.877 72.71C138.168 73.1684 139.333 73.7535 140.17 74.8638C140.88 75.8059 141.777 76.619 142.487 77.5611C142.924 78.137 143.255 78.8188 143.465 79.5007C143.733 80.3806 144.367 81.9009 144.904 82.5182C145.538 83.2508 146.148 84.0063 146.814 84.7158C147.031 84.9461 147.392 85.0567 147.66 85.2064ZM170.443 90.9099C171.084 92.7688 170.026 93.4092 168.694 93.9505C167.987 94.2384 167.402 94.7866 166.706 95.1114C165.938 95.4731 165.104 95.7126 164.167 96.0559C164.55 94.8557 164.931 93.9182 165.143 92.9485C165.441 91.594 165.706 90.2211 165.814 88.8436C166.024 86.213 169.497 84.1491 171.909 83.9188C174.733 83.6493 177.387 83.101 179.16 80.6225C179.811 79.7149 180.928 79.1045 181.841 78.3651C182.033 78.2084 182.238 78.0218 182.472 77.9619C184.541 77.4183 186.621 76.9069 188.692 76.3725C189.184 76.2458 189.66 76.0685 190.404 75.8312C190.094 77.0475 189.884 78.0472 189.567 79.0146C189.438 79.4085 189.128 79.7932 188.797 80.0719C188.245 80.5349 187.65 80.9772 187.006 81.3043C185.606 82.0184 184.328 82.8546 183.223 83.9464C182.911 84.2551 182.436 84.4232 182.026 84.6398C181.665 84.831 181.277 84.9784 180.928 85.1857C179.853 85.8168 178.794 86.471 177.726 87.1091C176.097 88.0881 174.326 88.8575 173.023 90.2971C172.499 90.8799 171.702 91.2508 170.443 90.9099ZM209.24 36.5705C209.211 36.6419 209.182 36.7179 209.153 36.7893C207.418 36.3701 205.675 35.9762 203.95 35.527C201.65 34.9235 199.287 34.6448 196.928 34.6125C195.15 34.5872 193.375 35.0433 191.587 35.1562C190.14 35.2483 188.65 35.3128 187.231 35.0894C185.423 34.806 183.665 34.2371 181.892 33.7626C180.097 33.2811 178.382 33.8363 176.662 34.138C176.048 34.2463 175.502 34.4075 174.838 34.3223C172.828 34.0666 170.802 33.9238 168.782 33.7395C169.126 33.1567 169.502 32.802 169.955 32.6016C171.05 32.1179 172.182 31.7055 173.302 31.2679C176.709 29.9341 180.277 29.4896 183.931 29.6209C186.967 29.7314 189.999 30.0102 193.028 29.4435C194.777 29.1164 196.465 29.4251 198.014 30.2751C199.243 30.95 200.45 31.6595 201.672 32.3436C204.194 33.7556 206.718 35.1608 209.24 36.5705ZM166.945 34.2417C167.292 34.2117 167.45 34.1611 167.584 34.1933C168.736 34.4766 169.867 34.9258 171.036 35.0364C173.223 35.246 175.443 35.322 177.597 34.7715C179.028 34.4052 180.448 34.1864 181.909 34.4997C183.182 34.7738 184.48 34.9926 185.711 35.3888C188.667 36.3402 191.638 35.8702 194.616 35.6307C196.023 35.5178 197.453 35.3151 198.845 35.4372C200.653 35.5961 202.453 35.9578 204.214 36.3931C204.831 36.5452 205.728 36.354 206.136 37.1832C205.945 37.2777 205.811 37.4067 205.679 37.3998C204.094 37.3353 202.631 37.766 201.26 38.4479C199.94 39.1067 198.572 39.5259 197.087 39.6848C195.687 39.8346 194.423 39.7148 193.216 38.9109C192.262 38.2751 191.092 37.8582 189.928 38.2336C188.694 38.6321 187.389 39.0767 186.397 39.8299C185.119 40.7974 183.76 41.0347 182.253 40.9771C180.936 40.9264 179.621 40.8297 178.306 40.7237C177.731 40.6776 177.099 40.6845 176.597 40.4588C174.465 39.5005 172.197 38.7657 170.438 37.1602C169.363 36.1789 168.199 35.2829 166.945 34.2417ZM205.087 105.049C205.087 104.929 205.087 104.809 205.087 104.687C205.214 104.625 205.333 104.537 205.467 104.507C207.004 104.162 208.589 103.945 210.072 103.455C211.672 102.925 213.196 102.361 214.957 102.619C215.626 102.715 216.399 102.222 217.06 102.337C218.523 102.595 219.748 102.003 221.011 101.58C222.562 101.061 224.067 100.419 225.596 99.8382C227.396 99.1564 229.279 98.873 231.199 98.6243C232.553 98.4492 234.092 98.1152 235.101 97.3343C236.528 96.2309 238.374 95.9937 239.743 94.8926C239.884 94.7797 240.235 94.8811 240.484 94.9133C242.24 95.1253 243.389 96.3553 244.899 97.1477C244.652 97.3735 244.531 97.5831 244.362 97.6222C243.245 97.8848 242.123 98.129 240.994 98.3409C238.457 98.8085 236.228 99.829 234.25 101.421C233.287 102.195 232.231 102.939 231.089 103.427C229.038 104.302 226.911 105.044 224.767 105.703C223.633 106.053 222.401 106.233 221.204 106.274C219.677 106.325 218.143 106.18 216.614 106.081C214.014 105.915 211.411 105.742 208.814 105.528C207.567 105.424 206.328 105.212 205.087 105.049ZM127.589 168.183C127.875 169.353 128.114 170.578 128.48 171.767C129.492 175.073 129.36 178.369 128.494 181.665C127.989 183.593 126.592 184.982 125.199 186.369C123.677 187.889 122.263 189.469 121.782 191.614C121.59 192.475 121.238 193.309 120.909 194.141C119.624 197.398 117.021 199.699 114.263 202.364C114.433 201.325 114.47 200.627 114.672 199.976C115.011 198.895 114.948 197.854 114.885 196.737C114.79 195.071 115.065 193.342 116.331 191.976C116.851 191.416 117.597 190.994 117.96 190.365C119.197 188.23 121.094 186.539 122.063 184.171C122.816 182.329 123.233 180.49 123.507 178.599C123.807 176.519 124.072 174.446 125.09 172.55C125.87 171.101 126.726 169.687 127.589 168.183ZM165.182 142.303C162.658 141.939 160.206 141.485 157.682 141.596C155.931 141.672 154.167 141.688 152.892 140.211C152.741 140.036 152.421 139.997 152.185 139.884C150.921 139.283 149.602 138.763 148.409 138.051C146.767 137.074 145.204 135.975 143.646 134.881C143.153 134.536 142.702 134.093 142.363 133.61C141.265 132.039 140.292 130.383 139.143 128.846C138.516 128.008 137.736 127.194 136.841 126.635C135.572 125.842 134.131 125.303 132.772 124.64C132.543 124.527 132.355 124.347 132.146 124.198C135.153 124.949 137.985 125.974 140.399 127.842C141.902 129.007 143.465 130.101 145.014 131.212C145.216 131.357 145.489 131.433 145.746 131.495C147.682 131.97 149.624 132.426 151.558 132.903C153.019 133.262 154.582 133.442 155.906 134.063C157.75 134.93 159.36 136.114 160.638 137.779C161.897 139.421 163.602 140.76 165.182 142.303ZM203.962 104.13C203.923 103.982 203.884 103.835 203.845 103.687C205.097 102.543 206.333 101.388 207.601 100.264C208.06 99.8543 208.531 99.3775 209.094 99.161C210.45 98.6381 211.867 98.2649 213.25 97.7996C213.989 97.5531 214.753 97.3182 215.421 96.945C218.248 95.3694 221.24 94.7175 224.506 95.2727C226.511 95.6136 228.406 95.5652 230.15 94.2776C230.974 93.6718 232.018 93.142 233.153 93.2663C234.826 93.4529 236.487 93.7363 238.143 94.0242C238.443 94.0749 238.701 94.3467 239.123 94.607C238.613 94.7913 238.326 94.9272 238.023 94.9963C236.623 95.3141 235.379 95.8601 234.231 96.7262C233.565 97.226 232.628 97.4587 231.774 97.6683C230.662 97.9447 229.506 98.0576 228.377 98.2787C225.874 98.7648 223.531 99.6677 221.257 100.748C219.326 101.667 217.231 101.681 215.145 101.838C213.638 101.948 212.031 101.951 210.667 102.469C208.675 103.224 206.557 103.337 204.56 103.952C204.36 104.014 204.162 104.072 203.962 104.13ZM130.429 168.197C130.477 168.118 130.526 168.04 130.575 167.962C132.08 168.121 133.689 168.017 135.063 168.508C136.524 169.028 138.011 169.507 139.46 170.062C140.628 170.512 141.702 171.12 142.511 172.119C143.333 173.135 144.228 174.119 145.216 174.992C146.172 175.835 147.289 176.512 148.326 177.272C149.16 177.885 149.967 178.525 150.811 179.124C151.599 179.684 152.563 180.023 152.763 181.161C152.848 181.637 153.433 182.031 153.775 182.474C153.989 182.75 154.267 183.026 154.35 183.342C154.731 184.823 155.687 186.155 155.548 187.788C155.497 188.366 155.828 188.97 156.041 189.776C154.026 188.834 151.892 188.394 150.541 186.735C149.704 185.712 148.933 184.607 148.36 183.439C146.958 180.587 144.543 178.77 141.76 177.263C140.526 176.593 139.177 176.024 138.136 175.142C135.489 172.907 132.987 170.521 130.429 168.197ZM127.121 157.58C127.56 157.624 128.082 157.534 128.421 157.73C130.102 158.699 132.026 158.817 133.865 159.222C135.885 159.669 137.865 160.236 139.524 161.445C141.277 162.721 142.95 164.101 144.65 165.444C145.524 166.13 146.314 166.92 147.367 167.377C149.794 168.429 152.277 168.747 154.872 167.929C156.272 167.485 157.728 167.19 159.124 166.736C161.024 166.114 162.909 165.534 164.97 165.889C165.253 165.939 165.577 165.716 165.889 165.69C166.253 165.665 166.623 165.72 166.992 165.739C167.006 165.84 167.021 165.944 167.036 166.045C166.57 166.243 166.089 166.416 165.641 166.644C164.384 167.28 162.999 167.78 161.933 168.634C160.882 169.48 159.838 170.254 158.631 170.896C156.621 171.97 154.592 172.64 152.228 172.216C149.555 171.737 146.86 171.274 144.667 169.662C142.933 168.386 141.38 166.893 139.76 165.481C138.124 164.057 136.543 162.574 134.272 162.046C133.46 161.857 132.689 161.51 131.882 161.3C129.763 160.745 128.709 158.93 127.121 157.58ZM156.789 45.0358C155.441 45.5357 154.287 46.0033 153.106 46.3903C151.821 46.8095 150.524 47.2149 149.204 47.5144C148.131 47.7563 146.994 47.7494 145.926 48.0027C144.414 48.3598 142.902 48.445 141.367 48.2769C138.289 47.9405 135.324 48.0672 132.38 49.265C130.258 50.1266 127.921 50.4606 125.56 49.9262C125.085 49.8179 124.563 49.8962 124.072 49.8294C123.226 49.7119 122.326 49.6705 121.536 48.7744C123.029 48.2515 124.338 47.4269 125.66 47.4084C128.507 47.3647 130.819 46.3442 133.146 44.9644C134.502 44.1605 136.136 43.6699 137.841 43.8334C139.409 43.9831 140.975 44.1882 142.543 44.3379C144.997 44.5659 147.433 44.6327 149.87 44.0384C151.185 43.7205 152.575 43.5501 153.931 43.5455C154.941 43.5432 156.045 43.7482 156.789 45.0358ZM188.875 124.103C190.762 123.511 192.409 123.198 194.101 123.136C194.499 123.12 194.921 123.308 195.301 123.467C197.655 124.446 199.494 126.116 201.318 127.736C202.601 128.876 203.789 130.194 204.489 131.767C204.809 132.488 205.321 132.767 206.04 132.833C207.228 132.939 208.24 133.347 209.072 134.179C209.326 134.432 209.831 134.503 210.004 134.775C211.082 136.491 212.072 138.258 213.15 139.972C213.85 141.082 214.653 142.137 215.618 143.515C214.95 143.19 214.601 143.072 214.314 142.874C211.838 141.158 209.216 139.691 206.436 138.454C203.979 137.367 202.328 135.476 200.831 133.377C199.109 130.958 197.014 128.793 194.46 127.13C192.799 126.05 190.958 125.218 188.875 124.103ZM188.348 124.801C188.731 124.856 188.948 124.836 189.104 124.919C190.392 125.605 191.636 126.37 192.955 126.992C194.17 127.565 195.079 128.425 196.021 129.309C198.106 131.269 199.982 133.377 201.611 135.69C202.092 136.374 202.614 137.143 203.323 137.546C204.833 138.406 206.345 139.276 207.999 139.912C209.14 140.35 210.231 140.983 211.218 141.688C212.648 142.706 214.199 143.508 215.772 144.286C216.055 144.427 216.316 144.602 216.899 144.943C214.621 145.04 212.731 145.141 210.84 145.18C210.514 145.187 210.126 144.987 209.862 144.775C207.457 142.844 204.504 142.013 201.589 141.144C200.238 140.741 199.267 140.08 198.558 138.926C197.262 136.823 196.172 134.596 194.477 132.723C194.136 132.345 193.86 131.912 193.57 131.497C192.121 129.431 191.06 127.095 188.882 125.538C188.694 125.402 188.597 125.154 188.348 124.801ZM203.94 64.0696C204.087 64.0696 204.231 64.0719 204.377 64.0719C204.736 65.3319 205.177 66.5781 205.428 67.8565C205.616 68.8171 205.482 69.8076 205.001 70.7198C204.145 72.3414 203.272 73.9562 202.472 75.6055C202.175 76.2159 202.014 76.9 201.877 77.568C201.628 78.7797 201.575 80.0259 200.884 81.1315C200.704 81.4218 200.54 81.7696 200.531 82.0967C200.445 84.7803 199.443 87.1229 197.699 89.2168C197.306 89.6867 196.994 90.2188 196.599 90.691C196.128 91.2531 195.606 91.7806 194.984 92.4532C194.736 89.1108 195.455 86.2775 197.179 83.6377C197.811 82.6703 198.099 81.5185 197.96 80.3322C197.784 78.858 197.601 77.3861 197.458 75.9118C197.394 75.2715 197.328 74.6173 197.414 73.9861C197.767 71.397 199.172 69.4091 201.479 68.0016C202.572 67.3359 203.145 66.3823 203.484 65.2444C203.606 64.8459 203.787 64.4612 203.94 64.0696ZM106.029 174.147C105.658 173.923 105.185 173.796 105.065 173.529C104.785 172.9 104.565 172.209 104.519 171.532C104.399 169.844 104.455 168.146 104.319 166.457C104.18 164.725 103.897 163 103.663 161.272C103.624 160.982 103.385 160.662 103.463 160.418C104.077 158.48 104.212 156.322 105.707 154.753C106.785 153.62 107.473 152.303 108.307 151.047C109.629 149.062 111.197 147.304 113.646 146.279C113.697 146.726 113.853 147.101 113.751 147.398C113.336 148.617 113.533 149.925 112.785 151.137C112.033 152.349 111.853 153.862 111.251 155.17C110.319 157.197 108.468 158.824 108.302 161.199C108.294 161.328 107.963 161.415 107.853 161.567C107.68 161.809 107.475 162.081 107.443 162.357C107.302 163.603 107.155 164.854 107.129 166.105C107.099 167.625 107.629 169.136 107.012 170.671C106.607 171.684 106.409 172.769 106.029 174.147ZM191.536 75.0457C191.606 75.0665 191.675 75.0895 191.745 75.1125C191.758 76.1583 191.872 77.2156 191.755 78.2499C191.638 79.2749 191.44 80.3414 190.994 81.2651C190.645 81.9838 190.448 82.6173 190.54 83.389C190.645 84.2712 190.409 85.0452 189.645 85.6763C187.836 87.1736 185.76 88.2747 183.56 89.0924C181.204 89.9677 179.062 91.0273 177.462 92.9415C177.08 93.3999 176.502 93.7109 176.009 94.0887C174.087 95.556 171.738 96.0328 169.419 96.4958C168.165 96.7446 166.841 96.6617 165.545 96.7285C165.826 96.2332 166.141 95.9775 166.499 95.8094C167.448 95.3694 168.416 94.9686 169.377 94.5517C170.336 94.1325 171.206 93.5957 171.994 92.9208C173.155 91.9257 174.367 90.9836 175.55 90.0115C175.702 89.8848 175.85 89.7213 175.919 89.5439C176.336 88.4728 176.972 87.7195 178.341 87.7863C178.599 87.7979 178.928 87.5652 179.133 87.3625C180.287 86.2223 181.704 85.5312 183.267 85.0406C183.597 84.9392 184.014 84.7388 184.143 84.4762C184.877 82.9951 186.414 82.4837 187.709 81.6429C189.131 80.7215 190.775 79.9268 190.709 77.8145C190.68 76.9 191.24 75.9694 191.536 75.0457ZM125.165 163.394C126.102 164.562 126.887 165.541 126.672 166.826C126.516 167.752 126.236 168.683 125.841 169.54C125.36 170.583 124.55 171.502 124.15 172.564C123.663 173.866 123.436 175.259 123.121 176.618C122.748 178.228 122.433 179.85 122.036 181.453C121.79 182.455 121.485 183.448 121.126 184.418C120.468 186.187 118.916 187.419 117.931 189.002C117.458 189.762 116.733 190.388 116.097 191.052C115.309 191.867 114.49 192.639 114.458 193.864C114.448 194.254 114.197 194.641 113.972 195.263C113.099 193.551 113.248 191.996 113.19 190.485C113.151 189.444 113.651 188.562 114.519 187.898C116.251 186.569 116.951 184.644 117.548 182.769C118.031 181.262 118.009 179.606 118.163 178.012C118.27 176.892 118.536 175.842 119.27 174.937C120.163 173.838 121.026 172.716 121.972 171.659C124.033 169.36 125.119 166.732 125.165 163.394ZM195.767 93.2617C195.694 93.1972 195.619 93.135 195.548 93.0705C196.184 92.2989 196.887 91.5664 197.445 90.744C198.687 88.922 200.411 87.3671 200.738 85.0244C200.887 83.9741 201.697 83.0296 201.438 81.8595C201.394 81.6521 201.618 81.3964 201.699 81.1569C201.955 80.3967 202.35 79.6458 202.423 78.8695C202.653 76.4601 203.816 74.41 204.926 72.3092C205.47 71.2749 206.345 70.3097 206.089 68.9783C205.914 68.0569 205.889 67.1102 205.797 66.175C206.787 67.5018 207.653 68.8056 207.675 70.5055C207.697 72.1525 207.921 73.8041 208.153 75.4396C208.316 76.5822 208.087 77.6348 207.557 78.6184C207.055 79.5467 206.397 80.399 205.833 81.302C205.221 82.2833 204.606 83.2669 204.055 84.2804C203.238 85.7846 202.689 87.3855 201.57 88.7837C200.226 90.4676 198.26 91.4166 196.777 92.907C196.558 93.1304 196.109 93.1489 195.767 93.2617ZM181.133 16.1155C180.923 16.3366 180.809 16.5048 180.65 16.6131C179.045 17.7072 177.102 18.3084 175.677 19.6721C175.502 19.8402 175.184 19.8679 174.97 20.0107C173.697 20.8538 172.419 21.69 171.172 22.5676C170.033 23.3692 169.045 24.4495 167.792 25.0024C164.989 26.2347 162.084 27.2713 159.175 28.2687C158.238 28.5912 157.16 28.6073 156.041 28.3609C156.397 27.9485 156.677 27.6537 156.928 27.3358C158.802 24.9609 161.18 23.201 164.092 22.0815C166.038 21.3352 167.904 20.4967 169.431 19.0409C170.899 17.6358 172.755 17.1958 174.843 17.5206C175.548 17.6289 176.331 17.5874 177.021 17.4124C178.372 17.0668 179.684 16.5808 181.133 16.1155ZM213.828 96.3139C213.811 96.2448 213.792 96.1733 213.772 96.1042C214.484 95.4524 215.133 94.7245 215.923 94.1739C216.801 93.5589 217.787 93.0682 218.767 92.6029C219.611 92.2021 220.489 91.8151 221.401 91.5986C222.775 91.2738 224.184 91.0757 225.587 90.873C227.928 90.5367 230.27 90.2004 232.621 89.9401C234.816 89.6959 236.899 89.9286 238.745 91.2992C240.009 92.2344 241.377 93.0636 242.777 93.8054C243.726 94.3098 244.796 94.6254 245.843 94.9479C246.587 95.1782 247.406 95.2013 248.135 95.457C248.86 95.7103 249.674 95.2635 250.384 95.9799C250.877 96.4774 251.816 96.5672 252.54 96.8736C252.806 96.9842 253.026 97.1892 253.591 97.5762C252.274 97.5071 251.333 97.5117 250.411 97.3988C248.562 97.1777 246.774 96.7492 245.213 95.7242C244.823 95.4685 244.509 95.0746 244.087 94.9133C241.033 93.7524 238.157 91.9971 234.645 92.3104C232.811 91.2761 231.509 92.5615 230.057 93.2387C229.538 93.4829 228.994 93.7017 228.435 93.8514C227.472 94.1117 226.531 94.2453 225.479 94.0127C222.604 93.3815 219.809 93.704 217.143 94.9755C216.072 95.4846 214.936 95.8716 213.828 96.3139ZM114.28 149.842C114.563 150.646 114.797 151.091 114.87 151.558C115.068 152.832 115.292 154.115 115.324 155.398C115.348 156.382 115.065 157.368 114.97 158.358C114.816 159.948 114.246 161.401 113.231 162.65C112.441 163.622 111.648 164.619 110.831 165.538C109.492 167.038 109.409 168.821 108.936 170.489C108.565 171.795 108.438 173.124 107.304 174.186C106.958 173.135 107.38 172.205 107.58 171.244C107.782 170.279 107.975 169.295 108.004 168.314C108.051 166.775 107.958 165.232 107.914 163.689C107.88 162.438 108.675 161.466 109.165 160.395C109.763 159.089 110.165 157.607 111.099 156.562C112.163 155.371 112.453 154 112.997 152.666C113.346 151.81 113.76 150.976 114.28 149.842ZM177.014 206.875C176.236 206.57 175.46 206.257 174.68 205.96C172.572 205.158 170.511 204.272 168.733 202.91C167.643 202.076 166.487 201.459 165.089 201.19C164.277 201.035 163.328 200.835 162.765 200.33C160.928 198.69 159.733 196.631 159.065 194.318C159.019 194.157 159.094 193.963 159.109 193.8C161.419 193.867 163.245 194.712 164.687 196.29C166.16 197.898 168.004 199.013 170.014 199.909C170.582 200.162 171.141 200.455 171.736 200.625C174.962 201.549 175.892 204.255 177.014 206.875ZM181.794 14.6459C181.833 14.7541 181.87 14.8601 181.909 14.9684C180.87 15.2701 179.789 15.482 178.802 15.8944C177.406 16.4771 176.048 16.8042 174.477 16.6269C173.606 16.5301 172.589 16.2583 171.714 16.8204C170.726 17.4515 169.76 18.1172 168.745 18.7092C167.355 19.5178 165.987 20.3954 164.502 21.0173C161.714 22.1852 159.224 23.6663 157.397 26.032C157.158 26.3407 156.811 26.5803 156.311 27.0364C156.709 25.9307 156.948 25.0346 157.348 24.2077C157.941 22.9845 158.524 21.7268 159.345 20.6442C160.321 19.3519 161.224 17.9721 163.021 17.3824C164.914 16.7605 166.675 15.7907 168.553 15.1273C169.836 14.6735 171.209 14.5906 172.592 14.9453C173.484 15.1734 174.519 15.0582 175.323 15.4221C176.433 15.9243 177.233 15.5281 178.119 15.072C178.245 15.0075 178.431 15.0444 178.587 15.0259C179.655 14.9016 180.726 14.7749 181.794 14.6459ZM164.989 2.37517C165.087 3.1192 164.602 3.40714 164.187 3.67434C163.448 4.14886 162.643 4.53124 161.899 4.99655C161.487 5.25454 161.067 5.5563 160.772 5.92255C159.977 6.91305 159.245 7.94962 158.487 8.96546C158.306 9.20963 158.063 9.42616 157.938 9.69337C156.975 11.7389 155.743 13.6185 153.987 15.1434C152.86 16.1247 151.77 17.1751 150.506 17.9744C147.516 19.8633 144.424 21.6116 141.919 24.286C141.98 23.8437 142.002 23.5074 142.08 23.1872C142.138 22.9454 142.267 22.7196 142.367 22.487C143.475 19.8932 145.619 18.085 147.738 16.2767C148.628 15.5143 149.597 14.8094 150.626 14.2289C152.492 13.1785 154.199 12.0061 155.548 10.3522C156.194 9.55976 156.677 8.70056 157.233 7.8713C159.055 5.14858 161.948 3.71811 164.989 2.37517ZM141.219 27.8011C141.085 27.7113 140.948 27.6191 140.811 27.527C141.314 26.6701 141.809 25.8063 142.321 24.954C143.428 23.1135 145.375 22.1253 147.08 20.9298C148.726 19.7734 150.667 19.0571 152.148 17.5851C153.594 16.1524 155.36 15.0444 156.431 13.2361C157.433 11.5431 158.785 10.0343 159.797 8.34813C160.887 6.53528 162.506 5.37202 164.367 4.39303C164.182 4.79845 163.914 5.13936 163.655 5.48719C163.331 5.92485 162.95 6.33948 162.702 6.814C161.77 8.5969 160.955 10.4397 159.953 12.1857C159.055 13.7452 157.811 15.0352 156.424 16.2975C154.755 17.8178 152.809 18.9119 150.997 20.1766C149.014 21.5587 146.809 22.6298 145.68 24.8503C145.636 24.9356 145.563 25.0185 145.482 25.0692C144.063 25.9837 142.641 26.8912 141.219 27.8011ZM117.67 112.959C119.499 116.2 122.548 118.303 125.368 120.793C122.663 121.678 120.058 121.784 117.285 121.802C117.175 121.125 116.926 120.484 117.002 119.881C117.238 118.066 117.611 116.269 117.472 114.422C117.438 113.94 117.599 113.447 117.67 112.959ZM98.1238 55.0192C100.236 54.2936 102.224 53.3054 104.407 52.7134C106.538 52.1329 108.563 51.1286 110.965 51.382C108.78 52.8861 106.375 53.7499 103.992 54.7105C102.058 55.4914 100.258 55.9659 98.2408 55.2818C98.2164 55.2726 98.2091 55.215 98.1238 55.0192ZM94.714 56.6454C92.214 59.1447 86.7189 63.2426 81.6214 64.088C81.7702 63.8323 81.8458 63.5536 82.0336 63.4177C83.0799 62.6737 84.1141 61.902 85.2287 61.2616C86.6653 60.437 88.1604 59.7022 89.6579 58.9766C91.3287 58.1703 93.0262 57.4217 94.714 56.6454ZM179.153 28.1812C179.728 27.8771 180.343 27.6214 180.877 27.2621C182.853 25.933 184.982 26.2601 187.092 26.7507C187.833 26.9235 188.497 27.4118 188.58 28.3125C185.45 28.605 182.328 27.5662 179.153 28.1812ZM178.462 104.597C178.497 104.729 178.531 104.862 178.565 104.996C177.865 105.334 177.199 105.779 176.458 105.991C175.253 106.336 173.989 106.491 172.767 106.797C171.445 107.129 170.136 107.507 168.843 107.926C167.899 108.234 167.163 107.997 166.143 107.219C168.121 106.935 169.777 106.735 171.419 106.449C172.484 106.263 173.536 105.977 174.582 105.698C175.882 105.35 177.17 104.963 178.462 104.597ZM49.8532 66.1934C46.8069 65.3964 43.8898 64.7791 41.0874 63.86C38.285 62.9409 35.1898 62.7704 32.7167 60.9875C38.2898 62.4618 43.8142 64.0742 49.3337 65.7005C49.4971 65.7488 49.6093 65.9538 49.8532 66.1934ZM114.097 106.597C112.341 103.959 112.763 101.137 112.265 98.5022C113.394 101.008 114.733 103.469 114.097 106.597ZM175.743 111.386C175.509 110.508 176.06 110.483 176.606 110.372C178.384 110.01 180.16 109.63 181.926 109.218C182.787 109.018 183.623 108.732 184.472 108.486C184.516 108.621 184.56 108.757 184.601 108.896C181.816 110.086 178.948 111.049 175.743 111.386ZM203.128 118.059C200.258 116.73 197.204 116.813 194.567 115.488C196.95 115.781 199.37 115.744 201.677 116.525C202.377 116.762 202.85 117.066 203.128 118.059ZM176.316 28.7778C172.975 30.0839 169.633 31.39 166.292 32.6983C166.248 32.5947 166.204 32.4933 166.16 32.3897C169.431 30.9085 172.589 29.1602 176.316 28.7778ZM164.904 107.951C162.216 108.591 160.075 107.083 157.645 106.532C157.945 106.343 158.258 106.247 158.528 106.311C159.533 106.548 160.524 106.848 161.524 107.106C162.648 107.398 163.777 107.668 164.904 107.951ZM109.702 93.1719C108.18 93.2433 106.865 92.6237 105.577 91.2324C106.926 91.0066 108.638 91.8105 109.702 93.1719ZM115.629 113.221C115.955 113.383 116.263 113.454 116.272 113.551C116.351 114.463 116.409 115.382 116.404 116.301C116.404 116.626 116.216 116.953 116.114 117.278C116.016 117.262 115.916 117.246 115.816 117.23C115.758 115.979 115.699 114.726 115.629 113.221ZM119.041 132.073C118.587 129.885 118.587 129.885 119.299 129.592C119.209 130.468 119.124 131.272 119.041 132.073ZM93.0969 86.0656C93.1433 85.9712 93.1896 85.879 93.2335 85.7892C93.9482 86.1048 94.6628 86.4204 95.6482 86.858C94.3018 87.1644 93.775 86.4595 93.0969 86.0656ZM134.902 42.6655C135.804 41.7902 135.804 41.7902 136.814 41.8754C136.024 42.8521 136.024 42.8521 134.902 42.6655ZM128.365 45.9273C128.311 45.8098 128.258 45.69 128.204 45.5702C128.814 45.3791 129.421 45.1879 130.031 44.9967C130.065 45.098 130.099 45.1971 130.136 45.2984C129.546 45.5081 128.955 45.7177 128.365 45.9273ZM83.6701 79.8715C83.7433 79.7863 83.8165 79.6988 83.8921 79.6158C84.4092 79.9476 84.9287 80.2816 85.4482 80.6133C85.3897 80.6893 85.3336 80.763 85.2775 80.839C84.7433 80.5165 84.2067 80.1917 83.6701 79.8715ZM86.2579 81.2099C86.3384 81.1108 86.4189 81.0095 86.497 80.9104C86.814 81.1592 87.1287 81.408 87.4457 81.6544C87.4116 81.6959 87.3775 81.7328 87.3433 81.7742C86.9823 81.5853 86.6189 81.3964 86.2579 81.2099ZM151.421 101.418C151.46 101.501 151.499 101.587 151.541 101.672C151.194 101.808 150.85 101.951 150.499 102.075C150.475 102.084 150.402 101.967 150.287 101.833C150.685 101.686 151.053 101.552 151.421 101.418ZM132.668 43.6745C132.719 43.7989 132.77 43.9233 132.821 44.0476C132.477 44.172 132.131 44.2964 131.787 44.4208C131.748 44.3333 131.709 44.248 131.668 44.1605C132.002 43.9993 132.333 43.8357 132.668 43.6745ZM30.4435 60.4163C30.3947 60.5153 30.3484 60.6144 30.2996 60.7111C29.8996 60.5545 29.4972 60.3955 29.0947 60.2389C29.1313 60.156 29.1679 60.073 29.2069 59.9901C29.6191 60.1329 30.0313 60.2734 30.4435 60.4163ZM115.719 119.745C115.631 119.727 115.541 119.71 115.451 119.694C115.497 119.287 115.541 118.879 115.587 118.471C115.69 118.485 115.79 118.501 115.89 118.515C115.833 118.925 115.777 119.335 115.719 119.745ZM138.07 102.847C138.109 102.734 138.15 102.621 138.189 102.508C138.563 102.646 138.938 102.784 139.314 102.923C139.282 103.001 139.25 103.077 139.221 103.155C138.838 103.054 138.453 102.95 138.07 102.847Z" fill="#3D3D3D"/>
<path d="M149.199 105.855C148.355 105.588 147.528 105.265 146.665 105.083C146.311 105.01 145.884 105.247 145.55 105.542C146.421 105.735 147.296 105.906 148.157 106.134C148.613 106.253 148.989 106.313 149.206 105.811L149.199 105.855Z" fill="#3D3D3D"/>
<path d="M149.207 105.811C149.385 106.435 149.951 106.438 150.458 106.468C151.329 106.521 152.205 106.521 153.08 106.546C153.08 106.546 153.08 106.592 153.08 106.594C151.858 106.021 150.558 105.802 149.2 105.855L149.207 105.811Z" fill="#3D3D3D"/>
</svg>
