<svg width="312" height="279" viewBox="0 0 312 279" fill="none" xmlns="http://www.w3.org/2000/svg">
<g filter="url(#filter0_d_107_4)">
<path d="M-12.4429 283.367C10.9224 275.938 34.2368 267.698 56.0804 255.959C77.8931 244.034 97.2208 228.231 116.339 212.439C125.78 204.406 135.639 196.76 143.824 186.986C152.006 177.2 157.896 165.768 163.064 154.273C173.565 131.304 182.148 107.403 188.577 82.9331L188.274 82.8402C179.987 106.68 170.643 130.034 160.125 152.832C154.809 164.152 149.266 175.411 141.56 184.998C133.82 194.521 124.267 202.563 115.211 211.063C106.043 219.416 96.6541 227.547 86.5941 234.727C76.5825 241.992 65.8704 248.084 54.8913 253.546C33.0655 264.734 10.1496 273.544 -12.5527 283.053L-12.4429 283.367Z" fill="#373434"/>
<path d="M173.572 99.9384C175.18 102.712 177.43 105.484 180.775 106.302C184.2 106.974 187.457 105.17 190.135 103.399C192.855 101.526 195.297 99.3734 197.674 97.1994C200.126 94.9782 202.338 92.4295 204.215 89.5768C206.032 86.7031 207.48 83.4254 208.005 79.8835C208.556 76.3368 208.088 72.8218 207.441 69.5535C206.081 63.0489 204.121 56.739 201.632 50.6508C201.026 49.131 200.392 47.6072 199.733 46.1171L198.712 43.8813C198.346 43.1558 198.203 42.3506 197.416 41.5523C196.56 40.7608 195.303 41.0058 194.586 41.444C193.807 41.8732 193.176 42.5054 192.643 43.1146C191.561 44.3139 190.433 45.4695 189.381 46.7144C185.079 51.5567 180.96 56.6441 177.516 62.2577C174.184 67.8709 171.227 73.9671 170.188 80.6854C169.645 84.0018 169.613 87.4288 170.154 90.723C170.749 93.9962 171.892 97.1414 173.572 99.9384ZM173.842 99.7706C172.219 96.9942 171.17 93.8335 170.977 90.6222C170.826 87.4002 171.231 84.192 172.121 81.1442C173.91 75.0497 176.856 69.3399 179.775 63.6262C182.743 57.9608 186.056 52.3657 190.145 47.4144C191.172 46.1823 192.22 44.9658 193.331 43.8201C194.305 42.7086 195.882 41.6297 196.674 42.4164C197.051 42.7635 197.322 43.6283 197.633 44.3708L198.466 46.6457C199.006 48.1849 199.527 49.7172 200.002 51.2677C201.892 57.4767 203.388 63.7984 204.511 70.1287C205.048 73.2778 205.306 76.3871 204.762 79.3154C204.209 82.2587 203.021 85.0823 201.391 87.6648C199.808 90.2871 197.76 92.6528 195.589 94.8977C193.325 97.1787 191.186 99.5727 188.883 101.667C186.596 103.705 183.92 105.605 180.909 105.392C177.882 105.086 175.45 102.479 173.842 99.7706Z" fill="#373434"/>
<path d="M183.632 128.539C186.825 125.371 189.769 121.974 192.724 118.611C194.161 116.934 195.643 115.366 197.284 114.193C198.886 113.015 200.782 112.436 202.844 111.931C204.916 111.443 207.143 111.023 209.33 110.151C211.501 109.274 213.446 108.066 215.314 106.864C218.965 104.443 222.965 102.039 227.223 102.566L226.951 101.499L219.936 106.044C217.587 107.59 215.267 109.454 213.45 111.853C211.622 114.159 210.286 116.689 208.672 118.795C207.061 120.938 205.258 122.488 202.959 123.385C200.66 124.266 197.98 124.736 195.258 125.312L187.195 127.138C184.515 127.724 181.839 128.435 179.167 129.113C177.814 129.448 176.565 129.839 175.326 129.764C174.725 129.728 174.07 129.493 173.365 129.339C172.693 129.176 171.784 129.141 171.189 129.683L171.363 129.956C172.56 129.392 173.672 130.506 175.142 130.873C176.649 131.267 178.129 131.004 179.474 130.846C182.211 130.52 184.952 130.215 187.666 129.79L195.831 128.57C198.514 128.075 201.332 127.798 204.179 126.645C207.102 125.577 209.544 123.157 211.166 120.726C212.843 118.27 214.125 115.757 215.607 113.529C218.549 109.161 223.235 105.897 227.594 102.471L228.834 101.497L227.327 101.396C222.584 101.067 218.556 103.686 214.618 105.537C212.635 106.496 210.644 107.396 208.642 107.922C206.629 108.422 204.484 108.619 202.252 109.083C200.049 109.54 197.645 110.36 195.696 111.901C193.739 113.376 192.288 115.274 190.932 117.09C188.332 120.785 185.751 124.453 183.384 128.338L183.632 128.539Z" fill="#373434"/>
<path d="M127.955 134.742C121.535 133.05 115.088 131.325 109.318 128.239C106.443 126.703 103.809 124.777 101.477 122.556C99.1715 120.289 97.2359 117.641 95.7139 114.735C92.6804 108.903 90.9088 102.405 90.1093 95.7084C89.2344 89.0091 89.1674 82.1448 89.2345 75.2914L88.3342 75.8189C98.8977 81.7226 108.418 89.5787 116.682 98.5348C118.751 100.756 120.707 103.101 122.676 105.435C124.619 107.791 126.534 110.147 127.973 112.686C129.457 115.223 130.308 117.901 130.132 120.705C130.03 123.527 128.987 126.371 128.308 129.594C127.966 131.197 127.752 132.921 127.85 134.69C127.972 136.463 128.293 137.995 128.663 139.584C129.428 142.725 130.427 145.722 131.382 148.633C132.321 151.572 133.167 154.468 133.561 157.39C133.95 160.361 134.195 163.452 134.249 166.507C134.411 178.745 131.994 191.113 126.705 202.318L126.984 202.473C133.426 191.859 136.826 179.207 137.057 166.509C137.121 163.318 137.018 160.182 136.71 156.962C136.326 153.694 135.457 150.584 134.551 147.576C133.657 144.57 132.638 141.661 131.942 138.75C131.583 137.319 131.305 135.792 131.186 134.446C131.079 133.101 131.218 131.7 131.483 130.256C132.004 127.374 133.081 124.274 133.167 120.826C133.321 117.351 132.103 113.873 130.376 111.16C128.641 108.384 126.561 106.042 124.511 103.737C122.439 101.425 120.264 99.2258 118.044 97.0907C109.14 88.5343 99.2912 81.1968 88.9399 74.7206L88.0883 74.198L88.0317 75.247C87.6773 82.1004 87.1773 88.9991 87.6934 95.965C88.2379 102.898 89.8315 109.981 93.3457 116.125C96.7339 122.318 102.159 127.419 108.444 130.116C114.66 133.006 121.319 134.216 127.887 135.071L127.955 134.742Z" fill="#373434"/>
<path d="M131.619 140.718C131.718 137.09 132.97 133.785 134.701 130.894C136.437 127.968 138.836 125.541 141.352 123.189C143.843 120.796 146.505 118.427 149.268 116.23C152.05 114.048 154.972 112.063 157.969 110.238L157.04 109.457C155.472 113.362 153.796 117.217 152.324 121.148C150.898 125.098 149.378 129.009 148.069 133.005C146.732 136.947 145.537 140.839 143.477 144.223C141.425 147.542 138.558 150.517 134.672 151.805L134.718 152.118C138.961 151.978 142.907 149.228 145.563 145.777C148.263 142.262 149.928 138.14 151.26 134.148C152.613 130.171 153.739 126.112 154.978 122.094C156.163 118.069 157.153 113.953 158.243 109.885L158.762 107.974L157.298 109.106C154.488 111.296 151.599 113.335 148.562 115.158C145.48 116.938 142.371 118.673 139.538 121.004C136.76 123.344 134.275 126.266 132.629 129.71C131.001 133.114 130.326 137.147 131.3 140.747L131.619 140.718Z" fill="#373434"/>
<path d="M136.847 167.425C132.866 168.555 128.972 167.303 125.076 166.217C121.177 165.1 117.403 163.667 113.623 162.196C109.837 160.766 106.027 159.158 102.543 156.958C99.0677 154.729 95.9652 151.918 93.1996 148.825L92.6314 150.359C96.8558 150.539 101.032 149.977 105.09 149.46C109.139 148.959 113.129 148.651 116.956 149.121C120.76 149.576 124.475 150.976 127.721 153.245C130.998 155.499 133.817 158.55 135.924 162.217L136.212 162.089C135.04 157.912 132.52 154.115 129.214 151.213C125.911 148.353 121.784 146.275 117.406 145.664C113.026 145.036 108.739 145.685 104.652 146.416C100.555 147.134 96.6078 148.129 92.5816 148.584L90.4847 148.812L92.018 150.114C95.2388 152.875 98.5893 155.383 101.974 157.842C105.377 160.291 108.81 162.774 112.577 164.706C116.364 166.578 120.406 167.88 124.522 168.689C128.497 169.453 133.236 170.083 136.978 167.724L136.847 167.425Z" fill="#373434"/>
<path d="M101.839 101.185C102.648 104.951 104.883 108.187 107.575 110.612C108.984 111.797 110.629 112.652 111.993 113.818C113.388 114.96 114.563 116.313 115.666 117.764C117.819 120.695 120.107 123.331 122.126 126.127C124.283 128.823 126.208 131.577 128.044 134.821L128.354 134.738C128.483 130.883 126.917 127.111 124.814 124.018C122.59 120.99 119.879 118.442 116.839 116.45C115.358 115.411 113.905 114.348 112.685 113.026C111.451 111.726 110.519 110.105 109.438 108.699C107.176 105.963 104.782 103.605 102.113 101.013L101.839 101.185Z" fill="#373434"/>
<path d="M145.936 127.81C144.258 129.052 143.23 130.325 142.487 131.883C142.174 132.705 142.049 133.727 141.55 134.474C141.078 135.232 140.315 135.713 139.498 136.124C137.814 136.878 136.328 137.933 135.032 139.424C133.881 140.96 132.988 143.248 133.703 145.328L134.011 145.38C135.328 143.831 136.4 142.911 137.563 141.735C138.603 140.493 139.815 139.18 140.683 137.434C141.156 136.585 141.638 135.787 142.32 135.162C142.989 134.54 143.959 134.121 144.644 133.443C145.908 132.014 146.569 130.056 146.232 127.927L145.936 127.81Z" fill="#373434"/>
<path d="M108.672 154.297C110.845 156.029 113.133 157.001 115.584 157.493C116.833 157.672 118.173 157.559 119.389 157.861C120.624 158.141 121.738 158.755 122.83 159.453C124.963 160.919 127.226 161.991 129.512 162.967C131.856 163.815 134.022 164.385 136.531 165.311L136.738 165.072C135.527 162.47 133.052 160.84 130.782 159.738C128.42 158.755 125.991 158.006 123.404 157.755C122.117 157.591 120.864 157.362 119.712 156.846C118.54 156.36 117.492 155.458 116.343 154.893C113.987 153.899 111.444 153.522 108.749 153.986L108.672 154.297Z" fill="#373434"/>
<path d="M177.752 188.893C180.45 182.888 183.413 177.056 186.76 171.507C190.17 166.058 194.016 160.775 199.36 157.746C202.027 156.241 204.964 155.064 207.933 153.656C210.89 152.247 213.729 150.589 216.409 148.714C221.848 145.067 226.726 140.745 231.799 136.736L230.932 136.055C227.1 146.597 222.593 157.087 215.69 165.661C212.24 169.92 208.335 173.762 203.816 176.587C199.378 179.498 194.229 181.072 189.036 182.999C183.848 184.952 178.924 186.93 173.683 187.823C171.059 188.322 168.357 188.657 165.636 189.081C162.905 189.54 160.19 190.067 157.506 190.69C146.721 193.121 136.288 197.121 126.634 202.464L126.769 202.768C136.926 198.584 147.4 195.502 158.039 193.504C163.371 192.497 168.696 192.088 174.235 191.205C179.835 190.377 185.149 188.199 190.17 186.185C195.188 184.162 200.599 182.386 205.362 179.105C210.087 175.842 214.1 171.669 217.342 166.997C223.904 157.639 227.692 146.859 231.983 136.49L232.81 134.482L231.115 135.796C226.018 139.777 220.704 143.446 215.223 146.699C212.465 148.289 209.661 149.775 206.816 151.097C203.976 152.404 200.879 153.459 197.981 155.261C192.15 158.893 188.028 164.562 184.986 170.427C181.881 176.279 179.34 182.423 177.468 188.778L177.752 188.893Z" fill="#373434"/>
<path d="M171.492 190.304C175.424 190.253 178.494 192.86 180.819 195.787C183.164 198.77 185.43 202.32 188.338 205.152C191.22 208.031 194.55 210.366 197.964 212.429C201.391 214.485 204.85 216.389 208.435 218.101L208.562 216.971C203.789 217.525 198.978 217.79 194.398 217.29C192.116 216.988 189.872 216.526 187.813 215.636C185.733 214.756 183.807 213.501 181.922 212.145C178.171 209.348 174.746 206.057 171.492 202.44C168.243 198.84 165.047 195.153 162.069 191.229L161.799 191.396C163.854 195.961 166.542 200.195 169.523 204.181C172.47 208.159 175.866 212.024 179.969 214.991C184.011 218.06 189.176 219.973 194.194 220.098C199.24 220.305 204.025 219.096 208.74 218.144L210.728 217.748L208.868 217.015C205.256 215.593 201.797 213.689 198.749 211.216C195.671 208.785 192.973 205.933 190.336 203.102C189.007 201.672 187.716 200.236 186.468 198.74C185.25 197.223 183.966 195.643 182.547 194.139C179.792 191.176 175.464 188.759 171.435 189.986L171.492 190.304Z" fill="#373434"/>
<path d="M182.668 187.364C184.952 185.499 186.421 182.897 187.842 180.479C189.238 177.941 190.513 175.865 192.363 173.962C194.135 171.995 196.245 170.117 198.576 168.618C200.922 167.12 203.446 165.934 205.917 164.521C208.419 163.149 210.783 161.514 212.923 159.599C215.08 157.728 217.143 155.724 218.989 153.552C222.659 149.144 225.758 144.348 228.341 139.205L228.081 139.003C223.917 142.899 220.235 147.132 216.499 151.205C212.863 155.395 209.079 159.346 204.958 163.041C202.868 164.86 200.544 166.397 198.077 167.695C195.609 168.993 192.959 170.075 190.604 171.939C188.227 173.782 186.669 176.747 185.662 179.328C184.525 181.952 183.745 184.652 182.422 187.147L182.668 187.364Z" fill="#373434"/>
<path d="M157.943 192.07C158.02 187.588 157.246 183.117 159.019 179.469C160.571 175.678 163.404 172.392 165.698 168.666C168.082 165.006 170.411 161.289 173.225 157.964C176.007 154.617 179.128 151.592 182.292 148.639L180.47 147.523C179.146 151.157 177.933 154.831 176.767 158.509C175.58 162.187 174.414 165.864 173.428 169.596C172.373 173.306 171.54 177.093 170.599 180.848C170.193 182.685 169.727 184.501 168.974 186.19C168.266 187.88 167.311 189.502 165.763 190.544L165.898 190.844C167.786 190.24 169.24 188.615 170.319 186.961C171.396 185.261 172.2 183.427 172.897 181.561C174.124 177.905 175.467 174.278 176.586 170.59C177.76 166.914 178.762 163.184 179.734 159.438C180.743 155.709 181.708 151.962 182.548 148.184L183.598 143.524L180.73 147.073C177.964 150.483 175.318 153.978 172.502 157.315C169.722 160.687 166.649 163.797 163.785 167.128C160.974 170.433 158.188 174.023 156.66 178.553C155.868 180.747 155.718 183.36 156.103 185.583C156.439 187.837 157.052 189.969 157.622 192.115L157.943 192.07Z" fill="#373434"/>
<path d="M162.901 191.154C163.779 187.394 164.927 184.123 166.081 180.712C166.591 179.047 167.11 177.106 167.875 175.411C168.641 173.684 169.686 172.132 170.8 170.603C173.097 167.6 175 164.375 176.752 161.063C178.374 157.678 179.792 154.177 180.65 150.352L180.376 150.197C177.73 153.006 175.663 156.145 173.795 159.4C172.068 162.712 170.462 166.124 169.279 169.749C168.652 171.546 167.946 173.303 166.97 174.902C166.029 176.538 164.658 177.841 163.676 179.608C161.924 183.102 161.251 187.383 162.585 191.187L162.901 191.154Z" fill="#373434"/>
<path d="M83.0483 271.548C87.4597 264.128 93.6501 258.38 100.128 252.928C106.527 247.379 112.867 241.735 120.299 238.278C127.688 234.746 135.862 233.023 144.126 232.556C152.402 232.09 160.763 233.045 168.922 234.768L168.664 233.893C160.513 242.639 151.039 250.031 140.838 255.82C135.729 258.705 130.424 261.174 124.937 263.067C119.463 265.008 113.764 266.247 108.024 267.32C102.297 268.382 96.4193 269.348 90.6827 270.124C84.9168 270.821 79.291 270.948 73.8277 269.025C71.0646 268.15 68.3345 267.027 65.4806 266.086C62.6228 265.172 59.7367 264.411 56.8115 263.823C50.9672 262.601 45.0009 262.262 39.0988 262.485L39.1058 262.821C44.9769 263.097 50.7779 264.106 56.4221 265.6C62.1259 267.038 67.3333 269.502 72.9908 271.642C78.6873 273.88 85.1494 274.211 91.0401 273.416C96.9779 272.657 102.742 271.761 108.614 270.72C120.295 268.571 131.931 264.549 142.082 258.063C152.332 251.699 161.198 243.394 169.389 234.616L170.045 233.921L169.12 233.735C160.892 232.081 152.556 230.849 144.085 230.716C135.646 230.605 126.982 231.919 119.131 235.646C111.236 239.407 104.836 245.411 98.6605 251.194C95.5896 254.14 92.4853 257.127 89.7015 260.432C86.971 263.786 84.5714 267.439 82.7738 271.393L83.0483 271.548Z" fill="#373434"/>
<path d="M136.055 316.529C130.755 311.805 125.281 307.548 119.612 303.494C116.732 301.557 113.732 299.736 110.98 297.586C108.197 295.457 105.857 292.822 102.88 290.681C99.8491 288.438 96.1744 287.668 93.0695 286.574C89.8623 285.47 86.7707 284.098 83.8119 282.538C77.8221 279.512 72.5573 275.181 68.4448 269.364L68.161 269.517C70.506 276.44 75.9631 282.136 82.2494 285.63C85.4074 287.4 88.8095 288.598 92.2239 289.525C95.7096 290.516 99.0451 290.751 102.01 292.237C108.043 295.385 112.8 301.035 118.05 305.686C123.468 310.183 129.441 313.992 135.882 316.81L136.055 316.529Z" fill="#373434"/>
<path d="M107.397 284.771C103.137 282.406 98.5645 280.627 93.6837 279.836C91.242 279.54 88.6561 279.487 86.1291 280.575C84.8879 281.115 83.6297 282.112 82.9366 283.565C82.2613 285.004 82.2488 286.559 82.3818 287.92C84.2754 298.367 90.2906 307.256 97.9333 313.761C105.599 320.307 114.982 324.414 124.556 326.175C134.173 328.004 143.868 328.026 153.524 327.59L155.542 327.503L153.758 326.409C149.393 323.731 147.479 318.568 144.947 313.815C143.655 311.425 142.14 308.974 139.913 307.077C137.676 305.068 134.974 304.214 132.768 303.113C128.261 300.93 124.117 297.673 120.086 294.283C116.008 290.924 111.987 287.378 107.397 284.771ZM107.246 285.059C111.824 287.64 115.555 291.449 119.229 295.267C122.929 299.039 126.705 303.016 131.568 305.637C133.999 306.94 136.37 307.767 138.128 309.324C139.971 310.843 141.409 312.945 142.839 315.14C144.236 317.339 145.553 319.72 147.138 321.95C148.721 324.192 150.737 326.236 153.197 327.53L153.432 326.338C143.909 327.359 134.177 326.753 124.979 324.233C115.823 321.681 107.061 317.576 100.024 311.195C92.9624 304.968 87.513 296.531 85.061 287.545C84.644 285.354 85.1141 283.51 87.0298 282.43C88.8812 281.353 91.265 281.038 93.59 281.103C98.2911 281.269 103.014 282.76 107.246 285.059Z" fill="#373434"/>
<path d="M85.2307 270.919C91.7795 267.233 97.8235 262.967 103.872 258.759C106.847 256.555 109.809 254.279 113.069 252.537C116.32 250.786 119.799 249.554 123.363 248.711C130.479 247.043 137.766 245.804 144.9 243.795C151.787 241.813 159.468 240.309 165.732 235.95L165.601 235.646C158.555 238.072 151.413 238.646 144.072 240.41C136.999 242.415 129.789 244.094 122.846 246.997C119.378 248.408 116.008 250.043 112.622 251.585C109.237 253.123 105.762 254.591 102.486 256.442C96.0331 260.307 90.27 265.188 85.038 270.66L85.2307 270.919Z" fill="#373434"/>
<path d="M76.5839 193.08C70.5029 189.512 65.6147 184.216 62.0712 178.17C58.5773 172.082 56.1257 165.33 55.1261 158.341C54.6573 154.867 54.3993 151.398 55.0157 148.014C55.618 144.615 56.7503 141.28 58.1697 138.035C61.08 131.548 64.6255 125.264 68.9577 119.629L68.062 119.525C73.226 130.126 77.969 141.249 79.3481 152.947C80.04 158.778 79.873 164.589 78.6561 170.315C77.5533 176.054 75.8038 181.766 74.7239 187.78C74.1657 190.76 73.8514 193.944 73.9542 196.903L74.0066 205.904C73.9155 211.714 73.2221 217.552 71.7563 223.202C68.8441 234.503 63.2735 245.131 55.479 253.924L55.698 254.166C64.3711 246.229 71.0099 235.668 74.4028 223.994C76.1782 218.178 77.1566 212.087 77.3017 205.964C77.5514 200.012 76.8795 194.031 77.9731 188.361C78.8669 182.605 80.4871 176.846 81.5107 170.865C82.5991 164.876 82.5729 158.571 81.5015 152.595C79.2923 140.572 73.8892 129.821 69.0262 119.027L68.6697 118.233L68.1143 118.925C63.6945 124.589 59.5928 130.559 56.2214 137.033C54.5388 140.277 53.0538 143.744 52.3747 147.507C51.6744 151.251 51.7296 155.132 52.3835 158.802C53.6757 166.111 56.2127 173.238 60.3057 179.35C64.3401 185.453 69.8794 190.624 76.4432 193.386L76.5839 193.08Z" fill="#373434"/>
<path d="M73.6131 215.077C73.3669 212.564 72.0127 210.371 70.5427 208.418C69.0325 206.467 67.2277 204.78 65.261 203.259C61.3269 200.164 56.4786 198.564 51.7311 197.702C46.9462 196.851 42.1852 196.656 37.41 196.657C32.6387 196.658 27.8696 197.061 23.1793 197.858L20.6009 198.286L22.7428 199.6C26.9497 202.177 31.0901 204.864 35.091 207.759C39.1504 210.603 42.6882 214.067 47.075 216.761C51.5721 219.495 56.8768 220.098 61.7086 220.122C64.0758 220.139 66.5928 220.529 69.1123 220.213C70.3494 220.031 71.6945 219.757 72.6584 218.784C73.6132 217.79 73.748 216.335 73.6131 215.077ZM73.3014 215.111C73.3864 216.325 73.2304 217.669 72.3508 218.46C71.4547 219.194 70.2428 219.396 69.0691 219.344C66.6998 219.252 64.4055 218.51 61.9117 218.037C57.0868 217.097 52.4665 216.447 48.2582 214.358C46.1039 213.405 44.0137 212.151 41.9038 210.866C39.7956 209.597 37.6874 208.3 35.6569 206.898C31.5899 204.11 27.6556 201.106 23.7818 198.007L23.3604 199.755C28.0427 199.584 32.7045 199.596 37.3558 199.775C41.9856 199.997 46.6542 200.435 51.1858 201.122C55.7137 201.837 60.0932 203.034 64.1994 205.052C66.2519 206.11 68.2066 207.422 69.9115 209.021C71.5897 210.641 72.9953 212.717 73.3014 215.111Z" fill="#373434"/>
<path d="M75.7051 197.203C77.4466 194.265 79.6717 191.797 81.9997 189.484C84.3332 187.159 86.8768 185.083 89.531 183.254C92.1836 181.467 95.0109 179.626 97.9224 177.991C100.827 176.318 103.889 174.96 106.941 173.556L106.162 172.875C104.82 176.944 102.996 180.799 101.259 184.655C99.4859 188.489 97.6503 192.309 95.3043 195.533C92.9894 198.851 90.0633 201.132 86.2899 202.978C82.6638 204.915 78.6409 206.688 75.5246 209.735L75.7173 209.994C79.3793 207.967 83.394 207.031 87.3312 205.452C89.2961 204.66 91.3364 203.842 93.2364 202.491C95.0883 201.142 96.7188 199.481 98.002 197.612C100.606 193.889 102.228 189.79 103.742 185.746C105.246 181.663 106.231 177.402 107.24 173.198L107.536 171.907L106.446 172.515C103.536 174.138 100.466 175.465 97.3249 176.613C94.1797 177.818 90.9772 178.944 88.0081 180.802C85.0647 182.705 82.5283 185.145 80.3018 187.832C78.1224 190.526 76.2458 193.639 75.4157 197.071L75.7051 197.203Z" fill="#373434"/>
<path d="M27.887 199.912C29.3084 201.603 31.4137 202.446 33.2272 203.143C35.1028 203.854 37.0143 204.475 38.9862 204.824C40.9635 205.132 43.0141 205.19 44.9779 205.6C46.9293 206.012 48.8017 206.747 50.6603 207.554C54.343 209.308 58.2666 210.247 61.5649 211.892C64.989 213.403 68.298 215.595 72.0212 217.405L72.2308 217.15C69.7752 213.767 66.816 210.75 63.0093 208.73C61.0828 207.743 59.023 207.217 57.0474 206.777C55.0666 206.315 53.1079 206.047 51.0974 205.808C49.1075 205.564 47.134 205.228 45.238 204.58C43.3414 203.937 41.5418 202.956 39.6727 202.197C37.8022 201.478 35.8484 201.054 33.882 200.693C31.8743 200.315 29.9991 200.257 28.0748 199.642L27.887 199.912Z" fill="#373434"/>
</g>
<defs>
<filter id="filter0_d_107_4" x="-16.5527" y="41.0356" width="253.363" height="294.788" filterUnits="userSpaceOnUse" color-interpolation-filters="sRGB">
<feFlood flood-opacity="0" result="BackgroundImageFix"/>
<feColorMatrix in="SourceAlpha" type="matrix" values="0 0 0 0 0 0 0 0 0 0 0 0 0 0 0 0 0 0 127 0" result="hardAlpha"/>
<feOffset dy="4"/>
<feGaussianBlur stdDeviation="2"/>
<feComposite in2="hardAlpha" operator="out"/>
<feColorMatrix type="matrix" values="0 0 0 0 0 0 0 0 0 0 0 0 0 0 0 0 0 0 0.25 0"/>
<feBlend mode="normal" in2="BackgroundImageFix" result="effect1_dropShadow_107_4"/>
<feBlend mode="normal" in="SourceGraphic" in2="effect1_dropShadow_107_4" result="shape"/>
</filter>
</defs>
</svg>
