<svg width="298" height="217" viewBox="0 0 298 217" fill="none" xmlns="http://www.w3.org/2000/svg">
<g filter="url(#filter0_d_107_97)">
<path d="M274.592 0.140507C263.88 20.8763 252.367 41.4643 237.587 60.2552C222.627 78.9943 204.166 94.9492 185.745 110.712C176.416 118.466 167.411 126.656 156.53 133.03C145.637 139.401 133.435 143.443 121.274 146.807C96.9473 153.692 71.9681 158.684 46.7304 161.609L46.6812 161.316C71.5577 156.591 96.1018 150.827 120.26 143.905C132.269 140.381 144.25 136.639 154.876 130.686C165.445 124.692 174.799 116.835 184.539 109.495C194.147 102.034 203.566 94.3391 212.136 85.9051C220.784 77.5264 228.365 68.3528 235.359 58.8538C249.589 40.0111 261.61 19.8632 274.297 0L274.592 0.140507Z" fill="#373434"/>
<path d="M274.592 0.140507C263.88 20.8763 252.367 41.4643 237.587 60.2552C222.627 78.9943 204.166 94.9492 185.745 110.712C176.416 118.466 167.411 126.656 156.53 133.03C145.637 139.401 133.435 143.443 121.274 146.807C96.9473 153.692 71.9681 158.684 46.7304 161.609L46.6812 161.316C71.5577 156.591 96.1018 150.827 120.26 143.905C132.269 140.381 144.25 136.639 154.876 130.686C165.445 124.692 174.799 116.835 184.539 109.495C194.147 102.034 203.566 94.3391 212.136 85.9051C220.784 77.5264 228.365 68.3528 235.359 58.8538C249.589 40.0111 261.61 19.8632 274.297 0L274.592 0.140507Z" fill="#373434"/>
<path d="M65.7707 149.81C68.299 151.644 70.7329 154.073 71.0694 157.275C71.25 160.533 68.9926 163.328 66.8501 165.591C64.6009 167.88 62.1137 169.876 59.6141 171.81C57.0571 173.807 54.2087 175.541 51.1058 176.927C47.9906 178.255 44.5265 179.19 40.9311 179.238C37.3274 179.309 33.9003 178.44 30.744 177.434C24.4726 175.367 18.4802 172.768 12.7833 169.706C11.3591 168.956 9.93491 168.179 8.54764 167.384L6.47083 166.16C5.80182 165.731 5.02199 165.498 4.34067 164.67C3.67576 163.779 4.09851 162.644 4.63618 162.034C5.17385 161.365 5.89212 160.858 6.57344 160.44C7.91967 159.586 9.22896 158.684 10.6162 157.863C16.0422 154.476 21.6857 151.289 27.7561 148.793C33.81 146.401 40.2908 144.415 47.1163 144.286C50.4901 144.193 53.9009 144.589 57.0982 145.498C60.2667 146.456 63.2301 147.905 65.7707 149.81ZM65.5655 150.039C63.0372 148.19 60.0451 146.826 56.8806 146.249C53.6997 145.709 50.4532 145.687 47.2969 146.134C40.9844 147.037 34.8894 149.059 28.7945 151.056C22.7405 153.104 16.7071 155.482 11.2032 158.658C9.8323 159.457 8.47376 160.277 7.17678 161.165C5.93316 161.93 4.63618 163.258 5.30519 164.09C5.5966 164.482 6.41747 164.84 7.11111 165.221L9.25359 166.275C10.7065 166.966 12.1554 167.639 13.6288 168.272C19.5309 170.793 25.6013 172.964 31.7332 174.79C34.7868 175.678 37.8405 176.303 40.8285 176.162C43.8329 176.014 46.8085 175.264 49.6077 174.073C52.4397 172.93 55.0829 171.326 57.6235 169.592C60.2134 167.776 62.8976 166.09 65.3069 164.215C67.6587 162.348 69.9284 160.104 70.1459 157.286C70.2732 154.443 68.0281 151.866 65.5655 150.039Z" fill="#373434"/>
<path d="M92.765 162.681C89.1614 165.247 85.3649 167.554 81.6012 169.876C79.7296 171 77.9606 172.18 76.561 173.555C75.1614 174.894 74.3159 176.58 73.5197 178.429C72.7398 180.289 72.0052 182.3 70.8272 184.219C69.6451 186.123 68.1676 187.776 66.7064 189.359C63.78 192.442 60.8208 195.852 60.7387 199.863L59.7167 199.479L65.233 193.541C67.1045 191.555 69.2881 189.636 71.9313 188.249C74.4842 186.841 77.189 185.916 79.512 184.681C81.872 183.454 83.6698 181.975 84.8888 179.956C86.0913 177.933 86.9409 175.508 87.9014 173.056L90.8647 165.809C91.8292 163.398 92.9169 161.006 93.9717 158.614C94.4971 157.401 95.0635 156.291 95.1661 155.134C95.2153 154.572 95.0758 153.936 95.0224 153.263C94.9568 152.62 95.0512 151.773 95.675 151.289L95.9213 151.485C95.1907 152.524 96.1388 153.692 96.2948 155.101C96.4713 156.547 95.9993 157.885 95.6504 159.113C94.9362 161.609 94.2426 164.112 93.434 166.574L91.0576 173.992C90.1834 176.417 89.5062 178.994 87.9547 181.49C86.4771 184.067 83.7231 186.031 81.0758 187.233C78.3956 188.482 75.7155 189.359 73.2898 190.457C68.5288 192.642 64.6173 196.58 60.5909 200.196L59.4458 201.224L59.5607 199.815C59.9096 195.378 63.0864 191.969 65.4874 188.549C66.7228 186.829 67.9008 185.095 68.7093 183.306C69.4933 181.501 69.994 179.538 70.7738 177.526C71.5414 175.541 72.6988 173.415 74.5088 171.799C76.2532 170.168 78.3464 169.059 80.3452 168.027C84.388 166.075 88.4021 164.138 92.6008 162.426L92.765 162.681Z" fill="#373434"/>
<path d="M106.863 111.843C106.096 105.683 105.3 99.4935 103.055 93.7623C101.938 90.9078 100.399 88.2271 98.5234 85.7904C96.5984 83.3722 94.2425 81.2498 91.5706 79.4787C86.2062 75.9438 80.0004 73.4961 73.458 71.9246C66.9239 70.2829 60.1107 69.3696 53.2892 68.582L53.9418 67.8129C58.3047 78.3362 64.7568 88.1347 72.4812 96.9052C74.3938 99.0979 76.446 101.202 78.4859 103.317C80.5504 105.41 82.619 107.477 84.938 109.126C87.2487 110.815 89.7893 111.936 92.6008 112.121C95.4205 112.376 98.3962 111.762 101.696 111.533C103.338 111.414 105.082 111.429 106.827 111.74C108.571 112.073 110.048 112.561 111.575 113.1C114.588 114.199 117.424 115.496 120.182 116.743C122.969 117.978 125.727 119.12 128.576 119.848C131.473 120.577 134.51 121.187 137.539 121.616C149.68 123.284 162.318 122.577 174.208 119.065L174.323 119.342C162.855 123.997 149.795 125.58 137.141 124.219C133.96 123.883 130.858 123.398 127.701 122.714C124.508 121.952 121.541 120.762 118.68 119.549C115.819 118.347 113.073 117.042 110.278 116.036C108.907 115.526 107.43 115.079 106.108 114.801C104.787 114.535 103.375 114.491 101.901 114.557C98.9626 114.683 95.7283 115.297 92.2889 114.949C88.8125 114.661 85.529 113.1 83.0787 111.163C80.5668 109.211 78.5351 106.992 76.5363 104.807C74.5334 102.599 72.6577 100.311 70.8518 97.9886C63.6158 88.6745 57.726 78.6357 52.7638 68.2382L52.3657 67.384L53.4164 67.4617C60.2789 67.983 67.2071 68.375 74.0573 69.7172C80.8705 71.0816 87.6838 73.4369 93.2903 77.4561C98.9626 81.3644 103.26 87.0254 105.045 93.1855C107.032 99.3049 107.286 105.628 107.2 111.821L106.863 111.843Z" fill="#373434"/>
<path d="M112.281 115.981C108.661 115.622 105.197 116.373 102.078 117.619C98.9214 118.865 96.1674 120.788 93.4708 122.829C90.7373 124.84 88.0038 127.014 85.4263 129.303C82.861 131.61 80.4723 134.073 78.2313 136.624L77.5869 135.667C81.6913 134.698 85.7628 133.622 89.8795 132.745C94.0085 131.914 98.1128 130.989 102.271 130.272C106.379 129.521 110.418 128.896 114.075 127.406C117.666 125.916 121.032 123.627 122.866 120.185L123.17 120.266C122.427 124.182 119.131 127.499 115.322 129.532C111.444 131.599 107.11 132.631 102.952 133.37C98.8065 134.132 94.6118 134.672 90.4418 135.323C86.2717 135.922 82.0401 136.328 77.8414 136.835L75.8672 137.079L77.2011 135.863C79.7786 133.529 82.2166 131.104 84.4617 128.515C86.6699 125.879 88.837 123.213 91.5582 120.876C94.2794 118.591 97.5382 116.65 101.195 115.552C104.811 114.465 108.916 114.339 112.355 115.689L112.281 115.981Z" fill="#373434"/>
<path d="M138.081 124.138C139.772 120.588 139.083 116.824 138.557 113.078C138.003 109.325 137.117 105.65 136.193 101.964C135.311 98.2771 134.256 94.5462 132.565 91.0447C130.845 87.5468 128.494 84.3225 125.813 81.3756L127.418 81.0391C126.995 84.977 125.842 88.7781 124.75 92.4756C123.675 96.1658 122.801 99.8263 122.723 103.431C122.633 107.014 123.494 110.631 125.288 113.921C127.061 117.238 129.692 120.229 133.037 122.636L132.869 122.888C128.883 121.283 125.469 118.477 123.055 115.053C120.683 111.636 119.205 107.554 119.222 103.42C119.222 99.2828 120.478 95.3893 121.787 91.6917C123.084 87.9831 124.635 84.4482 125.662 80.7729L126.187 78.8575L127.262 80.4401C129.548 83.7679 131.564 87.1844 133.526 90.6268C135.475 94.084 137.453 97.5745 138.837 101.305C140.158 105.047 140.876 108.956 141.094 112.871C141.287 116.65 141.238 121.12 138.36 124.297L138.081 124.138Z" fill="#373434"/>
<path d="M77.2298 83.4757C80.8581 84.6922 83.7558 87.1659 85.7833 89.9612C86.7602 91.4143 87.3758 93.045 88.3403 94.4537C89.2761 95.8884 90.4541 97.1455 91.7388 98.3472C94.345 100.706 96.6394 103.154 99.1307 105.373C101.503 107.706 103.966 109.832 106.929 111.936L106.802 112.213C102.952 111.854 99.4262 109.935 96.6517 107.602C93.9592 105.166 91.8126 102.337 90.2653 99.2716C89.4444 97.7704 88.5948 96.2914 87.4538 94.9973C86.3374 93.692 84.8598 92.6271 83.6162 91.4513C81.2193 89.0146 79.2163 86.504 77.0205 83.7087L77.2298 83.4757Z" fill="#373434"/>
<path d="M97.4111 127.65C98.8846 126.249 100.296 125.454 101.951 124.958C102.812 124.77 103.847 124.781 104.659 124.411C105.48 124.067 106.067 123.42 106.593 122.714C107.582 121.246 108.842 120 110.508 118.983C112.199 118.107 114.6 117.563 116.566 118.484L116.574 118.776C114.846 119.804 113.779 120.684 112.445 121.616C111.062 122.426 109.585 123.387 107.725 123.975C106.814 124.308 105.952 124.655 105.234 125.21C104.52 125.753 103.966 126.6 103.194 127.151C101.593 128.146 99.5536 128.516 97.485 127.939L97.4111 127.65Z" fill="#373434"/>
<path d="M129.048 96.395C130.46 98.6246 131.1 100.865 131.239 103.199C131.239 104.378 130.936 105.606 131.063 106.77C131.166 107.95 131.617 109.059 132.155 110.157C133.308 112.317 134.051 114.546 134.695 116.787C135.204 119.065 135.463 121.143 136.025 123.583L135.758 123.746C133.345 122.3 132.077 119.804 131.305 117.563C130.665 115.252 130.267 112.908 130.386 110.479C130.406 109.266 130.357 108.076 130.008 106.944C129.692 105.798 128.945 104.714 128.547 103.579C127.894 101.272 127.882 98.8687 128.728 96.4283L129.048 96.395Z" fill="#373434"/>
<path d="M153.592 164.715C147.238 166.471 141.02 168.493 135.028 170.908C129.126 173.393 123.326 176.303 119.554 180.88C117.678 183.165 116.09 185.742 114.268 188.32C112.445 190.886 110.393 193.311 108.148 195.563C103.748 200.152 98.7574 204.138 94.0497 208.342L93.4956 207.454C104.52 205.21 115.589 202.333 125.095 196.998C129.819 194.328 134.194 191.185 137.646 187.347C141.172 183.594 143.47 179.017 146.126 174.443C148.806 169.876 151.474 165.558 153.107 160.81C153.977 158.44 154.696 155.977 155.504 153.507C156.35 151.034 157.261 148.582 158.262 146.171C162.215 136.476 167.678 127.303 174.364 119.017L174.647 119.179C169.041 128.076 164.485 137.401 160.984 147.014C159.223 151.832 158.057 156.717 156.391 161.742C154.77 166.83 151.847 171.485 149.13 175.889C146.405 180.289 143.868 185.084 139.928 189.092C136.013 193.067 131.293 196.269 126.187 198.695C115.951 203.616 104.696 205.791 93.7788 208.482L91.665 209L93.2124 207.591C97.8955 203.361 102.299 198.891 106.314 194.214C108.288 191.855 110.163 189.44 111.883 186.966C113.586 184.496 115.076 181.757 117.28 179.294C121.721 174.339 127.944 171.222 134.207 169.129C140.466 166.977 146.934 165.384 153.518 164.437L153.592 164.715Z" fill="#373434"/>
<path d="M155.886 159.087C155.274 162.725 157.429 165.894 160.007 168.412C162.638 170.956 165.843 173.496 168.244 176.543C170.695 179.571 172.541 182.947 174.105 186.367C175.661 189.799 177.06 193.241 178.251 196.776L177.11 196.754C178.341 192.398 179.289 187.972 179.445 183.664C179.47 181.512 179.33 179.375 178.739 177.356C178.16 175.319 177.188 173.378 176.108 171.463C173.863 167.639 171.08 164.056 167.949 160.592C164.833 157.135 161.624 153.714 158.147 150.468L158.353 150.239C162.597 152.709 166.422 155.726 169.96 158.983C173.494 162.208 176.851 165.835 179.215 170.006C181.69 174.132 182.856 179.157 182.265 183.823C181.752 188.527 179.868 192.812 178.251 197.064L177.573 198.858L177.11 197.042C176.211 193.518 174.811 190.076 172.788 186.944C170.809 183.79 168.359 180.936 165.921 178.14C164.69 176.732 163.446 175.356 162.137 174.014C160.803 172.698 159.416 171.311 158.123 169.81C155.57 166.889 153.785 162.577 155.578 158.994L155.886 159.087Z" fill="#373434"/>
<path d="M151.371 169.081C149.192 170.967 146.397 172.006 143.791 173.023C141.069 174.003 138.824 174.927 136.669 176.406C134.461 177.804 132.294 179.527 130.472 181.501C128.65 183.491 127.11 185.683 125.354 187.798C123.634 189.947 121.672 191.936 119.464 193.681C117.297 195.448 115.011 197.112 112.589 198.554C107.684 201.409 102.476 203.687 96.9967 205.443L96.8325 205.177C101.298 201.801 106.03 198.913 110.611 195.955C115.294 193.104 119.759 190.087 124.02 186.726C126.125 185.014 127.985 183.051 129.626 180.925C131.268 178.798 132.721 176.476 134.909 174.524C137.08 172.55 140.248 171.474 142.957 170.86C145.728 170.131 148.523 169.743 151.191 168.826L151.371 169.081Z" fill="#373434"/>
<path d="M159.572 146.748C155.106 146.264 150.772 144.992 146.894 146.182C142.904 147.151 139.235 149.37 135.204 151.034C131.227 152.79 127.201 154.487 123.495 156.683C119.772 158.847 116.32 161.365 112.934 163.931L112.084 162.104C115.885 161.328 119.71 160.658 123.532 160.033C127.357 159.39 131.178 158.765 135.028 158.314C138.865 157.796 142.748 157.493 146.614 157.086C148.498 156.939 150.37 156.732 152.155 156.243C153.937 155.796 155.685 155.112 156.941 153.807L157.22 153.969C156.35 155.644 154.528 156.791 152.73 157.586C150.887 158.373 148.95 158.891 146.996 159.305C143.187 159.989 139.391 160.784 135.566 161.365C131.744 161.997 127.894 162.463 124.032 162.899C120.182 163.372 116.32 163.801 112.446 164.112L107.664 164.507L111.6 162.289C115.384 160.148 119.234 158.129 122.953 155.933C126.7 153.773 130.23 151.311 133.948 149.07C137.634 146.874 141.599 144.737 146.319 143.883C148.613 143.42 151.232 143.605 153.387 144.238C155.578 144.829 157.61 145.661 159.662 146.456L159.572 146.748Z" fill="#373434"/>
<path d="M157.955 151.23C154.093 151.577 150.678 152.235 147.123 152.882C145.395 153.149 143.392 153.389 141.599 153.888C139.772 154.384 138.081 155.16 136.403 156.003C133.091 157.759 129.614 159.124 126.072 160.337C122.477 161.42 118.795 162.3 114.871 162.622L114.756 162.348C117.925 160.244 121.34 158.717 124.841 157.39C128.379 156.199 131.999 155.134 135.771 154.487C137.646 154.129 139.493 153.692 141.221 152.986C142.982 152.317 144.472 151.207 146.368 150.516C150.091 149.325 154.441 149.233 158.033 150.941L157.955 151.23Z" fill="#373434"/>
<path d="M249.24 87.1844C241.236 90.3532 234.64 95.3781 228.299 100.706C221.872 105.949 215.358 111.126 210.864 117.586C206.3 123.997 203.423 131.359 201.781 138.961C200.139 146.574 199.897 154.443 200.447 162.219L199.614 161.871C209.468 155.4 218.165 147.536 225.373 138.798C228.968 134.421 232.178 129.81 234.842 124.958C237.55 120.126 239.594 114.997 241.478 109.81C243.35 104.633 245.148 99.3049 246.736 94.084C248.25 88.8261 249.178 83.6273 248.045 78.3251C247.569 75.6554 246.843 72.9858 246.313 70.2237C245.812 67.4617 245.468 64.6922 245.299 61.908C244.918 56.3394 245.431 50.7672 246.494 45.3245L246.826 45.3725C246.264 50.8486 246.44 56.3505 247.122 61.7674C247.737 67.2324 249.445 72.3646 250.766 77.874C252.178 83.4314 251.587 89.4621 249.958 94.8235C248.357 100.233 246.646 105.465 244.774 110.778C240.973 121.339 235.318 131.625 227.425 140.229C219.639 148.941 210.121 156.129 200.229 162.633L199.445 163.154L199.392 162.274C198.92 154.443 198.883 146.563 199.959 138.695C201.05 130.86 203.591 122.991 208.414 116.177C213.277 109.325 220.156 104.138 226.785 99.1311C230.15 96.6501 233.561 94.1432 237.243 91.9727C240.965 89.8577 244.938 88.0866 249.125 86.9108L249.24 87.1844Z" fill="#373434"/>
<path d="M286.397 141.893C282.456 136.395 279.005 130.793 275.783 125.036C274.268 122.126 272.885 119.12 271.141 116.303C269.421 113.459 267.135 110.963 265.431 107.939C263.634 104.851 263.392 101.35 262.747 98.3363C262.107 95.2266 261.183 92.1909 260.055 89.2551C257.9 83.3279 254.346 77.911 249.149 73.3778L249.342 73.1338C255.889 76.1658 260.773 81.9302 263.351 88.1902C264.66 91.3368 265.366 94.6387 265.801 97.9184C266.289 101.272 266.047 104.393 267.102 107.325C269.372 113.308 274.309 118.418 278.184 123.86C281.882 129.44 284.816 135.449 286.7 141.768L286.397 141.893Z" fill="#373434"/>
<path d="M258.914 111.392C257.17 107.151 256.053 102.692 255.963 98.07C256.016 95.7702 256.332 93.3668 257.773 91.1593C258.487 90.0759 259.657 89.0332 261.2 88.571C262.727 88.1236 264.274 88.3048 265.608 88.5969C275.721 91.6474 283.7 98.3252 289.077 106.216C294.491 114.132 297.236 123.339 297.622 132.431C298.07 141.572 296.711 150.56 294.901 159.457L294.527 161.317L293.694 159.527C291.654 155.149 286.795 152.735 282.432 149.799C280.24 148.305 278.02 146.597 276.452 144.297C274.773 141.975 274.309 139.364 273.53 137.183C272.003 132.735 269.355 128.49 266.56 124.334C263.802 120.137 260.851 115.97 258.914 111.392ZM259.222 111.289C261.134 115.852 264.389 119.782 267.66 123.661C270.882 127.558 274.297 131.551 276.21 136.384C277.158 138.798 277.642 141.098 278.939 142.921C280.187 144.818 282.071 146.412 284.049 148.009C286.036 149.577 288.215 151.093 290.206 152.838C292.209 154.583 293.953 156.706 294.889 159.146L293.67 159.216C296.042 150.516 296.826 141.42 295.632 132.583C294.4 123.779 291.568 115.149 286.228 107.835C281.045 100.518 273.435 94.4206 264.853 91.0336C262.735 90.3754 260.835 90.5825 259.489 92.2242C258.155 93.8068 257.502 95.9772 257.235 98.1403C256.73 102.518 257.539 107.081 259.222 111.289Z" fill="#373434"/>
<path d="M248.304 89.1293C243.707 94.7422 238.605 99.8152 233.561 104.899C230.947 107.384 228.262 109.847 226.067 112.653C223.863 115.448 222.143 118.521 220.797 121.72C218.125 128.109 215.855 134.709 212.842 141.072C209.891 147.21 207.302 154.143 202.077 159.409L201.793 159.25C205.208 153.019 206.797 146.471 209.596 139.886C212.596 133.578 215.293 127.103 219.167 121.028C221.063 117.989 223.169 115.068 225.184 112.121C227.195 109.174 229.149 106.134 231.456 103.328C236.217 97.826 241.889 93.0894 248.074 88.9186L248.304 89.1293Z" fill="#373434"/>
<path d="M172.168 71.4623C169.488 65.3836 164.92 60.1959 159.416 56.1619C153.862 52.1685 147.501 49.0589 140.696 47.2656C137.31 46.4004 133.899 45.7311 130.447 45.8827C126.983 46.0195 123.507 46.6555 120.079 47.5688C113.217 49.4619 106.465 51.9689 100.247 55.2856L100.272 54.4425C110.073 60.5435 120.453 66.3191 131.884 69.0478C137.58 70.4122 143.38 70.978 149.245 70.5601C155.106 70.2495 161.033 69.3362 167.165 69.0811C170.206 68.9332 173.416 69.0367 176.342 69.4989L185.281 70.6637C191.068 71.2996 196.971 71.381 202.795 70.7228C214.443 69.425 225.8 65.5795 235.65 59.4453L235.859 59.6783C226.735 66.7332 215.292 71.577 203.205 73.2741C197.172 74.1985 190.978 74.3501 184.871 73.7252C178.92 73.2187 173.071 71.8543 167.28 72.1649C161.431 72.2795 155.475 73.0671 149.385 73.2741C143.277 73.5404 137.014 72.7343 131.227 71.0001C119.591 67.4616 109.675 61.1203 99.6397 55.2745L98.9009 54.8456L99.6684 54.4167C105.928 51.0223 112.445 47.9607 119.361 45.6387C122.825 44.4814 126.482 43.5348 130.32 43.3721C134.141 43.1872 137.991 43.7197 141.545 44.7809C148.625 46.8848 155.348 50.1201 160.84 54.6718C166.331 59.168 170.682 64.9436 172.492 71.3699L172.168 71.4623Z" fill="#373434"/>
<path d="M194.455 71.4367C191.992 70.8968 190.005 69.3697 188.273 67.765C186.55 66.1233 185.129 64.2412 183.898 62.2298C181.382 58.1994 180.483 53.5073 180.303 49C180.138 44.4594 180.623 40.0223 181.304 35.5964C181.985 31.1741 183.065 26.8036 184.526 22.5551L185.318 20.2183L186.32 22.3665C188.282 26.5854 190.362 30.7563 192.669 34.8236C194.918 38.9389 197.857 42.6476 199.909 47.0476C201.986 51.555 201.83 56.5466 201.165 61.0281C200.845 63.2244 200.874 65.6056 200.201 67.9018C199.844 69.0259 199.38 70.2387 198.276 71.0114C197.151 71.7731 195.686 71.7177 194.455 71.4367ZM194.532 71.1519C195.727 71.3812 197.085 71.4034 197.997 70.6861C198.854 69.9465 199.228 68.8484 199.343 67.7539C199.589 65.5465 199.179 63.3279 199.064 60.9578C198.817 56.3692 198.83 52.0061 197.352 47.8463C196.712 45.7313 195.764 43.6385 194.787 41.5235C193.827 39.4122 192.837 37.2972 191.733 35.2414C189.542 31.126 187.116 27.1068 184.588 23.1319L186.385 22.9581C185.548 27.2769 184.895 31.5993 184.411 35.9328C183.972 40.2516 183.742 44.6332 183.779 48.9186C183.845 53.2041 184.411 57.4119 185.831 61.4681C186.591 63.5017 187.617 65.4762 188.963 67.2547C190.334 69.0111 192.197 70.5714 194.532 71.1519Z" fill="#373434"/>
<path d="M176.392 71.1592C173.223 72.409 170.453 74.1653 167.822 76.0363C165.178 77.9109 162.753 80.0111 160.557 82.2445C158.402 84.4815 156.169 86.8738 154.129 89.3696C152.053 91.8544 150.267 94.524 148.437 97.1788L147.87 96.3728C152.106 95.6333 156.198 94.4205 160.278 93.289C164.341 92.1206 168.4 90.893 171.938 89.1182C175.567 87.384 178.251 84.9548 180.623 81.6861C183.065 78.5654 185.401 75.0564 188.873 72.5458L189.103 72.7566C186.566 75.8995 185.064 79.5046 182.934 82.9581C181.867 84.6811 180.763 86.4708 179.15 88.0644C177.545 89.6137 175.661 90.9189 173.621 91.8766C169.55 93.8289 165.244 94.8235 161.008 95.7257C156.736 96.6131 152.36 96.9977 148.039 97.4118L146.713 97.5264L147.472 96.5909C149.5 94.0951 151.256 91.4144 152.845 88.6449C154.491 85.8791 156.067 83.0505 158.336 80.5288C160.647 78.0367 163.434 75.9882 166.422 74.2578C169.41 72.5717 172.771 71.2184 176.301 70.8745L176.392 71.1592Z" fill="#373434"/>
<path d="M185.897 27.1733C187.375 28.7004 187.912 30.7563 188.347 32.5237C188.787 34.3503 189.131 36.199 189.197 38.07C189.222 39.941 188.988 41.8489 189.115 43.7199C189.246 45.5797 189.71 47.4063 190.248 49.2292C191.467 52.8602 191.84 56.6132 193.006 59.8744C194.02 63.2355 195.727 66.5744 196.995 70.2497L196.712 70.4124C193.699 67.7169 191.122 64.5999 189.657 60.821C188.951 58.9131 188.721 56.9386 188.565 55.0528C188.388 53.1597 188.401 51.3109 188.45 49.4178C188.491 47.5431 188.438 45.6722 188.064 43.8345C187.695 41.9968 186.977 40.2072 186.488 38.3806C186.041 36.5577 185.897 34.6941 185.819 32.8269C185.729 30.919 185.938 29.1737 185.602 27.3138L185.897 27.1733Z" fill="#373434"/>
</g>
<defs>
<filter id="filter0_d_107_97" x="0" y="0" width="301.708" height="217" filterUnits="userSpaceOnUse" color-interpolation-filters="sRGB">
<feFlood flood-opacity="0" result="BackgroundImageFix"/>
<feColorMatrix in="SourceAlpha" type="matrix" values="0 0 0 0 0 0 0 0 0 0 0 0 0 0 0 0 0 0 127 0" result="hardAlpha"/>
<feOffset dy="4"/>
<feGaussianBlur stdDeviation="2"/>
<feComposite in2="hardAlpha" operator="out"/>
<feColorMatrix type="matrix" values="0 0 0 0 0 0 0 0 0 0 0 0 0 0 0 0 0 0 0.25 0"/>
<feBlend mode="normal" in2="BackgroundImageFix" result="effect1_dropShadow_107_97"/>
<feBlend mode="normal" in="SourceGraphic" in2="effect1_dropShadow_107_97" result="shape"/>
</filter>
</defs>
</svg>
