<svg width="294" height="209" viewBox="0 0 294 209" fill="none" xmlns="http://www.w3.org/2000/svg">
<path d="M270.592 0.140507C259.88 20.8763 248.367 41.4643 233.587 60.2552C218.627 78.9943 200.166 94.9492 181.745 110.712C172.416 118.466 163.411 126.656 152.53 133.03C141.637 139.401 129.435 143.443 117.274 146.807C92.9473 153.692 67.9681 158.684 42.7304 161.609L42.6812 161.316C67.5577 156.591 92.1018 150.827 116.26 143.905C128.269 140.381 140.25 136.639 150.876 130.686C161.445 124.692 170.799 116.835 180.539 109.495C190.147 102.034 199.566 94.3392 208.136 85.9051C216.784 77.5264 224.365 68.3528 231.359 58.8538C245.589 40.0111 257.61 19.8632 270.297 0L270.592 0.140507Z" fill="#373434"/>
<path d="M61.7707 149.81C64.299 151.644 66.7329 154.073 67.0694 157.275C67.25 160.533 64.9926 163.328 62.8501 165.591C60.6009 167.88 58.1137 169.876 55.6141 171.81C53.0571 173.807 50.2087 175.541 47.1058 176.927C43.9906 178.255 40.5265 179.19 36.9311 179.238C33.3274 179.309 29.9003 178.44 26.744 177.434C20.4726 175.367 14.4802 172.768 8.78334 169.706C7.35913 168.956 5.93491 168.179 4.54764 167.384L2.47083 166.16C1.80182 165.731 1.02199 165.498 0.340665 164.67C-0.324241 163.779 0.0985085 162.644 0.636179 162.034C1.17385 161.365 1.89212 160.858 2.57344 160.44C3.91967 159.586 5.22896 158.684 6.61624 157.863C12.0422 154.476 17.6857 151.289 23.7561 148.793C29.81 146.401 36.2908 144.415 43.1163 144.286C46.4901 144.193 49.9009 144.589 53.0982 145.498C56.2667 146.456 59.2301 147.905 61.7707 149.81ZM61.5655 150.039C59.0372 148.19 56.0451 146.826 52.8806 146.249C49.6997 145.709 46.4532 145.687 43.2969 146.134C36.9844 147.037 30.8894 149.059 24.7945 151.056C18.7405 153.104 12.7071 155.482 7.20316 158.658C5.8323 159.457 4.47376 160.277 3.17678 161.165C1.93316 161.93 0.636179 163.258 1.30519 164.09C1.5966 164.482 2.41747 164.84 3.11111 165.221L5.25359 166.275C6.70653 166.966 8.15537 167.639 9.62884 168.272C15.5309 170.793 21.6013 172.964 27.7332 174.79C30.7868 175.678 33.8405 176.303 36.8285 176.162C39.8329 176.014 42.8085 175.264 45.6077 174.073C48.4397 172.93 51.0829 171.326 53.6235 169.592C56.2134 167.776 58.8976 166.09 61.3069 164.215C63.6587 162.348 65.9284 160.104 66.1459 157.286C66.2732 154.443 64.0281 151.866 61.5655 150.039Z" fill="#373434"/>
<path d="M88.765 162.681C85.1614 165.247 81.3649 167.554 77.6012 169.876C75.7296 171 73.9606 172.18 72.561 173.555C71.1614 174.894 70.3159 176.58 69.5197 178.429C68.7398 180.289 68.0052 182.3 66.8272 184.219C65.6451 186.123 64.1676 187.776 62.7064 189.359C59.78 192.442 56.8208 195.852 56.7387 199.863L55.7167 199.479L61.233 193.541C63.1045 191.555 65.2881 189.636 67.9313 188.249C70.4842 186.841 73.189 185.916 75.512 184.681C77.872 183.454 79.6698 181.975 80.8888 179.956C82.0913 177.933 82.9409 175.508 83.9014 173.056L86.8647 165.809C87.8292 163.398 88.9169 161.006 89.9717 158.614C90.4971 157.401 91.0635 156.292 91.1661 155.134C91.2153 154.572 91.0758 153.936 91.0224 153.263C90.9568 152.62 91.0512 151.773 91.675 151.289L91.9213 151.485C91.1907 152.524 92.1388 153.692 92.2948 155.101C92.4713 156.547 91.9993 157.885 91.6504 159.113C90.9362 161.609 90.2426 164.112 89.434 166.574L87.0576 173.992C86.1834 176.417 85.5062 178.994 83.9547 181.49C82.4771 184.067 79.7231 186.031 77.0758 187.233C74.3956 188.482 71.7155 189.359 69.2898 190.457C64.5288 192.642 60.6173 196.58 56.5909 200.196L55.4458 201.224L55.5607 199.815C55.9096 195.378 59.0864 191.969 61.4874 188.549C62.7228 186.83 63.9008 185.095 64.7093 183.306C65.4933 181.501 65.994 179.538 66.7738 177.527C67.5414 175.541 68.6988 173.415 70.5088 171.799C72.2532 170.168 74.3464 169.059 76.3452 168.028C80.388 166.075 84.4021 164.138 88.6009 162.426L88.765 162.681Z" fill="#373434"/>
<path d="M102.863 111.843C102.096 105.683 101.3 99.4935 99.0546 93.7623C97.9382 90.9078 96.3991 88.2271 94.5234 85.7904C92.5985 83.3722 90.2425 81.2498 87.5706 79.4787C82.2062 75.9438 76.0004 73.4961 69.458 71.9246C62.9239 70.2829 56.1107 69.3696 49.2892 68.582L49.9418 67.8129C54.3047 78.3362 60.7568 88.1347 68.4812 96.9052C70.3938 99.0979 72.446 101.202 74.4859 103.317C76.5504 105.41 78.619 107.477 80.938 109.126C83.2487 110.815 85.7893 111.936 88.6008 112.121C91.4205 112.376 94.3962 111.762 97.6961 111.533C99.3378 111.414 101.082 111.429 102.827 111.74C104.571 112.073 106.048 112.561 107.575 113.1C110.588 114.199 113.424 115.496 116.182 116.743C118.969 117.978 121.727 119.12 124.576 119.848C127.473 120.577 130.51 121.187 133.539 121.616C145.68 123.284 158.318 122.577 170.208 119.065L170.323 119.342C158.855 123.997 145.795 125.58 133.141 124.219C129.96 123.883 126.858 123.398 123.701 122.714C120.508 121.952 117.541 120.762 114.68 119.549C111.819 118.347 109.073 117.042 106.278 116.036C104.907 115.526 103.43 115.079 102.108 114.801C100.787 114.535 99.3748 114.491 97.9013 114.557C94.9626 114.683 91.7283 115.297 88.2889 114.949C84.8125 114.661 81.529 113.1 79.0787 111.163C76.5668 109.211 74.5351 106.992 72.5363 104.807C70.5334 102.599 68.6577 100.311 66.8518 97.9886C59.6158 88.6745 53.726 78.6357 48.7638 68.2382L48.3657 67.384L49.4164 67.4617C56.2789 67.983 63.2071 68.375 70.0573 69.7172C76.8705 71.0816 83.6838 73.4369 89.2903 77.4561C94.9626 81.3644 99.2598 87.0254 101.045 93.1855C103.032 99.3049 103.286 105.628 103.2 111.821L102.863 111.843Z" fill="#373434"/>
<path d="M108.281 115.981C104.661 115.622 101.197 116.373 98.0777 117.619C94.9214 118.865 92.1674 120.788 89.4708 122.829C86.7373 124.84 84.0038 127.014 81.4263 129.303C78.861 131.61 76.4723 134.073 74.2313 136.624L73.5869 135.667C77.6913 134.698 81.7628 133.622 85.8795 132.746C90.0085 131.914 94.1128 130.989 98.2706 130.272C102.379 129.521 106.418 128.896 110.075 127.406C113.666 125.916 117.032 123.627 118.866 120.185L119.17 120.266C118.427 124.182 115.131 127.499 111.322 129.532C107.444 131.599 103.11 132.631 98.9519 133.37C94.8065 134.132 90.6118 134.672 86.4418 135.323C82.2717 135.922 78.0401 136.328 73.8414 136.835L71.8672 137.079L73.2011 135.863C75.7786 133.529 78.2166 131.104 80.4617 128.516C82.6699 125.879 84.837 123.213 87.5582 120.876C90.2794 118.591 93.5382 116.65 97.1952 115.552C100.811 114.465 104.916 114.339 108.355 115.689L108.281 115.981Z" fill="#373434"/>
<path d="M134.081 124.138C135.772 120.588 135.083 116.824 134.557 113.078C134.003 109.325 133.117 105.65 132.193 101.964C131.311 98.277 130.256 94.5462 128.565 91.0447C126.845 87.5468 124.494 84.3225 121.813 81.3756L123.418 81.0391C122.995 84.977 121.842 88.7781 120.75 92.4756C119.675 96.1658 118.801 99.8263 118.723 103.431C118.633 107.014 119.494 110.631 121.288 113.921C123.061 117.238 125.692 120.229 129.037 122.636L128.869 122.888C124.883 121.283 121.469 118.477 119.055 115.053C116.683 111.636 115.205 107.554 115.222 103.42C115.222 99.2828 116.478 95.3893 117.787 91.6917C119.084 87.9831 120.635 84.4482 121.662 80.7729L122.187 78.8575L123.262 80.4401C125.548 83.7679 127.564 87.1844 129.526 90.6268C131.475 94.084 133.453 97.5745 134.837 101.305C136.158 105.047 136.876 108.956 137.094 112.871C137.287 116.65 137.238 121.12 134.36 124.297L134.081 124.138Z" fill="#373434"/>
<path d="M73.2301 83.4758C76.8583 84.6923 79.756 87.1659 81.7836 89.9613C82.7604 91.4144 83.3761 93.045 84.3406 94.4538C85.2764 95.8884 86.4543 97.1456 87.739 98.3473C90.3453 100.706 92.6396 103.154 95.131 105.373C97.5033 107.706 99.9659 109.832 102.929 111.936L102.802 112.213C98.9521 111.854 95.4265 109.935 92.6519 107.602C89.9595 105.166 87.8129 102.337 86.2655 99.2717C85.4447 97.7705 84.5951 96.2915 83.454 94.9973C82.3377 93.6921 80.8601 92.6272 79.6165 91.4514C77.2195 89.0147 75.2166 86.5041 73.0208 83.7087L73.2301 83.4758Z" fill="#373434"/>
<path d="M93.4111 127.65C94.8846 126.249 96.2965 125.454 97.9506 124.959C98.8125 124.77 99.8468 124.781 100.659 124.411C101.48 124.067 102.067 123.42 102.593 122.714C103.582 121.246 104.842 120 106.508 118.983C108.199 118.107 110.6 117.563 112.566 118.484L112.574 118.776C110.846 119.804 109.779 120.684 108.445 121.616C107.062 122.426 105.585 123.387 103.725 123.975C102.814 124.308 101.952 124.655 101.234 125.21C100.52 125.753 99.9658 126.6 99.1942 127.151C97.5935 128.146 95.5536 128.516 93.485 127.939L93.4111 127.65Z" fill="#373434"/>
<path d="M125.048 96.395C126.46 98.6246 127.1 100.865 127.239 103.198C127.239 104.378 126.936 105.606 127.063 106.77C127.166 107.95 127.617 109.059 128.155 110.157C129.308 112.317 130.051 114.546 130.695 116.787C131.204 119.065 131.463 121.143 132.025 123.583L131.758 123.746C129.345 122.3 128.077 119.804 127.305 117.563C126.665 115.252 126.267 112.908 126.386 110.479C126.406 109.266 126.357 108.076 126.008 106.944C125.692 105.798 124.945 104.714 124.547 103.579C123.894 101.272 123.882 98.8686 124.728 96.4283L125.048 96.395Z" fill="#373434"/>
<path d="M149.592 164.714C143.238 166.471 137.02 168.493 131.028 170.908C125.126 173.393 119.326 176.303 115.554 180.88C113.678 183.165 112.09 185.742 110.268 188.32C108.445 190.886 106.393 193.311 104.148 195.563C99.7483 200.152 94.7574 204.138 90.0497 208.342L89.4956 207.454C100.52 205.21 111.589 202.333 121.095 196.998C125.819 194.328 130.194 191.185 133.646 187.347C137.172 183.594 139.47 179.017 142.126 174.443C144.806 169.876 147.474 165.558 149.107 160.81C149.977 158.44 150.696 155.977 151.504 153.507C152.35 151.034 153.261 148.582 154.262 146.171C158.215 136.476 163.678 127.303 170.364 119.017L170.647 119.179C165.041 128.076 160.485 137.401 156.984 147.014C155.223 151.832 154.057 156.717 152.391 161.742C150.77 166.829 147.847 171.485 145.13 175.888C142.405 180.289 139.868 185.084 135.928 189.092C132.013 193.067 127.293 196.269 122.187 198.695C111.951 203.616 100.696 205.791 89.7788 208.482L87.665 209L89.2124 207.591C93.8955 203.361 98.2994 198.891 102.314 194.214C104.288 191.854 106.163 189.44 107.883 186.966C109.586 184.496 111.076 181.756 113.28 179.294C117.721 174.339 123.944 171.222 130.207 169.129C136.466 166.977 142.934 165.384 149.518 164.437L149.592 164.714Z" fill="#373434"/>
<path d="M151.886 159.087C151.274 162.725 153.429 165.894 156.007 168.412C158.638 170.956 161.843 173.496 164.244 176.543C166.695 179.571 168.541 182.947 170.105 186.367C171.661 189.799 173.06 193.241 174.251 196.776L173.11 196.754C174.341 192.398 175.289 187.972 175.445 183.664C175.47 181.512 175.33 179.375 174.739 177.356C174.16 175.319 173.188 173.378 172.108 171.463C169.863 167.639 167.08 164.056 163.949 160.592C160.833 157.135 157.624 153.714 154.147 150.468L154.353 150.239C158.597 152.709 162.422 155.726 165.96 158.983C169.494 162.208 172.851 165.835 175.215 170.006C177.69 174.132 178.856 179.157 178.265 183.823C177.752 188.527 175.868 192.812 174.251 197.064L173.573 198.858L173.11 197.042C172.211 193.518 170.811 190.076 168.788 186.944C166.809 183.79 164.359 180.936 161.921 178.14C160.69 176.732 159.446 175.356 158.137 174.014C156.803 172.698 155.416 171.311 154.123 169.81C151.57 166.889 149.785 162.577 151.578 158.994L151.886 159.087Z" fill="#373434"/>
<path d="M147.371 169.081C145.192 170.967 142.397 172.006 139.791 173.023C137.069 174.003 134.824 174.927 132.669 176.406C130.461 177.804 128.294 179.527 126.472 181.501C124.65 183.491 123.11 185.683 121.354 187.798C119.634 189.947 117.672 191.936 115.464 193.681C113.297 195.449 111.011 197.112 108.589 198.554C103.684 201.409 98.476 203.687 92.9967 205.443L92.8325 205.177C97.2981 201.801 102.03 198.913 106.611 195.955C111.294 193.104 115.759 190.087 120.02 186.726C122.125 185.014 123.985 183.051 125.626 180.925C127.268 178.798 128.721 176.476 130.909 174.524C133.08 172.55 136.248 171.474 138.957 170.86C141.728 170.131 144.523 169.743 147.191 168.826L147.371 169.081Z" fill="#373434"/>
<path d="M155.572 146.748C151.106 146.264 146.772 144.992 142.893 146.182C138.904 147.151 135.235 149.37 131.204 151.034C127.227 152.79 123.201 154.487 119.494 156.683C115.772 158.847 112.32 161.365 108.934 163.931L108.084 162.104C111.885 161.328 115.71 160.658 119.531 160.033C123.357 159.39 127.178 158.765 131.028 158.314C134.865 157.796 138.748 157.493 142.614 157.086C144.498 156.939 146.37 156.732 148.155 156.243C149.936 155.796 151.685 155.112 152.941 153.807L153.22 153.969C152.35 155.644 150.527 156.791 148.73 157.586C146.887 158.373 144.95 158.891 142.996 159.305C139.187 159.989 135.391 160.784 131.565 161.365C127.744 161.997 123.894 162.463 120.032 162.899C116.182 163.372 112.32 163.801 108.445 164.112L103.664 164.507L107.6 162.289C111.384 160.148 115.234 158.129 118.953 155.933C122.7 153.773 126.23 151.311 129.948 149.07C133.634 146.874 137.599 144.737 142.319 143.883C144.613 143.42 147.232 143.605 149.386 144.238C151.578 144.829 153.61 145.661 155.662 146.456L155.572 146.748Z" fill="#373434"/>
<path d="M153.955 151.23C150.093 151.577 146.678 152.235 143.123 152.882C141.395 153.149 139.392 153.389 137.599 153.888C135.772 154.384 134.081 155.16 132.403 156.003C129.091 157.759 125.614 159.124 122.072 160.337C118.477 161.42 114.795 162.3 110.871 162.622L110.756 162.348C113.925 160.244 117.34 158.717 120.841 157.39C124.379 156.199 127.999 155.134 131.771 154.487C133.646 154.128 135.493 153.692 137.221 152.986C138.982 152.317 140.472 151.207 142.368 150.516C146.091 149.325 150.441 149.233 154.033 150.941L153.955 151.23Z" fill="#373434"/>
<path d="M245.24 87.1844C237.236 90.3532 230.641 95.3782 224.299 100.706C217.872 105.949 211.358 111.126 206.864 117.586C202.3 123.997 199.423 131.359 197.781 138.961C196.139 146.574 195.897 154.443 196.447 162.219L195.614 161.871C205.469 155.4 214.166 147.536 221.373 138.798C224.968 134.421 228.178 129.81 230.842 124.959C233.551 120.126 235.595 114.997 237.479 109.81C239.35 104.633 241.148 99.305 242.736 94.084C244.251 88.8261 245.178 83.6274 244.045 78.3251C243.569 75.6555 242.843 72.9858 242.313 70.2238C241.813 67.4617 241.468 64.6922 241.3 61.908C240.918 56.3395 241.431 50.7673 242.494 45.3245L242.827 45.3726C242.264 50.8486 242.441 56.3506 243.122 61.7675C243.738 67.2324 245.445 72.3646 246.767 77.874C248.179 83.4314 247.588 89.4621 245.958 94.8235C244.357 100.233 242.646 105.465 240.774 110.778C236.974 121.339 231.318 131.625 223.425 140.229C215.639 148.941 206.121 156.129 196.23 162.633L195.446 163.154L195.392 162.274C194.92 154.443 194.883 146.563 195.959 138.695C197.051 130.86 199.591 122.991 204.414 116.177C209.277 109.325 216.156 104.138 222.785 99.1312C226.15 96.6501 229.561 94.1432 233.243 91.9727C236.965 89.8577 240.938 88.0866 245.125 86.9108L245.24 87.1844Z" fill="#373434"/>
<path d="M282.397 141.893C278.456 136.395 275.005 130.793 271.783 125.036C270.268 122.126 268.885 119.12 267.141 116.303C265.421 113.459 263.135 110.963 261.431 107.939C259.634 104.851 259.392 101.35 258.747 98.3362C258.107 95.2266 257.183 92.1909 256.055 89.255C253.9 83.3279 250.346 77.911 245.149 73.3778L245.342 73.1337C251.889 76.1657 256.773 81.9302 259.351 88.1901C260.66 91.3367 261.366 94.6386 261.801 97.9184C262.289 101.272 262.047 104.393 263.102 107.325C265.372 113.308 270.309 118.418 274.184 123.86C277.882 129.44 280.816 135.448 282.7 141.768L282.397 141.893Z" fill="#373434"/>
<path d="M254.914 111.392C253.17 107.151 252.053 102.692 251.963 98.07C252.016 95.7701 252.332 93.3667 253.773 91.1593C254.487 90.0759 255.657 89.0332 257.2 88.571C258.727 88.1236 260.274 88.3048 261.608 88.5969C271.721 91.6474 279.7 98.3251 285.077 106.216C290.491 114.132 293.236 123.339 293.622 132.431C294.07 141.572 292.711 150.56 290.901 159.457L290.527 161.316L289.694 159.527C287.654 155.149 282.795 152.734 278.432 149.799C276.24 148.305 274.02 146.597 272.452 144.297C270.773 141.975 270.309 139.364 269.53 137.183C268.003 132.734 265.355 128.49 262.56 124.334C259.802 120.137 256.851 115.97 254.914 111.392ZM255.222 111.289C257.134 115.851 260.389 119.782 263.66 123.661C266.882 127.558 270.297 131.551 272.21 136.384C273.158 138.798 273.642 141.098 274.939 142.921C276.187 144.818 278.071 146.412 280.049 148.009C282.036 149.577 284.215 151.093 286.206 152.838C288.209 154.583 289.953 156.706 290.889 159.146L289.67 159.216C292.042 150.516 292.826 141.42 291.632 132.583C290.4 123.779 287.568 115.149 282.228 107.835C277.045 100.518 269.435 94.4205 260.853 91.0336C258.735 90.3754 256.835 90.5825 255.489 92.2242C254.155 93.8067 253.502 95.9772 253.235 98.1403C252.73 102.518 253.539 107.081 255.222 111.289Z" fill="#373434"/>
<path d="M244.304 89.1293C239.707 94.7422 234.605 99.8152 229.561 104.899C226.947 107.384 224.262 109.847 222.066 112.653C219.862 115.448 218.143 118.521 216.796 121.719C214.124 128.109 211.855 134.709 208.842 141.072C205.891 147.21 203.301 154.143 198.076 159.409L197.793 159.25C201.208 153.019 202.796 146.471 205.596 139.886C208.596 133.577 211.292 127.103 215.167 121.028C217.063 117.989 219.169 115.068 221.184 112.121C223.195 109.174 225.149 106.134 227.455 103.328C232.217 97.8259 237.889 93.0894 244.074 88.9185L244.304 89.1293Z" fill="#373434"/>
<path d="M168.168 71.4624C165.488 65.3837 160.92 60.196 155.416 56.162C149.863 52.1686 143.501 49.059 136.696 47.2657C133.31 46.4005 129.899 45.7312 126.447 45.8828C122.983 46.0196 119.507 46.6556 116.08 47.5689C109.217 49.462 102.465 51.969 96.2474 55.2857L96.272 54.4426C106.073 60.5436 116.453 66.3191 127.884 69.0479C133.581 70.4123 139.38 70.978 145.245 70.5602C151.106 70.2496 157.033 69.3363 163.165 69.0812C166.206 68.9333 169.416 69.0368 172.342 69.499L181.282 70.6638C187.069 71.2997 192.971 71.3811 198.795 70.7229C210.443 69.4251 221.8 65.5796 231.65 59.4454L231.86 59.6784C222.736 66.7333 211.293 71.5771 199.205 73.2742C193.172 74.1986 186.978 74.3502 180.871 73.7253C174.92 73.2188 169.071 71.8544 163.28 72.165C157.431 72.2796 151.476 73.0672 145.385 73.2742C139.278 73.5404 133.014 72.7344 127.227 71.0002C115.591 67.4617 105.675 61.1204 95.6399 55.2746L94.9011 54.8457L95.6686 54.4167C101.928 51.0224 108.446 47.9608 115.361 45.6388C118.825 44.4814 122.482 43.5349 126.32 43.3722C130.141 43.1873 133.991 43.7197 137.545 44.7809C144.625 46.8848 151.348 50.1202 156.84 54.6719C162.332 59.1681 166.682 64.9437 168.492 71.37L168.168 71.4624Z" fill="#373434"/>
<path d="M190.455 71.4365C187.992 70.8967 186.006 69.3696 184.274 67.7649C182.55 66.1232 181.13 64.2411 179.898 62.2296C177.382 58.1993 176.483 53.5071 176.303 48.9998C176.139 44.4592 176.623 40.0222 177.304 35.5962C177.986 31.174 179.065 26.8035 180.526 22.555L181.318 20.2181L182.32 22.3664C184.282 26.5853 186.363 30.7561 188.669 34.8234C190.919 38.9388 193.857 42.6474 195.909 47.0475C197.986 51.5548 197.83 56.5465 197.165 61.0279C196.845 63.2243 196.874 65.6055 196.201 67.9017C195.844 69.0257 195.38 70.2385 194.276 71.0113C193.151 71.773 191.686 71.7175 190.455 71.4365ZM190.533 71.1518C191.727 71.3811 193.086 71.4033 193.997 70.6859C194.855 69.9464 195.228 68.8483 195.343 67.7538C195.589 65.5463 195.179 63.3278 195.064 60.9577C194.818 56.369 194.83 52.0059 193.352 47.8462C192.712 45.7312 191.764 43.6384 190.787 41.5234C189.827 39.4121 188.838 37.2971 187.734 35.2413C185.542 31.1259 183.116 27.1067 180.588 23.1318L182.386 22.958C181.548 27.2768 180.896 31.5992 180.411 35.9327C179.972 40.2514 179.742 44.633 179.779 48.9185C179.845 53.2039 180.411 57.4117 181.831 61.468C182.591 63.5016 183.617 65.4761 184.963 67.2546C186.334 69.0109 188.197 70.5713 190.533 71.1518Z" fill="#373434"/>
<path d="M172.391 71.1592C169.223 72.409 166.452 74.1653 163.821 76.0363C161.178 77.9109 158.752 80.0111 156.557 82.2445C154.402 84.4815 152.169 86.8738 150.129 89.3696C148.052 91.8544 146.267 94.524 144.436 97.1788L143.87 96.3728C148.106 95.6333 152.198 94.4205 156.278 93.289C160.341 92.1206 164.4 90.893 167.938 89.1182C171.566 87.384 174.251 84.9548 176.623 81.6861C179.065 78.5654 181.4 75.0564 184.873 72.5458L185.103 72.7566C182.566 75.8995 181.064 79.5046 178.934 82.9581C177.867 84.6811 176.762 86.4708 175.149 88.0644C173.545 89.6137 171.661 90.9189 169.621 91.8766C165.549 93.8289 161.244 94.8235 157.008 95.7257C152.736 96.6131 148.36 96.9977 144.038 97.4118L142.713 97.5264L143.472 96.5909C145.5 94.0951 147.256 91.4144 148.845 88.6449C150.49 85.8791 152.066 83.0505 154.336 80.5288C156.647 78.0367 159.434 75.9882 162.422 74.2578C165.41 72.5717 168.771 71.2184 172.301 70.8745L172.391 71.1592Z" fill="#373434"/>
<path d="M181.897 27.1732C183.375 28.7003 183.912 30.7561 184.347 32.5236C184.787 34.3502 185.131 36.1989 185.197 38.0699C185.222 39.9408 184.988 41.8488 185.115 43.7197C185.246 45.5796 185.71 47.4062 186.248 49.2291C187.467 52.8601 187.84 56.6131 189.006 59.8743C190.02 63.2354 191.727 66.5743 192.995 70.2496L192.712 70.4123C189.699 67.7168 187.122 64.5998 185.657 60.8209C184.951 58.9129 184.721 56.9385 184.565 55.0527C184.388 53.1596 184.401 51.3108 184.45 49.4176C184.491 47.543 184.438 45.672 184.064 43.8344C183.695 41.9967 182.977 40.2071 182.488 38.3805C182.041 36.5576 181.897 34.694 181.819 32.8268C181.729 30.9188 181.938 29.1736 181.602 27.3137L181.897 27.1732Z" fill="#373434"/>
</svg>
