<svg width="210" height="237" viewBox="0 0 210 237" fill="none" xmlns="http://www.w3.org/2000/svg">
<path d="M0.811989 200.219C20.7179 194.106 40.5804 187.323 59.19 177.662C77.7731 167.848 94.2392 154.841 110.527 141.844C118.57 135.233 126.969 128.939 133.942 120.895C140.913 112.841 145.931 103.432 150.334 93.9716C159.28 75.0671 166.592 55.396 172.069 35.2566L171.811 35.1801C164.751 54.8011 156.791 74.0223 147.83 92.7855C143.301 102.103 138.578 111.369 132.014 119.259C125.419 127.097 117.281 133.715 109.566 140.712C101.756 147.586 93.7564 154.278 85.1859 160.188C76.6566 166.167 67.5304 171.181 58.1769 175.676C39.5826 184.884 20.0596 192.135 0.718516 199.962L0.811989 200.219Z" fill="#373434"/>
<path d="M159.286 49.2524C160.656 51.5356 162.573 53.8164 165.423 54.4898C168.34 55.0434 171.115 53.5584 173.397 52.1004C175.714 50.5588 177.795 48.7874 179.82 46.9981C181.908 45.17 183.793 43.0724 185.392 40.7246C186.94 38.3594 188.173 35.6618 188.621 32.7466C189.09 29.8276 188.692 26.9347 188.14 24.2447C186.982 18.8913 185.312 13.6981 183.192 8.68723C182.675 7.43637 182.135 6.18228 181.574 4.95589L180.704 3.11571C180.392 2.5186 180.27 1.85592 179.6 1.19893C178.871 0.547428 177.8 0.749134 177.189 1.10977C176.525 1.46303 175.987 1.98332 175.534 2.48469C174.612 3.47177 173.651 4.42285 172.755 5.44744C169.09 9.43282 165.58 13.6199 162.646 18.2401C159.808 22.8599 157.288 27.8773 156.403 33.4066C155.94 36.1361 155.913 38.9566 156.374 41.6679C156.881 44.3618 157.855 46.9505 159.286 49.2524ZM159.516 49.1143C158.133 46.8293 157.239 44.228 157.075 41.5849C156.946 38.9332 157.292 36.2927 158.05 33.7842C159.574 28.7683 162.084 24.0689 164.57 19.3664C167.099 14.7036 169.922 10.0986 173.406 6.02357C174.28 5.00955 175.173 4.0083 176.119 3.06538C176.95 2.15058 178.293 1.26262 178.968 1.91007C179.288 2.19578 179.519 2.9075 179.785 3.51862L180.494 5.39091C180.954 6.65772 181.398 7.91889 181.803 9.19499C183.413 14.3051 184.687 19.5081 185.645 24.7182C186.101 27.31 186.321 29.869 185.858 32.2791C185.387 34.7015 184.375 37.0254 182.987 39.1509C181.638 41.3091 179.893 43.2562 178.043 45.1038C176.114 46.9812 174.292 48.9515 172.33 50.6748C170.382 52.3523 168.102 53.916 165.537 53.7409C162.958 53.4892 160.886 51.3432 159.516 49.1143Z" fill="#373434"/>
<path d="M167.857 72.7918C170.577 70.1845 173.085 67.3881 175.602 64.6202C176.826 63.24 178.089 61.9501 179.487 60.9848C180.852 60.0149 182.468 59.5385 184.224 59.1225C185.989 58.7212 187.886 58.3755 189.749 57.6581C191.6 56.9356 193.257 55.9415 194.848 54.952C197.959 52.9596 201.366 50.9811 204.993 51.4154L204.761 50.5371L198.785 54.2772C196.784 55.5498 194.808 57.0842 193.26 59.0585C191.702 60.9567 190.564 63.0388 189.189 64.7719C187.816 66.536 186.28 67.8119 184.322 68.5501C182.363 69.2746 180.08 69.6619 177.761 70.136L170.892 71.6385C168.609 72.1211 166.329 72.706 164.053 73.2642C162.9 73.5396 161.836 73.8612 160.781 73.8C160.268 73.7699 159.71 73.5771 159.11 73.4497C158.537 73.316 157.763 73.2869 157.255 73.7333L157.404 73.9578C158.424 73.494 159.371 74.4103 160.624 74.7129C161.908 75.0369 163.168 74.8205 164.314 74.6904C166.646 74.4219 168.981 74.171 171.293 73.8216L178.25 72.8172C180.536 72.4099 182.936 72.1815 185.361 71.2327C187.852 70.3541 189.932 68.3618 191.314 66.3611C192.743 64.3396 193.835 62.2716 195.098 60.4379C197.604 56.8427 201.596 54.1566 205.31 51.3369L206.366 50.535L205.082 50.4524C201.042 50.1817 197.61 52.3369 194.255 53.8605C192.565 54.6495 190.869 55.39 189.164 55.8234C187.449 56.2349 185.621 56.3966 183.72 56.7789C181.843 57.1545 179.795 57.8294 178.134 59.0981C176.467 60.3117 175.231 61.8738 174.076 63.3689C171.861 66.4097 169.662 69.429 167.645 72.6266L167.857 72.7918Z" fill="#373434"/>
<path d="M120.423 77.8971C114.954 76.5042 109.461 75.0842 104.545 72.5444C102.096 71.2809 99.8518 69.6956 97.8653 67.8673C95.901 66.0014 94.252 63.8223 92.9554 61.4302C90.371 56.6304 88.8617 51.2827 88.1806 45.771C87.4352 40.2573 87.3781 34.6077 87.4353 28.9672L86.6683 29.4014C95.6678 34.2603 103.779 40.7261 110.819 48.0973C112.582 49.925 114.248 51.8551 115.926 53.7766C117.581 55.7153 119.212 57.654 120.439 59.7441C121.703 61.8325 122.427 64.0366 122.278 66.3439C122.19 68.6666 121.302 71.0076 120.724 73.66C120.433 74.9791 120.25 76.3981 120.334 77.8542C120.437 79.3129 120.711 80.5744 121.026 81.8823C121.678 84.467 122.529 86.9334 123.343 89.3299C124.143 91.7483 124.863 94.1319 125.199 96.5371C125.53 98.9823 125.739 101.526 125.785 104.041C125.923 114.113 123.864 124.292 119.358 133.514L119.595 133.642C125.084 124.906 127.981 114.493 128.177 104.042C128.232 101.416 128.144 98.8345 127.882 96.1847C127.554 93.4952 126.815 90.9356 126.043 88.4599C125.281 85.9856 124.413 83.5917 123.82 81.1952C123.514 80.0177 123.277 78.7613 123.175 77.653C123.084 76.546 123.203 75.3933 123.429 74.2045C123.873 71.8326 124.79 69.2816 124.864 66.4437C124.995 63.5833 123.957 60.7207 122.485 58.4879C121.007 56.2033 119.235 54.2756 117.489 52.3787C115.724 50.4757 113.871 48.666 111.98 46.9087C104.394 39.8665 96.003 33.8276 87.1843 28.4974L86.4588 28.0673L86.4106 28.9307C86.1087 34.5713 85.6827 40.2491 86.1224 45.9822C86.5863 51.6881 87.9439 57.5177 90.9378 62.5748C93.8243 67.6714 98.4462 71.8698 103.801 74.0897C109.096 76.4679 114.77 77.4643 120.365 78.1678L120.423 77.8971Z" fill="#373434"/>
<path d="M123.545 82.8155C123.628 79.8296 124.695 77.1089 126.17 74.7302C127.649 72.3215 129.693 70.3241 131.837 68.3882C133.958 66.4185 136.227 64.4692 138.581 62.6609C140.95 60.8649 143.44 59.2317 145.993 57.7296L145.202 57.0865C143.866 60.3001 142.438 63.4737 141.184 66.7089C139.969 69.9596 138.674 73.1788 137.559 76.4672C136.42 79.7114 135.402 82.9146 133.647 85.6997C131.899 88.4314 129.456 90.8799 126.145 91.9406L126.184 92.1975C129.799 92.083 133.161 89.8195 135.424 86.979C137.724 84.0859 139.142 80.6933 140.277 77.4077C141.43 74.1349 142.389 70.7943 143.445 67.4876C144.455 64.1744 145.298 60.7872 146.227 57.4391L146.669 55.8657L145.422 56.7975C143.028 58.6002 140.566 60.2781 137.979 61.7789C135.353 63.2436 132.705 64.6714 130.291 66.5904C127.924 68.5159 125.807 70.9211 124.405 73.7551C123.018 76.5572 122.443 79.8761 123.273 82.8391L123.545 82.8155Z" fill="#373434"/>
<path d="M127.998 104.796C124.607 105.726 121.289 104.696 117.971 103.801C114.648 102.882 111.433 101.703 108.213 100.492C104.987 99.3151 101.741 97.9922 98.7737 96.181C95.8127 94.3469 93.1695 92.0335 90.8133 89.488L90.3293 90.7498C93.9283 90.8981 97.486 90.4358 100.943 90.0106C104.392 89.5978 107.792 89.3447 111.052 89.7316C114.294 90.1057 117.458 91.2576 120.224 93.1258C123.016 94.9806 125.417 97.4917 127.212 100.51L127.457 100.405C126.459 96.9664 124.312 93.8414 121.495 91.4531C118.681 89.099 115.166 87.3887 111.436 86.8857C107.705 86.369 104.052 86.9031 100.57 87.5051C97.0794 88.0956 93.7169 88.9147 90.2869 89.2893L88.5004 89.4769L89.8067 90.5482C92.5506 92.8212 95.4051 94.8852 98.2889 96.9091C101.187 98.9248 104.113 100.968 107.322 102.558C110.548 104.099 113.992 105.171 117.498 105.836C120.885 106.465 124.922 106.983 128.11 105.042L127.998 104.796Z" fill="#373434"/>
<path d="M98.1736 50.2781C98.8625 53.3779 100.767 56.0411 103.06 58.0375C104.261 59.0126 105.662 59.7165 106.824 60.6761C108.013 61.6155 109.014 62.7296 109.953 63.9234C111.787 66.3355 113.737 68.5053 115.457 70.8065C117.294 73.0253 118.935 75.2916 120.499 77.9619L120.763 77.8932C120.873 74.7205 119.539 71.6164 117.747 69.0708C115.852 66.579 113.543 64.4817 110.953 62.8417C109.691 61.9873 108.453 61.1123 107.414 60.0237C106.363 58.9536 105.568 57.6202 104.648 56.4629C102.72 54.2112 100.681 52.2703 98.4073 50.1372L98.1736 50.2781Z" fill="#373434"/>
<path d="M135.742 72.1915C134.312 73.2137 133.436 74.2615 132.803 75.5435C132.536 76.2202 132.43 77.0619 132.005 77.676C131.603 78.3 130.953 78.696 130.257 79.0346C128.822 79.6549 127.556 80.523 126.452 81.7499C125.471 83.0143 124.711 84.8972 125.32 86.6095L125.583 86.6526C126.704 85.3771 127.618 84.62 128.608 83.6527C129.494 82.63 130.527 81.5496 131.267 80.1125C131.669 79.4137 132.08 78.7569 132.661 78.2426C133.231 77.7302 134.057 77.3858 134.641 76.8277C135.718 75.6514 136.281 74.0403 135.994 72.2876L135.742 72.1915Z" fill="#373434"/>
<path d="M103.995 93.9914C105.847 95.417 107.795 96.217 109.884 96.6218C110.948 96.7691 112.089 96.6757 113.125 96.9245C114.177 97.1552 115.127 97.6605 116.057 98.2345C117.874 99.4412 119.801 100.323 121.75 101.127C123.747 101.825 125.592 102.294 127.729 103.056L127.906 102.859C126.874 100.718 124.765 99.376 122.832 98.4692C120.819 97.6604 118.75 97.0442 116.546 96.8375C115.45 96.7027 114.382 96.514 113.4 96.0892C112.402 95.6893 111.509 94.9471 110.53 94.4818C108.523 93.6635 106.357 93.3533 104.061 93.7355L103.995 93.9914Z" fill="#373434"/>
<path d="M162.847 122.465C165.146 117.522 167.67 112.723 170.521 108.156C173.426 103.671 176.703 99.3227 181.256 96.8298C183.528 95.5913 186.031 94.6227 188.56 93.464C191.079 92.3039 193.498 90.9395 195.781 89.3967C200.414 86.395 204.571 82.8379 208.892 79.5382L208.154 78.9772C204.889 87.6537 201.049 96.2879 195.168 103.345C192.229 106.849 188.902 110.011 185.053 112.337C181.271 114.732 176.884 116.028 172.461 117.614C168.041 119.221 163.846 120.85 159.38 121.584C157.145 121.995 154.843 122.271 152.525 122.619C150.199 122.997 147.885 123.431 145.598 123.944C136.41 125.944 127.523 129.237 119.297 133.634L119.412 133.885C128.066 130.441 136.989 127.904 146.053 126.26C150.596 125.431 155.132 125.094 159.851 124.368C164.622 123.686 169.149 121.893 173.426 120.236C177.701 118.571 182.312 117.109 186.37 114.409C190.395 111.724 193.814 108.289 196.576 104.444C202.166 96.7416 205.393 87.8696 209.049 79.3356L209.754 77.6829L208.309 78.7641C203.967 82.0407 199.44 85.0604 194.77 87.7375C192.421 89.0469 190.032 90.2693 187.608 91.3575C185.189 92.4329 182.55 93.3012 180.081 94.7843C175.113 97.7736 171.602 102.44 169.01 107.267C166.365 112.083 164.2 117.14 162.605 122.37L162.847 122.465Z" fill="#373434"/>
<path d="M157.514 123.626C160.864 123.584 163.479 125.73 165.46 128.139C167.458 130.594 169.388 133.516 171.866 135.847C174.321 138.216 177.158 140.138 180.067 141.836C182.986 143.528 185.933 145.095 188.987 146.504L189.096 145.574C185.029 146.03 180.931 146.248 177.028 145.837C175.085 145.588 173.173 145.207 171.419 144.475C169.647 143.751 168.005 142.718 166.4 141.602C163.204 139.3 160.286 136.592 157.514 133.615C154.746 130.652 152.023 127.617 149.486 124.387L149.256 124.525C151.006 128.282 153.297 131.766 155.837 135.048C158.347 138.322 161.241 141.502 164.736 143.944C168.179 146.47 172.58 148.045 176.854 148.147C181.154 148.318 185.231 147.322 189.247 146.54L190.941 146.213L189.356 145.61C186.279 144.439 183.332 142.872 180.735 140.837C178.113 138.836 175.815 136.489 173.568 134.159C172.436 132.983 171.335 131.8 170.272 130.569C169.235 129.321 168.141 128.021 166.932 126.783C164.585 124.344 160.898 122.355 157.465 123.365L157.514 123.626Z" fill="#373434"/>
<path d="M167.035 121.206C168.981 119.671 170.233 117.53 171.443 115.54C172.633 113.451 173.719 111.742 175.295 110.176C176.804 108.557 178.602 107.012 180.588 105.778C182.587 104.545 184.737 103.569 186.842 102.406C188.973 101.277 190.988 99.9312 192.81 98.3552C194.648 96.8152 196.406 95.1656 197.979 93.3783C201.105 89.7499 203.745 85.8027 205.946 81.5704L205.724 81.4037C202.177 84.6102 199.04 88.0944 195.857 91.4464C192.759 94.8952 189.536 98.1464 186.025 101.188C184.245 102.685 182.265 103.95 180.163 105.019C178.06 106.087 175.803 106.977 173.796 108.511C171.771 110.028 170.444 112.468 169.586 114.592C168.617 116.752 167.953 118.975 166.825 121.028L167.035 121.206Z" fill="#373434"/>
<path d="M145.971 125.08C146.037 121.391 145.377 117.711 146.888 114.708C148.21 111.588 150.624 108.884 152.578 105.817C154.609 102.805 156.593 99.746 158.991 97.0092C161.36 94.2548 164.02 91.7649 166.715 89.3343L165.163 88.4159C164.035 91.4068 163.001 94.4311 162.008 97.4576C160.997 100.485 160.004 103.512 159.164 106.583C158.265 109.636 157.555 112.753 156.753 115.843C156.408 117.356 156.01 118.85 155.369 120.24C154.765 121.631 153.952 122.966 152.633 123.824L152.749 124.071C154.357 123.573 155.596 122.236 156.515 120.874C157.433 119.476 158.117 117.966 158.711 116.431C159.756 113.422 160.9 110.436 161.854 107.401C162.854 104.375 163.708 101.306 164.536 98.2223C165.396 95.1535 166.217 92.0692 166.933 88.9601L167.828 85.1246L165.384 88.0455C163.028 90.8526 160.774 93.7284 158.375 96.4752C156.006 99.2501 153.388 101.81 150.948 104.552C148.553 107.272 146.18 110.226 144.878 113.954C144.203 115.761 144.075 117.911 144.403 119.741C144.69 121.595 145.212 123.35 145.698 125.117L145.971 125.08Z" fill="#373434"/>
<path d="M150.195 124.326C150.943 121.231 151.921 118.539 152.904 115.732C153.339 114.361 153.781 112.764 154.433 111.369C155.085 109.947 155.976 108.67 156.925 107.412C158.881 104.94 160.503 102.286 161.995 99.5596C163.377 96.7737 164.585 93.8925 165.316 90.7447L165.082 90.6172C162.829 92.9288 161.067 95.5125 159.476 98.1911C158.004 100.917 156.637 103.725 155.629 106.709C155.094 108.188 154.493 109.634 153.662 110.95C152.86 112.297 151.692 113.369 150.855 114.823C149.362 117.699 148.789 121.222 149.926 124.353L150.195 124.326Z" fill="#373434"/>
<path d="M82.165 190.492C85.9233 184.386 91.1972 179.654 96.7158 175.168C102.168 170.601 107.569 165.955 113.9 163.11C120.196 160.203 127.159 158.785 134.2 158.401C141.25 158.018 148.374 158.803 155.324 160.221L155.105 159.501C148.16 166.699 140.089 172.783 131.398 177.548C127.046 179.922 122.526 181.954 117.852 183.512C113.188 185.11 108.333 186.13 103.443 187.012C98.5638 187.886 93.5564 188.682 88.6691 189.32C83.7569 189.894 78.964 189.998 74.3096 188.416C71.9556 187.695 69.6297 186.772 67.1983 185.997C64.7637 185.245 62.3048 184.619 59.8128 184.134C54.8338 183.129 49.7508 182.85 44.7226 183.034L44.7286 183.31C49.7304 183.537 54.6725 184.367 59.4811 185.597C64.3404 186.78 68.7767 188.808 73.5966 190.57C78.4497 192.411 83.955 192.684 88.9736 192.03C94.0322 191.405 98.9433 190.668 103.946 189.811C113.897 188.042 123.81 184.732 132.458 179.394C141.191 174.156 148.744 167.321 155.722 160.096L156.281 159.525L155.493 159.371C148.484 158.01 141.382 156.996 134.165 156.887C126.976 156.795 119.594 157.877 112.905 160.944C106.179 164.04 100.727 168.981 95.4657 173.741C92.8495 176.165 90.2049 178.623 87.8332 181.343C85.5069 184.104 83.4627 187.11 81.9312 190.365L82.165 190.492Z" fill="#373434"/>
<path d="M127.324 227.514C122.808 223.626 118.145 220.122 113.315 216.785C110.861 215.191 108.306 213.692 105.961 211.923C103.59 210.17 101.597 208.001 99.0605 206.24C96.4784 204.393 93.3477 203.759 90.7025 202.859C87.9701 201.951 85.3363 200.821 82.8156 199.538C77.7126 197.047 73.2273 193.483 69.7237 188.695L69.4819 188.821C71.4797 194.518 76.1289 199.207 81.4844 202.083C84.1749 203.539 87.0733 204.525 89.9821 205.288C92.9517 206.104 95.7934 206.297 98.3191 207.52C103.459 210.111 107.512 214.761 111.985 218.589C116.601 222.29 121.689 225.425 127.176 227.745L127.324 227.514Z" fill="#373434"/>
<path d="M102.908 201.376C99.2799 199.429 95.3839 197.965 91.2258 197.314C89.1456 197.07 86.9426 197.027 84.7897 197.922C83.7323 198.367 82.6603 199.187 82.0699 200.383C81.4946 201.567 81.4839 202.847 81.5972 203.967C83.2105 212.565 88.3351 219.881 94.8462 225.235C101.377 230.622 109.371 234.003 117.527 235.452C125.72 236.957 133.98 236.976 142.206 236.616L143.926 236.545L142.405 235.645C138.687 233.441 137.056 229.191 134.899 225.28C133.799 223.312 132.508 221.295 130.61 219.734C128.705 218.08 126.403 217.377 124.523 216.471C120.683 214.675 117.153 211.994 113.719 209.204C110.245 206.439 106.819 203.521 102.908 201.376ZM102.78 201.613C106.68 203.736 109.859 206.872 112.989 210.014C116.141 213.118 119.358 216.391 123.501 218.549C125.572 219.621 127.592 220.301 129.09 221.583C130.66 222.834 131.885 224.563 133.103 226.37C134.294 228.18 135.416 230.14 136.766 231.975C138.114 233.82 139.832 235.503 141.928 236.568L142.128 235.586C134.015 236.427 125.723 235.928 117.888 233.854C110.087 231.754 102.622 228.375 96.6273 223.123C90.6113 217.998 85.9687 211.054 83.8797 203.658C83.5245 201.855 83.925 200.337 85.5571 199.448C87.1344 198.562 89.1652 198.303 91.146 198.357C95.151 198.493 99.175 199.72 102.78 201.613Z" fill="#373434"/>
<path d="M84.0243 189.975C89.6035 186.941 94.7526 183.43 99.9053 179.967C102.44 178.153 104.963 176.279 107.741 174.846C110.51 173.404 113.475 172.391 116.511 171.697C122.574 170.324 128.781 169.304 134.859 167.651C140.727 166.02 147.27 164.782 152.607 161.194L152.495 160.944C146.492 162.941 140.408 163.413 134.154 164.865C128.128 166.515 121.985 167.897 116.07 170.286C113.116 171.447 110.245 172.793 107.36 174.062C104.476 175.328 101.515 176.536 98.725 178.06C93.2274 181.241 88.3175 185.258 83.8601 189.762L84.0243 189.975Z" fill="#373434"/>
<path d="M76.6577 125.911C71.4771 122.974 67.3126 118.615 64.2938 113.64C61.3172 108.629 59.2285 103.072 58.3769 97.3193C57.9776 94.4601 57.7577 91.6055 58.2828 88.82C58.796 86.0226 59.7606 83.2776 60.9699 80.6072C63.4493 75.2682 66.4699 70.0958 70.1607 65.4581L69.3976 65.3728C73.797 74.0978 77.8378 83.2524 79.0127 92.8802C79.6022 97.6791 79.4599 102.462 78.4231 107.175C77.4836 111.898 75.9931 116.599 75.0731 121.549C74.5975 124.001 74.3298 126.622 74.4174 129.057L74.462 136.466C74.3844 141.247 73.7937 146.052 72.5449 150.702C70.0638 160.003 65.3181 168.75 58.6776 175.987L58.8641 176.186C66.2532 169.654 71.909 160.962 74.7996 151.354C76.3121 146.567 77.1456 141.554 77.2692 136.514C77.482 131.616 76.9096 126.694 77.8413 122.027C78.6027 117.29 79.983 112.55 80.8551 107.627C81.7823 102.698 81.7601 97.5089 80.8472 92.5905C78.9652 82.6949 74.362 73.8464 70.219 64.9632L69.9153 64.3094L69.4421 64.8794C65.6767 69.5408 62.1823 74.4538 59.31 79.7827C57.8765 82.4525 56.6114 85.3055 56.0329 88.403C55.4363 91.4845 55.4833 94.6789 56.0404 97.6992C57.1412 103.714 59.3026 109.58 62.7897 114.611C66.2267 119.634 70.9459 123.89 76.5378 126.163L76.6577 125.911Z" fill="#373434"/>
<path d="M74.1268 144.015C73.917 141.947 72.7633 140.142 71.511 138.534C70.2244 136.929 68.6868 135.54 67.0113 134.288C63.6596 131.741 59.5291 130.425 55.4845 129.715C51.4081 129.015 47.352 128.854 43.2838 128.855C39.2189 128.856 35.1559 129.187 31.1601 129.844L28.9634 130.195L30.7882 131.277C34.3723 133.398 37.8996 135.61 41.3082 137.992C44.7666 140.333 47.7805 143.184 51.5179 145.401C55.3491 147.651 59.8684 148.148 63.9848 148.167C66.0016 148.181 68.1459 148.502 70.2924 148.242C71.3463 148.092 72.4922 147.867 73.3134 147.066C74.1269 146.248 74.2417 145.05 74.1268 144.015ZM73.8613 144.043C73.9336 145.042 73.8008 146.148 73.0514 146.799C72.2879 147.404 71.2555 147.57 70.2555 147.527C68.237 147.451 66.2824 146.84 64.1579 146.451C60.0473 145.678 56.1111 145.143 52.5258 143.423C50.6905 142.639 48.9098 141.607 47.1123 140.549C45.3162 139.505 43.5201 138.437 41.7903 137.284C38.3254 134.989 34.9736 132.516 31.6733 129.966L31.3143 131.405C35.3034 131.264 39.275 131.273 43.2377 131.421C47.1819 131.604 51.1594 131.964 55.02 132.529C58.8775 133.118 62.6086 134.104 66.1069 135.764C67.8555 136.635 69.5207 137.715 70.9732 139.031C72.4029 140.364 73.6005 142.073 73.8613 144.043Z" fill="#373434"/>
<path d="M75.9091 129.305C77.3927 126.886 79.2883 124.855 81.2717 122.951C83.2597 121.038 85.4267 119.329 87.6879 117.824C89.9478 116.353 92.3565 114.838 94.8369 113.492C97.3114 112.115 99.9199 110.998 102.52 109.842L101.857 109.281C100.713 112.63 99.1593 115.803 97.6798 118.977C96.1689 122.132 94.6051 125.277 92.6064 127.929C90.6343 130.661 88.1414 132.538 84.9267 134.057C81.8375 135.652 78.4101 137.111 75.7553 139.618L75.9195 139.831C79.0393 138.163 82.4596 137.393 85.8138 136.094C87.4878 135.442 89.226 134.768 90.8447 133.657C92.4225 132.546 93.8115 131.179 94.9047 129.641C97.1235 126.577 98.5049 123.203 99.7952 119.875C101.076 116.514 101.915 113.007 102.775 109.548L103.028 108.485L102.098 108.985C99.6195 110.321 97.0042 111.413 94.3279 112.358C91.6484 113.349 88.92 114.277 86.3905 115.806C83.8829 117.372 81.722 119.38 79.8252 121.592C77.9684 123.809 76.3697 126.371 75.6625 129.196L75.9091 129.305Z" fill="#373434"/>
<path d="M35.1708 131.534C36.3817 132.925 38.1753 133.619 39.7203 134.193C41.3182 134.778 42.9467 135.289 44.6266 135.576C46.3112 135.83 48.0582 135.878 49.7312 136.215C51.3937 136.554 52.9889 137.159 54.5723 137.824C57.7098 139.267 61.0524 140.04 63.8624 141.394C66.7796 142.637 69.5986 144.441 72.7706 145.931L72.9491 145.721C70.8572 142.937 68.3361 140.453 65.0929 138.791C63.4517 137.979 61.6968 137.546 60.0137 137.184C58.3263 136.804 56.6576 136.583 54.9447 136.386C53.2494 136.186 51.5681 135.909 49.9528 135.376C48.337 134.846 46.8039 134.039 45.2116 133.414C43.6179 132.823 41.9534 132.473 40.2782 132.177C38.5677 131.865 36.9702 131.817 35.3307 131.312L35.1708 131.534Z" fill="#373434"/>
</svg>
