<svg width="320" height="325" viewBox="0 0 320 325" fill="none" xmlns="http://www.w3.org/2000/svg">
<path d="M8.9741 324.997C8.40993 307.928 8.407 290.714 11.1255 273.714C13.9756 256.691 20.0441 240.463 26.1535 224.379C29.331 216.387 32.146 208.199 36.7968 200.656C41.4592 193.111 47.782 186.723 54.3211 180.801C67.3438 168.847 81.4598 157.959 96.4702 148.371L96.6047 148.55C82.4654 159.229 68.9019 170.501 55.999 182.427C49.6119 188.412 43.3242 194.536 38.6822 201.719C34.0928 208.914 30.9358 216.983 27.352 224.824C23.8939 232.709 20.6434 240.69 18.1908 248.909C15.6711 257.111 14.1101 265.523 13.0431 273.973C10.6958 290.844 10.2164 307.917 9.21087 325L8.9741 324.997Z" fill="#373434"/>
<path d="M88.5544 162C86.2948 161.542 83.8831 160.659 82.5297 158.627C81.2581 156.509 81.6995 153.961 82.2549 151.802C82.8717 149.596 83.7458 147.512 84.6461 145.466C85.561 143.36 86.7566 141.345 88.2387 139.481C89.747 137.654 91.6178 135.978 93.8862 134.86C96.1546 133.725 98.6422 133.264 101.007 132.98C105.734 132.461 110.469 132.38 115.181 132.698C116.354 132.767 117.538 132.853 118.701 132.963L120.458 133.151C121.034 133.236 121.615 133.154 122.343 133.501C123.083 133.893 123.217 134.777 123.092 135.348C122.986 135.956 122.712 136.513 122.428 136.996C121.876 137.974 121.364 138.973 120.773 139.939C118.526 143.84 116.07 147.672 113.097 151.173C110.095 154.602 106.681 157.887 102.387 160.038C100.273 161.12 97.9611 161.89 95.605 162.249C93.249 162.569 90.849 162.503 88.5544 162ZM88.6041 161.785C90.8695 162.254 93.2577 162.257 95.4764 161.683C97.6922 161.081 99.7647 160.115 101.612 158.859C105.307 156.346 108.467 153.155 111.63 149.977C114.755 146.781 117.745 143.371 120.116 139.586C120.703 138.639 121.276 137.681 121.785 136.696C122.305 135.809 122.656 134.531 121.937 134.18C121.609 134.007 120.961 134.015 120.385 133.971L118.645 133.918C117.479 133.896 116.316 133.885 115.152 133.91C110.504 134.015 105.871 134.404 101.32 135.042C99.0631 135.373 96.8971 135.884 95.0467 136.88C93.1905 137.888 91.5623 139.288 90.2089 140.931C88.8116 142.548 87.7008 144.42 86.7011 146.344C85.7014 148.34 84.5935 150.276 83.7253 152.255C82.898 154.212 82.252 156.393 83.1144 158.34C84.0439 160.272 86.3883 161.31 88.6041 161.785Z" fill="#373434"/>
<path d="M66.8088 161.586C68.1885 158.787 69.7817 156.098 71.3485 153.412C72.1407 152.098 72.8451 150.773 73.2456 149.434C73.6607 148.117 73.5993 146.736 73.4473 145.262C73.2836 143.785 73.0322 142.223 73.1024 140.588C73.1755 138.959 73.5262 137.411 73.8916 135.911C74.6575 132.969 75.3269 129.799 73.953 127.102L74.7393 127.047L73.3421 132.679C72.8598 134.57 72.1523 136.508 70.9655 138.233C69.843 139.945 68.4516 141.381 67.4139 142.907C66.3469 144.439 65.7302 145.969 65.6746 147.686C65.6278 149.398 65.9494 151.272 66.2096 153.196L66.9023 158.925C67.1508 160.827 67.3057 162.751 67.487 164.665C67.5834 165.631 67.6185 166.542 67.9664 167.345C68.133 167.737 68.4487 168.118 68.7206 168.549C68.9924 168.96 69.235 169.551 69.007 170.065L68.7819 170.007C68.8784 169.093 67.8582 168.601 67.259 167.71C66.6334 166.799 66.4551 165.763 66.2417 164.841C65.8091 162.958 65.3589 161.078 64.9964 159.193L63.871 153.528C63.5641 151.648 63.0788 149.723 63.1753 147.589C63.2016 145.425 64.254 143.28 65.508 141.679C66.7708 140.036 68.1652 138.639 69.314 137.173C71.5648 134.277 72.6551 130.465 73.9296 126.834L74.2892 125.802L74.7189 126.776C76.0752 129.841 75.2655 133.076 74.9557 136.083C74.7832 137.604 74.6517 139.117 74.7744 140.555C74.9147 141.993 75.2977 143.454 75.514 145.033C75.7303 146.59 75.7537 148.357 75.1778 149.983C74.6487 151.598 73.7104 152.97 72.8042 154.262C70.9275 156.788 69.0655 159.295 67.0047 161.708L66.8088 161.586Z" fill="#373434"/>
<path d="M75.9232 199.754C78.6037 203.627 81.3106 207.514 84.7775 210.656C86.505 212.221 88.4343 213.543 90.4952 214.601C92.5794 215.631 94.8331 216.332 97.16 216.705C101.831 217.439 106.649 217.193 111.369 216.263C116.108 215.377 120.767 213.924 125.389 212.384L125.246 213.096C118.73 207.398 111.139 202.818 103.106 199.309C101.109 198.423 99.0542 197.642 97.005 196.849C94.9471 196.079 92.898 195.328 90.8342 194.928C88.7646 194.503 86.7506 194.522 84.8973 195.251C83.0119 195.935 81.3369 197.244 79.3228 198.395C78.3202 198.97 77.2065 199.491 75.9846 199.812C74.7539 200.118 73.6431 200.237 72.4797 200.339C70.1704 200.518 67.9079 200.513 65.7097 200.516C63.4968 200.535 61.3366 200.609 59.267 200.985C57.1623 201.377 55.0138 201.888 52.9354 202.52C44.622 205.082 36.8346 209.378 30.5206 215.319L30.3481 215.167C35.9869 208.593 43.7304 203.585 52.2631 200.665C54.4058 199.925 56.5514 199.309 58.8022 198.809C61.1057 198.351 63.415 198.246 65.6658 198.191C67.9108 198.125 70.1236 198.166 72.2605 197.989C73.3128 197.915 74.4119 197.766 75.3532 197.553C76.2857 197.33 77.2006 196.932 78.1156 196.441C79.9396 195.466 81.7754 194.08 84.0876 193.271C86.4027 192.41 89.0453 192.457 91.2961 193.009C93.5879 193.55 95.6662 194.414 97.7183 195.267C99.7733 196.134 101.781 197.089 103.755 198.092C111.673 202.111 118.99 207.023 125.845 212.456L126.403 212.906L125.705 213.171C121.153 214.902 116.608 216.735 111.773 217.914C106.955 219.068 101.781 219.559 96.7858 218.574C91.7901 217.685 87.0429 215.211 83.7163 211.644C80.2758 208.163 77.8642 204.024 75.7186 199.87L75.9232 199.754Z" fill="#373434"/>
<path d="M71.0066 198.633C73.4357 197.777 75.3709 196.228 76.9114 194.453C78.4753 192.667 79.5452 190.552 80.5332 188.374C81.5563 186.204 82.5239 183.929 83.3482 181.624C84.1579 179.308 84.801 176.944 85.3213 174.562L86.0726 175.006C83.8042 176.895 81.5972 178.844 79.2908 180.674C76.9611 182.48 74.6781 184.338 72.2899 186.074C69.9455 187.819 67.5982 189.456 65.8004 191.557C64.0465 193.639 62.7224 196.181 62.7779 199.033L62.5557 199.072C61.6349 196.236 62.5528 193.026 64.2512 190.516C65.9817 187.965 68.3728 185.966 70.7552 184.216C73.12 182.452 75.596 180.823 78.0163 179.128C80.4543 177.466 83.0033 175.915 85.4938 174.305L86.6631 173.546L86.245 174.761C85.4353 177.096 84.7484 179.451 84.2398 181.856C83.775 184.282 83.3453 186.717 82.4449 189.097C81.5271 191.444 80.1444 193.727 78.2093 195.566C76.2975 197.382 73.731 198.71 71.0621 198.851L71.0066 198.633Z" fill="#373434"/>
<path d="M51.6963 201.001C51.8805 203.881 53.6607 206.183 55.3269 208.519C57.0135 210.857 58.8844 213.038 60.7815 215.216C62.6553 217.408 64.6518 219.576 66.9728 221.398C69.3142 223.212 71.9538 224.65 74.7075 225.804L73.8071 226.513C72.6759 223.758 72.0561 220.876 71.4335 218.079C70.808 215.294 70.0625 212.588 68.8261 210.162C67.61 207.743 65.7772 205.595 63.465 203.944C61.1586 202.266 58.4196 201.068 55.438 200.477L55.4526 200.259C58.5599 200.121 61.7315 200.96 64.4822 202.512C67.2095 204.074 69.5978 206.346 71.0593 209.107C72.5326 211.868 73.1173 214.844 73.5996 217.704C74.0936 220.57 74.3625 223.397 75.0202 226.16L75.3681 227.596L74.1199 226.867C71.4803 225.34 68.9839 223.67 66.5109 221.969C64.0438 220.255 61.5445 218.524 59.3345 216.456C57.1626 214.361 55.3152 211.973 53.7864 209.427C52.3189 206.967 50.7609 203.969 51.4595 200.982L51.6963 201.001Z" fill="#373434"/>
<path d="M104.863 209.698C102.124 209.988 99.3993 209.215 97.1163 207.964C95.9763 207.29 95.0058 206.39 93.8921 205.742C92.7871 205.068 91.5886 204.585 90.3433 204.174C87.8499 203.389 85.5172 202.451 83.1436 201.725C80.8051 200.888 78.4812 200.217 75.8474 199.709L75.8328 199.489C78.4081 198.561 81.3342 198.774 83.927 199.489C86.5052 200.3 88.8788 201.537 90.9543 203.113C92.0096 203.864 93.0736 204.593 94.2633 205.112C95.4355 205.642 96.7538 205.907 97.964 206.316C100.355 207.216 102.521 208.281 104.912 209.48L104.863 209.698Z" fill="#373434"/>
<path d="M76.315 186.353C75.8736 187.733 75.2598 188.689 74.3828 189.522C73.9034 189.906 73.2399 190.212 72.854 190.704C72.4535 191.184 72.3103 191.794 72.2285 192.421C72.1203 193.699 71.7637 194.911 71.065 196.096C70.2992 197.192 68.9662 198.282 67.3906 198.26L67.2795 198.07C68.0162 196.86 68.3787 195.952 68.8961 194.925C69.4895 193.967 70.0858 192.879 71.0621 191.924C71.5211 191.424 71.9449 190.933 72.2051 190.345C72.4682 189.768 72.5179 189.036 72.8102 188.435C73.4766 187.286 74.643 186.422 76.163 186.182L76.315 186.353Z" fill="#373434"/>
<path d="M67.3088 216.765C65.6163 215.708 64.412 214.408 63.4941 212.895C63.0732 212.108 62.8306 211.197 62.3336 210.457C61.8513 209.703 61.1702 209.101 60.4365 208.533C58.9369 207.439 57.6682 206.181 56.4639 204.878C55.3268 203.514 54.4265 202.205 53.1987 200.75L53.3127 200.562C55.3589 200.794 57.0544 202.075 58.3435 203.337C59.5742 204.682 60.6616 206.125 61.4479 207.782C61.8659 208.596 62.319 209.375 62.9446 210.024C63.5555 210.692 64.4149 211.189 65.0697 211.824C66.3062 213.168 67.1715 214.764 67.4988 216.649L67.3088 216.765Z" fill="#373434"/>
<path d="M27.3958 178.639C30.81 175.547 34.0489 172.315 37.0013 168.891C39.8718 165.449 42.5261 161.755 43.2949 157.561C43.6749 155.469 43.7684 153.268 44.011 150.999C44.2566 148.738 44.7009 146.499 45.3265 144.318C46.4957 139.926 48.2496 135.757 49.7492 131.527L50.4186 131.955C44.204 136.784 38.1852 142.054 34.0372 148.489C31.9822 151.7 30.3189 155.118 29.4858 158.721C28.5796 162.293 28.7463 166.039 28.6849 169.893C28.603 173.75 28.4423 177.439 29.0941 181.097C29.3835 182.941 29.8015 184.799 30.1669 186.693C30.506 188.597 30.7983 190.505 31.0205 192.418C31.9559 200.079 31.7425 207.848 30.4388 215.396L30.202 215.374C30.6025 207.743 30.1845 200.148 28.9918 192.681C28.3955 188.934 27.4016 185.323 26.6737 181.466C25.8933 177.588 26.0979 173.598 26.2616 169.838C26.4253 166.081 26.3347 162.114 27.4133 158.249C28.492 154.414 30.354 150.853 32.7393 147.689C37.5011 141.309 43.8853 136.453 49.872 131.354L51.0325 130.368L50.5472 131.776C49.0739 136.014 47.8638 140.329 46.9751 144.663C46.5571 146.833 46.2239 149.008 46.0105 151.178C45.8059 153.343 45.8322 155.62 45.3031 157.928C44.242 162.577 41.3948 166.539 38.1559 169.83C34.9375 173.157 31.3917 176.177 27.5419 178.802L27.3958 178.639Z" fill="#373434"/>
<path d="M27.9367 183.087C27.0334 180.475 24.537 179.015 21.9997 178.118C19.4215 177.218 16.4808 176.492 13.8675 175.186C11.2337 173.908 8.85719 172.218 6.64435 170.41C4.43736 168.593 2.32099 166.721 0.306932 164.723L1.04065 164.394C1.80651 167.671 2.77701 170.909 4.21228 173.827C4.96061 175.269 5.81125 176.652 6.90451 177.822C7.99778 179.004 9.30443 180.003 10.6754 180.953C13.4612 182.825 16.5071 184.371 19.7314 185.735C22.9439 187.096 26.2003 188.404 29.5649 189.517L29.5181 189.732C25.9372 189.37 22.4324 188.517 19.021 187.416C15.6302 186.334 12.2013 184.934 9.21673 182.866C6.17372 180.865 3.64518 177.866 2.35899 174.576C1.01434 171.285 0.686943 167.856 0.204621 164.532L0 163.132L0.938336 164.201C2.76239 166.28 4.87584 168.151 7.27868 169.626C9.65813 171.13 12.2334 172.292 14.7795 173.419C16.0628 173.985 17.3431 174.526 18.6527 175.023C19.9711 175.498 21.3449 176.003 22.7013 176.613C25.3643 177.789 28.0331 180.122 28.1647 183.054L27.9367 183.087Z" fill="#373434"/>
<path d="M27.2556 175.056C27.9718 173.14 29.3808 171.602 30.6757 170.134C32.0584 168.657 33.1546 167.362 33.9994 165.722C34.9055 164.123 35.6714 162.318 36.1303 160.449C36.5805 158.572 36.7822 156.642 37.1476 154.701C37.475 152.746 38.0158 150.828 38.7992 148.997C39.5504 147.161 40.4099 145.361 41.4388 143.666C43.5435 140.279 46.0457 137.184 48.9046 134.354L49.1063 134.481C47.4664 138.084 45.4815 141.441 43.6195 144.801C41.658 148.119 39.8895 151.482 38.3753 155.013C37.6445 156.791 37.1622 158.663 36.8728 160.579C36.5864 162.492 36.487 164.48 35.7883 166.445C35.1102 168.419 33.479 170.095 31.9736 171.323C30.4711 172.646 28.8312 173.753 27.4602 175.169L27.2556 175.056Z" fill="#373434"/>
<path d="M29.986 192.429C32.9969 191.402 36.2065 190.939 38.2469 188.97C40.4392 187.115 41.9856 184.525 43.9558 182.198C45.8617 179.824 47.8202 177.472 49.3958 174.888C50.9948 172.317 52.2956 169.592 53.535 166.859L54.7247 167.82C52.585 169.485 50.3897 171.092 48.1798 172.662C45.9786 174.25 43.7687 175.823 41.4799 177.289C39.2232 178.797 36.8613 180.174 34.5491 181.613C33.4032 182.284 32.2865 182.988 31.3248 183.852C30.3485 184.691 29.4803 185.677 29.147 186.924L28.9103 186.902C28.8664 185.522 29.6206 184.208 30.48 183.134C31.3745 182.049 32.421 181.116 33.5143 180.249C35.6949 178.642 37.8259 176.961 40.0534 175.418C42.2574 173.839 44.5433 172.364 46.8439 170.904C49.1239 169.424 51.4274 167.969 53.7805 166.589L56.6832 164.88L54.9673 167.55C53.3216 170.12 51.5911 172.632 50.0067 175.222C48.3932 177.797 47.0222 180.506 45.4554 183.126C43.8915 185.707 42.1317 188.332 39.4337 190.328C38.1387 191.333 36.4053 192.001 34.8092 192.231C33.2044 192.498 31.6171 192.559 30.0298 192.65L29.986 192.429Z" fill="#373434"/>
<path d="M29.4158 188.951C31.7514 187.551 33.6865 186.077 35.7181 184.572C36.7237 183.871 37.9105 183.104 38.8751 182.228C39.8573 181.345 40.6612 180.315 41.43 179.247C42.9091 177.074 44.6367 175.111 46.4578 173.231C48.3579 171.42 50.3865 169.72 52.7689 168.317L52.9385 168.466C51.6698 170.827 50.0445 172.878 48.2877 174.821C46.4607 176.688 44.5373 178.493 42.3683 180.064C41.3043 180.873 40.2841 181.723 39.4364 182.717C38.5565 183.694 38.0011 184.887 37.0394 185.922C35.0984 187.844 32.3623 189.221 29.4713 189.166L29.4158 188.951Z" fill="#373434"/>
<path d="M48.7495 246.443C52.6169 249.684 57.367 251.76 62.3042 252.785C67.2561 253.767 72.4096 253.914 77.3731 253.052C79.8344 252.605 82.2431 252.017 84.3858 250.871C86.5402 249.734 88.525 248.257 90.3783 246.612C94.0732 243.271 97.4728 239.555 100.25 235.464L100.533 236.032C92.1293 234.931 83.4738 234.219 75.2305 235.861C71.1234 236.676 67.2327 238.053 63.6518 240.107C60.0329 242.087 56.5894 244.491 52.7776 246.518C50.8951 247.536 48.8197 248.436 46.7939 249.016L40.6933 250.943C36.7879 252.271 33.0024 254.002 29.5326 256.205C22.5843 260.595 16.7292 266.594 12.6455 273.667L12.4321 273.576C15.7236 266.108 21.2805 259.416 28.3663 254.626C31.8712 252.183 35.7561 250.209 39.866 248.776C43.8328 247.313 48.0363 246.454 51.6084 244.494C55.2886 242.647 58.7964 240.32 62.5965 238.338C66.3879 236.311 70.6557 234.956 74.9528 234.359C83.6141 233.197 92.176 234.426 100.639 235.287L101.261 235.348L100.925 235.867C98.151 240.024 95.0933 244.039 91.5212 247.68C89.7293 249.499 87.7416 251.236 85.3592 252.506C82.9944 253.787 80.3548 254.598 77.7181 254.966C72.4651 255.705 67.0397 255.584 61.9271 254.209C56.835 252.873 52.0147 250.339 48.577 246.601L48.7495 246.443Z" fill="#373434"/>
<path d="M34.5839 253.204C36.3437 252.818 38.1502 253.235 39.8222 253.781C41.5001 254.355 43.0757 255.181 44.5724 256.147C47.6066 258.074 49.8487 260.932 51.5646 263.883C53.2863 266.859 54.555 269.965 55.6979 273.12C56.835 276.279 57.7061 279.517 58.2879 282.794L58.6123 284.591L57.2092 283.462C54.4644 281.242 51.6581 279.092 48.7408 277.079C45.8498 275.014 42.6606 273.432 39.7901 271.119C36.8669 268.739 35.189 265.365 34.0168 262.174C33.441 260.614 32.5757 259.035 32.184 257.298C32.0145 256.443 31.8771 255.496 32.3039 254.645C32.7482 253.795 33.7011 253.389 34.5839 253.204ZM34.6365 253.417C33.7947 253.624 32.9236 254.024 32.5991 254.775C32.3156 255.529 32.4676 256.374 32.7833 257.141C33.4147 258.684 34.4641 260.04 35.379 261.586C37.168 264.57 38.7144 267.486 41.1318 269.813C42.2894 271.028 43.637 272.135 45.0109 273.25C46.376 274.368 47.7557 275.481 49.1881 276.516C52.0469 278.598 55.0198 280.544 58.0423 282.429L56.9607 283.086C55.9552 279.956 54.8327 276.875 53.602 273.838C52.3421 270.826 50.9303 267.833 49.3839 264.987C47.8171 262.149 45.9609 259.515 43.6136 257.243C42.4063 256.114 41.0529 255.106 39.565 254.331C38.0654 253.574 36.3261 253.099 34.6365 253.417Z" fill="#373434"/>
<path d="M46.1714 247.92C47.7411 246.131 48.8811 244.121 49.8867 242.076C50.904 240.027 51.6961 237.89 52.2983 235.74C52.8742 233.595 53.4442 231.323 53.8534 229.042C54.2919 226.756 54.4761 224.437 54.6982 222.11L55.3442 222.48C52.9151 224.252 50.7432 226.301 48.5508 228.291C46.3789 230.301 44.2362 232.344 42.6168 234.6C40.9243 236.855 40.0824 239.287 39.7346 242.183C39.2932 245.002 39.0564 248.05 37.738 250.775L37.5188 250.703C38.0157 247.84 37.6883 244.983 37.8111 242.034C37.8783 240.563 37.9456 239.036 38.4045 237.485C38.8722 235.966 39.6089 234.525 40.5647 233.269C42.4589 230.737 44.8472 228.769 47.2179 226.886C49.6178 225.001 52.2662 223.421 54.8678 221.837L55.6687 221.359L55.5196 222.212C55.1192 224.49 54.9525 226.809 54.9292 229.139C54.8648 231.477 54.8678 233.843 54.3211 236.209C53.7394 238.572 52.6959 240.778 51.4126 242.84C50.1089 244.87 48.4514 246.788 46.3321 248.086L46.1714 247.92Z" fill="#373434"/>
<path d="M55.7711 280.13C54.289 279.558 53.2162 278.349 52.3101 277.303C51.3805 276.218 50.5035 275.089 49.7961 273.86C49.115 272.621 48.586 271.279 47.8376 270.07C47.0951 268.869 46.151 267.792 45.16 266.737C43.0933 264.686 41.5207 262.298 39.6177 260.476C37.7761 258.541 35.5048 256.829 33.3884 254.764L33.5112 254.571C36.3876 255.454 39.1354 256.755 41.4125 258.831C42.5379 259.888 43.3886 261.136 44.1574 262.345C44.9437 263.557 45.5926 264.791 46.2357 266.069C46.8759 267.331 47.5745 268.562 48.4661 269.675C49.3547 270.787 50.448 271.762 51.4068 272.836C52.3422 273.915 53.0935 275.113 53.8096 276.336C54.5463 277.582 55.0345 278.807 55.9085 279.948L55.7711 280.13Z" fill="#373434"/>
<path d="M16.32 67.9863C19.4799 69.3004 22.3884 71.1722 25.9079 71.6802C28.8311 72.1026 31.7747 72.4863 34.6511 73.113C36.747 73.5713 38.7494 74.4022 40.7956 75.0648C41.3919 75.2608 41.9795 75.4789 42.5846 75.6418C48.5449 77.2569 54.5432 78.7532 60.4539 80.5228C62.883 81.2489 65.28 82.1792 67.5192 83.4437C70.8106 85.3016 74.4178 86.5578 77.9665 87.905C80.0625 88.7001 82.1671 89.4648 84.2806 90.213C85.444 90.6216 86.66 90.9059 87.8059 91.3477C91.3809 92.717 94.9706 94.0587 98.4755 95.5716C100.118 96.2811 101.571 97.3716 103.126 98.2688C104.36 98.9839 105.617 99.6602 106.85 100.378C107.154 100.555 107.394 100.823 107.666 101.052C107.59 101.157 107.517 101.261 107.444 101.366C106.488 100.82 105.57 100.201 104.567 99.7458C103.378 99.2075 102.126 98.7768 100.878 98.3627C98.4462 97.5538 95.9966 96.7836 93.5499 96.0078C92.2404 95.5909 90.9308 95.1575 89.6037 94.7958C86.8939 94.0504 84.6781 92.3747 82.1408 91.3145C79.32 90.1357 76.7739 88.4544 73.7835 87.5599C72.1875 87.0796 70.8253 85.9394 69.2818 85.2464C66.7153 84.0924 64.0815 83.0737 61.4916 81.9694C56.759 79.9541 51.8072 78.6869 46.6829 77.9608C45.0576 77.7317 43.4528 77.3866 41.8421 77.0774C38.3197 76.3955 34.7797 75.7716 31.2807 74.9875C29.1468 74.5072 27.1152 73.5768 24.9667 73.2013C21.757 72.6409 18.9128 71.2854 15.9633 70.1121C14.3439 69.4688 12.6105 69.0795 10.9413 68.544C10.4795 68.3976 10.0585 68.1354 9.61422 67.9366C7.8457 67.1498 6.08888 66.3409 4.29698 65.6038C4.04267 65.5016 3.62758 65.7529 3.25049 65.8467C3.31187 66.8875 4.14205 67.0532 4.7793 67.3706C6.12396 68.0387 7.48323 68.6792 8.83665 69.3308C9.17574 69.4964 9.48852 69.7256 9.84515 69.836C12.0667 70.5345 14.2971 71.2025 16.5217 71.8927C19.135 72.7016 21.7337 73.5657 24.3616 74.3305C26.3464 74.9075 28.3751 75.3602 30.3804 75.8792C32.0787 76.321 33.7508 76.8786 35.4725 77.2044C39.676 77.9967 43.9029 78.6842 48.121 79.4157C49.1442 79.5952 50.1497 79.7526 51.1611 80.0866C53.716 80.9286 56.3614 81.5388 58.9718 82.2372C59.1501 82.2814 59.4425 82.1986 59.5214 82.2924C60.6234 83.6286 62.3949 83.6673 63.8477 84.3161C66.5165 85.5087 69.2088 86.6572 71.8834 87.8415C73.6344 88.6173 75.3562 89.451 77.1101 90.213C79.282 91.1599 81.4919 92.0793 83.4182 93.4072C85.7305 94.9974 88.3935 95.6903 90.9922 96.6345C93.9592 97.7112 96.9642 98.6084 99.9984 99.4808C101.96 100.044 103.766 101.077 105.631 101.927C109.507 103.696 113.343 105.557 117.263 107.238C119.595 108.238 121.864 109.419 124.43 109.927C125.12 110.063 125.687 110.709 126.333 111.087C127.467 111.75 128.602 112.407 129.762 113.022C130.832 113.591 131.595 114.298 131.861 115.518C132.203 117.089 132.799 118.607 133.173 120.173C133.437 121.271 133.466 122.417 133.676 123.527C133.852 124.465 134.097 125.396 134.378 126.31C135.272 129.228 136.36 132.104 137.05 135.061C137.45 136.784 137.491 138.672 137.219 140.423C136.892 142.535 137.403 144.45 137.888 146.477C137.149 146.623 136.357 146.816 135.553 146.93C132.571 147.358 129.897 148.462 127.529 150.198C126.842 150.704 126.307 151.402 125.757 152.056C124.126 154.005 121.738 155.14 119.934 156.904C119.627 157.205 119.183 157.418 118.964 157.763C117.821 159.566 115.938 160.584 114.246 161.804C112.898 162.776 111.498 163.685 110.11 164.607C107.391 166.407 105.783 168.938 104.901 171.881C104.117 174.496 102.755 176.561 100.01 177.704C98.797 178.209 97.6628 178.921 96.9905 180.089C96.6309 180.718 96.8443 181.182 97.5839 181.199C98.4521 181.218 99.4401 181.345 100.177 181.019C101.881 180.268 103.609 180.453 105.345 180.544C108.484 180.71 111.548 180.285 114.483 179.302C116.903 178.49 119.224 177.416 121.571 176.423C123.454 175.627 124.512 173.974 125.854 172.621C126.319 172.152 126.772 171.671 127.263 171.23C127.625 170.901 128.105 170.677 128.423 170.321C132.013 166.313 135.997 162.602 138.917 158.08C139.271 157.534 139.832 157.106 140.341 156.578C140.473 156.78 140.657 156.935 140.639 157.064C140.385 159.085 140.239 161.131 139.789 163.113C139.312 165.211 138.59 167.265 137.88 169.305C137.427 170.606 136.965 171.953 136.193 173.088C135.623 173.924 134.65 174.692 133.673 175.067C131.835 175.779 130.8 177.207 129.692 178.551C128.695 179.76 127.605 180.934 127.102 182.48C126.918 183.048 126.246 183.501 125.74 183.951C124.547 185.011 123.796 186.281 123.486 187.805C123.355 188.446 123.004 189.045 122.866 189.682C122.562 191.096 122.571 192.487 122.746 193.953C123.223 197.876 123.454 201.83 123.694 205.775C123.784 207.268 124.41 208.373 125.658 209.248C126.786 210.037 127.935 210.846 127.859 212.309C128.66 212.547 129.107 212.304 129.139 211.735C129.195 210.772 129.742 210.087 130.256 209.317C131.422 207.564 131.922 205.54 132.177 203.53C132.501 201.004 133.708 199.044 135.544 197.269C136.594 196.253 137.546 195.088 138.271 193.848C138.792 192.957 138.929 191.836 139.119 190.801C139.397 189.266 139.59 187.72 139.78 186.174C140.057 183.888 139.295 181.751 138.476 179.683C137.83 178.051 137.836 176.395 137.678 174.733C137.655 174.474 137.877 174.189 138.005 173.927C138.116 173.709 138.382 173.502 138.368 173.303C138.175 170.564 140.198 168.436 140.63 165.874C140.744 165.192 140.969 164.521 141.227 163.524C141.601 164.146 141.911 164.466 141.996 164.83C142.262 165.99 142.469 167.166 142.656 168.342C143.176 171.638 143.673 174.94 144.188 178.242C144.241 178.587 144.273 178.957 144.422 179.269C145.579 181.674 145.977 184.277 146.714 186.792C147.316 188.857 148.143 190.861 148.853 192.899C149.049 193.459 149.283 194.006 148.774 194.594C148.535 194.875 148.462 195.372 148.5 195.759C148.812 199.063 147.488 201.832 145.395 204.35C144.425 205.518 143.337 206.603 142.411 207.796C141.361 209.148 140.537 210.653 140.201 212.301C139.903 213.759 139.73 215.263 139.733 216.746C139.736 219.211 138.441 221.182 137.222 223.178C136.722 223.996 135.924 224.644 135.31 225.404C134.965 225.829 134.579 226.295 134.451 226.798C133.881 229.04 133.849 231.323 134.667 233.495C135.056 234.525 135.357 235.491 135.281 236.582C135.117 238.967 134.977 241.358 134.883 243.746C134.869 244.171 135.015 244.781 135.322 244.98C135.573 245.14 136.196 244.861 136.617 244.696C138.523 243.95 139.493 242.258 140.823 240.93C141.776 239.978 142.761 239.055 143.706 238.098C145.305 236.474 146.035 234.456 146.608 232.355C147.324 229.73 148.307 227.242 150.385 225.23C151.744 223.913 153.071 222.53 154.173 221.02C155.647 218.999 156.097 216.594 156.38 214.198C156.719 211.34 156.36 208.226 155.524 205.247C155.369 204.698 155.357 204.116 155.574 203.461C156.614 205.615 157.608 207.79 158.713 209.91C159.871 212.136 160.584 214.521 161.66 216.774C162.063 217.618 162.724 218.322 163.156 219.087C163.58 219.841 164.01 220.661 164.349 221.464C164.995 223.002 166.039 224.241 166.983 225.58C168.386 227.571 170.227 229.12 172.241 230.445C173.513 231.284 175.045 232.032 176.547 232.231C180.102 232.697 183.686 233.415 187.305 232.526C188.462 232.239 188.88 232.548 189.342 233.578C190.02 235.08 190.508 236.723 191.491 238.026C192.783 239.743 194.004 241.601 196.67 241.987C198.632 242.275 200.354 243.343 202.023 244.502C203.853 245.778 206.01 246.645 208.068 247.611C209.45 248.257 210.877 248.831 212.333 249.298C212.938 249.494 213.671 249.325 214.584 249.325C214.42 248.668 214.394 248.194 214.189 247.802C213.265 246.032 212.368 244.24 211.301 242.545C210.801 241.755 210.041 241.007 209.217 240.521C207.726 239.641 206.136 238.884 204.516 238.23C201.836 237.153 199.602 235.549 197.688 233.506C196.314 232.038 194.44 231.389 192.517 231.044C190.415 230.668 189.316 229.578 188.833 227.692C188.182 225.147 187.717 222.516 186.676 220.114C185.46 217.309 183.82 214.725 180.833 213.016C177.649 211.197 174.887 208.787 172.531 206.026C171.198 204.466 169.792 203.136 167.573 202.658C164.565 202.006 161.613 201.123 158.637 200.328C156.48 199.751 154.513 199.008 153.159 197.073C151.961 195.361 150.841 193.636 150.455 191.637C150.324 190.966 151.028 190.152 151.35 189.404C151.037 189.384 150.727 189.365 150.414 189.346C151.446 190.353 152.417 191.43 153.53 192.349C154.741 193.346 155.986 194.21 157.699 194.585C159.874 195.066 161.937 195.9 163.788 197.316C166.436 199.342 168.778 201.692 171.479 203.643C172.999 204.742 174.469 205.932 176.48 206.274C178 206.534 179.526 206.896 180.973 207.406C182.782 208.05 184.636 208.03 186.387 207.633C188.205 207.224 189.991 206.49 191.628 205.62C192.973 204.905 193.975 203.624 195.305 202.882C197.243 201.802 199.313 200.919 201.38 200.068C202.812 199.478 204.344 199.099 205.817 198.597C206.773 198.268 207.711 197.951 208.074 196.849C208.226 196.383 208.769 196.035 209.149 195.621C208.611 195.005 208.071 195.041 207.27 195.129C204.946 195.389 202.581 195.309 200.248 195.508C197.571 195.737 194.969 195.439 192.397 194.801C190.728 194.384 189.313 193.589 187.98 192.496C186.118 190.974 184.016 189.718 182.052 188.299C181.105 187.617 180.181 186.883 179.356 186.071C178.035 184.763 176.509 183.896 174.598 183.628C173.136 183.424 171.935 183.686 170.894 184.807C170.122 185.638 169.011 186.052 167.784 185.732C164.624 184.901 161.37 185.21 158.161 185.069C157.222 185.028 156.234 185.58 155.299 185.933C154.603 186.196 153.969 186.601 153.282 186.886C152.493 187.212 151.733 187.697 150.812 186.974C150.572 186.786 149.865 187.126 149.485 187.201C148.54 183.832 147.713 180.843 146.854 177.861C146.591 176.942 146.149 176.064 145.936 175.136C145.325 172.453 144.813 169.747 144.211 167.061C143.91 165.722 143.434 164.416 143.147 163.074C142.963 162.213 142.671 161.208 142.963 160.452C143.805 158.285 144.36 156.126 143.919 153.798C146.769 151.396 150.134 149.489 151.639 145.792C152.975 147.968 155.211 149.047 157.36 150.171C158.602 150.819 160.034 151.134 161.373 151.62C163.042 152.227 164.194 153.448 165.29 154.693C166.05 155.562 166.685 156.534 167.339 157.481C168.269 158.826 169.029 160.294 170.113 161.509C170.979 162.481 172.192 163.193 173.308 163.947C174.627 164.839 176.001 165.656 177.366 166.484C177.731 166.708 178.132 166.917 178.547 167.033C180.28 167.511 181.607 168.532 182.978 169.604C183.671 170.142 184.484 171.257 185.776 170.495C188.214 171.956 190.944 170.788 193.499 171.252C195.346 171.591 197.194 171.774 198.863 172.765C199.734 173.281 200.839 173.444 201.996 173.819C202.97 173.485 202.654 172.607 202.4 171.942C202.134 171.23 201.701 170.487 201.119 169.99C199.86 168.919 199.053 167.613 198.278 166.222C196.983 163.894 195.375 161.716 194.186 159.347C193.285 157.553 192.42 155.781 191.119 154.212C190.321 153.252 189.421 152.468 188.217 151.946C186.632 151.258 185.188 150.193 183.545 149.726C180.979 148.997 178.848 147.54 176.501 146.458C174.548 145.555 172.508 145.392 170.587 145.914C168.532 146.471 166.565 146.372 164.589 146.041C162.385 145.668 160.265 145.447 158.02 145.933C157.003 146.154 155.831 145.908 154.711 146.123C154.29 146.206 153.659 145.77 153.258 145.431C152.098 144.442 151.008 143.377 149.882 142.35C148.014 140.654 146.114 138.992 144.29 137.259C143.817 136.809 143.396 136.179 143.264 135.572C142.519 132.14 141.089 128.941 139.821 125.677C139.11 123.842 138.839 121.837 138.52 119.885C138.263 118.323 137.853 116.873 136.713 115.667C136.605 115.554 136.62 115.338 136.535 115.004C137.517 115.289 138.412 115.477 139.251 115.802C141.99 116.86 144.667 118.016 147.576 118.69C149.046 119.032 150.315 120.115 151.718 120.777C153.577 121.655 155.492 122.431 157.363 123.292C158.5 123.817 159.613 124.394 160.707 124.998C163.18 126.368 165.819 127.265 168.655 127.698C169.292 127.795 169.856 128.292 170.496 128.413C174.057 129.092 177.638 129.675 181.195 130.376C182.613 130.658 184.031 130.641 185.454 130.73C186.375 130.788 187.275 131.127 188.196 131.229C190.707 131.503 193.294 131.472 195.717 132.049C197.173 132.397 199.117 132.182 200.02 133.86C202.411 134.965 204.25 136.709 206.179 138.391C207.001 139.106 207.129 140.017 207.691 140.776C209.114 142.692 210.471 144.658 211.76 146.659C213.166 148.837 214.408 151.109 215.846 153.266C216.472 154.21 217.48 154.922 218.191 155.827C218.93 156.769 219.603 157.774 220.149 158.826C220.614 159.723 220.772 160.758 221.213 161.669C221.766 162.798 221.775 163.87 221.608 165.109C221.128 168.72 220.88 172.359 220.579 175.992C220.529 176.577 220.576 177.212 220.763 177.764C221.485 179.865 221.248 182.021 221.301 184.164C221.324 185.122 221.307 186.088 221.444 187.032C221.725 188.959 223.309 189.914 224.826 190.928C225.697 191.507 226.568 192.128 227.276 192.871C228.805 194.467 230.322 196.09 231.669 197.821C233.078 199.635 234.233 201.62 235.595 203.467C236.232 204.331 237.101 205.035 237.855 205.824C238.118 206.101 238.361 206.399 238.594 206.7C239.357 207.68 240.053 208.712 240.895 209.623C241.202 209.957 241.854 210.004 242.479 210.231C243.204 207.564 244.496 205.405 245.885 203.257C246.855 201.755 247.402 200.005 248.071 198.34C248.217 197.978 248.077 197.515 248.068 197.098C248.036 195.485 248.071 193.868 247.943 192.261C247.861 191.193 247.738 190.061 247.288 189.1C246.499 187.413 245.587 185.74 244.458 184.241C242.894 182.168 241.573 180.012 240.834 177.566C239.837 174.258 238.004 171.299 236.268 168.336C235.35 166.771 233.669 165.609 232.353 164.248C230.246 162.064 227.241 161.17 224.78 159.508C223.151 158.409 221.675 157.1 220.184 155.83C216.428 152.628 214.376 148.304 211.801 144.326C210.894 142.924 209.974 141.527 209.301 139.912C209.719 140.296 210.187 140.641 210.552 141.066C212.555 143.379 215.194 144.884 217.863 146.394C219.813 147.496 221.623 148.821 223.455 150.096C224.525 150.839 225.618 151.59 226.516 152.498C227.402 153.398 228.08 154.486 228.808 155.516C230.132 157.39 231.4 159.306 232.742 161.17C233.739 162.555 234.598 163.994 235.443 165.468C236.528 167.365 237.507 169.521 240.033 170.28C242 170.874 243.923 171.622 245.923 172.102C247.343 172.444 248.475 173.212 249.471 174.051C250.626 175.026 251.962 175.346 253.301 175.338C255.958 175.316 258.609 175.026 261.264 174.832C261.503 174.813 261.737 174.694 261.974 174.623C262.363 173.654 261.948 172.974 261.258 172.364C258.53 169.951 256.812 166.857 254.85 163.925C253.903 162.511 253.035 161.009 251.842 159.8C251.082 159.03 249.843 158.483 248.726 158.276C247.46 158.044 246.858 157.481 246.168 156.515C244.695 154.444 243.19 152.36 240.945 150.883C239.387 149.856 237.986 148.622 236.44 147.576C234.847 146.496 233.137 145.95 231.073 146.46C229.182 146.93 227.209 147.109 225.265 147.36C224.052 147.515 222.917 147.374 221.798 146.731C220.459 145.961 218.793 145.627 217.6 144.716C215.887 143.404 213.829 142.535 212.4 140.834C210.997 139.164 209.339 137.687 207.813 136.11C207.477 135.765 207.217 135.351 206.761 134.763C209.179 135.848 211.456 136.442 213.818 136.9C214.917 137.115 216.028 137.725 217.206 137.827C219.559 138.029 221.929 138.081 224.283 138.277C225.861 138.41 227.419 138.741 228.995 138.888C233.052 139.266 236.852 140.643 240.781 141.516C243.687 142.159 246.203 143.586 248.27 145.577C249.261 146.527 249.851 147.843 250.655 148.975C251.708 150.455 252.798 151.91 253.868 153.379C254.333 154.022 254.806 154.657 255.23 155.322C255.911 156.385 256.531 157.445 257.724 158.155C260.15 159.599 261.012 161.967 261.597 164.46C261.813 165.388 262.021 166.321 262.339 167.216C262.962 168.971 263.506 170.774 264.374 172.42C265.116 173.822 266.195 175.089 267.265 176.309C268.145 177.314 269.232 178.159 270.232 179.07C270.501 179.316 270.743 179.622 271.065 179.78C272.635 180.544 274.169 181.431 275.827 181.961C277.598 182.527 279.101 183.382 280.624 184.379C282.74 185.768 285.076 186.853 287.321 188.067C287.429 188.125 287.554 188.241 287.651 188.225C290.165 187.808 292.299 189.464 294.74 189.39C295.573 189.365 296.35 190.295 297.274 189.442C296.967 188.357 295.999 187.753 295.128 187.104C292.571 185.199 290.647 182.957 290.051 179.802C289.446 176.602 288.078 173.607 286.52 170.749C285.175 168.278 282.904 166.42 280.673 164.634C279.031 163.32 277.218 162.202 275.514 160.957C274.473 160.195 273.535 159.306 272.486 158.558C270.167 156.91 267.689 155.687 264.649 155.714C262.234 155.736 259.843 155.491 257.569 154.58C256.665 154.221 255.967 153.82 255.4 152.976C254.546 151.706 253.83 150.397 253.105 149.069C252.313 147.628 251.141 146.35 249.995 145.119C248.521 143.537 246.908 142.071 245.046 140.257C246.376 140.436 247.376 140.481 248.326 140.715C251.524 141.505 254.719 141.886 258.066 141.715C262.532 141.485 267.043 141.447 271.474 142.209C273.33 142.526 275.102 143.299 276.917 143.849C278.838 144.434 280.755 145.011 282.682 145.571C285.523 146.4 288.382 147.167 291.363 147.399C294.614 147.653 297.777 147.239 300.905 146.369C303.623 145.613 306.409 145.08 309.133 144.346C310.712 143.92 312.296 143.415 313.752 142.711C314.725 142.242 315.5 141.383 316.33 140.666C317.169 139.934 317.947 139.139 318.788 138.41C319.385 137.894 319.826 137.355 319.654 136.535C319.619 136.362 319.581 136.146 319.657 136.003C320.373 134.686 319.893 133.554 318.911 132.643C317.777 131.594 317.71 130.349 317.856 128.999C316.821 128.234 315.646 128.027 314.439 128.088C311.711 128.226 308.993 128.435 306.271 128.618C305.383 128.676 304.494 128.819 303.608 128.786C301.1 128.687 298.7 128.982 296.315 129.832C295.123 130.258 293.699 130.255 292.386 130.213C288.73 130.097 285.537 131.232 282.676 133.272C279.472 135.555 275.903 137.206 272.392 139.001C270.135 140.155 267.99 140.246 265.639 140.122C264.453 140.061 263.254 140.204 262.062 140.174C259.214 140.105 256.364 139.984 253.514 139.881C253.324 139.876 253.134 139.865 252.947 139.843C250.942 139.611 248.916 139.478 246.937 139.117C245.142 138.785 243.35 138.424 241.573 137.949C239.515 137.397 237.326 137.212 235.18 137.063C232.973 136.911 230.746 137.065 228.533 136.963C223.368 136.723 218.147 136.892 213.148 135.274C213.101 135.257 213.072 135.185 212.914 134.987C213.677 134.686 214.376 134.285 215.127 134.131C217.72 133.601 219.942 132.405 222.125 131.044C223.859 129.962 225.8 129.244 227.872 128.869C228.732 128.714 229.638 128.546 230.389 128.154C233.14 126.721 236.019 126.682 239.036 127.052C241.278 127.328 243.567 127.265 245.826 127.444C250.293 127.798 254.748 128.259 259.211 128.59C261.395 128.753 263.593 128.769 265.783 128.769C266.651 128.769 267.542 128.631 268.379 128.408C270.422 127.861 272.5 127.359 274.456 126.597C276.131 125.945 277.832 125.156 279.203 124.071C281.109 122.558 283.196 121.365 285.289 120.15C285.701 119.91 286.227 119.85 286.695 119.692C289.095 118.892 291.691 118.66 293.95 117.417C294.365 117.188 295.047 117.232 295.555 117.346C296.716 117.605 297.867 118.309 298.99 118.248C301.428 118.119 304.105 119.234 306.35 116.965C306.096 116.702 305.786 116.158 305.307 115.907C302.094 114.231 298.73 112.937 295.079 112.376C294.406 112.271 293.737 112.023 293.129 111.727C290.817 110.609 288.545 109.45 286.584 107.782C285.114 106.532 283.091 106.361 281.264 106.223C279.291 106.071 277.209 106.267 275.283 106.722C273.149 107.227 270.963 107.222 268.846 107.711C266.896 108.161 264.789 108.268 263.012 109.052C260.094 110.336 257.326 111.954 255.154 114.309C254.073 115.482 252.956 116.573 251.252 117.053C248.849 117.729 247.136 119.482 245.63 121.208C244.014 123.06 241.789 123.637 239.729 124.642C237.986 125.492 236.145 125.194 234.359 125.473C231.436 125.931 228.501 126.323 225.884 127.823C224.812 128.435 223.613 128.747 222.292 128.855C220.31 129.015 218.325 129.28 216.446 130.111C214.291 131.064 211.888 131.091 209.547 131.262C208.927 131.307 208.29 131.486 207.697 131.395C206.355 131.191 205.039 130.854 203.712 130.572C203.709 130.44 203.709 130.313 203.706 130.18C204.49 129.97 205.267 129.744 206.054 129.554C207.995 129.084 209.991 128.756 211.874 128.126C213.265 127.66 214.645 126.964 215.797 126.097C218.825 123.814 221.985 121.694 224.683 119.005C226.045 117.649 227.644 116.269 229.799 115.869C230.278 115.777 230.854 115.592 231.146 115.261C232.272 113.983 233.853 113.569 235.399 113.055C235.814 112.915 236.329 112.868 236.627 112.605C239.159 110.383 242.093 108.55 244.107 105.817C244.321 105.527 244.578 105.187 244.601 104.856C244.774 102.407 246.68 100.646 247.443 98.4151C247.826 97.2832 248.823 96.3059 249.659 95.348C251.138 93.6446 251.252 91.7259 251.003 89.6581C250.749 87.5406 250.793 85.3872 250.454 83.2835C250.252 82.0108 249.767 80.6967 249.059 79.5952C247.884 77.7648 246.449 76.0808 245.084 74.3608C244.856 74.071 244.435 73.9164 244.105 73.701C243.862 74.071 243.426 74.4354 243.406 74.8191C243.295 76.9642 242.435 78.7449 240.766 80.197C239.881 80.9728 239.039 81.79 238.159 82.574C235.487 84.9427 235.054 87.9602 235.367 91.182C235.508 92.6121 235.771 94.0311 235.934 95.4612C236.107 96.9492 235.411 98.2633 234.862 99.5829C234.397 100.698 233.774 101.753 233.257 102.846C232.418 104.61 232.216 106.496 232.085 108.395C232.02 109.292 231.889 110.187 231.827 111.084C231.731 112.473 230.994 113.215 229.661 113.931C226.913 115.405 224.306 117.155 222.19 119.43C221.362 120.319 220.608 121.205 219.307 121.536C218.781 121.672 218.313 122.069 217.855 122.392C216.226 123.53 214.508 124.419 212.45 124.689C211.59 124.802 210.789 125.272 209.933 125.454C207.308 126.014 204.668 126.517 202.031 127.033C201.786 127.08 201.473 126.989 201.286 127.102C198.912 128.535 196.627 127.673 194.227 127.074C191.622 126.423 188.909 126.172 186.255 125.686C185.083 125.473 183.934 125.131 182.785 124.811C181.905 124.568 181.043 124.269 180.222 124.01C181.891 123.115 183.469 122.21 185.106 121.401C187.056 120.432 189.05 119.549 191.029 118.627C191.42 118.444 191.806 118.243 192.213 118.085C193.484 117.591 194.688 117.028 196.182 117.097C198.521 117.205 200.874 117.056 203.221 117.014C203.476 117.009 203.762 117.072 203.978 116.981C207.124 115.653 210.748 115.319 213.382 112.923C214.414 111.984 215.095 110.728 216.416 110.054C217.808 109.348 219.158 108.572 220.55 107.868C222.295 106.987 224.356 106.797 225.975 105.626C227.141 104.781 228.252 103.84 229.299 102.907C229.916 102.355 229.828 101.002 229.878 100.003C229.921 99.0888 230.158 98.3158 230.678 97.54C231.567 96.2231 231.57 94.6771 231.447 93.2139C231.263 91.044 231.912 89.0811 232.716 86.9526C232.371 86.7345 231.988 86.4943 231.599 86.2486C229.86 88.0403 228.062 89.5394 225.727 90.3179C224.657 90.674 223.59 91.124 222.482 91.2676C220.681 91.4995 219.091 92.2339 217.556 92.9986C216.177 93.686 214.712 94.5556 213.826 95.7151C212.081 98.0066 209.6 98.5891 206.975 99.0805C206.419 99.1854 205.834 99.1633 205.279 99.2793C201.391 100.096 198.655 102.175 197.559 105.872C197.065 107.528 196.814 109.251 196.46 110.943C195.922 113.536 194.773 115.648 191.914 116.633C190.555 117.1 189.316 117.873 187.989 118.431C186.089 119.228 184.156 119.899 182.101 120.33C179.517 120.874 177.015 121.743 174.451 122.384C173.621 122.588 172.686 122.685 171.85 122.544C168.669 122.008 165.483 121.454 162.347 120.722C158.83 119.899 155.518 118.613 152.566 116.506C150.213 114.828 147.769 113.191 145.153 111.934C143.045 110.924 140.613 110.518 138.333 109.823C137.432 109.549 136.561 109.188 135.664 108.906C133.624 108.263 131.566 107.735 129.443 107.327C126.474 106.753 123.621 105.643 120.677 104.914C118.575 104.392 116.713 103.384 114.848 102.457C112.907 101.488 111.253 100.011 109.452 98.7851C106.464 96.7504 103.372 94.8593 99.8932 93.6584C97.6453 92.8799 95.2921 92.3719 93.0559 91.574C91.4686 91.0053 89.9837 90.1716 88.4812 89.4096C86.6922 88.5041 84.9324 87.5461 83.1669 86.6047C82.7927 86.4059 82.4302 86.1823 81.8397 85.84C83.6083 85.3348 85.1663 84.9676 86.6571 84.4293C87.4464 84.1449 88.1187 83.5624 88.8378 83.1041C89.0366 82.9799 89.1827 82.7728 89.3932 82.6734C92.939 80.9894 96.4029 79.0983 100.083 77.7262C102.188 76.9394 104.459 76.4535 106.348 75.2526C108.961 73.5878 111.568 71.8624 113.904 69.8746C115.959 68.1298 117.909 67.4038 120.592 68.4142C123.401 69.4716 126.345 70.2059 129.175 71.2108C130.382 71.6415 131.504 72.3372 132.577 73.0357C134.039 73.9826 135.345 75.1532 136.845 76.0311C138.707 77.1161 139.68 78.9078 141.092 80.3461C141.595 80.8596 142.11 81.5222 142.756 81.7237C144.36 82.2289 145.892 82.8805 147.637 83.1179C149.216 83.3305 150.566 84.4403 151.73 85.6385C153.676 87.64 154.562 90.1523 155.734 92.532C155.921 92.9102 156.038 93.3216 156.258 93.6777C157.07 94.9974 157.956 96.1955 159.833 96.2701C160.774 96.3087 161.706 96.7035 162.642 96.7118C166.278 96.7366 168.97 98.2412 171.125 100.969C172.049 102.142 173.355 103.1 174.641 103.95C176.091 104.906 178.509 103.738 178.86 101.891C179.181 100.207 179.614 98.4925 178.851 96.7615C178.494 95.9498 178.433 95.0222 178.231 94.1498C177.424 90.6188 176.185 87.2231 174.37 84.051C173.072 81.7762 171.119 79.9431 169.251 78.0768C168.997 77.8228 168.64 77.613 168.289 77.5026C165.375 76.5805 162.803 75.0814 160.239 73.5216C156.994 71.5449 153.384 70.5345 149.523 70.297C146.629 70.1176 144.015 71.0756 141.423 72.0501C139.87 72.6354 138.377 73.2427 136.646 73.0799C136.234 73.0412 135.795 73.2648 135.234 73.4001C132.413 70.6918 128.569 69.5986 124.839 68.301C124.252 68.0967 123.65 67.9228 122.744 67.6357C123.34 67.3568 123.67 67.1443 124.036 67.0421C127.09 66.1973 129.999 65.0654 132.691 63.4228C134.217 62.4897 135.874 61.7525 137.482 60.9436C137.637 60.8663 137.856 60.8774 138.043 60.8912C139.765 61.0154 141.528 60.7173 143.194 61.4295C145.041 62.2191 146.892 63.0225 148.795 63.6823C150.812 64.3808 152.881 64.955 154.945 65.5209C158.441 66.4762 161.932 67.4452 165.46 68.2844C166.658 68.5688 167.953 68.5274 169.207 68.5605C172.44 68.6571 175.466 67.8731 178.447 66.7191C180.613 65.8771 182.926 65.3746 185.153 64.6679C188.79 63.5139 191.938 61.6311 194.46 58.8814C195.039 58.2464 195.589 57.5783 195.393 56.6231C195.206 55.701 193.756 54.3676 192.496 54.3234C190.847 54.2654 189.804 53.5559 189.058 52.2418C188.617 51.466 187.907 51.1071 186.939 50.9028C184.434 50.3783 181.984 50.635 179.587 51.2479C177.983 51.6593 176.404 51.7255 174.767 51.8139C172.06 51.9602 169.429 51.3584 166.752 51.3584C166.6 51.3584 166.448 51.1927 166.082 50.9829C167.664 49.8427 169.008 48.6114 170.8 47.9792C172.165 47.4933 173.577 47.1151 174.931 46.6071C176.512 46.0163 178.05 45.3206 179.617 44.6967C180.368 44.3985 181.125 44.0893 181.911 43.9154C183.519 43.5593 185.042 43.0734 186.577 42.4633C188.392 41.7427 190.444 41.5633 192.397 41.1519C192.885 41.047 193.429 41.0498 193.852 40.8344C195.098 40.2022 196.29 40.8924 197.506 40.8731C197.708 40.8675 197.957 41.0912 198.109 41.2679C200.356 43.8271 203.189 45.7292 206.121 47.4823C208.69 49.0228 211.491 49.92 214.607 50.1215C216.869 50.2651 219.123 50.5688 221.362 50.1933C222.377 50.0222 223.338 49.4838 224.277 49.0255C225.613 48.3712 226.802 47.2973 228.46 47.5679C229.433 47.7252 230.372 48.0676 231.324 48.3298C232.415 48.6335 233.543 49.2768 234.59 49.1719C236.618 48.9731 238.767 49.1332 240.626 47.9985C241.924 47.209 243.359 46.77 244.941 46.7314C245.476 46.7176 245.993 46.3559 246.531 46.2068C248.177 45.7458 249.849 45.8203 251.541 45.9307C252.354 45.986 253.19 45.7403 254.134 45.616C253.728 44.1804 252.816 43.3853 251.86 42.7697C249.723 41.3976 247.466 40.1912 245.274 38.8909C242.924 37.4912 240.611 36.0363 238.244 34.6614C237.624 34.2998 236.881 34.1065 236.171 33.905C235.528 33.7228 234.856 33.6096 234.189 33.5129C233.52 33.4136 232.818 33.2341 232.172 33.3363C230.83 33.5433 228.378 33.0712 227.416 32.1685C224.549 29.485 221.225 29.5458 217.723 30.6942C217.258 30.8461 216.902 31.2712 216.44 31.4341C215.218 31.8675 213.993 32.4031 212.721 32.5853C209.108 33.1016 205.75 34.1065 202.534 35.8292C199.363 37.5298 196.074 39.0786 192.327 39.5507C189.4 39.9206 186.509 40.5887 183.624 41.2182C182.917 41.3728 182.294 41.8807 181.645 42.2479C180.058 43.1424 178.377 43.8436 176.536 44.012C175.439 44.1114 174.422 44.1998 173.572 44.9452C173.379 45.1136 173.025 45.1191 172.434 45.2875C174.703 42.7807 177.097 40.9366 179.579 39.1172C181.455 37.7424 183.475 36.8369 185.638 36.1356C186.629 35.8126 187.743 35.7878 188.81 35.7077C190.865 35.5559 192.622 34.5289 194.548 34.0016C196.369 33.5047 198.065 32.5991 199.892 32.1298C203.095 31.3043 205.402 29.3497 207.702 27.2571C208.728 26.324 210.108 25.7277 211.353 25.0209C212.958 24.1099 214.657 23.3396 216.194 22.3402C218.761 20.6727 221.316 18.9528 223.113 16.3108C222.608 15.8194 222.14 15.3611 221.666 14.9C219.907 15.2727 218.197 15.7034 216.46 15.9878C214.741 16.2694 213.04 16.6007 211.353 17.0203C211.02 17.1059 210.614 16.9927 210.254 16.9154C208.93 16.631 207.623 16.2611 206.291 16.043C204.288 15.7117 202.368 16.2141 200.511 16.8408C198.62 17.4813 196.726 18.1577 194.934 19.008C192.23 20.2973 189.968 22.0807 188.804 24.8497C187.927 26.9313 186.884 28.9439 186.033 31.0393C185.457 32.4501 184.32 33.6593 183.396 34.9347C183.195 35.2136 182.853 35.4317 182.525 35.5918C179.415 37.1157 176.708 39.1669 174.139 41.3783C173.019 42.3418 171.984 43.4102 171.023 44.5172C169.798 45.9252 168.476 47.1896 166.685 47.9323C166.117 48.1669 165.545 48.4099 164.948 48.5479C162.841 49.0449 160.876 49.7599 159.049 50.9415C157.5 51.9436 155.737 52.6531 154.068 53.4924C153.972 53.3985 153.878 53.3047 153.785 53.2108C154.08 52.8381 154.293 52.2998 154.688 52.1258C155.904 51.5847 156.453 50.5219 156.898 49.5197C158.283 46.389 160.435 43.7774 162.531 41.0636C165.033 37.828 168.368 35.6884 171.747 33.4964C173.504 32.359 175.439 31.4065 176.48 29.4409C176.848 28.7451 177.679 28.2372 178.366 27.7181C180.242 26.3129 182.139 24.9326 184.06 23.577C184.399 23.3369 184.928 23.3479 185.273 23.116C186.094 22.5638 186.872 21.9537 187.638 21.3326C187.971 21.0648 188.164 20.5816 188.529 20.416C190.228 19.654 191.146 18.1908 192.265 16.8961C192.861 16.2059 193.268 15.4605 193.677 14.6405C195.387 11.2255 196.887 7.65586 199.725 4.86199C200.786 3.81567 202.008 2.91567 203.06 1.86659C203.411 1.51597 203.47 0.900329 203.642 0.45585C202.014 -0.358568 200.757 0.0665857 199.406 0.582844C197.068 1.47732 194.764 2.41874 192.476 3.42917C189.827 4.60248 188.649 6.71168 187.17 8.7077C185.241 11.3056 183.04 13.5031 180.076 15.2065C176.883 17.0424 173.735 19.1681 171.908 22.4865C169.444 24.1458 169.187 26.832 168.403 29.2614C168.038 30.3905 167.863 31.5777 167.553 32.7261C167.176 34.1231 166.088 35.0755 165.103 36.0942C163.051 38.22 161.011 40.3513 159.017 42.5268C158.573 43.0099 158.26 43.6449 158.044 44.2605C157.409 46.0853 155.632 47.3415 155.275 49.2961C155.255 49.412 155.202 49.539 155.123 49.6246C153.159 51.6896 151.563 54.0722 148.52 55.0605C145.918 55.9108 143.489 57.2222 140.914 58.1498C139.031 58.8289 137.064 59.428 135.082 59.6903C131.949 60.1071 128.815 60.4633 125.825 61.4737C122.676 62.5421 119.554 63.6906 116.438 64.8501C114.377 65.6148 112.314 66.3961 110.314 67.2989C109.186 67.8096 108.215 68.6213 107.131 69.2341C105.512 70.1479 103.892 71.0783 102.205 71.8679C100.016 72.8921 97.7622 73.7921 95.5289 74.7308C92.5648 75.9786 89.8317 77.5881 87.157 79.3108C84.2017 81.213 80.9569 82.5906 77.5193 83.4796C76.6365 83.7087 75.4848 83.5072 74.5991 83.1676C70.0915 81.4394 65.6893 79.4599 61.1437 77.8421C56.9987 76.3651 52.7163 75.2388 48.4952 73.9522C47.1067 73.5271 45.7416 73.0219 44.3356 72.6464C41.8392 71.9866 39.3311 71.3461 36.8055 70.7884C31.7309 69.6703 26.8638 67.9725 22.0786 66.0786C20.7076 65.5348 19.5179 64.5989 18.22 63.8838C14.9168 62.0645 11.409 60.72 7.67031 59.9222C6.94829 59.7676 6.29935 59.7096 5.7381 60.4136C6.23212 61.1949 7.15583 61.3881 7.93924 61.5372C11.295 62.1777 14.3264 63.6022 17.1969 65.209C20.4972 67.0504 23.9436 68.5246 27.4806 69.8553C28.872 70.3771 30.2839 70.8492 31.6578 71.4234C28.2465 71.6111 25.0456 70.8078 21.9149 69.6979C20.7339 69.2783 19.6085 68.7289 18.4392 68.2789C17.7611 68.0194 17.0975 67.4728 16.3024 68.0222L16.32 67.9863ZM107.558 99.5029C108.78 99.4256 109.11 100.527 109.7 101.256C108.987 100.654 108.274 100.055 107.564 99.4532C106.672 99.5388 106.172 99.0004 105.839 98.244C106.412 98.6636 106.985 99.0832 107.558 99.5029ZM200.932 131.409C200.082 131.906 199.176 131.762 198.094 130.928C199.193 130.437 199.994 131.276 200.921 131.425C201.47 131.699 202.023 131.972 202.774 132.345C201.649 132.574 201.157 132.209 200.932 131.409ZM138.719 131.373C138.432 130.997 137.815 130.757 138.19 129.791C138.496 130.484 139.058 130.76 138.666 131.373C140.06 132.659 140.169 133.029 139.447 134.666C139.178 133.446 138.95 132.408 138.719 131.373ZM132.294 109.571C133.995 109.105 135.1 110.192 136.33 110.946C136.672 110.943 137.047 110.85 137.348 110.952C138.35 111.286 139.297 111.896 140.321 112.037C142.846 112.382 144.957 113.563 147.096 114.712C147.789 115.087 148.421 115.565 149.081 115.998C149.017 116.117 148.953 116.238 148.888 116.357C147.713 115.938 146.538 115.518 145.36 115.098C146.278 115.899 147.368 116.371 148.383 116.956C149.496 117.6 150.54 118.35 151.613 119.052C152.899 118.999 153.691 119.93 154.7 120.424C153.606 120.081 152.346 120.054 151.622 119.002C151.279 118.969 150.902 119.019 150.607 118.897C147.833 117.771 145.056 116.65 142.314 115.457C139.698 114.32 136.678 113.991 134.524 111.918C133.852 112.291 133.732 112.754 134.021 113.318C134.714 114.657 135.453 115.979 136.123 117.329C136.556 118.201 136.892 119.115 137.272 120.01C137.126 120.068 136.982 120.123 136.836 120.181C135.255 117.003 133.673 113.823 131.96 110.38C133.536 110.883 134.866 111.2 136.1 111.725C137.83 112.459 139.482 113.359 141.174 114.165C142.174 114.643 143.25 114.847 144.717 115.126C144.203 114.626 144.033 114.334 143.776 114.231C142.273 113.63 140.724 113.124 139.242 112.481C138.23 112.042 137.298 111.432 136.33 110.894C134.831 110.852 133.559 110.201 132.296 109.524C131.27 109.546 130.203 109.737 129.367 108.898C130.455 108.644 131.431 108.865 132.294 109.571ZM78.8698 85.205C79.1183 84.7026 79.6357 85.0283 79.8958 84.9179C80.3402 84.7302 80.5857 84.1366 80.9365 83.7308C80.9979 83.6645 81.1937 83.7142 81.3019 83.6645C83.3773 82.7038 85.6077 81.9529 87.4844 80.7216C90.4485 78.7697 93.4505 76.9587 96.8736 75.7412C96.3854 76.9753 95.6605 77.82 94.538 78.4329C92.5707 79.5041 90.4835 80.4207 88.6507 81.6685C86.4846 83.1427 84.0321 83.8799 81.6147 84.7688C81.1206 84.951 80.6588 85.2243 80.2262 85.4342C80.7786 87.3777 82.6933 87.7918 83.9737 88.9872C82.0911 89.0756 78.674 87.7118 77.417 86.5026C77.8993 86.0608 78.3816 85.6191 78.864 85.1664C78.0952 85.5253 77.3293 85.8842 76.4874 86.2762C73.8244 85.3044 71.0503 84.236 68.6037 82.5519C70.4657 83.1124 72.2313 83.8716 74.0466 84.5038C75.2422 84.9179 76.4553 85.6605 77.8204 84.7771C77.987 84.6694 78.5103 85.0504 78.8698 85.205ZM183.466 127.751V127.696C183.557 127.781 183.645 127.936 183.735 127.936C186.401 127.999 188.95 128.667 191.517 129.25C192.359 129.44 193.063 129.73 193.665 130.677C192.777 130.531 192.175 130.409 191.567 130.329C186.366 129.656 181.166 128.996 175.969 128.306C175.039 128.181 174.118 127.966 173.209 127.74C171.066 127.204 168.915 126.685 166.796 126.064C165.398 125.655 164.019 125.15 162.7 124.559C161.332 123.949 160.058 123.168 158.725 122.489C157.684 121.959 156.62 121.47 155.565 120.962C155.632 120.83 155.699 120.697 155.767 120.565C157.646 121.379 159.482 122.315 161.423 122.975C163.492 123.679 165.697 124.029 167.781 124.706C171.315 125.854 172.344 126.094 173.96 125.702C171.856 124.747 169.403 125.087 167.488 123.643C170.011 123.182 182.791 125.862 185.188 127.268C184.642 127.422 184.054 127.588 183.466 127.751ZM232.564 178.664C232.389 180.903 233.517 182.913 233.835 185.075C234.107 186.922 235.32 188.462 236.566 189.903C237.817 191.35 238.755 192.901 239.346 194.732C239.799 196.145 240.17 197.556 240.532 198.989C241.161 201.479 241.032 203.95 240.974 206.446C240.968 206.747 240.819 207.045 240.708 207.456C239.708 206.31 238.825 205.311 237.951 204.303C237.428 203.701 236.861 203.13 236.411 202.481C235.16 200.684 234.011 198.823 232.722 197.048C232.102 196.192 231.082 195.571 230.55 194.682C229.1 192.258 227.065 190.433 224.584 189.017C223.555 188.432 223.148 187.526 222.958 186.497C222.853 185.914 222.83 185.315 222.806 184.719C222.736 182.935 222.932 181.108 222.578 179.377C221.909 176.119 222.336 172.911 222.672 169.697C222.964 166.926 223.596 164.181 222.879 161.23C225.744 163.737 227.741 166.589 229.384 169.645C230.605 171.92 231.713 174.269 232.152 176.834C232.263 177.474 232.427 178.107 232.567 178.75C233.277 178.584 233.178 178.043 233.113 177.585C232.57 173.634 230.643 170.158 228.673 166.749C227.808 165.261 226.34 164.082 225.148 162.762C224.724 162.29 224.116 161.898 224.283 160.957C225.192 161.484 225.928 162.006 226.741 162.368C230.027 163.825 232.617 166.042 234.666 168.825C235.373 169.786 235.791 170.94 236.504 171.895C238.361 174.369 239.018 177.317 240.173 180.058C240.594 181.055 240.953 182.019 241.611 182.913C242.824 184.567 243.996 186.259 245.034 188.015C245.607 188.984 246.2 190.113 246.215 191.176C246.253 194.202 247.089 197.274 245.829 200.267C245.145 201.885 244.511 203.508 243.222 204.814C242.859 205.181 242.585 205.623 242.102 206.244C242.038 205.223 241.886 204.392 241.95 203.577C242.131 201.283 241.52 199.066 241.026 196.893C240.319 193.793 238.819 190.963 236.548 188.498C235.312 187.159 234.759 185.387 234.443 183.589C234.134 181.85 233.871 180.072 232.564 178.664ZM294.134 140.238C291.814 140.152 289.495 140.025 287.174 139.995C284.783 139.964 282.389 139.962 280.001 140.075C277.651 140.188 275.312 140.467 272.968 140.671C273.383 140.174 273.865 139.923 274.368 139.716C277.519 138.418 280.589 136.919 283.211 134.846C286.259 132.441 289.647 131.527 293.521 131.596C294.807 131.616 296.189 131.381 297.368 130.906C298.75 130.349 300.165 130.362 301.565 130.216C304.246 129.937 306.95 129.788 309.645 129.661C311.77 129.562 313.918 129.054 316.096 129.813C316.172 130.523 316.245 131.213 316.31 131.82C314.947 132.985 312.913 132.98 311.706 134.813C312.436 134.531 312.828 134.379 313.22 134.227C314.144 133.866 315.044 133.43 315.997 133.159C317.461 132.739 318.33 133.231 318.277 134.592C318.239 135.635 318.11 137.03 317.409 137.626C315.947 138.874 314.874 140.514 313.056 141.425C310.633 142.637 308.063 143.343 305.383 143.752C304.45 143.896 303.506 144 302.597 144.232C300.834 144.685 299.113 145.298 297.335 145.696C294.938 146.231 292.384 146.449 290.057 145.983C285.877 145.149 281.813 143.777 277.709 142.595C276.718 142.311 275.768 141.902 274.798 141.549C275.178 141.209 275.473 141.179 275.765 141.154C277.592 140.994 279.419 140.809 281.249 140.69C282.497 140.61 283.772 140.481 285 140.63C288.037 140.994 291.053 141.532 294.134 140.238ZM259.542 157.445C259.963 157.271 260.316 157.015 260.688 156.99C264.637 156.716 268.346 157.224 271.451 159.861C272.48 160.731 273.614 161.509 274.78 162.21C276.976 163.535 279.142 164.866 280.735 166.884C281.144 167.4 281.746 167.79 282.293 168.193C283.576 169.137 284.69 170.272 285.406 171.605C287.008 174.573 288.145 177.706 288.662 181.036C288.835 182.137 289.212 183.247 290.177 184.073C290.489 184.343 290.612 184.812 290.939 185.406C290.001 184.953 289.346 184.639 288.671 184.313C288.206 185.171 288.835 185.348 289.335 185.566C290.861 186.234 290.863 186.229 291.486 187.3C287.853 186.756 284.652 185.541 281.819 183.344C280.32 182.181 278.653 181.24 276.631 180.798C275.011 180.442 273.327 179.702 272.065 178.692C269.63 176.754 267.019 174.979 265.885 171.812C264.675 168.439 263.044 165.206 262.766 161.41C263.593 162.213 264.307 162.936 265.052 163.629C265.409 163.958 265.821 164.234 266.212 164.527C267.934 165.805 269.726 167.008 271.36 168.378C272.731 169.532 273.83 170.915 274.76 172.458C275.771 174.137 277.139 175.622 278.276 177.237C278.914 178.14 279.259 179.255 279.995 180.064C280.808 180.956 281.922 181.602 282.904 182.355C283.1 182.507 283.284 182.676 283.491 182.814C284.877 183.741 286.423 184.252 288.154 184.316C287.581 183.857 286.935 183.54 286.268 183.266C283.962 182.328 281.863 181.061 280.407 179.125C278.554 176.666 276.932 174.046 275.146 171.539C274.245 170.28 273.348 168.971 272.193 167.939C269.779 165.777 267.274 163.685 264.631 161.774C263.687 161.087 262.813 160.374 262.003 159.571C261.573 159.143 261.243 158.624 260.802 158.21C260.501 157.928 260.077 157.763 259.542 157.445ZM205.744 196.863C205.259 197.07 204.952 197.288 204.624 197.319C201.128 197.644 197.641 198.13 194.113 198.036C193.616 198.023 193.092 198.125 192.622 198.279C189.892 199.171 187.176 200.096 184.454 201.004C184.338 201.043 184.203 201.035 184.077 201.046C181.289 201.278 178.57 200.883 176.246 199.439C174.104 198.108 172.104 196.521 170.236 194.853C167.243 192.173 163.782 190.464 159.742 189.829C157.985 189.55 156.357 189.014 154.565 188.228C156.056 187.082 157.558 186.231 159.289 186.303C162.06 186.414 164.817 186.803 167.582 187.074C169.26 187.236 170.824 187.118 171.932 185.657C172.165 185.351 172.607 185.02 172.972 184.995C174.372 184.901 175.767 185.113 176.869 185.978C178.512 187.261 179.792 188.973 181.9 189.71C182.116 189.785 182.265 190.033 182.458 190.19C185.214 192.485 188.035 194.768 191.587 195.839C194.668 196.766 197.883 197.103 201.16 196.789C202.59 196.651 204.063 196.029 205.744 196.863ZM143.632 60.1624C145.012 59.486 145.012 59.4749 145.918 59.6654C147.158 59.9305 148.4 60.1872 149.628 60.4909C152.729 61.2556 155.705 60.7863 158.655 59.7814C159.999 59.3231 161.417 59.0581 162.753 58.586C164.144 58.0973 165.457 58.4866 166.828 58.5887C169.754 58.8096 172.645 58.84 175.624 58.3154C178.257 57.8489 180.947 57.6031 183.51 56.7998C184.986 56.3415 186.463 55.8252 187.834 55.1489C188.386 54.8783 188.766 54.8921 189.225 55.0577C190.646 55.5712 191.911 56.4961 193.534 56.4851C193.648 56.4851 193.765 56.7363 193.978 56.9875C192.657 58.8455 191.017 60.3446 188.895 61.4047C184.44 63.6326 179.552 64.7617 174.84 66.316C171.724 67.343 168.403 67.5611 165.118 66.951C162.528 66.4706 160.119 65.2642 157.415 65.2117C157.354 65.2117 157.295 65.1786 157.231 65.1593C153.682 64.1599 150.259 62.8265 146.792 61.6035C145.807 61.2556 144.889 60.7421 143.632 60.1624ZM177.6 101.054C176.036 99.9336 174.855 98.7796 174.036 97.3495C172.85 95.2762 172.236 93.0013 170.575 91.0523C168.953 89.1473 167.211 87.6897 164.887 86.7566C164.258 86.5053 163.571 86.3121 163.039 85.9339C160.879 84.3989 158.757 82.8142 156.643 81.2185C155.615 80.4427 154.665 79.5704 153.63 78.7973C151.832 77.4584 149.692 76.7627 147.552 76.0946C145.933 75.5894 144.293 75.1338 142.653 74.6783C141.917 74.474 141.162 74.3222 140.031 74.0572C142.364 72.4918 144.691 71.705 146.933 71.44C150.528 71.0148 153.98 72.0114 157.173 73.7728C159.716 75.178 162.376 76.401 164.983 77.7041C166.205 78.317 167.64 78.7145 168.611 79.5786C172.338 82.8888 174.831 86.9139 175.898 91.6928C176.29 93.4486 176.869 95.1685 177.272 96.9216C177.562 98.1832 177.959 99.4587 177.6 101.054ZM158.117 204.775C158.216 204.706 158.313 204.637 158.409 204.571C159.537 205.667 160.645 206.785 161.794 207.859C162.77 208.773 163.715 209.747 164.817 210.504C166.334 211.545 168 212.42 169.587 213.336C171.093 214.201 172.516 215.123 173.838 216.188C175.071 217.185 176.071 218.317 176.828 219.794C178.176 222.43 179.424 225.296 182.601 226.61C183.458 226.963 184.335 227.284 185.153 227.703C186.521 228.405 187.693 229.307 188.316 231.058C186.708 231.207 185.285 231.441 183.858 231.444C182.35 231.444 180.841 231.237 179.333 231.102C176.767 230.873 174.416 230.166 172.318 228.645C170.935 227.64 169.874 226.433 168.76 225.194C165.755 221.851 164.103 217.817 162.072 213.988C160.61 211.238 159.871 208.168 158.289 205.446C158.175 205.25 158.172 204.999 158.117 204.775ZM105.631 175.611C105.538 175.542 105.447 175.47 105.357 175.401C105.675 174.578 106.082 173.772 106.301 172.927C107.102 169.822 109.043 167.478 111.65 165.548C114.629 163.342 117.844 161.468 120.516 158.837C123.357 156.04 126.789 153.801 129.508 150.839C130.063 150.234 130.926 149.737 131.741 149.519C135.632 148.487 139.54 147.465 143.618 147.313C144.767 147.269 145.915 147.206 147.333 147.139C146.681 147.962 146.333 148.655 145.763 149.08C143.925 150.458 142.036 151.78 140.107 153.036C139.338 153.539 138.435 153.895 137.544 154.177C135.746 154.745 133.933 155.284 132.095 155.714C130.475 156.098 129.172 156.885 128.157 158.089C127.263 159.151 126.453 160.281 125.617 161.388C125.219 161.918 124.872 162.481 124.468 163.005C124.217 163.331 123.927 163.64 123.615 163.919C123.062 164.411 122.492 164.891 121.902 165.344C121.086 165.968 120.273 166.6 119.408 167.158C118.268 167.889 116.997 168.458 115.938 169.278C115.164 169.88 114.375 170.222 113.425 170.222C112.378 170.219 111.644 170.708 110.905 171.329C109.174 172.784 107.391 174.186 105.631 175.611ZM100.715 179.299C100.697 178.673 101.229 178.615 101.735 178.54C102.322 178.452 102.922 178.421 103.495 178.281C104.722 177.98 105.374 177.008 106.245 176.235C108.215 174.479 110.405 172.941 112.527 171.34C112.808 171.13 113.214 170.973 113.568 170.967C115.383 170.931 116.698 170.009 118.02 168.969C118.821 168.336 119.806 167.9 120.735 167.428C122.562 166.506 123.626 164.827 125.111 163.563C125.152 163.527 125.155 163.45 125.193 163.4C125.664 162.771 126.14 162.144 126.617 161.515C127.02 160.982 127.482 160.482 127.809 159.911C128.347 158.964 129.163 158.304 130.054 157.68C131.937 156.36 134.112 155.659 136.354 155.284C139.102 154.823 141.247 153.442 143.323 151.849C143.837 151.454 144.384 151.096 144.916 150.717C143.758 152.051 142.671 153.589 141.148 154.317C138.508 155.585 137.152 157.823 135.705 159.93C134.024 162.373 132.267 164.684 129.961 166.625C129.213 167.254 128.61 168.033 127.909 168.717C125.883 170.697 123.892 172.712 121.791 174.617C119.706 176.508 116.874 177.005 114.275 177.897C112.264 178.584 110.194 179.156 108.034 179.219C105.631 179.294 103.226 179.277 100.715 179.299ZM158.254 147.556C160.356 147.159 162.466 146.651 164.583 147.473C165.094 147.672 165.714 147.73 166.272 147.697C167.781 147.598 169.289 147.443 170.789 147.253C172.695 147.015 174.676 146.819 176.328 147.821C178.482 149.124 180.909 149.784 183.157 150.833C185.086 151.733 187.179 152.57 188.699 153.934C190.447 155.502 192.081 157.346 192.759 159.704C192.955 160.383 193.288 161.089 193.765 161.617C195.399 163.417 196.498 165.487 197.451 167.649C197.65 168.096 197.845 168.543 198.044 168.988C197.197 168.585 196.624 168.044 196.074 167.483C194.501 165.888 192.981 164.242 191.353 162.696C190.722 162.097 189.658 161.862 189.129 161.211C188.182 160.054 186.933 159.684 185.554 159.43C183.58 159.071 181.52 158.925 179.655 158.276C176.056 157.026 172.47 155.7 169.535 153.177C168.243 152.062 166.758 151.068 165.2 150.325C162.96 149.257 160.575 148.467 158.254 147.556ZM176.971 102.12C176.118 102.896 175.767 103.064 175.229 102.62C173.998 101.607 172.832 100.524 171.66 99.4477C171.3 99.1191 171.066 98.6526 170.681 98.3627C168.187 96.502 165.413 95.29 162.171 95.1685C161.414 95.1382 160.575 95.1409 159.932 94.8317C159.005 94.39 158.023 93.8185 157.436 93.0483C156.717 92.1069 156.307 90.9308 155.895 89.8155C154.179 85.1415 151.019 82.113 145.667 81.2627C144.08 81.0142 142.618 80.2826 141.569 78.8802C140.44 77.3728 139.017 76.0642 137.704 74.648C137.912 74.6314 138.23 74.5403 138.526 74.5872C140.683 74.9295 142.846 75.2001 144.887 76.078C146.439 76.7461 148.163 77.0691 149.704 77.7593C152.516 79.0237 155.036 80.7078 157.295 82.7645C159.277 84.5673 161.423 86.2044 164.048 87.1431C165.594 87.6924 166.991 88.3937 167.994 89.7243C168.845 90.8535 169.921 91.828 170.771 92.9572C171.294 93.6474 171.692 94.4645 171.943 95.2817C172.265 96.3363 173.025 98.1584 173.668 98.8983C174.428 99.7762 175.159 100.682 175.957 101.532C176.217 101.808 176.65 101.941 176.971 102.12ZM204.276 108.956C205.045 111.184 203.777 111.951 202.181 112.6C201.333 112.945 200.631 113.602 199.798 113.991C198.877 114.425 197.878 114.712 196.755 115.123C197.214 113.685 197.67 112.561 197.924 111.399C198.281 109.776 198.6 108.13 198.728 106.479C198.98 103.327 203.142 100.853 206.033 100.577C209.418 100.254 212.599 99.5967 214.724 96.6262C215.504 95.5385 216.843 94.8069 217.936 93.9207C218.167 93.7329 218.413 93.5093 218.693 93.4375C221.172 92.786 223.666 92.1731 226.148 91.5326C226.738 91.3808 227.308 91.1682 228.2 90.8839C227.828 92.3415 227.577 93.5397 227.197 94.6992C227.042 95.1713 226.671 95.6323 226.273 95.9664C225.613 96.5213 224.899 97.0513 224.128 97.4434C222.45 98.2992 220.918 99.3013 219.594 100.61C219.22 100.98 218.65 101.181 218.159 101.441C217.726 101.67 217.261 101.847 216.843 102.095C215.554 102.852 214.285 103.636 213.005 104.4C211.052 105.574 208.93 106.496 207.369 108.221C206.741 108.92 205.785 109.364 204.276 108.956ZM250.775 43.8298C250.74 43.9154 250.705 44.0065 250.67 44.0921C248.592 43.5896 246.502 43.1176 244.435 42.5792C241.678 41.8559 238.846 41.5218 236.019 41.4832C233.888 41.4528 231.76 41.9995 229.617 42.1347C227.884 42.2452 226.098 42.3225 224.397 42.0547C222.231 41.7151 220.123 41.0332 217.998 40.4645C215.846 39.8875 213.791 40.5528 211.731 40.9145C210.994 41.0442 210.339 41.2375 209.544 41.1353C207.135 40.8289 204.706 40.6577 202.286 40.4369C202.698 39.7384 203.148 39.3133 203.692 39.0731C205.004 38.4933 206.361 37.9991 207.702 37.4746C211.786 35.8761 216.063 35.3433 220.442 35.5007C224.081 35.6332 227.714 35.9672 231.345 35.2881C233.441 34.8961 235.464 35.266 237.32 36.2847C238.793 37.0936 240.24 37.9439 241.705 38.7639C244.727 40.4562 247.753 42.1403 250.775 43.8298ZM200.085 41.0387C200.5 41.0028 200.69 40.9421 200.851 40.9807C202.23 41.3203 203.587 41.8587 204.987 41.9912C207.609 42.2424 210.269 42.3335 212.85 41.6737C214.566 41.2347 216.267 40.9725 218.018 41.3479C219.544 41.6764 221.099 41.9387 222.575 42.4136C226.118 43.5537 229.679 42.9906 233.248 42.7034C234.935 42.5682 236.648 42.3252 238.317 42.4715C240.483 42.662 242.64 43.0955 244.751 43.6172C245.49 43.7995 246.566 43.5703 247.054 44.5642C246.826 44.6774 246.665 44.832 246.507 44.8237C244.607 44.7464 242.853 45.2626 241.211 46.0798C239.629 46.8694 237.989 47.3719 236.209 47.5623C234.531 47.7418 233.017 47.5982 231.57 46.6347C230.427 45.8728 229.024 45.3731 227.63 45.8231C226.15 46.3007 224.587 46.8335 223.397 47.7363C221.865 48.8958 220.237 49.1801 218.43 49.1111C216.852 49.0504 215.276 48.9344 213.701 48.8074C213.011 48.7522 212.254 48.7605 211.652 48.4899C209.097 47.3415 206.378 46.4608 204.271 44.5366C202.981 43.3605 201.587 42.2866 200.085 41.0387ZM245.797 125.901C245.797 125.758 245.797 125.614 245.797 125.468C245.949 125.393 246.092 125.288 246.253 125.252C248.095 124.838 249.995 124.579 251.772 123.991C253.69 123.356 255.517 122.679 257.627 122.988C258.428 123.104 259.355 122.514 260.147 122.652C261.901 122.961 263.368 122.251 264.882 121.743C266.742 121.122 268.545 120.352 270.378 119.656C272.535 118.839 274.792 118.5 277.092 118.201C278.715 117.992 280.559 117.591 281.77 116.655C283.48 115.333 285.692 115.049 287.332 113.729C287.502 113.594 287.923 113.715 288.221 113.754C290.326 114.008 291.702 115.482 293.512 116.432C293.217 116.702 293.07 116.954 292.869 117C291.53 117.315 290.185 117.608 288.832 117.862C285.792 118.422 283.12 119.645 280.749 121.553C279.595 122.481 278.329 123.372 276.961 123.958C274.503 125.007 271.954 125.896 269.384 126.685C268.025 127.105 266.549 127.32 265.113 127.37C263.283 127.431 261.445 127.257 259.612 127.138C256.496 126.939 253.377 126.732 250.264 126.475C248.77 126.351 247.285 126.097 245.797 125.901ZM152.916 201.567C153.258 202.97 153.545 204.439 153.983 205.863C155.197 209.825 155.039 213.775 154.001 217.726C153.396 220.037 151.721 221.701 150.052 223.363C148.228 225.186 146.532 227.079 145.956 229.65C145.725 230.682 145.305 231.682 144.91 232.678C143.369 236.582 140.25 239.34 136.944 242.534C137.149 241.289 137.193 240.452 137.435 239.671C137.842 238.376 137.766 237.128 137.69 235.79C137.576 233.794 137.906 231.72 139.423 230.083C140.046 229.412 140.94 228.907 141.376 228.153C142.858 225.594 145.132 223.568 146.293 220.73C147.196 218.521 147.696 216.318 148.023 214.051C148.383 211.559 148.701 209.074 149.92 206.802C150.856 205.065 151.882 203.37 152.916 201.567ZM197.971 170.551C194.946 170.114 192.008 169.57 188.982 169.703C186.884 169.794 184.77 169.813 183.241 168.044C183.06 167.834 182.677 167.787 182.394 167.652C180.879 166.931 179.298 166.307 177.869 165.454C175.901 164.284 174.028 162.967 172.16 161.655C171.569 161.241 171.028 160.711 170.622 160.131C169.307 158.249 168.14 156.264 166.763 154.422C166.012 153.417 165.077 152.443 164.004 151.772C162.484 150.822 160.756 150.176 159.128 149.381C158.853 149.246 158.628 149.031 158.377 148.851C161.981 149.751 165.375 150.98 168.269 153.219C170.07 154.616 171.943 155.927 173.8 157.258C174.042 157.431 174.37 157.523 174.676 157.597C176.997 158.166 179.324 158.712 181.642 159.284C183.393 159.715 185.267 159.93 186.854 160.675C189.064 161.713 190.994 163.132 192.525 165.128C194.034 167.097 196.077 168.701 197.971 170.551ZM244.449 124.8C244.403 124.623 244.356 124.446 244.309 124.269C245.809 122.897 247.291 121.514 248.811 120.167C249.36 119.676 249.925 119.104 250.6 118.845C252.225 118.218 253.923 117.771 255.581 117.213C256.467 116.918 257.382 116.636 258.183 116.189C261.57 114.3 265.157 113.519 269.071 114.184C271.474 114.593 273.745 114.535 275.835 112.992C276.824 112.266 278.075 111.631 279.434 111.78C281.439 112.004 283.43 112.343 285.415 112.688C285.774 112.749 286.084 113.075 286.59 113.387C285.979 113.607 285.634 113.77 285.271 113.853C283.594 114.234 282.103 114.888 280.726 115.927C279.928 116.526 278.805 116.804 277.782 117.056C276.449 117.387 275.064 117.522 273.71 117.787C270.711 118.37 267.902 119.452 265.178 120.747C262.862 121.848 260.351 121.865 257.852 122.053C256.046 122.185 254.119 122.188 252.485 122.809C250.097 123.715 247.56 123.85 245.166 124.587C244.926 124.661 244.689 124.731 244.449 124.8ZM156.319 201.584C156.377 201.49 156.436 201.396 156.494 201.302C158.298 201.493 160.227 201.369 161.873 201.957C163.624 202.581 165.407 203.155 167.144 203.82C168.544 204.359 169.83 205.087 170.8 206.286C171.785 207.503 172.858 208.682 174.042 209.728C175.188 210.739 176.527 211.55 177.769 212.461C178.769 213.196 179.736 213.963 180.748 214.681C181.692 215.352 182.847 215.758 183.086 217.121C183.189 217.693 183.89 218.165 184.3 218.695C184.557 219.026 184.89 219.358 184.989 219.736C185.445 221.511 186.591 223.107 186.425 225.064C186.363 225.757 186.761 226.48 187.015 227.447C184.601 226.317 182.043 225.79 180.423 223.802C179.421 222.577 178.497 221.251 177.81 219.852C176.129 216.434 173.235 214.256 169.9 212.45C168.421 211.647 166.804 210.965 165.556 209.908C162.385 207.23 159.385 204.37 156.319 201.584ZM152.355 188.86C152.881 188.912 153.507 188.805 153.913 189.039C155.927 190.201 158.234 190.342 160.438 190.828C162.858 191.364 165.232 192.043 167.22 193.492C169.321 195.022 171.327 196.675 173.364 198.285C174.41 199.108 175.358 200.055 176.62 200.601C179.529 201.863 182.505 202.244 185.615 201.264C187.293 200.731 189.038 200.378 190.71 199.834C192.987 199.088 195.247 198.393 197.717 198.818C198.056 198.878 198.445 198.611 198.819 198.58C199.254 198.55 199.699 198.616 200.14 198.638C200.158 198.76 200.175 198.884 200.193 199.005C199.634 199.243 199.059 199.45 198.521 199.723C197.015 200.485 195.355 201.084 194.078 202.109C192.818 203.122 191.567 204.049 190.12 204.82C187.711 206.106 185.279 206.909 182.446 206.401C179.242 205.827 176.012 205.272 173.384 203.34C171.306 201.81 169.444 200.021 167.503 198.329C165.542 196.623 163.647 194.845 160.926 194.213C159.953 193.986 159.029 193.57 158.061 193.318C155.521 192.653 154.258 190.478 152.355 188.86ZM187.913 53.9755C186.296 54.5746 184.913 55.135 183.499 55.5989C181.958 56.1013 180.403 56.5872 178.822 56.9461C177.535 57.236 176.173 57.2277 174.893 57.5314C173.08 57.9593 171.268 58.0614 169.429 57.8599C165.74 57.4568 162.186 57.6087 158.658 59.0443C156.114 60.0768 153.314 60.4771 150.484 59.8366C149.914 59.7068 149.289 59.8007 148.701 59.7206C147.687 59.5798 146.608 59.5301 145.661 58.4562C147.45 57.8295 149.02 56.8412 150.604 56.8191C154.016 56.7666 156.787 55.5436 159.575 53.89C161.201 52.9265 163.159 52.3384 165.203 52.5344C167.082 52.7139 168.959 52.9596 170.838 53.139C173.779 53.4123 176.699 53.4924 179.62 52.7801C181.195 52.3992 182.861 52.1949 184.487 52.1893C185.697 52.1866 187.021 52.4323 187.913 53.9755ZM226.367 148.738C228.629 148.028 230.602 147.653 232.631 147.578C233.108 147.559 233.613 147.785 234.069 147.976C236.89 149.149 239.094 151.151 241.281 153.092C242.818 154.458 244.242 156.037 245.081 157.923C245.464 158.787 246.078 159.121 246.94 159.201C248.364 159.328 249.577 159.817 250.574 160.813C250.878 161.117 251.483 161.203 251.69 161.528C252.982 163.585 254.169 165.703 255.461 167.757C256.3 169.087 257.262 170.352 258.419 172.003C257.618 171.613 257.2 171.473 256.855 171.235C253.888 169.178 250.746 167.42 247.414 165.937C244.47 164.634 242.491 162.368 240.696 159.853C238.632 156.954 236.121 154.359 233.061 152.366C231.07 151.071 228.863 150.074 226.367 148.738ZM225.735 149.574C226.194 149.641 226.454 149.616 226.642 149.715C228.185 150.538 229.676 151.454 231.257 152.2C232.713 152.887 233.803 153.917 234.932 154.977C237.431 157.327 239.679 159.853 241.632 162.624C242.207 163.444 242.833 164.366 243.684 164.85C245.493 165.879 247.305 166.923 249.287 167.685C250.655 168.209 251.962 168.969 253.146 169.813C254.859 171.034 256.718 171.994 258.603 172.927C258.943 173.096 259.255 173.306 259.954 173.714C257.224 173.83 254.958 173.952 252.693 173.999C252.301 174.007 251.836 173.767 251.521 173.513C248.638 171.199 245.098 170.203 241.605 169.162C239.986 168.679 238.822 167.886 237.972 166.503C236.42 163.983 235.113 161.313 233.081 159.069C232.672 158.616 232.342 158.097 231.994 157.6C230.258 155.123 228.986 152.324 226.376 150.458C226.15 150.295 226.034 149.997 225.735 149.574ZM244.423 76.7875C244.599 76.7875 244.771 76.7903 244.946 76.7903C245.376 78.3004 245.905 79.794 246.206 81.3262C246.431 82.4774 246.271 83.6645 245.695 84.7578C244.669 86.7013 243.622 88.6366 242.663 90.6133C242.307 91.3449 242.114 92.1648 241.95 92.9655C241.652 94.4176 241.588 95.9112 240.76 97.2363C240.544 97.5842 240.348 98.001 240.337 98.3931C240.234 101.609 239.033 104.417 236.943 106.927C236.472 107.49 236.098 108.127 235.624 108.693C235.06 109.367 234.435 109.999 233.689 110.805C233.391 106.8 234.253 103.404 236.32 100.24C237.077 99.0805 237.422 97.7001 237.256 96.2783C237.045 94.5115 236.826 92.7474 236.653 90.9805C236.577 90.213 236.498 89.4289 236.601 88.6725C237.025 85.5694 238.708 83.1869 241.474 81.5001C242.783 80.7023 243.47 79.5593 243.877 78.1955C244.023 77.7179 244.239 77.2569 244.423 76.7875ZM127.076 208.715C126.631 208.447 126.064 208.295 125.921 207.975C125.585 207.221 125.322 206.393 125.266 205.582C125.123 203.558 125.19 201.523 125.027 199.5C124.86 197.424 124.521 195.356 124.24 193.285C124.193 192.937 123.907 192.554 124.001 192.261C124.737 189.939 124.898 187.352 126.69 185.472C127.982 184.114 128.806 182.535 129.806 181.03C131.39 178.651 133.27 176.544 136.205 175.316C136.266 175.851 136.453 176.301 136.33 176.657C135.833 178.118 136.07 179.686 135.173 181.138C134.273 182.59 134.056 184.404 133.334 185.972C132.218 188.401 129.999 190.351 129.8 193.197C129.791 193.351 129.394 193.456 129.262 193.639C129.055 193.928 128.809 194.254 128.771 194.585C128.602 196.079 128.426 197.578 128.394 199.077C128.359 200.899 128.993 202.71 128.254 204.549C127.768 205.764 127.532 207.064 127.076 208.715ZM229.556 89.9424C229.641 89.9673 229.723 89.9949 229.807 90.0225C229.822 91.2759 229.959 92.5431 229.819 93.7826C229.679 95.0112 229.442 96.2894 228.907 97.3964C228.489 98.2578 228.252 99.017 228.363 99.9418C228.489 100.999 228.205 101.927 227.291 102.683C225.122 104.478 222.634 105.797 219.997 106.777C217.173 107.827 214.607 109.096 212.689 111.391C212.23 111.94 211.538 112.313 210.947 112.765C208.644 114.524 205.829 115.096 203.049 115.65C201.546 115.949 199.959 115.849 198.407 115.929C198.743 115.336 199.12 115.029 199.55 114.828C200.687 114.3 201.847 113.82 202.999 113.32C204.148 112.818 205.191 112.175 206.136 111.366C207.527 110.173 208.98 109.044 210.398 107.879C210.579 107.727 210.757 107.531 210.839 107.319C211.339 106.035 212.102 105.132 213.742 105.212C214.052 105.226 214.446 104.947 214.692 104.704C216.074 103.338 217.773 102.509 219.646 101.921C220.041 101.8 220.541 101.56 220.696 101.245C221.576 99.4698 223.417 98.8569 224.97 97.8492C226.674 96.7449 228.644 95.7924 228.565 93.2608C228.53 92.1648 229.202 91.0495 229.556 89.9424ZM150.011 195.828C151.133 197.228 152.075 198.401 151.817 199.941C151.63 201.051 151.294 202.166 150.821 203.193C150.245 204.444 149.274 205.546 148.795 206.818C148.21 208.378 147.938 210.048 147.561 211.677C147.114 213.607 146.737 215.551 146.26 217.472C145.965 218.673 145.6 219.863 145.17 221.025C144.381 223.145 142.522 224.622 141.341 226.519C140.774 227.43 139.905 228.181 139.143 228.976C138.198 229.953 137.216 230.878 137.178 232.347C137.166 232.813 136.865 233.277 136.596 234.023C135.55 231.971 135.728 230.108 135.658 228.297C135.611 227.049 136.211 225.992 137.251 225.197C139.327 223.604 140.166 221.296 140.882 219.048C141.461 217.243 141.434 215.258 141.618 213.347C141.747 212.006 142.066 210.747 142.946 209.662C144.015 208.345 145.05 207.001 146.184 205.733C148.654 202.978 149.955 199.828 150.011 195.828ZM234.628 111.774C234.54 111.697 234.449 111.623 234.365 111.545C235.128 110.62 235.969 109.742 236.639 108.757C238.127 106.573 240.193 104.71 240.585 101.902C240.763 100.643 241.734 99.5112 241.424 98.1087C241.371 97.8602 241.64 97.5538 241.737 97.2667C242.044 96.3556 242.517 95.4556 242.605 94.5253C242.88 91.6375 244.274 89.1805 245.604 86.6627C246.256 85.4231 247.305 84.2664 246.998 82.6707C246.788 81.5664 246.759 80.4317 246.648 79.3108C247.835 80.901 248.872 82.4636 248.899 84.501C248.925 86.475 249.194 88.4544 249.471 90.4145C249.667 91.7839 249.393 93.0455 248.758 94.2243C248.156 95.3369 247.367 96.3584 246.692 97.4406C245.958 98.6167 245.221 99.7955 244.561 101.01C243.581 102.813 242.924 104.732 241.582 106.407C239.971 108.426 237.615 109.563 235.838 111.349C235.575 111.617 235.037 111.639 234.628 111.774ZM217.089 19.3145C216.837 19.5795 216.7 19.781 216.51 19.9108C214.586 21.2221 212.257 21.9427 210.55 23.577C210.339 23.7786 209.959 23.8117 209.702 23.9829C208.176 24.9933 206.644 25.9954 205.15 27.0473C203.785 28.008 202.601 29.3028 201.099 29.9654C197.74 31.4424 194.259 32.6847 190.771 33.8801C189.649 34.2666 188.357 34.2859 187.015 33.9905C187.442 33.4964 187.778 33.143 188.079 32.762C190.324 29.9157 193.174 27.8065 196.665 26.4648C198.997 25.5703 201.233 24.5654 203.063 22.8206C204.823 21.1365 207.048 20.6092 209.55 20.9985C210.395 21.1283 211.333 21.0786 212.16 20.8688C213.78 20.4546 215.352 19.8721 217.089 19.3145ZM256.274 115.432C256.253 115.35 256.23 115.264 256.206 115.181C257.06 114.4 257.838 113.527 258.785 112.868C259.837 112.131 261.018 111.542 262.193 110.985C263.205 110.504 264.257 110.041 265.35 109.781C266.996 109.392 268.685 109.154 270.366 108.911C273.172 108.508 275.979 108.105 278.797 107.793C281.428 107.501 283.924 107.78 286.137 109.422C287.651 110.543 289.291 111.537 290.969 112.426C292.106 113.031 293.389 113.409 294.643 113.795C295.535 114.071 296.517 114.099 297.391 114.405C298.259 114.709 299.235 114.173 300.086 115.032C300.677 115.628 301.802 115.736 302.67 116.103C302.989 116.236 303.252 116.481 303.93 116.945C302.352 116.862 301.223 116.868 300.118 116.733C297.902 116.468 295.76 115.954 293.889 114.726C293.421 114.419 293.044 113.947 292.538 113.754C288.879 112.362 285.432 110.259 281.223 110.634C279.025 109.395 277.464 110.935 275.724 111.747C275.102 112.039 274.45 112.302 273.781 112.481C272.626 112.793 271.498 112.953 270.238 112.674C266.791 111.918 263.441 112.304 260.246 113.828C258.963 114.438 257.601 114.902 256.274 115.432ZM136.965 179.586C137.304 180.55 137.584 181.083 137.672 181.643C137.909 183.17 138.178 184.708 138.216 186.245C138.245 187.424 137.906 188.606 137.792 189.793C137.608 191.698 136.924 193.44 135.708 194.936C134.761 196.101 133.811 197.297 132.831 198.398C131.227 200.195 131.127 202.332 130.56 204.331C130.116 205.896 129.964 207.489 128.605 208.762C128.189 207.503 128.695 206.388 128.935 205.236C129.177 204.08 129.408 202.901 129.443 201.725C129.499 199.881 129.388 198.031 129.335 196.181C129.294 194.682 130.247 193.517 130.835 192.233C131.551 190.668 132.033 188.893 133.153 187.639C134.427 186.212 134.775 184.57 135.427 182.971C135.845 181.944 136.342 180.945 136.965 179.586ZM212.151 247.94C211.219 247.575 210.289 247.2 209.354 246.844C206.828 245.883 204.358 244.82 202.227 243.188C200.921 242.189 199.535 241.449 197.86 241.126C196.887 240.941 195.75 240.701 195.074 240.096C192.873 238.131 191.441 235.663 190.64 232.891C190.584 232.697 190.675 232.466 190.693 232.27C193.461 232.35 195.65 233.363 197.378 235.254C199.143 237.181 201.353 238.517 203.762 239.591C204.443 239.895 205.112 240.245 205.826 240.45C209.693 241.557 210.807 244.801 212.151 247.94ZM217.881 17.5531C217.928 17.6829 217.971 17.8099 218.018 17.9396C216.773 18.3013 215.478 18.5553 214.294 19.0494C212.622 19.7479 210.994 20.1399 209.111 19.9273C208.068 19.8114 206.849 19.4856 205.799 20.1592C204.616 20.9157 203.458 21.7135 202.242 22.4231C200.576 23.3921 198.936 24.4439 197.156 25.1893C193.814 26.589 190.83 28.3642 188.64 31.1994C188.354 31.5694 187.939 31.8565 187.34 32.4031C187.816 31.078 188.103 30.004 188.582 29.0129C189.292 27.547 189.991 26.0396 190.976 24.7421C192.145 23.1933 193.227 21.5396 195.381 20.8329C197.65 20.0875 199.76 18.9252 202.011 18.1301C203.549 17.5862 205.194 17.4868 206.852 17.912C207.922 18.1853 209.161 18.0473 210.126 18.4835C211.456 19.0853 212.415 18.6105 213.476 18.0638C213.628 17.9865 213.85 18.0307 214.037 18.0086C215.317 17.8595 216.601 17.7077 217.881 17.5531ZM197.74 2.84665C197.857 3.73837 197.275 4.08346 196.779 4.40371C195.893 4.97242 194.928 5.4307 194.037 5.98837C193.543 6.29757 193.04 6.65923 192.686 7.09819C191.733 8.28531 190.856 9.52764 189.947 10.7451C189.731 11.0378 189.438 11.2973 189.289 11.6175C188.135 14.0691 186.659 16.3218 184.554 18.1494C183.203 19.3255 181.897 20.5844 180.383 21.5424C176.799 23.8062 173.092 25.9016 170.09 29.1068C170.163 28.5767 170.189 28.1737 170.283 27.7899C170.353 27.5001 170.508 27.2295 170.628 26.9507C171.955 23.8421 174.524 21.6749 177.065 19.5077C178.132 18.5939 179.292 17.7491 180.526 17.0534C182.762 15.7945 184.808 14.3893 186.425 12.4071C187.199 11.4574 187.778 10.4276 188.445 9.43377C190.628 6.17058 194.095 4.45616 197.74 2.84665ZM169.251 33.3197C169.09 33.212 168.927 33.1016 168.763 32.9912C169.365 31.9642 169.959 30.9289 170.572 29.9074C171.899 27.7016 174.232 26.5172 176.275 25.0844C178.249 23.6985 180.575 22.8399 182.35 21.0758C184.083 19.3586 186.2 18.0307 187.483 15.8635C188.684 13.8344 190.304 12.0261 191.517 10.0052C192.823 7.83254 194.764 6.43837 196.995 5.26506C196.773 5.75095 196.451 6.15954 196.141 6.57641C195.753 7.10095 195.296 7.59788 194.998 8.16659C193.882 10.3034 192.905 12.512 191.704 14.6046C190.628 16.4737 189.137 18.0197 187.474 19.5326C185.475 21.3546 183.142 22.666 180.97 24.1816C178.594 25.8381 175.951 27.1218 174.598 29.7832C174.545 29.8853 174.457 29.9847 174.361 30.0455C172.66 31.1415 170.955 32.2292 169.251 33.3197ZM141.028 135.381C143.22 139.266 146.874 141.786 150.253 144.771C147.012 145.831 143.89 145.958 140.566 145.98C140.435 145.168 140.136 144.401 140.227 143.677C140.511 141.502 140.958 139.349 140.791 137.135C140.75 136.558 140.943 135.967 141.028 135.381ZM117.602 65.9406C120.133 65.0709 122.516 63.8866 125.132 63.1771C127.687 62.4814 130.113 61.2777 132.992 61.5814C130.373 63.3841 127.491 64.4194 124.635 65.5706C122.317 66.5065 120.159 67.0752 117.742 66.2553C117.713 66.2443 117.704 66.1752 117.602 65.9406ZM113.515 67.8897C110.519 70.8851 103.933 75.7964 97.8236 76.8096C98.0019 76.5032 98.0925 76.1691 98.3176 76.0062C99.5717 75.1145 100.811 74.1897 102.147 73.4222C103.869 72.4338 105.661 71.5532 107.455 70.6835C109.458 69.7173 111.492 68.82 113.515 67.8897ZM214.715 33.7752C215.405 33.4108 216.142 33.1044 216.782 32.6737C219.15 31.0807 221.701 31.4728 224.23 32.0608C225.119 32.2678 225.914 32.8531 226.013 33.9326C222.263 34.2832 218.521 33.0381 214.715 33.7752ZM213.888 125.36C213.929 125.517 213.97 125.677 214.011 125.838C213.172 126.243 212.374 126.776 211.485 127.03C210.041 127.444 208.527 127.629 207.062 127.996C205.478 128.394 203.908 128.847 202.359 129.349C201.228 129.719 200.345 129.435 199.123 128.502C201.494 128.162 203.478 127.922 205.446 127.58C206.723 127.356 207.983 127.014 209.237 126.68C210.795 126.263 212.339 125.799 213.888 125.36ZM59.7494 79.3329C56.0984 78.3777 52.6023 77.6378 49.2435 76.5363C45.8848 75.4348 42.1753 75.2305 39.2112 73.0937C45.8907 74.8605 52.5116 76.793 59.1268 78.7421C59.3226 78.8001 59.4571 79.0458 59.7494 79.3329ZM136.746 127.756C134.641 124.595 135.147 121.213 134.55 118.055C135.904 121.059 137.508 124.007 136.746 127.756ZM210.628 133.496C210.348 132.444 211.008 132.414 211.663 132.281C213.794 131.848 215.922 131.392 218.039 130.898C219.071 130.658 220.073 130.315 221.09 130.02C221.143 130.183 221.196 130.346 221.245 130.512C217.907 131.939 214.47 133.093 210.628 133.496ZM243.45 141.494C240.009 139.901 236.349 140 233.189 138.413C236.045 138.763 238.945 138.719 241.71 139.655C242.549 139.939 243.117 140.304 243.45 141.494ZM211.315 34.4902C207.311 36.0556 203.306 37.6209 199.301 39.189C199.249 39.0648 199.196 38.9433 199.143 38.8191C203.063 37.0439 206.849 34.9485 211.315 34.4902ZM197.638 129.38C194.417 130.147 191.85 128.339 188.939 127.679C189.298 127.453 189.672 127.337 189.997 127.414C191.201 127.698 192.388 128.057 193.586 128.366C194.934 128.717 196.287 129.04 197.638 129.38ZM131.478 111.667C129.654 111.752 128.078 111.01 126.535 109.342C128.151 109.072 130.203 110.035 131.478 111.667ZM138.581 135.696C138.973 135.889 139.341 135.975 139.353 136.091C139.447 137.184 139.517 138.286 139.511 139.387C139.511 139.777 139.286 140.169 139.163 140.558C139.046 140.539 138.926 140.519 138.806 140.5C138.736 139.001 138.666 137.499 138.581 135.696ZM142.671 158.29C142.127 155.667 142.127 155.667 142.981 155.317C142.872 156.366 142.77 157.329 142.671 158.29ZM111.577 103.15C111.633 103.037 111.688 102.926 111.741 102.819C112.597 103.197 113.454 103.575 114.635 104.1C113.021 104.467 112.39 103.622 111.577 103.15ZM161.68 51.1347C162.762 50.0857 162.762 50.0857 163.972 50.1878C163.025 51.3584 163.025 51.3584 161.68 51.1347ZM153.846 55.0439C153.782 54.9031 153.717 54.7596 153.653 54.616C154.384 54.3869 155.112 54.1577 155.843 53.9286C155.883 54.0501 155.924 54.1688 155.968 54.2903C155.261 54.5415 154.553 54.7927 153.846 55.0439ZM100.279 95.7262C100.367 95.624 100.454 95.5191 100.545 95.4197C101.165 95.8173 101.787 96.2176 102.41 96.6151C102.34 96.7063 102.273 96.7946 102.205 96.8857C101.565 96.4992 100.922 96.1099 100.279 95.7262ZM103.381 97.3302C103.477 97.2115 103.573 97.09 103.667 96.9713C104.047 97.2694 104.424 97.5676 104.804 97.863C104.763 97.9127 104.722 97.9569 104.681 98.0066C104.249 97.7802 103.813 97.5538 103.381 97.3302ZM181.479 121.55C181.525 121.65 181.572 121.752 181.622 121.854C181.207 122.017 180.795 122.188 180.374 122.337C180.345 122.348 180.257 122.207 180.119 122.047C180.596 121.87 181.037 121.71 181.479 121.55ZM159.002 52.3439C159.064 52.493 159.125 52.6421 159.187 52.7912C158.774 52.9403 158.359 53.0893 157.947 53.2384C157.9 53.1335 157.854 53.0314 157.804 52.9265C158.204 52.7332 158.602 52.5372 159.002 52.3439ZM36.4869 72.409C36.4284 72.5277 36.3729 72.6464 36.3144 72.7624C35.835 72.5746 35.3527 72.3841 34.8703 72.1964C34.9142 72.097 34.958 71.9976 35.0048 71.8983C35.4988 72.0694 35.9928 72.2378 36.4869 72.409ZM138.689 143.515C138.584 143.492 138.476 143.473 138.368 143.454C138.423 142.965 138.476 142.477 138.532 141.988C138.654 142.004 138.774 142.024 138.894 142.04C138.827 142.532 138.76 143.023 138.689 143.515ZM165.477 123.262C165.524 123.127 165.574 122.991 165.621 122.856C166.068 123.022 166.518 123.187 166.968 123.353C166.93 123.447 166.892 123.538 166.857 123.632C166.398 123.51 165.936 123.386 165.477 123.262Z" fill="#3D3D3D"/>
<path d="M178.816 126.867C177.804 126.547 176.813 126.161 175.779 125.942C175.355 125.854 174.843 126.138 174.443 126.492C175.486 126.724 176.536 126.928 177.567 127.201C178.114 127.345 178.564 127.417 178.824 126.815L178.816 126.867Z" fill="#3D3D3D"/>
<path d="M178.825 126.815C179.038 127.563 179.716 127.566 180.324 127.602C181.368 127.665 182.417 127.665 183.467 127.696C183.467 127.696 183.467 127.751 183.467 127.754C182.002 127.066 180.444 126.804 178.816 126.867L178.825 126.815Z" fill="#3D3D3D"/>
</svg>
