<svg width="461" height="423" viewBox="0 0 461 423" fill="none" xmlns="http://www.w3.org/2000/svg">
<g filter="url(#filter0_d_93_2025)">
<path d="M-52.7555 -46.3638C-48.6982 -42.3227 -45.3835 -37.6299 -40.2585 -34.5333C-36.0022 -31.9607 -31.6898 -29.4312 -27.6354 -26.5895C-24.6822 -24.5166 -22.11 -21.9583 -19.3633 -19.6183C-18.5646 -18.9321 -17.7936 -18.2192 -16.9603 -17.5758C-8.75967 -11.2225 -0.424932 -5.01831 7.6008 1.52901C10.9 4.21804 14.0199 7.18582 16.6836 10.5391C20.5998 15.4673 25.3861 19.7219 30.0241 24.0714C32.7638 26.6393 35.5363 29.1685 38.3329 31.6792C39.8744 33.0565 41.5761 34.2863 43.0695 35.7006C47.7343 40.1001 52.4392 44.4687 56.9044 49.0323C58.9971 51.172 60.5542 53.7446 62.3921 56.1015C63.8479 57.976 65.3644 59.8093 66.8185 61.6878C67.177 62.1505 67.3782 62.7041 67.6536 63.2223C67.4695 63.3258 67.2899 63.4311 67.1103 63.5365C65.9775 62.0949 64.949 60.5733 63.686 59.2343C62.186 57.6488 60.5228 56.1805 58.8536 54.7385C55.6024 51.9258 52.2995 49.1582 49.0047 46.3844C47.2422 44.8973 45.4903 43.3859 43.6656 41.9683C39.9444 39.0635 37.5776 35.1213 34.3228 31.8691C30.7045 28.2532 27.83 24.0824 23.769 20.7711C21.6034 18.9994 20.218 16.4143 18.2687 14.3653C15.0282 10.9557 11.5978 7.70002 8.28965 4.34782C2.24292 -1.77395 -4.61748 -6.94265 -12.0879 -11.4313C-14.458 -12.8533 -16.7229 -14.4321 -19.0197 -15.9619C-24.0389 -19.3161 -29.122 -22.5967 -34.0402 -26.0854C-37.0382 -28.2162 -39.5926 -30.94 -42.6797 -32.9264C-47.2919 -35.8931 -50.8344 -39.7843 -54.6553 -43.4781C-56.7538 -45.5047 -59.1898 -47.2342 -61.4335 -49.1358C-62.0555 -49.6592 -62.5407 -50.3257 -63.1023 -50.9145C-65.3405 -53.2517 -67.5467 -55.6135 -69.8526 -57.8932C-70.1814 -58.2132 -70.9831 -58.1212 -71.6262 -58.235C-72.1911 -56.6645 -71.0113 -55.8668 -70.2264 -54.9747C-68.5689 -53.095 -66.8713 -51.2461 -65.1897 -49.3849C-64.7699 -48.9151 -64.4311 -48.3695 -63.9492 -47.9691C-60.9537 -45.4592 -57.9254 -42.9881 -54.9202 -40.4884C-51.3885 -37.5547 -47.9145 -34.5496 -44.3321 -31.6711C-41.6261 -29.4978 -38.7735 -27.4778 -35.999 -25.3761C-33.6506 -23.5929 -31.4163 -21.6569 -28.9582 -20.0285C-22.9549 -16.0573 -16.8489 -12.2247 -10.7845 -8.33294C-9.31481 -7.38607 -7.8583 -6.48336 -6.50476 -5.31711C-3.08456 -2.37374 0.622915 0.289333 4.22009 3.05881C4.46805 3.24279 4.97297 3.31627 5.03561 3.50691C5.89401 6.20639 8.61111 7.44604 10.4482 9.36954C13.8226 12.9043 17.2611 16.3897 20.6497 19.9162C22.8678 22.2254 25.0039 24.6003 27.2353 26.8912C29.9963 29.733 32.8336 32.5596 34.9731 35.7974C37.5434 39.6782 41.2255 42.4747 44.6488 45.5974C48.5581 49.1608 52.64 52.4859 56.7829 55.794C59.4615 57.9314 61.6027 60.655 63.95 63.1499C68.827 68.3387 73.5828 73.634 78.5836 78.7223C81.5602 81.7485 84.3218 84.9996 87.9719 87.4599C88.9538 88.1193 89.4219 89.4473 90.1819 90.4345C91.5171 92.1656 92.8559 93.8885 94.2616 95.5681C95.5569 97.1182 96.2896 98.6663 95.9276 100.637C95.4609 103.174 95.4211 105.804 95.0077 108.354C94.7182 110.144 94.0371 111.847 93.6592 113.619C93.3355 115.115 93.1256 116.646 92.9805 118.177C92.5148 123.062 92.3738 128.016 91.5668 132.822C91.0944 135.621 89.9605 138.423 88.43 140.814C86.5842 143.699 86.1612 146.856 85.6274 150.158C84.39 149.879 83.0414 149.634 81.7256 149.263C76.8397 147.901 72 147.738 67.2344 148.709C65.8509 148.993 64.5802 149.662 63.3148 150.257C59.5546 152.032 55.139 152.104 51.2291 153.492C50.5633 153.73 49.7408 153.745 49.1827 154.106C46.2708 155.992 42.7114 156.232 39.3183 156.895C36.6165 157.424 33.8736 157.823 31.14 158.251C25.7913 159.081 21.698 161.728 18.4658 165.463C15.5957 168.782 12.1782 170.907 7.20539 170.754C5.00757 170.686 2.80061 170.976 1.01966 172.243C0.0641011 172.928 0.100294 173.752 1.23439 174.27C2.56579 174.878 4.01442 175.725 5.36104 175.738C8.4747 175.772 11.0312 177.198 13.6607 178.491C18.4146 180.831 23.4254 182.252 28.5907 182.767C32.8513 183.19 37.1243 183.162 41.3873 183.269C44.805 183.357 47.4912 181.634 50.4254 180.542C51.4423 180.162 52.4481 179.759 53.4883 179.438C54.2575 179.197 55.1413 179.189 55.8602 178.878C63.9574 175.384 72.4762 172.592 79.863 167.896C80.757 167.329 81.8969 167.075 83.0184 166.64C83.0942 167.024 83.2812 167.374 83.1718 167.553C81.4969 170.353 79.9737 173.262 78.0202 175.874C75.9525 178.639 73.5327 181.176 71.1398 183.699C69.6141 185.308 68.0451 186.979 66.1314 188.131C64.7188 188.98 62.7257 189.458 60.9766 189.358C57.6793 189.177 55.1728 190.583 52.6057 191.819C50.2964 192.931 47.8649 193.927 46.1066 195.863C45.461 196.576 44.1334 196.792 43.0654 197.116C40.5474 197.877 38.5795 199.242 37.1338 201.275C36.5241 202.128 35.6014 202.774 34.9844 203.62C33.6177 205.494 32.7491 207.544 32.091 209.816C30.3412 215.899 28.192 221.863 26.0617 227.82C25.255 230.076 25.523 232.116 26.8999 234.236C28.1456 236.15 29.4107 238.105 28.3653 240.205C29.4544 241.089 30.3006 241.03 30.711 240.216C31.4078 238.837 32.6879 238.196 33.9725 237.408C36.8891 235.61 38.9458 232.97 40.6137 230.186C42.7175 226.691 45.8287 224.617 49.7953 223.234C52.0636 222.441 54.2772 221.366 56.1851 220.028C57.5557 219.065 58.479 217.51 59.4295 216.115C60.8325 214.045 62.1113 211.902 63.3856 209.757C65.2647 206.583 65.4387 202.933 65.483 199.348C65.5177 196.519 66.5769 194.089 67.3864 191.541C67.5147 191.144 68.0388 190.874 68.4042 190.575C68.7144 190.329 69.2574 190.202 69.3608 189.9C70.7986 185.747 75.2788 183.969 77.5727 180.493C78.1815 179.567 78.9552 178.732 79.9852 177.439C80.1705 178.602 80.447 179.279 80.3471 179.871C80.0237 181.753 79.5992 183.62 79.1431 185.473C77.8584 190.664 76.534 195.849 75.2368 201.044C75.0994 201.587 74.9146 202.152 74.9476 202.71C75.2145 207.016 74.1792 211.108 73.7247 215.295C73.3473 218.732 73.3569 222.23 73.1644 225.698C73.1122 226.653 73.1276 227.612 71.9675 228.137C71.418 228.39 70.9899 229.072 70.8036 229.665C69.1925 234.73 65.3874 237.915 60.5518 240.218C58.3094 241.286 55.9385 242.154 53.7482 243.288C51.2664 244.575 49.0366 246.236 47.4713 248.434C46.0857 250.377 44.8648 252.473 43.9294 254.653C42.3708 258.278 39.1168 260.31 35.9647 262.429C34.673 263.296 33.0266 263.717 31.5952 264.423C30.7918 264.817 29.8988 265.245 29.3811 265.898C27.0776 268.811 25.5803 272.145 25.4695 275.885C25.4183 277.657 25.2716 279.278 24.4626 280.83C22.6969 284.226 20.9639 287.646 19.305 291.093C19.0129 291.708 18.8522 292.702 19.2012 293.199C19.4888 293.602 20.6292 293.608 21.3857 293.646C24.808 293.823 27.383 291.984 30.2834 290.921C32.3622 290.158 34.4714 289.46 36.5401 288.683C40.044 287.365 42.4546 284.887 44.6733 282.183C47.4464 278.803 50.5436 275.803 55.0362 274.233C57.9749 273.206 60.9058 272.059 63.5688 270.576C67.1302 268.59 69.3515 265.357 71.3097 262.025C73.6462 258.052 75.0642 253.236 75.6589 248.3C75.7675 247.389 76.1187 246.525 76.8683 245.708C77.1136 249.567 77.2725 253.428 77.6383 257.282C78.019 261.325 77.6106 265.306 77.8471 269.335C77.9358 270.846 78.5119 272.321 78.6966 273.734C78.8748 275.125 79.02 276.617 79.0354 278.024C79.0602 280.715 79.8894 283.233 80.5018 285.831C81.4113 289.693 83.2795 293.199 85.5564 296.491C86.9923 298.574 88.8886 300.696 91.0879 301.991C96.2934 305.051 101.385 308.498 107.549 309.608C109.523 309.959 109.974 310.693 110.036 312.515C110.133 315.175 109.847 317.914 110.541 320.485C111.452 323.871 112.165 327.418 116.046 329.766C118.9 331.498 120.887 334.217 122.735 337.036C124.758 340.132 127.548 342.846 130.12 345.641C131.85 347.513 133.694 349.31 135.651 350.967C136.463 351.659 137.706 351.902 139.117 352.511C139.28 351.436 139.541 350.72 139.473 350.008C139.165 346.79 138.912 343.558 138.336 340.355C138.062 338.861 137.361 337.254 136.393 335.989C134.644 333.699 132.662 331.526 130.571 329.483C127.105 326.111 124.666 322.263 122.998 317.982C121.802 314.906 119.314 312.702 116.556 310.91C113.541 308.955 112.531 306.618 112.98 303.525C113.585 299.35 114.534 295.173 114.446 290.948C114.343 286.014 113.443 281.122 109.903 276.616C106.13 271.817 103.383 266.43 101.487 260.8C100.413 257.618 99.0801 254.723 95.9491 252.54C91.7069 249.574 87.6977 246.304 83.5963 243.149C80.6233 240.86 78.0495 238.455 77.1818 234.708C76.4122 231.392 75.7735 228.109 76.4436 224.914C76.6653 223.84 78.272 223.114 79.244 222.229C78.7722 221.992 78.3049 221.757 77.8331 221.519C78.7912 223.689 79.6105 225.919 80.7513 228.014C81.9924 230.287 83.3718 232.388 85.7849 234.084C88.8462 236.242 91.5116 238.845 93.4774 242.162C96.2915 246.908 98.4257 251.924 101.368 256.596C103.024 259.226 104.546 261.956 107.441 263.802C109.629 265.199 111.761 266.749 113.677 268.466C116.07 270.619 118.95 271.828 121.912 272.413C124.985 273.027 128.215 273.14 131.3 272.955C133.834 272.803 136.198 271.59 138.728 271.386C142.411 271.094 146.175 271.178 149.912 271.308C152.504 271.396 155.114 271.863 157.713 272.109C159.4 272.264 161.054 272.424 162.313 271.048C162.844 270.463 163.906 270.315 164.757 269.961C164.315 268.697 163.455 268.388 162.16 267.983C158.399 266.813 154.789 265.116 151.053 263.851C146.764 262.399 142.926 260.224 139.349 257.569C137.03 255.842 135.345 253.729 133.975 251.232C132.058 247.753 129.601 244.504 127.461 241.107C126.427 239.473 125.463 237.777 124.702 236.033C123.487 233.228 121.675 230.935 118.886 229.265C116.753 227.989 114.728 227.572 112.407 228.525C110.685 229.23 108.704 229.097 107.007 227.807C102.643 224.476 97.4115 222.758 92.5333 220.407C91.1073 219.72 89.2281 219.872 87.5563 219.766C86.3133 219.687 85.0743 219.86 83.8308 219.819C82.4028 219.771 80.9184 219.978 79.9519 218.3C79.7 217.864 78.3898 217.89 77.7545 217.746C78.4286 212.166 79.044 207.22 79.6043 202.265C79.78 200.738 79.6535 199.153 79.9114 197.647C80.6672 193.296 81.5909 188.978 82.3621 184.629C82.745 182.46 82.8355 180.223 83.2429 178.06C83.504 176.671 83.6887 174.999 84.6207 174.083C87.2977 171.46 89.5261 168.658 90.3186 164.944C96.2524 163.317 102.669 162.76 107.343 158.333C108.031 162.422 110.808 165.502 113.42 168.588C114.932 170.371 116.949 171.789 118.713 173.397C120.911 175.405 121.92 177.967 122.827 180.529C123.452 182.314 123.818 184.166 124.231 185.994C124.817 188.591 125.062 191.257 125.97 193.766C126.693 195.772 128.119 197.629 129.369 199.482C130.844 201.673 132.453 203.791 134.04 205.919C134.464 206.492 134.951 207.068 135.52 207.515C137.9 209.375 139.306 211.762 140.749 214.252C141.479 215.505 142.03 217.687 144.513 217.43C147.36 221.204 152.326 221.311 155.986 223.699C158.63 225.431 161.373 226.932 163.328 229.504C164.349 230.844 165.956 231.821 167.51 233.146C169.228 233.305 169.296 231.804 169.324 230.656C169.364 229.432 169.165 228.052 168.58 226.933C167.309 224.518 166.889 222.06 166.572 219.498C166.043 215.213 164.936 210.939 164.597 206.663C164.341 203.425 164.126 200.243 163.107 197.07C162.481 195.125 161.584 193.371 160.051 191.801C158.035 189.732 156.476 187.202 154.229 185.42C150.719 182.635 148.345 179.07 145.398 175.912C142.949 173.281 139.894 171.68 136.591 171.164C133.057 170.611 130.075 169.152 127.227 167.345C124.052 165.326 120.912 163.586 117.13 162.801C115.415 162.446 113.757 161.303 111.888 160.872C111.184 160.712 110.483 159.65 110.078 158.883C108.909 156.656 107.897 154.362 106.807 152.101C104.99 148.363 103.104 144.652 101.38 140.886C100.932 139.908 100.68 138.702 100.861 137.722C101.883 132.181 101.7 126.525 101.805 120.882C101.87 117.71 102.72 114.583 103.464 111.502C104.057 109.034 104.343 106.631 103.343 104.096C103.247 103.858 103.407 103.551 103.487 103.004C104.827 104.077 106.092 104.95 107.184 105.989C110.753 109.372 114.164 112.86 118.238 115.792C120.297 117.277 121.574 119.714 123.325 121.625C125.646 124.157 128.117 126.575 130.467 129.09C131.894 130.62 133.252 132.212 134.561 133.83C137.52 137.494 141.036 140.575 145.15 143.105C146.075 143.673 146.633 144.78 147.547 145.386C152.626 148.761 157.799 152.008 162.86 155.414C164.876 156.775 167.081 157.697 169.228 158.778C170.616 159.478 171.794 160.578 173.155 161.343C176.867 163.421 180.891 165.104 184.275 167.57C186.308 169.053 189.453 170.035 189.786 173.105C192.787 176.324 194.526 180.116 196.446 183.875C197.264 185.474 196.886 186.899 197.273 188.389C198.261 192.155 199.114 195.95 199.84 199.752C200.635 203.892 201.118 208.06 201.976 212.189C202.346 213.994 203.455 215.715 203.98 217.52C204.528 219.397 204.931 221.323 205.111 223.233C205.261 224.862 204.849 226.489 204.954 228.123C205.094 230.151 204.428 231.731 203.384 233.441C200.353 238.428 197.661 243.609 194.892 248.747C194.444 249.574 194.114 250.538 194.053 251.474C193.838 255.044 192.105 258.054 190.828 261.238C190.257 262.661 189.617 264.07 189.231 265.549C188.444 268.568 190.29 271.03 191.996 273.532C192.976 274.965 193.931 276.46 194.555 278.023C195.909 281.389 197.228 284.788 198.216 288.231C199.246 291.838 199.775 295.526 200.712 299.149C201.15 300.845 202.048 302.459 202.714 304.123C202.947 304.704 203.133 305.305 203.304 305.903C203.864 307.853 204.286 309.835 205.011 311.735C205.274 312.431 206.253 312.936 207.078 313.686C209.891 310.251 213.259 307.941 216.77 305.712C219.224 304.153 221.18 301.946 223.271 299.946C223.727 299.512 223.804 298.737 224.055 298.119C225.027 295.728 226.107 293.374 226.927 290.927C227.477 289.302 228.005 287.557 227.918 285.844C227.766 282.838 227.415 279.771 226.619 276.814C225.513 272.723 224.835 268.672 225.241 264.584C225.796 259.058 224.836 253.485 224.026 247.973C223.598 245.059 221.734 242.229 220.561 239.35C218.684 234.734 214.6 231.413 211.844 227.327C210.021 224.625 208.566 221.717 207.064 218.855C203.281 211.64 202.846 203.917 201.383 196.351C200.87 193.685 200.33 191.017 200.314 188.195C200.717 189.038 201.222 189.857 201.518 190.726C203.15 195.463 206.282 199.437 209.455 203.438C211.774 206.359 213.734 209.514 215.762 212.612C216.947 214.418 218.163 216.252 218.976 218.186C219.776 220.1 220.136 222.151 220.61 224.15C221.471 227.789 222.219 231.452 223.114 235.086C223.778 237.789 224.196 240.476 224.569 243.207C225.045 246.718 225.194 250.541 228.621 253.343C231.29 255.529 233.792 257.912 236.582 259.953C238.564 261.405 239.828 263.288 240.838 265.187C242.008 267.391 243.872 268.753 245.949 269.635C250.076 271.377 254.363 272.721 258.593 274.209C258.977 274.341 259.414 274.323 259.826 274.375C261.042 273.211 260.83 271.936 260.149 270.579C257.458 265.212 256.76 259.516 255.583 253.898C255.014 251.188 254.622 248.401 253.543 245.828C252.855 244.189 251.283 242.558 249.687 241.508C247.875 240.322 247.3 239.092 246.845 237.211C245.877 233.185 244.869 229.117 242.331 225.447C240.571 222.897 239.186 220.149 237.456 217.579C235.675 214.929 233.375 212.984 229.857 212.356C226.633 211.783 223.465 210.729 220.297 209.8C218.322 209.217 216.656 208.253 215.331 206.56C213.747 204.534 211.38 202.931 210.112 200.796C208.292 197.725 205.659 195.073 204.525 191.619C203.412 188.228 201.783 184.95 200.421 181.615C200.12 180.883 199.98 180.101 199.647 178.932C202.7 182.141 205.848 184.534 209.213 186.784C210.778 187.835 212.11 189.473 213.868 190.41C217.382 192.277 221.018 193.937 224.536 195.797C226.895 197.045 229.096 198.573 231.442 199.84C237.482 203.105 242.489 207.667 248.017 211.572C252.106 214.458 255.096 218.236 257.033 222.541C257.964 224.598 258.043 226.928 258.57 229.128C259.26 232.005 260.025 234.871 260.75 237.744C261.061 239 261.391 240.249 261.626 241.51C262.006 243.526 262.293 245.498 263.689 247.337C266.528 251.079 266.361 255.136 265.685 259.19C265.432 260.697 265.162 262.207 265.088 263.734C264.938 266.73 264.636 269.743 264.937 272.74C265.197 275.297 266.063 277.88 266.945 280.387C267.669 282.452 268.817 284.419 269.786 286.425C270.047 286.966 270.228 287.578 270.626 288.024C272.57 290.196 274.384 292.523 276.613 294.409C278.996 296.424 280.778 298.685 282.504 301.166C284.899 304.62 287.825 307.774 290.53 311.058C290.66 311.216 290.781 311.47 290.941 311.51C295.096 312.576 297.349 316.435 301.173 317.955C302.479 318.475 303.092 320.362 305.063 319.725C305.276 317.925 304.161 316.391 303.225 314.856C300.474 310.349 298.918 305.77 299.996 300.735C301.088 295.628 300.87 290.313 300.27 285.074C299.756 280.545 297.419 276.298 295.099 272.183C293.39 269.155 291.294 266.302 289.446 263.334C288.318 261.52 287.43 259.587 286.28 257.787C283.737 253.817 280.676 250.364 275.954 248.375C272.203 246.795 268.658 244.837 265.716 241.98C264.545 240.849 263.718 239.795 263.376 238.174C262.86 235.738 262.581 233.337 262.301 230.901C261.989 228.255 260.985 225.594 259.992 223.019C258.715 219.711 257.147 216.479 255.416 212.57C257.36 213.722 258.879 214.454 260.201 215.433C264.65 218.729 269.353 221.422 274.642 223.406C281.7 226.052 288.705 229.007 295.08 233.085C297.752 234.791 300.003 237.11 302.465 239.13C305.066 241.272 307.668 243.401 310.294 245.51C314.166 248.625 318.104 251.662 322.572 253.993C327.441 256.537 332.599 258.041 337.991 258.851C342.678 259.555 347.327 260.632 352.01 261.372C354.722 261.801 357.495 262.117 360.194 262.054C361.998 262.014 363.741 261.27 365.481 260.769C367.243 260.255 368.951 259.605 370.716 259.096C371.966 258.736 372.991 258.24 373.244 256.919C373.3 256.64 373.377 256.299 373.586 256.138C375.529 254.681 375.505 252.698 374.563 250.703C373.472 248.404 374.158 246.53 375.24 244.643C374.123 242.829 372.436 241.74 370.529 241.023C366.22 239.404 361.88 237.898 357.552 236.348C356.14 235.84 354.674 235.457 353.324 234.817C349.506 232.997 345.604 231.828 341.373 231.485C339.258 231.313 337.056 230.359 335.051 229.421C329.465 226.809 323.805 226.345 318.083 227.432C311.677 228.648 305.106 228.691 298.535 228.984C294.311 229.173 290.932 227.874 287.374 226.122C285.575 225.241 283.629 224.651 281.803 223.81C277.44 221.808 273.106 219.726 268.76 217.673C268.469 217.538 268.182 217.395 267.907 217.237C264.95 215.558 261.899 214.01 259.066 212.157C256.498 210.472 253.954 208.744 251.504 206.859C248.669 204.674 245.398 202.94 242.172 201.288C238.852 199.591 235.307 198.331 231.947 196.704C224.105 192.902 215.918 189.663 209.208 183.948C209.146 183.892 209.146 183.767 209.028 183.37C210.4 183.437 211.735 183.315 212.995 183.59C217.344 184.542 221.541 184.269 225.783 183.727C229.152 183.294 232.611 183.535 236.057 184.367C237.485 184.714 238.994 185.071 240.405 184.997C245.571 184.728 250.052 186.594 254.486 189.152C257.781 191.055 261.364 192.49 264.747 194.262C271.436 197.764 278.038 201.416 284.736 204.884C288.013 206.581 291.404 208.073 294.793 209.535C296.137 210.115 297.604 210.508 299.04 210.737C302.548 211.298 306.084 211.948 309.593 212.134C312.599 212.295 315.732 212.27 318.542 211.591C322.451 210.641 326.437 210.282 330.447 209.894C331.237 209.817 332.09 210.079 332.914 210.16C337.135 210.586 341.3 211.978 345.585 211.661C346.372 211.602 347.399 212.122 348.114 212.627C349.745 213.784 351.082 215.587 352.857 216.248C356.713 217.685 360.15 221.112 365.063 219.276C364.836 218.721 364.701 217.715 364.118 217.025C360.209 212.418 355.822 208.268 350.527 205.007C349.553 204.404 348.675 203.591 347.921 202.751C345.051 199.564 342.271 196.344 340.293 192.583C338.81 189.764 335.788 188.162 333.048 186.739C330.09 185.198 326.745 184.096 323.475 183.48C319.852 182.797 316.471 181.329 312.886 180.634C309.583 179.993 306.253 178.744 303.005 178.71C297.676 178.648 292.366 179.177 287.512 181.187C285.094 182.19 282.674 183.046 279.732 182.614C275.585 182.004 271.822 183.436 268.398 184.967C264.722 186.61 260.913 185.972 257.086 186.073C253.851 186.159 251.19 184.491 248.249 183.708C243.434 182.43 238.643 181.046 233.644 181.502C231.595 181.687 229.542 181.345 227.429 180.621C224.26 179.533 221.02 178.597 217.584 178.563C213.646 178.524 209.91 176.96 206.178 175.648C205.19 175.299 204.09 175.138 203.23 174.607C201.283 173.411 199.46 172.038 197.585 170.738C197.665 170.541 197.745 170.355 197.825 170.158C199.17 170.373 200.517 170.559 201.855 170.804C205.156 171.411 208.455 172.261 211.767 172.593C214.217 172.837 216.793 172.736 219.125 172.231C225.26 170.898 231.495 169.892 237.375 167.742C240.343 166.659 243.693 165.699 247.281 166.549C248.08 166.735 249.089 166.848 249.751 166.556C252.304 165.429 255.014 165.877 257.733 166.155C258.464 166.225 259.29 166.499 259.918 166.313C265.245 164.738 270.949 164.003 275.799 161.332C276.313 161.048 276.927 160.721 277.173 160.25C278.993 156.766 283.059 155.451 285.654 152.682C286.965 151.274 289.127 150.504 291.028 149.654C294.397 148.139 295.79 145.395 296.717 142.19C297.666 138.909 299.099 135.774 299.908 132.456C300.403 130.451 300.485 128.196 300.088 126.105C299.43 122.63 298.277 119.197 297.254 115.758C297.085 115.18 296.532 114.671 296.157 114.134C295.547 114.516 294.642 114.761 294.367 115.311C292.835 118.389 290.376 120.432 286.872 121.451C285.009 122 283.188 122.639 281.329 123.203C275.693 124.9 273.11 129.046 271.551 133.989C270.862 136.184 270.369 138.445 269.716 140.656C269.039 142.958 267.129 144.425 265.442 145.997C264.016 147.326 262.383 148.46 260.889 149.721C258.472 151.753 256.965 154.389 255.557 157.093C254.889 158.368 254.118 159.595 253.454 160.873C252.424 162.849 250.813 163.448 248.297 163.609C243.11 163.941 237.964 164.772 233.247 166.702C231.403 167.456 229.673 168.254 227.45 167.873C226.55 167.72 225.574 167.992 224.659 168.16C221.418 168.745 218.194 168.903 214.838 167.927C213.436 167.519 211.899 167.674 210.458 167.37C206.04 166.441 201.636 165.416 197.228 164.414C196.818 164.319 196.392 163.977 196.03 164.018C191.448 164.539 188.457 161.747 185.122 159.264C181.504 156.567 177.465 154.387 173.665 151.9C171.986 150.805 170.425 149.535 168.85 148.297C167.642 147.353 166.497 146.339 165.39 145.409C168.54 145.209 171.558 144.932 174.604 144.837C178.236 144.714 181.882 144.747 185.529 144.714C186.251 144.708 186.976 144.669 187.704 144.709C189.986 144.832 192.207 144.809 194.475 145.907C198.026 147.627 201.762 148.979 205.421 150.486C205.818 150.648 206.221 150.932 206.614 150.943C212.324 151.092 218.146 153.021 223.741 151.258C225.933 150.568 227.784 149.177 230.256 149.069C232.857 148.959 235.439 148.721 238.039 148.616C241.298 148.487 244.609 149.583 247.857 148.944C250.198 148.482 252.514 147.84 254.725 147.167C256.03 146.768 256.752 144.721 257.462 143.286C258.11 141.972 258.966 140.994 260.263 140.202C262.474 138.86 263.458 136.59 264.196 134.358C265.287 131.046 267.536 128.595 270.129 126.003C269.734 125.453 269.293 124.844 268.848 124.223C265.02 125.695 261.287 126.697 257.179 126.282C255.297 126.091 253.36 126.04 251.555 125.511C248.621 124.649 245.694 124.667 242.834 124.766C240.263 124.855 237.445 125.155 235.339 126.267C231.185 128.469 226.975 127.668 222.601 126.638C221.675 126.421 220.784 125.998 219.851 125.798C213.316 124.402 207.763 125.63 203.723 130.331C201.908 132.435 200.426 134.799 198.806 137.05C196.33 140.5 193.213 142.837 188.164 142.376C185.764 142.154 183.356 142.462 180.948 142.396C177.502 142.3 174.086 141.995 170.632 141.256C166.288 140.33 161.864 139.937 157.491 139.166C156.076 138.912 154.567 138.429 153.363 137.664C148.78 134.754 144.2 131.811 139.81 128.641C134.889 125.084 130.579 120.982 127.345 115.915C124.767 111.877 122.023 107.839 118.771 104.246C116.149 101.354 112.643 99.1338 109.555 96.589C108.335 95.5861 107.216 94.473 106.006 93.4599C103.256 91.1522 100.405 89.0032 97.3796 86.9857C93.1472 84.1587 89.4353 80.6227 85.3416 77.5861C82.4196 75.4159 80.1767 72.6917 77.8784 70.0832C75.4888 67.3631 73.8646 64.0878 71.8549 61.0841C68.5213 56.0992 64.9339 51.255 60.3116 47.1675C57.3262 44.5224 54.0064 42.2046 51.0513 39.5389C48.9553 37.6433 47.1856 35.4265 45.3434 33.3035C43.1487 30.7782 41.0326 28.1954 38.897 25.633C38.4439 25.091 38.0247 24.5203 37.3279 23.623C40.3853 24.0614 43.0294 24.5622 45.678 24.7666C47.0798 24.8757 48.4897 24.4686 49.8932 24.2753C50.2796 24.2255 50.6371 24.0188 51.0258 24.0133C57.5813 23.9061 64.1414 23.4401 70.7072 23.8812C74.4634 24.1303 78.2867 24.9329 81.9707 24.429C87.0707 23.7276 92.2002 22.933 97.0752 21.5715C101.362 20.3797 104.84 20.6146 108.352 23.8913C112.03 27.3209 116.12 30.3657 119.862 33.7319C121.457 35.1709 122.754 36.9428 123.971 38.6856C125.633 41.0531 126.913 43.6458 128.677 45.9373C130.871 48.775 131.241 52.058 132.515 55.1145C132.967 56.2049 133.343 57.5221 134.215 58.2496C136.379 60.0637 138.336 62.0439 140.887 63.5581C143.195 64.9245 144.581 67.4572 145.622 69.9949C147.366 74.2362 147.144 78.5195 147.45 82.7994C147.499 83.4801 147.42 84.1627 147.533 84.8325C147.954 87.3143 148.565 89.6665 151.422 91.0292C152.855 91.7145 154.048 92.9173 155.49 93.5541C161.102 96.0188 164.315 100.028 165.92 105.474C166.606 107.816 168.02 110.096 169.472 112.204C171.11 114.576 175.592 114.474 177.306 111.994C178.871 109.734 180.628 107.504 180.545 104.45C180.507 103.02 181 101.615 181.241 100.199C182.232 94.471 182.466 88.6532 181.668 82.7795C181.102 78.5699 179.242 74.5721 177.534 70.5823C177.302 70.0393 176.883 69.4928 176.41 69.0963C172.484 65.7952 169.453 61.8745 166.475 57.8705C162.706 52.799 157.759 48.9036 151.934 45.9762C147.569 43.7801 142.917 43.4429 138.286 43.1437C135.512 42.9673 132.816 42.8624 130.241 41.4676C129.627 41.1355 128.807 41.1714 127.852 40.9954C125.204 35.1319 119.948 30.9585 114.998 26.5611C114.218 25.8685 113.396 25.2108 112.176 24.1838C113.275 24.1722 113.921 24.0804 114.552 24.1743C119.815 24.9726 125.034 25.2513 130.242 24.6351C133.196 24.2827 136.228 24.3062 139.229 24.191C139.518 24.1809 139.85 24.3435 140.131 24.4887C142.717 25.821 145.634 26.5598 147.761 28.7191C150.12 31.113 152.474 33.5292 155.001 35.7695C157.68 38.1427 160.519 40.3685 163.354 42.5783C168.159 46.3165 172.947 50.0711 177.875 53.6604C179.55 54.8785 181.58 55.6824 183.5 56.5684C188.442 58.8692 193.622 59.7372 198.968 60.0323C202.854 60.2413 206.751 61.0469 210.647 61.4956C217.007 62.2279 223.073 61.5632 228.72 59.2069C230.019 58.6603 231.293 58.0454 231.595 56.5109C231.891 55.0309 230.492 52.1032 228.57 51.1971C226.055 50.011 224.89 48.2715 224.57 45.8426C224.378 44.4078 223.507 43.4061 222.139 42.4598C218.594 40.0162 214.64 38.7578 210.542 38.0579C207.797 37.5908 205.312 36.6342 202.723 35.6709C198.441 34.0785 194.75 31.4373 190.606 29.6494C190.371 29.5479 190.241 29.203 189.808 28.6507C192.979 28.0311 195.841 27.1195 199.015 27.387C201.436 27.5845 203.86 27.9714 206.277 28.1286C209.099 28.3164 211.92 28.3207 214.741 28.4501C216.092 28.5136 217.46 28.5647 218.787 28.8342C221.501 29.3844 224.167 29.6873 226.929 29.8154C230.195 29.9687 233.485 31.0752 236.767 31.7746C237.59 31.9464 238.429 32.3135 239.222 32.28C241.55 32.1825 242.958 33.9931 244.852 34.7767C245.168 34.9033 245.411 35.3978 245.534 35.759C247.39 41.0209 250.568 45.7076 253.994 50.2415C256.994 54.2211 260.76 57.4095 265.455 59.7864C268.865 61.5082 272.161 63.4594 275.864 64.4028C277.543 64.8285 279.372 64.6796 281.115 64.6327C283.598 64.5632 286.12 63.7794 288.513 65.2837C289.92 66.165 291.155 67.2946 292.464 68.3163C293.959 69.4907 295.297 71.1894 296.983 71.734C300.249 72.7965 303.473 74.4665 307.07 74.0405C309.579 73.7468 312.079 74.0601 314.551 75.0593C315.387 75.3962 316.417 75.2102 317.344 75.3503C320.184 75.7717 322.724 76.9977 325.274 78.2901C326.496 78.9139 327.946 79.1111 329.486 79.559C329.767 77.178 328.86 75.4006 327.771 73.8576C325.334 70.4144 322.606 67.1346 320.038 63.7598C317.288 60.1335 314.631 56.4515 311.839 52.8501C311.109 51.9048 310.082 51.125 309.111 50.3546C308.231 49.6574 307.262 49.0421 306.292 48.4551C305.319 47.862 304.347 47.1299 303.282 46.8486C301.074 46.257 297.578 43.9256 296.662 41.9567C293.925 36.0985 288.743 33.9684 282.595 33.3178C281.779 33.2305 280.958 33.6172 280.14 33.5482C277.974 33.3692 275.739 33.3384 273.655 32.7571C267.736 31.1032 261.901 30.3373 255.832 30.7218C249.845 31.1031 243.773 31.1832 237.674 29.3746C232.911 27.9644 228.013 27.0158 223.149 26.0143C221.956 25.7691 220.67 26.0998 219.433 26.2061C216.409 26.4607 213.363 26.3688 210.406 25.3866C208.647 24.8007 207.016 24.2513 205.227 24.7787C204.822 24.8973 204.271 24.6693 203.25 24.5225C208.35 22.3533 213.225 21.2418 218.219 20.2254C221.996 19.4581 225.696 19.4762 229.488 19.8901C231.227 20.0771 232.966 20.7843 234.668 21.3791C237.945 22.5281 241.315 22.192 244.631 22.7034C247.764 23.1892 250.962 22.9906 254.088 23.5208C259.569 24.447 264.378 23.1147 269.265 21.5756C271.445 20.8895 273.958 20.9344 276.334 20.7273C279.395 20.4601 282.512 20.4623 285.525 20.0203C290.555 19.2836 295.599 18.462 300.057 15.7799C299.586 14.72 299.152 13.7343 298.712 12.7405C295.752 12.1132 292.832 11.6042 289.965 10.8627C287.126 10.1288 284.283 9.47961 281.406 8.97003C280.836 8.87328 280.279 8.43563 279.772 8.08195C277.903 6.77986 276.115 5.36372 274.19 4.15314C271.301 2.32925 268.01 1.78523 264.74 1.46672C261.407 1.14507 258.047 0.874213 254.734 0.927266C249.732 1.0164 245.1 2.12647 241.543 5.41883C238.866 7.89227 235.975 10.153 233.33 12.6643C231.545 14.3529 229.018 15.3706 226.78 16.6282C226.291 16.9033 225.623 16.9954 225.015 17.0121C219.235 17.1748 213.745 18.3817 208.366 19.9156C206.023 20.584 203.744 21.4631 201.554 22.4478C198.765 23.699 195.919 24.6749 192.675 24.5697C191.648 24.5359 190.607 24.5103 189.597 24.315C186.02 23.6379 182.526 23.377 178.95 23.8935C175.916 24.3317 172.739 24.1974 169.623 24.3162C169.533 24.1138 169.448 23.9134 169.363 23.713C170.056 23.3625 170.728 22.7138 171.449 22.7218C173.674 22.7386 175.198 21.5436 176.521 20.3675C180.651 16.6921 185.636 14.2907 190.601 11.7021C196.525 8.61811 203.043 7.70103 209.663 6.73613C213.103 6.23773 216.702 6.13021 219.559 3.93647C220.57 3.16003 222.177 2.96788 223.569 2.66385C227.365 1.85194 231.176 1.0902 235.008 0.380595C235.685 0.254053 236.497 0.623576 237.178 0.513109C238.799 0.250185 240.389 -0.127216 241.968 -0.528653C242.654 -0.699669 243.259 -1.28083 243.929 -1.28026C247.041 -1.26595 249.389 -2.80328 251.943 -3.95846C253.303 -4.57453 254.405 -5.39862 255.558 -6.33029C260.37 -10.207 264.954 -14.4514 271.118 -16.6618C273.424 -17.4909 275.886 -17.9976 278.179 -18.8366C278.945 -19.1176 279.425 -19.9833 279.974 -20.5213C277.971 -22.8054 275.756 -23.0199 273.338 -23.163C269.152 -23.4101 264.99 -23.5647 260.807 -23.6082C255.964 -23.6524 252.804 -21.3394 249.249 -19.3938C244.616 -16.8644 239.816 -15.1048 234.149 -14.5808C228.044 -14.0143 221.824 -12.9926 216.892 -9.336C212.027 -8.54317 209.925 -4.76743 207.173 -1.72034C205.891 -0.305001 204.867 1.32241 203.659 2.80324C202.19 4.60431 199.903 5.27788 197.733 6.11714C193.209 7.87082 188.7 9.64043 184.235 11.5062C183.241 11.9195 182.354 12.6437 181.629 13.404C179.491 15.6622 175.943 16.3214 174.152 18.9556C174.047 19.1123 173.885 19.2638 173.709 19.3369C169.359 21.0599 165.378 23.4954 160.042 22.9159C155.477 22.4282 150.886 22.7333 146.312 22.3769C142.968 22.1179 139.543 21.6846 136.31 20.7466C131.195 19.2668 126.12 17.6977 120.851 17.1858C115.301 16.6537 109.741 16.2568 104.183 15.88C100.509 15.6277 96.8196 15.3978 93.1528 15.3894C91.0826 15.3865 89.066 15.9312 86.999 16.1077C83.9133 16.3693 80.817 16.6551 77.706 16.6892C73.6681 16.7324 69.6094 16.5501 65.5578 16.4382C60.1792 16.2928 54.9287 16.833 49.6969 17.5786C43.917 18.4005 38.0218 18.2584 32.1378 17.2693C30.6263 17.0166 28.9716 15.9514 27.816 14.8609C21.9356 9.31137 16.3774 3.4629 10.3681 -1.94973C4.8894 -6.88805 -1.02424 -11.4029 -6.74136 -16.112C-8.62075 -17.6639 -10.4132 -19.3179 -12.3512 -20.8085C-15.7965 -23.4451 -19.2721 -26.061 -22.8273 -28.567C-29.9722 -33.5986 -36.4284 -39.3436 -42.6335 -45.322C-44.4105 -47.0367 -45.6584 -49.2065 -47.2138 -51.1239C-51.1725 -56.0031 -55.749 -60.3212 -61.0295 -63.9901C-62.0489 -64.6995 -63.0165 -65.218 -64.3315 -64.5582C-64.0623 -63.0802 -62.7552 -62.1794 -61.6372 -61.4372C-56.8497 -58.2552 -53.0614 -54.1376 -49.6374 -49.8597C-45.6972 -44.9499 -41.298 -40.4822 -36.6675 -36.1649C-34.8449 -34.469 -32.9591 -32.8325 -31.1968 -31.0712C-36.5955 -33.0732 -41.04 -36.3911 -45.1817 -40.1125C-46.7433 -41.5178 -48.1368 -43.0766 -49.6611 -44.5187C-50.5462 -45.3529 -51.2266 -46.5992 -52.8054 -46.3228L-52.7555 -46.3638ZM68.4682 60.8741C70.4083 61.5764 70.2211 63.4157 70.6729 64.8811C69.9506 63.5204 69.2265 62.1637 68.5088 60.805C67.0747 60.3354 66.6424 59.2105 66.6062 57.8764C67.2269 58.8756 67.8476 59.8749 68.4682 60.8741ZM192.752 170.111C191.121 170.273 189.809 169.457 188.664 167.51C190.677 167.522 191.384 169.29 192.724 170.128C193.401 170.896 194.083 171.667 195.009 172.716C193.122 172.301 192.593 171.438 192.752 170.111ZM96.4886 128.516C96.2833 127.773 95.481 127.008 96.6727 125.838C96.7084 127.061 97.402 127.842 96.4072 128.481C97.7495 131.302 97.6823 131.918 95.5269 133.842C95.8844 131.869 96.1896 130.191 96.4886 128.516ZM100.367 92.1871C103.296 92.6375 104.317 94.9738 105.744 96.9031C106.275 97.1274 106.913 97.2394 107.314 97.5905C108.654 98.7509 109.733 100.28 111.228 101.17C114.918 103.364 117.435 106.509 120.018 109.626C120.852 110.64 121.527 111.764 122.274 112.842C122.1 112.973 121.923 113.109 121.748 113.24C120.196 111.839 118.643 110.438 117.086 109.034C117.999 110.824 119.387 112.246 120.586 113.783C121.902 115.472 123.041 117.272 124.256 119.019C126.28 119.801 126.916 121.697 128.164 123.097C126.689 121.864 124.757 120.982 124.302 118.952C123.793 118.675 123.178 118.496 122.798 118.121C119.219 114.613 115.632 111.111 112.144 107.528C108.816 104.109 104.351 101.61 102.332 97.1249C101.055 97.2237 100.575 97.8253 100.666 98.8461C100.889 101.276 101.195 103.714 101.375 106.144C101.492 107.715 101.433 109.283 101.454 110.851C101.191 110.839 100.934 110.824 100.671 110.812C100.238 105.086 99.8073 99.3563 99.3389 93.1533C101.459 94.9438 103.316 96.2985 104.893 97.893C107.105 100.128 109.091 102.553 111.199 104.868C112.443 106.237 113.979 107.256 116.073 108.646C115.594 107.568 115.517 107.024 115.183 106.703C113.24 104.815 111.162 103.038 109.276 101.103C107.989 99.7825 106.933 98.2633 105.777 96.826C103.482 95.7639 101.927 93.9573 100.402 92.1201C98.7998 91.4675 97.0277 91.035 96.266 89.2434C98.11 89.5962 99.481 90.5727 100.367 92.1871ZM33.134 20.7067C33.8371 20.1343 34.4313 20.9585 34.904 20.9699C35.7107 20.9907 36.467 20.2824 37.2672 19.9203C37.4042 19.8639 37.6758 20.0677 37.8747 20.0669C41.696 20.0409 45.624 20.4267 49.3091 19.8704C55.1341 18.9813 60.9286 18.3244 66.9983 18.821C65.4603 20.3085 63.8027 21.0659 61.6769 21.217C57.953 21.4775 54.1417 21.4308 50.5139 22.0407C46.2268 22.7608 41.9637 22.2064 37.6587 21.8986C36.7786 21.8365 35.8905 21.9297 35.0879 21.9492C34.7107 25.1742 37.4114 27.0613 38.635 29.6729C35.6655 28.5457 31.2415 24.2598 30.0628 21.6434C31.0893 21.3164 32.1159 20.9893 33.1494 20.646C31.732 20.6601 30.3192 20.6761 28.7677 20.6901C25.2624 17.4838 21.6464 14.0614 18.9275 9.95284C21.454 12.0198 23.7052 14.3144 26.1138 16.4556C27.7016 17.8625 29.1082 19.7639 31.7811 19.3772C32.1073 19.3302 32.6755 20.2395 33.134 20.7067ZM168.04 153.073L168.075 152.992C168.161 153.178 168.199 153.464 168.339 153.524C172.425 155.398 175.946 158.081 179.549 160.651C180.731 161.493 181.638 162.39 181.969 164.183C180.687 163.375 179.832 162.794 178.941 162.271C171.32 157.808 163.69 153.366 156.084 148.882C154.724 148.078 153.435 147.147 152.172 146.207C149.195 143.99 146.195 141.79 143.309 139.462C141.405 137.929 139.59 136.265 137.924 134.517C136.194 132.706 134.717 130.707 133.084 128.819C131.81 127.345 130.473 125.917 129.162 124.466C129.35 124.316 129.538 124.166 129.726 124.016C132.119 126.468 134.366 129.069 136.952 131.335C139.709 133.751 142.898 135.738 145.694 138.124C150.436 142.172 151.876 143.212 154.626 143.715C151.975 140.906 147.964 139.767 145.916 136.367C150.113 137.374 168.192 149.847 171.011 153.512C170.067 153.375 169.053 153.226 168.04 153.073ZM211.746 260.677C210.055 263.85 210.527 267.557 209.65 270.946C208.899 273.842 209.8 276.916 210.814 279.865C211.833 282.827 212.301 285.733 212.055 288.817C211.86 291.197 211.54 293.518 211.192 295.866C210.586 299.945 208.821 303.49 207.148 307.119C206.948 307.557 206.528 307.895 206.095 308.426C205.275 306.075 204.542 304.016 203.828 301.952C203.4 300.718 202.885 299.5 202.599 298.246C201.802 294.769 201.204 291.268 200.335 287.798C199.918 286.127 198.733 284.533 198.473 282.871C197.766 278.341 195.774 274.301 192.831 270.562C191.61 269.015 191.555 267.413 191.914 265.773C192.121 264.846 192.464 263.95 192.806 263.059C193.828 260.391 195.29 257.836 195.84 255.056C196.87 249.822 199.564 245.392 202.122 240.894C204.332 237.016 207.049 233.405 207.812 228.59C210.656 234.187 211.938 239.711 212.542 245.299C212.991 249.458 213.216 253.65 212.269 257.712C212.035 258.727 211.887 259.766 211.696 260.805C212.901 261.036 213.09 260.174 213.281 259.458C214.944 253.289 214.167 246.895 213.279 240.569C212.884 237.804 211.36 235.092 210.351 232.356C209.994 231.38 209.302 230.397 210.156 229.125C211.229 230.507 212.038 231.766 213.067 232.84C217.228 237.176 219.83 242.163 221.237 247.621C221.723 249.505 221.638 251.48 222.137 253.36C223.441 258.235 222.59 263.007 222.638 267.807C222.658 269.552 222.604 271.208 223.054 272.962C223.883 276.202 224.625 279.472 225.117 282.745C225.39 284.552 225.592 286.607 224.941 288.179C223.081 292.651 222.427 297.724 218.58 301.281C216.495 303.202 214.484 305.164 211.661 306.222C210.868 306.519 210.162 306.985 209.022 307.576C209.57 306.032 209.862 304.709 210.477 303.555C212.213 300.305 212.673 296.639 213.286 293.116C214.156 288.088 213.63 282.928 211.678 277.789C210.613 274.995 210.882 272.022 211.532 269.17C212.156 266.407 212.876 263.618 211.746 260.677ZM331.401 245.32C327.863 243.644 324.356 241.91 320.783 240.315C317.102 238.674 313.398 237.071 309.63 235.643C305.921 234.24 302.125 233.088 298.367 231.823C299.325 231.37 300.23 231.323 301.14 231.354C306.84 231.552 312.54 231.398 317.913 230.102C324.156 228.604 329.979 229.524 335.93 232.211C337.908 233.099 340.197 233.677 342.321 233.766C344.814 233.87 346.995 234.835 349.255 235.555C353.581 236.935 357.86 238.521 362.112 240.134C365.464 241.407 369.111 242.095 372 244.665C371.668 245.759 371.343 246.822 371.058 247.757C368.211 248.56 365.066 247.193 362.035 249.081C363.344 249.155 364.047 249.193 364.749 249.232C366.408 249.317 368.078 249.277 369.725 249.516C372.257 249.877 373.289 251.179 372.345 253.144C371.625 254.652 370.542 256.615 369.078 257.023C366.025 257.881 363.324 259.574 359.933 259.699C355.414 259.862 350.989 259.185 346.581 257.995C345.047 257.584 343.519 257.107 341.965 256.841C338.95 256.33 335.897 256.08 332.894 255.478C328.845 254.664 324.753 253.279 321.447 251.04C315.506 247.023 310.088 242.294 304.485 237.817C303.132 236.737 301.921 235.502 300.643 234.335C301.446 234.09 301.922 234.242 302.39 234.401C305.319 235.386 308.264 236.334 311.172 237.381C313.154 238.097 315.209 238.757 317.015 239.796C321.484 242.36 325.812 245.165 331.401 245.32ZM266.953 247.509C267.714 247.534 268.425 247.393 269.015 247.604C275.3 249.84 280.719 253.063 283.852 259.011C284.893 260.976 286.155 262.877 287.516 264.686C290.073 268.1 292.582 271.501 293.768 275.531C294.074 276.563 294.759 277.537 295.349 278.494C296.737 280.739 297.741 283.15 298.004 285.588C298.602 291.019 298.375 296.383 297.065 301.621C296.633 303.355 296.513 305.238 297.483 307.095C297.795 307.701 297.688 308.473 297.818 309.564C296.653 308.272 295.839 307.372 295 306.442C293.737 307.394 294.597 308.073 295.233 308.727C297.171 310.728 297.179 310.722 297.463 312.712C292.185 309.486 288.001 305.564 285.01 300.443C283.426 297.734 281.445 295.238 278.594 293.238C276.313 291.633 274.177 289.422 272.863 287.094C270.323 282.62 267.408 278.268 267.661 272.857C267.927 267.091 267.452 261.251 269.429 255.487C270.2 257.22 270.845 258.76 271.56 260.276C271.903 260.997 272.366 261.678 272.787 262.369C274.641 265.397 276.651 268.363 278.312 271.466C279.702 274.077 280.526 276.844 280.986 279.732C281.488 282.874 282.663 285.971 283.399 289.103C283.813 290.855 283.64 292.725 284.267 294.405C284.959 296.258 286.273 297.951 287.315 299.715C287.522 300.069 287.7 300.439 287.934 300.781C289.49 303.069 291.56 304.852 294.198 306.101C293.602 305.045 292.803 304.147 291.945 303.3C288.971 300.381 286.526 297.117 285.5 293.301C284.191 288.449 283.341 283.515 282.166 278.639C281.571 276.188 281.012 273.666 279.88 271.377C277.513 266.588 274.963 261.84 272.084 257.268C271.059 255.628 270.158 253.997 269.414 252.276C269.02 251.36 268.838 250.377 268.418 249.474C268.13 248.859 267.579 248.332 266.953 247.509ZM158.699 269.512C157.817 269.492 157.203 269.608 156.677 269.434C151.06 267.578 145.355 265.964 139.954 263.47C139.193 263.118 138.319 262.918 137.492 262.831C132.701 262.319 127.912 261.865 123.124 261.382C122.919 261.361 122.716 261.259 122.514 261.191C118.051 259.67 114.094 257.274 111.413 253.601C108.941 250.215 106.853 246.547 105.019 242.849C102.086 236.911 97.8129 232.088 91.9631 228.458C89.421 226.875 87.2406 225.001 84.9662 222.648C87.9999 221.96 90.8644 221.713 93.4972 222.974C97.716 224.987 101.735 227.4 105.844 229.644C108.337 231.004 110.833 231.873 113.473 230.467C114.03 230.173 114.923 229.981 115.504 230.188C117.731 230.985 119.754 232.229 120.912 234.234C122.64 237.218 123.537 240.588 126.331 243.079C126.619 243.333 126.692 243.797 126.891 244.157C129.702 249.37 132.62 254.608 137.438 258.554C141.618 261.974 146.381 264.617 151.652 266.342C153.952 267.094 156.626 267.165 158.699 269.512ZM149.243 27.1497C151.807 27.077 151.814 27.0608 153.096 27.9458C154.846 29.1629 156.606 30.3698 158.314 31.6358C162.629 34.8306 167.532 36.128 172.734 36.6207C175.106 36.8451 177.468 37.4023 179.835 37.6005C182.298 37.8115 184.083 39.26 186.14 40.3255C190.528 42.604 194.983 44.579 199.926 45.7972C204.298 46.8702 208.616 48.3049 213.093 48.8361C215.668 49.1483 218.28 49.3754 220.831 49.2968C221.857 49.2682 222.437 49.5422 223.042 50.0921C224.915 51.7953 226.288 53.9996 228.806 55.0667C228.982 55.1428 229.004 55.59 229.175 56.1017C225.952 57.9499 222.463 59.0578 218.507 59.1986C210.199 59.498 201.919 57.8937 193.641 57.0314C188.167 56.4599 182.889 54.563 178.191 51.4725C174.487 49.0371 171.524 45.6558 167.373 43.7733C167.278 43.7323 167.208 43.6445 167.121 43.5732C162.263 39.7349 157.81 35.4897 153.22 31.3775C151.916 30.2085 150.821 28.841 149.243 27.1497ZM175.886 109.924C174.177 107.232 173.081 104.748 172.721 102.1C172.198 98.2605 172.691 94.5076 171.357 90.5346C170.054 86.652 168.281 83.3465 165.276 80.4235C164.463 79.6346 163.522 78.8919 162.939 77.9809C160.569 74.2827 158.289 70.5369 156.03 66.7807C154.929 64.9536 154.012 63.0372 152.901 61.2102C150.967 58.0422 148.097 55.591 145.209 53.1804C143.023 51.3566 140.773 49.5922 138.524 47.8277C137.514 47.0356 136.443 46.3089 134.86 45.1641C139.463 44.4213 143.563 44.8188 147.201 45.9264C153.035 47.7025 157.746 51.4723 161.569 56.1921C164.614 59.9553 167.956 63.5288 171.165 67.1848C172.668 68.9014 174.637 70.444 175.591 72.3619C179.261 79.715 180.568 87.2951 179.189 95.0303C178.682 97.8721 178.487 100.786 178 103.632C177.648 105.679 177.455 107.819 175.886 109.924ZM79.9711 249.337C80.1687 249.302 80.3618 249.265 80.5531 249.232C81.6045 251.596 82.6102 253.979 83.7073 256.325C84.6389 258.319 85.4823 260.382 86.7083 262.229C88.3964 264.772 90.4203 267.171 92.2957 269.577C94.0778 271.853 95.6964 274.158 97.0656 276.606C98.3429 278.895 99.1725 281.226 99.4078 283.902C99.8218 288.676 99.9366 293.721 104.021 297.774C105.123 298.865 106.277 299.921 107.278 301.084C108.95 303.028 110.192 305.138 110.046 308.125C107.463 307.271 105.111 306.665 102.902 305.717C100.567 304.71 98.364 303.398 96.1153 302.192C92.2884 300.142 89.0992 297.534 86.8153 293.897C85.3126 291.497 84.4352 289.015 83.4975 286.45C80.9664 279.53 80.9676 272.5 80.2512 265.517C79.7325 260.5 80.5344 255.495 79.8127 250.438C79.7605 250.074 79.9153 249.703 79.9711 249.337ZM17.232 171.432C17.131 171.268 17.0363 171.102 16.9398 170.941C17.9545 169.944 19.0945 169.031 19.9694 167.936C23.1782 163.907 27.6683 161.758 32.9273 160.663C38.936 159.411 45.101 158.803 50.9041 156.721C57.0747 154.508 63.8056 153.51 69.8912 150.972C71.1341 150.454 72.7838 150.3 74.1843 150.524C80.8605 151.604 87.5569 152.713 93.9642 155.213C95.7702 155.915 97.5885 156.589 99.8247 157.438C98.2942 158.212 97.3164 158.998 96.1647 159.242C92.4456 160.039 88.6846 160.721 84.9022 161.279C83.3938 161.504 81.7701 161.424 80.2117 161.242C77.0688 160.878 73.9225 160.459 70.8038 159.864C68.0541 159.346 65.5375 159.632 63.2045 160.724C61.1462 161.688 59.1771 162.807 57.1813 163.876C56.23 164.389 55.3345 164.984 54.3776 165.486C53.782 165.797 53.1381 166.058 52.4772 166.259C51.3106 166.612 50.1238 166.937 48.9229 167.208C47.2651 167.581 45.6065 167.967 43.9138 168.209C41.6856 168.523 39.357 168.51 37.1994 169.008C35.6189 169.375 34.1804 169.351 32.7101 168.717C31.0922 168.014 29.6468 168.242 28.1084 168.661C24.5076 169.644 20.8587 170.514 17.232 171.432ZM7.28397 173.569C7.65417 172.637 8.51431 172.907 9.34424 173.135C10.3096 173.397 11.2563 173.753 12.2323 173.929C14.3232 174.306 15.9482 173.313 17.7865 172.759C21.949 171.494 26.3125 170.697 30.6122 169.761C31.1796 169.64 31.9082 169.68 32.4591 169.908C35.2913 171.067 37.9118 170.591 40.6166 169.943C42.2571 169.549 44.0582 169.566 45.7962 169.493C49.2084 169.358 51.9194 167.601 55.0194 166.735C55.1054 166.709 55.159 166.598 55.2493 166.55C56.3768 165.939 57.5115 165.337 58.6481 164.73C59.6102 164.216 60.6418 163.79 61.5109 163.169C62.9437 162.137 64.6243 161.712 66.3997 161.39C70.1499 160.708 73.9604 161.129 77.6685 162.075C82.2134 163.232 86.4093 162.636 90.6314 161.681C91.678 161.445 92.7515 161.282 93.8147 161.082C91.1777 162.268 88.5198 163.802 85.7006 163.856C80.8119 163.956 77.2932 166.34 73.7182 168.47C69.5678 170.938 65.3837 173.16 60.5837 174.472C59.0264 174.898 57.6008 175.64 56.0809 176.177C51.6907 177.734 47.332 179.366 42.8714 180.762C38.4467 182.149 33.7478 180.988 29.1605 180.563C25.612 180.231 22.0467 179.689 18.6631 178.339C14.897 176.844 11.1842 175.214 7.28397 173.569ZM116.462 165.343C119.967 166.162 123.556 166.825 126.31 169.447C126.975 170.081 127.898 170.58 128.783 170.904C131.18 171.765 133.613 172.545 136.054 173.266C139.155 174.19 142.346 175.225 144.267 177.801C146.775 181.154 150.112 183.744 152.925 186.787C155.341 189.398 158.05 192.024 159.537 195.044C161.249 198.515 162.608 202.317 162.163 206.234C162.036 207.363 162.103 208.624 162.506 209.717C163.894 213.453 164.282 217.23 164.387 221.043C164.411 221.833 164.43 222.621 164.456 223.407C163.4 222.249 162.856 221.071 162.361 219.88C160.939 216.485 159.629 213.052 158.09 209.693C157.492 208.391 155.994 207.336 155.588 206.025C154.856 203.693 153.159 202.316 151.185 201.021C148.358 199.176 145.262 197.585 142.787 195.386C138.01 191.146 133.299 186.803 130.357 181.135C129.065 178.634 127.396 176.181 125.456 174.05C122.668 170.985 119.477 168.231 116.462 165.343ZM174.238 111.07C172.425 111.64 171.776 111.653 171.225 110.641C169.963 108.33 168.844 105.961 167.712 103.596C167.364 102.873 167.298 102.032 166.885 101.348C164.205 96.9485 160.68 93.3151 155.74 90.972C154.588 90.4218 153.287 89.8656 152.488 88.9818C151.334 87.714 150.176 86.2183 149.755 84.6941C149.239 82.8304 149.352 80.8289 149.421 78.9146C149.729 70.9003 146.758 64.3397 139.014 59.5162C136.715 58.0912 134.917 56.0401 134.182 53.2784C133.391 50.3098 132.017 47.4362 130.884 44.4785C131.216 44.5928 131.767 44.6717 132.194 44.9378C135.316 46.8814 138.492 48.7233 141.093 51.3759C143.072 53.3942 145.536 55.0205 147.483 57.0634C151.033 60.7992 153.865 64.9566 156.058 69.4879C157.983 73.4605 160.265 77.2991 163.733 80.4313C165.778 82.2712 167.496 84.2347 168.204 86.8597C168.804 89.087 169.851 91.2374 170.452 93.4648C170.824 94.8284 170.921 96.2948 170.792 97.6635C170.621 99.428 170.642 102.613 171.169 104.13C171.788 105.927 172.345 107.746 173.041 109.529C173.269 110.108 173.854 110.592 174.238 111.07ZM212.164 139.348C211.941 143.135 209.491 143.416 206.61 143.304C205.079 143.245 203.576 143.742 202.04 143.758C200.34 143.78 198.611 143.534 196.613 143.389C198.235 141.582 199.653 140.235 200.784 138.697C202.365 136.55 203.901 134.344 205.147 132.004C207.535 127.539 215.546 126.683 220.195 128.208C225.639 129.994 230.978 131.152 236.15 128.205C238.048 127.128 240.584 126.947 242.838 126.375C243.314 126.253 243.836 126.088 244.316 126.17C248.565 126.868 252.813 127.632 257.06 128.348C258.07 128.519 259.087 128.588 260.647 128.765C259.148 130.659 258 132.252 256.676 133.702C256.137 134.293 255.27 134.722 254.443 134.948C253.069 135.322 251.629 135.625 250.186 135.686C247.047 135.823 244.041 136.273 241.162 137.312C240.348 137.605 239.338 137.521 238.413 137.574C237.598 137.622 236.767 137.571 235.963 137.658C233.488 137.908 231.027 138.213 228.561 138.482C224.795 138.903 220.926 138.841 217.416 140.334C216 140.941 214.239 140.956 212.164 139.348ZM325.42 74.6913C325.312 74.7937 325.2 74.9041 325.091 75.0065C322.193 72.8803 319.258 70.7909 316.401 68.6198C312.593 65.7162 308.421 63.3339 304.071 61.3896C300.792 59.9221 297.152 59.3044 293.75 58.0724C290.997 57.0772 288.184 55.9982 285.72 54.4687C282.583 52.5233 279.754 50.1139 276.825 47.8591C273.862 45.5746 270.259 45.1801 266.84 44.3355C265.618 44.0343 264.482 43.8811 263.316 43.2001C259.783 41.1414 256.132 39.2678 252.526 37.3271C253.607 36.5758 254.573 36.2517 255.567 36.2617C257.966 36.2862 260.378 36.4656 262.787 36.5907C270.121 36.9685 277.077 39.0411 283.755 42.1963C289.303 44.8212 294.715 47.7383 300.764 49.1645C304.257 49.988 307.153 51.8823 309.38 54.6188C311.147 56.7913 312.847 59.0071 314.594 61.1899C318.199 65.6951 321.814 70.1901 325.42 74.6913ZM248.738 36.7417C249.403 36.9661 249.735 37.0038 249.96 37.1679C251.88 38.5882 253.638 40.285 255.721 41.4147C259.62 43.5348 263.679 45.4449 268.092 46.1988C271.026 46.6995 273.825 47.4501 276.297 49.171C278.45 50.6727 280.691 52.0965 282.674 53.7801C287.435 57.8213 293.302 59.3711 299.008 61.3324C301.704 62.2599 304.509 63.0467 307 64.3763C310.231 66.1025 313.295 68.18 316.231 70.3561C317.26 71.1177 319.07 71.4992 319.196 73.2857C318.771 73.2998 318.424 73.4197 318.185 73.3021C315.293 71.9197 312.252 71.5073 309.191 71.6112C306.243 71.7155 303.386 71.3589 300.51 70.4501C297.8 69.5934 295.547 68.3714 293.919 65.9893C292.633 64.1063 290.778 62.4351 288.335 62.1653C285.743 61.8796 282.985 61.6183 280.571 62.1505C277.465 62.8317 274.765 62.1623 272.013 60.8546C269.608 59.7114 267.243 58.4889 264.885 57.2502C263.853 56.7084 262.676 56.215 261.915 55.4153C258.689 52.0217 255.04 48.9122 252.998 44.6771C251.749 42.088 250.272 39.5788 248.738 36.7417ZM265.68 191.975C265.771 191.764 265.862 191.553 265.955 191.338C266.238 191.33 266.526 191.271 266.797 191.326C269.91 191.947 273.015 192.835 276.139 193.157C279.509 193.505 282.766 193.73 285.836 195.594C287.002 196.299 288.811 196.05 289.949 196.782C292.468 198.407 295.189 198.344 297.854 198.609C301.125 198.938 304.405 199.01 307.683 199.211C311.54 199.451 315.248 200.459 318.997 201.557C321.641 202.332 324.75 202.975 327.216 202.408C330.701 201.607 334.306 202.666 337.681 201.822C338.029 201.736 338.603 202.196 339.04 202.452C342.137 204.231 343.333 207.316 345.531 209.92C344.903 210.121 344.517 210.392 344.175 210.327C341.904 209.895 339.637 209.427 337.381 208.897C332.321 207.69 327.41 207.704 322.532 208.924C320.157 209.516 317.632 209.981 315.144 209.928C310.674 209.828 306.165 209.432 301.688 208.877C299.318 208.586 296.897 207.917 294.644 207.031C291.774 205.899 289.038 204.416 286.277 203.017C281.58 200.644 276.884 198.257 272.229 195.801C269.996 194.621 267.859 193.257 265.68 191.975ZM73.9567 241.151C73.5968 243.44 73.109 245.79 72.8844 248.176C72.2501 254.808 69.501 260.508 65.3901 265.621C62.9885 268.612 59.3407 269.94 55.7037 271.268C51.7254 272.728 47.9007 274.379 45.3798 277.771C44.3678 279.135 43.0827 280.322 41.84 281.523C36.9808 286.231 30.4049 288.201 23.263 290.688C24.3691 288.995 24.9673 287.795 25.8382 286.809C27.2879 285.177 27.9615 283.293 28.6928 281.274C29.7819 278.265 31.6077 275.439 34.9937 274.046C36.3826 273.476 38.0873 273.331 39.2393 272.514C43.1556 269.743 47.9602 268.283 51.5556 264.888C54.3539 262.245 56.5243 259.341 58.4681 256.229C60.6052 252.806 62.6736 249.367 66.0008 246.842C68.5495 244.915 71.2122 243.109 73.9567 241.151ZM163.352 225.654C158.946 222.993 154.745 220.232 149.978 218.407C146.672 217.139 143.389 215.756 142.145 212.135C141.997 211.706 141.434 211.381 141.081 210.993C139.195 208.923 137.143 206.95 135.471 204.742C133.169 201.708 131.104 198.522 129.044 195.347C128.393 194.345 127.892 193.204 127.631 192.081C126.789 188.436 126.242 184.74 125.279 181.115C124.753 179.136 123.923 177.08 122.688 175.377C120.938 172.967 118.674 170.864 116.658 168.608C116.319 168.226 116.107 167.759 115.831 167.328C120.839 171.057 125.313 175.128 128.372 180.351C130.273 183.606 132.342 186.785 134.371 189.979C134.636 190.397 135.085 190.75 135.513 191.064C138.744 193.45 141.999 195.807 145.224 198.194C147.661 199.996 150.424 201.564 152.408 203.719C155.17 206.72 157.257 210.094 158.362 214.05C159.448 217.95 161.593 221.671 163.352 225.654ZM264.293 189.456C264.333 189.166 264.372 188.875 264.412 188.584C267.603 187.569 270.773 186.526 273.98 185.561C275.142 185.206 276.378 184.743 277.587 184.812C280.5 184.976 283.412 185.453 286.331 185.74C287.889 185.898 289.484 186.095 291.007 185.973C297.447 185.46 303.494 186.707 309.13 190.298C312.59 192.503 316.142 193.934 320.355 193.062C322.344 192.655 324.683 192.557 326.692 193.684C329.654 195.351 332.52 197.18 335.373 199.012C335.891 199.341 336.164 200.027 336.749 200.823C335.663 200.74 335.026 200.749 334.412 200.629C331.574 200.068 328.852 200.034 326.063 200.64C324.448 200.988 322.534 200.648 320.791 200.334C318.518 199.931 316.288 199.204 314.025 198.69C309.014 197.543 303.98 197.258 298.943 197.342C294.662 197.414 290.765 195.762 286.778 194.369C283.898 193.358 280.915 192.075 277.992 191.897C273.721 191.633 269.709 190.138 265.536 189.622C265.118 189.572 264.708 189.515 264.293 189.456ZM79.2123 243.447C79.3623 243.348 79.5122 243.249 79.6622 243.15C82.3328 244.635 85.3975 245.74 87.5717 247.703C89.8861 249.789 92.2817 251.824 94.5472 253.961C96.3729 255.687 97.9014 257.617 98.6437 260.026C99.3964 262.473 100.309 264.922 101.478 267.25C102.611 269.5 104.168 271.586 105.514 273.755C106.595 275.502 107.606 277.275 108.716 279.006C109.752 280.622 111.282 281.989 110.788 284.154C110.584 285.062 111.371 286.224 111.668 287.276C111.856 287.935 112.162 288.644 112.076 289.266C111.656 292.179 112.418 295.29 110.919 298.055C110.385 299.032 110.541 300.361 110.322 301.95C107.301 298.679 103.677 296.196 102.431 292.193C101.656 289.723 101.067 287.158 100.891 284.643C100.457 278.498 97.3589 273.364 93.3417 268.484C91.5619 266.316 89.4924 264.234 88.231 261.847C85.0202 255.794 82.1919 249.588 79.2123 243.447ZM81.1451 222.101C81.9262 222.53 82.9626 222.789 83.4427 223.405C85.8229 226.458 89.3031 228.205 92.4062 230.391C95.8126 232.794 99.0556 235.377 101.213 238.834C103.496 242.485 105.551 246.255 107.684 249.98C108.782 251.888 109.647 253.912 111.255 255.559C114.957 259.355 119.321 261.902 124.756 262.538C127.691 262.876 130.615 263.522 133.548 263.839C137.545 264.264 141.483 264.751 145.036 267.025C145.523 267.34 146.294 267.206 146.893 267.412C147.586 267.658 148.232 268.052 148.901 268.379C148.851 268.569 148.799 268.764 148.749 268.954C147.735 268.93 146.712 268.85 145.706 268.892C142.893 269.007 139.944 268.778 137.317 269.431C134.725 270.078 132.201 270.606 129.473 270.772C124.929 271.054 120.656 270.611 116.594 267.973C112 264.989 107.353 262.017 104.511 257.422C102.264 253.787 100.516 249.915 98.5852 246.132C96.6313 242.315 94.8269 238.437 91.0158 235.691C89.6528 234.708 88.4875 233.479 87.1493 232.464C83.6397 229.79 83.0646 225.749 81.1451 222.101ZM221.697 47.6253C218.815 47.4263 216.32 47.3266 213.836 47.0635C211.134 46.7732 208.419 46.4488 205.744 45.9203C203.569 45.4874 201.466 44.5656 199.292 44.157C196.216 43.5757 193.346 42.5156 190.628 40.9917C185.174 37.936 179.577 35.7857 173.206 35.5394C168.615 35.3586 164.028 34.0769 160.054 31.2462C159.254 30.6749 158.227 30.3952 157.368 29.8852C155.887 29.001 154.25 28.2077 153.465 25.9971C156.631 26.2707 159.687 25.8664 162.153 26.8919C167.466 29.0927 172.53 29.1458 177.895 28.5778C181.021 28.2471 184.425 28.6908 187.463 30.3432C190.258 31.862 193.007 33.4762 195.802 34.9949C200.18 37.3602 204.649 39.4278 209.62 40.331C212.3 40.8232 215.008 41.6356 217.527 42.7128C219.402 43.5168 221.296 44.7621 221.697 47.6253ZM221.129 212.561C225.081 213.029 228.373 213.794 231.56 215.039C232.309 215.329 232.948 216 233.533 216.584C237.155 220.192 239.297 224.605 241.451 228.917C242.964 231.952 244.166 235.223 244.269 238.554C244.314 240.08 245.052 240.981 246.336 241.674C248.459 242.811 250.026 244.34 250.937 246.47C251.215 247.119 252.097 247.649 252.212 248.266C252.908 252.151 253.402 256.056 254.099 259.937C254.554 262.452 255.241 264.953 255.986 268.152C254.993 267.045 254.435 266.559 254.052 265.98C250.764 260.976 247.015 256.293 242.798 251.89C239.068 248.009 237.443 243.357 236.259 238.462C234.903 232.824 232.662 227.334 229.189 222.361C226.929 219.129 224.146 216.191 221.129 212.561ZM219.622 213.368C220.29 213.772 220.708 213.909 220.935 214.18C222.802 216.42 224.528 218.762 226.503 220.914C228.32 222.896 229.355 225.137 230.429 227.449C232.808 232.57 234.685 237.783 235.95 243.16C236.321 244.75 236.705 246.523 237.715 247.8C239.862 250.522 242.006 253.266 244.59 255.709C246.375 257.393 247.915 259.381 249.212 261.413C251.09 264.35 253.358 267.004 255.684 269.634C256.102 270.108 256.453 270.625 257.275 271.692C252.976 270.039 249.393 268.705 245.857 267.261C245.246 267.012 244.679 266.349 244.351 265.765C241.357 260.44 236.51 256.612 231.764 252.75C229.564 250.958 228.266 249.017 227.826 246.417C227.022 241.676 226.692 236.88 224.971 232.225C224.625 231.287 224.443 230.304 224.219 229.341C223.102 224.542 222.909 219.58 220.052 215.094C219.807 214.704 219.815 214.188 219.622 213.368ZM294.693 118.883C294.965 119 295.23 119.119 295.501 119.236C295.209 121.742 295.081 124.291 294.575 126.743C294.194 128.585 293.192 130.223 291.608 131.445C288.788 133.616 285.941 135.761 283.204 138.025C282.188 138.862 281.37 139.939 280.609 141.006C279.227 142.941 278.18 145.093 276.06 146.488C275.504 146.854 274.937 147.336 274.67 147.904C272.473 152.563 268.833 155.886 264.007 158.179C262.922 158.692 261.938 159.379 260.847 159.895C259.546 160.508 258.177 161.019 256.513 161.706C258.591 155.62 262.079 151.206 267.283 147.937C269.19 146.738 270.599 144.94 271.243 142.739C272.037 140.002 272.816 137.264 273.67 134.552C274.039 133.373 274.413 132.168 275.051 131.125C277.675 126.848 281.791 124.471 287.141 123.839C289.673 123.541 291.461 122.32 292.955 120.587C293.484 119.983 294.111 119.45 294.693 118.883ZM29.4319 234.399C28.914 233.709 28.1326 233.107 28.114 232.541C28.0716 231.209 28.1895 229.816 28.6182 228.587C29.6795 225.517 31.0736 222.572 32.1033 219.489C33.1617 216.327 33.948 213.062 34.8265 209.831C34.9746 209.289 34.7746 208.534 35.1049 208.166C37.717 205.246 39.606 201.552 43.5713 199.986C46.4321 198.852 48.7091 197.082 51.2103 195.539C55.1712 193.099 59.4158 191.259 64.7369 191.413C64.4923 192.241 64.4966 193.027 64.0807 193.469C62.3857 195.283 61.7579 197.746 59.4483 199.28C57.1342 200.813 55.6494 203.334 53.5377 205.157C50.2692 207.981 45.5996 209.364 43.4873 213.414C43.3757 213.635 42.6939 213.524 42.3748 213.704C41.8698 213.991 41.2832 214.306 41.0144 214.768C39.805 216.849 38.5831 218.935 37.5829 221.117C36.3733 223.771 36.2068 226.856 33.8964 229.064C32.3753 230.525 31.1844 232.278 29.4319 234.399ZM263.343 128.287C263.459 128.38 263.568 128.476 263.681 128.573C262.909 130.424 262.319 132.378 261.316 134.106C260.319 135.818 259.143 137.538 257.613 138.808C256.42 139.795 255.572 140.752 255.157 142.185C254.682 143.823 253.655 144.997 251.759 145.498C247.264 146.687 242.578 146.965 237.875 146.644C232.84 146.3 228.063 146.453 223.64 148.544C222.582 149.045 221.273 149.13 220.072 149.401C215.392 150.447 210.673 149.407 206.019 148.367C203.505 147.801 201.111 146.595 198.658 145.677C199.555 145.029 200.332 144.83 201.125 144.821C203.219 144.806 205.32 144.875 207.419 144.909C209.516 144.938 211.539 144.689 213.513 144.131C216.423 143.308 219.387 142.618 222.32 141.853C222.697 141.751 223.097 141.582 223.358 141.324C224.946 139.771 226.699 138.954 229.186 140.167C229.657 140.394 230.445 140.248 230.979 140.055C233.985 138.97 237.139 138.887 240.412 139.274C241.099 139.359 242.025 139.34 242.465 138.981C244.952 136.959 248.191 137.288 251.232 136.844C254.569 136.359 258.223 136.275 259.706 132.502C260.346 130.868 262.094 129.678 263.343 128.287ZM73.0988 230.776C73.9486 233.582 74.6615 235.935 73.2866 238.027C72.2934 239.533 71.066 240.948 69.6819 242.141C67.9978 243.594 65.7974 244.565 64.2485 246.115C62.3547 248.017 60.875 250.29 59.2586 252.432C57.3429 254.969 55.527 257.573 53.5713 260.079C52.353 261.646 51.033 263.151 49.6311 264.572C47.0653 267.161 43.2515 268.09 40.2212 270.089C38.7659 271.049 36.9462 271.573 35.2613 272.232C33.1803 273.037 31.0738 273.741 30.0838 275.874C29.7699 276.551 29.0099 277.032 28.121 277.948C27.802 274.235 29.2594 271.615 30.2991 268.907C31.0179 267.042 32.6158 265.888 34.7304 265.415C38.9525 264.46 41.7143 261.628 44.2475 258.804C46.288 256.537 47.5058 253.602 49.0021 250.918C50.0519 249.032 51.3432 247.395 53.3928 246.388C55.8836 245.167 58.3376 243.882 60.8964 242.777C66.4661 240.378 70.4765 236.617 73.0988 230.776ZM257.35 163.757C257.264 163.585 257.171 163.415 257.089 163.244C258.856 162.395 260.715 161.667 262.376 160.665C266.063 158.45 270.444 157.091 272.83 153.227C273.904 151.496 276.124 150.481 276.533 148.213C276.609 147.812 277.22 147.542 277.551 147.184C278.604 146.05 279.908 145.044 280.633 143.735C282.889 139.675 286.605 136.995 290.26 134.183C292.055 132.797 294.412 131.798 294.949 129.248C295.323 127.485 295.998 125.798 296.536 124.076C297.365 127.206 297.98 130.195 296.729 133.207C295.518 136.125 294.68 139.213 293.867 142.279C293.301 144.422 292.076 146.093 290.347 147.402C288.71 148.635 286.841 149.609 285.109 150.748C283.228 151.987 281.341 153.227 279.548 154.571C276.889 156.566 274.655 158.947 271.516 160.514C267.744 162.404 263.376 162.502 259.493 163.94C258.916 164.158 258.07 163.831 257.35 163.757ZM288.828 16.1711C288.271 16.3927 287.931 16.5971 287.554 16.6609C283.746 17.3037 279.683 16.8069 276.005 18.0687C275.552 18.2244 274.942 18.0193 274.436 18.0991C271.434 18.5651 268.428 19.015 265.449 19.5633C262.727 20.0636 260.074 21.1758 257.328 21.1462C251.194 21.074 245.018 20.575 238.863 20.003C236.88 19.8215 234.868 18.9872 232.979 17.6571C233.953 17.2159 234.697 16.9211 235.405 16.5622C240.684 13.8785 246.432 12.682 252.685 13.0409C256.862 13.284 260.96 13.3004 264.899 11.9583C268.69 10.6585 272.467 11.369 276.093 13.6119C277.318 14.3667 278.802 14.9202 280.215 15.1643C282.984 15.6371 285.787 15.8312 288.828 16.1711ZM288.532 183.586C288.553 183.451 288.571 183.31 288.587 183.172C290.404 182.594 292.16 181.831 294.044 181.494C296.14 181.113 298.341 181.038 300.513 181.003C302.383 180.972 304.306 180.994 306.162 181.342C308.956 181.869 311.722 182.648 314.477 183.414C319.076 184.695 323.675 185.977 328.234 187.4C332.491 188.727 336.178 190.803 338.561 194.695C340.194 197.353 342.102 199.909 344.135 202.335C345.511 203.983 347.258 205.396 348.953 206.801C350.158 207.802 351.661 208.499 352.819 209.533C353.97 210.559 355.821 210.423 356.593 212.253C357.129 213.524 358.802 214.433 359.913 215.553C360.322 215.96 360.574 216.497 361.329 217.631C358.939 216.456 357.189 215.71 355.565 214.774C352.303 212.905 349.313 210.719 347.196 207.665C346.667 206.902 346.382 205.957 345.722 205.335C340.94 200.846 336.94 195.454 330.187 193.195C327.571 189.905 324.179 191.127 320.972 191.158C319.823 191.172 318.648 191.123 317.498 190.939C315.513 190.627 313.665 190.109 311.892 188.858C307.038 185.445 301.608 183.776 295.697 183.882C293.324 183.922 290.922 183.693 288.532 183.586ZM63.2053 198.197C63.1192 199.839 63.2157 200.81 62.9961 201.692C62.3946 204.093 61.8358 206.533 60.9197 208.818C60.2175 210.57 58.9435 212.08 58.0144 213.748C56.5216 216.425 54.3585 218.528 51.5278 219.915C49.3233 220.994 47.095 222.117 44.8811 223.082C41.2578 224.651 39.7492 227.725 37.6042 230.284C35.9241 232.287 34.6789 234.527 31.7682 235.489C31.924 233.362 33.4138 232.061 34.5147 230.529C35.6236 228.991 36.7284 227.413 37.5284 225.708C38.7836 223.035 39.7845 220.243 40.8758 217.489C41.7629 215.259 43.9764 214.183 45.6997 212.689C47.8006 210.867 49.6726 208.58 52.2 207.486C55.0774 206.24 56.6573 204.058 58.6797 202.144C59.9777 200.914 61.3805 199.777 63.2053 198.197ZM136.232 348.85C135.02 347.692 133.819 346.519 132.597 345.371C129.297 342.273 126.148 339.062 123.885 335.241C122.496 332.9 120.821 330.888 118.433 329.294C117.044 328.373 115.437 327.26 114.775 325.921C112.614 321.563 111.962 316.979 112.48 312.371C112.517 312.05 112.804 311.77 112.956 311.493C117.189 313.46 119.935 316.41 121.41 320.343C122.921 324.354 125.494 327.793 128.541 330.98C129.402 331.881 130.216 332.843 131.19 333.619C136.474 337.829 136.141 343.339 136.232 348.85ZM291.171 14.1116C291.161 14.3336 291.148 14.5495 291.139 14.7714C288.982 14.4713 286.817 13.9799 284.671 13.9156C281.641 13.8255 278.872 13.3144 276.093 11.745C274.552 10.8778 272.872 9.58509 270.82 9.87427C268.509 10.1954 266.211 10.5949 263.879 10.8256C260.686 11.137 257.481 11.5877 254.253 11.4944C248.195 11.3203 242.45 11.9361 237.264 14.6407C236.586 14.9931 235.762 15.1378 234.488 15.541C236.065 13.9118 237.19 12.5249 238.56 11.3885C240.589 9.70853 242.626 7.95989 244.973 6.71087C247.765 5.21563 250.487 3.50766 254.269 3.90761C258.253 4.32689 262.256 4.02815 266.244 4.36268C268.968 4.59015 271.578 5.54301 273.874 7.27453C275.357 8.39057 277.362 9.01533 278.579 10.3005C280.256 12.073 282.04 12.0154 284.029 11.9207C284.314 11.9086 284.629 12.1218 284.933 12.2143C287.009 12.8502 289.091 13.4839 291.171 14.1116ZM269.324 -20.9488C268.94 -19.5603 267.821 -19.4416 266.849 -19.3028C265.117 -19.0585 263.334 -19.0292 261.6 -18.805C260.64 -18.6805 259.632 -18.4847 258.806 -18.0758C256.579 -16.9676 254.434 -15.7275 252.255 -14.5454C251.735 -14.2598 251.118 -14.0736 250.684 -13.7026C247.343 -10.8709 243.63 -8.54607 239.214 -7.26568C236.378 -6.43916 233.557 -5.46165 230.606 -5.06494C223.625 -4.1312 216.559 -3.52691 209.881 -0.821291C210.33 -1.55145 210.626 -2.12621 211.015 -2.62767C211.307 -3.00682 211.718 -3.30096 212.081 -3.63069C216.105 -7.31276 221.456 -8.78181 226.762 -10.2704C228.992 -10.9008 231.324 -11.3674 233.674 -11.566C237.933 -11.9229 241.991 -12.6216 245.75 -14.4551C247.551 -15.3335 249.1 -16.4603 250.761 -17.4758C256.21 -20.8131 262.662 -21.0176 269.324 -20.9488ZM205.912 4.80956C205.731 4.54398 205.548 4.27239 205.364 4.0008C206.947 2.89368 208.522 1.76852 210.12 0.677315C213.572 -1.6781 217.934 -1.86095 222.004 -2.60218C225.937 -3.32128 230.082 -3.0293 233.947 -4.43695C237.719 -5.80295 241.836 -6.34121 245.196 -8.6691C248.342 -10.8488 251.995 -12.4248 255.154 -14.5845C258.553 -16.9049 262.441 -17.6577 266.637 -17.8926C265.985 -17.3269 265.229 -16.9412 264.485 -16.5355C263.55 -16.0242 262.53 -15.5985 261.708 -14.9618C258.625 -12.5673 255.713 -9.97357 252.527 -7.70057C249.677 -5.67225 246.39 -4.39578 242.856 -3.28315C238.606 -1.94061 234.165 -1.57113 229.842 -0.794073C225.114 0.0532554 220.21 0.17526 216.428 3.18252C216.282 3.29749 216.083 3.38499 215.896 3.40983C212.568 3.88447 209.24 4.34499 205.912 4.80956ZM97.5211 135.949C98.4514 143.121 102.508 149.265 105.846 155.907C100.157 155.3 95.2444 153.402 90.0865 151.215C90.3976 149.935 90.4227 148.608 91.0216 147.605C92.8397 144.598 94.8972 141.732 96.0431 138.367C96.3456 137.492 97.0188 136.752 97.5211 135.949ZM105.293 18.2594C109.762 18.6718 114.2 18.5221 118.699 19.2264C123.094 19.91 127.612 19.7612 131.876 22.1301C126.679 23.0304 121.562 22.6273 116.412 22.412C112.231 22.2395 108.532 21.6348 105.31 18.8156C105.272 18.7799 105.302 18.6726 105.293 18.2594ZM97.7321 18.3949C91.1957 20.7961 77.8889 23.6159 67.7912 21.0254C68.2614 20.6941 68.6135 20.2637 69.0651 20.1747C71.5713 19.7016 74.0759 19.1701 76.6301 18.9343C79.9214 18.6315 83.253 18.5338 86.5822 18.4543C90.2939 18.3714 94.0115 18.4114 97.7321 18.3949ZM275.986 35.8369C277.285 35.762 278.619 35.8036 279.883 35.5981C284.557 34.8383 288.258 37.1184 291.799 39.6709C293.043 40.5686 293.903 41.9596 293.372 43.6123C287.345 41.6232 282.344 37.2951 275.986 35.8369ZM216.638 169.873C216.602 170.131 216.564 170.394 216.525 170.657C214.97 170.693 213.397 170.943 211.86 170.723C209.363 170.367 206.902 169.628 204.403 169.19C201.699 168.716 198.982 168.333 196.266 168.037C194.28 167.825 193.094 166.818 191.795 164.631C195.679 165.715 198.904 166.687 202.165 167.498C204.284 168.022 206.451 168.36 208.604 168.707C211.279 169.134 213.962 169.483 216.638 169.873ZM7.26491 -0.689988C2.21994 -4.53165 -2.72178 -7.95341 -7.22156 -11.8149C-11.7213 -15.6764 -17.3329 -18.4536 -20.5655 -23.573C-11.3482 -16.5164 -2.3264 -9.25538 6.67586 -1.97395C6.94222 -1.75798 6.99454 -1.30711 7.26491 -0.689988ZM95.7279 121.884C94.4747 115.833 97.4016 111.201 98.4811 106.161C98.6714 111.479 99.2857 116.884 95.7279 121.884ZM206.435 179.653C206.668 177.919 207.71 178.316 208.807 178.558C212.38 179.344 215.962 180.096 219.551 180.783C221.3 181.119 223.069 181.285 224.831 181.531C224.809 181.805 224.787 182.08 224.759 182.356C218.688 182.225 212.636 181.625 206.435 179.653ZM252.161 213.322C247.846 208.683 242.119 206.386 238.235 201.943C242.433 204.365 246.949 206.237 250.635 209.458C251.753 210.436 252.4 211.351 252.161 213.322ZM270.271 34.6176C263.081 34.2439 255.89 33.8701 248.698 33.5004C248.695 33.2827 248.691 33.069 248.688 32.8513C255.881 32.8602 263.068 32.3086 270.271 34.6176ZM188.94 164.929C183.468 163.906 180.642 159.535 176.555 156.621C177.255 156.529 177.907 156.608 178.36 156.938C180.044 158.16 181.653 159.48 183.312 160.735C185.175 162.15 187.065 163.528 188.94 164.929ZM97.7767 94.7219C94.8994 93.6296 92.9318 91.4862 91.6003 88.0052C94.2737 88.687 96.8387 91.4731 97.7767 94.7219ZM93.5349 134.777C94.0186 135.323 94.5343 135.695 94.4789 135.873C93.9305 137.542 93.3407 139.208 92.6333 140.822C92.3865 141.394 91.7895 141.82 91.3527 142.31C91.184 142.204 91.0108 142.095 90.8375 141.987C91.6794 139.737 92.5231 137.483 93.5349 134.777ZM85.5389 170.711C86.3603 166.494 86.3603 166.494 87.9036 166.548C87.0711 168.018 86.3018 169.366 85.5389 170.711ZM72.3766 68.9173C72.5343 68.7881 72.6903 68.6629 72.84 68.5398C73.9257 69.6675 75.0115 70.7952 76.5067 72.3546C73.7766 71.8168 73.335 70.1537 72.3766 68.9173ZM182.899 25.9342C185.238 25.1148 185.238 25.1148 187.046 26.0729C184.838 27.1607 184.838 27.1607 182.899 25.9342ZM168.296 26.4479C168.285 26.198 168.277 25.9441 168.268 25.6902C169.545 25.8415 170.816 25.9908 172.093 26.142C172.079 26.3478 172.067 26.5496 172.058 26.7574C170.804 26.6542 169.55 26.5511 168.296 26.4479ZM59.5977 50.4638C59.7982 50.3723 60.0005 50.2767 60.2037 50.1911C60.9108 51.1892 61.6206 52.1932 62.3322 53.1932C62.1658 53.2802 62.0058 53.3651 61.844 53.4541C61.0982 52.4587 60.3497 51.4572 59.5977 50.4638ZM63.3808 54.892C63.6054 54.7819 63.8317 54.6678 64.0518 54.5558C64.4508 55.2477 64.8454 55.9377 65.2463 56.6255C65.1514 56.6712 65.0601 56.7088 64.9652 56.7545C64.4392 56.133 63.9086 55.5095 63.3808 54.892ZM168.895 142.633C168.904 142.811 168.912 142.992 168.924 143.175C168.178 143.137 167.432 143.114 166.686 143.052C166.634 143.049 166.587 142.783 166.476 142.456C167.326 142.515 168.11 142.574 168.895 142.633ZM177.988 25.9233C177.989 26.1833 177.989 26.4434 177.99 26.7035C177.257 26.6473 176.52 26.5892 175.788 26.5331C175.782 26.3477 175.774 26.1664 175.764 25.979C176.506 25.9624 177.246 25.9398 177.988 25.9233ZM-24.3479 -26.3983C-24.5137 -26.2629 -24.6749 -26.1255 -24.8389 -25.9942C-25.4618 -26.5901 -26.0875 -27.1921 -26.7149 -27.7901C-26.5841 -27.9069 -26.4532 -28.0236 -26.3178 -28.1385C-25.6618 -27.557 -25.004 -26.9797 -24.3479 -26.3983ZM88.7451 146.339C88.5963 146.237 88.4411 146.136 88.286 146.035C88.6818 145.354 89.073 144.671 89.4688 143.99C89.6483 144.097 89.8216 144.205 89.9965 144.309C89.5809 144.987 89.1653 145.664 88.7451 146.339ZM143.045 134.464C143.203 134.296 143.366 134.131 143.524 133.963C144.111 134.505 144.703 135.049 145.294 135.593C145.176 135.706 145.06 135.814 144.946 135.929C144.312 135.444 143.676 134.953 143.045 134.464Z" fill="#3D3D3D"/>
</g>
<defs>
<filter id="filter0_d_93_2025" x="-75.7744" y="-64.8621" width="455.014" height="425.373" filterUnits="userSpaceOnUse" color-interpolation-filters="sRGB">
<feFlood flood-opacity="0" result="BackgroundImageFix"/>
<feColorMatrix in="SourceAlpha" type="matrix" values="0 0 0 0 0 0 0 0 0 0 0 0 0 0 0 0 0 0 127 0" result="hardAlpha"/>
<feOffset dy="4"/>
<feGaussianBlur stdDeviation="2"/>
<feComposite in2="hardAlpha" operator="out"/>
<feColorMatrix type="matrix" values="0 0 0 0 0 0 0 0 0 0 0 0 0 0 0 0 0 0 0.25 0"/>
<feBlend mode="normal" in2="BackgroundImageFix" result="effect1_dropShadow_93_2025"/>
<feBlend mode="normal" in="SourceGraphic" in2="effect1_dropShadow_93_2025" result="shape"/>
</filter>
</defs>
</svg>
