<svg width="346" height="422" viewBox="0 0 346 422" fill="none" xmlns="http://www.w3.org/2000/svg">
<g filter="url(#filter0_d_93_2040)">
<path d="M357.82 412.658C354.75 408.219 352.554 403.229 348.233 399.583C344.638 396.551 340.985 393.559 337.653 390.289C335.227 387.906 333.279 385.094 331.116 382.473C330.486 381.712 329.894 380.919 329.221 380.189C322.618 372.987 315.848 365.914 309.455 358.546C306.829 355.519 304.437 352.24 302.579 348.639C299.849 343.354 296.115 338.615 292.548 333.804C290.443 330.965 288.294 328.156 286.117 325.366C284.914 323.834 283.529 322.423 282.379 320.86C278.803 316 275.174 311.163 271.823 306.16C270.252 303.817 269.302 301.116 268.032 298.595C267.029 296.588 265.95 294.613 264.947 292.602C264.704 292.109 264.627 291.54 264.475 291.003C264.675 290.922 264.876 290.841 265.076 290.761C265.859 292.306 266.528 293.918 267.463 295.379C268.581 297.112 269.879 298.742 271.188 300.355C273.742 303.499 276.358 306.603 278.96 309.712C280.354 311.378 281.729 313.066 283.195 314.674C286.194 317.962 287.626 322.101 290.085 325.67C292.816 329.639 294.697 334.064 297.929 337.791C299.658 339.784 300.436 342.476 301.882 344.715C304.294 348.437 306.919 352.034 309.412 355.711C313.962 362.421 319.519 368.302 325.826 373.596C327.827 375.276 329.694 377.09 331.594 378.868C335.762 382.756 340.002 386.576 344.031 390.58C346.495 393.026 348.386 396 350.959 398.316C354.812 401.774 357.409 406.002 360.322 410.069C361.926 412.304 363.917 414.292 365.688 416.424C366.18 417.011 366.509 417.719 366.929 418.364C368.596 420.917 370.229 423.492 371.976 425.996C372.224 426.35 373.026 426.359 373.633 426.543C374.535 425.082 373.561 424.16 372.988 423.192C371.79 421.154 370.539 419.148 369.312 417.123C369.006 416.613 368.792 416.039 368.414 415.591C366.046 412.774 363.63 409.993 361.253 407.189C358.45 403.892 355.724 400.537 352.859 397.29C350.696 394.836 348.357 392.515 346.113 390.128C344.213 388.104 342.456 385.94 340.412 384.05C335.428 379.441 330.305 374.953 325.244 370.411C324.017 369.31 322.794 368.252 321.73 366.949C319.037 363.657 316.01 360.607 313.107 357.467C312.907 357.252 312.424 357.122 312.405 356.929C312.171 354.188 309.789 352.643 308.423 350.547C305.907 346.681 303.32 342.861 300.794 339.004C299.142 336.483 297.581 333.907 295.91 331.395C293.842 328.286 291.699 325.178 290.323 321.756C288.681 317.657 285.702 314.477 283.047 311.015C280.02 307.055 276.769 303.311 273.451 299.575C271.312 297.166 269.822 294.245 268.084 291.527C264.47 285.865 260.999 280.119 257.241 274.542C255.007 271.223 253.03 267.716 250.008 264.867C249.196 264.106 249.034 262.749 248.509 261.692C247.592 259.842 246.666 257.997 245.663 256.187C244.742 254.516 244.374 252.913 245.167 251.036C246.189 248.618 246.819 246.056 247.793 243.619C248.475 241.908 249.521 240.331 250.29 238.647C250.939 237.227 251.488 235.758 251.975 234.285C253.522 229.573 254.763 224.758 256.63 220.167C257.719 217.493 259.457 214.899 261.486 212.754C263.935 210.165 265.057 207.137 266.318 203.975C267.468 204.405 268.729 204.808 269.937 205.328C274.41 207.254 279.113 208.006 283.993 207.643C285.411 207.536 286.805 207.039 288.175 206.613C292.252 205.341 296.592 205.811 300.727 204.934C301.434 204.786 302.241 204.871 302.866 204.584C306.141 203.102 309.679 203.303 313.145 203.07C315.91 202.882 318.684 202.828 321.453 202.748C326.877 202.596 331.474 200.508 335.471 197.261C339.023 194.376 342.838 192.719 347.674 193.476C349.808 193.812 352.033 193.799 354.058 192.777C355.146 192.231 355.294 191.42 354.301 190.775C353.131 190.018 351.904 189.015 350.591 188.836C347.555 188.424 345.368 186.722 343.086 185.141C338.956 182.27 334.368 180.272 329.426 179.139C325.354 178.207 321.162 177.706 317.017 177.083C313.69 176.581 310.677 177.934 307.564 178.637C306.485 178.884 305.406 179.157 304.317 179.345C303.51 179.484 302.642 179.381 301.868 179.6C293.164 182.019 284.207 183.698 275.924 187.376C274.921 187.824 273.747 187.927 272.558 188.218C272.567 187.833 272.462 187.47 272.61 187.304C274.878 184.782 277.012 182.126 279.509 179.815C282.154 177.37 285.086 175.197 287.994 173.025C289.846 171.641 291.756 170.203 293.885 169.316C295.456 168.658 297.514 168.438 299.204 168.747C302.393 169.33 305.158 168.259 307.951 167.368C310.457 166.566 313.059 165.894 315.213 164.215C316.005 163.601 317.352 163.556 318.469 163.368C321.104 162.934 323.334 161.845 325.206 160.036C325.993 159.274 327.039 158.759 327.832 158.011C329.589 156.35 330.897 154.459 332.047 152.318C335.122 146.599 338.555 141.04 341.973 135.491C343.272 133.386 343.463 131.365 342.589 129.126C341.797 127.106 340.999 125.046 342.489 123.124C341.62 122.13 340.78 122.08 340.197 122.824C339.209 124.087 337.81 124.553 336.378 125.167C333.122 126.564 330.515 128.893 328.261 131.397C325.42 134.555 321.916 136.198 317.724 137.063C315.327 137.556 312.916 138.335 310.753 139.405C309.192 140.18 307.946 141.582 306.705 142.832C304.866 144.677 303.133 146.612 301.41 148.547C298.86 151.414 297.872 154.957 297.027 158.45C296.363 161.2 294.783 163.444 293.422 165.832C293.207 166.203 292.634 166.405 292.205 166.651C291.851 166.853 291.288 166.911 291.121 167.193C288.786 171.068 284.002 172.255 280.98 175.363C280.178 176.196 279.237 176.913 277.939 178.05C278.015 176.89 277.896 176.201 278.13 175.632C278.865 173.836 279.696 172.066 280.56 170.315C282.976 165.406 285.43 160.511 287.865 155.602C288.122 155.086 288.428 154.558 288.519 154.007C289.216 149.774 291.145 145.909 292.529 141.882C293.661 138.572 294.439 135.159 295.404 131.795C295.666 130.873 295.867 129.937 297.122 129.565C297.714 129.386 298.283 128.772 298.598 128.217C301.309 123.469 305.745 120.826 310.992 119.174C313.427 118.408 315.938 117.852 318.34 117.01C321.052 116.056 323.606 114.708 325.63 112.76C327.421 111.035 329.082 109.136 330.491 107.12C332.826 103.779 336.464 102.194 340.021 100.509C341.477 99.8197 343.186 99.6136 344.743 99.0985C345.616 98.8119 346.586 98.5028 347.235 97.934C350.147 95.372 352.358 92.2994 353.298 88.6669C353.747 86.9425 354.253 85.3793 355.39 83.9639C357.877 80.8644 360.341 77.7425 362.733 74.5759C363.158 74.016 363.535 73.0664 363.306 72.5379C363.115 72.1079 361.997 71.9646 361.267 71.8347C357.954 71.2435 355.027 72.726 351.947 73.4068C349.746 73.895 347.526 74.3206 345.33 74.8222C341.601 75.6777 338.689 77.8052 335.915 80.1702C332.444 83.1308 328.743 85.6794 323.993 86.6603C320.885 87.3008 317.762 88.0622 314.826 89.1865C310.897 90.6869 307.998 93.567 305.339 96.5813C302.159 100.174 299.701 104.697 298.015 109.445C297.705 110.314 297.165 111.116 296.249 111.819C296.869 108.025 297.581 104.24 298.087 100.433C298.617 96.4425 299.906 92.6084 300.574 88.649C300.822 87.1619 300.593 85.6525 300.727 84.2506C300.861 82.8755 301.052 81.4019 301.352 80.0268C301.93 77.3977 301.682 74.8401 301.663 72.2289C301.639 68.35 300.593 64.6996 299.099 61.206C298.163 59.0023 296.779 56.6956 294.917 55.1637C290.505 51.5447 286.294 47.5583 280.507 45.7175C278.655 45.1352 278.378 44.3648 278.722 42.5821C279.223 39.9709 280.116 37.3372 280.015 34.7394C279.882 31.3263 279.972 27.7789 276.702 25.0109C274.291 22.9729 272.959 20.075 271.78 17.1009C270.486 13.8312 268.366 10.8437 266.47 7.80247C265.2 5.76451 263.797 3.78478 262.25 1.92598C261.61 1.15559 260.45 0.761435 259.204 0C258.807 1.0257 258.392 1.69307 258.296 2.39628C257.881 5.57639 257.404 8.76098 257.251 11.9545C257.184 13.446 257.513 15.0943 258.177 16.447C259.376 18.897 260.832 21.262 262.422 23.5104C265.057 27.228 266.585 31.2816 267.263 35.6576C267.745 38.8063 269.688 41.2608 271.985 43.3436C274.501 45.6234 274.964 48.0242 273.833 50.9893C272.305 54.9891 270.443 58.9485 269.588 63.0827C268.585 67.9111 268.371 72.7932 270.829 77.6216C273.451 82.768 274.931 88.3578 275.532 94.082C275.871 97.3204 276.525 100.303 279.099 102.821C282.594 106.234 285.788 109.915 289.092 113.494C291.493 116.092 293.47 118.753 293.484 122.515C293.499 125.843 293.389 129.126 292.018 132.163C291.56 133.179 289.827 133.695 288.676 134.438C289.082 134.729 289.493 135.016 289.899 135.303C289.445 133.068 289.144 130.797 288.495 128.611C287.788 126.241 286.905 124.02 284.928 122.072C282.412 119.59 280.383 116.724 279.204 113.252C277.509 108.272 276.54 103.116 274.706 98.1983C273.675 95.4302 272.796 92.5816 270.376 90.4272C268.542 88.7968 266.8 87.0231 265.315 85.115C263.453 82.7232 260.908 81.1869 258.134 80.2508C255.265 79.2788 252.128 78.7727 249.072 78.5756C246.556 78.4144 243.973 79.3102 241.447 79.1982C237.781 79.0325 234.114 78.4905 230.485 77.9083C227.969 77.5007 225.52 76.7303 223.028 76.1749C221.414 75.8121 219.829 75.4538 218.291 76.6452C217.642 77.1468 216.568 77.1647 215.656 77.4066C215.809 78.6966 216.577 79.0997 217.757 79.6506C221.175 81.2586 224.326 83.3503 227.707 85.0434C231.579 86.9873 234.844 89.5761 237.752 92.604C239.638 94.5703 240.812 96.8411 241.595 99.4434C242.694 103.076 244.374 106.547 245.706 110.121C246.351 111.841 246.919 113.615 247.272 115.411C247.836 118.296 249.096 120.755 251.455 122.725C253.255 124.23 255.145 124.884 257.628 124.239C259.471 123.76 261.381 124.132 262.751 125.601C266.279 129.386 271.016 131.701 275.265 134.59C276.506 135.437 278.378 135.518 279.992 135.827C281.19 136.055 282.441 136.037 283.649 136.23C285.038 136.454 286.533 136.431 287.105 138.187C287.254 138.644 288.538 138.778 289.13 138.998C287.225 144.355 285.516 149.107 283.859 153.873C283.348 155.342 283.119 156.905 282.527 158.343C280.818 162.495 278.946 166.593 277.218 170.741C276.358 172.814 275.771 174.987 274.888 177.047C274.324 178.368 273.766 179.981 272.653 180.756C269.445 182.991 266.637 185.45 265.033 188.979C258.86 189.839 252.457 189.597 246.895 193.346C247.134 189.27 245.105 185.929 243.233 182.597C242.154 180.675 240.497 179.04 239.132 177.253C237.427 175.032 237.012 172.402 236.702 169.796C236.487 167.977 236.544 166.123 236.549 164.291C236.554 161.689 236.907 159.055 236.582 156.497C236.32 154.45 235.346 152.462 234.534 150.5C233.579 148.184 232.481 145.922 231.407 143.647C231.116 143.038 230.767 142.415 230.313 141.914C228.394 139.808 227.554 137.3 226.699 134.702C226.265 133.386 226.212 131.191 223.725 131.137C221.782 127.106 216.95 126.394 213.899 123.617C211.698 121.606 209.349 119.801 208.012 117.055C207.31 115.622 205.954 114.471 204.732 112.993C203.085 112.625 202.684 114.081 202.397 115.196C202.087 116.383 201.972 117.758 202.297 118.918C202.999 121.435 202.865 123.881 202.598 126.421C202.159 130.667 202.287 134.971 201.662 139.186C201.189 142.375 200.688 145.506 200.975 148.731C201.156 150.701 201.638 152.524 202.789 154.244C204.302 156.506 205.257 159.167 207.062 161.182C209.874 164.327 211.402 168.098 213.579 171.538C215.389 174.404 218.019 176.344 221.132 177.249C224.474 178.221 227.062 180.008 229.445 182.122C232.104 184.478 234.787 186.561 238.315 187.792C239.91 188.348 241.276 189.665 243.009 190.314C243.668 190.556 244.112 191.676 244.336 192.473C244.985 194.793 245.458 197.153 246.026 199.492C246.967 203.361 247.984 207.213 248.829 211.101C249.048 212.104 249.025 213.314 248.628 214.25C246.389 219.531 245.305 225.071 243.935 230.567C243.166 233.653 241.634 236.6 240.22 239.512C239.089 241.85 238.268 244.161 238.683 246.754C238.721 247.001 238.497 247.278 238.296 247.802C237.222 246.593 236.181 245.581 235.346 244.439C232.61 240.703 230.051 236.882 226.718 233.519C225.038 231.821 224.331 229.286 223.047 227.208C221.338 224.453 219.461 221.793 217.723 219.051C216.668 217.381 215.694 215.661 214.777 213.923C212.701 209.986 209.946 206.551 206.489 203.581C205.711 202.914 205.41 201.762 204.651 201.059C200.435 197.145 196.095 193.346 191.908 189.4C190.237 187.828 188.284 186.659 186.427 185.342C185.224 184.487 184.316 183.273 183.152 182.359C179.986 179.878 176.429 177.741 173.665 174.92C172.008 173.227 169.148 171.883 169.506 168.846C167.291 165.339 166.436 161.429 165.395 157.527C164.956 155.861 165.644 154.522 165.596 153.017C165.472 149.223 165.486 145.416 165.625 141.618C165.773 137.484 166.231 133.359 166.317 129.225C166.355 127.415 165.658 125.601 165.548 123.774C165.429 121.879 165.462 119.948 165.72 118.063C165.935 116.455 166.704 114.918 166.961 113.311C167.281 111.313 168.284 109.857 169.688 108.312C173.77 103.815 177.565 99.0941 181.423 94.418C182.044 93.6655 182.583 92.7652 182.851 91.856C183.863 88.4026 186.231 85.6749 188.193 82.7277C189.067 81.4109 190.008 80.1119 190.714 78.719C192.161 75.8658 190.905 73.2411 189.798 70.5895C189.158 69.0711 188.561 67.4945 188.294 65.891C187.725 62.4422 187.191 58.9664 186.995 55.4862C186.79 51.8403 187.1 48.1765 186.995 44.526C186.942 42.8195 186.427 41.1309 186.145 39.4334C186.045 38.8332 186.002 38.224 185.964 37.6194C185.854 35.6486 185.882 33.6644 185.601 31.7205C185.496 31.0083 184.651 30.3992 184.011 29.5661C180.492 32.5715 176.677 34.4169 172.743 36.1592C169.993 37.382 167.587 39.2945 165.095 40.9921C164.55 41.3594 164.302 42.1074 163.915 42.6807C162.43 44.8933 160.85 47.0567 159.494 49.3455C158.597 50.8639 157.689 52.4987 157.393 54.1784C156.873 57.1345 156.524 60.1713 156.644 63.1499C156.811 67.2795 156.572 71.3107 155.259 75.2522C153.483 80.5778 153.178 86.1318 152.738 91.6096C152.504 94.5031 153.693 97.4951 154.199 100.447C155.006 105.181 158.258 108.917 160.043 113.243C161.222 116.105 161.996 119.12 162.822 122.094C164.918 129.601 163.614 137.188 163.357 144.744C163.261 147.414 163.194 150.083 162.578 152.838C162.368 151.965 162.063 151.105 161.963 150.218C161.428 145.394 159.251 141.139 157.04 136.843C155.426 133.712 154.209 130.394 152.915 127.124C152.161 125.216 151.382 123.281 151.02 121.292C150.661 119.326 150.766 117.279 150.752 115.272C150.723 111.613 150.809 107.949 150.747 104.294C150.7 101.575 150.891 98.9015 151.139 96.1917C151.454 92.7115 152.165 88.9625 149.439 85.8093C147.315 83.3458 145.4 80.7166 143.127 78.383C141.509 76.7258 140.692 74.7326 140.129 72.7574C139.475 70.4641 137.961 68.9054 136.118 67.7901C132.476 65.5864 128.575 63.75 124.77 61.7838C124.426 61.6046 123.991 61.5732 123.6 61.4702C122.148 62.4601 122.072 63.7232 122.435 65.1341C123.867 70.7015 123.28 76.3406 123.175 81.9707C123.127 84.6805 122.884 87.4486 123.366 90.0912C123.676 91.7753 124.846 93.5625 126.178 94.7763C127.682 96.1558 127.973 97.4279 127.997 99.318C128.045 103.367 128.121 107.461 129.783 111.349C130.938 114.05 131.678 116.903 132.795 119.621C133.946 122.425 135.765 124.602 139.069 125.646C142.091 126.604 144.956 128.02 147.854 129.31C149.654 130.12 151.067 131.267 151.984 133.081C153.087 135.249 155.044 137.103 155.803 139.343C156.902 142.563 158.888 145.474 159.222 148.982C159.556 152.421 160.416 155.821 161.003 159.243C161.132 159.995 161.098 160.775 161.16 161.957C158.893 158.45 156.343 155.736 153.555 153.125C152.256 151.911 151.32 150.146 149.807 149.017C146.785 146.764 143.6 144.7 140.573 142.456C138.544 140.946 136.73 139.186 134.72 137.663C129.539 133.739 125.653 128.678 121.117 124.19C117.761 120.876 115.679 116.822 114.743 112.383C114.294 110.265 114.743 107.98 114.715 105.772C114.681 102.879 114.571 99.9899 114.509 97.0964C114.481 95.8378 114.442 94.5747 114.49 93.3161C114.571 91.3006 114.729 89.3432 113.774 87.3769C111.831 83.3772 112.905 79.4401 114.476 75.5702C115.058 74.1324 115.655 72.6902 116.071 71.2076C116.887 68.3007 117.861 65.3983 118.233 62.4377C118.548 59.9115 118.281 57.2868 117.976 54.7338C117.727 52.6286 117.045 50.5683 116.548 48.49C116.414 47.9346 116.371 47.312 116.08 46.8327C114.667 44.4723 113.411 41.982 111.649 39.8679C109.768 37.6104 108.527 35.1873 107.395 32.5536C105.825 28.8942 103.662 25.4543 101.752 21.9249C101.657 21.7502 101.599 21.4904 101.451 21.4277C97.6221 19.8779 96.2805 15.8423 92.8763 13.8895C91.7161 13.2221 91.5347 11.3051 89.4673 11.6858C88.8562 13.4192 89.601 15.054 90.174 16.662C91.8641 21.3963 92.3607 26.0545 90.1787 30.8381C87.9682 35.6844 86.9942 40.898 86.4069 46.0847C85.9008 50.5638 87.2377 54.9935 88.5888 59.2934C89.5819 62.4556 90.9999 65.4969 92.141 68.6188C92.8381 70.5268 93.2774 72.5245 94.0031 74.4191C95.6025 78.6025 97.8274 82.347 102.005 84.8642C105.323 86.8618 108.355 89.2089 110.594 92.3576C111.482 93.6028 112.06 94.7315 112.036 96.3574C111.993 98.794 111.726 101.172 111.458 103.587C111.172 106.202 111.559 108.926 111.955 111.559C112.466 114.945 113.282 118.287 114.099 122.313C112.456 120.952 111.134 120.051 110.06 118.936C106.44 115.174 102.44 111.967 97.7033 109.387C91.3867 105.943 85.1942 102.203 79.8707 97.4458C77.6315 95.4482 75.9461 92.913 73.9886 90.6377C71.926 88.2369 69.8492 85.8406 67.7532 83.4578C64.6593 79.9462 61.4891 76.5018 57.6361 73.6801C53.4394 70.603 48.727 68.5068 43.6279 67.0556C39.202 65.7925 34.8954 64.1756 30.4791 62.8811C27.9152 62.1286 25.2702 61.4837 22.6156 61.2104C20.8395 61.0268 18.9679 61.5419 17.1536 61.8196C15.3154 62.1062 13.5011 62.5317 11.6582 62.8094C10.3548 63.011 9.24234 63.3693 8.69805 64.6235C8.58347 64.8877 8.43068 65.2192 8.19196 65.3446C5.9623 66.5315 5.54215 68.4709 6.01959 70.5268C6.57343 72.9097 5.48008 74.652 4 76.3585C4.68752 78.2666 6.09598 79.5386 7.80046 80.4703C11.6534 82.5754 15.5685 84.5775 19.4549 86.6155C20.7249 87.2829 22.076 87.8383 23.2506 88.6266C26.5831 90.8706 30.1401 92.4875 34.2031 93.343C36.2371 93.7685 38.1755 94.9689 39.9277 96.129C44.812 99.3628 50.25 100.505 56.094 100.147C62.6302 99.7391 69.0709 100.505 75.5642 101.025C79.7466 101.356 82.7592 103.036 85.8531 105.181C87.4143 106.261 89.1904 107.071 90.7851 108.115C94.6094 110.605 98.386 113.163 102.182 115.698C102.435 115.868 102.683 116.043 102.922 116.231C105.438 118.228 108.078 120.114 110.437 122.269C112.576 124.226 114.676 126.224 116.653 128.365C118.935 130.841 121.747 132.933 124.54 134.94C127.41 137 130.599 138.666 133.521 140.664C140.349 145.336 147.634 149.497 152.924 155.893C152.972 155.955 152.944 156.072 152.972 156.475C151.64 156.247 150.308 156.202 149.134 155.781C145.094 154.316 140.926 154.07 136.653 154.083C133.259 154.092 129.926 153.429 126.746 152.197C125.424 151.687 124.025 151.149 122.626 151.051C117.508 150.684 113.545 148.31 109.778 145.273C106.975 143.015 103.791 141.179 100.873 139.034C95.1107 134.801 89.4673 130.429 83.6855 126.224C80.859 124.168 77.875 122.295 74.8814 120.455C73.6973 119.724 72.351 119.165 70.995 118.766C67.6863 117.785 64.3729 116.719 60.9782 116.11C58.0754 115.586 55.0006 115.228 52.0978 115.546C48.0634 115.993 44.0815 115.855 40.0709 115.747C39.2784 115.725 38.5049 115.366 37.7171 115.183C33.6779 114.251 29.9157 112.383 25.6521 112.173C24.8691 112.133 23.9811 111.497 23.389 110.914C22.0522 109.588 21.145 107.667 19.5599 106.802C16.1032 104.93 13.5107 101.168 8.29223 102.355C8.38294 102.928 8.29223 103.922 8.71238 104.666C11.5054 109.642 14.8714 114.224 19.326 118.058C20.1424 118.761 20.8204 119.666 21.3694 120.576C23.4654 124.033 25.4659 127.518 26.564 131.428C27.3805 134.362 29.9825 136.292 32.3459 138.021C34.8954 139.885 37.9224 141.372 40.9876 142.37C44.3775 143.481 47.3615 145.327 50.7132 146.442C53.807 147.472 56.7815 149.098 59.9565 149.532C65.1559 150.24 70.4698 150.37 75.674 149.004C78.2617 148.328 80.8208 147.786 83.6043 148.569C87.5289 149.667 91.5299 148.731 95.2206 147.656C99.1929 146.505 102.774 147.589 106.546 147.96C109.73 148.274 111.96 150.227 114.662 151.346C119.088 153.183 123.466 155.122 128.465 155.292C130.508 155.36 132.442 155.942 134.347 156.909C137.207 158.361 140.167 159.668 143.524 160.121C147.367 160.645 150.671 162.625 154.032 164.363C154.92 164.819 155.966 165.115 156.687 165.738C158.324 167.14 159.804 168.707 161.347 170.208C161.222 170.382 161.103 170.557 160.979 170.736C159.719 170.364 158.439 170.02 157.183 169.616C154.085 168.622 151.048 167.386 147.878 166.656C145.538 166.118 142.994 165.903 140.597 166.114C134.299 166.66 127.973 166.88 121.733 168.255C118.591 168.949 115.097 169.478 111.774 168.21C111.034 167.932 110.069 167.695 109.358 167.901C106.608 168.689 104.053 167.919 101.456 167.319C100.754 167.157 100.009 166.79 99.3552 166.893C93.7834 167.78 88.0398 167.802 82.6972 169.813C82.129 170.028 81.4558 170.27 81.1121 170.7C78.5482 173.88 74.2751 174.66 71.1191 177.047C69.5197 178.256 67.2328 178.745 65.1845 179.345C61.5416 180.411 59.5698 182.915 57.9465 185.929C56.285 189.015 54.1794 191.9 52.6468 195.035C51.7158 196.934 51.1285 199.124 51.0522 201.212C50.9137 204.683 51.2766 208.176 51.5105 211.657C51.5487 212.239 51.9736 212.803 52.2219 213.372C52.9046 213.072 53.8452 212.947 54.2367 212.445C56.4234 209.628 59.2881 207.939 62.9453 207.366C64.8885 207.061 66.8174 206.662 68.7606 206.34C74.657 205.373 78.1137 201.641 80.7397 197.01C81.9094 194.954 82.8977 192.809 84.0293 190.731C85.2038 188.567 87.4 187.371 89.4053 186.041C91.0954 184.921 92.9479 184.012 94.6954 182.964C97.5123 181.28 99.5749 178.888 101.561 176.425C102.502 175.26 103.528 174.158 104.464 172.994C105.915 171.193 107.625 170.803 110.126 170.956C115.273 171.265 120.496 171.081 125.543 169.778C127.515 169.272 129.391 168.698 131.478 169.343C132.328 169.603 133.34 169.455 134.276 169.406C137.575 169.231 140.769 169.473 143.834 170.835C145.114 171.404 146.651 171.439 147.997 171.914C152.113 173.361 156.195 174.902 160.282 176.416C160.664 176.559 161.008 176.944 161.366 176.949C165.968 177.002 168.27 180.093 170.977 182.924C173.918 185.996 177.384 188.616 180.545 191.51C181.944 192.786 183.185 194.215 184.45 195.613C185.424 196.683 186.317 197.812 187.191 198.856C184.063 198.667 181.046 198.564 178.048 198.287C174.467 197.96 170.905 197.485 167.329 197.068C166.618 196.988 165.901 196.938 165.2 196.809C162.989 196.41 160.812 196.159 158.84 194.811C155.751 192.697 152.395 190.923 149.153 189.006C148.799 188.8 148.465 188.473 148.083 188.415C142.531 187.568 137.264 184.975 131.392 186.01C129.095 186.417 126.971 187.546 124.531 187.349C121.957 187.138 119.379 187.053 116.811 186.838C113.593 186.57 110.594 185.087 107.276 185.315C104.879 185.481 102.473 185.822 100.153 186.211C98.7871 186.444 97.6221 188.348 96.6099 189.665C95.6789 190.865 94.6237 191.716 93.1771 192.33C90.7135 193.369 89.2429 195.465 88.0207 197.552C86.2159 200.647 83.4611 202.766 80.3482 204.978C80.6107 205.565 80.9068 206.215 81.2028 206.869C85.2802 205.901 89.157 205.381 93.0816 206.291C94.8816 206.707 96.7675 206.989 98.4146 207.728C101.093 208.924 103.963 209.269 106.784 209.52C109.319 209.749 112.146 209.807 114.452 208.978C119.016 207.334 122.955 208.633 127.004 210.17C127.863 210.497 128.642 211.021 129.506 211.325C135.593 213.484 141.303 212.969 146.307 208.88C148.551 207.043 150.528 204.92 152.619 202.922C155.818 199.859 159.389 197.96 164.226 199.03C166.527 199.541 168.952 199.532 171.297 199.89C174.643 200.405 177.919 201.122 181.132 202.264C185.176 203.702 189.42 204.629 193.526 205.914C194.858 206.331 196.229 206.989 197.236 207.881C201.07 211.285 204.89 214.716 208.475 218.344C212.5 222.42 215.799 226.948 217.833 232.283C219.452 236.542 221.237 240.815 223.62 244.721C225.534 247.865 228.471 250.458 230.925 253.316C231.894 254.449 232.739 255.668 233.699 256.81C235.876 259.394 238.182 261.84 240.693 264.178C244.207 267.456 247.043 271.358 250.371 274.824C252.749 277.297 254.334 280.231 256 283.057C257.733 286 258.588 289.395 259.886 292.575C262.03 297.847 264.46 303.011 268.07 307.566C270.4 310.509 273.131 313.178 275.427 316.143C277.051 318.249 278.292 320.627 279.619 322.925C281.2 325.657 282.694 328.434 284.217 331.197C284.537 331.78 284.819 332.389 285.301 333.352C282.407 332.55 279.93 331.735 277.385 331.211C276.034 330.933 274.563 331.157 273.15 331.175C272.758 331.18 272.362 331.336 271.985 331.292C265.544 330.593 259.017 330.248 252.691 329.016C249.068 328.308 245.506 327.063 241.791 327.104C236.644 327.162 231.445 327.31 226.365 328.04C221.906 328.68 218.554 328.026 215.847 324.398C213.02 320.605 209.697 317.133 206.785 313.389C205.548 311.79 204.675 309.9 203.868 308.054C202.774 305.542 202.101 302.854 200.884 300.4C199.375 297.363 199.747 294.116 199.184 290.976C198.984 289.856 198.912 288.53 198.22 287.711C196.51 285.677 195.035 283.505 192.877 281.718C190.924 280.101 190.132 277.458 189.678 274.856C188.919 270.507 190.098 266.355 190.752 262.14C190.857 261.468 191.087 260.814 191.13 260.142C191.273 257.674 191.201 255.3 188.704 253.621C187.453 252.779 186.56 251.462 185.29 250.664C180.349 247.569 178.1 243.265 177.752 237.756C177.599 235.386 176.725 232.99 175.775 230.755C174.701 228.242 170.289 227.79 168.059 230.003C166.021 232.014 163.805 233.971 163.204 236.963C162.922 238.365 162.125 239.677 161.571 241.026C159.327 246.494 157.794 252.143 157.26 257.974C156.878 262.149 157.799 266.278 158.577 270.381C158.687 270.937 158.974 271.519 159.346 271.967C162.454 275.666 164.545 279.863 166.565 284.136C169.119 289.547 173.087 293.95 178.134 297.52C181.915 300.194 186.393 301.094 190.857 301.949C193.531 302.46 196.152 302.894 198.358 304.57C198.883 304.968 199.695 305.035 200.588 305.327C201.872 311.369 206.078 316.085 209.946 320.981C210.552 321.751 211.206 322.495 212.171 323.646C211.092 323.52 210.437 323.534 209.845 323.364C204.87 321.939 199.829 321.03 194.591 320.999C191.626 320.976 188.661 320.582 185.696 320.327C185.415 320.304 185.123 320.103 184.885 319.928C182.65 318.311 179.957 317.236 178.358 314.867C176.587 312.242 174.82 309.6 172.848 307.1C170.762 304.458 168.48 301.94 166.197 299.437C162.335 295.199 158.482 290.953 154.462 286.846C153.096 285.453 151.287 284.423 149.611 283.321C145.285 280.472 140.411 278.99 135.245 278.049C131.487 277.368 127.854 276.105 124.139 275.196C118.081 273.705 111.998 273.606 105.944 275.219C104.55 275.59 103.16 276.034 102.521 277.494C101.905 278.9 102.621 281.928 104.297 283.052C106.493 284.513 107.243 286.358 107.018 288.768C106.885 290.187 107.51 291.271 108.637 292.36C111.563 295.177 115.154 296.893 119.002 298.075C121.585 298.868 123.805 300.104 126.126 301.358C129.959 303.436 132.982 306.464 136.634 308.717C136.844 308.847 136.897 309.196 137.193 309.788C133.951 310.007 130.948 310.545 127.902 309.9C125.576 309.407 123.29 308.735 120.96 308.283C118.238 307.759 115.479 307.409 112.748 306.935C111.444 306.706 110.112 306.491 108.871 306.066C106.34 305.197 103.8 304.574 101.122 304.113C97.9659 303.562 94.9866 302.079 91.931 301C91.1671 300.731 90.427 300.27 89.644 300.207C87.3475 300.014 86.3687 298.075 84.6929 297.081C84.4112 296.915 84.2823 296.404 84.2441 296.037C83.6043 290.676 81.5418 285.717 79.2023 280.871C77.1541 276.62 74.1843 273.046 70.1213 270.157C67.1659 268.061 64.3776 265.754 60.9639 264.379C59.417 263.757 57.5931 263.681 55.8791 263.515C53.4298 263.277 50.7896 263.734 48.7795 261.974C47.6002 260.939 46.6453 259.69 45.595 258.53C44.3918 257.199 43.4608 255.381 41.9377 254.642C38.9776 253.209 36.1941 251.184 32.5798 251.157C30.0541 251.139 27.6812 250.526 25.485 249.249C24.7402 248.819 23.6946 248.873 22.8161 248.622C20.1281 247.865 17.9175 246.356 15.7117 244.784C14.6518 244.027 13.2815 243.655 11.8731 243.032C11.0662 245.321 11.5579 247.166 12.2789 248.801C13.8927 252.461 15.8311 255.995 17.5881 259.6C19.4692 263.474 21.2453 267.394 23.1742 271.246C23.6803 272.262 24.5062 273.149 25.2845 274.018C25.9911 274.806 26.8028 275.523 27.6192 276.217C28.4404 276.912 29.2282 277.749 30.2069 278.157C32.2361 278.999 35.1342 281.704 35.5925 283.733C36.9628 289.789 41.5558 292.499 47.4284 293.887C48.2066 294.071 49.0994 293.793 49.8824 293.959C51.9641 294.398 54.1412 294.702 56.051 295.526C61.4748 297.865 67.0131 299.325 73.0433 299.692C78.9874 300.055 84.9459 300.718 90.5129 303.226C94.8577 305.188 99.4412 306.711 103.977 308.283C105.085 308.668 106.417 308.502 107.653 308.551C110.671 308.672 113.631 309.138 116.304 310.46C117.894 311.243 119.37 311.978 121.237 311.682C121.661 311.615 122.148 311.906 123.118 312.175C117.637 313.667 112.619 314.155 107.505 314.535C103.633 314.822 100.024 314.352 96.4046 313.483C94.7383 313.089 93.1962 312.184 91.6636 311.396C88.713 309.877 85.3422 309.792 82.2102 308.883C79.2548 308.027 76.075 307.83 73.134 306.935C67.9776 305.358 62.9739 306.07 57.8462 306.975C55.5592 307.378 53.1099 307.024 50.7418 306.935C47.6862 306.823 44.6353 306.437 41.5892 306.5C36.4996 306.603 31.3814 306.787 26.416 308.861C26.6404 309.953 26.8457 310.97 27.0558 311.991C29.8106 312.963 32.556 313.819 35.1962 314.894C37.8126 315.955 40.4481 316.941 43.1505 317.787C43.6804 317.953 44.1292 318.446 44.5494 318.853C46.0867 320.354 47.5191 321.953 49.1328 323.373C51.5535 325.5 54.6521 326.436 57.7841 327.148C60.9735 327.865 64.201 328.546 67.4524 328.895C72.3701 329.424 77.1493 328.909 81.3699 326.127C84.5401 324.044 87.8727 322.19 91.0238 320.067C93.1484 318.638 95.8508 317.948 98.3239 316.999C98.8634 316.793 99.5414 316.779 100.133 316.842C105.829 317.389 111.473 316.882 117.078 316.04C119.522 315.673 121.948 315.1 124.311 314.406C127.319 313.523 130.322 312.919 133.473 313.42C134.471 313.581 135.483 313.734 136.434 314.043C139.78 315.145 143.142 315.825 146.756 315.763C149.821 315.704 152.905 316.224 155.98 316.488C156.018 316.699 156.061 316.905 156.1 317.111C155.34 317.366 154.538 317.917 153.836 317.823C151.659 317.532 149.902 318.513 148.346 319.494C143.485 322.58 138.062 324.313 132.628 326.23C126.145 328.514 119.556 328.609 112.862 328.743C109.382 328.81 105.834 328.474 102.554 330.266C101.389 330.902 99.7706 330.888 98.343 331.014C94.4471 331.345 90.5464 331.623 86.6361 331.842C85.9486 331.883 85.2372 331.426 84.5401 331.448C82.8977 331.507 81.2553 331.681 79.6224 331.878C78.911 331.963 78.1901 332.456 77.536 332.371C74.4947 331.981 71.8496 333.191 69.0948 334.006C67.6243 334.44 66.3638 335.112 65.0222 335.878C59.4456 339.072 54.0123 342.65 47.4856 344.057C45.0459 344.581 42.525 344.773 40.09 345.315C39.2784 345.495 38.6147 346.278 37.9559 346.735C39.4073 349.208 41.5271 349.691 43.8618 350.126C47.9058 350.883 51.9402 351.541 56.0271 352.092C60.7586 352.728 64.3633 350.86 68.2831 349.396C73.3775 347.497 78.4718 346.368 84.1343 346.547C90.236 346.744 96.5526 346.502 102.191 343.537C107.133 343.362 110.036 339.936 113.411 337.298C114.982 336.071 116.343 334.615 117.856 333.316C119.699 331.739 122.086 331.363 124.402 330.808C129.219 329.652 134.032 328.474 138.816 327.202C139.881 326.92 140.912 326.32 141.79 325.666C144.388 323.726 148.007 323.516 150.351 321.164C150.49 321.026 150.676 320.896 150.867 320.851C155.507 319.7 159.952 317.81 165.047 319.028C169.401 320.063 173.961 320.327 178.363 321.232C181.576 321.895 184.827 322.737 187.788 324.044C192.457 326.118 197.079 328.268 202.116 329.41C207.43 330.611 212.786 331.677 218.139 332.725C221.681 333.419 225.238 334.1 228.824 334.552C230.848 334.808 232.944 334.521 235.007 334.606C238.086 334.727 241.18 334.83 244.231 335.175C248.194 335.627 252.123 336.299 256.067 336.904C261.295 337.705 266.556 337.822 271.846 337.732C277.686 337.638 283.424 338.498 288.958 340.182C290.381 340.617 291.765 341.858 292.653 343.062C297.165 349.194 301.295 355.581 305.969 361.601C310.223 367.088 315.007 372.216 319.548 377.511C321.042 379.253 322.422 381.089 323.988 382.778C326.772 385.774 329.584 388.749 332.506 391.629C338.373 397.411 343.406 403.807 348.147 410.4C349.503 412.29 350.238 414.561 351.331 416.622C354.115 421.866 357.624 426.641 361.974 430.865C362.814 431.68 363.645 432.307 365.082 431.823C365.149 430.35 364.065 429.311 363.139 428.451C359.166 424.76 356.383 420.281 353.981 415.685C351.226 410.414 347.922 405.514 344.351 400.739C342.947 398.858 341.467 397.03 340.14 395.095C344.977 397.711 348.581 401.491 351.804 405.63C353.017 407.189 354.034 408.886 355.199 410.476C355.881 411.399 356.268 412.698 357.877 412.622L357.82 412.658ZM263.152 293.193C261.409 292.27 262.001 290.501 261.892 289.014C262.293 290.429 262.694 291.845 263.1 293.256C264.393 293.887 264.57 295.043 264.303 296.346C263.921 295.298 263.539 294.245 263.152 293.193ZM165.935 171.408C167.572 171.448 168.671 172.402 169.358 174.44C167.386 174.19 167.09 172.375 165.968 171.395C165.477 170.561 164.98 169.728 164.312 168.586C166.059 169.222 166.388 170.132 165.935 171.408ZM250.848 223.768C250.882 224.516 251.498 225.362 250.07 226.357C250.309 225.156 249.808 224.314 250.92 223.808C250.237 220.892 250.443 220.301 252.983 218.689C252.19 220.565 251.522 222.169 250.848 223.768ZM238.931 258.74C236.167 257.943 235.69 255.538 234.725 253.477C234.257 253.195 233.656 253.007 233.34 252.617C232.29 251.318 231.574 249.697 230.309 248.644C227.191 246.051 225.429 242.678 223.601 239.319C223.009 238.226 222.603 237.048 222.111 235.911C222.307 235.799 222.512 235.691 222.713 235.584C223.921 237.138 225.128 238.697 226.336 240.255C225.845 238.401 224.799 236.842 223.973 235.194C223.061 233.384 222.35 231.49 221.548 229.635C219.743 228.623 219.547 226.697 218.64 225.179C219.81 226.563 221.5 227.66 221.49 229.698C221.93 230.025 222.488 230.28 222.779 230.692C225.496 234.553 228.227 238.405 230.834 242.329C233.331 246.073 237.141 249.057 238.115 253.679C239.385 253.737 239.991 253.213 240.13 252.205C240.454 249.805 240.698 247.39 241.066 244.999C241.304 243.449 241.71 241.926 242.04 240.394C242.293 240.439 242.546 240.484 242.799 240.528C241.944 246.172 241.085 251.811 240.154 257.921C238.483 255.914 236.964 254.364 235.78 252.617C234.114 250.167 232.71 247.561 231.168 245.039C230.256 243.552 228.981 242.369 227.244 240.757C227.468 241.868 227.425 242.41 227.678 242.763C229.158 244.842 230.791 246.83 232.204 248.949C233.169 250.396 233.861 252.008 234.673 253.549C236.683 254.87 237.805 256.823 238.884 258.803C240.306 259.632 241.944 260.268 242.288 262.113C240.559 261.544 239.437 260.42 238.931 258.74ZM288.753 336.707C287.936 337.181 287.54 336.304 287.077 336.232C286.294 336.115 285.396 336.716 284.532 336.966C284.384 337.011 284.164 336.774 283.969 336.751C280.226 336.308 276.468 335.453 272.734 335.547C266.838 335.699 261.018 335.632 255.188 334.404C257.031 333.141 258.822 332.604 260.932 332.72C264.637 332.917 268.356 333.428 272.042 333.28C276.396 333.101 280.45 334.163 284.589 334.991C285.439 335.161 286.327 335.179 287.12 335.255C288.208 332.156 285.984 329.984 285.372 327.287C288.027 328.747 291.398 333.473 291.966 336.169C290.892 336.362 289.813 336.554 288.724 336.765C290.113 336.922 291.503 337.078 293.021 337.253C295.738 340.814 298.512 344.594 300.254 348.934C298.244 346.614 296.549 344.097 294.668 341.714C293.432 340.147 292.482 338.118 289.784 338.171C289.45 338.176 289.096 337.217 288.753 336.707ZM186.312 191.053L186.26 191.125C186.217 190.937 186.245 190.654 186.121 190.574C182.54 188.245 179.695 185.199 176.744 182.252C175.775 181.284 175.087 180.299 175.164 178.507C176.238 179.457 176.95 180.124 177.704 180.742C184.159 186.032 190.633 191.299 197.074 196.607C198.229 197.557 199.28 198.618 200.306 199.693C202.727 202.224 205.171 204.736 207.473 207.361C208.996 209.09 210.399 210.931 211.641 212.844C212.925 214.819 213.928 216.951 215.102 218.993C216.019 220.588 217.012 222.146 217.972 223.719C217.752 223.844 217.532 223.969 217.317 224.09C215.522 221.407 213.899 218.595 211.879 216.068C209.721 213.368 207.043 211.043 204.842 208.373C201.103 203.845 199.929 202.649 197.351 201.825C199.313 204.893 202.985 206.492 204.231 210.058C200.349 208.566 185.443 194.179 183.505 190.26C184.398 190.511 185.357 190.78 186.312 191.053ZM167.596 80.7166C169.955 77.8276 170.323 74.1548 171.941 70.9523C173.321 68.2156 173.125 65.1072 172.796 62.1107C172.462 59.0963 172.653 56.1984 173.584 53.2243C174.304 50.9221 175.135 48.696 176.004 46.4475C177.508 42.5463 180.029 39.299 182.474 35.9666C182.77 35.5635 183.257 35.2813 183.796 34.82C184.078 37.2118 184.331 39.3125 184.57 41.4131C184.713 42.6672 184.947 43.9214 184.947 45.18C184.947 48.6691 184.746 52.1583 184.823 55.6475C184.861 57.3361 185.663 59.0291 185.544 60.6864C185.224 65.1923 186.269 69.3757 188.317 73.3844C189.163 75.0462 188.857 76.6138 188.141 78.168C187.735 79.0504 187.195 79.8835 186.661 80.7077C185.061 83.1846 183.061 85.5002 181.905 88.1428C179.728 93.128 176.095 97.1188 172.59 101.195C169.563 104.711 166.092 107.9 164.269 112.504C162.741 106.695 162.722 101.15 163.376 95.6273C163.868 91.5111 164.584 87.3948 166.417 83.5474C166.875 82.5844 167.248 81.5855 167.668 80.5957C166.541 80.2284 166.164 81.0436 165.815 81.7154C162.812 87.5337 162.144 93.8626 161.6 100.147C161.366 102.897 162.254 105.728 162.626 108.522C162.76 109.517 163.213 110.56 162.096 111.694C161.356 110.216 160.845 108.89 160.077 107.716C156.978 102.977 155.541 97.7907 155.388 92.2904C155.331 90.3958 155.856 88.4788 155.784 86.5841C155.603 81.6706 157.503 77.1155 158.525 72.4259C158.897 70.7194 159.322 69.1159 159.275 67.3467C159.184 64.0815 159.193 60.8028 159.442 57.5466C159.58 55.7505 159.838 53.726 160.831 52.2703C163.648 48.1317 165.424 43.263 169.984 40.2665C172.452 38.6406 174.858 36.9744 177.857 36.2891C178.702 36.0965 179.494 35.7292 180.74 35.2903C179.862 36.7325 179.279 37.9822 178.42 39.0348C175.995 41.9909 174.729 45.5159 173.34 48.8752C171.359 53.6767 170.724 58.7738 171.488 64.0277C171.903 66.8809 170.977 69.7519 169.702 72.4573C168.47 75.073 167.148 77.7067 167.596 80.7166ZM47.056 81.066C50.1402 83.1308 53.1863 85.2539 56.3279 87.2426C59.565 89.294 62.8307 91.314 66.1967 93.1683C69.5149 94.9913 72.9716 96.5813 76.3663 98.2744C75.3302 98.5969 74.4326 98.5342 73.5493 98.3909C68.0205 97.4995 62.401 96.9531 56.8579 97.5578C50.4124 98.2565 44.917 96.6485 39.6938 93.2982C37.9559 92.1919 35.8456 91.3454 33.783 91.0005C31.3671 90.5929 29.4478 89.3835 27.3996 88.4071C23.4702 86.5304 19.6411 84.4566 15.8406 82.3649C12.8423 80.7121 9.42854 79.5924 7.17501 76.7348C7.74794 75.7091 8.30178 74.7102 8.78877 73.8323C11.7537 73.3979 14.5229 75.1178 17.9175 73.6442C16.6523 73.4113 15.9743 73.2859 15.2963 73.165C13.6873 72.8783 12.0449 72.7171 10.4837 72.2826C8.08692 71.6152 7.37076 70.2222 8.73148 68.4172C9.77708 67.0377 11.2763 65.255 12.7993 65.031C15.9791 64.5742 19.0013 63.2484 22.3434 63.5395C26.8027 63.9337 30.9804 65.1385 35.0339 66.8361C36.4424 67.4273 37.8317 68.0813 39.2927 68.5292C42.1287 69.3981 45.065 70.0117 47.8676 70.9658C51.6442 72.2557 55.3444 74.11 58.0801 76.6989C62.993 81.3482 67.2375 86.6245 71.7207 91.6723C72.7998 92.8951 73.7117 94.2478 74.7 95.5422C73.8645 95.6855 73.43 95.4795 73.0051 95.2645C70.36 93.9432 67.6911 92.6622 65.0795 91.2827C63.2986 90.3421 61.4366 89.4462 59.8992 88.2145C56.0987 85.1643 52.494 81.8991 47.056 81.066ZM110.623 86.8126C109.883 86.6916 109.157 86.7454 108.622 86.4677C102.974 83.516 98.386 79.7043 96.6481 73.5233C96.0752 71.4764 95.2587 69.4653 94.3373 67.5348C92.5994 63.8889 90.9044 60.2654 90.6371 56.1894C90.5702 55.1458 90.1214 54.1112 89.7538 53.1034C88.8992 50.7474 88.4552 48.266 88.7416 45.8608C89.3719 40.486 90.7946 35.2813 93.2487 30.3275C94.0556 28.6927 94.5951 26.8697 94.0604 24.9392C93.8885 24.3077 94.1702 23.5687 94.2848 22.4892C95.1394 23.8911 95.7314 24.8676 96.3426 25.8798C97.794 25.105 97.1017 24.3346 96.629 23.6179C95.1776 21.4277 95.168 21.4366 95.3351 19.4569C99.7801 23.2506 102.998 27.5908 104.779 32.9522C105.724 35.7919 107.109 38.4659 109.448 40.7681C111.32 42.609 112.919 45.0322 113.688 47.4643C115.168 52.1449 117.049 56.7404 115.593 61.9898C114.046 67.5841 113.201 73.3396 109.978 78.7234C109.616 76.9363 109.324 75.3552 108.961 73.792C108.79 73.044 108.489 72.3229 108.231 71.5973C107.095 68.4172 105.786 65.2774 104.86 62.0435C104.082 59.3292 103.896 56.5254 104.091 53.6543C104.302 50.5279 103.843 47.3613 103.819 44.217C103.81 42.4523 104.397 40.6517 104.158 38.9362C103.896 37.0461 102.989 35.2321 102.363 33.3822C102.239 33.0105 102.148 32.6253 101.995 32.2669C100.983 29.8438 99.36 27.8506 97.0539 26.3053C97.4025 27.4117 97.9802 28.3881 98.6343 29.3153C100.893 32.5312 102.554 36.0114 102.707 39.8634C102.903 44.759 102.63 49.6725 102.693 54.577C102.721 57.036 102.707 59.5711 103.304 61.9405C104.55 66.9033 105.982 71.8481 107.777 76.6586C108.417 78.3875 108.933 80.0895 109.277 81.8588C109.458 82.7994 109.415 83.7803 109.625 84.7164C109.773 85.3479 110.188 85.9302 110.623 86.8126ZM221.486 78.5846C222.345 78.7145 222.97 78.6742 223.448 78.9071C228.528 81.4064 233.751 83.6773 238.483 86.7723C239.146 87.2112 239.958 87.5113 240.746 87.6994C245.32 88.7833 249.903 89.8135 254.482 90.8706C254.682 90.9154 254.854 91.0363 255.036 91.1304C259.065 93.1638 262.403 95.9811 264.207 99.8958C265.869 103.501 267.091 107.335 268.06 111.17C269.607 117.319 272.706 122.546 277.619 126.806C279.758 128.66 281.472 130.756 283.171 133.327C280.044 133.627 277.189 133.524 274.892 131.97C271.216 129.489 267.822 126.64 264.303 123.953C262.164 122.318 259.92 121.167 257.017 122.215C256.406 122.434 255.494 122.51 254.969 122.237C252.968 121.189 251.264 119.724 250.581 117.628C249.555 114.502 249.43 111.107 247.253 108.334C247.029 108.052 247.057 107.591 246.948 107.215C245.363 101.781 243.677 96.3171 239.843 91.8784C236.516 88.0264 232.443 84.8687 227.673 82.5441C225.592 81.5228 222.989 81.1287 221.486 78.5846ZM176.558 316.22C174.032 315.978 174.023 315.987 172.968 314.965C171.526 313.568 170.07 312.175 168.68 310.733C165.176 307.082 160.664 305.219 155.684 304.104C153.416 303.593 151.23 302.76 148.957 302.276C146.594 301.77 145.166 300.14 143.395 298.845C139.609 296.086 135.694 293.614 131.124 291.822C127.085 290.241 123.18 288.315 118.921 287.245C116.467 286.631 113.965 286.085 111.444 285.847C110.437 285.753 109.931 285.413 109.458 284.804C108.007 282.913 107.157 280.593 104.932 279.245C104.779 279.147 104.86 278.708 104.803 278.193C108.369 276.782 112.031 276.128 115.937 276.473C124.135 277.198 131.879 279.774 139.785 281.632C145.013 282.855 149.754 285.355 153.665 288.947C156.744 291.773 158.893 295.437 162.531 297.779C162.612 297.833 162.664 297.927 162.731 298.003C166.627 302.344 170.041 307.033 173.612 311.606C174.624 312.905 175.393 314.37 176.558 316.22ZM168.991 232.193C170.06 235.028 170.576 237.586 170.337 240.215C169.988 244.027 168.666 247.628 169.086 251.668C169.492 255.618 170.49 259.058 172.777 262.279C173.393 263.148 174.152 263.985 174.519 264.944C176.014 268.845 177.403 272.777 178.778 276.715C179.447 278.636 179.914 280.62 180.597 282.537C181.776 285.865 184.04 288.606 186.327 291.312C188.06 293.363 189.864 295.356 191.669 297.349C192.481 298.25 193.369 299.092 194.663 300.4C189.989 300.561 186.073 299.67 182.755 298.147C177.441 295.701 173.674 291.446 170.986 286.376C168.847 282.327 166.379 278.43 164.054 274.471C162.965 272.612 161.385 270.865 160.879 268.881C158.936 261.257 159.346 253.701 162.426 246.324C163.557 243.61 164.402 240.793 165.515 238.078C166.312 236.121 166.98 234.056 168.991 232.193ZM294.024 107.9C293.823 107.909 293.627 107.922 293.432 107.931C292.935 105.495 292.482 103.049 291.932 100.626C291.465 98.5655 291.102 96.4514 290.314 94.4986C289.23 91.8067 287.788 89.2223 286.485 86.6469C285.253 84.2058 284.184 81.7557 283.391 79.2027C282.651 76.8109 282.36 74.437 282.727 71.7944C283.386 67.0914 284.408 62.1555 281.314 57.6989C280.479 56.503 279.591 55.3295 278.87 54.0709C277.666 51.9702 276.922 49.7576 277.738 46.8596C280.073 48.0107 282.24 48.8886 284.184 50.0845C286.246 51.3521 288.108 52.9063 290.042 54.3575C293.327 56.8255 295.867 59.7592 297.285 63.5843C298.22 66.1105 298.526 68.6411 298.87 71.2569C299.801 78.3203 298.225 85.1777 297.371 92.0799C296.755 97.0382 294.85 101.822 294.43 106.847C294.396 107.206 294.162 107.55 294.024 107.9ZM338.011 191.586C338.073 191.761 338.13 191.931 338.187 192.106C336.97 192.952 335.652 193.7 334.549 194.663C330.505 198.206 325.635 199.751 320.24 200.177C314.081 200.665 307.913 200.504 301.768 201.821C295.236 203.227 288.423 203.379 281.901 205.108C280.569 205.462 278.922 205.413 277.6 205.019C271.302 203.151 265.005 201.252 259.29 198.031C257.676 197.122 256.048 196.24 254.052 195.138C255.723 194.569 256.855 193.924 258.039 193.826C261.853 193.503 265.683 193.297 269.516 193.216C271.039 193.185 272.61 193.458 274.095 193.826C277.089 194.565 280.078 195.362 282.995 196.32C285.573 197.162 288.099 197.194 290.624 196.41C292.854 195.72 295.031 194.874 297.223 194.072C298.268 193.687 299.276 193.221 300.326 192.849C300.985 192.616 301.668 192.442 302.36 192.325C303.582 192.124 304.814 191.949 306.051 191.832C307.755 191.671 309.469 191.501 311.178 191.47C313.427 191.434 315.704 191.729 317.925 191.51C319.557 191.344 320.961 191.546 322.255 192.348C323.683 193.225 325.148 193.181 326.743 192.961C330.491 192.442 334.258 192.038 338.011 191.586ZM348.228 190.717C347.655 191.582 346.872 191.219 346.108 190.892C345.225 190.516 344.375 190.054 343.463 189.763C341.501 189.141 339.686 189.911 337.767 190.229C333.408 190.95 328.958 191.196 324.542 191.582C323.964 191.631 323.258 191.501 322.771 191.214C320.254 189.736 317.581 189.88 314.793 190.18C313.098 190.363 311.341 190.126 309.622 189.983C306.251 189.705 303.205 191.084 299.977 191.55C299.887 191.564 299.81 191.667 299.715 191.703C298.473 192.159 297.227 192.607 295.981 193.064C294.926 193.445 293.818 193.732 292.83 194.233C291.192 195.066 289.455 195.277 287.645 195.371C283.825 195.577 280.187 194.703 276.774 193.328C272.582 191.64 268.342 191.707 263.997 192.124C262.918 192.227 261.83 192.253 260.746 192.316C263.591 191.483 266.537 190.314 269.306 190.605C274.114 191.102 278.091 189.212 282.068 187.568C286.676 185.669 291.269 184.012 296.263 183.318C297.881 183.094 299.443 182.543 301.047 182.207C305.697 181.226 310.328 180.165 315.007 179.349C319.643 178.534 323.983 180.241 328.381 181.222C331.78 181.979 335.146 182.946 338.154 184.675C341.506 186.592 344.776 188.639 348.228 190.717ZM239.538 185.392C236.286 184.164 232.925 183.076 230.81 180.182C230.304 179.484 229.511 178.879 228.719 178.458C226.561 177.325 224.36 176.268 222.135 175.264C219.304 173.983 216.415 172.582 215.107 169.836C213.402 166.253 210.714 163.319 208.642 160.009C206.861 157.165 204.799 154.271 204.016 151.14C203.118 147.544 202.636 143.669 203.949 139.903C204.326 138.819 204.541 137.578 204.388 136.463C203.868 132.646 204.331 128.911 205.081 125.184C205.238 124.41 205.391 123.639 205.544 122.864C206.317 124.127 206.589 125.341 206.809 126.564C207.434 130.053 207.95 133.56 208.709 137.023C209.005 138.366 210.232 139.585 210.337 140.91C210.528 143.275 211.884 144.825 213.531 146.33C215.885 148.48 218.554 150.41 220.483 152.856C224.217 157.581 227.855 162.396 229.464 168.282C230.175 170.88 231.259 173.477 232.682 175.797C234.72 179.125 237.232 182.202 239.538 185.392ZM170.857 231.275C172.762 230.943 173.397 231.01 173.712 232.063C174.429 234.473 174.997 236.923 175.574 239.368C175.751 240.116 175.627 240.945 175.88 241.662C177.518 246.284 180.158 250.257 184.464 253.15C185.472 253.827 186.618 254.53 187.21 255.488C188.05 256.868 188.847 258.471 188.924 260.008C189.01 261.889 188.456 263.828 187.955 265.687C185.863 273.472 187.305 280.235 193.808 285.888C195.737 287.563 197.04 289.78 197.141 292.566C197.25 295.558 197.952 298.532 198.401 301.555C198.1 301.403 197.58 301.26 197.222 300.951C194.601 298.671 191.903 296.48 189.95 293.578C188.465 291.365 186.417 289.475 184.971 287.245C182.33 283.169 180.483 278.761 179.356 274.072C178.358 269.96 176.983 265.938 174.285 262.458C172.7 260.411 171.454 258.288 171.349 255.641C171.258 253.392 170.719 251.166 170.623 248.918C170.566 247.543 170.8 246.1 171.234 244.779C171.793 243.077 172.485 239.969 172.314 238.423C172.103 236.591 171.97 234.75 171.683 232.932C171.593 232.336 171.125 231.79 170.857 231.275ZM140.062 199.048C141.127 195.375 143.586 195.407 146.383 195.868C147.868 196.11 149.449 195.81 150.953 195.98C152.624 196.173 154.261 196.62 156.185 197.01C154.19 198.569 152.5 199.711 151.053 201.073C149.024 202.981 147.028 204.943 145.285 207.07C141.953 211.137 133.917 210.989 129.711 208.933C124.779 206.528 119.818 204.745 114.094 206.985C111.998 207.805 109.472 207.67 107.142 207.952C106.646 208.011 106.097 208.109 105.648 207.97C101.647 206.77 97.6603 205.507 93.6641 204.284C92.714 203.997 91.7304 203.805 90.2456 203.442C92.1363 201.776 93.6163 200.36 95.2349 199.111C95.8938 198.6 96.8391 198.287 97.6985 198.17C99.126 197.969 100.601 197.852 102.034 197.969C105.132 198.219 108.178 198.148 111.224 197.489C112.089 197.301 113.058 197.503 113.975 197.566C114.781 197.619 115.584 197.767 116.395 197.785C118.868 197.839 121.346 197.848 123.819 197.884C127.596 197.933 131.373 198.47 135.14 197.44C136.663 197.024 138.386 197.225 140.062 199.048ZM14.7616 248.277C14.8953 248.188 15.0242 248.098 15.1579 248.008C17.5165 250.441 19.9228 252.837 22.2336 255.305C25.3131 258.601 28.8653 261.437 32.6849 263.869C35.5639 265.701 38.9919 266.749 42.0428 268.366C44.5159 269.678 47.0321 271.071 49.0994 272.863C51.7349 275.147 53.9646 277.848 56.3279 280.405C58.7151 282.999 62.1527 283.823 65.3134 285.063C66.4402 285.507 67.5144 285.798 68.5028 286.6C71.5011 289.045 74.6618 291.316 77.7509 293.654C76.5286 294.25 75.5069 294.452 74.5377 294.317C72.1934 293.999 69.873 293.533 67.5431 293.117C60.453 291.849 54.1078 288.978 48.2782 285.077C43.4321 281.839 38.7914 278.331 33.191 276.199C29.9539 274.972 27.5428 272.768 25.9768 269.826C24.7306 267.492 23.5657 265.123 22.3434 262.776C19.8225 257.943 17.2921 253.11 14.7616 248.277ZM81.3317 294.684C80.7253 294.384 80.4102 294.308 80.2288 294.12C78.6675 292.499 77.3259 290.631 75.5355 289.274C72.1982 286.73 68.6555 284.365 64.5018 283.093C61.7421 282.246 59.1735 281.167 57.1348 279.187C55.3635 277.458 53.4919 275.796 51.9259 273.911C48.1684 269.387 42.7733 267.156 37.6264 264.545C35.1962 263.309 32.6276 262.198 30.4886 260.599C27.7099 258.516 25.1747 256.111 22.7874 253.634C21.9519 252.765 20.2665 252.169 20.5435 250.409C20.9588 250.449 21.3265 250.378 21.5365 250.517C24.0574 252.223 26.9412 252.998 29.9587 253.267C32.8711 253.527 35.583 254.221 38.1946 255.466C40.6534 256.631 42.5871 258.1 43.647 260.621C44.4873 262.619 45.9292 264.473 48.2591 265.038C50.7323 265.633 53.3725 266.225 55.8505 266.001C59.0494 265.714 61.5368 266.699 63.9384 268.312C66.0344 269.723 68.0778 271.205 70.1117 272.701C70.9998 273.355 72.0406 273.982 72.604 274.856C75.0008 278.56 77.8798 282.04 78.9301 286.421C79.5747 289.104 80.4627 291.733 81.3317 294.684ZM99.4507 141.152C99.317 141.349 99.1786 141.542 99.0401 141.739C98.7632 141.712 98.4672 141.734 98.2094 141.649C95.3017 140.659 92.4609 139.419 89.4769 138.72C86.2589 137.968 83.1221 137.349 80.5344 135.155C79.5508 134.322 77.7222 134.344 76.7769 133.493C74.6713 131.598 71.9977 131.325 69.4433 130.738C66.3161 130.017 63.122 129.547 59.9613 128.951C56.2372 128.248 52.8378 126.81 49.4145 125.278C46.9987 124.204 44.0958 123.191 41.5558 123.442C37.9654 123.8 34.6758 122.322 31.1857 122.734C30.8276 122.779 30.3693 122.255 29.9969 121.955C27.3614 119.841 26.8839 116.683 25.3131 113.87C25.972 113.754 26.4112 113.534 26.7311 113.642C28.8558 114.341 30.9708 115.075 33.0573 115.868C37.7458 117.664 42.5536 118.251 47.6002 117.66C50.0591 117.369 52.6277 117.225 55.0531 117.584C59.4074 118.228 63.7331 119.165 67.9871 120.253C70.2454 120.831 72.4655 121.78 74.4708 122.918C77.0251 124.374 79.3694 126.156 81.7566 127.858C85.8292 130.747 89.8875 133.65 93.8933 136.619C95.8174 138.044 97.603 139.634 99.4507 141.152ZM298.082 116.625C298.946 114.435 299.949 112.204 300.703 109.902C302.804 103.51 306.767 98.2834 311.933 93.7954C314.955 91.1707 318.822 90.3241 322.675 89.4686C326.901 88.537 331.007 87.3904 334.234 84.3894C335.533 83.1846 337.051 82.1813 338.536 81.16C344.346 77.1603 351.222 76.045 358.77 74.4908C357.309 76.0091 356.454 77.1065 355.38 77.962C353.599 79.3774 352.515 81.1332 351.35 83.0144C349.613 85.8138 347.192 88.3489 343.568 89.294C342.078 89.6792 340.384 89.612 339.071 90.2704C334.621 92.4965 329.589 93.334 325.311 96.2051C321.983 98.4401 319.209 101.007 316.612 103.806C313.756 106.888 310.963 109.987 307.139 112.043C304.212 113.615 301.204 115.048 298.082 116.625ZM207.124 120.808C210.843 123.944 214.338 127.155 218.597 129.516C221.548 131.159 224.45 132.911 224.861 136.597C224.909 137.031 225.386 137.417 225.644 137.838C227.029 140.091 228.595 142.267 229.741 144.623C231.316 147.862 232.62 151.226 233.928 154.576C234.343 155.633 234.577 156.811 234.582 157.935C234.591 161.594 234.3 165.267 234.434 168.927C234.505 170.915 234.854 173.025 235.685 174.839C236.859 177.401 238.602 179.735 240.072 182.18C240.321 182.592 240.421 183.08 240.598 183.533C236.53 179.278 233.064 174.763 231.235 169.289C230.103 165.881 228.786 162.531 227.516 159.162C227.349 158.719 226.986 158.32 226.642 157.962C224.011 155.239 221.357 152.542 218.731 149.819C216.745 147.763 214.395 145.895 212.934 143.548C210.901 140.283 209.616 136.736 209.421 132.741C209.225 128.803 207.96 124.911 207.124 120.808ZM100.248 143.777C100.138 144.055 100.038 144.337 99.9329 144.614C96.586 145.215 93.2487 145.842 89.8923 146.397C88.6748 146.599 87.3666 146.899 86.1968 146.684C83.3847 146.169 80.6346 145.345 77.8463 144.704C76.3567 144.364 74.8432 143.978 73.3249 143.911C66.9033 143.62 61.2647 141.667 56.5523 137.475C53.659 134.899 50.5031 133.068 46.1822 133.399C44.1483 133.556 41.8375 133.368 40.1187 132.019C37.5978 130.031 35.201 127.899 32.8138 125.758C32.3841 125.373 32.2695 124.674 31.8732 123.823C32.9188 124.038 33.5443 124.105 34.122 124.298C36.7718 125.193 39.4312 125.561 42.2958 125.31C43.9526 125.167 45.7477 125.735 47.3854 126.255C49.5196 126.927 51.5392 127.908 53.6351 128.687C58.2854 130.42 63.1458 131.312 68.0969 131.845C72.3032 132.297 75.7504 134.389 79.336 136.234C81.9333 137.573 84.5592 139.19 87.3809 139.723C91.5013 140.503 95.0964 142.451 99.0688 143.463C99.4603 143.566 99.8518 143.674 100.248 143.777ZM293.451 113.741C293.284 113.821 293.112 113.897 292.945 113.973C290.662 112.2 287.912 110.744 286.222 108.567C284.422 106.247 282.536 103.967 280.794 101.607C279.39 99.6987 278.33 97.625 278.139 95.1884C277.948 92.707 277.604 90.2032 276.979 87.7935C276.377 85.4599 275.317 83.2338 274.487 80.9495C273.818 79.1176 273.221 77.2588 272.524 75.4358C271.87 73.7293 270.681 72.2109 271.646 70.1595C272.052 69.2996 271.536 68.0678 271.484 67.0063C271.45 66.3389 271.307 65.6088 271.531 65.0131C272.596 62.2227 272.543 59.0919 274.63 56.5836C275.365 55.6923 275.513 54.3754 276.081 52.8526C278.306 56.4134 281.3 59.28 281.629 63.338C281.83 65.8418 281.835 68.4172 281.443 70.8941C280.493 76.9408 282.379 82.3291 285.22 87.5874C286.48 89.9165 288.037 92.2009 288.738 94.6867C290.524 100.984 291.909 107.385 293.451 113.741ZM286.79 134.331C286.117 133.82 285.162 133.439 284.828 132.776C283.181 129.507 280.168 127.379 277.619 124.862C274.826 122.107 272.228 119.191 270.887 115.55C269.469 111.707 268.299 107.779 267.043 103.882C266.404 101.885 266.002 99.8062 264.799 98.0057C262.025 93.8447 258.325 90.8258 253.145 89.5403C250.347 88.8505 247.63 87.8651 244.833 87.1978C241.013 86.293 237.27 85.339 234.305 82.6829C233.894 82.3156 233.107 82.3515 232.572 82.0782C231.946 81.7557 231.402 81.2899 230.82 80.8868C230.915 80.7076 231.006 80.524 231.096 80.3449C232.085 80.4927 233.068 80.6942 234.061 80.7793C236.84 81.0122 239.676 81.5945 242.393 81.281C245.076 80.9674 247.664 80.7569 250.371 80.9271C254.883 81.2138 258.965 82.1678 262.35 85.236C266.179 88.7117 270.066 92.1785 271.813 97.0113C273.202 100.832 274.047 104.827 275.093 108.751C276.148 112.715 277.046 116.719 280.163 119.863C281.281 120.992 282.145 122.331 283.229 123.487C286.065 126.524 285.726 130.541 286.79 134.331ZM110.227 287.375C113.005 287.921 115.421 288.324 117.794 288.884C120.372 289.498 122.96 290.147 125.457 290.994C127.491 291.679 129.339 292.835 131.377 293.502C134.261 294.447 136.83 295.831 139.15 297.65C143.805 301.3 148.804 304.081 154.982 305.103C159.432 305.837 163.638 307.651 166.895 310.898C167.549 311.552 168.489 311.951 169.22 312.556C170.471 313.599 171.893 314.571 172.17 316.829C169.134 316.17 166.049 316.193 163.863 314.889C159.155 312.09 154.218 311.423 148.838 311.32C145.701 311.257 142.473 310.41 139.866 308.426C137.47 306.603 135.144 304.691 132.743 302.868C128.99 300.023 125.08 297.461 120.42 295.97C117.899 295.164 115.436 294.039 113.211 292.678C111.554 291.666 109.978 290.219 110.227 287.375ZM147.654 126.515C143.891 125.574 140.84 124.427 138 122.82C137.331 122.448 136.858 121.713 136.414 121.068C133.674 117.109 132.566 112.545 131.425 108.07C130.618 104.926 130.174 101.584 130.819 98.3237C131.115 96.8277 130.594 95.8602 129.492 95.0271C127.668 93.6565 126.479 91.9724 126.063 89.7822C125.935 89.1148 125.19 88.4922 125.218 87.8741C125.4 83.9953 125.791 80.1299 125.978 76.2555C126.092 73.7472 125.978 71.2255 125.968 68.0141C126.694 69.21 127.128 69.7564 127.376 70.3656C129.472 75.6463 132.094 80.6808 135.24 85.4913C138.019 89.7329 138.573 94.4717 138.635 99.3942C138.701 105.06 139.671 110.69 141.958 115.967C143.442 119.398 145.515 122.605 147.654 126.515ZM149.31 125.915C148.747 125.44 148.37 125.252 148.207 124.96C146.88 122.546 145.715 120.051 144.259 117.709C142.927 115.555 142.416 113.239 141.881 110.852C140.697 105.566 140.024 100.25 139.991 94.8435C139.981 93.2489 140.005 91.4752 139.298 90.1002C137.809 87.1843 136.324 84.2461 134.338 81.5452C132.967 79.6864 131.907 77.5544 131.091 75.4179C129.907 72.3184 128.279 69.4519 126.593 66.5987C126.293 66.0881 126.063 65.5417 125.495 64.3995C129.339 66.536 132.542 68.2783 135.679 70.1192C136.223 70.4372 136.629 71.1539 136.82 71.763C138.563 77.326 142.449 81.6527 146.231 86.0019C147.983 88.0174 148.818 90.0688 148.67 92.6622C148.394 97.3876 147.644 102.108 148.289 106.861C148.417 107.819 148.379 108.8 148.379 109.768C148.403 114.583 147.477 119.451 149.277 124.177C149.43 124.584 149.305 125.086 149.31 125.915ZM54.7142 208.92C54.4754 208.772 54.2415 208.624 54.0028 208.476C54.8478 206.067 55.5449 203.594 56.5905 201.265C57.3735 199.514 58.7199 198.04 60.5438 197.042C63.7904 195.268 67.0561 193.521 70.2407 191.649C71.4247 190.955 72.4655 190.005 73.4443 189.055C75.2299 187.34 76.7387 185.365 79.1211 184.267C79.7514 183.976 80.4102 183.573 80.8017 183.049C83.9958 178.776 88.2976 175.977 93.5304 174.333C94.7097 173.961 95.8269 173.41 97.0062 173.043C98.4194 172.608 99.8709 172.272 101.657 171.807C98.2619 177.486 93.8598 181.369 88.035 183.927C85.9056 184.863 84.12 186.44 83.0027 188.513C81.6086 191.08 80.2336 193.66 78.7917 196.204C78.171 197.306 77.5312 198.439 76.6766 199.375C73.1531 203.227 68.5887 205.046 63.2174 205.005C60.6679 204.987 58.6483 205.959 56.7958 207.469C56.1465 207.997 55.4112 208.436 54.7142 208.92ZM340.15 128.656C340.498 129.395 341.128 130.076 341.023 130.631C340.766 131.934 340.341 133.283 339.644 134.429C337.92 137.296 335.896 139.997 334.201 142.877C332.458 145.837 330.959 148.923 329.378 151.969C329.111 152.48 329.135 153.246 328.734 153.559C325.521 156.09 322.847 159.462 318.617 160.506C315.561 161.259 312.94 162.71 310.147 163.91C305.726 165.805 301.161 167.086 295.986 166.28C296.411 165.505 296.583 164.734 297.084 164.354C299.151 162.79 300.316 160.466 302.918 159.252C305.525 158.038 307.545 155.763 310.018 154.24C313.852 151.884 318.727 151.105 321.701 147.414C321.863 147.212 322.498 147.405 322.852 147.266C323.41 147.047 324.055 146.809 324.423 146.397C326.07 144.511 327.736 142.63 329.197 140.619C330.978 138.183 331.833 135.191 334.583 133.318C336.402 132.082 337.958 130.514 340.15 128.656ZM87.5003 203.581C87.4096 203.473 87.3236 203.366 87.2329 203.258C88.4026 201.543 89.4196 199.711 90.7851 198.148C92.141 196.603 93.6784 195.066 95.4641 194.014C96.8486 193.199 97.8895 192.365 98.62 191.017C99.4507 189.481 100.721 188.46 102.683 188.204C107.348 187.591 111.998 187.895 116.529 188.782C121.38 189.732 126.087 190.171 130.886 188.67C132.032 188.312 133.335 188.388 134.567 188.272C139.379 187.824 143.772 189.414 148.088 190.999C150.423 191.859 152.5 193.328 154.696 194.524C153.674 195.044 152.867 195.147 152.089 195.053C150.036 194.815 147.992 194.493 145.949 194.202C143.901 193.915 141.872 193.911 139.809 194.215C136.777 194.663 133.722 194.972 130.68 195.362C130.289 195.411 129.859 195.532 129.549 195.747C127.644 197.068 125.748 197.651 123.586 196.164C123.175 195.886 122.373 195.935 121.805 196.056C118.62 196.746 115.512 196.441 112.399 195.662C111.745 195.496 110.833 195.398 110.322 195.698C107.438 197.368 104.345 196.652 101.27 196.71C97.8895 196.773 94.2943 196.41 92.0073 199.908C91.0095 201.426 89.0329 202.376 87.5003 203.581ZM296.597 126.855C296.397 124.011 296.225 121.628 298.039 119.756C299.342 118.408 300.865 117.176 302.489 116.182C304.461 114.968 306.829 114.291 308.691 112.97C310.973 111.344 312.926 109.311 314.988 107.416C317.428 105.172 319.791 102.856 322.265 100.648C323.807 99.2688 325.435 97.9654 327.125 96.7515C330.214 94.5344 334.153 94.0955 337.567 92.5144C339.204 91.7574 341.104 91.4663 342.9 91.0318C345.115 90.4988 347.335 90.0733 348.782 88.1115C349.24 87.4844 350.09 87.1127 351.164 86.3288C350.649 89.9882 348.634 92.371 347.01 94.8838C345.893 96.6127 344.069 97.5443 341.897 97.7504C337.552 98.1624 334.215 100.59 331.102 103.031C328.6 104.997 326.748 107.712 324.69 110.148C323.238 111.859 321.61 113.297 319.376 114.027C316.669 114.914 313.976 115.873 311.226 116.634C305.239 118.291 300.474 121.471 296.597 126.855ZM101.294 169.702C101.341 169.881 101.389 170.06 101.437 170.235C99.5175 170.848 97.5314 171.332 95.6837 172.102C91.5776 173.818 86.9894 174.606 83.7905 178.082C82.3534 179.64 79.9519 180.357 79.0447 182.521C78.8824 182.906 78.2235 183.094 77.8177 183.398C76.5334 184.379 75.0342 185.199 74.0316 186.39C70.9186 190.077 66.6789 192.236 62.4726 194.533C60.4101 195.666 57.8796 196.352 56.7815 198.77C56.0224 200.45 54.9863 202.009 54.0744 203.621C53.9598 200.472 54.0266 197.476 55.9269 194.695C57.765 191.998 59.2738 189.082 60.7538 186.189C61.7899 184.169 63.3607 182.691 65.3468 181.625C67.2232 180.621 69.2714 179.9 71.2194 179C73.3345 178.024 75.4639 177.043 77.5169 175.95C80.5678 174.328 83.2844 172.281 86.7077 171.135C90.8185 169.755 95.1155 170.19 99.2406 169.263C99.8518 169.124 100.606 169.54 101.294 169.702ZM37.4975 309.855C38.0895 309.707 38.4667 309.546 38.8487 309.532C42.7208 309.371 46.5833 310.352 50.4697 309.573C50.9471 309.474 51.501 309.747 52.0118 309.734C55.0531 309.649 58.0945 309.573 61.1358 309.402C63.9097 309.246 66.7505 308.489 69.4338 308.852C75.4209 309.671 81.3556 310.916 87.252 312.224C89.1522 312.645 90.9283 313.707 92.4848 315.239C91.4344 315.548 90.6371 315.745 89.8684 316.009C84.0961 317.98 78.2044 318.446 72.1695 317.326C68.1303 316.578 64.1246 316.063 59.9708 316.896C55.9698 317.698 52.432 316.538 49.3859 313.908C48.3546 313.022 47.0273 312.3 45.7 311.888C43.0932 311.087 40.3956 310.554 37.4975 309.855ZM75.2109 146.54C75.1583 146.67 75.1106 146.805 75.0628 146.939C73.1578 147.279 71.2672 147.812 69.3478 147.911C67.2137 148.023 65.0413 147.83 62.9023 147.597C61.0689 147.396 59.1926 147.141 57.4547 146.572C54.8383 145.716 52.3031 144.619 49.7774 143.535C45.5663 141.721 41.3505 139.911 37.2063 137.963C33.3342 136.145 30.1926 133.672 28.7316 129.578C27.729 126.788 26.4303 124.065 24.9837 121.444C24.0049 119.671 22.6108 118.076 21.2692 116.5C20.3095 115.375 18.9965 114.511 18.0942 113.36C17.1966 112.218 15.3536 112.124 15.0099 110.247C14.7711 108.939 13.334 107.846 12.4937 106.619C12.1882 106.171 12.064 105.616 11.5723 104.42C13.6539 105.857 15.1961 106.798 16.5807 107.909C19.3498 110.135 21.7944 112.63 23.1789 115.873C23.5275 116.679 23.5943 117.637 24.1004 118.323C27.7767 123.29 30.4886 129.041 36.5856 132.069C38.4142 135.603 42.0094 134.823 45.1509 135.186C46.2825 135.312 47.4236 135.504 48.5026 135.822C50.379 136.373 52.0691 137.103 53.5301 138.541C57.512 142.465 62.4535 144.753 68.264 145.376C70.5987 145.627 72.8952 146.142 75.2109 146.54ZM299.003 159.852C299.452 158.258 299.576 157.299 299.987 156.466C301.114 154.195 302.202 151.884 303.611 149.77C304.69 148.144 306.275 146.823 307.559 145.309C309.617 142.881 312.205 141.098 315.284 140.091C317.686 139.307 320.116 138.478 322.498 137.811C326.394 136.722 328.557 133.91 331.231 131.675C333.322 129.928 335.041 127.894 338.106 127.307C337.476 129.368 335.728 130.456 334.306 131.813C332.878 133.18 331.441 134.581 330.281 136.145C328.457 138.604 326.848 141.206 325.167 143.754C323.802 145.828 321.391 146.603 319.371 147.853C316.912 149.371 314.568 151.373 311.847 152.13C308.753 152.999 306.719 154.934 304.313 156.551C302.766 157.595 301.142 158.531 299.003 159.852ZM261.209 3.92363C262.135 5.20463 263.047 6.49012 263.988 7.76216C266.528 11.1886 268.891 14.7091 270.252 18.7089C271.087 21.1634 272.276 23.3358 274.257 25.1811C275.408 26.2516 276.731 27.5326 277.084 28.9211C278.225 33.436 277.834 37.9867 276.296 42.4209C276.191 42.73 275.852 42.9673 275.637 43.2182C271.932 40.7816 269.908 37.5656 269.34 33.5524C268.762 29.4541 267.01 25.7813 264.742 22.3011C264.102 21.3157 263.52 20.2766 262.737 19.3987C258.507 14.6464 260.063 9.31191 261.209 3.92363ZM34.7427 311.575C34.7999 311.364 34.862 311.149 34.9193 310.939C36.9628 311.494 38.9728 312.238 41.0592 312.56C44.0099 313.022 46.5976 313.859 48.9705 315.731C50.2835 316.762 51.6394 318.231 53.7115 318.199C56.0462 318.168 58.3809 318.06 60.7156 318.123C63.9097 318.208 67.1468 318.159 70.2836 318.647C76.1801 319.556 81.938 319.659 87.6149 317.653C88.3597 317.393 89.1952 317.353 90.5321 317.115C88.627 318.513 87.2186 319.731 85.6191 320.672C83.2606 322.06 80.8781 323.516 78.2999 324.452C75.2347 325.563 72.1839 326.902 68.5744 326.047C64.7691 325.146 60.7873 324.949 56.9581 324.138C54.3465 323.583 52.0023 322.333 50.1402 320.363C48.9371 319.091 47.118 318.24 46.2156 316.838C44.9695 314.898 43.2077 314.737 41.2407 314.589C40.959 314.567 40.7012 314.316 40.4242 314.191C38.5288 313.317 36.6381 312.444 34.7427 311.575ZM48.2878 348.455C48.9705 347.152 50.0973 347.17 51.076 347.156C52.8235 347.129 54.5757 347.318 56.3231 347.309C57.2924 347.304 58.3189 347.241 59.2212 346.941C61.6467 346.131 64.0243 345.185 66.4211 344.299C66.994 344.084 67.6386 343.976 68.1447 343.667C72.0502 341.311 76.1992 339.502 80.8113 338.789C83.7714 338.333 86.7507 337.719 89.7252 337.697C96.7675 337.643 103.819 337.916 110.962 336.093C110.36 336.751 109.94 337.271 109.448 337.714C109.081 338.05 108.608 338.283 108.183 338.561C103.413 341.665 97.8513 342.44 92.3272 343.246C90.0069 343.586 87.6149 343.757 85.2706 343.663C81.0214 343.492 76.8962 343.676 72.8045 345.006C70.847 345.642 69.0852 346.552 67.228 347.34C61.1501 349.929 54.7905 349.342 48.2878 348.455ZM116.104 331.081C116.223 331.363 116.338 331.65 116.457 331.936C114.657 332.823 112.872 333.728 111.062 334.597C107.157 336.478 102.845 336.12 98.7011 336.344C94.6858 336.563 90.6944 335.775 86.5979 336.671C82.6017 337.549 78.4527 337.567 74.6427 339.425C71.0762 341.172 67.1516 342.261 63.5755 343.981C59.7321 345.83 55.7598 346.09 51.5964 345.804C52.3651 345.329 53.1911 345.047 54.0075 344.742C55.0388 344.357 56.1274 344.07 57.0775 343.546C60.6297 341.589 64.0577 339.412 67.6863 337.589C70.9329 335.954 74.4326 335.112 78.1376 334.458C82.5969 333.665 87.0276 333.849 91.4344 333.621C96.2471 333.374 101.074 333.854 105.447 331.381C105.615 331.292 105.829 331.229 106.02 331.224C109.382 331.171 112.743 331.126 116.104 331.081ZM251.502 216.386C252.195 209.274 249.597 202.784 247.817 195.895C253.245 197.185 257.628 199.635 262.188 202.403C261.596 203.612 261.281 204.907 260.464 205.807C258.015 208.521 255.36 211.065 253.484 214.21C252.997 215.029 252.171 215.67 251.502 216.386ZM217.585 330.266C213.302 329.321 208.929 328.922 204.679 327.686C200.53 326.477 196.081 326.073 192.438 323.238C197.723 323.001 202.636 324.018 207.63 324.855C211.684 325.536 215.169 326.575 217.69 329.719C217.723 329.76 217.666 329.863 217.585 330.266ZM225.019 331.059C231.951 329.518 245.601 328.394 254.907 332.16C254.372 332.42 253.928 332.801 253.47 332.828C250.91 332.985 248.342 333.2 245.787 333.114C242.498 333.007 239.213 332.698 235.943 332.366C232.29 331.995 228.657 331.498 225.019 331.059ZM54.4611 292.239C53.172 292.149 51.8734 291.948 50.589 291.992C45.848 292.163 42.7351 289.484 39.837 286.559C38.82 285.534 38.2901 284.069 39.1829 282.524C44.6401 285.202 48.5599 290.035 54.4611 292.239ZM142.507 168.716C142.602 168.47 142.698 168.219 142.793 167.964C144.321 168.12 145.916 168.071 147.372 168.474C149.74 169.124 151.984 170.145 154.328 170.875C156.868 171.672 159.442 172.38 162.034 172.998C163.93 173.45 164.861 174.579 165.648 176.868C162.087 175.336 159.146 173.992 156.138 172.805C154.18 172.031 152.137 171.439 150.108 170.835C147.587 170.091 145.042 169.424 142.507 168.716ZM309.288 360.75C313.365 365.113 317.438 369.054 320.98 373.376C324.518 377.69 329.388 381.089 331.408 386.478C323.964 378.465 316.76 370.281 309.574 362.071C309.364 361.83 309.416 361.382 309.288 360.75ZM250.113 230.33C249.984 236.385 246.083 240.551 243.902 245.334C244.904 240.125 245.515 234.773 250.113 230.33ZM154.677 160.421C154.061 162.083 153.13 161.572 152.113 161.2C148.79 159.995 145.452 158.826 142.096 157.716C140.458 157.169 138.763 156.793 137.092 156.341C137.178 156.076 137.26 155.808 137.345 155.543C143.266 156.412 149.048 157.738 154.677 160.421ZM117.455 121.977C120.635 127.03 125.734 129.973 128.537 134.783C124.97 131.907 120.969 129.529 118.085 125.932C117.207 124.844 116.782 123.868 117.455 121.977ZM59.7798 294.125C66.7314 295.37 73.6878 296.61 80.6442 297.856C80.6012 298.066 80.5535 298.277 80.5057 298.487C73.4682 297.596 66.3161 297.26 59.7798 294.125ZM168.508 176.931C173.636 178.597 175.422 183.206 178.773 186.547C178.072 186.552 177.446 186.395 177.078 186.019C175.699 184.621 174.424 183.139 173.077 181.705C171.569 180.102 170.031 178.521 168.508 176.931ZM242.035 256.581C244.608 258.001 246.055 260.33 246.58 263.891C244.112 262.901 242.226 259.869 242.035 256.581ZM255.141 218.017C254.787 217.43 254.367 217 254.463 216.834C255.375 215.271 256.32 213.721 257.37 212.23C257.747 211.701 258.421 211.361 258.96 210.935C259.103 211.061 259.247 211.186 259.395 211.316C258.063 213.408 256.735 215.5 255.141 218.017ZM271.001 183.936C269.254 187.949 269.254 187.949 267.755 187.707C268.901 186.377 269.951 185.154 271.001 183.936ZM261.123 284.866C260.942 284.974 260.765 285.077 260.588 285.18C259.777 283.948 258.965 282.712 257.848 281.005C260.402 281.865 260.464 283.545 261.123 284.866ZM143.347 313.286C140.874 313.796 140.874 313.796 139.322 312.645C141.724 311.853 141.724 311.853 143.347 313.286ZM157.756 314.571C157.708 314.818 157.661 315.064 157.613 315.315C156.4 315.01 155.183 314.71 153.975 314.406C154.027 314.208 154.085 314.007 154.142 313.81C155.345 314.065 156.553 314.316 157.756 314.571ZM269.507 304.435C269.287 304.502 269.068 304.565 268.853 304.632C268.38 303.566 267.912 302.5 267.444 301.439C267.621 301.372 267.798 301.309 267.974 301.242C268.485 302.308 268.996 303.374 269.507 304.435ZM266.795 299.652C266.547 299.732 266.303 299.817 266.06 299.898C265.826 299.177 265.592 298.456 265.358 297.735C265.458 297.703 265.554 297.672 265.654 297.641C266.036 298.312 266.413 298.984 266.795 299.652ZM183.142 201.135C183.175 200.956 183.204 200.782 183.233 200.602C183.958 200.728 184.679 200.844 185.396 200.996C185.448 201.005 185.434 201.27 185.472 201.606C184.651 201.44 183.896 201.288 183.142 201.135ZM148.155 313.899C148.207 313.644 148.265 313.389 148.322 313.134C149.029 313.281 149.735 313.425 150.442 313.572C150.408 313.752 150.375 313.935 150.342 314.114C149.611 314.043 148.881 313.971 148.155 313.899ZM334.482 389.698C334.669 389.586 334.859 389.474 335.05 389.362C335.528 390.025 336.005 390.688 336.483 391.351C336.33 391.445 336.172 391.543 336.015 391.638C335.504 390.993 334.993 390.348 334.482 389.698ZM262.407 207.325C262.536 207.442 262.665 207.558 262.794 207.675C262.255 208.293 261.72 208.911 261.18 209.529C261.027 209.399 260.879 209.274 260.736 209.148C261.29 208.539 261.849 207.93 262.407 207.325ZM206.618 212.266C206.422 212.409 206.226 212.552 206.035 212.696C205.577 212.096 205.124 211.495 204.665 210.891C204.804 210.797 204.942 210.703 205.081 210.604C205.591 211.159 206.107 211.71 206.618 212.266Z" fill="#3D3D3D"/>
</g>
<defs>
<filter id="filter0_d_93_2040" x="0" y="0" width="378" height="439.992" filterUnits="userSpaceOnUse" color-interpolation-filters="sRGB">
<feFlood flood-opacity="0" result="BackgroundImageFix"/>
<feColorMatrix in="SourceAlpha" type="matrix" values="0 0 0 0 0 0 0 0 0 0 0 0 0 0 0 0 0 0 127 0" result="hardAlpha"/>
<feOffset dy="4"/>
<feGaussianBlur stdDeviation="2"/>
<feComposite in2="hardAlpha" operator="out"/>
<feColorMatrix type="matrix" values="0 0 0 0 0 0 0 0 0 0 0 0 0 0 0 0 0 0 0.25 0"/>
<feBlend mode="normal" in2="BackgroundImageFix" result="effect1_dropShadow_93_2040"/>
<feBlend mode="normal" in="SourceGraphic" in2="effect1_dropShadow_93_2040" result="shape"/>
</filter>
</defs>
</svg>
