<svg width="320" height="325" viewBox="0 0 320 325" fill="none" xmlns="http://www.w3.org/2000/svg">
<path d="M8.9741 0.00270852C8.40993 17.0724 8.407 34.2856 11.1255 51.2862C13.9756 68.3089 20.0441 84.5365 26.1535 100.621C29.331 108.613 32.146 116.801 36.7968 124.344C41.4592 131.889 47.782 138.277 54.3211 144.199C67.3438 156.153 81.4598 167.041 96.4702 176.629L96.6047 176.45C82.4654 165.771 68.9019 154.499 55.999 142.573C49.6119 136.588 43.3242 130.464 38.6822 123.281C34.0928 116.086 30.9358 108.017 27.352 100.176C23.8939 92.2915 20.6434 84.3102 18.1908 76.0914C15.6711 67.8893 14.1101 59.4773 13.0431 51.0267C10.6958 34.1558 10.2164 17.0834 9.21087 -5.22239e-05L8.9741 0.00270852Z" fill="#373434"/>
<path d="M88.5544 163C86.2948 163.458 83.8831 164.341 82.5297 166.373C81.2581 168.491 81.6995 171.039 82.2549 173.198C82.8717 175.404 83.7458 177.488 84.6461 179.534C85.561 181.64 86.7566 183.655 88.2387 185.519C89.747 187.346 91.6178 189.022 93.8862 190.14C96.1546 191.275 98.6422 191.736 101.007 192.02C105.734 192.539 110.469 192.62 115.181 192.302C116.354 192.233 117.538 192.147 118.701 192.037L120.458 191.849C121.034 191.764 121.615 191.846 122.343 191.499C123.083 191.107 123.217 190.223 123.092 189.652C122.986 189.044 122.712 188.487 122.428 188.004C121.876 187.026 121.364 186.027 120.773 185.061C118.526 181.16 116.07 177.328 113.097 173.827C110.095 170.398 106.681 167.113 102.387 164.962C100.273 163.88 97.9611 163.11 95.605 162.751C93.249 162.431 90.849 162.497 88.5544 163ZM88.6041 163.215C90.8695 162.746 93.2577 162.743 95.4764 163.317C97.6922 163.919 99.7647 164.885 101.612 166.141C105.307 168.654 108.467 171.845 111.63 175.023C114.755 178.219 117.745 181.629 120.116 185.414C120.703 186.361 121.276 187.319 121.785 188.304C122.305 189.191 122.656 190.469 121.937 190.82C121.609 190.993 120.961 190.985 120.385 191.029L118.645 191.082C117.479 191.104 116.316 191.115 115.152 191.09C110.504 190.985 105.871 190.596 101.32 189.958C99.0631 189.627 96.8971 189.116 95.0467 188.12C93.1905 187.112 91.5623 185.712 90.2089 184.069C88.8116 182.452 87.7008 180.58 86.7011 178.656C85.7014 176.66 84.5935 174.724 83.7253 172.745C82.898 170.788 82.252 168.607 83.1144 166.66C84.0439 164.728 86.3883 163.69 88.6041 163.215Z" fill="#373434"/>
<path d="M66.8088 163.414C68.1885 166.213 69.7817 168.902 71.3485 171.588C72.1407 172.902 72.8451 174.227 73.2456 175.566C73.6607 176.883 73.5993 178.264 73.4473 179.738C73.2836 181.215 73.0322 182.777 73.1024 184.412C73.1755 186.041 73.5262 187.589 73.8916 189.089C74.6575 192.031 75.3269 195.201 73.953 197.898L74.7393 197.953L73.3421 192.321C72.8598 190.43 72.1523 188.492 70.9655 186.767C69.843 185.055 68.4516 183.62 67.4139 182.093C66.3469 180.561 65.7302 179.031 65.6746 177.314C65.6278 175.602 65.9494 173.728 66.2096 171.804L66.9023 166.075C67.1508 164.173 67.3057 162.249 67.487 160.335C67.5834 159.369 67.6185 158.458 67.9664 157.655C68.133 157.263 68.4487 156.882 68.7206 156.451C68.9924 156.04 69.235 155.449 69.007 154.935L68.7819 154.993C68.8784 155.907 67.8582 156.399 67.259 157.29C66.6334 158.201 66.4551 159.237 66.2417 160.159C65.8091 162.042 65.3589 163.922 64.9964 165.807L63.871 171.472C63.5641 173.352 63.0788 175.277 63.1753 177.411C63.2016 179.575 64.254 181.72 65.508 183.321C66.7708 184.964 68.1652 186.361 69.314 187.827C71.5648 190.723 72.6551 194.535 73.9296 198.166L74.2892 199.198L74.7189 198.224C76.0752 195.159 75.2655 191.924 74.9557 188.917C74.7832 187.396 74.6517 185.883 74.7744 184.445C74.9147 183.007 75.2977 181.546 75.514 179.967C75.7303 178.41 75.7537 176.643 75.1778 175.017C74.6487 173.402 73.7104 172.03 72.8042 170.738C70.9275 168.212 69.0655 165.705 67.0047 163.292L66.8088 163.414Z" fill="#373434"/>
<path d="M75.9232 125.246C78.6037 121.373 81.3106 117.486 84.7775 114.344C86.505 112.779 88.4343 111.457 90.4952 110.399C92.5794 109.369 94.8331 108.668 97.16 108.295C101.831 107.561 106.649 107.807 111.369 108.737C116.108 109.623 120.767 111.076 125.389 112.616L125.246 111.904C118.73 117.602 111.139 122.182 103.106 125.691C101.109 126.577 99.0542 127.358 97.005 128.151C94.9471 128.921 92.898 129.672 90.8342 130.072C88.7646 130.497 86.7506 130.478 84.8973 129.749C83.0119 129.065 81.3369 127.756 79.3228 126.605C78.3202 126.03 77.2065 125.509 75.9846 125.188C74.7539 124.882 73.6431 124.763 72.4797 124.661C70.1704 124.482 67.9079 124.487 65.7097 124.484C63.4968 124.465 61.3366 124.391 59.267 124.015C57.1623 123.623 55.0138 123.112 52.9354 122.48C44.622 119.918 36.8346 115.622 30.5206 109.681L30.3481 109.833C35.9869 116.407 43.7304 121.415 52.2631 124.335C54.4058 125.075 56.5514 125.691 58.8022 126.191C61.1057 126.649 63.415 126.754 65.6658 126.809C67.9108 126.875 70.1236 126.834 72.2605 127.011C73.3128 127.085 74.4119 127.234 75.3532 127.447C76.2857 127.67 77.2006 128.068 78.1156 128.559C79.9396 129.534 81.7754 130.92 84.0876 131.729C86.4027 132.59 89.0453 132.543 91.2961 131.991C93.5879 131.45 95.6662 130.586 97.7183 129.733C99.7733 128.866 101.781 127.911 103.755 126.908C111.673 122.889 118.99 117.977 125.845 112.544L126.403 112.094L125.705 111.829C121.153 110.098 116.608 108.265 111.773 107.086C106.955 105.932 101.781 105.441 96.7858 106.426C91.7901 107.315 87.0429 109.789 83.7163 113.356C80.2758 116.837 77.8642 120.976 75.7186 125.13L75.9232 125.246Z" fill="#373434"/>
<path d="M71.0066 126.367C73.4357 127.223 75.3709 128.772 76.9114 130.547C78.4753 132.333 79.5452 134.448 80.5332 136.626C81.5563 138.796 82.5239 141.071 83.3482 143.376C84.1579 145.692 84.801 148.056 85.3213 150.438L86.0726 149.994C83.8042 148.105 81.5972 146.156 79.2908 144.326C76.9611 142.52 74.6781 140.662 72.2899 138.926C69.9455 137.181 67.5982 135.544 65.8004 133.443C64.0465 131.361 62.7224 128.819 62.7779 125.967L62.5557 125.928C61.6349 128.764 62.5528 131.974 64.2512 134.484C65.9817 137.035 68.3728 139.034 70.7552 140.784C73.12 142.548 75.596 144.177 78.0163 145.872C80.4543 147.534 83.0033 149.085 85.4938 150.695L86.6631 151.454L86.245 150.239C85.4353 147.904 84.7484 145.549 84.2398 143.144C83.775 140.718 83.3453 138.283 82.4449 135.903C81.5271 133.556 80.1444 131.273 78.2093 129.434C76.2975 127.618 73.731 126.29 71.0621 126.149L71.0066 126.367Z" fill="#373434"/>
<path d="M51.6963 123.999C51.8805 121.119 53.6607 118.817 55.3269 116.481C57.0135 114.143 58.8844 111.962 60.7815 109.784C62.6553 107.592 64.6518 105.424 66.9728 103.602C69.3142 101.788 71.9538 100.35 74.7075 99.1961L73.8071 98.4866C72.6759 101.242 72.0561 104.124 71.4335 106.921C70.808 109.706 70.0625 112.412 68.8261 114.838C67.61 117.257 65.7772 119.405 63.465 121.056C61.1586 122.734 58.4196 123.932 55.438 124.523L55.4526 124.741C58.5599 124.879 61.7315 124.04 64.4822 122.489C67.2095 120.926 69.5978 118.654 71.0593 115.893C72.5326 113.132 73.1173 110.156 73.5996 107.296C74.0936 104.431 74.3625 101.604 75.0202 98.84L75.3681 97.4044L74.1199 98.1333C71.4803 99.6599 68.9839 101.33 66.5109 103.031C64.0438 104.745 61.5445 106.476 59.3345 108.544C57.1626 110.639 55.3152 113.027 53.7864 115.573C52.3189 118.033 50.7609 121.031 51.4595 124.018L51.6963 123.999Z" fill="#373434"/>
<path d="M104.863 115.302C102.124 115.012 99.3993 115.785 97.1163 117.036C95.9763 117.71 95.0058 118.61 93.8921 119.258C92.7871 119.932 91.5886 120.415 90.3433 120.826C87.8499 121.611 85.5172 122.549 83.1436 123.275C80.8051 124.112 78.4812 124.783 75.8474 125.291L75.8328 125.511C78.4081 126.439 81.3342 126.226 83.927 125.511C86.5052 124.7 88.8788 123.463 90.9543 121.887C92.0096 121.136 93.0736 120.407 94.2633 119.888C95.4355 119.358 96.7538 119.093 97.964 118.684C100.355 117.784 102.521 116.719 104.912 115.52L104.863 115.302Z" fill="#373434"/>
<path d="M76.315 138.647C75.8736 137.267 75.2598 136.311 74.3828 135.478C73.9034 135.094 73.2399 134.788 72.854 134.296C72.4535 133.816 72.3103 133.206 72.2285 132.579C72.1203 131.301 71.7637 130.089 71.065 128.904C70.2992 127.808 68.9662 126.718 67.3906 126.74L67.2795 126.93C68.0162 128.14 68.3787 129.048 68.8961 130.075C69.4895 131.033 70.0858 132.121 71.0621 133.076C71.5211 133.576 71.9449 134.067 72.2051 134.655C72.4682 135.232 72.5179 135.964 72.8102 136.565C73.4766 137.714 74.643 138.578 76.163 138.818L76.315 138.647Z" fill="#373434"/>
<path d="M67.3088 108.235C65.6163 109.292 64.412 110.592 63.4941 112.105C63.0732 112.892 62.8306 113.803 62.3336 114.543C61.8513 115.297 61.1702 115.899 60.4365 116.467C58.9369 117.56 57.6682 118.819 56.4639 120.122C55.3268 121.486 54.4265 122.795 53.1987 124.25L53.3127 124.438C55.3589 124.206 57.0544 122.925 58.3435 121.663C59.5742 120.318 60.6616 118.875 61.4479 117.218C61.8659 116.404 62.319 115.625 62.9446 114.976C63.5555 114.308 64.4149 113.811 65.0697 113.176C66.3062 111.832 67.1715 110.236 67.4988 108.351L67.3088 108.235Z" fill="#373434"/>
<path d="M27.3958 146.361C30.81 149.453 34.0489 152.685 37.0013 156.109C39.8718 159.551 42.5261 163.245 43.2949 167.439C43.6749 169.531 43.7684 171.732 44.011 174.001C44.2566 176.262 44.7009 178.501 45.3265 180.682C46.4957 185.074 48.2496 189.243 49.7492 193.473L50.4186 193.045C44.204 188.216 38.1852 182.946 34.0372 176.511C31.9822 173.3 30.3189 169.882 29.4858 166.279C28.5796 162.707 28.7463 158.961 28.6849 155.107C28.603 151.25 28.4423 147.561 29.0941 143.903C29.3835 142.059 29.8015 140.201 30.1669 138.307C30.506 136.403 30.7983 134.495 31.0205 132.582C31.9559 124.921 31.7425 117.152 30.4388 109.604L30.202 109.626C30.6025 117.257 30.1845 124.852 28.9918 132.319C28.3955 136.066 27.4016 139.677 26.6737 143.534C25.8933 147.412 26.0979 151.402 26.2616 155.162C26.4253 158.919 26.3347 162.886 27.4133 166.751C28.492 170.586 30.354 174.147 32.7393 177.311C37.5011 183.691 43.8853 188.547 49.872 193.646L51.0325 194.632L50.5472 193.224C49.0739 188.986 47.8638 184.671 46.9751 180.337C46.5571 178.167 46.2239 175.992 46.0105 173.822C45.8059 171.657 45.8322 169.38 45.3031 167.072C44.242 162.423 41.3948 158.461 38.1559 155.17C34.9375 151.843 31.3917 148.823 27.5419 146.198L27.3958 146.361Z" fill="#373434"/>
<path d="M27.9367 141.913C27.0334 144.525 24.537 145.985 21.9997 146.882C19.4215 147.782 16.4808 148.508 13.8675 149.814C11.2337 151.093 8.85719 152.782 6.64435 154.59C4.43736 156.407 2.32099 158.279 0.306932 160.277L1.04065 160.606C1.80651 157.329 2.77701 154.091 4.21228 151.173C4.96061 149.731 5.81125 148.348 6.90451 147.178C7.99778 145.996 9.30443 144.997 10.6754 144.047C13.4612 142.175 16.5071 140.629 19.7314 139.266C22.9439 137.904 26.2003 136.596 29.5649 135.483L29.5181 135.268C25.9372 135.63 22.4324 136.483 19.021 137.584C15.6302 138.666 12.2013 140.066 9.21673 142.134C6.17372 144.135 3.64518 147.134 2.35899 150.424C1.01434 153.715 0.686943 157.144 0.204621 160.468L0 161.868L0.938336 160.799C2.76239 158.72 4.87584 156.849 7.27868 155.374C9.65813 153.87 12.2334 152.708 14.7795 151.581C16.0628 151.015 17.3431 150.474 18.6527 149.977C19.9711 149.502 21.3449 148.997 22.7013 148.387C25.3643 147.211 28.0331 144.878 28.1647 141.946L27.9367 141.913Z" fill="#373434"/>
<path d="M27.2556 149.944C27.9718 151.86 29.3808 153.398 30.6757 154.866C32.0584 156.343 33.1546 157.638 33.9994 159.278C34.9055 160.876 35.6714 162.682 36.1303 164.551C36.5805 166.428 36.7822 168.358 37.1476 170.299C37.475 172.253 38.0158 174.172 38.7992 176.003C39.5504 177.838 40.4099 179.638 41.4388 181.334C43.5435 184.721 46.0457 187.816 48.9046 190.646L49.1063 190.519C47.4664 186.916 45.4815 183.559 43.6195 180.199C41.658 176.88 39.8895 173.518 38.3753 169.987C37.6445 168.209 37.1622 166.337 36.8728 164.421C36.5864 162.508 36.487 160.52 35.7883 158.555C35.1102 156.581 33.479 154.905 31.9736 153.676C30.4711 152.354 28.8312 151.247 27.4602 149.831L27.2556 149.944Z" fill="#373434"/>
<path d="M29.986 132.571C32.9969 133.598 36.2065 134.062 38.2469 136.03C40.4392 137.885 41.9856 140.475 43.9558 142.802C45.8617 145.176 47.8202 147.528 49.3958 150.112C50.9948 152.683 52.2956 155.408 53.535 158.141L54.7247 157.18C52.585 155.515 50.3897 153.908 48.1798 152.338C45.9786 150.75 43.7687 149.177 41.4799 147.711C39.2232 146.203 36.8613 144.826 34.5491 143.387C33.4032 142.716 32.2865 142.012 31.3248 141.148C30.3485 140.309 29.4803 139.323 29.147 138.076L28.9103 138.098C28.8664 139.478 29.6206 140.792 30.48 141.866C31.3745 142.951 32.421 143.884 33.5143 144.751C35.6949 146.358 37.8259 148.039 40.0534 149.582C42.2574 151.162 44.5433 152.636 46.8439 154.096C49.1239 155.576 51.4274 157.031 53.7805 158.411L56.6832 160.12L54.9673 157.45C53.3216 154.88 51.5911 152.368 50.0067 149.778C48.3932 147.203 47.0222 144.494 45.4554 141.874C43.8915 139.293 42.1317 136.668 39.4337 134.672C38.1387 133.667 36.4053 132.999 34.8092 132.769C33.2044 132.502 31.6171 132.441 30.0298 132.35L29.986 132.571Z" fill="#373434"/>
<path d="M29.4158 136.049C31.7514 137.449 33.6865 138.923 35.7181 140.428C36.7237 141.129 37.9105 141.896 38.8751 142.772C39.8573 143.655 40.6612 144.685 41.43 145.753C42.9091 147.926 44.6367 149.889 46.4578 151.769C48.3579 153.58 50.3865 155.281 52.7689 156.683L52.9385 156.534C51.6698 154.173 50.0445 152.122 48.2877 150.179C46.4607 148.312 44.5373 146.507 42.3683 144.936C41.3043 144.127 40.2841 143.277 39.4364 142.283C38.5565 141.306 38.0011 140.113 37.0394 139.078C35.0984 137.156 32.3623 135.779 29.4713 135.834L29.4158 136.049Z" fill="#373434"/>
<path d="M48.7495 78.5568C52.6169 75.3157 57.367 73.2396 62.3042 72.2154C67.2561 71.2326 72.4096 71.0863 77.3731 71.9476C79.8344 72.3949 82.2431 72.9829 84.3858 74.1286C86.5402 75.266 88.525 76.743 90.3783 78.3884C94.0732 81.7289 97.4728 85.4449 100.25 89.5363L100.533 88.9676C92.1293 90.0691 83.4738 90.7814 75.2305 89.1387C71.1234 88.3243 67.2327 86.9467 63.6518 84.8927C60.0329 82.9133 56.5894 80.5087 52.7776 78.4823C50.8951 77.4636 48.8197 76.5636 46.7939 75.9838L40.6933 74.0568C36.7879 72.7289 33.0024 70.9979 29.5326 68.7948C22.5843 64.4053 16.7292 58.4062 12.6455 51.3332L12.4321 51.4243C15.7236 58.8921 21.2805 65.5841 28.3663 70.374C31.8712 72.8172 35.7561 74.7912 39.866 76.224C43.8328 77.6872 48.0363 78.5458 51.6084 80.5059C55.2886 82.3528 58.7964 84.6801 62.5965 86.6624C66.3879 88.6887 70.6557 90.0443 74.9528 90.6406C83.6141 91.8028 92.176 90.5743 100.639 89.713L101.261 89.6522L100.925 89.1332C98.151 84.9755 95.0933 80.9614 91.5212 77.32C89.7293 75.5007 87.7416 73.7642 85.3592 72.4942C82.9944 71.2133 80.3548 70.4016 77.7181 70.0344C72.4651 69.2945 67.0397 69.416 61.9271 70.7909C56.835 72.1271 52.0147 74.6614 48.577 78.3995L48.7495 78.5568Z" fill="#373434"/>
<path d="M34.5839 71.7958C36.3437 72.1823 38.1502 71.7654 39.8222 71.2188C41.5001 70.6446 43.0757 69.8191 44.5724 68.8528C47.6066 66.9258 49.8487 64.0685 51.5646 61.1172C53.2863 58.1412 54.555 55.0353 55.6979 51.8798C56.835 48.7215 57.7061 45.4832 58.2879 42.2062L58.6123 40.4089L57.2092 41.5381C54.4644 43.7577 51.6581 45.9083 48.7408 47.9209C45.8498 49.9859 42.6606 51.5678 39.7901 53.8813C36.8669 56.2611 35.189 59.6347 34.0168 62.8261C33.441 64.386 32.5757 65.9651 32.184 67.7016C32.0145 68.5574 31.8771 69.5044 32.3039 70.3547C32.7482 71.205 33.7011 71.6108 34.5839 71.7958ZM34.6365 71.5832C33.7947 71.3761 32.9236 70.9758 32.5991 70.2249C32.3156 69.4712 32.4676 68.6265 32.7833 67.859C33.4147 66.3157 34.4641 64.9602 35.379 63.4142C37.168 60.4298 38.7144 57.5145 41.1318 55.1872C42.2894 53.9724 43.637 52.8654 45.0109 51.7501C46.376 50.632 47.7557 49.5194 49.1881 48.4841C52.0469 46.4025 55.0198 44.4562 58.0423 42.5706L56.9607 41.9135C55.9552 45.0442 54.8327 48.1252 53.602 51.162C52.3421 54.174 50.9303 57.1666 49.3839 60.0129C47.8171 62.851 45.9609 65.4847 43.6136 67.7568C42.4063 68.886 41.0529 69.8936 39.565 70.6694C38.0654 71.4258 36.3261 71.9007 34.6365 71.5832Z" fill="#373434"/>
<path d="M46.1714 77.0798C47.7411 78.8688 48.8811 80.8786 49.8867 82.9243C50.904 84.9728 51.6961 87.1096 52.2983 89.2602C52.8742 91.4053 53.4442 93.6774 53.8534 95.9577C54.2919 98.2436 54.4761 100.563 54.6982 102.89L55.3442 102.52C52.9151 100.748 50.7432 98.6991 48.5508 96.7087C46.3789 94.6988 44.2362 92.6559 42.6168 90.4004C40.9243 88.1448 40.0824 85.7126 39.7346 82.8166C39.2932 79.9979 39.0564 76.95 37.738 74.2252L37.5188 74.297C38.0157 77.1599 37.6883 80.0172 37.8111 82.9657C37.8783 84.4372 37.9456 85.9639 38.4045 87.5154C38.8722 89.0338 39.6089 90.4749 40.5647 91.731C42.4589 94.2626 44.8472 96.231 47.2179 98.1139C49.6178 99.9995 52.2662 101.579 54.8678 103.163L55.6687 103.641L55.5196 102.788C55.1192 100.51 54.9525 98.1912 54.9292 95.8611C54.8648 93.5228 54.8678 91.1568 54.3211 88.7909C53.7394 86.4277 52.6959 84.2218 51.4126 82.1596C50.1089 80.1304 48.4514 78.2117 46.3321 76.9142L46.1714 77.0798Z" fill="#373434"/>
<path d="M55.7711 44.8703C54.289 45.4418 53.2162 46.651 52.3101 47.6973C51.3805 48.7822 50.5035 49.9114 49.7961 51.1399C49.115 52.3795 48.586 53.7212 47.8376 54.9304C47.0951 56.1313 46.151 57.208 45.16 58.2626C43.0933 60.3139 41.5207 62.7019 39.6177 64.524C37.7761 66.4593 35.5048 68.1709 33.3884 70.2359L33.5112 70.4292C36.3876 69.5458 39.1354 68.2455 41.4125 66.1694C42.5379 65.112 43.3886 63.8642 44.1574 62.655C44.9437 61.443 45.5926 60.2089 46.2357 58.9307C46.8759 57.6691 47.5745 56.4378 48.4661 55.3252C49.3547 54.2126 50.448 53.2381 51.4068 52.1642C52.3422 51.0847 53.0935 49.8865 53.8096 48.6635C54.5463 47.4184 55.0345 46.1927 55.9085 45.0525L55.7711 44.8703Z" fill="#373434"/>
<path d="M16.32 257.014C19.4799 255.7 22.3884 253.828 25.9079 253.32C28.8311 252.897 31.7747 252.514 34.6511 251.887C36.747 251.429 38.7494 250.598 40.7956 249.935C41.3919 249.739 41.9795 249.521 42.5846 249.358C48.5449 247.743 54.5432 246.247 60.4539 244.477C62.883 243.751 65.28 242.821 67.5192 241.556C70.8106 239.698 74.4178 238.442 77.9665 237.095C80.0625 236.3 82.1671 235.535 84.2806 234.787C85.444 234.378 86.66 234.094 87.8059 233.652C91.3809 232.283 94.9706 230.941 98.4755 229.428C100.118 228.719 101.571 227.628 103.126 226.731C104.36 226.016 105.617 225.34 106.85 224.622C107.154 224.445 107.394 224.177 107.666 223.948C107.59 223.843 107.517 223.739 107.444 223.634C106.488 224.18 105.57 224.799 104.567 225.254C103.378 225.793 102.126 226.223 100.878 226.637C98.4462 227.446 95.9966 228.216 93.5499 228.992C92.2404 229.409 90.9308 229.843 89.6037 230.204C86.8939 230.95 84.6781 232.625 82.1408 233.685C79.32 234.864 76.7739 236.546 73.7835 237.44C72.1875 237.92 70.8253 239.061 69.2818 239.754C66.7153 240.908 64.0815 241.926 61.4916 243.031C56.759 245.046 51.8072 246.313 46.6829 247.039C45.0576 247.268 43.4528 247.613 41.8421 247.923C38.3197 248.604 34.7797 249.228 31.2807 250.012C29.1468 250.493 27.1152 251.423 24.9667 251.799C21.757 252.359 18.9128 253.715 15.9633 254.888C14.3439 255.531 12.6105 255.92 10.9413 256.456C10.4795 256.602 10.0585 256.865 9.61422 257.063C7.8457 257.85 6.08888 258.659 4.29698 259.396C4.04267 259.498 3.62758 259.247 3.25049 259.153C3.31187 258.112 4.14205 257.947 4.7793 257.629C6.12396 256.961 7.48323 256.321 8.83665 255.669C9.17574 255.504 9.48852 255.274 9.84515 255.164C12.0667 254.466 14.2971 253.797 16.5217 253.107C19.135 252.298 21.7337 251.434 24.3616 250.67C26.3464 250.093 28.3751 249.64 30.3804 249.121C32.0787 248.679 33.7508 248.121 35.4725 247.796C39.676 247.003 43.9029 246.316 48.121 245.584C49.1442 245.405 50.1497 245.247 51.1611 244.913C53.716 244.071 56.3614 243.461 58.9718 242.763C59.1501 242.719 59.4425 242.801 59.5214 242.708C60.6234 241.371 62.3949 241.333 63.8477 240.684C66.5165 239.491 69.2088 238.343 71.8834 237.158C73.6344 236.383 75.3562 235.549 77.1101 234.787C79.282 233.84 81.4919 232.921 83.4182 231.593C85.7305 230.003 88.3935 229.31 90.9922 228.366C93.9592 227.289 96.9642 226.392 99.9984 225.519C101.96 224.956 103.766 223.923 105.631 223.073C109.507 221.304 113.343 219.443 117.263 217.762C119.595 216.762 121.864 215.581 124.43 215.073C125.12 214.937 125.687 214.291 126.333 213.913C127.467 213.25 128.602 212.593 129.762 211.978C130.832 211.409 131.595 210.702 131.861 209.482C132.203 207.911 132.799 206.393 133.173 204.827C133.437 203.729 133.466 202.583 133.676 201.473C133.852 200.535 134.097 199.604 134.378 198.69C135.272 195.772 136.36 192.896 137.05 189.939C137.45 188.216 137.491 186.328 137.219 184.577C136.892 182.465 137.403 180.55 137.888 178.523C137.149 178.377 136.357 178.184 135.553 178.07C132.571 177.642 129.897 176.538 127.529 174.802C126.842 174.296 126.307 173.598 125.757 172.944C124.126 170.995 121.738 169.86 119.934 168.096C119.627 167.795 119.183 167.582 118.964 167.237C117.821 165.434 115.938 164.416 114.246 163.196C112.898 162.224 111.498 161.315 110.11 160.393C107.391 158.593 105.783 156.062 104.901 153.119C104.117 150.504 102.755 148.439 100.01 147.296C98.797 146.791 97.6628 146.079 96.9905 144.911C96.6309 144.282 96.8443 143.818 97.5839 143.801C98.4521 143.782 99.4401 143.655 100.177 143.981C101.881 144.732 103.609 144.547 105.345 144.456C108.484 144.29 111.548 144.715 114.483 145.698C116.903 146.51 119.224 147.584 121.571 148.577C123.454 149.373 124.512 151.026 125.854 152.379C126.319 152.848 126.772 153.329 127.263 153.77C127.625 154.099 128.105 154.323 128.423 154.679C132.013 158.687 135.997 162.398 138.917 166.92C139.271 167.466 139.832 167.894 140.341 168.422C140.473 168.22 140.657 168.065 140.639 167.936C140.385 165.915 140.239 163.869 139.789 161.887C139.312 159.789 138.59 157.735 137.88 155.695C137.427 154.394 136.965 153.047 136.193 151.912C135.623 151.076 134.65 150.308 133.673 149.933C131.835 149.221 130.8 147.793 129.692 146.449C128.695 145.24 127.605 144.066 127.102 142.52C126.918 141.952 126.246 141.499 125.74 141.049C124.547 139.989 123.796 138.719 123.486 137.195C123.355 136.554 123.004 135.955 122.866 135.318C122.562 133.904 122.571 132.513 122.746 131.047C123.223 127.124 123.454 123.17 123.694 119.225C123.784 117.732 124.41 116.627 125.658 115.752C126.786 114.963 127.935 114.154 127.859 112.691C128.66 112.453 129.107 112.696 129.139 113.265C129.195 114.228 129.742 114.913 130.256 115.683C131.422 117.436 131.922 119.46 132.177 121.47C132.501 123.996 133.708 125.956 135.544 127.731C136.594 128.747 137.546 129.912 138.271 131.152C138.792 132.043 138.929 133.164 139.119 134.199C139.397 135.734 139.59 137.28 139.78 138.826C140.057 141.112 139.295 143.249 138.476 145.317C137.83 146.949 137.836 148.605 137.678 150.267C137.655 150.526 137.877 150.811 138.005 151.073C138.116 151.291 138.382 151.498 138.368 151.697C138.175 154.436 140.198 156.564 140.63 159.126C140.744 159.808 140.969 160.479 141.227 161.476C141.601 160.854 141.911 160.534 141.996 160.17C142.262 159.01 142.469 157.834 142.656 156.658C143.176 153.362 143.673 150.06 144.188 146.758C144.241 146.413 144.273 146.043 144.422 145.731C145.579 143.326 145.977 140.723 146.714 138.208C147.316 136.143 148.143 134.139 148.853 132.101C149.049 131.541 149.283 130.994 148.774 130.406C148.535 130.125 148.462 129.628 148.5 129.241C148.812 125.937 147.488 123.168 145.395 120.65C144.425 119.482 143.337 118.397 142.411 117.204C141.361 115.852 140.537 114.347 140.201 112.699C139.903 111.241 139.73 109.737 139.733 108.254C139.736 105.789 138.441 103.818 137.222 101.822C136.722 101.004 135.924 100.356 135.31 99.5964C134.965 99.1712 134.579 98.7047 134.451 98.2022C133.881 95.9605 133.849 93.6774 134.667 91.5046C135.056 90.4749 135.357 89.5086 135.281 88.4181C135.117 86.0329 134.977 83.6421 134.883 81.254C134.869 80.8289 135.015 80.2187 135.322 80.02C135.573 79.8599 136.196 80.1387 136.617 80.3043C138.523 81.0497 139.493 82.7421 140.823 84.07C141.776 85.0224 142.761 85.9445 143.706 86.9025C145.305 88.5258 146.035 90.5439 146.608 92.6448C147.324 95.2703 148.307 97.7577 150.385 99.7703C151.744 101.087 153.071 102.47 154.173 103.98C155.647 106.001 156.097 108.406 156.38 110.802C156.719 113.66 156.36 116.774 155.524 119.753C155.369 120.302 155.357 120.884 155.574 121.539C156.614 119.385 157.608 117.21 158.713 115.09C159.871 112.864 160.584 110.479 161.66 108.226C162.063 107.382 162.724 106.678 163.156 105.913C163.58 105.159 164.01 104.339 164.349 103.536C164.995 101.998 166.039 100.759 166.983 99.4197C168.386 97.4292 170.227 95.8804 172.241 94.5553C173.513 93.716 175.045 92.9678 176.547 92.7691C180.102 92.3025 183.686 91.5847 187.305 92.4737C188.462 92.7608 188.88 92.4516 189.342 91.4218C190.02 89.92 190.508 88.2773 191.491 86.9743C192.783 85.2571 194.004 83.3991 196.67 83.0126C198.632 82.7255 200.354 81.6571 202.023 80.4976C203.853 79.2221 206.01 78.3552 208.068 77.389C209.45 76.743 210.877 76.1687 212.333 75.7022C212.938 75.5062 213.671 75.6746 214.584 75.6746C214.42 76.3316 214.394 76.8065 214.189 77.1985C213.265 78.9681 212.368 80.7599 211.301 82.4549C210.801 83.2445 210.041 83.9927 209.217 84.4786C207.726 85.3592 206.136 86.1157 204.516 86.77C201.836 87.8467 199.602 89.4507 197.688 91.4936C196.314 92.9623 194.44 93.6111 192.517 93.9562C190.415 94.3316 189.316 95.4221 188.833 97.3077C188.182 99.8531 187.717 102.484 186.676 104.886C185.46 107.691 183.82 110.275 180.833 111.984C177.649 113.803 174.887 116.213 172.531 118.974C171.198 120.534 169.792 121.864 167.573 122.342C164.565 122.994 161.613 123.877 158.637 124.672C156.48 125.249 154.513 125.992 153.159 127.927C151.961 129.639 150.841 131.364 150.455 133.363C150.324 134.034 151.028 134.848 151.35 135.596C151.037 135.616 150.727 135.635 150.414 135.654C151.446 134.647 152.417 133.57 153.53 132.651C154.741 131.654 155.986 130.79 157.699 130.415C159.874 129.934 161.937 129.1 163.788 127.684C166.436 125.658 168.778 123.308 171.479 121.357C172.999 120.258 174.469 119.068 176.48 118.726C178 118.466 179.526 118.104 180.973 117.594C182.782 116.95 184.636 116.97 186.387 117.367C188.205 117.776 189.991 118.51 191.628 119.38C192.973 120.095 193.975 121.376 195.305 122.118C197.243 123.198 199.313 124.081 201.38 124.932C202.812 125.522 204.344 125.901 205.817 126.403C206.773 126.732 207.711 127.049 208.074 128.151C208.226 128.617 208.769 128.965 209.149 129.379C208.611 129.995 208.071 129.959 207.27 129.871C204.946 129.611 202.581 129.691 200.248 129.492C197.571 129.263 194.969 129.561 192.397 130.199C190.728 130.616 189.313 131.411 187.98 132.504C186.118 134.026 184.016 135.282 182.052 136.701C181.105 137.383 180.181 138.117 179.356 138.929C178.035 140.237 176.509 141.104 174.598 141.372C173.136 141.576 171.935 141.314 170.894 140.193C170.122 139.362 169.011 138.948 167.784 139.268C164.624 140.099 161.37 139.79 158.161 139.931C157.222 139.972 156.234 139.42 155.299 139.067C154.603 138.804 153.969 138.399 153.282 138.114C152.493 137.788 151.733 137.303 150.812 138.026C150.572 138.214 149.865 137.874 149.485 137.799C148.54 141.168 147.713 144.157 146.854 147.139C146.591 148.058 146.149 148.936 145.936 149.864C145.325 152.547 144.813 155.253 144.211 157.939C143.91 159.278 143.434 160.584 143.147 161.926C142.963 162.787 142.671 163.792 142.963 164.548C143.805 166.715 144.36 168.874 143.919 171.202C146.769 173.604 150.134 175.511 151.639 179.208C152.975 177.032 155.211 175.953 157.36 174.829C158.602 174.181 160.034 173.866 161.373 173.38C163.042 172.773 164.194 171.552 165.29 170.307C166.05 169.438 166.685 168.466 167.339 167.519C168.269 166.174 169.029 164.706 170.113 163.491C170.979 162.519 172.192 161.807 173.308 161.053C174.627 160.161 176.001 159.344 177.366 158.516C177.731 158.292 178.132 158.083 178.547 157.967C180.28 157.489 181.607 156.468 182.978 155.396C183.671 154.858 184.484 153.743 185.776 154.505C188.214 153.044 190.944 154.212 193.499 153.748C195.346 153.409 197.194 153.226 198.863 152.235C199.734 151.719 200.839 151.556 201.996 151.181C202.97 151.515 202.654 152.393 202.4 153.058C202.134 153.77 201.701 154.513 201.119 155.01C199.86 156.081 199.053 157.387 198.278 158.778C196.983 161.106 195.375 163.284 194.186 165.653C193.285 167.447 192.42 169.219 191.119 170.788C190.321 171.748 189.421 172.532 188.217 173.054C186.632 173.742 185.188 174.807 183.545 175.274C180.979 176.003 178.848 177.46 176.501 178.542C174.548 179.445 172.508 179.608 170.587 179.086C168.532 178.529 166.565 178.628 164.589 178.959C162.385 179.332 160.265 179.553 158.02 179.067C157.003 178.846 155.831 179.092 154.711 178.877C154.29 178.794 153.659 179.23 153.258 179.569C152.098 180.558 151.008 181.623 149.882 182.65C148.014 184.346 146.114 186.008 144.29 187.741C143.817 188.191 143.396 188.821 143.264 189.428C142.519 192.86 141.089 196.059 139.821 199.323C139.11 201.158 138.839 203.163 138.52 205.115C138.263 206.677 137.853 208.127 136.713 209.333C136.605 209.446 136.62 209.662 136.535 209.996C137.517 209.711 138.412 209.523 139.251 209.198C141.99 208.14 144.667 206.984 147.576 206.31C149.046 205.968 150.315 204.885 151.718 204.223C153.577 203.345 155.492 202.569 157.363 201.708C158.5 201.183 159.613 200.606 160.707 200.002C163.18 198.632 165.819 197.735 168.655 197.302C169.292 197.205 169.856 196.708 170.496 196.587C174.057 195.908 177.638 195.325 181.195 194.624C182.613 194.342 184.031 194.359 185.454 194.27C186.375 194.212 187.275 193.873 188.196 193.771C190.707 193.497 193.294 193.528 195.717 192.951C197.173 192.603 199.117 192.818 200.02 191.14C202.411 190.035 204.25 188.291 206.179 186.609C207.001 185.894 207.129 184.983 207.691 184.224C209.114 182.308 210.471 180.342 211.76 178.341C213.166 176.163 214.408 173.891 215.846 171.734C216.472 170.79 217.48 170.078 218.191 169.173C218.93 168.231 219.603 167.226 220.149 166.174C220.614 165.277 220.772 164.242 221.213 163.331C221.766 162.202 221.775 161.13 221.608 159.891C221.128 156.28 220.88 152.641 220.579 149.008C220.529 148.423 220.576 147.788 220.763 147.236C221.485 145.135 221.248 142.979 221.301 140.836C221.324 139.878 221.307 138.912 221.444 137.968C221.725 136.041 223.309 135.086 224.826 134.072C225.697 133.493 226.568 132.872 227.276 132.129C228.805 130.533 230.322 128.91 231.669 127.179C233.078 125.365 234.233 123.38 235.595 121.533C236.232 120.669 237.101 119.965 237.855 119.176C238.118 118.899 238.361 118.601 238.594 118.3C239.357 117.32 240.053 116.288 240.895 115.377C241.202 115.043 241.854 114.996 242.479 114.769C243.204 117.436 244.496 119.595 245.885 121.743C246.855 123.245 247.402 124.995 248.071 126.66C248.217 127.022 248.077 127.485 248.068 127.902C248.036 129.515 248.071 131.132 247.943 132.739C247.861 133.807 247.738 134.939 247.288 135.9C246.499 137.587 245.587 139.26 244.458 140.759C242.894 142.832 241.573 144.988 240.834 147.434C239.837 150.742 238.004 153.701 236.268 156.664C235.35 158.229 233.669 159.391 232.353 160.752C230.246 162.936 227.241 163.83 224.78 165.492C223.151 166.591 221.675 167.9 220.184 169.17C216.428 172.372 214.376 176.696 211.801 180.674C210.894 182.076 209.974 183.473 209.301 185.088C209.719 184.704 210.187 184.359 210.552 183.934C212.555 181.621 215.194 180.116 217.863 178.606C219.813 177.504 221.623 176.179 223.455 174.904C224.525 174.161 225.618 173.41 226.516 172.502C227.402 171.602 228.08 170.514 228.808 169.484C230.132 167.61 231.4 165.694 232.742 163.83C233.739 162.445 234.598 161.006 235.443 159.532C236.528 157.635 237.507 155.479 240.033 154.72C242 154.126 243.923 153.378 245.923 152.898C247.343 152.556 248.475 151.788 249.471 150.949C250.626 149.974 251.962 149.654 253.301 149.662C255.958 149.684 258.609 149.974 261.264 150.168C261.503 150.187 261.737 150.306 261.974 150.377C262.363 151.346 261.948 152.026 261.258 152.636C258.53 155.049 256.812 158.143 254.85 161.075C253.903 162.489 253.035 163.991 251.842 165.2C251.082 165.97 249.843 166.517 248.726 166.724C247.46 166.956 246.858 167.519 246.168 168.485C244.695 170.556 243.19 172.64 240.945 174.117C239.387 175.144 237.986 176.378 236.44 177.424C234.847 178.504 233.137 179.05 231.073 178.54C229.182 178.07 227.209 177.891 225.265 177.64C224.052 177.485 222.917 177.626 221.798 178.269C220.459 179.039 218.793 179.373 217.6 180.284C215.887 181.596 213.829 182.465 212.4 184.166C210.997 185.836 209.339 187.313 207.813 188.89C207.477 189.235 207.217 189.649 206.761 190.237C209.179 189.152 211.456 188.558 213.818 188.1C214.917 187.885 216.028 187.275 217.206 187.173C219.559 186.971 221.929 186.919 224.283 186.723C225.861 186.59 227.419 186.259 228.995 186.112C233.052 185.734 236.852 184.357 240.781 183.484C243.687 182.841 246.203 181.414 248.27 179.423C249.261 178.473 249.851 177.157 250.655 176.025C251.708 174.545 252.798 173.09 253.868 171.621C254.333 170.978 254.806 170.343 255.23 169.678C255.911 168.615 256.531 167.555 257.724 166.845C260.15 165.401 261.012 163.033 261.597 160.54C261.813 159.612 262.021 158.679 262.339 157.784C262.962 156.029 263.506 154.226 264.374 152.58C265.116 151.178 266.195 149.911 267.265 148.691C268.145 147.686 269.232 146.841 270.232 145.93C270.501 145.684 270.743 145.378 271.065 145.22C272.635 144.456 274.169 143.569 275.827 143.039C277.598 142.473 279.101 141.618 280.624 140.621C282.74 139.232 285.076 138.147 287.321 136.933C287.429 136.875 287.554 136.759 287.651 136.775C290.165 137.192 292.299 135.536 294.74 135.61C295.573 135.635 296.35 134.705 297.274 135.558C296.967 136.643 295.999 137.247 295.128 137.896C292.571 139.801 290.647 142.043 290.051 145.198C289.446 148.398 288.078 151.393 286.52 154.251C285.175 156.722 282.904 158.58 280.673 160.366C279.031 161.68 277.218 162.798 275.514 164.043C274.473 164.805 273.535 165.694 272.486 166.442C270.167 168.09 267.689 169.313 264.649 169.286C262.234 169.264 259.843 169.509 257.569 170.42C256.665 170.779 255.967 171.18 255.4 172.024C254.546 173.294 253.83 174.603 253.105 175.931C252.313 177.372 251.141 178.65 249.995 179.881C248.521 181.463 246.908 182.929 245.046 184.743C246.376 184.564 247.376 184.519 248.326 184.285C251.524 183.495 254.719 183.114 258.066 183.285C262.532 183.515 267.043 183.553 271.474 182.791C273.33 182.474 275.102 181.701 276.917 181.151C278.838 180.566 280.755 179.989 282.682 179.429C285.523 178.6 288.382 177.833 291.363 177.601C294.614 177.347 297.777 177.761 300.905 178.631C303.623 179.387 306.409 179.92 309.133 180.654C310.712 181.08 312.296 181.585 313.752 182.289C314.725 182.758 315.5 183.617 316.33 184.334C317.169 185.066 317.947 185.861 318.788 186.59C319.385 187.106 319.826 187.645 319.654 188.465C319.619 188.638 319.581 188.854 319.657 188.997C320.373 190.314 319.893 191.446 318.911 192.357C317.777 193.406 317.71 194.651 317.856 196.001C316.821 196.766 315.646 196.973 314.439 196.912C311.711 196.774 308.993 196.565 306.271 196.382C305.383 196.324 304.494 196.181 303.608 196.214C301.1 196.313 298.7 196.018 296.315 195.168C295.123 194.742 293.699 194.745 292.386 194.787C288.73 194.903 285.537 193.768 282.676 191.728C279.472 189.445 275.903 187.794 272.392 185.999C270.135 184.845 267.99 184.754 265.639 184.878C264.453 184.939 263.254 184.796 262.062 184.826C259.214 184.895 256.364 185.016 253.514 185.119C253.324 185.124 253.134 185.135 252.947 185.157C250.942 185.389 248.916 185.522 246.937 185.883C245.142 186.215 243.35 186.576 241.573 187.051C239.515 187.603 237.326 187.788 235.18 187.937C232.973 188.089 230.746 187.935 228.533 188.037C223.368 188.277 218.147 188.108 213.148 189.726C213.101 189.743 213.072 189.815 212.914 190.013C213.677 190.314 214.376 190.715 215.127 190.869C217.72 191.399 219.942 192.595 222.125 193.956C223.859 195.038 225.8 195.756 227.872 196.131C228.732 196.286 229.638 196.454 230.389 196.846C233.14 198.279 236.019 198.318 239.036 197.948C241.278 197.672 243.567 197.735 245.826 197.556C250.293 197.202 254.748 196.741 259.211 196.41C261.395 196.247 263.593 196.231 265.783 196.231C266.651 196.231 267.542 196.369 268.379 196.592C270.422 197.139 272.5 197.641 274.456 198.403C276.131 199.055 277.832 199.844 279.203 200.929C281.109 202.442 283.196 203.635 285.289 204.85C285.701 205.09 286.227 205.15 286.695 205.308C289.095 206.108 291.691 206.34 293.95 207.583C294.365 207.812 295.047 207.768 295.555 207.654C296.716 207.395 297.867 206.691 298.99 206.752C301.428 206.881 304.105 205.766 306.35 208.035C306.096 208.298 305.786 208.842 305.307 209.093C302.094 210.769 298.73 212.063 295.079 212.624C294.406 212.729 293.737 212.977 293.129 213.273C290.817 214.391 288.545 215.55 286.584 217.218C285.114 218.468 283.091 218.639 281.264 218.777C279.291 218.929 277.209 218.733 275.283 218.278C273.149 217.773 270.963 217.778 268.846 217.289C266.896 216.839 264.789 216.732 263.012 215.948C260.094 214.664 257.326 213.046 255.154 210.691C254.073 209.518 252.956 208.427 251.252 207.947C248.849 207.271 247.136 205.518 245.63 203.792C244.014 201.94 241.789 201.363 239.729 200.358C237.986 199.508 236.145 199.806 234.359 199.527C231.436 199.069 228.501 198.677 225.884 197.177C224.812 196.565 223.613 196.253 222.292 196.145C220.31 195.985 218.325 195.72 216.446 194.889C214.291 193.936 211.888 193.909 209.547 193.738C208.927 193.693 208.29 193.514 207.697 193.605C206.355 193.809 205.039 194.146 203.712 194.428C203.709 194.56 203.709 194.687 203.706 194.82C204.49 195.03 205.267 195.256 206.054 195.446C207.995 195.916 209.991 196.244 211.874 196.874C213.265 197.34 214.645 198.036 215.797 198.903C218.825 201.186 221.985 203.306 224.683 205.995C226.045 207.351 227.644 208.731 229.799 209.131C230.278 209.223 230.854 209.408 231.146 209.739C232.272 211.017 233.853 211.431 235.399 211.945C235.814 212.085 236.329 212.132 236.627 212.395C239.159 214.617 242.093 216.45 244.107 219.183C244.321 219.473 244.578 219.813 244.601 220.144C244.774 222.593 246.68 224.354 247.443 226.585C247.826 227.717 248.823 228.694 249.659 229.652C251.138 231.355 251.252 233.274 251.003 235.342C250.749 237.459 250.793 239.613 250.454 241.716C250.252 242.989 249.767 244.303 249.059 245.405C247.884 247.235 246.449 248.919 245.084 250.639C244.856 250.929 244.435 251.084 244.105 251.299C243.862 250.929 243.426 250.565 243.406 250.181C243.295 248.036 242.435 246.255 240.766 244.803C239.881 244.027 239.039 243.21 238.159 242.426C235.487 240.057 235.054 237.04 235.367 233.818C235.508 232.388 235.771 230.969 235.934 229.539C236.107 228.051 235.411 226.737 234.862 225.417C234.397 224.302 233.774 223.247 233.257 222.154C232.418 220.39 232.216 218.504 232.085 216.605C232.02 215.708 231.889 214.813 231.827 213.916C231.731 212.527 230.994 211.785 229.661 211.069C226.913 209.595 224.306 207.845 222.19 205.57C221.362 204.681 220.608 203.795 219.307 203.464C218.781 203.328 218.313 202.931 217.855 202.608C216.226 201.47 214.508 200.581 212.45 200.311C211.59 200.198 210.789 199.728 209.933 199.546C207.308 198.986 204.668 198.483 202.031 197.967C201.786 197.92 201.473 198.011 201.286 197.898C198.912 196.465 196.627 197.327 194.227 197.926C191.622 198.577 188.909 198.828 186.255 199.314C185.083 199.527 183.934 199.869 182.785 200.189C181.905 200.432 181.043 200.731 180.222 200.99C181.891 201.885 183.469 202.79 185.106 203.599C187.056 204.568 189.05 205.451 191.029 206.373C191.42 206.556 191.806 206.757 192.213 206.915C193.484 207.409 194.688 207.972 196.182 207.903C198.521 207.795 200.874 207.944 203.221 207.986C203.476 207.991 203.762 207.928 203.978 208.019C207.124 209.347 210.748 209.681 213.382 212.077C214.414 213.016 215.095 214.272 216.416 214.946C217.808 215.652 219.158 216.428 220.55 217.132C222.295 218.013 224.356 218.203 225.975 219.374C227.141 220.219 228.252 221.16 229.299 222.093C229.916 222.645 229.828 223.998 229.878 224.997C229.921 225.911 230.158 226.684 230.678 227.46C231.567 228.777 231.57 230.323 231.447 231.786C231.263 233.956 231.912 235.919 232.716 238.047C232.371 238.266 231.988 238.506 231.599 238.751C229.86 236.96 228.062 235.461 225.727 234.682C224.657 234.326 223.59 233.876 222.482 233.732C220.681 233.501 219.091 232.766 217.556 232.001C216.177 231.314 214.712 230.444 213.826 229.285C212.081 226.993 209.6 226.411 206.975 225.92C206.419 225.815 205.834 225.837 205.279 225.721C201.391 224.904 198.655 222.825 197.559 219.128C197.065 217.472 196.814 215.749 196.46 214.057C195.922 211.464 194.773 209.352 191.914 208.367C190.555 207.9 189.316 207.127 187.989 206.569C186.089 205.772 184.156 205.101 182.101 204.67C179.517 204.126 177.015 203.257 174.451 202.616C173.621 202.412 172.686 202.315 171.85 202.456C168.669 202.992 165.483 203.546 162.347 204.278C158.83 205.101 155.518 206.387 152.566 208.494C150.213 210.172 147.769 211.809 145.153 213.066C143.045 214.076 140.613 214.482 138.333 215.177C137.432 215.451 136.561 215.812 135.664 216.094C133.624 216.737 131.566 217.265 129.443 217.673C126.474 218.247 123.621 219.357 120.677 220.086C118.575 220.608 116.713 221.616 114.848 222.543C112.907 223.512 111.253 224.989 109.452 226.215C106.464 228.25 103.372 230.141 99.8932 231.342C97.6453 232.12 95.2921 232.628 93.0559 233.426C91.4686 233.995 89.9837 234.828 88.4812 235.59C86.6922 236.496 84.9324 237.454 83.1669 238.395C82.7927 238.594 82.4302 238.818 81.8397 239.16C83.6083 239.665 85.1663 240.032 86.6571 240.571C87.4464 240.855 88.1187 241.438 88.8378 241.896C89.0366 242.02 89.1827 242.227 89.3932 242.327C92.939 244.011 96.4029 245.902 100.083 247.274C102.188 248.061 104.459 248.547 106.348 249.747C108.961 251.412 111.568 253.138 113.904 255.125C115.959 256.87 117.909 257.596 120.592 256.586C123.401 255.528 126.345 254.794 129.175 253.789C130.382 253.358 131.504 252.663 132.577 251.964C134.039 251.017 135.345 249.847 136.845 248.969C138.707 247.884 139.68 246.092 141.092 244.654C141.595 244.14 142.11 243.478 142.756 243.276C144.36 242.771 145.892 242.12 147.637 241.882C149.216 241.67 150.566 240.56 151.73 239.362C153.676 237.36 154.562 234.848 155.734 232.468C155.921 232.09 156.038 231.678 156.258 231.322C157.07 230.003 157.956 228.804 159.833 228.73C160.774 228.691 161.706 228.297 162.642 228.288C166.278 228.263 168.97 226.759 171.125 224.031C172.049 222.858 173.355 221.9 174.641 221.05C176.091 220.094 178.509 221.262 178.86 223.109C179.181 224.793 179.614 226.508 178.851 228.239C178.494 229.05 178.433 229.978 178.231 230.85C177.424 234.381 176.185 237.777 174.37 240.949C173.072 243.224 171.119 245.057 169.251 246.923C168.997 247.177 168.64 247.387 168.289 247.497C165.375 248.42 162.803 249.919 160.239 251.478C156.994 253.455 153.384 254.466 149.523 254.703C146.629 254.882 144.015 253.924 141.423 252.95C139.87 252.365 138.377 251.757 136.646 251.92C136.234 251.959 135.795 251.735 135.234 251.6C132.413 254.308 128.569 255.401 124.839 256.699C124.252 256.903 123.65 257.077 122.744 257.364C123.34 257.643 123.67 257.856 124.036 257.958C127.09 258.803 129.999 259.935 132.691 261.577C134.217 262.51 135.874 263.247 137.482 264.056C137.637 264.134 137.856 264.123 138.043 264.109C139.765 263.985 141.528 264.283 143.194 263.57C145.041 262.781 146.892 261.978 148.795 261.318C150.812 260.619 152.881 260.045 154.945 259.479C158.441 258.524 161.932 257.555 165.46 256.716C166.658 256.431 167.953 256.473 169.207 256.439C172.44 256.343 175.466 257.127 178.447 258.281C180.613 259.123 182.926 259.625 185.153 260.332C188.79 261.486 191.938 263.369 194.46 266.119C195.039 266.754 195.589 267.422 195.393 268.377C195.206 269.299 193.756 270.632 192.496 270.677C190.847 270.735 189.804 271.444 189.058 272.758C188.617 273.534 187.907 273.893 186.939 274.097C184.434 274.622 181.984 274.365 179.587 273.752C177.983 273.341 176.404 273.274 174.767 273.186C172.06 273.04 169.429 273.642 166.752 273.642C166.6 273.642 166.448 273.807 166.082 274.017C167.664 275.157 169.008 276.389 170.8 277.021C172.165 277.507 173.577 277.885 174.931 278.393C176.512 278.984 178.05 279.679 179.617 280.303C180.368 280.601 181.125 280.911 181.911 281.085C183.519 281.441 185.042 281.927 186.577 282.537C188.392 283.257 190.444 283.437 192.397 283.848C192.885 283.953 193.429 283.95 193.852 284.166C195.098 284.798 196.29 284.108 197.506 284.127C197.708 284.132 197.957 283.909 198.109 283.732C200.356 281.173 203.189 279.271 206.121 277.518C208.69 275.977 211.491 275.08 214.607 274.878C216.869 274.735 219.123 274.431 221.362 274.807C222.377 274.978 223.338 275.516 224.277 275.974C225.613 276.629 226.802 277.703 228.46 277.432C229.433 277.275 230.372 276.932 231.324 276.67C232.415 276.366 233.543 275.723 234.59 275.828C236.618 276.027 238.767 275.867 240.626 277.001C241.924 277.791 243.359 278.23 244.941 278.269C245.476 278.282 245.993 278.644 246.531 278.793C248.177 279.254 249.849 279.18 251.541 279.069C252.354 279.014 253.19 279.26 254.134 279.384C253.728 280.82 252.816 281.615 251.86 282.23C249.723 283.602 247.466 284.809 245.274 286.109C242.924 287.509 240.611 288.964 238.244 290.339C237.624 290.7 236.881 290.894 236.171 291.095C235.528 291.277 234.856 291.39 234.189 291.487C233.52 291.586 232.818 291.766 232.172 291.664C230.83 291.457 228.378 291.929 227.416 292.832C224.549 295.515 221.225 295.454 217.723 294.306C217.258 294.154 216.902 293.729 216.44 293.566C215.218 293.132 213.993 292.597 212.721 292.415C209.108 291.898 205.75 290.894 202.534 289.171C199.363 287.47 196.074 285.921 192.327 285.449C189.4 285.079 186.509 284.411 183.624 283.782C182.917 283.627 182.294 283.119 181.645 282.752C180.058 281.858 178.377 281.156 176.536 280.988C175.439 280.889 174.422 280.8 173.572 280.055C173.379 279.886 173.025 279.881 172.434 279.713C174.703 282.219 177.097 284.063 179.579 285.883C181.455 287.258 183.475 288.163 185.638 288.864C186.629 289.187 187.743 289.212 188.81 289.292C190.865 289.444 192.622 290.471 194.548 290.998C196.369 291.495 198.065 292.401 199.892 292.87C203.095 293.696 205.402 295.65 207.702 297.743C208.728 298.676 210.108 299.272 211.353 299.979C212.958 300.89 214.657 301.66 216.194 302.66C218.761 304.327 221.316 306.047 223.113 308.689C222.608 309.181 222.14 309.639 221.666 310.1C219.907 309.727 218.197 309.297 216.46 309.012C214.741 308.731 213.04 308.399 211.353 307.98C211.02 307.894 210.614 308.007 210.254 308.085C208.93 308.369 207.623 308.739 206.291 308.957C204.288 309.288 202.368 308.786 200.511 308.159C198.62 307.519 196.726 306.842 194.934 305.992C192.23 304.703 189.968 302.919 188.804 300.15C187.927 298.069 186.884 296.056 186.033 293.961C185.457 292.55 184.32 291.341 183.396 290.065C183.195 289.786 182.853 289.568 182.525 289.408C179.415 287.884 176.708 285.833 174.139 283.622C173.019 282.658 171.984 281.59 171.023 280.483C169.798 279.075 168.476 277.81 166.685 277.068C166.117 276.833 165.545 276.59 164.948 276.452C162.841 275.955 160.876 275.24 159.049 274.059C157.5 273.056 155.737 272.347 154.068 271.508C153.972 271.601 153.878 271.695 153.785 271.789C154.08 272.162 154.293 272.7 154.688 272.874C155.904 273.415 156.453 274.478 156.898 275.48C158.283 278.611 160.435 281.223 162.531 283.936C165.033 287.172 168.368 289.312 171.747 291.504C173.504 292.641 175.439 293.594 176.48 295.559C176.848 296.255 177.679 296.763 178.366 297.282C180.242 298.687 182.139 300.067 184.06 301.423C184.399 301.663 184.928 301.652 185.273 301.884C186.094 302.436 186.872 303.046 187.638 303.667C187.971 303.935 188.164 304.418 188.529 304.584C190.228 305.346 191.146 306.809 192.265 308.104C192.861 308.794 193.268 309.54 193.677 310.359C195.387 313.775 196.887 317.344 199.725 320.138C200.786 321.184 202.008 322.084 203.06 323.133C203.411 323.484 203.47 324.1 203.642 324.544C202.014 325.359 200.757 324.933 199.406 324.417C197.068 323.523 194.764 322.581 192.476 321.571C189.827 320.398 188.649 318.288 187.17 316.292C185.241 313.694 183.04 311.497 180.076 309.794C176.883 307.958 173.735 305.832 171.908 302.513C169.444 300.854 169.187 298.168 168.403 295.739C168.038 294.609 167.863 293.422 167.553 292.274C167.176 290.877 166.088 289.924 165.103 288.906C163.051 286.78 161.011 284.649 159.017 282.473C158.573 281.99 158.26 281.355 158.044 280.74C157.409 278.915 155.632 277.659 155.275 275.704C155.255 275.588 155.202 275.461 155.123 275.375C153.159 273.31 151.563 270.928 148.52 269.939C145.918 269.089 143.489 267.778 140.914 266.85C139.031 266.171 137.064 265.572 135.082 265.31C131.949 264.893 128.815 264.537 125.825 263.526C122.676 262.458 119.554 261.309 116.438 260.15C114.377 259.385 112.314 258.604 110.314 257.701C109.186 257.19 108.215 256.379 107.131 255.766C105.512 254.852 103.892 253.922 102.205 253.132C100.016 252.108 97.7622 251.208 95.5289 250.269C92.5648 249.021 89.8317 247.412 87.157 245.689C84.2017 243.787 80.9569 242.409 77.5193 241.52C76.6365 241.291 75.4848 241.493 74.5991 241.832C70.0915 243.561 65.6893 245.54 61.1437 247.158C56.9987 248.635 52.7163 249.761 48.4952 251.048C47.1067 251.473 45.7416 251.978 44.3356 252.354C41.8392 253.013 39.3311 253.654 36.8055 254.212C31.7309 255.33 26.8638 257.028 22.0786 258.921C20.7076 259.465 19.5179 260.401 18.22 261.116C14.9168 262.935 11.409 264.28 7.67031 265.078C6.94829 265.232 6.29935 265.29 5.7381 264.586C6.23212 263.805 7.15583 263.612 7.93924 263.463C11.295 262.822 14.3264 261.398 17.1969 259.791C20.4972 257.95 23.9436 256.475 27.4806 255.145C28.872 254.623 30.2839 254.151 31.6578 253.577C28.2465 253.389 25.0456 254.192 21.9149 255.302C20.7339 255.722 19.6085 256.271 18.4392 256.721C17.7611 256.981 17.0975 257.527 16.3024 256.978L16.32 257.014ZM107.558 225.497C108.78 225.574 109.11 224.473 109.7 223.744C108.987 224.346 108.274 224.945 107.564 225.547C106.672 225.461 106.172 226 105.839 226.756C106.412 226.336 106.985 225.917 107.558 225.497ZM200.932 193.591C200.082 193.094 199.176 193.238 198.094 194.072C199.193 194.563 199.994 193.724 200.921 193.575C201.47 193.301 202.023 193.028 202.774 192.655C201.649 192.426 201.157 192.791 200.932 193.591ZM138.719 193.627C138.432 194.003 137.815 194.243 138.19 195.209C138.496 194.516 139.058 194.24 138.666 193.627C140.06 192.341 140.169 191.971 139.447 190.334C139.178 191.554 138.95 192.592 138.719 193.627ZM132.294 215.429C133.995 215.895 135.1 214.808 136.33 214.054C136.672 214.057 137.047 214.15 137.348 214.048C138.35 213.714 139.297 213.104 140.321 212.963C142.846 212.618 144.957 211.437 147.096 210.288C147.789 209.913 148.421 209.435 149.081 209.002C149.017 208.883 148.953 208.762 148.888 208.643C147.713 209.062 146.538 209.482 145.36 209.902C146.278 209.101 147.368 208.629 148.383 208.044C149.496 207.4 150.54 206.65 151.613 205.948C152.899 206.001 153.691 205.07 154.7 204.576C153.606 204.919 152.346 204.946 151.622 205.998C151.279 206.031 150.902 205.981 150.607 206.103C147.833 207.229 145.056 208.35 142.314 209.543C139.698 210.68 136.678 211.009 134.524 213.082C133.852 212.709 133.732 212.246 134.021 211.682C134.714 210.343 135.453 209.021 136.123 207.671C136.556 206.799 136.892 205.885 137.272 204.99C137.126 204.932 136.982 204.877 136.836 204.819C135.255 207.997 133.673 211.177 131.96 214.62C133.536 214.117 134.866 213.8 136.1 213.275C137.83 212.541 139.482 211.641 141.174 210.835C142.174 210.357 143.25 210.153 144.717 209.874C144.203 210.374 144.033 210.666 143.776 210.769C142.273 211.37 140.724 211.876 139.242 212.519C138.23 212.958 137.298 213.568 136.33 214.106C134.831 214.148 133.559 214.799 132.296 215.476C131.27 215.454 130.203 215.263 129.367 216.102C130.455 216.356 131.431 216.135 132.294 215.429ZM78.8698 239.795C79.1183 240.297 79.6357 239.972 79.8958 240.082C80.3402 240.27 80.5857 240.863 80.9365 241.269C80.9979 241.335 81.1937 241.286 81.3019 241.335C83.3773 242.296 85.6077 243.047 87.4844 244.278C90.4485 246.23 93.4505 248.041 96.8736 249.259C96.3854 248.025 95.6605 247.18 94.538 246.567C92.5707 245.496 90.4835 244.579 88.6507 243.331C86.4846 241.857 84.0321 241.12 81.6147 240.231C81.1206 240.049 80.6588 239.776 80.2262 239.566C80.7786 237.622 82.6933 237.208 83.9737 236.013C82.0911 235.924 78.674 237.288 77.417 238.497C77.8993 238.939 78.3816 239.381 78.864 239.834C78.0952 239.475 77.3293 239.116 76.4874 238.724C73.8244 239.696 71.0503 240.764 68.6037 242.448C70.4657 241.888 72.2313 241.128 74.0466 240.496C75.2422 240.082 76.4553 239.339 77.8204 240.223C77.987 240.331 78.5103 239.95 78.8698 239.795ZM183.466 197.249V197.304C183.557 197.219 183.645 197.064 183.735 197.064C186.401 197.001 188.95 196.333 191.517 195.75C192.359 195.56 193.063 195.27 193.665 194.323C192.777 194.469 192.175 194.591 191.567 194.671C186.366 195.344 181.166 196.004 175.969 196.694C175.039 196.819 174.118 197.034 173.209 197.26C171.066 197.796 168.915 198.315 166.796 198.936C165.398 199.345 164.019 199.85 162.7 200.441C161.332 201.051 160.058 201.832 158.725 202.511C157.684 203.041 156.62 203.53 155.565 204.038C155.632 204.17 155.699 204.303 155.767 204.435C157.646 203.621 159.482 202.685 161.423 202.025C163.492 201.321 165.697 200.971 167.781 200.294C171.315 199.146 172.344 198.906 173.96 199.298C171.856 200.253 169.403 199.913 167.488 201.357C170.011 201.818 182.791 199.138 185.188 197.732C184.642 197.578 184.054 197.412 183.466 197.249ZM232.564 146.336C232.389 144.097 233.517 142.087 233.835 139.925C234.107 138.078 235.32 136.538 236.566 135.097C237.817 133.65 238.755 132.099 239.346 130.268C239.799 128.855 240.17 127.444 240.532 126.011C241.161 123.521 241.032 121.05 240.974 118.554C240.968 118.253 240.819 117.955 240.708 117.544C239.708 118.69 238.825 119.689 237.951 120.697C237.428 121.299 236.861 121.87 236.411 122.519C235.16 124.316 234.011 126.177 232.722 127.952C232.102 128.808 231.082 129.429 230.55 130.318C229.1 132.742 227.065 134.567 224.584 135.983C223.555 136.568 223.148 137.474 222.958 138.503C222.853 139.086 222.83 139.685 222.806 140.281C222.736 142.065 222.932 143.892 222.578 145.623C221.909 148.881 222.336 152.089 222.672 155.303C222.964 158.074 223.596 160.819 222.879 163.77C225.744 161.263 227.741 158.411 229.384 155.355C230.605 153.08 231.713 150.731 232.152 148.166C232.263 147.526 232.427 146.893 232.567 146.25C233.277 146.416 233.178 146.957 233.113 147.415C232.57 151.366 230.643 154.842 228.673 158.251C227.808 159.739 226.34 160.918 225.148 162.238C224.724 162.71 224.116 163.102 224.283 164.043C225.192 163.516 225.928 162.994 226.741 162.632C230.027 161.175 232.617 158.958 234.666 156.175C235.373 155.214 235.791 154.06 236.504 153.105C238.361 150.631 239.018 147.683 240.173 144.942C240.594 143.945 240.953 142.981 241.611 142.087C242.824 140.433 243.996 138.741 245.034 136.985C245.607 136.016 246.2 134.887 246.215 133.824C246.253 130.798 247.089 127.726 245.829 124.733C245.145 123.115 244.511 121.492 243.222 120.186C242.859 119.819 242.585 119.377 242.102 118.756C242.038 119.777 241.886 120.608 241.95 121.423C242.131 123.717 241.52 125.934 241.026 128.107C240.319 131.207 238.819 134.037 236.548 136.502C235.312 137.841 234.759 139.613 234.443 141.411C234.134 143.15 233.871 144.928 232.564 146.336ZM294.134 184.762C291.814 184.848 289.495 184.975 287.174 185.005C284.783 185.036 282.389 185.038 280.001 184.925C277.651 184.812 275.312 184.533 272.968 184.329C273.383 184.826 273.865 185.077 274.368 185.284C277.519 186.582 280.589 188.081 283.211 190.154C286.259 192.559 289.647 193.473 293.521 193.404C294.807 193.384 296.189 193.619 297.368 194.094C298.75 194.651 300.165 194.638 301.565 194.784C304.246 195.063 306.95 195.212 309.645 195.339C311.77 195.438 313.918 195.946 316.096 195.187C316.172 194.477 316.245 193.787 316.31 193.18C314.947 192.015 312.913 192.02 311.706 190.187C312.436 190.469 312.828 190.621 313.22 190.773C314.144 191.134 315.044 191.57 315.997 191.841C317.461 192.261 318.33 191.769 318.277 190.408C318.239 189.365 318.11 187.97 317.409 187.374C315.947 186.126 314.874 184.486 313.056 183.575C310.633 182.363 308.063 181.657 305.383 181.248C304.45 181.104 303.506 181 302.597 180.768C300.834 180.315 299.113 179.702 297.335 179.304C294.938 178.769 292.384 178.551 290.057 179.017C285.877 179.851 281.813 181.223 277.709 182.405C276.718 182.689 275.768 183.098 274.798 183.451C275.178 183.791 275.473 183.821 275.765 183.846C277.592 184.006 279.419 184.191 281.249 184.31C282.497 184.39 283.772 184.519 285 184.37C288.037 184.006 291.053 183.468 294.134 184.762ZM259.542 167.555C259.963 167.729 260.316 167.985 260.688 168.01C264.637 168.284 268.346 167.776 271.451 165.139C272.48 164.269 273.614 163.491 274.78 162.79C276.976 161.465 279.142 160.134 280.735 158.116C281.144 157.6 281.746 157.21 282.293 156.807C283.576 155.863 284.69 154.728 285.406 153.395C287.008 150.427 288.145 147.294 288.662 143.964C288.835 142.863 289.212 141.753 290.177 140.927C290.489 140.657 290.612 140.188 290.939 139.594C290.001 140.047 289.346 140.361 288.671 140.687C288.206 139.829 288.835 139.652 289.335 139.434C290.861 138.766 290.863 138.771 291.486 137.7C287.853 138.244 284.652 139.459 281.819 141.656C280.32 142.819 278.653 143.76 276.631 144.202C275.011 144.558 273.327 145.298 272.065 146.308C269.63 148.246 267.019 150.021 265.885 153.188C264.675 156.561 263.044 159.794 262.766 163.59C263.593 162.787 264.307 162.064 265.052 161.371C265.409 161.042 265.821 160.766 266.212 160.473C267.934 159.195 269.726 157.992 271.36 156.622C272.731 155.468 273.83 154.085 274.76 152.542C275.771 150.863 277.139 149.378 278.276 147.763C278.914 146.86 279.259 145.745 279.995 144.936C280.808 144.044 281.922 143.398 282.904 142.645C283.1 142.493 283.284 142.324 283.491 142.186C284.877 141.259 286.423 140.748 288.154 140.684C287.581 141.143 286.935 141.46 286.268 141.734C283.962 142.672 281.863 143.939 280.407 145.875C278.554 148.334 276.932 150.954 275.146 153.461C274.245 154.72 273.348 156.029 272.193 157.061C269.779 159.223 267.274 161.315 264.631 163.226C263.687 163.913 262.813 164.626 262.003 165.429C261.573 165.857 261.243 166.376 260.802 166.79C260.501 167.072 260.077 167.237 259.542 167.555ZM205.744 128.137C205.259 127.93 204.952 127.712 204.624 127.681C201.128 127.356 197.641 126.87 194.113 126.964C193.616 126.977 193.092 126.875 192.622 126.721C189.892 125.829 187.176 124.904 184.454 123.996C184.338 123.957 184.203 123.965 184.077 123.954C181.289 123.722 178.57 124.117 176.246 125.561C174.104 126.892 172.104 128.479 170.236 130.147C167.243 132.827 163.782 134.536 159.742 135.171C157.985 135.45 156.357 135.986 154.565 136.772C156.056 137.918 157.558 138.769 159.289 138.697C162.06 138.586 164.817 138.197 167.582 137.926C169.26 137.764 170.824 137.882 171.932 139.343C172.165 139.649 172.607 139.98 172.972 140.005C174.372 140.099 175.767 139.887 176.869 139.022C178.512 137.739 179.792 136.027 181.9 135.29C182.116 135.215 182.265 134.967 182.458 134.81C185.214 132.515 188.035 130.232 191.587 129.161C194.668 128.234 197.883 127.897 201.16 128.211C202.59 128.349 204.063 128.971 205.744 128.137ZM143.632 264.838C145.012 265.514 145.012 265.525 145.918 265.335C147.158 265.07 148.4 264.813 149.628 264.509C152.729 263.744 155.705 264.214 158.655 265.219C159.999 265.677 161.417 265.942 162.753 266.414C164.144 266.903 165.457 266.513 166.828 266.411C169.754 266.19 172.645 266.16 175.624 266.685C178.257 267.151 180.947 267.397 183.51 268.2C184.986 268.659 186.463 269.175 187.834 269.851C188.386 270.122 188.766 270.108 189.225 269.942C190.646 269.429 191.911 268.504 193.534 268.515C193.648 268.515 193.765 268.264 193.978 268.012C192.657 266.155 191.017 264.655 188.895 263.595C184.44 261.367 179.552 260.238 174.84 258.684C171.724 257.657 168.403 257.439 165.118 258.049C162.528 258.529 160.119 259.736 157.415 259.788C157.354 259.788 157.295 259.821 157.231 259.841C153.682 260.84 150.259 262.174 146.792 263.397C145.807 263.744 144.889 264.258 143.632 264.838ZM177.6 223.946C176.036 225.066 174.855 226.22 174.036 227.65C172.85 229.724 172.236 231.999 170.575 233.948C168.953 235.853 167.211 237.31 164.887 238.243C164.258 238.495 163.571 238.688 163.039 239.066C160.879 240.601 158.757 242.186 156.643 243.781C155.615 244.557 154.665 245.43 153.63 246.203C151.832 247.542 149.692 248.237 147.552 248.905C145.933 249.411 144.293 249.866 142.653 250.322C141.917 250.526 141.162 250.678 140.031 250.943C142.364 252.508 144.691 253.295 146.933 253.56C150.528 253.985 153.98 252.989 157.173 251.227C159.716 249.822 162.376 248.599 164.983 247.296C166.205 246.683 167.64 246.285 168.611 245.421C172.338 242.111 174.831 238.086 175.898 233.307C176.29 231.551 176.869 229.831 177.272 228.078C177.562 226.817 177.959 225.541 177.6 223.946ZM158.117 120.225C158.216 120.294 158.313 120.363 158.409 120.429C159.537 119.333 160.645 118.215 161.794 117.141C162.77 116.227 163.715 115.253 164.817 114.496C166.334 113.455 168 112.58 169.587 111.664C171.093 110.799 172.516 109.877 173.838 108.812C175.071 107.815 176.071 106.683 176.828 105.206C178.176 102.57 179.424 99.704 182.601 98.3899C183.458 98.0366 184.335 97.7163 185.153 97.2967C186.521 96.5955 187.693 95.6927 188.316 93.9424C186.708 93.7933 185.285 93.5586 183.858 93.5559C182.35 93.5559 180.841 93.7629 179.333 93.8982C176.767 94.1274 174.416 94.8341 172.318 96.3553C170.935 97.3602 169.874 98.5666 168.76 99.8062C165.755 103.149 164.103 107.183 162.072 111.012C160.61 113.762 159.871 116.832 158.289 119.554C158.175 119.75 158.172 120.001 158.117 120.225ZM105.631 149.389C105.538 149.458 105.447 149.53 105.357 149.599C105.675 150.422 106.082 151.228 106.301 152.073C107.102 155.178 109.043 157.522 111.65 159.452C114.629 161.658 117.844 163.532 120.516 166.163C123.357 168.96 126.789 171.199 129.508 174.161C130.063 174.766 130.926 175.263 131.741 175.481C135.632 176.513 139.54 177.535 143.618 177.687C144.767 177.731 145.915 177.794 147.333 177.861C146.681 177.038 146.333 176.345 145.763 175.92C143.925 174.542 142.036 173.22 140.107 171.964C139.338 171.461 138.435 171.105 137.544 170.823C135.746 170.255 133.933 169.716 132.095 169.286C130.475 168.902 129.172 168.115 128.157 166.911C127.263 165.849 126.453 164.719 125.617 163.612C125.219 163.082 124.872 162.519 124.468 161.995C124.217 161.669 123.927 161.36 123.615 161.081C123.062 160.589 122.492 160.109 121.902 159.656C121.086 159.032 120.273 158.4 119.408 157.842C118.268 157.111 116.997 156.542 115.938 155.722C115.164 155.12 114.375 154.778 113.425 154.778C112.378 154.781 111.644 154.292 110.905 153.671C109.174 152.216 107.391 150.814 105.631 149.389ZM100.715 145.701C100.697 146.327 101.229 146.385 101.735 146.46C102.322 146.548 102.922 146.579 103.495 146.719C104.722 147.02 105.374 147.992 106.245 148.765C108.215 150.521 110.405 152.059 112.527 153.66C112.808 153.87 113.214 154.027 113.568 154.033C115.383 154.069 116.698 154.991 118.02 156.031C118.821 156.664 119.806 157.1 120.735 157.572C122.562 158.494 123.626 160.173 125.111 161.437C125.152 161.473 125.155 161.55 125.193 161.6C125.664 162.229 126.14 162.856 126.617 163.485C127.02 164.018 127.482 164.518 127.809 165.089C128.347 166.036 129.163 166.696 130.054 167.32C131.937 168.64 134.112 169.341 136.354 169.716C139.102 170.177 141.247 171.558 143.323 173.151C143.837 173.546 144.384 173.904 144.916 174.283C143.758 172.949 142.671 171.411 141.148 170.683C138.508 169.415 137.152 167.177 135.705 165.07C134.024 162.627 132.267 160.316 129.961 158.375C129.213 157.746 128.61 156.967 127.909 156.283C125.883 154.303 123.892 152.288 121.791 150.383C119.706 148.492 116.874 147.995 114.275 147.103C112.264 146.416 110.194 145.844 108.034 145.781C105.631 145.706 103.226 145.723 100.715 145.701ZM158.254 177.444C160.356 177.841 162.466 178.349 164.583 177.527C165.094 177.328 165.714 177.27 166.272 177.303C167.781 177.402 169.289 177.557 170.789 177.747C172.695 177.985 174.676 178.181 176.328 177.179C178.482 175.876 180.909 175.216 183.157 174.167C185.086 173.267 187.179 172.43 188.699 171.066C190.447 169.498 192.081 167.654 192.759 165.296C192.955 164.617 193.288 163.911 193.765 163.383C195.399 161.583 196.498 159.513 197.451 157.351C197.65 156.904 197.845 156.457 198.044 156.012C197.197 156.415 196.624 156.956 196.074 157.517C194.501 159.112 192.981 160.758 191.353 162.304C190.722 162.903 189.658 163.138 189.129 163.789C188.182 164.946 186.933 165.316 185.554 165.57C183.58 165.929 181.52 166.075 179.655 166.724C176.056 167.974 172.47 169.3 169.535 171.823C168.243 172.938 166.758 173.932 165.2 174.675C162.96 175.743 160.575 176.533 158.254 177.444ZM176.971 222.88C176.118 222.104 175.767 221.936 175.229 222.38C173.998 223.393 172.832 224.476 171.66 225.552C171.3 225.881 171.066 226.347 170.681 226.637C168.187 228.498 165.413 229.71 162.171 229.831C161.414 229.862 160.575 229.859 159.932 230.168C159.005 230.61 158.023 231.181 157.436 231.952C156.717 232.893 156.307 234.069 155.895 235.185C154.179 239.858 151.019 242.887 145.667 243.737C144.08 243.986 142.618 244.717 141.569 246.12C140.44 247.627 139.017 248.936 137.704 250.352C137.912 250.369 138.23 250.46 138.526 250.413C140.683 250.07 142.846 249.8 144.887 248.922C146.439 248.254 148.163 247.931 149.704 247.241C152.516 245.976 155.036 244.292 157.295 242.235C159.277 240.433 161.423 238.796 164.048 237.857C165.594 237.308 166.991 236.606 167.994 235.276C168.845 234.147 169.921 233.172 170.771 232.043C171.294 231.353 171.692 230.535 171.943 229.718C172.265 228.664 173.025 226.842 173.668 226.102C174.428 225.224 175.159 224.318 175.957 223.468C176.217 223.192 176.65 223.059 176.971 222.88ZM204.276 216.044C205.045 213.816 203.777 213.049 202.181 212.4C201.333 212.055 200.631 211.398 199.798 211.009C198.877 210.575 197.878 210.288 196.755 209.877C197.214 211.315 197.67 212.439 197.924 213.601C198.281 215.224 198.6 216.87 198.728 218.521C198.98 221.673 203.142 224.147 206.033 224.423C209.418 224.746 212.599 225.403 214.724 228.374C215.504 229.462 216.843 230.193 217.936 231.079C218.167 231.267 218.413 231.491 218.693 231.562C221.172 232.214 223.666 232.827 226.148 233.467C226.738 233.619 227.308 233.832 228.2 234.116C227.828 232.658 227.577 231.46 227.197 230.301C227.042 229.829 226.671 229.368 226.273 229.034C225.613 228.479 224.899 227.949 224.128 227.557C222.45 226.701 220.918 225.699 219.594 224.39C219.22 224.02 218.65 223.819 218.159 223.559C217.726 223.33 217.261 223.153 216.843 222.905C215.554 222.148 214.285 221.364 213.005 220.6C211.052 219.426 208.93 218.504 207.369 216.779C206.741 216.08 205.785 215.636 204.276 216.044ZM250.775 281.17C250.74 281.085 250.705 280.993 250.67 280.908C248.592 281.41 246.502 281.882 244.435 282.421C241.678 283.144 238.846 283.478 236.019 283.517C233.888 283.547 231.76 283.001 229.617 282.865C227.884 282.755 226.098 282.678 224.397 282.945C222.231 283.285 220.123 283.967 217.998 284.536C215.846 285.113 213.791 284.447 211.731 284.086C210.994 283.956 210.339 283.763 209.544 283.865C207.135 284.171 204.706 284.342 202.286 284.563C202.698 285.262 203.148 285.687 203.692 285.927C205.004 286.507 206.361 287.001 207.702 287.525C211.786 289.124 216.063 289.657 220.442 289.499C224.081 289.367 227.714 289.033 231.345 289.712C233.441 290.104 235.464 289.734 237.32 288.715C238.793 287.906 240.24 287.056 241.705 286.236C244.727 284.544 247.753 282.86 250.775 281.17ZM200.085 283.961C200.5 283.997 200.69 284.058 200.851 284.019C202.23 283.68 203.587 283.141 204.987 283.009C207.609 282.758 210.269 282.666 212.85 283.326C214.566 283.765 216.267 284.028 218.018 283.652C219.544 283.324 221.099 283.061 222.575 282.586C226.118 281.446 229.679 282.009 233.248 282.297C234.935 282.432 236.648 282.675 238.317 282.528C240.483 282.338 242.64 281.905 244.751 281.383C245.49 281.201 246.566 281.43 247.054 280.436C246.826 280.323 246.665 280.168 246.507 280.176C244.607 280.254 242.853 279.737 241.211 278.92C239.629 278.131 237.989 277.628 236.209 277.438C234.531 277.258 233.017 277.402 231.57 278.365C230.427 279.127 229.024 279.627 227.63 279.177C226.15 278.699 224.587 278.166 223.397 277.264C221.865 276.104 220.237 275.82 218.43 275.889C216.852 275.95 215.276 276.066 213.701 276.193C213.011 276.248 212.254 276.239 211.652 276.51C209.097 277.659 206.378 278.539 204.271 280.463C202.981 281.64 201.587 282.713 200.085 283.961ZM245.797 199.099C245.797 199.242 245.797 199.386 245.797 199.532C245.949 199.607 246.092 199.712 246.253 199.748C248.095 200.162 249.995 200.421 251.772 201.009C253.69 201.644 255.517 202.321 257.627 202.012C258.428 201.896 259.355 202.486 260.147 202.348C261.901 202.039 263.368 202.749 264.882 203.257C266.742 203.878 268.545 204.648 270.378 205.344C272.535 206.161 274.792 206.5 277.092 206.799C278.715 207.008 280.559 207.409 281.77 208.345C283.48 209.667 285.692 209.951 287.332 211.271C287.502 211.406 287.923 211.285 288.221 211.246C290.326 210.992 291.702 209.518 293.512 208.568C293.217 208.298 293.07 208.046 292.869 208C291.53 207.685 290.185 207.392 288.832 207.138C285.792 206.578 283.12 205.355 280.749 203.447C279.595 202.519 278.329 201.628 276.961 201.042C274.503 199.993 271.954 199.104 269.384 198.315C268.025 197.895 266.549 197.68 265.113 197.63C263.283 197.569 261.445 197.743 259.612 197.862C256.496 198.061 253.377 198.268 250.264 198.525C248.77 198.649 247.285 198.903 245.797 199.099ZM152.916 123.433C153.258 122.03 153.545 120.561 153.983 119.137C155.197 115.175 155.039 111.225 154.001 107.274C153.396 104.963 151.721 103.299 150.052 101.637C148.228 99.8145 146.532 97.9206 145.956 95.3504C145.725 94.3178 145.305 93.3185 144.91 92.3218C143.369 88.4181 140.25 85.6602 136.944 82.466C137.149 83.7111 137.193 84.5476 137.435 85.3289C137.842 86.6237 137.766 87.8715 137.69 89.2105C137.576 91.2065 137.906 93.2798 139.423 94.9169C140.046 95.5878 140.94 96.093 141.376 96.8467C142.858 99.4059 145.132 101.432 146.293 104.27C147.196 106.479 147.696 108.682 148.023 110.949C148.383 113.441 148.701 115.926 149.92 118.198C150.856 119.935 151.882 121.63 152.916 123.433ZM197.971 154.449C194.946 154.886 192.008 155.43 188.982 155.297C186.884 155.206 184.77 155.187 183.241 156.956C183.06 157.166 182.677 157.213 182.394 157.348C180.879 158.069 179.298 158.693 177.869 159.546C175.901 160.716 174.028 162.033 172.16 163.345C171.569 163.759 171.028 164.289 170.622 164.869C169.307 166.751 168.14 168.736 166.763 170.578C166.012 171.583 165.077 172.557 164.004 173.228C162.484 174.178 160.756 174.824 159.128 175.619C158.853 175.754 158.628 175.969 158.377 176.149C161.981 175.249 165.375 174.02 168.269 171.781C170.07 170.384 171.943 169.073 173.8 167.742C174.042 167.569 174.37 167.477 174.676 167.403C176.997 166.834 179.324 166.288 181.642 165.716C183.393 165.285 185.267 165.07 186.854 164.325C189.064 163.287 190.994 161.868 192.525 159.872C194.034 157.903 196.077 156.299 197.971 154.449ZM244.449 200.2C244.403 200.377 244.356 200.554 244.309 200.731C245.809 202.103 247.291 203.486 248.811 204.833C249.36 205.324 249.925 205.896 250.6 206.155C252.225 206.782 253.923 207.229 255.581 207.787C256.467 208.082 257.382 208.364 258.183 208.811C261.57 210.7 265.157 211.481 269.071 210.816C271.474 210.407 273.745 210.465 275.835 212.008C276.824 212.734 278.075 213.369 279.434 213.22C281.439 212.996 283.43 212.657 285.415 212.312C285.774 212.251 286.084 211.925 286.59 211.613C285.979 211.393 285.634 211.23 285.271 211.147C283.594 210.766 282.103 210.112 280.726 209.073C279.928 208.474 278.805 208.196 277.782 207.944C276.449 207.613 275.064 207.478 273.71 207.213C270.711 206.63 267.902 205.548 265.178 204.253C262.862 203.152 260.351 203.135 257.852 202.947C256.046 202.815 254.119 202.812 252.485 202.191C250.097 201.285 247.56 201.15 245.166 200.413C244.926 200.339 244.689 200.269 244.449 200.2ZM156.319 123.416C156.377 123.51 156.436 123.604 156.494 123.698C158.298 123.507 160.227 123.631 161.873 123.043C163.624 122.419 165.407 121.845 167.144 121.18C168.544 120.641 169.83 119.913 170.8 118.714C171.785 117.497 172.858 116.318 174.042 115.272C175.188 114.261 176.527 113.45 177.769 112.539C178.769 111.804 179.736 111.037 180.748 110.319C181.692 109.648 182.847 109.242 183.086 107.879C183.189 107.307 183.89 106.835 184.3 106.305C184.557 105.974 184.89 105.642 184.989 105.264C185.445 103.489 186.591 101.893 186.425 99.9359C186.363 99.243 186.761 98.5197 187.015 97.5534C184.601 98.6826 182.043 99.2099 180.423 101.198C179.421 102.423 178.497 103.749 177.81 105.148C176.129 108.566 173.235 110.744 169.9 112.55C168.421 113.353 166.804 114.035 165.556 115.092C162.385 117.77 159.385 120.63 156.319 123.416ZM152.355 136.14C152.881 136.088 153.507 136.195 153.913 135.961C155.927 134.799 158.234 134.658 160.438 134.172C162.858 133.636 165.232 132.957 167.22 131.508C169.321 129.978 171.327 128.325 173.364 126.715C174.41 125.892 175.358 124.945 176.62 124.399C179.529 123.137 182.505 122.756 185.615 123.736C187.293 124.269 189.038 124.622 190.71 125.166C192.987 125.912 195.247 126.607 197.717 126.182C198.056 126.122 198.445 126.389 198.819 126.42C199.254 126.45 199.699 126.384 200.14 126.362C200.158 126.24 200.175 126.116 200.193 125.995C199.634 125.757 199.059 125.55 198.521 125.277C197.015 124.515 195.355 123.916 194.078 122.891C192.818 121.878 191.567 120.951 190.12 120.18C187.711 118.894 185.279 118.091 182.446 118.599C179.242 119.173 176.012 119.728 173.384 121.66C171.306 123.19 169.444 124.979 167.503 126.671C165.542 128.377 163.647 130.155 160.926 130.787C159.953 131.014 159.029 131.43 158.061 131.682C155.521 132.347 154.258 134.522 152.355 136.14ZM187.913 271.024C186.296 270.425 184.913 269.865 183.499 269.401C181.958 268.899 180.403 268.413 178.822 268.054C177.535 267.764 176.173 267.772 174.893 267.469C173.08 267.041 171.268 266.939 169.429 267.14C165.74 267.543 162.186 267.391 158.658 265.956C156.114 264.923 153.314 264.523 150.484 265.163C149.914 265.293 149.289 265.199 148.701 265.279C147.687 265.42 146.608 265.47 145.661 266.544C147.45 267.17 149.02 268.159 150.604 268.181C154.016 268.233 156.787 269.456 159.575 271.11C161.201 272.074 163.159 272.662 165.203 272.466C167.082 272.286 168.959 272.04 170.838 271.861C173.779 271.588 176.699 271.508 179.62 272.22C181.195 272.601 182.861 272.805 184.487 272.811C185.697 272.813 187.021 272.568 187.913 271.024ZM226.367 176.262C228.629 176.972 230.602 177.347 232.631 177.422C233.108 177.441 233.613 177.215 234.069 177.024C236.89 175.851 239.094 173.849 241.281 171.908C242.818 170.542 244.242 168.963 245.081 167.077C245.464 166.213 246.078 165.879 246.94 165.799C248.364 165.672 249.577 165.183 250.574 164.187C250.878 163.883 251.483 163.797 251.69 163.472C252.982 161.415 254.169 159.297 255.461 157.243C256.3 155.913 257.262 154.648 258.419 152.997C257.618 153.387 257.2 153.527 256.855 153.765C253.888 155.822 250.746 157.58 247.414 159.063C244.47 160.366 242.491 162.632 240.696 165.147C238.632 168.046 236.121 170.641 233.061 172.634C231.07 173.929 228.863 174.926 226.367 176.262ZM225.735 175.426C226.194 175.359 226.454 175.384 226.642 175.285C228.185 174.462 229.676 173.546 231.257 172.8C232.713 172.113 233.803 171.083 234.932 170.023C237.431 167.673 239.679 165.147 241.632 162.376C242.207 161.556 242.833 160.634 243.684 160.15C245.493 159.121 247.305 158.077 249.287 157.315C250.655 156.791 251.962 156.031 253.146 155.187C254.859 153.966 256.718 153.006 258.603 152.073C258.943 151.904 259.255 151.694 259.954 151.286C257.224 151.17 254.958 151.048 252.693 151.001C252.301 150.993 251.836 151.233 251.521 151.487C248.638 153.801 245.098 154.797 241.605 155.838C239.986 156.321 238.822 157.114 237.972 158.497C236.42 161.017 235.113 163.687 233.081 165.931C232.672 166.384 232.342 166.903 231.994 167.4C230.258 169.877 228.986 172.676 226.376 174.542C226.15 174.705 226.034 175.003 225.735 175.426ZM244.423 248.212C244.599 248.212 244.771 248.21 244.946 248.21C245.376 246.7 245.905 245.206 246.206 243.674C246.431 242.523 246.271 241.335 245.695 240.242C244.669 238.299 243.622 236.363 242.663 234.387C242.307 233.655 242.114 232.835 241.95 232.035C241.652 230.582 241.588 229.089 240.76 227.764C240.544 227.416 240.348 226.999 240.337 226.607C240.234 223.391 239.033 220.583 236.943 218.073C236.472 217.51 236.098 216.873 235.624 216.307C235.06 215.633 234.435 215.001 233.689 214.195C233.391 218.2 234.253 221.596 236.32 224.76C237.077 225.92 237.422 227.3 237.256 228.722C237.045 230.489 236.826 232.253 236.653 234.02C236.577 234.787 236.498 235.571 236.601 236.327C237.025 239.431 238.708 241.813 241.474 243.5C242.783 244.298 243.47 245.441 243.877 246.804C244.023 247.282 244.239 247.743 244.423 248.212ZM127.076 116.285C126.631 116.553 126.064 116.705 125.921 117.025C125.585 117.779 125.322 118.607 125.266 119.418C125.123 121.442 125.19 123.477 125.027 125.5C124.86 127.576 124.521 129.644 124.24 131.715C124.193 132.063 123.907 132.446 124.001 132.739C124.737 135.061 124.898 137.648 126.69 139.528C127.982 140.886 128.806 142.465 129.806 143.97C131.39 146.349 133.27 148.456 136.205 149.684C136.266 149.149 136.453 148.699 136.33 148.343C135.833 146.882 136.07 145.314 135.173 143.862C134.273 142.41 134.056 140.596 133.334 139.028C132.218 136.599 129.999 134.649 129.8 131.803C129.791 131.649 129.394 131.544 129.262 131.361C129.055 131.072 128.809 130.746 128.771 130.415C128.602 128.921 128.426 127.422 128.394 125.923C128.359 124.101 128.993 122.29 128.254 120.451C127.768 119.236 127.532 117.936 127.076 116.285ZM229.556 235.058C229.641 235.033 229.723 235.005 229.807 234.977C229.822 233.724 229.959 232.457 229.819 231.217C229.679 229.989 229.442 228.711 228.907 227.604C228.489 226.742 228.252 225.983 228.363 225.058C228.489 224.001 228.205 223.073 227.291 222.317C225.122 220.522 222.634 219.203 219.997 218.223C217.173 217.173 214.607 215.904 212.689 213.609C212.23 213.06 211.538 212.687 210.947 212.235C208.644 210.476 205.829 209.904 203.049 209.35C201.546 209.051 199.959 209.151 198.407 209.071C198.743 209.664 199.12 209.971 199.55 210.172C200.687 210.7 201.847 211.18 202.999 211.68C204.148 212.182 205.191 212.825 206.136 213.634C207.527 214.827 208.98 215.956 210.398 217.121C210.579 217.273 210.757 217.469 210.839 217.681C211.339 218.965 212.102 219.868 213.742 219.788C214.052 219.774 214.446 220.053 214.692 220.296C216.074 221.662 217.773 222.491 219.646 223.079C220.041 223.2 220.541 223.44 220.696 223.755C221.576 225.53 223.417 226.143 224.97 227.151C226.674 228.255 228.644 229.208 228.565 231.739C228.53 232.835 229.202 233.95 229.556 235.058ZM150.011 129.172C151.133 127.772 152.075 126.599 151.817 125.059C151.63 123.949 151.294 122.834 150.821 121.807C150.245 120.556 149.274 119.454 148.795 118.182C148.21 116.622 147.938 114.952 147.561 113.323C147.114 111.393 146.737 109.449 146.26 107.528C145.965 106.327 145.6 105.137 145.17 103.975C144.381 101.855 142.522 100.378 141.341 98.481C140.774 97.57 139.905 96.8191 139.143 96.024C138.198 95.0467 137.216 94.1218 137.178 92.6531C137.166 92.1866 136.865 91.7227 136.596 90.9773C135.55 93.0286 135.728 94.8921 135.658 96.7031C135.611 97.951 136.211 99.0083 137.251 99.8034C139.327 101.396 140.166 103.704 140.882 105.952C141.461 107.757 141.434 109.742 141.618 111.653C141.747 112.994 142.066 114.253 142.946 115.338C144.015 116.655 145.05 117.999 146.184 119.267C148.654 122.022 149.955 125.172 150.011 129.172ZM234.628 213.226C234.54 213.303 234.449 213.377 234.365 213.455C235.128 214.38 235.969 215.258 236.639 216.243C238.127 218.427 240.193 220.29 240.585 223.098C240.763 224.357 241.734 225.489 241.424 226.891C241.371 227.14 241.64 227.446 241.737 227.733C242.044 228.644 242.517 229.544 242.605 230.475C242.88 233.362 244.274 235.82 245.604 238.337C246.256 239.577 247.305 240.734 246.998 242.329C246.788 243.434 246.759 244.568 246.648 245.689C247.835 244.099 248.872 242.536 248.899 240.499C248.925 238.525 249.194 236.546 249.471 234.585C249.667 233.216 249.393 231.954 248.758 230.776C248.156 229.663 247.367 228.642 246.692 227.559C245.958 226.383 245.221 225.204 244.561 223.99C243.581 222.187 242.924 220.268 241.582 218.593C239.971 216.574 237.615 215.437 235.838 213.651C235.575 213.383 235.037 213.361 234.628 213.226ZM217.089 305.686C216.837 305.421 216.7 305.219 216.51 305.089C214.586 303.778 212.257 303.057 210.55 301.423C210.339 301.221 209.959 301.188 209.702 301.017C208.176 300.007 206.644 299.005 205.15 297.953C203.785 296.992 202.601 295.697 201.099 295.035C197.74 293.558 194.259 292.315 190.771 291.12C189.649 290.733 188.357 290.714 187.015 291.009C187.442 291.504 187.778 291.857 188.079 292.238C190.324 295.084 193.174 297.194 196.665 298.535C198.997 299.43 201.233 300.435 203.063 302.179C204.823 303.863 207.048 304.391 209.55 304.001C210.395 303.872 211.333 303.921 212.16 304.131C213.78 304.545 215.352 305.128 217.089 305.686ZM256.274 209.568C256.253 209.65 256.23 209.736 256.206 209.819C257.06 210.6 257.838 211.473 258.785 212.132C259.837 212.869 261.018 213.458 262.193 214.015C263.205 214.496 264.257 214.959 265.35 215.219C266.996 215.608 268.685 215.846 270.366 216.089C273.172 216.492 275.979 216.895 278.797 217.207C281.428 217.499 283.924 217.22 286.137 215.578C287.651 214.457 289.291 213.463 290.969 212.574C292.106 211.969 293.389 211.591 294.643 211.205C295.535 210.929 296.517 210.901 297.391 210.595C298.259 210.291 299.235 210.827 300.086 209.968C300.677 209.372 301.802 209.264 302.67 208.897C302.989 208.764 303.252 208.519 303.93 208.055C302.352 208.138 301.223 208.132 300.118 208.267C297.902 208.532 295.76 209.046 293.889 210.274C293.421 210.581 293.044 211.053 292.538 211.246C288.879 212.638 285.432 214.741 281.223 214.366C279.025 215.605 277.464 214.065 275.724 213.253C275.102 212.961 274.45 212.698 273.781 212.519C272.626 212.207 271.498 212.047 270.238 212.326C266.791 213.082 263.441 212.696 260.246 211.172C258.963 210.562 257.601 210.098 256.274 209.568ZM136.965 145.414C137.304 144.45 137.584 143.917 137.672 143.357C137.909 141.83 138.178 140.292 138.216 138.755C138.245 137.576 137.906 136.394 137.792 135.207C137.608 133.302 136.924 131.56 135.708 130.064C134.761 128.899 133.811 127.703 132.831 126.602C131.227 124.805 131.127 122.668 130.56 120.669C130.116 119.104 129.964 117.511 128.605 116.238C128.189 117.497 128.695 118.612 128.935 119.764C129.177 120.92 129.408 122.099 129.443 123.275C129.499 125.119 129.388 126.969 129.335 128.819C129.294 130.318 130.247 131.483 130.835 132.767C131.551 134.332 132.033 136.107 133.153 137.361C134.427 138.788 134.775 140.43 135.427 142.029C135.845 143.056 136.342 144.055 136.965 145.414ZM212.151 77.0605C211.219 77.4249 210.289 77.8003 209.354 78.1565C206.828 79.1172 204.358 80.1801 202.227 81.8117C200.921 82.8111 199.535 83.551 197.86 83.874C196.887 84.0589 195.75 84.2991 195.074 84.9037C192.873 86.8694 191.441 89.3375 190.64 92.1093C190.584 92.3025 190.675 92.5344 190.693 92.7304C193.461 92.6504 195.65 91.6372 197.378 89.7461C199.143 87.8191 201.353 86.4829 203.762 85.4089C204.443 85.1053 205.112 84.7546 205.826 84.5503C209.693 83.4433 210.807 80.1994 212.151 77.0605ZM217.881 307.447C217.928 307.317 217.971 307.19 218.018 307.06C216.773 306.699 215.478 306.445 214.294 305.951C212.622 305.252 210.994 304.86 209.111 305.073C208.068 305.189 206.849 305.514 205.799 304.841C204.616 304.084 203.458 303.286 202.242 302.577C200.576 301.608 198.936 300.556 197.156 299.811C193.814 298.411 190.83 296.636 188.64 293.801C188.354 293.431 187.939 293.144 187.34 292.597C187.816 293.922 188.103 294.996 188.582 295.987C189.292 297.453 189.991 298.96 190.976 300.258C192.145 301.807 193.227 303.46 195.381 304.167C197.65 304.913 199.76 306.075 202.011 306.87C203.549 307.414 205.194 307.513 206.852 307.088C207.922 306.815 209.161 306.953 210.126 306.517C211.456 305.915 212.415 306.39 213.476 306.936C213.628 307.013 213.85 306.969 214.037 306.991C215.317 307.14 216.601 307.292 217.881 307.447ZM197.74 322.153C197.857 321.262 197.275 320.917 196.779 320.596C195.893 320.028 194.928 319.569 194.037 319.012C193.543 318.702 193.04 318.341 192.686 317.902C191.733 316.715 190.856 315.472 189.947 314.255C189.731 313.962 189.438 313.703 189.289 313.382C188.135 310.931 186.659 308.678 184.554 306.851C183.203 305.674 181.897 304.416 180.383 303.458C176.799 301.194 173.092 299.098 170.09 295.893C170.163 296.423 170.189 296.826 170.283 297.21C170.353 297.5 170.508 297.771 170.628 298.049C171.955 301.158 174.524 303.325 177.065 305.492C178.132 306.406 179.292 307.251 180.526 307.947C182.762 309.205 184.808 310.611 186.425 312.593C187.199 313.543 187.778 314.572 188.445 315.566C190.628 318.829 194.095 320.544 197.74 322.153ZM169.251 291.68C169.09 291.788 168.927 291.898 168.763 292.009C169.365 293.036 169.959 294.071 170.572 295.093C171.899 297.298 174.232 298.483 176.275 299.916C178.249 301.301 180.575 302.16 182.35 303.924C184.083 305.641 186.2 306.969 187.483 309.136C188.684 311.166 190.304 312.974 191.517 314.995C192.823 317.167 194.764 318.562 196.995 319.735C196.773 319.249 196.451 318.84 196.141 318.424C195.753 317.899 195.296 317.402 194.998 316.833C193.882 314.697 192.905 312.488 191.704 310.395C190.628 308.526 189.137 306.98 187.474 305.467C185.475 303.645 183.142 302.334 180.97 300.818C178.594 299.162 175.951 297.878 174.598 295.217C174.545 295.115 174.457 295.015 174.361 294.955C172.66 293.859 170.955 292.771 169.251 291.68ZM141.028 189.619C143.22 185.734 146.874 183.214 150.253 180.229C147.012 179.169 143.89 179.042 140.566 179.02C140.435 179.832 140.136 180.599 140.227 181.323C140.511 183.498 140.958 185.651 140.791 187.865C140.75 188.442 140.943 189.033 141.028 189.619ZM117.602 259.059C120.133 259.929 122.516 261.113 125.132 261.823C127.687 262.519 130.113 263.722 132.992 263.419C130.373 261.616 127.491 260.581 124.635 259.429C122.317 258.493 120.159 257.925 117.742 258.745C117.713 258.756 117.704 258.825 117.602 259.059ZM113.515 257.11C110.519 254.115 103.933 249.204 97.8236 248.19C98.0019 248.497 98.0925 248.831 98.3176 248.994C99.5717 249.885 100.811 250.81 102.147 251.578C103.869 252.566 105.661 253.447 107.455 254.316C109.458 255.283 111.492 256.18 113.515 257.11ZM214.715 291.225C215.405 291.589 216.142 291.896 216.782 292.326C219.15 293.919 221.701 293.527 224.23 292.939C225.119 292.732 225.914 292.147 226.013 291.067C222.263 290.717 218.521 291.962 214.715 291.225ZM213.888 199.64C213.929 199.483 213.97 199.323 214.011 199.162C213.172 198.757 212.374 198.224 211.485 197.97C210.041 197.556 208.527 197.371 207.062 197.004C205.478 196.606 203.908 196.153 202.359 195.651C201.228 195.281 200.345 195.565 199.123 196.498C201.494 196.838 203.478 197.078 205.446 197.42C206.723 197.644 207.983 197.986 209.237 198.32C210.795 198.737 212.339 199.201 213.888 199.64ZM59.7494 245.667C56.0984 246.622 52.6023 247.362 49.2435 248.464C45.8848 249.565 42.1753 249.77 39.2112 251.906C45.8907 250.139 52.5116 248.207 59.1268 246.258C59.3226 246.2 59.4571 245.954 59.7494 245.667ZM136.746 197.244C134.641 200.405 135.147 203.787 134.55 206.945C135.904 203.941 137.508 200.993 136.746 197.244ZM210.628 191.504C210.348 192.556 211.008 192.586 211.663 192.719C213.794 193.152 215.922 193.608 218.039 194.102C219.071 194.342 220.073 194.685 221.09 194.98C221.143 194.817 221.196 194.654 221.245 194.488C217.907 193.061 214.47 191.907 210.628 191.504ZM243.45 183.506C240.009 185.099 236.349 185 233.189 186.587C236.045 186.237 238.945 186.281 241.71 185.345C242.549 185.061 243.117 184.696 243.45 183.506ZM211.315 290.51C207.311 288.944 203.306 287.379 199.301 285.811C199.249 285.935 199.196 286.057 199.143 286.181C203.063 287.956 206.849 290.051 211.315 290.51ZM197.638 195.62C194.417 194.853 191.85 196.661 188.939 197.321C189.298 197.547 189.672 197.663 189.997 197.586C191.201 197.302 192.388 196.943 193.586 196.634C194.934 196.283 196.287 195.96 197.638 195.62ZM131.478 213.333C129.654 213.248 128.078 213.99 126.535 215.658C128.151 215.928 130.203 214.965 131.478 213.333ZM138.581 189.304C138.973 189.111 139.341 189.025 139.353 188.909C139.447 187.816 139.517 186.714 139.511 185.613C139.511 185.223 139.286 184.831 139.163 184.442C139.046 184.461 138.926 184.481 138.806 184.5C138.736 185.999 138.666 187.501 138.581 189.304ZM142.671 166.71C142.127 169.333 142.127 169.333 142.981 169.683C142.872 168.634 142.77 167.671 142.671 166.71ZM111.577 221.85C111.633 221.963 111.688 222.074 111.741 222.181C112.597 221.803 113.454 221.425 114.635 220.9C113.021 220.533 112.39 221.378 111.577 221.85ZM161.68 273.865C162.762 274.914 162.762 274.914 163.972 274.812C163.025 273.642 163.025 273.642 161.68 273.865ZM153.846 269.956C153.782 270.097 153.717 270.24 153.653 270.384C154.384 270.613 155.112 270.842 155.843 271.071C155.883 270.95 155.924 270.831 155.968 270.71C155.261 270.459 154.553 270.207 153.846 269.956ZM100.279 229.274C100.367 229.376 100.454 229.481 100.545 229.58C101.165 229.183 101.787 228.782 102.41 228.385C102.34 228.294 102.273 228.205 102.205 228.114C101.565 228.501 100.922 228.89 100.279 229.274ZM103.381 227.67C103.477 227.789 103.573 227.91 103.667 228.029C104.047 227.731 104.424 227.432 104.804 227.137C104.763 227.087 104.722 227.043 104.681 226.993C104.249 227.22 103.813 227.446 103.381 227.67ZM181.479 203.45C181.525 203.35 181.572 203.248 181.622 203.146C181.207 202.983 180.795 202.812 180.374 202.663C180.345 202.652 180.257 202.793 180.119 202.953C180.596 203.13 181.037 203.29 181.479 203.45ZM159.002 272.656C159.064 272.507 159.125 272.358 159.187 272.209C158.774 272.06 158.359 271.911 157.947 271.762C157.9 271.866 157.854 271.969 157.804 272.074C158.204 272.267 158.602 272.463 159.002 272.656ZM36.4869 252.591C36.4284 252.472 36.3729 252.354 36.3144 252.238C35.835 252.425 35.3527 252.616 34.8703 252.804C34.9142 252.903 34.958 253.002 35.0048 253.102C35.4988 252.931 35.9928 252.762 36.4869 252.591ZM138.689 181.485C138.584 181.508 138.476 181.527 138.368 181.546C138.423 182.035 138.476 182.523 138.532 183.012C138.654 182.996 138.774 182.976 138.894 182.96C138.827 182.468 138.76 181.977 138.689 181.485ZM165.477 201.738C165.524 201.873 165.574 202.009 165.621 202.144C166.068 201.978 166.518 201.813 166.968 201.647C166.93 201.553 166.892 201.462 166.857 201.368C166.398 201.49 165.936 201.614 165.477 201.738Z" fill="#3D3D3D"/>
<path d="M178.816 198.133C177.804 198.453 176.813 198.839 175.779 199.057C175.355 199.146 174.843 198.861 174.443 198.508C175.486 198.276 176.536 198.072 177.567 197.799C178.114 197.655 178.564 197.583 178.824 198.185L178.816 198.133Z" fill="#3D3D3D"/>
<path d="M178.825 198.185C179.038 197.437 179.716 197.434 180.324 197.398C181.368 197.335 182.417 197.335 183.467 197.305C183.467 197.305 183.467 197.249 183.467 197.247C182.002 197.934 180.444 198.196 178.816 198.133L178.825 198.185Z" fill="#3D3D3D"/>
</svg>
