<svg width="190" height="193" viewBox="0 0 190 193" fill="none" xmlns="http://www.w3.org/2000/svg">
<path d="M5.32864 0.00105286C4.99366 10.1362 4.99193 20.3565 6.60606 30.4506C8.2983 40.5579 11.9015 50.193 15.5289 59.7429C17.4156 64.4884 19.087 69.3502 21.8483 73.8285C24.6167 78.3084 28.3708 82.1014 32.2534 85.6175C39.9857 92.7152 48.367 99.1801 57.2795 104.873L57.3593 104.766C48.9641 98.4261 40.9107 91.7333 33.2497 84.652C29.4573 81.0983 25.724 77.4625 22.9678 73.1974C20.2429 68.9256 18.3684 64.1343 16.2405 59.479C14.1873 54.7975 12.2573 50.0586 10.8011 45.1787C9.30496 40.3087 8.37814 35.3141 7.74463 30.2965C6.35092 20.2794 6.06628 10.1427 5.46922 -0.000587463L5.32864 0.00105286Z" fill="#373434"/>
<path d="M52.58 96.7798C51.2384 97.0519 49.8065 97.5765 49.0029 98.7829C48.2479 100.04 48.51 101.553 48.8397 102.835C49.2059 104.145 49.7249 105.382 50.2595 106.597C50.8027 107.848 51.5126 109.044 52.3926 110.151C53.2881 111.236 54.3989 112.231 55.7458 112.895C57.0926 113.568 58.5697 113.842 59.9738 114.011C62.7803 114.319 65.592 114.367 68.3898 114.178C69.0858 114.137 69.7888 114.086 70.4795 114.021L71.5226 113.909C71.8646 113.859 72.21 113.908 72.6421 113.701C73.0812 113.468 73.1611 112.944 73.0864 112.605C73.024 112.244 72.8608 111.913 72.6925 111.626C72.3644 111.046 72.0607 110.452 71.7101 109.879C70.3754 107.562 68.9175 105.287 67.1523 103.209C65.3698 101.173 63.3426 99.2222 60.793 97.9453C59.5381 97.3027 58.1653 96.8454 56.7663 96.6323C55.3674 96.4421 53.9425 96.4815 52.58 96.7798ZM52.6095 96.9077C53.9546 96.629 55.3726 96.6274 56.69 96.9683C58.0056 97.3257 59.2361 97.8994 60.333 98.6452C62.5269 100.137 64.4031 102.032 66.281 103.918C68.1364 105.817 69.912 107.841 71.3196 110.088C71.6684 110.651 72.0086 111.219 72.3106 111.805C72.6196 112.331 72.8278 113.09 72.4009 113.298C72.2065 113.401 71.8212 113.396 71.4793 113.422L70.4466 113.454C69.754 113.467 69.0633 113.473 68.3725 113.459C65.6128 113.396 62.8619 113.165 60.1595 112.786C58.8196 112.59 57.5335 112.287 56.4348 111.695C55.3327 111.096 54.366 110.265 53.5624 109.29C52.7327 108.33 52.0732 107.218 51.4796 106.076C50.886 104.891 50.2282 103.741 49.7127 102.566C49.2216 101.404 48.838 100.109 49.35 98.9534C49.9019 97.8059 51.2939 97.1896 52.6095 96.9077Z" fill="#373434"/>
<path d="M39.6672 97.0268C40.4864 98.6889 41.4324 100.285 42.3627 101.88C42.833 102.661 43.2513 103.447 43.4891 104.242C43.7355 105.024 43.6991 105.844 43.6088 106.719C43.5116 107.596 43.3624 108.524 43.404 109.494C43.4474 110.462 43.6557 111.381 43.8727 112.271C44.3274 114.019 44.7249 115.9 43.9091 117.502L44.376 117.535L43.5464 114.191C43.26 113.068 42.84 111.917 42.1353 110.893C41.4688 109.876 40.6427 109.024 40.0265 108.118C39.393 107.208 39.0268 106.3 38.9938 105.28C38.966 104.264 39.157 103.151 39.3114 102.008L39.7228 98.6069C39.8703 97.4775 39.9623 96.335 40.0699 95.1991C40.1272 94.6254 40.148 94.0844 40.3545 93.6074C40.4535 93.3747 40.6409 93.1484 40.8023 92.8927C40.9637 92.6485 41.1078 92.2977 40.9724 91.9928L40.8388 92.0272C40.8961 92.5698 40.2903 92.8616 39.9345 93.391C39.5631 93.932 39.4572 94.5467 39.3305 95.0942C39.0736 96.2121 38.8064 97.3284 38.5911 98.4479L37.9229 101.812C37.7407 102.928 37.4526 104.07 37.5098 105.337C37.5255 106.623 38.1503 107.896 38.8949 108.847C39.6447 109.822 40.4726 110.652 41.1547 111.522C42.4911 113.242 43.1385 115.505 43.8952 117.661L44.1087 118.274L44.3638 117.695C45.1692 115.876 44.6884 113.955 44.5044 112.17C44.402 111.266 44.3239 110.368 44.3968 109.514C44.4801 108.66 44.7075 107.793 44.8359 106.855C44.9644 105.931 44.9783 104.882 44.6363 103.916C44.3222 102.957 43.7651 102.143 43.227 101.376C42.1127 99.8757 41.0071 98.3873 39.7835 96.9546L39.6672 97.0268Z" fill="#373434"/>
<path d="M45.0792 74.3654C46.6708 72.0656 48.278 69.7576 50.3364 67.8922C51.3622 66.9628 52.5077 66.1777 53.7313 65.5498C54.9688 64.9384 56.307 64.5221 57.6886 64.3008C60.4621 63.8648 63.3224 64.0106 66.1254 64.5631C68.9389 65.0892 71.7055 65.9514 74.4495 66.8661L74.3645 66.4432C70.4958 69.8265 65.9883 72.5459 61.2188 74.6293C60.0334 75.1555 58.8132 75.6194 57.5966 76.0898C56.3747 76.5472 55.158 76.993 53.9327 77.2307C52.7038 77.4831 51.508 77.4717 50.4076 77.0389C49.2881 76.6324 48.2936 75.8554 47.0977 75.1719C46.5024 74.8309 45.8412 74.5211 45.1157 74.331C44.385 74.149 43.7254 74.0785 43.0346 74.0179C41.6635 73.9113 40.3201 73.9146 39.0149 73.913C37.7011 73.9015 36.4184 73.8573 35.1896 73.6343C33.94 73.4016 32.6643 73.0983 31.4302 72.7229C26.4941 71.2018 21.8704 68.6512 18.1214 65.1237L18.019 65.2138C21.3671 69.1167 25.9647 72.0902 31.031 73.8245C32.3033 74.2638 33.5772 74.6293 34.9136 74.926C36.2813 75.1981 37.6525 75.2604 38.9889 75.2932C40.3219 75.3325 41.6357 75.3079 42.9045 75.4128C43.5293 75.4571 44.1819 75.5456 44.7408 75.6718C45.2944 75.8046 45.8377 76.0407 46.3809 76.3324C47.464 76.9111 48.5539 77.7339 49.9268 78.2142C51.3014 78.7256 52.8704 78.6978 54.2069 78.3699C55.5676 78.0487 56.8016 77.5356 58.0201 77.0291C59.2402 76.5144 60.4326 75.9472 61.6041 75.3522C66.3059 72.9655 70.6502 70.0494 74.7203 66.8235L75.0518 66.5563L74.637 66.3989C71.9346 65.3712 69.2357 64.2828 66.365 63.5828C63.5046 62.8976 60.4326 62.6059 57.4664 63.1911C54.5002 63.7189 51.6815 65.1876 49.7064 67.3054C47.6636 69.3724 46.2317 71.8296 44.9577 74.2966L45.0792 74.3654Z" fill="#373434"/>
<path d="M42.1604 75.0305C43.6027 75.5386 44.7517 76.4582 45.6664 77.5122C46.595 78.5728 47.2302 79.8284 47.8168 81.1217C48.4243 82.4101 48.9988 83.7608 49.4883 85.1295C49.969 86.5048 50.3509 87.9079 50.6598 89.3226L51.1059 89.0587C49.759 87.9374 48.4486 86.7802 47.0792 85.6934C45.6959 84.6214 44.3404 83.5182 42.9224 82.4871C41.5304 81.4512 40.1367 80.4791 39.0693 79.2317C38.0279 77.9958 37.2417 76.4861 37.2746 74.7928L37.1427 74.7698C36.596 76.4533 37.141 78.3597 38.1494 79.8497C39.1769 81.3643 40.5966 82.5511 42.0112 83.5903C43.4153 84.6378 44.8854 85.6049 46.3225 86.6113C47.77 87.5981 49.2835 88.5194 50.7622 89.475L51.4565 89.9258L51.2083 89.2045C50.7275 87.8178 50.3196 86.4196 50.0176 84.9918C49.7417 83.551 49.4865 82.1052 48.9519 80.6922C48.407 79.2989 47.586 77.9433 46.437 76.8516C45.3019 75.773 43.778 74.9846 42.1934 74.901L42.1604 75.0305Z" fill="#373434"/>
<path d="M30.694 73.6228C30.8033 71.9132 31.8603 70.5461 32.8496 69.1593C33.8511 67.7709 34.9619 66.476 36.0883 65.1826C37.2009 63.8811 38.3863 62.5944 39.7644 61.5125C41.1546 60.4356 42.7219 59.5815 44.3569 58.8964L43.8223 58.4751C43.1506 60.111 42.7826 61.8223 42.413 63.4828C42.0415 65.1368 41.5989 66.7432 40.8648 68.184C40.1427 69.6199 39.0545 70.8952 37.6816 71.8755C36.3122 72.8721 34.6859 73.5835 32.9156 73.9343L32.9243 74.0638C34.7692 74.1457 36.6524 73.6474 38.2856 72.7262C39.905 71.7984 41.323 70.4494 42.1908 68.8102C43.0655 67.171 43.4127 65.4039 43.6991 63.7057C43.9924 62.0043 44.1521 60.3257 44.5426 58.6849L44.7491 57.8325L44.008 58.2653C42.4407 59.1717 40.9585 60.1635 39.4902 61.1732C38.0253 62.1911 36.5413 63.2189 35.2292 64.4467C33.9396 65.6908 32.8427 67.1087 31.935 68.62C31.0637 70.0805 30.1386 71.8607 30.5534 73.6343L30.694 73.6228Z" fill="#373434"/>
<path d="M62.2619 68.4597C60.6356 68.2876 59.018 68.7465 57.6625 69.4891C56.9856 69.8891 56.4094 70.4234 55.7481 70.8086C55.092 71.2086 54.3804 71.4955 53.641 71.7397C52.1606 72.2052 50.7755 72.7626 49.3662 73.1937C47.9777 73.6903 46.5979 74.0887 45.0341 74.3903L45.0254 74.5214C46.5545 75.0722 48.2918 74.946 49.8313 74.5214C51.3622 74.0395 52.7715 73.3051 54.0038 72.3692C54.6304 71.9233 55.2621 71.4905 55.9685 71.1824C56.6645 70.8677 57.4473 70.7103 58.1658 70.4677C59.5856 69.9333 60.8717 69.3006 62.2914 68.5892L62.2619 68.4597Z" fill="#373434"/>
<path d="M45.3114 82.3202C45.0493 81.5007 44.6848 80.9335 44.1641 80.4385C43.8795 80.2106 43.4855 80.0287 43.2564 79.7369C43.0186 79.4517 42.9335 79.0894 42.885 78.7173C42.8207 77.9584 42.609 77.2388 42.1942 76.5355C41.7394 75.8848 40.948 75.2373 40.0125 75.2504L39.9465 75.3635C40.3839 76.0815 40.5991 76.6208 40.9063 77.2306C41.2587 77.7994 41.6127 78.4452 42.1924 79.0124C42.4649 79.3091 42.7166 79.6008 42.8711 79.95C43.0273 80.2926 43.0568 80.727 43.2303 81.0843C43.6261 81.7662 44.3186 82.2793 45.2211 82.4219L45.3114 82.3202Z" fill="#373434"/>
<path d="M39.9648 64.2639C38.9599 64.8917 38.2448 65.6637 37.6998 66.562C37.4499 67.0292 37.3058 67.5701 37.0108 68.0094C36.7244 68.4569 36.32 68.8143 35.8843 69.1519C34.994 69.8011 34.2407 70.5485 33.5256 71.3222C32.8505 72.132 32.3159 72.909 31.5869 73.7728L31.6546 73.8843C32.8695 73.7466 33.8762 72.986 34.6416 72.2369C35.3723 71.4386 36.018 70.5813 36.4849 69.5978C36.7331 69.1142 37.0021 68.652 37.3735 68.2668C37.7362 67.8701 38.2465 67.575 38.6353 67.198C39.3695 66.3997 39.8832 65.4523 40.0776 64.3327L39.9648 64.2639Z" fill="#373434"/>
<path d="M16.2661 86.9008C18.2934 88.7367 20.2164 90.6562 21.9694 92.6888C23.6738 94.7328 25.2497 96.9261 25.7062 99.416C25.9318 100.659 25.9874 101.965 26.1314 103.312C26.2772 104.655 26.5411 105.984 26.9125 107.279C27.6067 109.887 28.6481 112.362 29.5385 114.874L29.9359 114.619C26.246 111.753 22.6723 108.623 20.2095 104.802C18.9893 102.896 18.0018 100.867 17.5071 98.7275C16.9691 96.6064 17.068 94.3821 17.0315 92.0938C16.983 89.8038 16.8875 87.6139 17.2745 85.4419C17.4464 84.3469 17.6946 83.2438 17.9115 82.1193C18.1128 80.9883 18.2864 79.8556 18.4183 78.7196C18.9737 74.1709 18.847 69.5582 18.0729 65.0767L17.9323 65.0898C18.1701 69.6205 17.9219 74.1299 17.2138 78.5639C16.8597 80.7883 16.2696 82.9323 15.8374 85.2223C15.374 87.5253 15.4955 89.894 15.5927 92.1265C15.6899 94.3575 15.6361 96.713 16.2766 99.0078C16.917 101.285 18.0226 103.399 19.4389 105.278C22.2662 109.066 26.0568 111.949 29.6114 114.977L30.3004 115.562L30.0123 114.726C29.1376 112.21 28.419 109.648 27.8914 107.074C27.6432 105.786 27.4453 104.494 27.3186 103.206C27.1971 101.921 27.2127 100.568 26.8986 99.198C26.2686 96.4376 24.5781 94.0854 22.655 92.1315C20.7441 90.1562 18.6387 88.363 16.3529 86.8041L16.2661 86.9008Z" fill="#373434"/>
<path d="M16.5874 84.2606C16.0511 85.8113 14.5689 86.6784 13.0623 87.2111C11.5315 87.7455 9.78547 88.1766 8.23382 88.9519C6.67002 89.7109 5.25895 90.7141 3.94508 91.7877C2.63468 92.8663 1.37809 93.9777 0.182241 95.1645L0.617884 95.3595C1.07262 93.4138 1.64885 91.491 2.50104 89.7584C2.94536 88.9028 3.45043 88.0815 4.09955 87.3865C4.74868 86.6849 5.5245 86.0916 6.33851 85.5277C7.99257 84.4163 9.80109 83.4984 11.7155 82.6886C13.6229 81.8805 15.5564 81.1035 17.5541 80.4429L17.5264 80.3151C15.4002 80.5298 13.3192 81.0363 11.2937 81.6903C9.2804 82.3329 7.24451 83.164 5.47243 84.3917C3.66565 85.5801 2.16433 87.3603 1.40065 89.3142C0.602262 91.2681 0.407872 93.304 0.121494 95.2776L0 96.1086L0.557137 95.4743C1.64017 94.24 2.89503 93.1286 4.32171 92.2533C5.73452 91.3599 7.2636 90.6698 8.77534 90.001C9.53728 89.665 10.2975 89.3437 11.075 89.0487C11.8578 88.7667 12.6736 88.4667 13.4789 88.1045C15.06 87.4062 16.6447 86.0211 16.7228 84.2803L16.5874 84.2606Z" fill="#373434"/>
<path d="M16.1821 89.0283C16.6074 90.1659 17.4439 91.0789 18.2128 91.9509C19.0338 92.8279 19.6846 93.5967 20.1862 94.5704C20.7243 95.5195 21.179 96.5915 21.4515 97.7012C21.7188 98.8159 21.8385 99.9617 22.0555 101.114C22.2499 102.275 22.571 103.414 23.0361 104.501C23.4822 105.591 23.9925 106.659 24.6034 107.666C25.853 109.677 27.3387 111.515 29.0362 113.195L29.1559 113.119C28.1823 110.98 27.0038 108.987 25.8982 106.992C24.7336 105.022 23.6835 103.025 22.7845 100.929C22.3506 99.8731 22.0642 98.7618 21.8923 97.6242C21.7223 96.4882 21.6632 95.308 21.2484 94.1409C20.8458 92.9689 19.8773 91.9739 18.9834 91.2445C18.0913 90.4593 17.1176 89.802 16.3036 88.9611L16.1821 89.0283Z" fill="#373434"/>
<path d="M17.8051 78.7138C19.5928 79.3236 21.4985 79.599 22.71 80.7677C24.0117 81.8693 24.9298 83.4068 26.0996 84.7887C27.2313 86.1984 28.3941 87.5949 29.3297 89.1292C30.279 90.6553 31.0514 92.2732 31.7873 93.896L32.4937 93.3256C31.2232 92.3371 29.9198 91.3831 28.6076 90.4504C27.3007 89.5079 25.9886 88.5735 24.6296 87.7031C23.2897 86.8081 21.8873 85.9902 20.5144 85.1362C19.834 84.7378 19.171 84.3199 18.6 83.8068C18.0203 83.3085 17.5048 82.7233 17.307 81.9824L17.1664 81.9955C17.1403 82.8151 17.5881 83.5953 18.0984 84.233C18.6295 84.8772 19.2509 85.4312 19.9 85.9459C21.1948 86.8999 22.46 87.8982 23.7826 88.8145C25.0912 89.7521 26.4485 90.6274 27.8144 91.4946C29.1682 92.3732 30.5359 93.237 31.9331 94.0566L33.6566 95.0713L32.6378 93.4862C31.6606 91.9601 30.6331 90.4684 29.6924 88.9309C28.7343 87.4015 27.9203 85.7935 26.99 84.2379C26.0615 82.7052 25.0166 81.1464 23.4146 79.9612C22.6457 79.3646 21.6165 78.9679 20.6689 78.8318C19.716 78.6728 18.7736 78.6368 17.8311 78.5827L17.8051 78.7138Z" fill="#373434"/>
<path d="M17.4663 80.779C18.8531 81.61 20.0021 82.4854 21.2083 83.3787C21.8054 83.7951 22.51 84.2508 23.0828 84.7704C23.666 85.2949 24.1433 85.9064 24.5997 86.5407C25.478 87.8308 26.5037 88.9962 27.585 90.1125C28.7132 91.1878 29.9177 92.1976 31.3322 93.0303L31.4329 92.9418C30.6796 91.5403 29.7146 90.3223 28.6715 89.1683C27.5868 88.0603 26.4447 86.9882 25.1569 86.0555C24.5251 85.5752 23.9194 85.0704 23.416 84.4803C22.8936 83.9 22.5638 83.1919 21.9928 82.5772C20.8404 81.4363 19.2158 80.6183 17.4993 80.6511L17.4663 80.779Z" fill="#373434"/>
<path d="M28.9458 46.642C31.242 44.7176 34.0624 43.4849 36.9939 42.8767C39.934 42.2932 42.9939 42.2063 45.941 42.7177C47.4024 42.9833 48.8326 43.3324 50.1048 44.0127C51.384 44.688 52.5625 45.565 53.6628 46.542C55.8567 48.5254 57.8752 50.7317 59.5241 53.161L59.6924 52.8233C54.7025 53.4774 49.5633 53.9003 44.6688 52.925C42.2303 52.4414 39.9201 51.6235 37.794 50.4039C35.6453 49.2286 33.6007 47.8009 31.3375 46.5977C30.2197 45.9928 28.9874 45.4585 27.7846 45.1142L24.1624 43.9701C21.8436 43.1816 19.5959 42.1539 17.5357 40.8458C13.4102 38.2395 9.9337 34.6775 7.50902 30.4779L7.38232 30.532C9.33664 34.966 12.6361 38.9394 16.8432 41.7834C18.9243 43.2341 21.2309 44.4061 23.6712 45.2568C26.0264 46.1256 28.5223 46.6354 30.6432 47.7992C32.8284 48.8958 34.9111 50.2777 37.1674 51.4546C39.4185 52.6578 41.9526 53.4626 44.5039 53.8167C49.6466 54.5068 54.7303 53.7773 59.7549 53.2659L60.1246 53.2299L59.925 52.9217C58.2779 50.4531 56.4624 48.0697 54.3415 45.9076C53.2775 44.8274 52.0973 43.7963 50.6828 43.0423C49.2786 42.2817 47.7114 41.7998 46.1458 41.5818C43.0269 41.1425 39.8056 41.2146 36.77 42.0309C33.7465 42.8243 30.8845 44.3291 28.8434 46.5485L28.9458 46.642Z" fill="#373434"/>
<path d="M20.5339 42.6286C21.5787 42.8581 22.6514 42.6105 23.6441 42.286C24.6404 41.945 25.5759 41.4549 26.4645 40.8812C28.2661 39.7371 29.5973 38.0405 30.6162 36.2882C31.6384 34.5212 32.3917 32.6771 33.0703 30.8035C33.7455 28.9282 34.2627 27.0055 34.6081 25.0598L34.8008 23.9926L33.9677 24.6631C32.3379 25.981 30.6717 27.2579 28.9395 28.4529C27.223 29.679 25.3294 30.6182 23.625 31.9919C21.8894 33.4049 20.8932 35.408 20.1972 37.3029C19.8553 38.229 19.3415 39.1666 19.1089 40.1977C19.0083 40.7058 18.9267 41.2681 19.1801 41.7729C19.4439 42.2778 20.0097 42.5188 20.5339 42.6286ZM20.5651 42.5024C20.0653 42.3794 19.5481 42.1417 19.3554 41.6959C19.187 41.2484 19.2773 40.7468 19.4647 40.2911C19.8396 39.3748 20.4627 38.5699 21.006 37.652C22.0682 35.88 22.9863 34.1491 24.4217 32.7672C25.109 32.046 25.9091 31.3887 26.7249 30.7264C27.5354 30.0626 28.3546 29.402 29.2051 28.7873C30.9025 27.5513 32.6677 26.3957 34.4623 25.2761L33.8201 24.886C33.2231 26.7448 32.5566 28.5742 31.8259 30.3773C31.0778 32.1656 30.2395 33.9425 29.3214 35.6325C28.3911 37.3176 27.289 38.8814 25.8953 40.2304C25.1784 40.9009 24.3748 41.4992 23.4914 41.9598C22.601 42.4089 21.5683 42.6909 20.5651 42.5024Z" fill="#373434"/>
<path d="M27.4148 45.7657C28.3468 46.8279 29.0237 48.0213 29.6208 49.2359C30.2248 50.4522 30.6951 51.7209 31.0527 52.9978C31.3946 54.2715 31.733 55.6205 31.976 56.9745C32.2364 58.3318 32.3457 59.7087 32.4776 61.0905L32.8612 60.8709C31.4189 59.8185 30.1293 58.6022 28.8276 57.4204C27.538 56.227 26.2658 55.014 25.3043 53.6748C24.2994 52.3356 23.7995 50.8915 23.5929 49.172C23.3309 47.4984 23.1903 45.6887 22.4075 44.0708L22.2773 44.1134C22.5724 45.8133 22.378 47.5098 22.4509 49.2605C22.4908 50.1342 22.5307 51.0406 22.8032 51.9619C23.0809 52.8634 23.5183 53.7191 24.0859 54.4649C25.2106 55.9681 26.6286 57.1368 28.0362 58.2547C29.4611 59.3743 31.0336 60.3119 32.5783 61.2528L33.0539 61.5364L32.9653 61.0299C32.7276 59.6775 32.6286 58.3006 32.6147 56.9171C32.5766 55.5287 32.5783 54.124 32.2537 52.7192C31.9083 51.316 31.2887 50.0063 30.5268 48.7818C29.7527 47.577 28.7686 46.4378 27.5103 45.6674L27.4148 45.7657Z" fill="#373434"/>
<path d="M33.1132 26.641C32.2332 26.9804 31.5963 27.6983 31.0582 28.3196C30.5063 28.9638 29.9856 29.6342 29.5656 30.3636C29.1612 31.0996 28.847 31.8963 28.4027 32.6142C27.9618 33.3273 27.4012 33.9666 26.8129 34.5927C25.5858 35.8107 24.652 37.2286 23.5221 38.3104C22.4287 39.4595 21.0801 40.4758 19.8235 41.7019L19.8964 41.8167C21.6042 41.2921 23.2357 40.5201 24.5878 39.2874C25.256 38.6596 25.7611 37.9187 26.2175 37.2007C26.6844 36.4811 27.0697 35.7484 27.4516 34.9894C27.8317 34.2403 28.2465 33.5092 28.7759 32.8486C29.3035 32.1881 29.9526 31.6094 30.5219 30.9718C31.0773 30.3309 31.5234 29.6194 31.9486 28.8933C32.386 28.154 32.6758 27.4262 33.1948 26.7492L33.1132 26.641Z" fill="#373434"/>
<path d="M9.69017 152.601C11.5664 151.821 13.2933 150.71 15.383 150.408C17.1187 150.157 18.8664 149.93 20.5743 149.557C21.8187 149.285 23.0077 148.792 24.2226 148.399C24.5767 148.282 24.9255 148.153 25.2848 148.056C28.8237 147.097 32.3853 146.209 35.8947 145.158C37.337 144.727 38.7602 144.174 40.0897 143.424C42.044 142.32 44.1858 141.575 46.2928 140.775C47.5373 140.303 48.7869 139.849 50.0418 139.404C50.7326 139.162 51.4546 138.993 52.135 138.731C54.2576 137.918 56.389 137.121 58.47 136.223C59.4454 135.801 60.308 135.154 61.2314 134.621C61.9638 134.197 62.7102 133.795 63.4426 133.369C63.6231 133.264 63.7654 133.105 63.9268 132.969C63.8817 132.907 63.8383 132.844 63.7949 132.782C63.2274 133.107 62.6824 133.474 62.0871 133.744C61.3807 134.064 60.6378 134.32 59.8967 134.565C58.4527 135.046 56.9982 135.503 55.5455 135.964C54.7679 136.211 53.9904 136.469 53.2024 136.683C51.5935 137.126 50.2778 138.121 48.7713 138.75C47.0964 139.45 45.5847 140.448 43.8092 140.98C42.8615 141.265 42.0527 141.942 41.1363 142.353C39.6124 143.038 38.0486 143.643 36.5108 144.299C33.7009 145.496 30.7607 146.248 27.7181 146.679C26.7531 146.815 25.8003 147.02 24.8439 147.204C22.7525 147.608 20.6507 147.979 18.5731 148.444C17.3061 148.73 16.0998 149.282 14.8242 149.505C12.9184 149.838 11.2297 150.643 9.47843 151.339C8.51689 151.721 7.48766 151.952 6.49661 152.27C6.22239 152.357 5.97246 152.513 5.70864 152.631C4.65858 153.098 3.61547 153.578 2.55153 154.016C2.40053 154.077 2.15407 153.928 1.93018 153.872C1.96662 153.254 2.45954 153.155 2.83791 152.967C3.6363 152.57 4.44337 152.19 5.24696 151.803C5.44829 151.705 5.63401 151.569 5.84575 151.503C7.16483 151.088 8.48912 150.692 9.80993 150.282C11.3616 149.802 12.9046 149.289 14.4649 148.835C15.6434 148.492 16.8479 148.223 18.0385 147.915C19.0469 147.653 20.0397 147.322 21.062 147.128C23.5578 146.658 26.0676 146.25 28.5721 145.815C29.1795 145.709 29.7766 145.615 30.3771 145.417C31.8941 144.917 33.4648 144.555 35.0147 144.14C35.1206 144.114 35.2942 144.163 35.341 144.107C35.9954 143.314 37.0471 143.291 37.9098 142.906C39.4944 142.197 41.0929 141.516 42.681 140.812C43.7206 140.352 44.7429 139.857 45.7843 139.404C47.0739 138.842 48.386 138.296 49.5298 137.508C50.9027 136.564 52.4838 136.152 54.0268 135.592C55.7885 134.952 57.5727 134.42 59.3743 133.902C60.5389 133.567 61.6115 132.954 62.7188 132.449C65.0203 131.398 67.2974 130.294 69.6249 129.295C71.0099 128.702 72.3568 128 73.8807 127.699C74.2903 127.619 74.627 127.235 75.0106 127.01C75.684 126.617 76.3574 126.227 77.0464 125.861C77.6817 125.524 78.1347 125.104 78.2926 124.379C78.4957 123.447 78.8498 122.545 79.0719 121.616C79.2281 120.963 79.2455 120.283 79.3705 119.624C79.4746 119.067 79.6204 118.514 79.787 117.972C80.3181 116.239 80.9638 114.531 81.3734 112.776C81.6112 111.753 81.6355 110.632 81.474 109.592C81.2796 108.338 81.5834 107.201 81.8715 105.998C81.4324 105.911 80.962 105.796 80.4847 105.729C78.7144 105.475 77.1263 104.819 75.7204 103.788C75.3126 103.488 74.9949 103.073 74.6686 102.685C73.7002 101.528 72.2822 100.854 71.2113 99.8064C71.029 99.6277 70.7652 99.5015 70.635 99.2966C69.9564 98.2262 68.8387 97.6214 67.8337 96.8968C67.0336 96.3198 66.2022 95.7805 65.3778 95.2331C63.7637 94.1643 62.8091 92.6612 62.2849 90.9138C61.8198 89.3615 61.011 88.1354 59.3812 87.4567C58.6609 87.1568 57.9875 86.7339 57.5883 86.0405C57.3748 85.6668 57.5015 85.3914 57.9407 85.3815C58.4561 85.3701 59.0428 85.2947 59.4802 85.4881C60.492 85.9339 61.5178 85.8241 62.5487 85.77C64.4128 85.6717 66.2318 85.9241 67.9743 86.5077C69.4114 86.9896 70.7895 87.6272 72.1832 88.2173C73.301 88.6894 73.9293 89.6713 74.7259 90.4745C75.0019 90.7532 75.2709 91.0384 75.5625 91.3006C75.7777 91.4957 76.0623 91.6285 76.2515 91.8399C78.3829 94.22 80.7485 96.4231 82.4824 99.1081C82.6925 99.4327 83.0257 99.6867 83.3277 99.9998C83.4058 99.8802 83.5151 99.7884 83.5047 99.7113C83.3537 98.5114 83.2669 97.2968 82.9997 96.1199C82.7168 94.8741 82.288 93.6545 81.8663 92.4432C81.5973 91.6711 81.323 90.8712 80.8648 90.1975C80.5264 89.7008 79.9484 89.2451 79.3687 89.0222C78.277 88.5993 77.6626 87.7518 77.0048 86.9535C76.4129 86.2355 75.7656 85.5389 75.467 84.6209C75.3577 84.2833 74.9585 84.0145 74.6582 83.7473C73.9501 83.1178 73.504 82.3638 73.3201 81.459C73.242 81.0787 73.0337 80.723 72.9521 80.3443C72.7716 79.505 72.7768 78.6789 72.8809 77.8085C73.1638 75.4792 73.301 73.1319 73.4433 70.7895C73.4971 69.9027 73.8685 69.247 74.6096 68.7274C75.2796 68.2586 75.9617 67.7783 75.9166 66.9095C76.3921 66.7685 76.6577 66.9128 76.6768 67.2505C76.7097 67.8225 77.0343 68.2291 77.3398 68.6864C78.0323 69.7273 78.3291 70.9288 78.4801 72.1221C78.6727 73.622 79.3895 74.7858 80.4795 75.8398C81.1026 76.443 81.6684 77.1348 82.0989 77.8708C82.4078 78.4002 82.4894 79.0657 82.6022 79.6804C82.7671 80.5918 82.8816 81.5098 82.9945 82.4277C83.1593 83.785 82.7063 85.0537 82.2204 86.2814C81.8368 87.2502 81.8403 88.2337 81.7465 89.2205C81.7327 89.3746 81.8646 89.5434 81.9409 89.6992C82.0069 89.8287 82.1648 89.9516 82.1561 90.0696C82.0416 91.6957 83.2426 92.9595 83.4995 94.4807C83.5672 94.8856 83.7009 95.2839 83.8536 95.8756C84.0757 95.5068 84.2597 95.3167 84.3101 95.1003C84.468 94.4118 84.5912 93.7135 84.7023 93.0152C85.0113 91.058 85.3063 89.0976 85.6118 87.1371C85.643 86.9322 85.6621 86.7126 85.7506 86.5273C86.4379 85.0996 86.674 83.5538 87.1114 82.0605C87.4689 80.8344 87.9601 79.6444 88.3818 78.4346C88.4981 78.1019 88.637 77.7773 88.335 77.4282C88.1927 77.261 88.1493 76.9659 88.1718 76.7365C88.3575 74.7743 87.5713 73.1302 86.3286 71.6353C85.7524 70.9419 85.1067 70.2977 84.5565 69.5896C83.9334 68.7864 83.444 67.893 83.2444 66.9144C83.0673 66.0489 82.9649 65.1556 82.9667 64.2753C82.9684 62.8115 82.1995 61.6412 81.4758 60.456C81.179 59.9708 80.7052 59.5856 80.3407 59.1348C80.1359 58.8824 79.9068 58.6054 79.8304 58.3071C79.492 56.976 79.4729 55.6204 79.9588 54.3304C80.1897 53.719 80.3684 53.1452 80.3233 52.4978C80.2261 51.0815 80.1428 49.662 80.0873 48.2441C80.0786 47.9916 80.1654 47.6294 80.3476 47.5114C80.4969 47.4163 80.8666 47.5818 81.1165 47.6802C82.2481 48.1228 82.8244 49.1276 83.6141 49.916C84.1799 50.4816 84.7648 51.0291 85.3254 51.5978C86.2748 52.5617 86.7087 53.7599 87.0489 55.0074C87.4741 56.5662 88.0573 58.0431 89.2913 59.2381C90.0984 60.02 90.8864 60.8412 91.5407 61.7379C92.4154 62.9378 92.6827 64.3655 92.8511 65.7883C93.0524 67.4849 92.8389 69.3339 92.3425 71.1026C92.2506 71.4288 92.2436 71.7746 92.3721 72.1631C92.9899 70.8845 93.58 69.5929 94.2361 68.334C94.9234 67.0128 95.3469 65.5965 95.9856 64.2589C96.2251 63.7574 96.6174 63.3394 96.8743 62.8853C97.1259 62.4378 97.3811 61.951 97.5824 61.474C97.966 60.5609 98.5856 59.8249 99.1462 59.0299C99.9793 57.8481 101.073 56.9285 102.269 56.1417C103.024 55.6434 103.933 55.1991 104.825 55.0811C106.936 54.8041 109.064 54.3779 111.212 54.9057C111.9 55.0762 112.148 54.8926 112.422 54.2812C112.825 53.3895 113.115 52.4142 113.698 51.6405C114.465 50.6209 115.19 49.5177 116.773 49.2882C117.938 49.1178 118.96 48.4834 119.951 47.7949C121.038 47.0376 122.319 46.5229 123.54 45.9492C124.361 45.5656 125.208 45.2247 126.073 44.9477C126.432 44.8313 126.868 44.9313 127.409 44.9313C127.312 45.3214 127.296 45.6033 127.175 45.8361C126.626 46.8868 126.094 47.9507 125.46 48.9571C125.163 49.4259 124.712 49.8701 124.223 50.1586C123.337 50.6815 122.393 51.1307 121.432 51.5192C119.84 52.1584 118.514 53.1108 117.377 54.3238C116.562 55.1959 115.449 55.5811 114.307 55.786C113.059 56.0089 112.406 56.6564 112.12 57.776C111.733 59.2873 111.457 60.8494 110.839 62.2755C110.117 63.9409 109.143 65.4752 107.37 66.4899C105.48 67.5701 103.839 69.0011 102.44 70.6403C101.649 71.5664 100.814 72.3565 99.4968 72.6401C97.7108 73.027 95.9579 73.5515 94.191 74.0236C92.9101 74.3662 91.742 74.8071 90.9384 75.9562C90.2268 76.9725 89.5621 77.997 89.333 79.1838C89.2549 79.5821 89.6731 80.0656 89.8641 80.5099C89.6784 80.5213 89.4944 80.5328 89.3087 80.5443C89.9213 79.946 90.4976 79.3067 91.1588 78.7608C91.8774 78.1691 92.6168 77.656 93.6339 77.4331C94.9252 77.1479 96.1505 76.6529 97.2492 75.812C98.8216 74.6088 100.212 73.2138 101.816 72.0549C102.718 71.4025 103.591 70.696 104.785 70.4928C105.688 70.3387 106.594 70.124 107.453 69.8207C108.527 69.4388 109.628 69.4503 110.667 69.6863C111.747 69.9289 112.807 70.3649 113.779 70.8813C114.578 71.3058 115.173 72.0664 115.963 72.5073C117.113 73.1483 118.342 73.6728 119.569 74.1777C120.42 74.5285 121.329 74.753 122.204 75.0514C122.772 75.2464 123.329 75.4349 123.544 76.089C123.634 76.366 123.957 76.5725 124.183 76.8184C123.863 77.1839 123.542 77.1626 123.067 77.1102C121.687 76.9561 120.283 77.0036 118.898 76.8856C117.308 76.7496 115.763 76.9266 114.236 77.3053C113.245 77.5528 112.405 78.0249 111.613 78.674C110.508 79.5772 109.26 80.323 108.093 81.1655C107.531 81.5704 106.983 82.0064 106.493 82.4884C105.709 83.2653 104.803 83.78 103.668 83.939C102.8 84.0603 102.086 83.9046 101.468 83.2391C101.01 82.7457 100.351 82.4998 99.6218 82.69C97.7456 83.1834 95.8138 82.9998 93.9081 83.0834C93.3509 83.108 92.7643 82.7801 92.2089 82.5703C91.7958 82.4146 91.4192 82.1736 91.0113 82.0048C90.5427 81.8114 90.0914 81.5229 89.5447 81.9523C89.4024 82.0638 88.9824 81.8622 88.7567 81.8179C88.1961 83.8177 87.7049 85.593 87.1947 87.3633C87.0385 87.9092 86.7764 88.4304 86.6497 88.9812C86.2869 90.5745 85.9832 92.1809 85.6257 93.7758C85.4469 94.5708 85.164 95.3462 84.9939 96.1428C84.8846 96.6542 84.711 97.2509 84.8846 97.7C85.3844 98.9868 85.7142 100.269 85.4521 101.65C87.1443 103.077 89.142 104.209 90.0359 106.404C90.8291 105.112 92.1568 104.472 93.4325 103.804C94.1702 103.419 95.0206 103.232 95.8155 102.944C96.8066 102.583 97.4904 101.859 98.1413 101.119C98.5925 100.603 98.9692 100.026 99.358 99.4638C99.9099 98.6655 100.361 97.7935 101.005 97.0722C101.519 96.4952 102.239 96.0723 102.902 95.6248C103.685 95.0954 104.501 94.6102 105.311 94.1184C105.528 93.9856 105.766 93.8611 106.012 93.7922C107.042 93.5086 107.83 92.9021 108.644 92.2661C109.055 91.9465 109.537 91.2843 110.305 91.7367C111.752 90.8695 113.373 91.5629 114.89 91.2875C115.987 91.0859 117.084 90.9777 118.075 90.3893C118.592 90.0827 119.248 89.986 119.936 89.7631C120.514 89.9614 120.326 90.4827 120.175 90.8777C120.017 91.3006 119.76 91.7416 119.415 92.0366C118.667 92.6726 118.188 93.448 117.728 94.2741C116.959 95.656 116.004 96.9493 115.298 98.3557C114.763 99.4212 114.25 100.474 113.477 101.405C113.003 101.975 112.469 102.441 111.754 102.75C110.813 103.159 109.956 103.791 108.98 104.068C107.456 104.501 106.191 105.367 104.797 106.009C103.638 106.545 102.427 106.642 101.286 106.332C100.066 106.001 98.898 106.06 97.7247 106.257C96.4161 106.478 95.1577 106.609 93.8248 106.321C93.2208 106.189 92.5248 106.335 91.86 106.207C91.6101 106.158 91.2352 106.417 90.9974 106.619C90.3084 107.206 89.661 107.838 88.9928 108.448C87.8837 109.455 86.7556 110.441 85.6725 111.471C85.3913 111.738 85.1414 112.112 85.0633 112.472C84.6207 114.51 83.772 116.41 83.0187 118.347C82.597 119.437 82.4356 120.627 82.2464 121.786C82.0937 122.714 81.8507 123.575 81.1738 124.291C81.1096 124.358 81.1182 124.486 81.0679 124.684C81.6511 124.516 82.1822 124.404 82.6803 124.211C84.3066 123.583 85.8964 122.896 87.6234 122.496C88.4964 122.293 89.2497 121.65 90.0828 121.257C91.1866 120.736 92.3235 120.275 93.4343 119.764C94.1094 119.452 94.7707 119.109 95.4198 118.751C96.8882 117.937 98.4554 117.405 100.139 117.147C100.517 117.09 100.852 116.795 101.232 116.723C103.346 116.32 105.473 115.974 107.585 115.557C108.427 115.39 109.268 115.4 110.114 115.348C110.66 115.313 111.195 115.112 111.742 115.051C113.233 114.889 114.769 114.907 116.207 114.564C117.072 114.357 118.226 114.485 118.762 113.489C120.182 112.833 121.274 111.797 122.419 110.799C122.907 110.374 122.983 109.833 123.317 109.383C124.162 108.245 124.967 107.078 125.733 105.889C126.567 104.596 127.305 103.247 128.159 101.967C128.53 101.406 129.129 100.983 129.551 100.446C129.99 99.8867 130.389 99.2901 130.714 98.6655C130.99 98.1328 131.084 97.5181 131.346 96.9772C131.674 96.3067 131.679 95.6707 131.58 94.9347C131.295 92.7907 131.148 90.6302 130.969 88.473C130.939 88.1255 130.967 87.7485 131.078 87.4207C131.507 86.1733 131.366 84.8931 131.398 83.621C131.412 83.0522 131.401 82.4785 131.483 81.9179C131.649 80.7738 132.59 80.2066 133.491 79.605C134.008 79.2608 134.525 78.892 134.945 78.451C135.853 77.5036 136.754 76.5397 137.554 75.512C138.391 74.435 139.076 73.2565 139.885 72.1598C140.263 71.6468 140.779 71.2288 141.227 70.76C141.383 70.596 141.527 70.419 141.666 70.2403C142.119 69.6584 142.532 69.0454 143.032 68.5044C143.214 68.3061 143.601 68.2782 143.972 68.1438C144.403 69.7273 145.17 71.0091 145.994 72.2844C146.571 73.1761 146.895 74.2154 147.293 75.2038C147.379 75.4185 147.296 75.6939 147.291 75.9414C147.272 76.8987 147.293 77.8593 147.216 78.8133C147.168 79.4477 147.095 80.1197 146.827 80.6902C146.359 81.6917 145.817 82.6851 145.147 83.5751C144.219 84.8062 143.434 86.0864 142.995 87.5387C142.403 89.5025 141.315 91.2597 140.284 93.0185C139.739 93.9479 138.741 94.638 137.96 95.4462C136.709 96.7428 134.924 97.2738 133.463 98.2606C132.496 98.913 131.62 99.69 130.735 100.444C128.504 102.346 127.286 104.912 125.757 107.275C125.219 108.107 124.672 108.937 124.273 109.896C124.521 109.668 124.799 109.463 125.016 109.21C126.205 107.837 127.772 106.943 129.357 106.047C130.514 105.393 131.589 104.606 132.677 103.849C133.312 103.408 133.961 102.962 134.494 102.423C135.02 101.888 135.423 101.242 135.855 100.631C136.641 99.5179 137.394 98.3803 138.191 97.2738C138.783 96.451 139.293 95.597 139.795 94.7216C140.439 93.5955 141.02 92.3153 142.52 91.8645C143.688 91.5121 144.83 91.0679 146.017 90.7827C146.86 90.5794 147.532 90.1237 148.124 89.6254C148.809 89.0468 149.603 88.8566 150.398 88.8615C151.975 88.8746 153.549 89.0468 155.125 89.1615C155.268 89.173 155.407 89.2435 155.547 89.2861C155.778 89.8614 155.532 90.2647 155.122 90.6269C153.503 92.0596 152.482 93.8971 151.317 95.6379C150.755 96.4772 150.24 97.3689 149.532 98.0869C149.08 98.5442 148.344 98.8688 147.681 98.9917C146.93 99.1294 146.572 99.4638 146.163 100.038C145.288 101.267 144.394 102.505 143.061 103.381C142.136 103.991 141.305 104.724 140.386 105.345C139.441 105.986 138.425 106.311 137.2 106.007C136.077 105.729 134.905 105.622 133.751 105.473C133.031 105.381 132.357 105.465 131.693 105.847C130.898 106.304 129.908 106.502 129.2 107.043C128.183 107.822 126.961 108.338 126.113 109.348C125.28 110.34 124.295 111.217 123.389 112.153C123.19 112.358 123.035 112.604 122.765 112.953C124.2 112.308 125.552 111.956 126.954 111.684C127.607 111.556 128.267 111.194 128.966 111.133C130.363 111.014 131.771 110.982 133.168 110.866C134.105 110.787 135.03 110.591 135.966 110.504C138.375 110.279 140.631 109.461 142.964 108.943C144.689 108.561 146.183 107.714 147.411 106.532C147.999 105.968 148.35 105.186 148.827 104.514C149.452 103.636 150.099 102.772 150.734 101.9C151.01 101.518 151.291 101.141 151.543 100.746C151.948 100.115 152.315 99.4851 153.024 99.0638C154.464 98.2066 154.976 96.8001 155.323 95.3199C155.452 94.7692 155.575 94.2151 155.764 93.684C156.134 92.6415 156.457 91.5711 156.972 90.5942C157.413 89.7614 158.053 89.0091 158.689 88.2845C159.211 87.6879 159.857 87.1863 160.45 86.6453C160.61 86.4995 160.754 86.3175 160.945 86.2241C161.877 85.77 162.788 85.2438 163.772 84.9291C164.824 84.5931 165.716 84.0849 166.621 83.4932C167.877 82.6687 169.264 82.0245 170.597 81.3032C170.661 81.2688 170.736 81.2 170.793 81.2098C172.286 81.4573 173.553 80.4738 175.002 80.5181C175.497 80.5328 175.958 79.9804 176.507 80.4869C176.324 81.1311 175.75 81.4901 175.233 81.8753C173.714 83.0063 172.572 84.3374 172.218 86.211C171.859 88.1108 171.046 89.8893 170.121 91.5859C169.323 93.0529 167.974 94.1561 166.65 95.2167C165.675 95.9969 164.599 96.6608 163.587 97.4001C162.969 97.8525 162.412 98.3803 161.789 98.8245C160.412 99.8031 158.94 100.529 157.135 100.513C155.702 100.5 154.282 100.646 152.932 101.187C152.395 101.4 151.98 101.637 151.644 102.139C151.137 102.893 150.712 103.67 150.281 104.458C149.811 105.314 149.115 106.073 148.435 106.804C147.56 107.743 146.602 108.614 145.496 109.691C146.286 109.584 146.879 109.558 147.444 109.419C149.342 108.95 151.239 108.724 153.227 108.825C155.879 108.961 158.557 108.984 161.188 108.532C162.29 108.343 163.342 107.884 164.42 107.558C165.56 107.211 166.699 106.868 167.842 106.535C169.529 106.044 171.227 105.588 172.997 105.45C174.927 105.299 176.805 105.545 178.662 106.062C180.276 106.511 181.93 106.827 183.548 107.263C184.485 107.516 185.426 107.815 186.29 108.233C186.868 108.512 187.328 109.022 187.821 109.448C188.319 109.882 188.781 110.355 189.281 110.787C189.635 111.094 189.897 111.413 189.795 111.9C189.774 112.004 189.751 112.131 189.796 112.217C190.222 112.999 189.937 113.671 189.354 114.212C188.68 114.834 188.64 115.574 188.727 116.375C188.113 116.829 187.415 116.952 186.698 116.916C185.079 116.834 183.465 116.71 181.849 116.602C181.321 116.567 180.794 116.482 180.268 116.502C178.779 116.561 177.354 116.385 175.937 115.88C175.229 115.628 174.384 115.629 173.605 115.654C171.433 115.723 169.538 115.049 167.839 113.838C165.937 112.482 163.817 111.502 161.733 110.437C160.393 109.751 159.119 109.697 157.724 109.771C157.019 109.807 156.307 109.722 155.599 109.74C153.909 109.781 152.217 109.853 150.524 109.914C150.411 109.917 150.299 109.923 150.188 109.937C148.997 110.074 147.794 110.153 146.619 110.368C145.553 110.564 144.49 110.779 143.434 111.061C142.212 111.389 140.912 111.499 139.638 111.587C138.328 111.677 137.005 111.586 135.692 111.646C132.625 111.789 129.525 111.689 126.557 112.649C126.529 112.659 126.512 112.702 126.418 112.82C126.871 112.999 127.286 113.236 127.732 113.328C129.272 113.643 130.591 114.353 131.887 115.161C132.916 115.803 134.069 116.229 135.299 116.452C135.81 116.544 136.348 116.644 136.794 116.877C138.427 117.728 140.137 117.751 141.928 117.531C143.259 117.367 144.618 117.405 145.96 117.298C148.612 117.088 151.257 116.815 153.907 116.618C155.204 116.521 156.509 116.511 157.809 116.511C158.324 116.511 158.854 116.593 159.35 116.726C160.563 117.051 161.797 117.349 162.958 117.801C163.953 118.188 164.963 118.657 165.777 119.301C166.909 120.2 168.148 120.908 169.391 121.629C169.635 121.772 169.948 121.808 170.225 121.901C171.65 122.376 173.192 122.514 174.533 123.252C174.78 123.388 175.184 123.362 175.486 123.294C176.175 123.14 176.859 122.722 177.525 122.758C178.973 122.835 180.563 122.173 181.896 123.521C181.745 123.676 181.561 123.999 181.276 124.148C179.369 125.143 177.371 125.912 175.203 126.245C174.804 126.307 174.407 126.455 174.046 126.63C172.673 127.294 171.324 127.982 170.159 128.972C169.286 129.715 168.085 129.817 167.001 129.899C165.829 129.989 164.593 129.872 163.45 129.602C162.183 129.302 160.884 129.305 159.628 129.015C158.47 128.748 157.219 128.684 156.163 128.218C154.431 127.456 152.788 126.496 151.498 125.097C150.856 124.401 150.193 123.753 149.181 123.468C147.754 123.066 146.737 122.026 145.843 121.001C144.883 119.901 143.563 119.559 142.339 118.962C141.305 118.457 140.211 118.634 139.151 118.469C137.415 118.196 135.673 117.964 134.119 117.074C133.482 116.71 132.771 116.524 131.986 116.461C130.809 116.365 129.631 116.208 128.515 115.715C127.236 115.149 125.809 115.133 124.419 115.031C124.051 115.005 123.672 114.898 123.32 114.953C122.523 115.074 121.742 115.274 120.954 115.441C120.953 115.52 120.953 115.595 120.951 115.674C121.416 115.798 121.878 115.933 122.345 116.046C123.497 116.325 124.683 116.52 125.8 116.893C126.626 117.17 127.446 117.583 128.129 118.098C129.928 119.454 131.804 120.713 133.406 122.309C134.215 123.114 135.164 123.934 136.443 124.171C136.728 124.225 137.07 124.335 137.243 124.532C137.911 125.291 138.85 125.537 139.769 125.842C140.015 125.925 140.321 125.953 140.498 126.109C142.001 127.428 143.743 128.517 144.939 130.14C145.066 130.312 145.218 130.513 145.232 130.71C145.335 132.164 146.466 133.21 146.919 134.534C147.147 135.206 147.739 135.787 148.235 136.355C149.113 137.367 149.181 138.506 149.033 139.734C148.882 140.991 148.908 142.27 148.707 143.519C148.587 144.274 148.299 145.055 147.879 145.709C147.181 146.795 146.329 147.795 145.519 148.817C145.383 148.989 145.133 149.08 144.937 149.208C144.793 148.989 144.535 148.772 144.522 148.544C144.457 147.271 143.946 146.213 142.955 145.351C142.429 144.891 141.929 144.405 141.407 143.94C139.821 142.533 139.564 140.742 139.75 138.829C139.833 137.98 139.989 137.137 140.086 136.288C140.189 135.405 139.776 134.624 139.449 133.841C139.173 133.179 138.804 132.552 138.496 131.903C137.998 130.856 137.878 129.736 137.8 128.609C137.762 128.076 137.684 127.545 137.648 127.012C137.59 126.188 137.153 125.747 136.362 125.322C134.73 124.447 133.182 123.407 131.925 122.057C131.434 121.529 130.986 121.003 130.214 120.806C129.902 120.726 129.624 120.49 129.351 120.298C128.385 119.623 127.364 119.095 126.142 118.934C125.632 118.867 125.156 118.588 124.648 118.48C123.089 118.147 121.522 117.849 119.956 117.542C119.811 117.515 119.625 117.569 119.514 117.501C118.104 116.651 116.747 117.162 115.322 117.518C113.776 117.905 112.165 118.054 110.589 118.342C109.893 118.469 109.211 118.672 108.529 118.862C108.007 119.006 107.495 119.183 107.007 119.337C107.998 119.868 108.935 120.406 109.907 120.886C111.065 121.462 112.248 121.986 113.423 122.534C113.656 122.642 113.885 122.762 114.126 122.855C114.881 123.148 115.596 123.483 116.483 123.442C117.872 123.378 119.269 123.466 120.663 123.491C120.814 123.494 120.984 123.457 121.112 123.511C122.98 124.299 125.132 124.498 126.696 125.92C127.309 126.478 127.713 127.223 128.497 127.623C129.324 128.043 130.125 128.504 130.952 128.922C131.988 129.445 133.211 129.558 134.173 130.253C134.865 130.754 135.525 131.313 136.146 131.867C136.513 132.195 136.46 132.998 136.49 133.592C136.516 134.134 136.657 134.593 136.966 135.054C137.493 135.836 137.495 136.754 137.422 137.622C137.313 138.911 137.698 140.076 138.175 141.34C137.97 141.47 137.743 141.612 137.512 141.758C136.48 140.694 135.412 139.804 134.025 139.342C133.39 139.131 132.757 138.863 132.099 138.778C131.03 138.64 130.086 138.204 129.174 137.75C128.355 137.342 127.486 136.826 126.96 136.137C125.923 134.777 124.45 134.431 122.891 134.139C122.562 134.077 122.214 134.09 121.885 134.021C119.576 133.536 117.952 132.302 117.301 130.107C117.008 129.123 116.858 128.1 116.648 127.096C116.329 125.556 115.647 124.302 113.949 123.717C113.142 123.44 112.406 122.981 111.618 122.65C110.49 122.176 109.343 121.778 108.123 121.522C106.589 121.199 105.103 120.683 103.581 120.303C103.088 120.182 102.532 120.124 102.036 120.208C100.148 120.526 98.2558 120.855 96.3935 121.29C94.3055 121.778 92.3391 122.542 90.5861 123.793C89.1889 124.789 87.7379 125.761 86.1845 126.507C84.9331 127.107 83.4891 127.348 82.1353 127.761C81.6007 127.923 81.0835 128.138 80.5507 128.305C79.3392 128.687 78.1173 129 76.8573 129.243C75.0939 129.584 73.3999 130.243 71.6521 130.676C70.4042 130.985 69.2986 131.584 68.1913 132.134C67.0388 132.71 66.0564 133.587 64.9873 134.315C63.2135 135.523 61.3772 136.646 59.3118 137.359C57.9771 137.821 56.5799 138.122 55.2522 138.596C54.3097 138.934 53.428 139.429 52.5359 139.881C51.4737 140.419 50.4288 140.988 49.3805 141.547C49.1584 141.665 48.9431 141.798 48.5926 142.001C49.6426 142.301 50.5677 142.519 51.4529 142.838C51.9215 143.007 52.3207 143.353 52.7477 143.625C52.8657 143.699 52.9525 143.822 53.0774 143.881C55.1827 144.881 57.2395 146.004 59.4246 146.818C60.6743 147.286 62.0229 147.574 63.1441 148.287C64.6957 149.275 66.2439 150.3 67.6307 151.48C68.8508 152.516 70.0085 152.947 71.6018 152.347C73.2697 151.72 75.0175 151.283 76.6976 150.687C77.4144 150.431 78.0809 150.018 78.7179 149.603C79.5857 149.041 80.3615 148.346 81.2519 147.825C82.3575 147.181 82.9354 146.117 83.7738 145.263C84.0723 144.958 84.3777 144.564 84.7613 144.445C85.7142 144.145 86.6236 143.758 87.6598 143.617C88.5971 143.491 89.3989 142.832 90.0897 142.12C91.2456 140.932 91.7715 139.44 92.4675 138.027C92.5786 137.803 92.648 137.559 92.7782 137.347C93.2607 136.564 93.7866 135.852 94.9009 135.808C95.4597 135.785 96.0134 135.551 96.5688 135.546C98.7279 135.531 100.326 134.638 101.606 133.018C102.154 132.321 102.93 131.753 103.694 131.248C104.554 130.681 105.99 131.374 106.198 132.471C106.389 133.47 106.646 134.488 106.193 135.516C105.981 135.998 105.945 136.549 105.825 137.067C105.346 139.163 104.61 141.18 103.532 143.063C102.762 144.414 101.602 145.502 100.493 146.61C100.342 146.761 100.13 146.886 99.922 146.951C98.1916 147.499 96.6643 148.389 95.1421 149.315C93.2156 150.488 91.0721 151.088 88.7793 151.229C87.061 151.336 85.5094 150.767 83.9699 150.189C83.0483 149.841 82.1613 149.48 81.1339 149.577C80.8891 149.6 80.6288 149.467 80.2955 149.387C78.6207 150.995 76.3383 151.644 74.1236 152.415C73.7748 152.536 73.4173 152.639 72.8792 152.81C73.2333 152.975 73.4294 153.101 73.6464 153.162C75.4601 153.664 77.187 154.336 78.7856 155.311C79.6916 155.865 80.6757 156.303 81.6302 156.783C81.7222 156.829 81.8524 156.822 81.9635 156.814C82.9858 156.74 84.0324 156.917 85.0217 156.494C86.1186 156.026 87.2172 155.549 88.3471 155.157C89.5447 154.742 90.7735 154.401 91.9989 154.065C94.0747 153.498 96.147 152.923 98.242 152.424C98.9536 152.256 99.7224 152.28 100.467 152.26C102.387 152.203 104.183 152.669 105.953 153.354C107.239 153.854 108.612 154.152 109.935 154.572C112.094 155.257 113.963 156.375 115.461 158.007C115.805 158.384 116.131 158.781 116.015 159.348C115.904 159.896 115.043 160.688 114.295 160.714C113.316 160.748 112.696 161.169 112.254 161.95C111.992 162.41 111.57 162.623 110.995 162.745C109.508 163.056 108.053 162.904 106.63 162.54C105.677 162.296 104.74 162.256 103.768 162.204C102.161 162.117 100.599 162.474 99.0091 162.474C98.9188 162.474 98.8286 162.573 98.6116 162.697C99.5506 163.374 100.349 164.105 101.413 164.481C102.223 164.769 103.062 164.994 103.865 165.295C104.804 165.646 105.717 166.059 106.648 166.43C107.094 166.607 107.543 166.79 108.01 166.893C108.965 167.105 109.869 167.393 110.78 167.756C111.858 168.184 113.076 168.29 114.236 168.534C114.526 168.597 114.848 168.595 115.1 168.723C115.839 169.098 116.548 168.688 117.27 168.7C117.389 168.703 117.537 168.57 117.627 168.465C118.962 166.946 120.644 165.817 122.385 164.776C123.91 163.861 125.573 163.328 127.423 163.209C128.766 163.123 130.105 162.943 131.434 163.166C132.036 163.268 132.607 163.587 133.165 163.859C133.958 164.248 134.664 164.885 135.648 164.725C136.226 164.631 136.783 164.428 137.349 164.272C137.997 164.092 138.666 163.71 139.288 163.772C140.492 163.89 141.768 163.795 142.872 164.469C143.643 164.938 144.495 165.199 145.434 165.222C145.751 165.23 146.059 165.444 146.378 165.533C147.355 165.807 148.348 165.762 149.353 165.697C149.835 165.664 150.332 165.81 150.892 165.884C150.651 166.736 150.109 167.208 149.542 167.574C148.273 168.388 146.933 169.105 145.632 169.877C144.236 170.708 142.863 171.572 141.457 172.388C141.089 172.603 140.649 172.718 140.227 172.837C139.845 172.945 139.446 173.013 139.05 173.07C138.653 173.129 138.236 173.236 137.852 173.175C137.056 173.052 135.6 173.332 135.029 173.868C133.326 175.462 131.353 175.425 129.273 174.744C128.997 174.653 128.786 174.401 128.511 174.304C127.786 174.047 127.059 173.729 126.304 173.621C124.158 173.314 122.164 172.718 120.255 171.695C118.372 170.685 116.419 169.765 114.194 169.485C112.457 169.265 110.74 168.869 109.027 168.495C108.607 168.403 108.237 168.102 107.852 167.884C106.91 167.352 105.912 166.936 104.818 166.836C104.167 166.777 103.563 166.725 103.058 166.282C102.944 166.182 102.734 166.179 102.383 166.079C103.73 167.567 105.151 168.662 106.625 169.742C107.739 170.559 108.939 171.096 110.223 171.513C110.811 171.705 111.473 171.719 112.106 171.767C113.326 171.857 114.369 172.467 115.513 172.78C116.594 173.075 117.601 173.613 118.686 173.891C120.588 174.381 121.958 175.542 123.324 176.784C123.933 177.338 124.752 177.692 125.491 178.112C126.444 178.653 127.453 179.11 128.366 179.704C129.889 180.694 131.406 181.715 132.474 183.284C132.173 183.576 131.896 183.848 131.615 184.121C130.57 183.9 129.554 183.644 128.523 183.476C127.503 183.308 126.493 183.112 125.491 182.862C125.293 182.812 125.052 182.879 124.839 182.925C124.052 183.094 123.277 183.313 122.485 183.443C121.296 183.639 120.156 183.341 119.054 182.969C117.931 182.589 116.806 182.187 115.742 181.682C114.137 180.917 112.793 179.858 112.103 178.214C111.582 176.978 110.962 175.783 110.457 174.539C110.115 173.701 109.44 172.983 108.892 172.226C108.772 172.06 108.569 171.931 108.375 171.836C106.528 170.931 104.921 169.713 103.395 168.4C102.73 167.828 102.116 167.193 101.545 166.536C100.818 165.7 100.033 164.949 98.9692 164.508C98.6325 164.369 98.2923 164.225 97.9382 164.143C96.6868 163.848 95.5205 163.423 94.4357 162.722C93.5158 162.127 92.4692 161.705 91.4782 161.207C91.4209 161.263 91.3654 161.319 91.3098 161.374C91.4851 161.596 91.6118 161.915 91.8462 162.019C92.5682 162.34 92.8945 162.971 93.1583 163.566C93.981 165.425 95.2584 166.975 96.5028 168.587C97.9885 170.508 99.9689 171.778 101.975 173.08C103.018 173.755 104.167 174.321 104.785 175.488C105.004 175.901 105.497 176.202 105.905 176.511C107.019 177.345 108.145 178.165 109.286 178.969C109.487 179.112 109.801 179.105 110.006 179.243C110.494 179.571 110.955 179.933 111.41 180.302C111.608 180.461 111.723 180.748 111.94 180.846C112.948 181.299 113.493 182.167 114.158 182.936C114.512 183.346 114.753 183.789 114.996 184.275C116.011 186.303 116.902 188.423 118.587 190.081C119.217 190.703 119.943 191.237 120.567 191.86C120.776 192.068 120.81 192.434 120.913 192.698C119.946 193.181 119.2 192.929 118.398 192.622C117.009 192.091 115.642 191.532 114.283 190.932C112.71 190.236 112.011 188.983 111.132 187.798C109.987 186.256 108.68 184.951 106.92 183.939C105.025 182.849 103.156 181.587 102.071 179.617C100.608 178.632 100.455 177.037 99.9897 175.594C99.7728 174.924 99.6686 174.219 99.4847 173.537C99.2608 172.708 98.6151 172.142 98.0302 171.537C96.8118 170.275 95.6003 169.01 94.4166 167.718C94.1528 167.431 93.9671 167.054 93.8387 166.689C93.462 165.605 92.4068 164.859 92.195 163.699C92.1829 163.63 92.1516 163.554 92.1048 163.504C90.9384 162.278 89.9908 160.863 88.184 160.276C86.6393 159.771 85.197 158.993 83.6679 158.442C82.5501 158.039 81.382 157.683 80.2053 157.527C78.3447 157.28 76.4841 157.068 74.7086 156.468C72.8393 155.834 70.9856 155.152 69.1355 154.464C67.9118 154.009 66.6865 153.546 65.4993 153.01C64.8294 152.706 64.2531 152.224 63.6092 151.86C62.6477 151.318 61.6861 150.766 60.6847 150.297C59.3847 149.689 58.0465 149.154 56.7205 148.597C54.9606 147.856 53.3378 146.9 51.7497 145.877C49.9949 144.748 48.0684 143.93 46.0273 143.402C45.5031 143.266 44.8193 143.386 44.2934 143.587C41.6171 144.614 39.0032 145.789 36.3043 146.749C33.8432 147.626 31.3005 148.295 28.7942 149.059C27.9698 149.312 27.1593 149.612 26.3244 149.834C24.8422 150.226 23.353 150.607 21.8535 150.938C18.8404 151.601 15.9506 152.61 13.1094 153.734C12.2954 154.057 11.5889 154.613 10.8183 155.037C8.85707 156.117 6.77432 156.916 4.55445 157.389C4.12575 157.481 3.74044 157.516 3.4072 157.098C3.70052 156.634 4.24898 156.519 4.71412 156.431C6.70663 156.05 8.50647 155.204 10.2109 154.25C12.1704 153.157 14.2167 152.282 16.3168 151.492C17.143 151.182 17.9813 150.902 18.797 150.561C16.7715 150.449 14.871 150.926 13.0122 151.585C12.311 151.834 11.6428 152.16 10.9485 152.428C10.5458 152.582 10.1518 152.906 9.67976 152.58L9.69017 152.601ZM63.8626 133.888C64.5881 133.934 64.7842 133.28 65.1348 132.848C64.7113 133.205 64.2878 133.561 63.8661 133.918C63.3367 133.867 63.0399 134.187 62.8421 134.636C63.1822 134.387 63.5224 134.138 63.8626 133.888ZM119.304 114.944C118.799 114.649 118.261 114.734 117.619 115.23C118.271 115.521 118.747 115.023 119.297 114.934C119.623 114.772 119.951 114.61 120.397 114.389C119.729 114.253 119.437 114.469 119.304 114.944ZM82.3644 114.966C82.1943 115.189 81.8281 115.331 82.0503 115.905C82.2325 115.493 82.5658 115.33 82.3332 114.966C83.1611 114.202 83.2253 113.982 82.7966 113.01C82.6369 113.735 82.5015 114.351 82.3644 114.966ZM78.5495 127.91C79.5596 128.187 80.2157 127.541 80.9464 127.094C81.1495 127.096 81.3716 127.151 81.5504 127.091C82.1457 126.892 82.7081 126.53 83.3155 126.446C84.8151 126.242 86.0682 125.54 87.3387 124.858C87.7501 124.635 88.125 124.352 88.5172 124.094C88.479 124.024 88.4408 123.952 88.4027 123.881C87.7049 124.13 87.0072 124.379 86.3078 124.629C86.8528 124.153 87.5001 123.873 88.1024 123.525C88.7637 123.144 89.3833 122.698 90.0203 122.281C90.784 122.312 91.2543 121.76 91.8531 121.467C91.204 121.67 90.4559 121.686 90.0255 122.311C89.8224 122.33 89.5985 122.301 89.4232 122.373C87.7761 123.042 86.1273 123.707 84.4992 124.416C82.9459 125.091 81.1529 125.286 79.8738 126.517C79.4746 126.296 79.4034 126.02 79.5753 125.686C79.9866 124.891 80.4257 124.106 80.8232 123.304C81.08 122.786 81.2796 122.244 81.5053 121.713C81.4185 121.678 81.3335 121.645 81.2467 121.611C80.3077 123.498 79.3687 125.386 78.3516 127.43C79.2871 127.132 80.0769 126.943 80.8093 126.632C81.8368 126.196 82.8174 125.661 83.8223 125.183C84.4159 124.899 85.0546 124.778 85.9259 124.612C85.6205 124.909 85.5198 125.083 85.3671 125.143C84.4749 125.501 83.5551 125.801 82.6751 126.183C82.0746 126.443 81.5209 126.805 80.9464 127.125C80.056 127.15 79.301 127.537 78.5512 127.938C77.942 127.925 77.3085 127.812 76.8121 128.31C77.4578 128.461 78.0375 128.33 78.5495 127.91ZM46.8292 142.378C46.9767 142.676 47.2839 142.483 47.4384 142.548C47.7022 142.66 47.848 143.012 48.0562 143.253C48.0927 143.292 48.209 143.263 48.2732 143.292C49.5055 143.863 50.8298 144.309 51.9441 145.04C53.704 146.199 55.4865 147.274 57.5189 147.997C57.229 147.264 56.7986 146.763 56.1321 146.399C54.964 145.763 53.7248 145.218 52.6366 144.478C51.3505 143.602 49.8943 143.165 48.4589 142.637C48.1656 142.529 47.8914 142.366 47.6345 142.242C47.9625 141.088 49.0994 140.842 49.8596 140.132C48.7418 140.08 46.7129 140.889 45.9665 141.607C46.2529 141.87 46.5393 142.132 46.8257 142.401C46.3692 142.188 45.9145 141.975 45.4146 141.742C43.8335 142.319 42.1863 142.953 40.7336 143.953C41.8392 143.62 42.8875 143.17 43.9654 142.794C44.6752 142.548 45.3955 142.107 46.2061 142.632C46.305 142.696 46.6157 142.47 46.8292 142.378ZM108.933 117.116V117.149C108.987 117.098 109.039 117.006 109.093 117.006C110.676 116.969 112.189 116.572 113.713 116.226C114.213 116.113 114.631 115.941 114.989 115.379C114.461 115.466 114.104 115.538 113.743 115.585C110.655 115.985 107.567 116.377 104.482 116.787C103.93 116.861 103.383 116.988 102.843 117.123C101.571 117.441 100.293 117.749 99.0351 118.118C98.2055 118.36 97.3863 118.66 96.6035 119.011C95.7912 119.373 95.0345 119.837 94.2431 120.241C93.6252 120.555 92.9934 120.845 92.3668 121.147C92.4068 121.226 92.4467 121.304 92.4866 121.383C93.6026 120.899 94.6926 120.344 95.845 119.952C97.0739 119.534 98.3825 119.326 99.62 118.924C101.718 118.242 102.329 118.1 103.289 118.333C102.04 118.9 100.583 118.698 99.4465 119.555C100.944 119.829 108.532 118.237 109.956 117.403C109.631 117.311 109.282 117.213 108.933 117.116ZM138.085 86.8863C137.981 85.5569 138.651 84.3636 138.84 83.0801C139.001 81.9835 139.722 81.0688 140.461 80.2132C141.204 79.3542 141.761 78.433 142.112 77.3462C142.381 76.507 142.601 75.6693 142.816 74.8186C143.19 73.34 143.113 71.873 143.078 70.3912C143.075 70.2125 142.986 70.0354 142.921 69.7912C142.327 70.4715 141.803 71.0649 141.284 71.6632C140.973 72.0205 140.636 72.3598 140.369 72.745C139.626 73.8121 138.944 74.9169 138.179 75.9709C137.811 76.4791 137.205 76.8479 136.889 77.3757C136.028 78.8149 134.82 79.8984 133.347 80.7393C132.736 81.0869 132.495 81.6245 132.382 82.2359C132.319 82.5818 132.305 82.9375 132.292 83.2916C132.25 84.3505 132.366 85.4356 132.156 86.4634C131.759 88.3976 132.012 90.3024 132.212 92.2104C132.385 93.8561 132.76 95.4855 132.335 97.2378C134.036 95.7494 135.221 94.0561 136.197 92.2415C136.922 90.8908 137.58 89.4959 137.84 87.9731C137.906 87.5928 138.003 87.2174 138.087 86.8355C138.509 86.9338 138.45 87.2551 138.411 87.5272C138.089 89.8729 136.945 91.9367 135.775 93.9611C135.261 94.8446 134.39 95.5445 133.682 96.328C133.43 96.6083 133.069 96.8411 133.168 97.4001C133.708 97.087 134.145 96.7772 134.628 96.5624C136.579 95.697 138.116 94.3807 139.333 92.7284C139.753 92.1579 140.001 91.4728 140.425 90.9056C141.527 89.4369 141.917 87.6862 142.603 86.0585C142.853 85.4668 143.066 84.8947 143.457 84.3636C144.177 83.3817 144.873 82.3769 145.489 81.3344C145.829 80.759 146.182 80.0886 146.19 79.4575C146.213 77.6609 146.709 75.8365 145.961 74.0597C145.555 73.0991 145.179 72.1352 144.413 71.3599C144.198 71.1419 144.035 70.8796 143.748 70.5108C143.71 71.1173 143.62 71.6107 143.658 72.0943C143.766 73.4564 143.403 74.7727 143.11 76.0627C142.69 77.9035 141.799 79.5837 140.451 81.0475C139.717 81.8425 139.389 82.8949 139.201 83.962C139.017 84.9947 138.861 86.0503 138.085 86.8863ZM174.643 109.702C173.264 109.753 171.888 109.828 170.51 109.846C169.09 109.864 167.669 109.866 166.251 109.799C164.855 109.732 163.467 109.566 162.075 109.445C162.321 109.74 162.608 109.889 162.906 110.012C164.777 110.782 166.6 111.672 168.157 112.904C169.967 114.331 171.978 114.874 174.278 114.833C175.042 114.821 175.863 114.961 176.562 115.243C177.383 115.574 178.223 115.566 179.055 115.652C180.646 115.818 182.252 115.907 183.852 115.982C185.114 116.041 186.389 116.343 187.682 115.892C187.727 115.47 187.771 115.061 187.809 114.7C187 114.008 185.792 114.012 185.075 112.923C185.509 113.09 185.742 113.181 185.975 113.271C186.523 113.485 187.058 113.744 187.623 113.905C188.493 114.154 189.008 113.862 188.977 113.054C188.955 112.435 188.878 111.607 188.462 111.253C187.594 110.512 186.957 109.538 185.877 108.997C184.438 108.278 182.913 107.858 181.321 107.615C180.768 107.53 180.207 107.468 179.667 107.33C178.621 107.061 177.598 106.698 176.543 106.462C175.12 106.144 173.603 106.014 172.221 106.291C169.739 106.786 167.327 107.601 164.89 108.302C164.302 108.471 163.738 108.714 163.161 108.924C163.387 109.125 163.562 109.143 163.736 109.158C164.821 109.253 165.905 109.363 166.992 109.433C167.733 109.481 168.49 109.558 169.219 109.469C171.022 109.253 172.813 108.933 174.643 109.702ZM154.103 99.4851C154.353 99.5884 154.563 99.7408 154.784 99.7556C157.128 99.9179 159.331 99.6162 161.174 98.0508C161.785 97.5345 162.458 97.0722 163.151 96.6559C164.454 95.8691 165.741 95.079 166.686 93.8807C166.929 93.5742 167.287 93.3431 167.612 93.1038C168.373 92.5432 169.035 91.8694 169.46 91.0777C170.411 89.3156 171.086 87.4551 171.393 85.4782C171.496 84.8242 171.72 84.1653 172.293 83.6751C172.478 83.5145 172.551 83.2358 172.746 82.8834C172.188 83.1522 171.8 83.3391 171.399 83.5325C171.123 83.0227 171.496 82.9178 171.793 82.7883C172.699 82.3917 172.7 82.3949 173.07 81.7589C170.913 82.0818 169.012 82.8031 167.33 84.1079C166.44 84.798 165.451 85.3569 164.25 85.6192C163.288 85.8307 162.288 86.27 161.539 86.8699C160.093 88.0206 158.543 89.0746 157.869 90.9548C157.151 92.9579 156.182 94.8774 156.018 97.1312C156.509 96.6542 156.932 96.2248 157.375 95.8133C157.587 95.6183 157.831 95.4544 158.064 95.2806C159.086 94.5217 160.15 93.807 161.12 92.9939C161.934 92.3087 162.587 91.4875 163.139 90.5712C163.739 89.5746 164.552 88.6927 165.227 87.7338C165.605 87.1978 165.81 86.5355 166.247 86.0552C166.73 85.5258 167.391 85.1422 167.974 84.6947C168.091 84.6046 168.2 84.5046 168.323 84.4226C169.146 83.8718 170.064 83.5686 171.091 83.5309C170.751 83.803 170.368 83.9915 169.972 84.1538C168.603 84.7111 167.356 85.4635 166.492 86.6126C165.392 88.0731 164.428 89.6287 163.368 91.1171C162.833 91.8645 162.301 92.6415 161.615 93.2546C160.181 94.538 158.694 95.7805 157.125 96.9149C156.564 97.323 156.045 97.7459 155.565 98.2229C155.309 98.477 155.113 98.7852 154.851 99.0311C154.672 99.1983 154.421 99.2966 154.103 99.4851ZM122.161 76.0808C121.873 75.9578 121.69 75.8283 121.496 75.8103C119.42 75.6169 117.349 75.3284 115.255 75.3841C114.96 75.3923 114.649 75.3317 114.369 75.2399C112.748 74.7104 111.136 74.1613 109.52 73.622C109.451 73.599 109.371 73.604 109.296 73.5974C107.64 73.4597 106.026 73.6941 104.646 74.5514C103.374 75.3415 102.187 76.284 101.078 77.2741C99.3007 78.8658 97.2457 79.8804 94.8471 80.2574C93.8039 80.423 92.8372 80.741 91.7733 81.2082C92.6584 81.8884 93.5505 82.3933 94.578 82.3507C96.2234 82.2851 97.8601 82.054 99.502 81.8933C100.498 81.7966 101.427 81.8671 102.085 82.7342C102.223 82.9162 102.486 83.1129 102.703 83.1276C103.534 83.1834 104.362 83.0572 105.016 82.5441C105.992 81.7819 106.752 80.7656 108.003 80.3279C108.132 80.2837 108.22 80.1361 108.335 80.0427C109.971 78.6805 111.646 77.3249 113.755 76.6889C115.584 76.1381 117.494 75.9382 119.439 76.125C120.288 76.207 121.163 76.5758 122.161 76.0808ZM85.282 157.247C86.1012 157.648 86.1012 157.655 86.6393 157.542C87.3752 157.385 88.1128 157.232 88.8418 157.052C90.6833 156.598 92.4502 156.876 94.2014 157.473C94.9998 157.745 95.8416 157.903 96.6348 158.183C97.4609 158.473 98.2402 158.242 99.0542 158.181C100.792 158.05 102.508 158.032 104.277 158.343C105.841 158.62 107.437 158.766 108.959 159.243C109.836 159.515 110.712 159.822 111.526 160.224C111.854 160.384 112.08 160.376 112.353 160.278C113.196 159.973 113.948 159.424 114.911 159.43C114.979 159.43 115.048 159.281 115.175 159.132C114.39 158.029 113.417 157.139 112.156 156.509C109.511 155.186 106.609 154.516 103.812 153.593C101.961 152.983 99.9897 152.854 98.0389 153.216C96.5011 153.501 95.071 154.218 93.4655 154.249C93.429 154.249 93.3943 154.268 93.3562 154.28C91.2491 154.873 89.2167 155.665 87.1582 156.391C86.5733 156.598 86.0283 156.903 85.282 157.247ZM105.45 132.967C104.521 133.633 103.82 134.318 103.334 135.167C102.63 136.398 102.265 137.749 101.279 138.906C100.316 140.037 99.2816 140.903 97.9018 141.457C97.5286 141.606 97.1207 141.72 96.8048 141.945C95.5222 142.856 94.2622 143.797 93.0073 144.745C92.3963 145.205 91.8323 145.723 91.2179 146.182C90.1504 146.977 88.88 147.39 87.6095 147.787C86.6479 148.087 85.6743 148.358 84.7006 148.628C84.2632 148.749 83.8154 148.839 83.1437 148.997C84.5287 149.926 85.9103 150.393 87.2415 150.551C89.3764 150.803 91.4261 150.211 93.3214 149.166C94.8314 148.331 96.4109 147.605 97.959 146.831C98.6845 146.468 99.5367 146.232 100.113 145.718C102.326 143.753 103.806 141.363 104.44 138.526C104.672 137.483 105.016 136.462 105.256 135.421C105.427 134.672 105.663 133.915 105.45 132.967ZM93.882 71.3829C93.9411 71.4238 93.9983 71.4648 94.0556 71.5042C94.7256 70.8534 95.3834 70.1895 96.0655 69.5519C96.6452 69.0093 97.2058 68.4307 97.8601 67.9815C98.7609 67.3636 99.7502 66.8439 100.693 66.2997C101.587 65.7867 102.432 65.2392 103.216 64.6064C103.949 64.0147 104.542 63.3426 104.992 62.4657C105.792 60.9002 106.533 59.1988 108.42 58.4185C108.928 58.2087 109.449 58.0186 109.935 57.7694C110.747 57.353 111.443 56.817 111.813 55.7778C110.858 55.6893 110.013 55.5499 109.166 55.5483C108.27 55.5483 107.375 55.6712 106.479 55.7516C104.955 55.8876 103.56 56.3072 102.314 57.2104C101.493 57.8071 100.863 58.5234 100.201 59.2594C98.4172 61.2445 97.4366 63.6393 96.2304 65.9129C95.3625 67.5455 94.9234 69.3683 93.9845 70.9845C93.9168 71.1009 93.915 71.2501 93.882 71.3829ZM62.7188 88.6992C62.6633 88.7402 62.6095 88.7829 62.5557 88.8238C62.7449 89.3123 62.9861 89.791 63.1163 90.2925C63.5919 92.1366 64.7443 93.5283 66.2925 94.6741C68.0611 95.9838 69.9703 97.0968 71.5567 98.659C73.2437 100.319 75.2813 101.649 76.8954 103.408C77.2252 103.767 77.7372 104.062 78.2215 104.191C80.5316 104.804 82.8521 105.411 85.2733 105.501C85.9554 105.527 86.6375 105.565 87.4793 105.604C87.0923 105.116 86.8857 104.704 86.5473 104.452C85.4556 103.634 84.3344 102.849 83.1888 102.103C82.7324 101.805 82.1961 101.593 81.6667 101.426C80.5993 101.088 79.5232 100.769 78.4315 100.513C77.4699 100.285 76.6959 99.8179 76.0936 99.1032C75.5625 98.4721 75.0817 97.8017 74.5853 97.1444C74.3493 96.8296 74.1427 96.4952 73.9032 96.1838C73.754 95.9904 73.5821 95.8068 73.3964 95.6412C73.0684 95.3494 72.7299 95.0642 72.3793 94.7954C71.8951 94.4249 71.4126 94.0496 70.8989 93.7185C70.222 93.2841 69.467 92.9464 68.8387 92.4595C68.3787 92.1022 67.9101 91.8989 67.346 91.8989C66.7247 91.9006 66.289 91.6105 65.8499 91.2416C64.8224 90.3778 63.7637 89.5451 62.7188 88.6992ZM59.7995 86.5093C59.7891 86.8814 60.105 86.9158 60.4052 86.9601C60.7541 87.0125 61.1099 87.0306 61.4501 87.1142C62.1791 87.2928 62.5661 87.8698 63.0833 88.3288C64.2531 89.3713 65.5531 90.2843 66.8132 91.2351C66.9798 91.3597 67.2211 91.4531 67.4311 91.4564C68.5089 91.4777 69.2899 92.0252 70.0744 92.6431C70.55 93.0185 71.1349 93.2775 71.6868 93.5578C72.7716 94.1053 73.4034 95.1019 74.2851 95.8527C74.3094 95.874 74.3111 95.9199 74.3337 95.9494C74.6131 96.3231 74.896 96.6952 75.1789 97.069C75.4184 97.3853 75.6927 97.682 75.887 98.0213C76.2064 98.5836 76.6906 98.9753 77.22 99.3458C78.3378 100.129 79.6291 100.546 80.9603 100.769C82.5918 101.042 83.8657 101.862 85.098 102.808C85.4035 103.042 85.7281 103.255 86.044 103.48C85.3566 102.688 84.711 101.775 83.8067 101.342C82.2394 100.59 81.4341 99.2605 80.575 98.0098C79.577 96.5592 78.5339 95.1872 77.1645 94.0348C76.7202 93.6611 76.3626 93.1988 75.9461 92.7923C74.7433 91.617 73.5613 90.4204 72.3134 89.2894C71.0759 88.1665 69.3941 87.8715 67.8511 87.342C66.657 86.9338 65.4282 86.5945 64.1455 86.5568C62.7188 86.5126 61.2904 86.5224 59.7995 86.5093ZM93.9636 105.357C95.2115 105.593 96.4647 105.894 97.7213 105.406C98.025 105.288 98.3929 105.253 98.7244 105.273C99.62 105.332 100.516 105.424 101.406 105.537C102.538 105.678 103.714 105.794 104.695 105.199C105.974 104.426 107.415 104.034 108.749 103.411C109.895 102.877 111.138 102.38 112.04 101.57C113.078 100.639 114.048 99.5441 114.451 98.1443C114.567 97.741 114.765 97.3214 115.048 97.0083C116.018 95.9396 116.671 94.7102 117.237 93.4267C117.355 93.1611 117.471 92.8956 117.589 92.6317C117.086 92.871 116.745 93.1923 116.419 93.525C115.485 94.4725 114.583 95.4494 113.616 96.3674C113.241 96.7231 112.609 96.8624 112.295 97.2493C111.733 97.9361 110.992 98.1557 110.173 98.3065C109.001 98.5196 107.777 98.6065 106.67 98.9917C104.534 99.7343 102.404 100.521 100.661 102.019C99.8943 102.682 99.0126 103.272 98.0875 103.713C96.758 104.347 95.3417 104.816 93.9636 105.357ZM105.077 132.334C104.57 131.874 104.362 131.774 104.042 132.038C103.312 132.639 102.619 133.282 101.923 133.921C101.71 134.116 101.571 134.393 101.342 134.565C99.8613 135.67 98.2142 136.39 96.2894 136.462C95.8398 136.48 95.3417 136.478 94.9599 136.662C94.4097 136.924 93.8265 137.264 93.4776 137.721C93.0507 138.28 92.8077 138.978 92.563 139.64C91.5442 142.415 89.6679 144.214 86.49 144.719C85.5476 144.866 84.6797 145.3 84.0567 146.133C83.3867 147.028 82.5415 147.805 81.7622 148.646C81.8854 148.656 82.0746 148.71 82.2499 148.682C83.5308 148.479 84.8151 148.318 86.0266 147.797C86.9482 147.4 87.9722 147.208 88.8869 146.799C90.5566 146.048 92.0527 145.048 93.3943 143.827C94.5711 142.756 95.845 141.784 97.4036 141.227C98.3218 140.901 99.1514 140.485 99.7467 139.694C100.252 139.024 100.891 138.445 101.396 137.775C101.706 137.365 101.942 136.88 102.092 136.395C102.282 135.769 102.734 134.687 103.116 134.247C103.567 133.726 104.001 133.188 104.475 132.684C104.629 132.52 104.886 132.441 105.077 132.334ZM121.289 128.276C121.746 126.953 120.993 126.497 120.045 126.112C119.542 125.907 119.125 125.517 118.63 125.286C118.084 125.029 117.49 124.858 116.824 124.614C117.096 125.468 117.367 126.135 117.518 126.825C117.73 127.789 117.919 128.766 117.995 129.746C118.144 131.618 120.616 133.087 122.332 133.251C124.342 133.443 126.231 133.833 127.493 135.596C127.956 136.242 128.751 136.677 129.4 137.203C129.537 137.314 129.683 137.447 129.849 137.49C131.321 137.877 132.802 138.24 134.275 138.621C134.626 138.711 134.964 138.837 135.494 139.006C135.273 138.14 135.124 137.429 134.898 136.741C134.806 136.46 134.586 136.187 134.35 135.988C133.958 135.659 133.534 135.344 133.076 135.111C132.08 134.603 131.17 134.008 130.384 133.231C130.162 133.011 129.823 132.892 129.532 132.738C129.275 132.602 128.999 132.497 128.751 132.349C127.985 131.9 127.232 131.435 126.472 130.98C125.313 130.284 124.052 129.736 123.126 128.712C122.752 128.297 122.185 128.033 121.289 128.276ZM148.898 166.944C148.877 166.893 148.856 166.839 148.836 166.789C147.601 167.087 146.361 167.367 145.133 167.687C143.497 168.116 141.815 168.315 140.137 168.338C138.871 168.356 137.608 168.031 136.336 167.951C135.306 167.885 134.246 167.839 133.236 167.998C131.95 168.2 130.698 168.605 129.436 168.942C128.159 169.285 126.939 168.89 125.715 168.675C125.278 168.598 124.889 168.483 124.417 168.544C122.987 168.726 121.545 168.828 120.107 168.959C120.352 169.374 120.619 169.626 120.942 169.769C121.722 170.113 122.527 170.406 123.324 170.718C125.748 171.667 128.287 171.983 130.887 171.89C133.048 171.811 135.206 171.613 137.361 172.016C138.606 172.249 139.807 172.029 140.909 171.424C141.784 170.944 142.643 170.439 143.512 169.952C145.307 168.947 147.103 167.947 148.898 166.944ZM118.8 168.602C119.047 168.623 119.16 168.659 119.255 168.636C120.074 168.434 120.88 168.115 121.711 168.036C123.268 167.887 124.847 167.833 126.38 168.225C127.399 168.485 128.409 168.641 129.449 168.418C130.355 168.223 131.278 168.067 132.154 167.785C134.258 167.108 136.372 167.443 138.491 167.613C139.493 167.693 140.51 167.838 141.501 167.751C142.787 167.638 144.068 167.38 145.321 167.071C145.76 166.962 146.399 167.098 146.689 166.508C146.553 166.441 146.458 166.349 146.364 166.354C145.236 166.4 144.194 166.094 143.219 165.608C142.28 165.14 141.306 164.841 140.249 164.728C139.253 164.622 138.354 164.707 137.495 165.279C136.816 165.731 135.983 166.028 135.155 165.761C134.277 165.477 133.349 165.161 132.642 164.625C131.733 163.936 130.766 163.768 129.693 163.809C128.756 163.845 127.821 163.913 126.885 163.989C126.475 164.022 126.026 164.017 125.668 164.177C124.151 164.859 122.537 165.382 121.286 166.525C120.52 167.223 119.693 167.861 118.8 168.602ZM145.942 118.214C145.942 118.3 145.942 118.385 145.942 118.472C146.032 118.516 146.118 118.578 146.213 118.6C147.306 118.846 148.435 119 149.49 119.349C150.628 119.726 151.713 120.127 152.966 119.944C153.442 119.875 153.992 120.226 154.462 120.144C155.504 119.96 156.375 120.382 157.274 120.683C158.378 121.052 159.449 121.509 160.537 121.922C161.818 122.408 163.158 122.609 164.524 122.786C165.487 122.911 166.582 123.148 167.301 123.704C168.316 124.489 169.63 124.658 170.604 125.442C170.704 125.522 170.954 125.45 171.131 125.427C172.381 125.276 173.199 124.401 174.273 123.837C174.098 123.676 174.011 123.527 173.891 123.499C173.096 123.312 172.298 123.139 171.494 122.988C169.689 122.655 168.103 121.929 166.695 120.796C166.01 120.245 165.258 119.716 164.446 119.368C162.986 118.746 161.473 118.218 159.947 117.749C159.14 117.5 158.263 117.372 157.411 117.342C156.325 117.306 155.233 117.41 154.145 117.48C152.295 117.598 150.443 117.721 148.594 117.874C147.707 117.947 146.826 118.098 145.942 118.214ZM90.7944 73.2876C90.9974 72.4549 91.1675 71.5828 91.4279 70.737C92.1482 68.3848 92.0544 66.0391 91.4383 63.6934C91.079 62.3214 90.0845 61.333 89.0935 60.3462C88.0104 59.2643 87.0038 58.1398 86.6618 56.6138C86.5247 56.0007 86.2748 55.4073 86.0405 54.8156C85.1258 52.4978 83.2739 50.8602 81.3109 48.9637C81.4324 49.7029 81.4584 50.1996 81.6025 50.6635C81.8437 51.4323 81.7986 52.1732 81.7535 52.9682C81.6858 54.1533 81.8819 55.3844 82.7827 56.3564C83.1524 56.7547 83.6835 57.0547 83.9421 57.5022C84.8221 59.0217 86.1724 60.2249 86.8614 61.91C87.3977 63.2213 87.6945 64.5294 87.8889 65.8752C88.1024 67.3554 88.2916 68.8306 89.0153 70.1797C89.5707 71.2107 90.18 72.2172 90.7944 73.2876ZM117.546 91.7039C115.749 91.9629 114.005 92.2858 112.209 92.2071C110.962 92.153 109.708 92.1415 108.8 93.1923C108.692 93.3168 108.465 93.3447 108.296 93.425C107.397 93.8529 106.458 94.2233 105.61 94.7298C104.442 95.4248 103.329 96.2067 102.22 96.9854C101.869 97.2312 101.548 97.546 101.307 97.8902C100.526 99.0081 99.8335 100.187 99.016 101.28C98.57 101.877 98.0146 102.455 97.3776 102.854C96.4751 103.418 95.4493 103.801 94.4826 104.273C94.3194 104.354 94.1858 104.481 94.0365 104.588C96.1766 104.054 98.1916 103.324 99.9099 101.995C100.979 101.165 102.092 100.387 103.194 99.5966C103.338 99.4933 103.532 99.4392 103.714 99.395C105.092 99.0573 106.474 98.7327 107.85 98.3934C108.89 98.1377 110.003 98.0098 110.945 97.5673C112.257 96.9509 113.403 96.1084 114.312 94.9233C115.208 93.7545 116.421 92.8021 117.546 91.7039ZM145.142 118.869C145.114 118.973 145.087 119.078 145.059 119.183C145.949 119.998 146.829 120.819 147.732 121.619C148.058 121.911 148.393 122.25 148.794 122.404C149.759 122.776 150.767 123.042 151.751 123.373C152.277 123.548 152.821 123.716 153.296 123.981C155.308 125.102 157.437 125.566 159.761 125.171C161.188 124.929 162.537 124.963 163.778 125.879C164.364 126.31 165.107 126.687 165.914 126.599C167.105 126.466 168.287 126.265 169.465 126.06C169.679 126.024 169.863 125.83 170.163 125.645C169.8 125.514 169.595 125.417 169.38 125.368C168.384 125.142 167.499 124.753 166.681 124.137C166.207 123.781 165.541 123.616 164.933 123.466C164.142 123.27 163.319 123.189 162.516 123.032C160.735 122.686 159.067 122.044 157.449 121.275C156.075 120.621 154.584 120.611 153.1 120.5C152.027 120.421 150.884 120.419 149.913 120.05C148.495 119.513 146.989 119.432 145.567 118.995C145.425 118.95 145.284 118.91 145.142 118.869ZM92.8146 73.2778C92.8493 73.3335 92.8841 73.3892 92.9188 73.445C93.9897 73.3319 95.1352 73.4056 96.1123 73.0565C97.152 72.686 98.2107 72.3451 99.2417 71.95C100.073 71.6304 100.837 71.1976 101.413 70.4862C101.998 69.7633 102.635 69.0634 103.338 68.4422C104.018 67.8422 104.813 67.3603 105.551 66.8194C106.144 66.3833 106.719 65.9276 107.319 65.5014C107.88 65.1031 108.565 64.8622 108.708 64.0524C108.769 63.7131 109.185 63.4328 109.428 63.1181C109.581 62.9214 109.779 62.7247 109.838 62.5001C110.108 61.4461 110.789 60.4986 110.69 59.3365C110.653 58.925 110.889 58.4956 111.04 57.9218C109.607 58.5923 108.088 58.9053 107.127 60.0856C106.531 60.8134 105.983 61.6002 105.575 62.4312C104.577 64.4606 102.859 65.7539 100.878 66.8259C100 67.3029 99.0403 67.7078 98.2992 68.3356C96.4161 69.9256 94.6353 71.6238 92.8146 73.2778ZM90.4611 80.8328C90.7735 80.8016 91.145 80.8656 91.3862 80.7262C92.5821 80.0361 93.9515 79.9525 95.2601 79.664C96.6972 79.346 98.1066 78.9428 99.2868 78.0822C100.535 77.1741 101.725 76.1922 102.935 75.2366C103.556 74.7481 104.119 74.1859 104.869 73.8613C106.596 73.1122 108.362 72.886 110.209 73.4679C111.205 73.7843 112.242 73.9941 113.234 74.317C114.586 74.7596 115.928 75.1727 117.395 74.9202C117.596 74.8842 117.827 75.0432 118.049 75.0612C118.308 75.0792 118.571 75.0399 118.833 75.0268C118.844 74.9547 118.854 74.8809 118.865 74.8088C118.533 74.6678 118.191 74.5449 117.872 74.3826C116.978 73.9302 115.992 73.5745 115.234 72.9663C114.486 72.3647 113.743 71.814 112.884 71.3566C111.454 70.5928 110.01 70.1158 108.328 70.4174C106.425 70.7583 104.508 71.0878 102.947 72.2352C101.713 73.1433 100.608 74.2055 99.4552 75.2104C98.2905 76.2234 97.1659 77.279 95.55 77.6544C94.972 77.7888 94.4236 78.0363 93.8491 78.1855C92.3408 78.5805 91.591 79.8722 90.4611 80.8328ZM111.573 160.92C110.614 160.565 109.793 160.232 108.953 159.956C108.038 159.658 107.114 159.37 106.176 159.157C105.412 158.984 104.603 158.989 103.843 158.809C102.767 158.555 101.691 158.494 100.599 158.614C98.4086 158.853 96.298 158.763 94.2031 157.911C92.6931 157.298 91.0304 157.06 89.3503 157.44C89.0119 157.517 88.6404 157.462 88.2916 157.509C87.6893 157.593 87.0489 157.622 86.4865 158.26C87.5487 158.632 88.4808 159.219 89.4215 159.232C91.447 159.263 93.0923 159.989 94.7481 160.971C95.7131 161.543 96.876 161.892 98.0892 161.776C99.2052 161.669 100.319 161.524 101.436 161.417C103.182 161.255 104.915 161.207 106.649 161.63C107.585 161.856 108.574 161.978 109.539 161.981C110.258 161.982 111.044 161.837 111.573 160.92ZM134.406 104.655C135.749 105.076 136.92 105.299 138.125 105.344C138.408 105.355 138.708 105.221 138.979 105.108C140.654 104.411 141.962 103.222 143.261 102.07C144.174 101.259 145.019 100.321 145.517 99.2015C145.744 98.6885 146.109 98.4901 146.621 98.4426C147.466 98.3672 148.186 98.077 148.778 97.4853C148.959 97.305 149.318 97.2542 149.441 97.0608C150.208 95.8396 150.913 94.5823 151.68 93.3627C152.178 92.5727 152.749 91.8219 153.437 90.8417C152.961 91.0728 152.713 91.1564 152.508 91.2974C150.746 92.5186 148.881 93.5627 146.902 94.443C145.154 95.2167 143.979 96.5624 142.914 98.0557C141.688 99.7769 140.197 101.318 138.38 102.501C137.198 103.27 135.888 103.862 134.406 104.655ZM134.031 104.158C134.303 104.119 134.458 104.134 134.569 104.075C135.485 103.586 136.37 103.042 137.309 102.6C138.174 102.191 138.821 101.58 139.491 100.951C140.975 99.5556 142.31 98.0557 143.469 96.41C143.811 95.9232 144.182 95.3757 144.687 95.0888C145.762 94.4774 146.838 93.8578 148.015 93.4054C148.827 93.0939 149.603 92.6431 150.306 92.1415C151.323 91.417 152.427 90.8466 153.546 90.2925C153.747 90.1926 153.933 90.068 154.348 89.8254C152.727 89.7565 151.382 89.6844 150.037 89.6565C149.804 89.6516 149.528 89.7942 149.341 89.945C147.629 91.3187 145.527 91.9104 143.453 92.5284C142.492 92.8153 141.801 93.2857 141.296 94.1069C140.374 95.6035 139.599 97.1886 138.392 98.5213C138.149 98.7901 137.953 99.0983 137.747 99.3933C136.716 100.864 135.961 102.526 134.411 103.634C134.277 103.731 134.208 103.908 134.031 104.158ZM145.126 147.376C145.231 147.376 145.333 147.374 145.437 147.374C145.692 146.477 146.006 145.591 146.185 144.681C146.319 143.997 146.223 143.292 145.881 142.643C145.272 141.489 144.651 140.34 144.082 139.167C143.87 138.732 143.755 138.245 143.658 137.77C143.481 136.908 143.443 136.021 142.952 135.234C142.823 135.028 142.707 134.78 142.7 134.547C142.639 132.638 141.926 130.971 140.685 129.481C140.406 129.146 140.183 128.768 139.902 128.432C139.567 128.032 139.196 127.656 138.753 127.178C138.576 129.556 139.088 131.572 140.315 133.451C140.765 134.139 140.97 134.959 140.871 135.803C140.746 136.852 140.616 137.9 140.513 138.949C140.468 139.404 140.421 139.87 140.482 140.319C140.734 142.161 141.733 143.576 143.375 144.578C144.153 145.051 144.561 145.73 144.802 146.54C144.889 146.823 145.017 147.097 145.126 147.376ZM75.4514 69.0437C75.1876 69.2027 74.8509 69.2929 74.7658 69.483C74.5662 69.9305 74.41 70.4223 74.3771 70.9042C74.292 72.1057 74.3319 73.3138 74.2347 74.5154C74.1358 75.748 73.9345 76.9758 73.7678 78.2052C73.7401 78.4117 73.57 78.6395 73.6255 78.8133C74.0629 80.1919 74.1584 81.7278 75.2223 82.8441C75.9894 83.6506 76.4789 84.5882 77.0725 85.4815C78.0132 86.8945 79.1292 88.1452 80.8718 88.8746C80.9082 88.5566 81.0193 88.2895 80.9464 88.078C80.6514 87.2109 80.7919 86.2798 80.2591 85.4176C79.7245 84.5554 79.5961 83.4784 79.1674 82.5474C78.5044 81.1049 77.187 79.9476 77.069 78.2576C77.0638 78.1658 76.8278 78.1035 76.7497 77.9953C76.6264 77.8232 76.4806 77.6298 76.4581 77.4331C76.3574 76.5463 76.2533 75.6562 76.2342 74.7661C76.2133 73.6843 76.59 72.609 76.1509 71.5173C75.8628 70.796 75.7222 70.024 75.4514 69.0437ZM136.299 139.565C136.349 139.55 136.398 139.534 136.448 139.517C136.457 138.773 136.539 138.021 136.455 137.285C136.372 136.555 136.231 135.796 135.914 135.139C135.666 134.628 135.525 134.177 135.591 133.628C135.666 133 135.497 132.449 134.954 132C133.666 130.935 132.189 130.151 130.624 129.569C128.947 128.946 127.423 128.192 126.285 126.83C126.012 126.504 125.601 126.283 125.25 126.014C123.882 124.97 122.211 124.63 120.56 124.301C119.668 124.124 118.726 124.183 117.804 124.135C118.004 124.488 118.228 124.67 118.483 124.789C119.158 125.102 119.847 125.388 120.531 125.684C121.213 125.983 121.833 126.365 122.393 126.845C123.219 127.553 124.082 128.223 124.924 128.915C125.031 129.005 125.137 129.122 125.186 129.248C125.483 130.01 125.936 130.546 126.909 130.499C127.093 130.49 127.328 130.656 127.473 130.8C128.294 131.612 129.303 132.103 130.415 132.452C130.65 132.525 130.946 132.667 131.038 132.854C131.561 133.908 132.654 134.272 133.576 134.87C134.588 135.526 135.758 136.091 135.711 137.595C135.69 138.245 136.089 138.908 136.299 139.565ZM89.0692 76.6955C89.7356 75.8644 90.2945 75.1677 90.1418 74.2531C90.0307 73.5941 89.8311 72.9319 89.5499 72.3221C89.208 71.5796 88.6318 70.9255 88.3471 70.1699C88 69.2437 87.8386 68.252 87.6147 67.2849C87.3491 66.1391 87.1252 64.9851 86.8423 63.8442C86.667 63.1312 86.4501 62.4247 86.1949 61.7346C85.7263 60.4757 84.6225 59.5987 83.9213 58.4726C83.5846 57.9317 83.0691 57.4858 82.6161 57.0137C82.0555 56.4335 81.4723 55.8843 81.4497 55.0123C81.4428 54.7353 81.264 54.4599 81.1043 54.0173C80.483 55.2352 80.5889 56.3417 80.5472 57.417C80.5194 58.1579 80.8752 58.7857 81.4931 59.2578C82.7254 60.2036 83.2236 61.5739 83.6488 62.9082C83.9924 63.9803 83.9768 65.1589 84.0862 66.2932C84.1625 67.0898 84.3517 67.8373 84.8741 68.4815C85.5094 69.2634 86.1238 70.0617 86.7972 70.8141C88.2638 72.45 89.0362 74.3203 89.0692 76.6955ZM139.31 126.602C139.258 126.648 139.205 126.692 139.154 126.738C139.607 127.287 140.107 127.809 140.505 128.394C141.388 129.69 142.615 130.797 142.848 132.464C142.953 133.211 143.53 133.883 143.346 134.716C143.314 134.864 143.474 135.046 143.531 135.216C143.714 135.757 143.995 136.291 144.047 136.844C144.21 138.558 145.038 140.017 145.828 141.512C146.215 142.248 146.838 142.935 146.656 143.883C146.531 144.538 146.513 145.212 146.447 145.877C147.152 144.933 147.768 144.005 147.784 142.796C147.799 141.624 147.959 140.448 148.124 139.285C148.24 138.472 148.077 137.722 147.7 137.023C147.343 136.362 146.874 135.755 146.473 135.113C146.038 134.415 145.6 133.715 145.208 132.993C144.627 131.923 144.236 130.784 143.439 129.789C142.483 128.591 141.084 127.915 140.029 126.855C139.873 126.696 139.553 126.683 139.31 126.602ZM128.897 181.5C128.747 181.343 128.666 181.223 128.553 181.146C127.411 180.368 126.028 179.94 125.014 178.969C124.889 178.85 124.663 178.83 124.511 178.728C123.605 178.128 122.695 177.533 121.808 176.909C120.998 176.338 120.295 175.57 119.403 175.176C117.408 174.299 115.341 173.562 113.271 172.852C112.604 172.622 111.837 172.611 111.04 172.786C111.294 173.08 111.493 173.29 111.672 173.516C113.005 175.206 114.697 176.458 116.77 177.255C118.155 177.786 119.483 178.383 120.569 179.419C121.614 180.418 122.935 180.732 124.42 180.5C124.922 180.423 125.479 180.453 125.97 180.577C126.932 180.823 127.866 181.169 128.897 181.5ZM152.163 124.43C152.151 124.479 152.137 124.53 152.123 124.579C152.63 125.043 153.091 125.561 153.654 125.953C154.278 126.391 154.98 126.74 155.677 127.071C156.278 127.356 156.903 127.632 157.552 127.786C158.529 128.017 159.532 128.158 160.53 128.302C162.196 128.541 163.863 128.781 165.536 128.966C167.098 129.14 168.58 128.974 169.894 127.999C170.793 127.333 171.767 126.743 172.763 126.215C173.438 125.856 174.2 125.632 174.945 125.402C175.474 125.238 176.057 125.222 176.576 125.04C177.092 124.86 177.671 125.178 178.176 124.668C178.527 124.314 179.195 124.25 179.711 124.032C179.9 123.953 180.056 123.807 180.459 123.532C179.521 123.581 178.851 123.578 178.195 123.658C176.88 123.816 175.608 124.12 174.497 124.85C174.219 125.032 173.995 125.312 173.695 125.427C171.522 126.253 169.476 127.502 166.976 127.279C165.671 128.015 164.744 127.101 163.712 126.619C163.342 126.445 162.955 126.289 162.557 126.183C161.872 125.997 161.202 125.902 160.454 126.068C158.408 126.517 156.418 126.287 154.521 125.383C153.76 125.02 152.951 124.745 152.163 124.43ZM81.323 86.3388C81.5244 85.7667 81.691 85.4504 81.7431 85.1176C81.8836 84.2112 82.0433 83.2981 82.0659 82.3851C82.0832 81.6852 81.8819 80.9836 81.8142 80.2787C81.7049 79.1477 81.2987 78.1134 80.5767 77.2249C80.0144 76.5332 79.4503 75.8234 78.8689 75.1694C77.916 74.1023 77.857 72.8335 77.5203 71.6468C77.2565 70.7173 77.1662 69.7715 76.3591 69.0159C76.1127 69.7633 76.4129 70.4256 76.5553 71.1091C76.6993 71.7959 76.8364 72.4959 76.8573 73.1942C76.8902 74.2891 76.8243 75.3874 76.793 76.4857C76.7688 77.3757 77.3346 78.0675 77.6834 78.8297C78.1087 79.7591 78.395 80.8131 79.0598 81.5573C79.8165 82.4048 80.0231 83.3801 80.4101 84.3292C80.6583 84.9389 80.9534 85.5323 81.323 86.3388ZM125.965 45.7541C125.411 45.9705 124.86 46.1934 124.304 46.4049C122.805 46.9753 121.338 47.6064 120.073 48.5752C119.297 49.1686 118.474 49.6079 117.48 49.7997C116.902 49.9095 116.227 50.0521 115.826 50.4111C114.519 51.5782 113.668 53.0436 113.193 54.6894C113.16 54.8041 113.213 54.9418 113.224 55.0582C114.868 55.0106 116.168 54.4091 117.193 53.2862C118.242 52.1421 119.554 51.3487 120.984 50.711C121.388 50.5307 121.786 50.3226 122.209 50.2013C124.505 49.5439 125.167 47.6179 125.965 45.7541ZM129.367 182.546C129.395 182.469 129.421 182.394 129.449 182.317C128.709 182.102 127.94 181.951 127.237 181.658C126.245 181.243 125.278 181.01 124.16 181.136C123.54 181.205 122.817 181.399 122.194 180.999C121.491 180.55 120.803 180.076 120.081 179.655C119.092 179.079 118.118 178.455 117.061 178.012C115.078 177.181 113.305 176.127 112.005 174.444C111.835 174.224 111.589 174.053 111.233 173.729C111.516 174.516 111.686 175.153 111.971 175.742C112.393 176.612 112.807 177.507 113.392 178.278C114.087 179.197 114.729 180.179 116.008 180.599C117.355 181.041 118.608 181.731 119.944 182.204C120.857 182.526 121.834 182.585 122.818 182.333C123.454 182.171 124.19 182.253 124.762 181.994C125.552 181.636 126.121 181.918 126.751 182.243C126.842 182.289 126.974 182.263 127.085 182.276C127.845 182.364 128.607 182.454 129.367 182.546ZM117.408 191.278C117.478 190.749 117.133 190.544 116.837 190.354C116.312 190.016 115.739 189.744 115.209 189.413C114.916 189.229 114.618 189.014 114.408 188.754C113.842 188.049 113.321 187.311 112.781 186.588C112.653 186.415 112.479 186.261 112.391 186.07C111.705 184.615 110.829 183.277 109.579 182.192C108.777 181.494 108.001 180.746 107.102 180.177C104.974 178.833 102.774 177.589 100.991 175.686C101.035 176.001 101.05 176.24 101.106 176.468C101.147 176.64 101.239 176.801 101.311 176.966C102.099 178.812 103.624 180.099 105.132 181.386C105.766 181.928 106.455 182.43 107.187 182.843C108.515 183.59 109.73 184.425 110.69 185.602C111.15 186.165 111.493 186.777 111.889 187.367C113.186 189.304 115.244 190.322 117.408 191.278ZM100.493 173.185C100.398 173.249 100.3 173.314 100.203 173.38C100.561 173.99 100.913 174.604 101.278 175.211C102.066 176.52 103.451 177.224 104.664 178.074C105.835 178.897 107.217 179.407 108.27 180.454C109.3 181.474 110.556 182.263 111.318 183.549C112.032 184.754 112.993 185.828 113.713 187.028C114.489 188.318 115.642 189.145 116.966 189.842C116.834 189.554 116.643 189.311 116.459 189.064C116.228 188.752 115.958 188.457 115.78 188.119C115.117 186.851 114.538 185.539 113.824 184.297C113.186 183.187 112.301 182.269 111.313 181.371C110.126 180.289 108.741 179.51 107.451 178.61C106.04 177.627 104.471 176.865 103.668 175.284C103.636 175.224 103.584 175.165 103.527 175.129C102.517 174.478 101.505 173.832 100.493 173.185ZM83.7356 112.586C85.0373 110.279 87.2068 108.783 89.2132 107.011C87.2884 106.381 85.4347 106.306 83.4613 106.293C83.3832 106.775 83.2062 107.23 83.26 107.66C83.4284 108.951 83.6939 110.23 83.595 111.545C83.5707 111.887 83.6852 112.238 83.7356 112.586ZM69.8262 153.816C71.3293 154.332 72.7438 155.036 74.2972 155.457C75.8142 155.87 77.2547 156.585 78.9643 156.404C77.4092 155.334 75.6979 154.719 74.0022 154.036C72.6258 153.48 71.3449 153.142 69.9095 153.629C69.8922 153.636 69.887 153.677 69.8262 153.816ZM67.3998 152.659C65.6208 150.88 61.7104 147.964 58.083 147.363C58.1888 147.544 58.2426 147.743 58.3763 147.84C59.1209 148.369 59.8568 148.918 60.65 149.374C61.6723 149.961 62.7362 150.484 63.8019 151C64.9908 151.574 66.1988 152.106 67.3998 152.659ZM127.487 172.914C127.897 173.131 128.334 173.313 128.714 173.568C130.12 174.514 131.635 174.281 133.137 173.932C133.664 173.809 134.136 173.462 134.195 172.821C131.969 172.613 129.747 173.352 127.487 172.914ZM126.996 118.536C127.02 118.442 127.045 118.347 127.069 118.252C126.571 118.011 126.097 117.695 125.569 117.544C124.712 117.298 123.813 117.188 122.943 116.97C122.003 116.734 121.071 116.465 120.151 116.167C119.479 115.947 118.955 116.116 118.229 116.67C119.637 116.872 120.816 117.015 121.984 117.218C122.742 117.351 123.49 117.554 124.235 117.752C125.16 118 126.076 118.275 126.996 118.536ZM35.4764 145.864C33.3086 146.431 31.2328 146.871 29.2386 147.525C27.2443 148.179 25.0418 148.3 23.2819 149.569C27.2478 148.52 31.179 147.372 35.1067 146.215C35.223 146.181 35.3028 146.035 35.4764 145.864ZM81.1929 117.113C79.9432 118.99 80.2435 120.998 79.8894 122.873C80.693 121.09 81.6459 119.339 81.1929 117.113ZM125.061 113.705C124.894 114.33 125.287 114.348 125.675 114.426C126.941 114.684 128.204 114.954 129.461 115.248C130.073 115.39 130.669 115.593 131.273 115.769C131.304 115.672 131.335 115.575 131.365 115.477C129.383 114.63 127.341 113.944 125.061 113.705ZM144.549 108.956C142.506 109.902 140.333 109.843 138.456 110.786C140.152 110.578 141.874 110.604 143.516 110.048C144.014 109.879 144.351 109.663 144.549 108.956ZM125.469 172.49C123.091 171.56 120.713 170.631 118.335 169.7C118.304 169.774 118.273 169.846 118.242 169.919C120.569 170.973 122.817 172.218 125.469 172.49ZM117.348 116.149C115.435 115.693 113.911 116.767 112.183 117.159C112.396 117.293 112.618 117.362 112.811 117.316C113.526 117.147 114.231 116.934 114.942 116.751C115.742 116.543 116.546 116.351 117.348 116.149ZM78.0653 126.666C76.9822 126.615 76.0467 127.056 75.1303 128.046C76.0901 128.207 77.3085 127.635 78.0653 126.666ZM82.2828 112.399C82.5154 112.284 82.7341 112.233 82.7411 112.164C82.7966 111.515 82.8382 110.861 82.8348 110.207C82.8348 109.976 82.7011 109.743 82.6282 109.512C82.5588 109.524 82.4876 109.535 82.4165 109.546C82.3748 110.437 82.3332 111.328 82.2828 112.399ZM84.711 98.9835C84.3882 100.541 84.3882 100.541 84.895 100.749C84.8307 100.126 84.77 99.554 84.711 98.9835ZM66.2491 131.723C66.2821 131.79 66.3151 131.856 66.3463 131.92C66.8548 131.695 67.3634 131.471 68.0646 131.159C67.1065 130.941 66.7316 131.443 66.2491 131.723ZM95.9978 162.607C96.64 163.23 96.64 163.23 97.3585 163.169C96.7962 162.474 96.7962 162.474 95.9978 162.607ZM91.3463 160.286C91.3081 160.37 91.2699 160.455 91.2317 160.54C91.6656 160.676 92.0978 160.812 92.5317 160.948C92.556 160.876 92.5803 160.806 92.6064 160.733C92.1863 160.584 91.7663 160.435 91.3463 160.286ZM59.5409 136.131C59.593 136.191 59.645 136.254 59.6988 136.313C60.0668 136.077 60.4365 135.839 60.8062 135.603C60.7645 135.549 60.7246 135.496 60.6847 135.442C60.3046 135.672 59.9227 135.903 59.5409 136.131ZM61.3824 135.178C61.4397 135.249 61.497 135.321 61.5525 135.392C61.7781 135.215 62.002 135.037 62.2277 134.862C62.2034 134.833 62.1791 134.806 62.1548 134.777C61.8979 134.911 61.6393 135.046 61.3824 135.178ZM107.753 120.798C107.781 120.739 107.809 120.678 107.838 120.618C107.592 120.521 107.347 120.419 107.097 120.331C107.08 120.324 107.028 120.408 106.946 120.503C107.229 120.608 107.491 120.703 107.753 120.798ZM94.4079 161.889C94.4444 161.801 94.4808 161.712 94.5173 161.623C94.2726 161.535 94.0261 161.446 93.7814 161.358C93.7536 161.42 93.7258 161.481 93.6963 161.543C93.9341 161.658 94.1702 161.774 94.4079 161.889ZM21.6643 149.975C21.6296 149.905 21.5966 149.834 21.5619 149.766C21.2772 149.877 20.9909 149.99 20.7045 150.102C20.7305 150.161 20.7565 150.22 20.7843 150.279C21.0776 150.177 21.371 150.077 21.6643 149.975ZM82.3471 107.756C82.2846 107.77 82.2204 107.781 82.1561 107.793C82.1891 108.083 82.2204 108.373 82.2533 108.663C82.3262 108.653 82.3974 108.642 82.4686 108.632C82.4286 108.34 82.3887 108.048 82.3471 107.756ZM98.2524 119.782C98.2801 119.862 98.3096 119.942 98.3374 120.023C98.603 119.924 98.8702 119.826 99.1375 119.727C99.115 119.672 99.0924 119.618 99.0716 119.562C98.7991 119.634 98.5249 119.708 98.2524 119.782Z" fill="#3D3D3D"/>
<path d="M106.171 117.641C105.571 117.831 104.982 118.061 104.368 118.19C104.116 118.243 103.812 118.074 103.575 117.864C104.194 117.726 104.817 117.605 105.43 117.443C105.755 117.357 106.022 117.315 106.176 117.672L106.171 117.641Z" fill="#3D3D3D"/>
<path d="M106.178 117.671C106.304 117.227 106.707 117.225 107.068 117.204C107.688 117.166 108.311 117.166 108.934 117.148C108.934 117.148 108.934 117.115 108.934 117.114C108.064 117.522 107.139 117.677 106.172 117.64L106.178 117.671Z" fill="#3D3D3D"/>
</svg>
