<svg width="320" height="325" viewBox="0 0 320 325" fill="none" xmlns="http://www.w3.org/2000/svg">
<path d="M311.026 0.00270852C311.59 17.0724 311.593 34.2856 308.874 51.2862C306.024 68.3089 299.956 84.5365 293.846 100.621C290.669 108.613 287.854 116.801 283.203 124.344C278.541 131.889 272.218 138.277 265.679 144.199C252.656 156.153 238.54 167.041 223.53 176.629L223.395 176.45C237.535 165.771 251.098 154.499 264.001 142.573C270.388 136.588 276.676 130.464 281.318 123.281C285.907 116.086 289.064 108.017 292.648 100.176C296.106 92.2915 299.357 84.3102 301.809 76.0914C304.329 67.8893 305.89 59.4773 306.957 51.0267C309.304 34.1558 309.784 17.0834 310.789 -5.22239e-05L311.026 0.00270852Z" fill="#373434"/>
<path d="M231.446 163C233.705 163.458 236.117 164.341 237.47 166.373C238.742 168.491 238.3 171.039 237.745 173.198C237.128 175.404 236.254 177.488 235.354 179.534C234.439 181.64 233.243 183.655 231.761 185.519C230.253 187.346 228.382 189.022 226.114 190.14C223.845 191.275 221.358 191.736 218.993 192.02C214.266 192.539 209.531 192.62 204.819 192.302C203.646 192.233 202.462 192.147 201.299 192.037L199.542 191.849C198.966 191.764 198.385 191.846 197.657 191.499C196.917 191.107 196.783 190.223 196.908 189.652C197.014 189.044 197.288 188.487 197.572 188.004C198.124 187.026 198.636 186.027 199.227 185.061C201.474 181.16 203.93 177.328 206.903 173.827C209.905 170.398 213.319 167.113 217.613 164.962C219.727 163.88 222.039 163.11 224.395 162.751C226.751 162.431 229.151 162.497 231.446 163ZM231.396 163.215C229.13 162.746 226.742 162.743 224.524 163.317C222.308 163.919 220.235 164.885 218.388 166.141C214.693 168.654 211.533 171.845 208.37 175.023C205.245 178.219 202.255 181.629 199.884 185.414C199.297 186.361 198.724 187.319 198.215 188.304C197.695 189.191 197.344 190.469 198.063 190.82C198.391 190.993 199.039 190.985 199.615 191.029L201.355 191.082C202.521 191.104 203.684 191.115 204.848 191.09C209.496 190.985 214.129 190.596 218.68 189.958C220.937 189.627 223.103 189.116 224.953 188.12C226.81 187.112 228.438 185.712 229.791 184.069C231.188 182.452 232.299 180.58 233.299 178.656C234.299 176.66 235.407 174.724 236.275 172.745C237.102 170.788 237.748 168.607 236.886 166.66C235.956 164.728 233.612 163.69 231.396 163.215Z" fill="#373434"/>
<path d="M253.191 163.414C251.811 166.213 250.218 168.902 248.652 171.588C247.859 172.902 247.155 174.227 246.754 175.566C246.339 176.883 246.401 178.264 246.553 179.738C246.716 181.215 246.968 182.777 246.898 184.412C246.825 186.041 246.474 187.589 246.108 189.089C245.343 192.031 244.673 195.201 246.047 197.898L245.261 197.953L246.658 192.321C247.14 190.43 247.848 188.492 249.034 186.767C250.157 185.055 251.548 183.62 252.586 182.093C253.653 180.561 254.27 179.031 254.325 177.314C254.372 175.602 254.051 173.728 253.79 171.804L253.098 166.075C252.849 164.173 252.694 162.249 252.513 160.335C252.417 159.369 252.381 158.458 252.034 157.655C251.867 157.263 251.551 156.882 251.279 156.451C251.008 156.04 250.765 155.449 250.993 154.935L251.218 154.993C251.122 155.907 252.142 156.399 252.741 157.29C253.367 158.201 253.545 159.237 253.758 160.159C254.191 162.042 254.641 163.922 255.004 165.807L256.129 171.472C256.436 173.352 256.921 175.277 256.825 177.411C256.798 179.575 255.746 181.72 254.492 183.321C253.229 184.964 251.835 186.361 250.686 187.827C248.435 190.723 247.345 194.535 246.07 198.166L245.711 199.198L245.281 198.224C243.925 195.159 244.734 191.924 245.044 188.917C245.217 187.396 245.348 185.883 245.226 184.445C245.085 183.007 244.702 181.546 244.486 179.967C244.27 178.41 244.246 176.643 244.822 175.017C245.351 173.402 246.29 172.03 247.196 170.738C249.072 168.212 250.935 165.705 252.995 163.292L253.191 163.414Z" fill="#373434"/>
<path d="M244.077 125.246C241.396 121.373 238.689 117.486 235.223 114.344C233.495 112.779 231.566 111.457 229.505 110.399C227.421 109.369 225.167 108.668 222.84 108.295C218.169 107.561 213.351 107.807 208.631 108.737C203.892 109.623 199.233 111.076 194.611 112.616L194.754 111.904C201.27 117.602 208.861 122.182 216.894 125.691C218.891 126.577 220.946 127.358 222.995 128.151C225.053 128.921 227.102 129.672 229.166 130.072C231.235 130.497 233.249 130.478 235.103 129.749C236.988 129.065 238.663 127.756 240.677 126.605C241.68 126.03 242.794 125.509 244.015 125.188C245.246 124.882 246.357 124.763 247.52 124.661C249.83 124.482 252.092 124.487 254.29 124.484C256.503 124.465 258.663 124.391 260.733 124.015C262.838 123.623 264.986 123.112 267.065 122.48C275.378 119.918 283.165 115.622 289.479 109.681L289.652 109.833C284.013 116.407 276.27 121.415 267.737 124.335C265.594 125.075 263.449 125.691 261.198 126.191C258.894 126.649 256.585 126.754 254.334 126.809C252.089 126.875 249.876 126.834 247.74 127.011C246.687 127.085 245.588 127.234 244.647 127.447C243.714 127.67 242.799 128.068 241.884 128.559C240.06 129.534 238.225 130.92 235.912 131.729C233.597 132.59 230.955 132.543 228.704 131.991C226.412 131.45 224.334 130.586 222.282 129.733C220.227 128.866 218.219 127.911 216.245 126.908C208.327 122.889 201.01 117.977 194.155 112.544L193.597 112.094L194.295 111.829C198.847 110.098 203.392 108.265 208.227 107.086C213.045 105.932 218.219 105.441 223.214 106.426C228.21 107.315 232.957 109.789 236.284 113.356C239.724 116.837 242.136 120.976 244.281 125.13L244.077 125.246Z" fill="#373434"/>
<path d="M248.993 126.367C246.564 127.223 244.629 128.772 243.089 130.547C241.525 132.333 240.455 134.448 239.467 136.626C238.444 138.796 237.476 141.071 236.652 143.376C235.842 145.692 235.199 148.056 234.679 150.438L233.927 149.994C236.196 148.105 238.403 146.156 240.709 144.326C243.039 142.52 245.322 140.662 247.71 138.926C250.055 137.181 252.402 135.544 254.2 133.443C255.953 131.361 257.278 128.819 257.222 125.967L257.444 125.928C258.365 128.764 257.447 131.974 255.749 134.484C254.018 137.035 251.627 139.034 249.245 140.784C246.88 142.548 244.404 144.177 241.984 145.872C239.546 147.534 236.997 149.085 234.506 150.695L233.337 151.454L233.755 150.239C234.565 147.904 235.252 145.549 235.76 143.144C236.225 140.718 236.655 138.283 237.555 135.903C238.473 133.556 239.856 131.273 241.791 129.434C243.702 127.618 246.269 126.29 248.938 126.149L248.993 126.367Z" fill="#373434"/>
<path d="M268.304 123.999C268.12 121.119 266.339 118.817 264.673 116.481C262.986 114.143 261.116 111.962 259.218 109.784C257.345 107.592 255.348 105.424 253.027 103.602C250.686 101.788 248.046 100.35 245.293 99.1961L246.193 98.4866C247.324 101.242 247.944 104.124 248.566 106.921C249.192 109.706 249.937 112.412 251.174 114.838C252.39 117.257 254.223 119.405 256.535 121.056C258.841 122.734 261.58 123.932 264.562 124.523L264.547 124.741C261.44 124.879 258.268 124.04 255.518 122.489C252.79 120.926 250.402 118.654 248.941 115.893C247.467 113.132 246.883 110.156 246.4 107.296C245.906 104.431 245.637 101.604 244.98 98.84L244.632 97.4044L245.88 98.1333C248.52 99.6599 251.016 101.33 253.489 103.031C255.956 104.745 258.456 106.476 260.665 108.544C262.837 110.639 264.685 113.027 266.214 115.573C267.681 118.033 269.239 121.031 268.54 124.018L268.304 123.999Z" fill="#373434"/>
<path d="M215.137 115.302C217.876 115.012 220.601 115.785 222.884 117.036C224.024 117.71 224.994 118.61 226.108 119.258C227.213 119.932 228.411 120.415 229.657 120.826C232.15 121.611 234.483 122.549 236.856 123.275C239.195 124.112 241.519 124.783 244.153 125.291L244.167 125.511C241.592 126.439 238.666 126.226 236.073 125.511C233.495 124.7 231.121 123.463 229.046 121.887C227.99 121.136 226.926 120.407 225.737 119.888C224.565 119.358 223.246 119.093 222.036 118.684C219.645 117.784 217.479 116.719 215.088 115.52L215.137 115.302Z" fill="#373434"/>
<path d="M243.685 138.647C244.126 137.267 244.74 136.311 245.617 135.478C246.097 135.094 246.76 134.788 247.146 134.296C247.546 133.816 247.69 133.206 247.772 132.579C247.88 131.301 248.236 130.089 248.935 128.904C249.701 127.808 251.034 126.718 252.609 126.74L252.72 126.93C251.984 128.14 251.621 129.048 251.104 130.075C250.511 131.033 249.914 132.121 248.938 133.076C248.479 133.576 248.055 134.067 247.795 134.655C247.532 135.232 247.482 135.964 247.19 136.565C246.523 137.714 245.357 138.578 243.837 138.818L243.685 138.647Z" fill="#373434"/>
<path d="M252.691 108.235C254.384 109.292 255.588 110.592 256.506 112.105C256.927 112.892 257.169 113.803 257.666 114.543C258.149 115.297 258.83 115.899 259.564 116.467C261.063 117.56 262.332 118.819 263.536 120.122C264.673 121.486 265.574 122.795 266.801 124.25L266.687 124.438C264.641 124.206 262.946 122.925 261.657 121.663C260.426 120.318 259.338 118.875 258.552 117.218C258.134 116.404 257.681 115.625 257.055 114.976C256.445 114.308 255.585 113.811 254.93 113.176C253.694 111.832 252.829 110.236 252.501 108.351L252.691 108.235Z" fill="#373434"/>
<path d="M292.604 146.361C289.19 149.453 285.951 152.685 282.999 156.109C280.128 159.551 277.474 163.245 276.705 167.439C276.325 169.531 276.232 171.732 275.989 174.001C275.743 176.262 275.299 178.501 274.674 180.682C273.504 185.074 271.75 189.243 270.251 193.473L269.581 193.045C275.796 188.216 281.815 182.946 285.963 176.511C288.018 173.3 289.681 169.882 290.514 166.279C291.42 162.707 291.254 158.961 291.315 155.107C291.397 151.25 291.558 147.561 290.906 143.903C290.616 142.059 290.198 140.201 289.833 138.307C289.494 136.403 289.202 134.495 288.98 132.582C288.044 124.921 288.257 117.152 289.561 109.604L289.798 109.626C289.398 117.257 289.816 124.852 291.008 132.319C291.605 136.066 292.598 139.677 293.326 143.534C294.107 147.412 293.902 151.402 293.738 155.162C293.575 158.919 293.665 162.886 292.587 166.751C291.508 170.586 289.646 174.147 287.261 177.311C282.499 183.691 276.115 188.547 270.128 193.646L268.968 194.632L269.453 193.224C270.926 188.986 272.136 184.671 273.025 180.337C273.443 178.167 273.776 175.992 273.99 173.822C274.194 171.657 274.168 169.38 274.697 167.072C275.758 162.423 278.605 158.461 281.844 155.17C285.062 151.843 288.608 148.823 292.458 146.198L292.604 146.361Z" fill="#373434"/>
<path d="M292.063 141.913C292.967 144.525 295.463 145.985 298 146.882C300.579 147.782 303.519 148.508 306.133 149.814C308.766 151.093 311.143 152.782 313.356 154.59C315.563 156.407 317.679 158.279 319.693 160.277L318.959 160.606C318.193 157.329 317.223 154.091 315.788 151.173C315.039 149.731 314.189 148.348 313.095 147.178C312.002 145.996 310.696 144.997 309.325 144.047C306.539 142.175 303.493 140.629 300.269 139.266C297.056 137.904 293.8 136.596 290.435 135.483L290.482 135.268C294.063 135.63 297.568 136.483 300.979 137.584C304.37 138.666 307.799 140.066 310.783 142.134C313.826 144.135 316.355 147.134 317.641 150.424C318.986 153.715 319.313 157.144 319.795 160.468L320 161.868L319.062 160.799C317.238 158.72 315.124 156.849 312.721 155.374C310.342 153.87 307.767 152.708 305.22 151.581C303.937 151.015 302.657 150.474 301.347 149.977C300.029 149.502 298.655 148.997 297.299 148.387C294.636 147.211 291.967 144.878 291.835 141.946L292.063 141.913Z" fill="#373434"/>
<path d="M292.744 149.944C292.028 151.86 290.619 153.398 289.324 154.866C287.942 156.343 286.845 157.638 286.001 159.278C285.094 160.876 284.329 162.682 283.87 164.551C283.419 166.428 283.218 168.358 282.852 170.299C282.525 172.253 281.984 174.172 281.201 176.003C280.45 177.838 279.59 179.638 278.561 181.334C276.457 184.721 273.954 187.816 271.095 190.646L270.894 190.519C272.534 186.916 274.518 183.559 276.381 180.199C278.342 176.88 280.11 173.518 281.625 169.987C282.355 168.209 282.838 166.337 283.127 164.421C283.414 162.508 283.513 160.52 284.212 158.555C284.89 156.581 286.521 154.905 288.026 153.676C289.529 152.354 291.169 151.247 292.54 149.831L292.744 149.944Z" fill="#373434"/>
<path d="M290.014 132.571C287.003 133.598 283.794 134.062 281.753 136.03C279.561 137.885 278.014 140.475 276.044 142.802C274.138 145.176 272.18 147.528 270.604 150.112C269.005 152.683 267.704 155.408 266.465 158.141L265.275 157.18C267.415 155.515 269.61 153.908 271.82 152.338C274.021 150.75 276.231 149.177 278.52 147.711C280.777 146.203 283.139 144.826 285.451 143.387C286.597 142.716 287.713 142.012 288.675 141.148C289.652 140.309 290.52 139.323 290.853 138.076L291.09 138.098C291.134 139.478 290.379 140.792 289.52 141.866C288.626 142.951 287.579 143.884 286.486 144.751C284.305 146.358 282.174 148.039 279.947 149.582C277.743 151.162 275.457 152.636 273.156 154.096C270.876 155.576 268.573 157.031 266.219 158.411L263.317 160.12L265.033 157.45C266.678 154.88 268.409 152.368 269.993 149.778C271.607 147.203 272.978 144.494 274.545 141.874C276.109 139.293 277.868 136.668 280.566 134.672C281.861 133.667 283.595 132.999 285.191 132.769C286.796 132.502 288.383 132.441 289.97 132.35L290.014 132.571Z" fill="#373434"/>
<path d="M290.584 136.049C288.249 137.449 286.313 138.923 284.282 140.428C283.276 141.129 282.09 141.896 281.125 142.772C280.143 143.655 279.339 144.685 278.57 145.753C277.091 147.926 275.363 149.889 273.542 151.769C271.642 153.58 269.613 155.281 267.231 156.683L267.062 156.534C268.33 154.173 269.955 152.122 271.712 150.179C273.539 148.312 275.463 146.507 277.632 144.936C278.696 144.127 279.716 143.277 280.564 142.283C281.443 141.306 281.999 140.113 282.961 139.078C284.902 137.156 287.638 135.779 290.529 135.834L290.584 136.049Z" fill="#373434"/>
<path d="M271.25 78.5568C267.383 75.3157 262.633 73.2396 257.696 72.2154C252.744 71.2326 247.59 71.0863 242.627 71.9476C240.166 72.3949 237.757 72.9829 235.614 74.1286C233.46 75.266 231.475 76.743 229.622 78.3884C225.927 81.7289 222.527 85.4449 219.75 89.5363L219.467 88.9676C227.871 90.0691 236.526 90.7814 244.77 89.1387C248.877 88.3243 252.767 86.9467 256.348 84.8927C259.967 82.9133 263.411 80.5087 267.222 78.4823C269.105 77.4636 271.18 76.5636 273.206 75.9838L279.307 74.0568C283.212 72.7289 286.998 70.9979 290.467 68.7948C297.416 64.4053 303.271 58.4062 307.354 51.3332L307.568 51.4243C304.276 58.8921 298.719 65.5841 291.634 70.374C288.129 72.8172 284.244 74.7912 280.134 76.224C276.167 77.6872 271.964 78.5458 268.392 80.5059C264.711 82.3528 261.204 84.6801 257.403 86.6624C253.612 88.6887 249.344 90.0443 245.047 90.6406C236.386 91.8028 227.824 90.5743 219.361 89.713L218.739 89.6522L219.075 89.1332C221.849 84.9755 224.907 80.9614 228.479 77.32C230.271 75.5007 232.258 73.7642 234.641 72.4942C237.006 71.2133 239.645 70.4016 242.282 70.0344C247.535 69.2945 252.96 69.416 258.073 70.7909C263.165 72.1271 267.985 74.6614 271.423 78.3995L271.25 78.5568Z" fill="#373434"/>
<path d="M285.416 71.7958C283.656 72.1823 281.85 71.7654 280.178 71.2188C278.5 70.6446 276.924 69.8191 275.428 68.8528C272.393 66.9258 270.151 64.0685 268.435 61.1172C266.714 58.1412 265.445 55.0353 264.302 51.8798C263.165 48.7215 262.294 45.4832 261.712 42.2062L261.388 40.4089L262.791 41.5381C265.536 43.7577 268.342 45.9083 271.259 47.9209C274.15 49.9859 277.339 51.5678 280.21 53.8813C283.133 56.2611 284.811 59.6347 285.983 62.8261C286.559 64.386 287.424 65.9651 287.816 67.7016C287.986 68.5574 288.123 69.5044 287.696 70.3547C287.252 71.205 286.299 71.6108 285.416 71.7958ZM285.363 71.5832C286.205 71.3761 287.076 70.9758 287.401 70.2249C287.684 69.4712 287.532 68.6265 287.217 67.859C286.585 66.3157 285.536 64.9602 284.621 63.4142C282.832 60.4298 281.286 57.5145 278.868 55.1872C277.711 53.9724 276.363 52.8654 274.989 51.7501C273.624 50.632 272.244 49.5194 270.812 48.4841C267.953 46.4025 264.98 44.4562 261.958 42.5706L263.039 41.9135C264.045 45.0442 265.167 48.1252 266.398 51.162C267.658 54.174 269.07 57.1666 270.616 60.0129C272.183 62.851 274.039 65.4847 276.386 67.7568C277.594 68.886 278.947 69.8936 280.435 70.6694C281.935 71.4258 283.674 71.9007 285.363 71.5832Z" fill="#373434"/>
<path d="M273.829 77.0798C272.259 78.8688 271.119 80.8786 270.113 82.9243C269.096 84.9728 268.304 87.1096 267.702 89.2602C267.126 91.4053 266.556 93.6774 266.147 95.9577C265.708 98.2436 265.524 100.563 265.302 102.89L264.656 102.52C267.085 100.748 269.257 98.6991 271.449 96.7087C273.621 94.6988 275.764 92.6559 277.383 90.4004C279.076 88.1448 279.918 85.7126 280.265 82.8166C280.707 79.9979 280.944 76.95 282.262 74.2252L282.481 74.297C281.984 77.1599 282.312 80.0172 282.189 82.9657C282.122 84.4372 282.054 85.9639 281.595 87.5154C281.128 89.0338 280.391 90.4749 279.435 91.731C277.541 94.2626 275.153 96.231 272.782 98.1139C270.382 99.9995 267.734 101.579 265.132 103.163L264.331 103.641L264.48 102.788C264.881 100.51 265.047 98.1912 265.071 95.8611C265.135 93.5228 265.132 91.1568 265.679 88.7909C266.261 86.4277 267.304 84.2218 268.587 82.1596C269.891 80.1304 271.549 78.2117 273.668 76.9142L273.829 77.0798Z" fill="#373434"/>
<path d="M264.229 44.8703C265.711 45.4418 266.784 46.651 267.69 47.6973C268.62 48.7822 269.496 49.9114 270.204 51.1399C270.885 52.3795 271.414 53.7212 272.162 54.9304C272.905 56.1313 273.849 57.208 274.84 58.2626C276.907 60.3139 278.479 62.7019 280.382 64.524C282.224 66.4593 284.495 68.1709 286.612 70.2359L286.489 70.4292C283.612 69.5458 280.865 68.2455 278.587 66.1694C277.462 65.112 276.611 63.8642 275.843 62.655C275.056 61.443 274.407 60.2089 273.764 58.9307C273.124 57.6691 272.425 56.4378 271.534 55.3252C270.645 54.2126 269.552 53.2381 268.593 52.1642C267.658 51.0847 266.907 49.8865 266.19 48.6635C265.454 47.4184 264.966 46.1927 264.092 45.0525L264.229 44.8703Z" fill="#373434"/>
<path d="M303.68 257.014C300.52 255.7 297.612 253.828 294.092 253.32C291.169 252.897 288.225 252.514 285.349 251.887C283.253 251.429 281.251 250.598 279.204 249.935C278.608 249.739 278.021 249.521 277.415 249.358C271.455 247.743 265.457 246.247 259.546 244.477C257.117 243.751 254.72 242.821 252.481 241.556C249.189 239.698 245.582 238.442 242.033 237.095C239.938 236.3 237.833 235.535 235.719 234.787C234.556 234.378 233.34 234.094 232.194 233.652C228.619 232.283 225.029 230.941 221.525 229.428C219.882 228.719 218.429 227.628 216.874 226.731C215.64 226.016 214.383 225.34 213.15 224.622C212.846 224.445 212.606 224.177 212.334 223.948C212.41 223.843 212.483 223.739 212.556 223.634C213.512 224.18 214.43 224.799 215.433 225.254C216.622 225.793 217.874 226.223 219.122 226.637C221.554 227.446 224.003 228.216 226.45 228.992C227.76 229.409 229.069 229.843 230.396 230.204C233.106 230.95 235.322 232.625 237.859 233.685C240.68 234.864 243.226 236.546 246.216 237.44C247.813 237.92 249.175 239.061 250.718 239.754C253.285 240.908 255.918 241.926 258.508 243.031C263.241 245.046 268.193 246.313 273.317 247.039C274.942 247.268 276.547 247.613 278.158 247.923C281.68 248.604 285.22 249.228 288.719 250.012C290.853 250.493 292.885 251.423 295.033 251.799C298.243 252.359 301.087 253.715 304.037 254.888C305.656 255.531 307.39 255.92 309.059 256.456C309.521 256.602 309.941 256.865 310.386 257.063C312.154 257.85 313.911 258.659 315.703 259.396C315.957 259.498 316.372 259.247 316.75 259.153C316.688 258.112 315.858 257.947 315.221 257.629C313.876 256.961 312.517 256.321 311.163 255.669C310.824 255.504 310.511 255.274 310.155 255.164C307.933 254.466 305.703 253.797 303.478 253.107C300.865 252.298 298.266 251.434 295.638 250.67C293.654 250.093 291.625 249.64 289.62 249.121C287.921 248.679 286.249 248.121 284.527 247.796C280.324 247.003 276.097 246.316 271.879 245.584C270.856 245.405 269.85 245.247 268.839 244.913C266.284 244.071 263.639 243.461 261.028 242.763C260.85 242.719 260.558 242.801 260.479 242.708C259.377 241.371 257.605 241.333 256.152 240.684C253.483 239.491 250.791 238.343 248.117 237.158C246.366 236.383 244.644 235.549 242.89 234.787C240.718 233.84 238.508 232.921 236.582 231.593C234.27 230.003 231.607 229.31 229.008 228.366C226.041 227.289 223.036 226.392 220.002 225.519C218.04 224.956 216.234 223.923 214.369 223.073C210.493 221.304 206.657 219.443 202.737 217.762C200.405 216.762 198.136 215.581 195.57 215.073C194.88 214.937 194.313 214.291 193.667 213.913C192.533 213.25 191.398 212.593 190.238 211.978C189.168 211.409 188.405 210.702 188.139 209.482C187.797 207.911 187.201 206.393 186.827 204.827C186.563 203.729 186.534 202.583 186.324 201.473C186.148 200.535 185.903 199.604 185.622 198.69C184.728 195.772 183.64 192.896 182.95 189.939C182.55 188.216 182.509 186.328 182.781 184.577C183.108 182.465 182.597 180.55 182.112 178.523C182.851 178.377 183.643 178.184 184.447 178.07C187.429 177.642 190.103 176.538 192.471 174.802C193.158 174.296 193.693 173.598 194.243 172.944C195.874 170.995 198.262 169.86 200.066 168.096C200.373 167.795 200.817 167.582 201.036 167.237C202.179 165.434 204.062 164.416 205.754 163.196C207.102 162.224 208.502 161.315 209.89 160.393C212.609 158.593 214.217 156.062 215.099 153.119C215.883 150.504 217.245 148.439 219.99 147.296C221.203 146.791 222.337 146.079 223.01 144.911C223.369 144.282 223.156 143.818 222.416 143.801C221.548 143.782 220.56 143.655 219.823 143.981C218.119 144.732 216.391 144.547 214.655 144.456C211.516 144.29 208.452 144.715 205.517 145.698C203.097 146.51 200.776 147.584 198.429 148.577C196.546 149.373 195.488 151.026 194.146 152.379C193.681 152.848 193.228 153.329 192.737 153.77C192.375 154.099 191.895 154.323 191.577 154.679C187.987 158.687 184.003 162.398 181.083 166.92C180.729 167.466 180.168 167.894 179.659 168.422C179.527 168.22 179.343 168.065 179.361 167.936C179.615 165.915 179.761 163.869 180.211 161.887C180.688 159.789 181.41 157.735 182.12 155.695C182.573 154.394 183.035 153.047 183.807 151.912C184.377 151.076 185.35 150.308 186.327 149.933C188.165 149.221 189.2 147.793 190.308 146.449C191.305 145.24 192.395 144.066 192.898 142.52C193.082 141.952 193.754 141.499 194.26 141.049C195.453 139.989 196.204 138.719 196.514 137.195C196.645 136.554 196.996 135.955 197.134 135.318C197.438 133.904 197.429 132.513 197.254 131.047C196.777 127.124 196.546 123.17 196.306 119.225C196.216 117.732 195.59 116.627 194.342 115.752C193.214 114.963 192.065 114.154 192.141 112.691C191.34 112.453 190.893 112.696 190.861 113.265C190.805 114.228 190.258 114.913 189.744 115.683C188.578 117.436 188.078 119.46 187.823 121.47C187.499 123.996 186.292 125.956 184.456 127.731C183.406 128.747 182.454 129.912 181.729 131.152C181.208 132.043 181.071 133.164 180.881 134.199C180.603 135.734 180.41 137.28 180.22 138.826C179.943 141.112 180.705 143.249 181.524 145.317C182.17 146.949 182.164 148.605 182.322 150.267C182.345 150.526 182.123 150.811 181.995 151.073C181.884 151.291 181.618 151.498 181.632 151.697C181.825 154.436 179.802 156.564 179.37 159.126C179.256 159.808 179.031 160.479 178.773 161.476C178.399 160.854 178.089 160.534 178.004 160.17C177.738 159.01 177.531 157.834 177.344 156.658C176.824 153.362 176.327 150.06 175.812 146.758C175.759 146.413 175.727 146.043 175.578 145.731C174.421 143.326 174.023 140.723 173.286 138.208C172.684 136.143 171.857 134.139 171.147 132.101C170.951 131.541 170.717 130.994 171.226 130.406C171.465 130.125 171.538 129.628 171.5 129.241C171.188 125.937 172.512 123.168 174.605 120.65C175.575 119.482 176.663 118.397 177.589 117.204C178.639 115.852 179.463 114.347 179.799 112.699C180.097 111.241 180.27 109.737 180.267 108.254C180.264 105.789 181.559 103.818 182.778 101.822C183.278 101.004 184.076 100.356 184.69 99.5964C185.035 99.1712 185.421 98.7047 185.549 98.2022C186.119 95.9605 186.151 93.6774 185.333 91.5046C184.944 90.4749 184.643 89.5086 184.719 88.4181C184.883 86.0329 185.023 83.6421 185.117 81.254C185.131 80.8289 184.985 80.2187 184.678 80.02C184.427 79.8599 183.804 80.1387 183.383 80.3043C181.477 81.0497 180.507 82.7421 179.177 84.07C178.224 85.0224 177.239 85.9445 176.294 86.9025C174.695 88.5258 173.965 90.5439 173.392 92.6448C172.676 95.2703 171.693 97.7577 169.615 99.7703C168.256 101.087 166.929 102.47 165.827 103.98C164.353 106.001 163.903 108.406 163.62 110.802C163.281 113.66 163.64 116.774 164.476 119.753C164.631 120.302 164.643 120.884 164.426 121.539C163.386 119.385 162.392 117.21 161.287 115.09C160.129 112.864 159.416 110.479 158.34 108.226C157.937 107.382 157.276 106.678 156.844 105.913C156.42 105.159 155.99 104.339 155.651 103.536C155.005 101.998 153.961 100.759 153.017 99.4197C151.614 97.4292 149.773 95.8804 147.759 94.5553C146.487 93.716 144.955 92.9678 143.453 92.7691C139.898 92.3025 136.314 91.5847 132.695 92.4737C131.538 92.7608 131.12 92.4516 130.658 91.4218C129.98 89.92 129.492 88.2773 128.509 86.9743C127.217 85.2571 125.996 83.3991 123.33 83.0126C121.368 82.7255 119.646 81.6571 117.977 80.4976C116.147 79.2221 113.99 78.3552 111.932 77.389C110.55 76.743 109.123 76.1687 107.667 75.7022C107.062 75.5062 106.329 75.6746 105.416 75.6746C105.58 76.3316 105.606 76.8065 105.811 77.1985C106.735 78.9681 107.632 80.7599 108.699 82.4549C109.199 83.2445 109.959 83.9927 110.783 84.4786C112.274 85.3592 113.864 86.1157 115.484 86.77C118.164 87.8467 120.398 89.4507 122.312 91.4936C123.686 92.9623 125.56 93.6111 127.483 93.9562C129.585 94.3316 130.684 95.4221 131.167 97.3077C131.818 99.8531 132.283 102.484 133.324 104.886C134.54 107.691 136.18 110.275 139.167 111.984C142.351 113.803 145.113 116.213 147.469 118.974C148.802 120.534 150.208 121.864 152.427 122.342C155.435 122.994 158.387 123.877 161.363 124.672C163.52 125.249 165.487 125.992 166.841 127.927C168.039 129.639 169.159 131.364 169.545 133.363C169.676 134.034 168.972 134.848 168.65 135.596C168.963 135.616 169.273 135.635 169.586 135.654C168.554 134.647 167.583 133.57 166.47 132.651C165.259 131.654 164.014 130.79 162.301 130.415C160.126 129.934 158.063 129.1 156.212 127.684C153.564 125.658 151.222 123.308 148.521 121.357C147.001 120.258 145.531 119.068 143.52 118.726C142 118.466 140.474 118.104 139.027 117.594C137.218 116.95 135.364 116.97 133.613 117.367C131.795 117.776 130.009 118.51 128.372 119.38C127.027 120.095 126.025 121.376 124.695 122.118C122.757 123.198 120.687 124.081 118.62 124.932C117.188 125.522 115.656 125.901 114.183 126.403C113.227 126.732 112.289 127.049 111.926 128.151C111.774 128.617 111.231 128.965 110.851 129.379C111.389 129.995 111.929 129.959 112.73 129.871C115.054 129.611 117.419 129.691 119.752 129.492C122.429 129.263 125.031 129.561 127.603 130.199C129.272 130.616 130.687 131.411 132.02 132.504C133.882 134.026 135.984 135.282 137.948 136.701C138.895 137.383 139.819 138.117 140.644 138.929C141.965 140.237 143.491 141.104 145.402 141.372C146.864 141.576 148.065 141.314 149.106 140.193C149.878 139.362 150.989 138.948 152.216 139.268C155.376 140.099 158.63 139.79 161.839 139.931C162.778 139.972 163.766 139.42 164.701 139.067C165.397 138.804 166.031 138.399 166.718 138.114C167.507 137.788 168.267 137.303 169.188 138.026C169.428 138.214 170.135 137.874 170.515 137.799C171.46 141.168 172.287 144.157 173.146 147.139C173.409 148.058 173.851 148.936 174.064 149.864C174.675 152.547 175.187 155.253 175.789 157.939C176.09 159.278 176.566 160.584 176.853 161.926C177.037 162.787 177.329 163.792 177.037 164.548C176.195 166.715 175.64 168.874 176.081 171.202C173.231 173.604 169.866 175.511 168.361 179.208C167.025 177.032 164.789 175.953 162.64 174.829C161.398 174.181 159.966 173.866 158.627 173.38C156.958 172.773 155.806 171.552 154.71 170.307C153.95 169.438 153.315 168.466 152.661 167.519C151.731 166.174 150.971 164.706 149.887 163.491C149.021 162.519 147.808 161.807 146.692 161.053C145.373 160.161 143.999 159.344 142.634 158.516C142.269 158.292 141.868 158.083 141.453 157.967C139.72 157.489 138.393 156.468 137.022 155.396C136.329 154.858 135.516 153.743 134.224 154.505C131.786 153.044 129.056 154.212 126.501 153.748C124.654 153.409 122.806 153.226 121.137 152.235C120.266 151.719 119.161 151.556 118.004 151.181C117.03 151.515 117.346 152.393 117.6 153.058C117.866 153.77 118.299 154.513 118.881 155.01C120.14 156.081 120.947 157.387 121.722 158.778C123.017 161.106 124.625 163.284 125.814 165.653C126.715 167.447 127.58 169.219 128.881 170.788C129.679 171.748 130.579 172.532 131.783 173.054C133.368 173.742 134.812 174.807 136.455 175.274C139.021 176.003 141.152 177.46 143.499 178.542C145.452 179.445 147.492 179.608 149.413 179.086C151.468 178.529 153.435 178.628 155.411 178.959C157.615 179.332 159.735 179.553 161.98 179.067C162.997 178.846 164.169 179.092 165.289 178.877C165.71 178.794 166.341 179.23 166.742 179.569C167.902 180.558 168.992 181.623 170.118 182.65C171.986 184.346 173.886 186.008 175.71 187.741C176.183 188.191 176.604 188.821 176.736 189.428C177.481 192.86 178.911 196.059 180.179 199.323C180.89 201.158 181.161 203.163 181.48 205.115C181.737 206.677 182.147 208.127 183.287 209.333C183.395 209.446 183.38 209.662 183.465 209.996C182.483 209.711 181.588 209.523 180.749 209.198C178.01 208.14 175.333 206.984 172.424 206.31C170.954 205.968 169.685 204.885 168.282 204.223C166.423 203.345 164.508 202.569 162.637 201.708C161.5 201.183 160.387 200.606 159.293 200.002C156.82 198.632 154.181 197.735 151.345 197.302C150.708 197.205 150.144 196.708 149.504 196.587C145.943 195.908 142.362 195.325 138.805 194.624C137.387 194.342 135.969 194.359 134.546 194.27C133.625 194.212 132.725 193.873 131.804 193.771C129.293 193.497 126.706 193.528 124.283 192.951C122.827 192.603 120.883 192.818 119.98 191.14C117.589 190.035 115.75 188.291 113.821 186.609C112.999 185.894 112.871 184.983 112.309 184.224C110.886 182.308 109.529 180.342 108.24 178.341C106.834 176.163 105.592 173.891 104.154 171.734C103.528 170.79 102.52 170.078 101.809 169.173C101.07 168.231 100.397 167.226 99.8508 166.174C99.386 165.277 99.2281 164.242 98.7867 163.331C98.2343 162.202 98.2255 161.13 98.3921 159.891C98.8715 156.28 99.12 152.641 99.4211 149.008C99.4708 148.423 99.424 147.788 99.2369 147.236C98.5149 145.135 98.7517 142.979 98.699 140.836C98.6757 139.878 98.6932 138.912 98.5558 137.968C98.2752 136.041 96.6908 135.086 95.1737 134.072C94.3026 133.493 93.4315 132.872 92.7241 132.129C91.1953 130.533 89.6782 128.91 88.3306 127.179C86.9216 125.365 85.767 123.38 84.4048 121.533C83.7675 120.669 82.8993 119.965 82.1452 119.176C81.8821 118.899 81.6395 118.601 81.4056 118.3C80.6427 117.32 79.947 116.288 79.1051 115.377C78.7981 115.043 78.1463 114.996 77.5207 114.769C76.7958 117.436 75.5037 119.595 74.1152 121.743C73.1448 123.245 72.5981 124.995 71.9287 126.66C71.7826 127.022 71.9229 127.485 71.9316 127.902C71.9638 129.515 71.9287 131.132 72.0573 132.739C72.1392 133.807 72.262 134.939 72.7121 135.9C73.5014 137.587 74.4134 139.26 75.5417 140.759C77.1056 142.832 78.4269 144.988 79.1665 147.434C80.1633 150.742 81.9961 153.701 83.7324 156.664C84.6503 158.229 86.3311 159.391 87.6466 160.752C89.7542 162.936 92.7592 163.83 95.2205 165.492C96.8487 166.591 98.3249 167.9 99.8157 169.17C103.572 172.372 105.624 176.696 108.199 180.674C109.106 182.076 110.026 183.473 110.699 185.088C110.281 184.704 109.813 184.359 109.448 183.934C107.445 181.621 104.806 180.116 102.137 178.606C100.187 177.504 98.3775 176.179 96.5447 174.904C95.4748 174.161 94.3815 173.41 93.4841 172.502C92.5984 171.602 91.9202 170.514 91.1924 169.484C89.8682 167.61 88.5995 165.694 87.2578 163.83C86.261 162.445 85.4016 161.006 84.5568 159.532C83.4723 157.635 82.493 155.479 79.9674 154.72C78.0001 154.126 76.0767 153.378 74.0772 152.898C72.6566 152.556 71.5253 151.788 70.5285 150.949C69.3739 149.974 68.038 149.654 66.6992 149.662C64.042 149.684 61.3907 149.974 58.7365 150.168C58.4968 150.187 58.2629 150.306 58.0261 150.377C57.6374 151.346 58.0525 152.026 58.7423 152.636C61.4696 155.049 63.1885 158.143 65.1499 161.075C66.097 162.489 66.9652 163.991 68.1578 165.2C68.9179 165.97 70.1573 166.517 71.2739 166.724C72.5397 166.956 73.1418 167.519 73.8317 168.485C75.305 170.556 76.8104 172.64 79.0554 174.117C80.6134 175.144 82.0136 176.378 83.56 177.424C85.1531 178.504 86.8632 179.05 88.9269 178.54C90.8182 178.07 92.7913 177.891 94.7352 177.64C95.9483 177.485 97.0825 177.626 98.2021 178.269C99.5409 179.039 101.207 179.373 102.4 180.284C104.113 181.596 106.171 182.465 107.6 184.166C109.003 185.836 110.661 187.313 112.187 188.89C112.523 189.235 112.783 189.649 113.239 190.237C110.821 189.152 108.544 188.558 106.182 188.1C105.083 187.885 103.972 187.275 102.794 187.173C100.441 186.971 98.0706 186.919 95.7174 186.723C94.1389 186.59 92.5809 186.259 91.0053 186.112C86.9479 185.734 83.1478 184.357 79.2191 183.484C76.3135 182.841 73.7966 181.414 71.7299 179.423C70.739 178.473 70.1485 177.157 69.3446 176.025C68.2923 174.545 67.202 173.09 66.1321 171.621C65.6673 170.978 65.1937 170.343 64.7699 169.678C64.0888 168.615 63.4691 167.555 62.2764 166.845C59.8502 165.401 58.9879 163.033 58.4032 160.54C58.1869 159.612 57.9794 158.679 57.6608 157.784C57.0381 156.029 56.4944 154.226 55.6262 152.58C54.8837 151.178 53.8051 149.911 52.7352 148.691C51.8554 147.686 50.7679 146.841 49.7682 145.93C49.4993 145.684 49.2567 145.378 48.9351 145.22C47.3654 144.456 45.8307 143.569 44.1733 143.039C42.4018 142.473 40.8993 141.618 39.3764 140.621C37.26 139.232 34.9244 138.147 32.6794 136.933C32.5712 136.875 32.4455 136.759 32.3491 136.775C29.8352 137.192 27.7013 135.536 25.2604 135.61C24.4273 135.635 23.6497 134.705 22.726 135.558C23.033 136.643 24.0005 137.247 24.8716 137.896C27.4294 139.801 29.3528 142.043 29.9492 145.198C30.5543 148.398 31.9223 151.393 33.4803 154.251C34.825 156.722 37.0963 158.58 39.3267 160.366C40.9695 161.68 42.7819 162.798 44.4861 164.043C45.5267 164.805 46.465 165.694 47.5145 166.442C49.8325 168.09 52.3114 169.313 55.3515 169.286C57.766 169.264 60.1571 169.509 62.4314 170.42C63.3346 170.779 64.0332 171.18 64.6003 172.024C65.4539 173.294 66.1701 174.603 66.895 175.931C67.6872 177.372 68.8594 178.65 70.0053 179.881C71.4785 181.463 73.0921 182.929 74.9542 184.743C73.6241 184.564 72.6244 184.519 71.6744 184.285C68.4765 183.495 65.2814 183.114 61.9344 183.285C57.4678 183.515 52.9574 183.553 48.5259 182.791C46.6697 182.474 44.8982 181.701 43.0829 181.151C41.1624 180.566 39.2448 179.989 37.3185 179.429C34.4771 178.6 31.6183 177.833 28.6367 177.601C25.3861 177.347 22.2232 177.761 19.0955 178.631C16.3769 179.387 13.5911 179.92 10.8668 180.654C9.28824 181.08 7.70389 181.585 6.24815 182.289C5.27474 182.758 4.5001 183.617 3.66992 184.334C2.83097 185.066 2.05341 185.861 1.21154 186.59C0.615216 187.106 0.173819 187.645 0.346285 188.465C0.381363 188.638 0.419364 188.854 0.343362 188.997C-0.372813 190.314 0.106586 191.446 1.08877 192.357C2.22296 193.406 2.29019 194.651 2.14403 196.001C3.17883 196.766 4.35394 196.973 5.56121 196.912C8.28852 196.774 11.0071 196.565 13.7285 196.382C14.6172 196.324 15.5058 196.181 16.3915 196.214C18.8996 196.313 21.2995 196.018 23.6848 195.168C24.8775 194.742 26.3011 194.745 27.6136 194.787C31.2704 194.903 34.4625 193.768 37.3243 191.728C40.5281 189.445 44.0973 187.794 47.608 185.999C49.8647 184.845 52.0103 184.754 54.3605 184.878C55.5473 184.939 56.7458 184.796 57.9385 184.826C60.7856 184.895 63.6357 185.016 66.4858 185.119C66.6758 185.124 66.8658 185.135 67.0529 185.157C69.0582 185.389 71.0839 185.522 73.0629 185.883C74.8577 186.215 76.6496 186.576 78.4269 187.051C80.4848 187.603 82.6743 187.788 84.8199 187.937C87.0269 188.089 89.2543 187.935 91.4671 188.037C96.6324 188.277 101.853 188.108 106.852 189.726C106.899 189.743 106.928 189.815 107.086 190.013C106.323 190.314 105.624 190.715 104.873 190.869C102.28 191.399 100.058 192.595 97.8747 193.956C96.1413 195.038 94.2003 195.756 92.1278 196.131C91.2684 196.286 90.3622 196.454 89.6109 196.846C86.8602 198.279 83.9809 198.318 80.9642 197.948C78.7221 197.672 76.4333 197.735 74.1737 197.556C69.7071 197.202 65.2522 196.741 60.7885 196.41C58.6049 196.247 56.4067 196.231 54.2173 196.231C53.3491 196.231 52.4575 196.369 51.6215 196.592C49.5782 197.139 47.4998 197.641 45.5442 198.403C43.8693 199.055 42.168 199.844 40.797 200.929C38.8911 202.442 36.804 203.635 34.711 204.85C34.2988 205.09 33.7727 205.15 33.305 205.308C30.905 206.108 28.3093 206.34 26.0497 207.583C25.6346 207.812 24.9535 207.768 24.4448 207.654C23.2844 207.395 22.1326 206.691 21.0101 206.752C18.5722 206.881 15.8946 205.766 13.6496 208.035C13.9039 208.298 14.2138 208.842 14.6932 209.093C17.9057 210.769 21.2703 212.063 24.9213 212.624C25.5936 212.729 26.2631 212.977 26.8711 213.273C29.1833 214.391 31.4546 215.55 33.416 217.218C34.8864 218.468 36.9092 218.639 38.7362 218.777C40.7093 218.929 42.7906 218.733 44.717 218.278C46.8509 217.773 49.0374 217.778 51.1538 217.289C53.1035 216.839 55.2111 216.732 56.9884 215.948C59.9057 214.664 62.674 213.046 64.8459 210.691C65.9275 209.518 67.0441 208.427 68.7483 207.947C71.1512 207.271 72.8641 205.518 74.3696 203.792C75.9861 201.94 78.2106 201.363 80.2714 200.358C82.0136 199.508 83.8552 199.806 85.6413 199.527C88.5644 199.069 91.4993 198.677 94.1155 197.177C95.1883 196.565 96.3868 196.253 97.7081 196.145C99.69 195.985 101.675 195.72 103.554 194.889C105.709 193.936 108.112 193.909 110.453 193.738C111.073 193.693 111.71 193.514 112.303 193.605C113.645 193.809 114.961 194.146 116.288 194.428C116.291 194.56 116.291 194.687 116.294 194.82C115.51 195.03 114.733 195.256 113.946 195.446C112.005 195.916 110.009 196.244 108.126 196.874C106.735 197.34 105.355 198.036 104.203 198.903C101.175 201.186 98.015 203.306 95.3169 205.995C93.9548 207.351 92.3558 208.731 90.2014 209.131C89.722 209.223 89.1461 209.408 88.8538 209.739C87.7284 211.017 86.147 211.431 84.6006 211.945C84.1855 212.085 83.6711 212.132 83.3729 212.395C80.8414 214.617 77.9066 216.45 75.8925 219.183C75.6791 219.473 75.4219 219.813 75.3985 220.144C75.226 222.593 73.3201 224.354 72.5572 226.585C72.1743 227.717 71.1775 228.694 70.3414 229.652C68.8623 231.355 68.7483 233.274 68.9968 235.342C69.2511 237.459 69.2073 239.613 69.5463 241.716C69.748 242.989 70.2333 244.303 70.9407 245.405C72.1158 247.235 73.5511 248.919 74.9162 250.639C75.1442 250.929 75.5651 251.084 75.8954 251.299C76.1381 250.929 76.5736 250.565 76.5941 250.181C76.7052 248.036 77.5646 246.255 79.2337 244.803C80.1194 244.027 80.9613 243.21 81.8412 242.426C84.5129 240.057 84.9456 237.04 84.6328 233.818C84.4925 232.388 84.2294 230.969 84.0657 229.539C83.8932 228.051 84.5889 226.737 85.1385 225.417C85.6033 224.302 86.2259 223.247 86.7433 222.154C87.5823 220.39 87.784 218.504 87.9155 216.605C87.9798 215.708 88.1113 214.813 88.1727 213.916C88.2692 212.527 89.0058 211.785 90.3388 211.069C93.0866 209.595 95.694 207.845 97.8104 205.57C98.6377 204.681 99.3918 203.795 100.693 203.464C101.219 203.328 101.687 202.931 102.145 202.608C103.774 201.47 105.492 200.581 107.55 200.311C108.41 200.198 109.211 199.728 110.067 199.546C112.692 198.986 115.332 198.483 117.969 197.967C118.214 197.92 118.527 198.011 118.714 197.898C121.088 196.465 123.373 197.327 125.773 197.926C128.378 198.577 131.091 198.828 133.745 199.314C134.917 199.527 136.066 199.869 137.215 200.189C138.095 200.432 138.957 200.731 139.778 200.99C138.109 201.885 136.531 202.79 134.894 203.599C132.944 204.568 130.95 205.451 128.971 206.373C128.58 206.556 128.194 206.757 127.787 206.915C126.516 207.409 125.312 207.972 123.818 207.903C121.479 207.795 119.126 207.944 116.779 207.986C116.524 207.991 116.238 207.928 116.022 208.019C112.876 209.347 109.252 209.681 106.618 212.077C105.586 213.016 104.905 214.272 103.584 214.946C102.192 215.652 100.842 216.428 99.4503 217.132C97.7052 218.013 95.6443 218.203 94.0249 219.374C92.8586 220.219 91.7478 221.16 90.7013 222.093C90.0845 222.645 90.1722 223.998 90.1225 224.997C90.0786 225.911 89.8419 226.684 89.3215 227.46C88.4329 228.777 88.43 230.323 88.5527 231.786C88.7369 233.956 88.088 235.919 87.2841 238.047C87.629 238.266 88.012 238.506 88.4007 238.751C90.14 236.96 91.9378 235.461 94.2734 234.682C95.3433 234.326 96.4102 233.876 97.5181 233.732C99.3188 233.501 100.909 232.766 102.444 232.001C103.823 231.314 105.288 230.444 106.174 229.285C107.919 226.993 110.4 226.411 113.025 225.92C113.581 225.815 114.166 225.837 114.721 225.721C118.609 224.904 121.345 222.825 122.441 219.128C122.935 217.472 123.186 215.749 123.54 214.057C124.078 211.464 125.227 209.352 128.086 208.367C129.445 207.9 130.684 207.127 132.011 206.569C133.911 205.772 135.844 205.101 137.899 204.67C140.483 204.126 142.985 203.257 145.549 202.616C146.379 202.412 147.314 202.315 148.15 202.456C151.331 202.992 154.517 203.546 157.653 204.278C161.17 205.101 164.482 206.387 167.434 208.494C169.787 210.172 172.231 211.809 174.847 213.066C176.955 214.076 179.387 214.482 181.667 215.177C182.568 215.451 183.439 215.812 184.336 216.094C186.376 216.737 188.434 217.265 190.557 217.673C193.526 218.247 196.379 219.357 199.323 220.086C201.425 220.608 203.287 221.616 205.152 222.543C207.093 223.512 208.747 224.989 210.548 226.215C213.536 228.25 216.628 230.141 220.107 231.342C222.355 232.12 224.708 232.628 226.944 233.426C228.531 233.995 230.016 234.828 231.519 235.59C233.308 236.496 235.068 237.454 236.833 238.395C237.207 238.594 237.57 238.818 238.16 239.16C236.392 239.665 234.834 240.032 233.343 240.571C232.554 240.855 231.881 241.438 231.162 241.896C230.963 242.02 230.817 242.227 230.607 242.327C227.061 244.011 223.597 245.902 219.917 247.274C217.812 248.061 215.541 248.547 213.652 249.747C211.039 251.412 208.432 253.138 206.096 255.125C204.041 256.87 202.091 257.596 199.408 256.586C196.599 255.528 193.655 254.794 190.825 253.789C189.618 253.358 188.496 252.663 187.423 251.964C185.961 251.017 184.655 249.847 183.155 248.969C181.293 247.884 180.32 246.092 178.908 244.654C178.405 244.14 177.89 243.478 177.244 243.276C175.64 242.771 174.108 242.12 172.363 241.882C170.784 241.67 169.434 240.56 168.27 239.362C166.324 237.36 165.438 234.848 164.266 232.468C164.079 232.09 163.962 231.678 163.742 231.322C162.93 230.003 162.044 228.804 160.167 228.73C159.226 228.691 158.294 228.297 157.358 228.288C153.722 228.263 151.03 226.759 148.875 224.031C147.951 222.858 146.645 221.9 145.359 221.05C143.909 220.094 141.491 221.262 141.14 223.109C140.819 224.793 140.386 226.508 141.149 228.239C141.506 229.05 141.567 229.978 141.769 230.85C142.576 234.381 143.815 237.777 145.63 240.949C146.928 243.224 148.881 245.057 150.749 246.923C151.003 247.177 151.36 247.387 151.711 247.497C154.625 248.42 157.197 249.919 159.761 251.478C163.006 253.455 166.616 254.466 170.477 254.703C173.371 254.882 175.985 253.924 178.577 252.95C180.13 252.365 181.623 251.757 183.354 251.92C183.766 251.959 184.205 251.735 184.766 251.6C187.587 254.308 191.431 255.401 195.161 256.699C195.748 256.903 196.35 257.077 197.256 257.364C196.66 257.643 196.33 257.856 195.964 257.958C192.91 258.803 190.001 259.935 187.309 261.577C185.783 262.51 184.126 263.247 182.518 264.056C182.363 264.134 182.144 264.123 181.957 264.109C180.235 263.985 178.472 264.283 176.806 263.57C174.959 262.781 173.108 261.978 171.205 261.318C169.188 260.619 167.119 260.045 165.055 259.479C161.559 258.524 158.068 257.555 154.54 256.716C153.342 256.431 152.047 256.473 150.793 256.439C147.56 256.343 144.534 257.127 141.553 258.281C139.387 259.123 137.074 259.625 134.847 260.332C131.21 261.486 128.062 263.369 125.54 266.119C124.961 266.754 124.411 267.422 124.607 268.377C124.794 269.299 126.244 270.632 127.504 270.677C129.153 270.735 130.196 271.444 130.942 272.758C131.383 273.534 132.093 273.893 133.061 274.097C135.566 274.622 138.016 274.365 140.413 273.752C142.017 273.341 143.596 273.274 145.233 273.186C147.94 273.04 150.571 273.642 153.248 273.642C153.4 273.642 153.552 273.807 153.918 274.017C152.336 275.157 150.992 276.389 149.2 277.021C147.835 277.507 146.423 277.885 145.069 278.393C143.488 278.984 141.95 279.679 140.383 280.303C139.632 280.601 138.875 280.911 138.089 281.085C136.481 281.441 134.958 281.927 133.423 282.537C131.608 283.257 129.556 283.437 127.603 283.848C127.115 283.953 126.571 283.95 126.148 284.166C124.902 284.798 123.71 284.108 122.494 284.127C122.292 284.132 122.043 283.909 121.891 283.732C119.644 281.173 116.811 279.271 113.879 277.518C111.31 275.977 108.509 275.08 105.393 274.878C103.131 274.735 100.877 274.431 98.6377 274.807C97.6233 274.978 96.6616 275.516 95.7233 275.974C94.3874 276.629 93.1977 277.703 91.5402 277.432C90.5668 277.275 89.6285 276.932 88.6755 276.67C87.5852 276.366 86.4568 275.723 85.4103 275.828C83.3817 276.027 81.2331 275.867 79.374 277.001C78.0761 277.791 76.6409 278.23 75.0594 278.269C74.5245 278.282 74.0071 278.644 73.4692 278.793C71.8235 279.254 70.1514 279.18 68.4589 279.069C67.6463 279.014 66.8103 279.26 65.8661 279.384C66.2724 280.82 67.1844 281.615 68.1403 282.23C70.2771 283.602 72.5338 284.809 74.7262 286.109C77.0764 287.509 79.3886 288.964 81.7564 290.339C82.3761 290.7 83.1186 290.894 83.8289 291.095C84.472 291.277 85.1443 291.39 85.8108 291.487C86.4802 291.586 87.1818 291.766 87.8278 291.664C89.1695 291.457 91.6221 291.929 92.5838 292.832C95.4514 295.515 98.775 295.454 102.277 294.306C102.742 294.154 103.098 293.729 103.56 293.566C104.782 293.132 106.007 292.597 107.279 292.415C110.892 291.898 114.25 290.894 117.466 289.171C120.637 287.47 123.926 285.921 127.673 285.449C130.6 285.079 133.491 284.411 136.376 283.782C137.083 283.627 137.706 283.119 138.355 282.752C139.942 281.858 141.623 281.156 143.464 280.988C144.561 280.889 145.578 280.8 146.428 280.055C146.621 279.886 146.975 279.881 147.566 279.713C145.297 282.219 142.903 284.063 140.421 285.883C138.545 287.258 136.525 288.163 134.362 288.864C133.371 289.187 132.257 289.212 131.19 289.292C129.135 289.444 127.378 290.471 125.452 290.998C123.631 291.495 121.935 292.401 120.108 292.87C116.905 293.696 114.598 295.65 112.298 297.743C111.272 298.676 109.892 299.272 108.647 299.979C107.042 300.89 105.343 301.66 103.806 302.66C101.239 304.327 98.6844 306.047 96.8867 308.689C97.3924 309.181 97.8601 309.639 98.3337 310.1C100.093 309.727 101.803 309.297 103.54 309.012C105.259 308.731 106.96 308.399 108.647 307.98C108.98 307.894 109.386 308.007 109.746 308.085C111.07 308.369 112.377 308.739 113.709 308.957C115.712 309.288 117.632 308.786 119.489 308.159C121.38 307.519 123.274 306.842 125.066 305.992C127.77 304.703 130.032 302.919 131.196 300.15C132.073 298.069 133.116 296.056 133.967 293.961C134.543 292.55 135.68 291.341 136.604 290.065C136.805 289.786 137.147 289.568 137.475 289.408C140.585 287.884 143.292 285.833 145.861 283.622C146.981 282.658 148.016 281.59 148.977 280.483C150.202 279.075 151.524 277.81 153.315 277.068C153.883 276.833 154.455 276.59 155.052 276.452C157.159 275.955 159.124 275.24 160.951 274.059C162.5 273.056 164.263 272.347 165.932 271.508C166.028 271.601 166.122 271.695 166.215 271.789C165.92 272.162 165.707 272.7 165.312 272.874C164.096 273.415 163.547 274.478 163.102 275.48C161.717 278.611 159.565 281.223 157.469 283.936C154.967 287.172 151.632 289.312 148.253 291.504C146.496 292.641 144.561 293.594 143.52 295.559C143.152 296.255 142.321 296.763 141.634 297.282C139.758 298.687 137.861 300.067 135.94 301.423C135.601 301.663 135.072 301.652 134.727 301.884C133.906 302.436 133.128 303.046 132.362 303.667C132.029 303.935 131.836 304.418 131.471 304.584C129.772 305.346 128.854 306.809 127.735 308.104C127.139 308.794 126.732 309.54 126.323 310.359C124.613 313.775 123.113 317.344 120.275 320.138C119.214 321.184 117.992 322.084 116.94 323.133C116.589 323.484 116.53 324.1 116.358 324.544C117.986 325.359 119.243 324.933 120.594 324.417C122.932 323.523 125.236 322.581 127.524 321.571C130.173 320.398 131.351 318.288 132.83 316.292C134.759 313.694 136.96 311.497 139.924 309.794C143.117 307.958 146.265 305.832 148.092 302.513C150.556 300.854 150.813 298.168 151.597 295.739C151.962 294.609 152.137 293.422 152.447 292.274C152.824 290.877 153.912 289.924 154.897 288.906C156.949 286.78 158.989 284.649 160.983 282.473C161.427 281.99 161.74 281.355 161.956 280.74C162.591 278.915 164.368 277.659 164.725 275.704C164.745 275.588 164.798 275.461 164.877 275.375C166.841 273.31 168.437 270.928 171.48 269.939C174.082 269.089 176.511 267.778 179.086 266.85C180.969 266.171 182.936 265.572 184.918 265.31C188.051 264.893 191.185 264.537 194.175 263.526C197.324 262.458 200.446 261.309 203.562 260.15C205.623 259.385 207.686 258.604 209.686 257.701C210.814 257.19 211.785 256.379 212.869 255.766C214.488 254.852 216.108 253.922 217.795 253.132C219.984 252.108 222.238 251.208 224.471 250.269C227.435 249.021 230.168 247.412 232.843 245.689C235.798 243.787 239.043 242.409 242.481 241.52C243.363 241.291 244.515 241.493 245.401 241.832C249.908 243.561 254.311 245.54 258.856 247.158C263.001 248.635 267.284 249.761 271.505 251.048C272.893 251.473 274.258 251.978 275.664 252.354C278.161 253.013 280.669 253.654 283.195 254.212C288.269 255.33 293.136 257.028 297.921 258.921C299.292 259.465 300.482 260.401 301.78 261.116C305.083 262.935 308.591 264.28 312.33 265.078C313.052 265.232 313.701 265.29 314.262 264.586C313.768 263.805 312.844 263.612 312.061 263.463C308.705 262.822 305.674 261.398 302.803 259.791C299.503 257.95 296.056 256.475 292.519 255.145C291.128 254.623 289.716 254.151 288.342 253.577C291.754 253.389 294.954 254.192 298.085 255.302C299.266 255.722 300.391 256.271 301.561 256.721C302.239 256.981 302.902 257.527 303.698 256.978L303.68 257.014ZM212.442 225.497C211.22 225.574 210.89 224.473 210.3 223.744C211.013 224.346 211.726 224.945 212.436 225.547C213.328 225.461 213.828 226 214.161 226.756C213.588 226.336 213.015 225.917 212.442 225.497ZM119.068 193.591C119.918 193.094 120.824 193.238 121.906 194.072C120.807 194.563 120.006 193.724 119.079 193.575C118.53 193.301 117.977 193.028 117.226 192.655C118.351 192.426 118.843 192.791 119.068 193.591ZM181.281 193.627C181.568 194.003 182.185 194.243 181.81 195.209C181.504 194.516 180.942 194.24 181.334 193.627C179.94 192.341 179.831 191.971 180.553 190.334C180.822 191.554 181.05 192.592 181.281 193.627ZM187.706 215.429C186.005 215.895 184.9 214.808 183.67 214.054C183.328 214.057 182.953 214.15 182.652 214.048C181.65 213.714 180.703 213.104 179.679 212.963C177.154 212.618 175.043 211.437 172.904 210.288C172.211 209.913 171.579 209.435 170.919 209.002C170.983 208.883 171.047 208.762 171.112 208.643C172.287 209.062 173.462 209.482 174.64 209.902C173.722 209.101 172.632 208.629 171.617 208.044C170.504 207.4 169.46 206.65 168.387 205.948C167.101 206.001 166.309 205.07 165.3 204.576C166.394 204.919 167.654 204.946 168.378 205.998C168.721 206.031 169.098 205.981 169.393 206.103C172.167 207.229 174.944 208.35 177.686 209.543C180.302 210.68 183.322 211.009 185.476 213.082C186.148 212.709 186.268 212.246 185.979 211.682C185.286 210.343 184.547 209.021 183.877 207.671C183.444 206.799 183.108 205.885 182.728 204.99C182.874 204.932 183.018 204.877 183.164 204.819C184.745 207.997 186.327 211.177 188.04 214.62C186.464 214.117 185.134 213.8 183.9 213.275C182.17 212.541 180.518 211.641 178.826 210.835C177.826 210.357 176.75 210.153 175.283 209.874C175.797 210.374 175.967 210.666 176.224 210.769C177.727 211.37 179.276 211.876 180.758 212.519C181.77 212.958 182.702 213.568 183.67 214.106C185.169 214.148 186.441 214.799 187.704 215.476C188.73 215.454 189.797 215.263 190.633 216.102C189.545 216.356 188.569 216.135 187.706 215.429ZM241.13 239.795C240.882 240.297 240.364 239.972 240.104 240.082C239.66 240.27 239.414 240.863 239.064 241.269C239.002 241.335 238.806 241.286 238.698 241.335C236.623 242.296 234.392 243.047 232.516 244.278C229.552 246.23 226.549 248.041 223.126 249.259C223.615 248.025 224.34 247.18 225.462 246.567C227.429 245.496 229.516 244.579 231.349 243.331C233.515 241.857 235.968 241.12 238.385 240.231C238.879 240.049 239.341 239.776 239.774 239.566C239.221 237.622 237.307 237.208 236.026 236.013C237.909 235.924 241.326 237.288 242.583 238.497C242.101 238.939 241.618 239.381 241.136 239.834C241.905 239.475 242.671 239.116 243.513 238.724C246.176 239.696 248.95 240.764 251.396 242.448C249.534 241.888 247.769 241.128 245.953 240.496C244.758 240.082 243.545 239.339 242.18 240.223C242.013 240.331 241.49 239.95 241.13 239.795ZM136.534 197.249V197.304C136.443 197.219 136.355 197.064 136.265 197.064C133.599 197.001 131.05 196.333 128.483 195.75C127.641 195.56 126.937 195.27 126.335 194.323C127.223 194.469 127.825 194.591 128.433 194.671C133.634 195.344 138.834 196.004 144.031 196.694C144.961 196.819 145.882 197.034 146.791 197.26C148.934 197.796 151.085 198.315 153.204 198.936C154.602 199.345 155.981 199.85 157.3 200.441C158.668 201.051 159.942 201.832 161.275 202.511C162.316 203.041 163.38 203.53 164.435 204.038C164.368 204.17 164.301 204.303 164.233 204.435C162.354 203.621 160.518 202.685 158.577 202.025C156.508 201.321 154.303 200.971 152.219 200.294C148.685 199.146 147.656 198.906 146.04 199.298C148.144 200.253 150.597 199.913 152.512 201.357C149.989 201.818 137.209 199.138 134.812 197.732C135.358 197.578 135.946 197.412 136.534 197.249ZM87.4361 146.336C87.6115 144.097 86.4831 142.087 86.1645 139.925C85.8927 138.078 84.6796 136.538 83.4343 135.097C82.1832 133.65 81.2448 132.099 80.6544 130.268C80.2013 128.855 79.83 127.444 79.4676 126.011C78.8391 123.521 78.9677 121.05 79.0262 118.554C79.032 118.253 79.1811 117.955 79.2922 117.544C80.2919 118.69 81.1747 119.689 82.0487 120.697C82.572 121.299 83.139 121.87 83.5892 122.519C84.8403 124.316 85.9891 126.177 87.2782 127.952C87.898 128.808 88.9181 129.429 89.4502 130.318C90.9 132.742 92.9346 134.567 95.4163 135.983C96.4453 136.568 96.8516 137.474 97.0416 138.503C97.1468 139.086 97.1702 139.685 97.1936 140.281C97.2638 142.065 97.0679 143.892 97.4216 145.623C98.091 148.881 97.6642 152.089 97.3281 155.303C97.0358 158.074 96.4044 160.819 97.1205 163.77C94.2558 161.263 92.2593 158.411 90.6165 155.355C89.3946 153.08 88.2867 150.731 87.8483 148.166C87.7372 147.526 87.5735 146.893 87.4332 146.25C86.7228 146.416 86.8222 146.957 86.8865 147.415C87.4303 151.366 89.3566 154.842 91.3268 158.251C92.1921 159.739 93.6595 160.918 94.8522 162.238C95.276 162.71 95.884 163.102 95.7174 164.043C94.8083 163.516 94.0717 162.994 93.259 162.632C89.9734 161.175 87.3835 158.958 85.3343 156.175C84.6269 155.214 84.2089 154.06 83.4957 153.105C81.6395 150.631 80.9818 147.683 79.8271 144.942C79.4062 143.945 79.0466 142.981 78.3889 142.087C77.1758 140.433 76.0036 138.741 74.9659 136.985C74.3929 136.016 73.7995 134.887 73.7849 133.824C73.7469 130.798 72.9109 127.726 74.1708 124.733C74.8548 123.115 75.4891 121.492 76.7782 120.186C77.1407 119.819 77.4155 119.377 77.8978 118.756C77.9621 119.777 78.1141 120.608 78.0498 121.423C77.8686 123.717 78.4795 125.934 78.9735 128.107C79.6809 131.207 81.1805 134.037 83.4518 136.502C84.6883 137.841 85.2408 139.613 85.5565 141.411C85.8664 143.15 86.1294 144.928 87.4361 146.336ZM25.8655 184.762C28.1865 184.848 30.5046 184.975 32.8256 185.005C35.2167 185.036 37.6108 185.038 39.999 184.925C42.3492 184.812 44.6878 184.533 47.0321 184.329C46.617 184.826 46.1347 185.077 45.6319 185.284C42.4808 186.582 39.4114 188.081 36.7894 190.154C33.7405 192.559 30.3526 193.473 26.4794 193.404C25.1932 193.384 23.8105 193.619 22.6325 194.094C21.2498 194.651 19.835 194.638 18.4348 194.784C15.7543 195.063 13.0504 195.212 10.3552 195.339C8.23006 195.438 6.08153 195.946 3.90378 195.187C3.82777 194.477 3.75469 193.787 3.69038 193.18C5.05258 192.015 7.0871 192.02 8.29437 190.187C7.56358 190.469 7.17187 190.621 6.78017 190.773C5.85645 191.134 4.95611 191.57 4.00316 191.841C2.53866 192.261 1.67048 191.769 1.7231 190.408C1.7611 189.365 1.88972 187.97 2.59127 187.374C4.05286 186.126 5.12566 184.486 6.94387 183.575C9.36717 182.363 11.9366 181.657 14.6172 181.248C15.5497 181.104 16.4938 181 17.4029 180.768C19.1656 180.315 20.8874 179.702 22.6646 179.304C25.0616 178.769 27.6165 178.551 29.9433 179.017C34.1234 179.851 38.1866 181.223 42.2908 182.405C43.2817 182.689 44.2317 183.098 45.2022 183.451C44.8222 183.791 44.527 183.821 44.2347 183.846C42.4077 184.006 40.5807 184.191 38.7508 184.31C37.5026 184.39 36.2281 184.519 35.0004 184.37C31.9632 184.006 28.9465 183.468 25.8655 184.762ZM60.4582 167.555C60.0373 167.729 59.6836 167.985 59.3123 168.01C55.3631 168.284 51.6537 167.776 48.5493 165.139C47.5203 164.269 46.3861 163.491 45.2198 162.79C43.0245 161.465 40.8584 160.134 39.2653 158.116C38.856 157.6 38.2539 157.21 37.7072 156.807C36.424 155.863 35.3102 154.728 34.5941 153.395C32.9922 150.427 31.8551 147.294 31.3377 143.964C31.1652 142.863 30.7881 141.753 29.8235 140.927C29.5107 140.657 29.3879 140.188 29.0605 139.594C29.9989 140.047 30.6536 140.361 31.3289 140.687C31.7937 139.829 31.1652 139.652 30.6653 139.434C29.1394 138.766 29.1365 138.771 28.5139 137.7C32.1474 138.244 35.3482 139.459 38.1808 141.656C39.6804 142.819 41.3466 143.76 43.3694 144.202C44.9888 144.558 46.6726 145.298 47.9354 146.308C50.3704 148.246 52.9808 150.021 54.115 153.188C55.3251 156.561 56.9563 159.794 57.234 163.59C56.4067 162.787 55.6935 162.064 54.9481 161.371C54.5914 161.042 54.1793 160.766 53.7876 160.473C52.0658 159.195 50.2739 157.992 48.6399 156.622C47.2689 155.468 46.1698 154.085 45.2402 152.542C44.2288 150.863 42.8608 149.378 41.7237 147.763C41.0864 146.86 40.7415 145.745 40.0048 144.936C39.1922 144.044 38.0785 143.398 37.0963 142.645C36.9004 142.493 36.7163 142.324 36.5087 142.186C35.1232 141.259 33.5768 140.748 31.8463 140.684C32.4192 141.143 33.0653 141.46 33.7317 141.734C36.0381 142.672 38.1369 143.939 39.5927 145.875C41.446 148.334 43.0683 150.954 44.8544 153.461C45.7547 154.72 46.6521 156.029 47.8068 157.061C50.2213 159.223 52.7265 161.315 55.369 163.226C56.3132 163.913 57.1872 164.626 57.9969 165.429C58.4266 165.857 58.7569 166.376 59.1983 166.79C59.4994 167.072 59.9233 167.237 60.4582 167.555ZM114.256 128.137C114.741 127.93 115.048 127.712 115.376 127.681C118.872 127.356 122.359 126.87 125.887 126.964C126.384 126.977 126.908 126.875 127.378 126.721C130.108 125.829 132.824 124.904 135.546 123.996C135.662 123.957 135.797 123.965 135.923 123.954C138.711 123.722 141.43 124.117 143.754 125.561C145.896 126.892 147.896 128.479 149.764 130.147C152.757 132.827 156.218 134.536 160.258 135.171C162.015 135.45 163.643 135.986 165.435 136.772C163.944 137.918 162.442 138.769 160.711 138.697C157.94 138.586 155.183 138.197 152.418 137.926C150.74 137.764 149.176 137.882 148.068 139.343C147.835 139.649 147.393 139.98 147.028 140.005C145.628 140.099 144.233 139.887 143.131 139.022C141.488 137.739 140.208 136.027 138.1 135.29C137.884 135.215 137.735 134.967 137.542 134.81C134.786 132.515 131.965 130.232 128.413 129.161C125.332 128.234 122.117 127.897 118.84 128.211C117.41 128.349 115.937 128.971 114.256 128.137ZM176.368 264.838C174.988 265.514 174.988 265.525 174.082 265.335C172.842 265.07 171.6 264.813 170.372 264.509C167.271 263.744 164.295 264.214 161.345 265.219C160.001 265.677 158.583 265.942 157.247 266.414C155.856 266.903 154.543 266.513 153.172 266.411C150.246 266.19 147.355 266.16 144.376 266.685C141.743 267.151 139.053 267.397 136.49 268.2C135.014 268.659 133.537 269.175 132.166 269.851C131.614 270.122 131.234 270.108 130.775 269.942C129.354 269.429 128.089 268.504 126.466 268.515C126.352 268.515 126.235 268.264 126.022 268.012C127.343 266.155 128.983 264.655 131.105 263.595C135.56 261.367 140.448 260.238 145.16 258.684C148.276 257.657 151.597 257.439 154.882 258.049C157.472 258.529 159.881 259.736 162.585 259.788C162.646 259.788 162.705 259.821 162.769 259.841C166.318 260.84 169.741 262.174 173.208 263.397C174.193 263.744 175.111 264.258 176.368 264.838ZM142.4 223.946C143.964 225.066 145.145 226.22 145.964 227.65C147.15 229.724 147.764 231.999 149.425 233.948C151.047 235.853 152.789 237.31 155.113 238.243C155.742 238.495 156.429 238.688 156.961 239.066C159.121 240.601 161.243 242.186 163.357 243.781C164.385 244.557 165.335 245.43 166.37 246.203C168.168 247.542 170.308 248.237 172.448 248.905C174.067 249.411 175.707 249.866 177.347 250.322C178.083 250.526 178.838 250.678 179.969 250.943C177.636 252.508 175.309 253.295 173.067 253.56C169.472 253.985 166.02 252.989 162.827 251.227C160.284 249.822 157.624 248.599 155.017 247.296C153.795 246.683 152.36 246.285 151.389 245.421C147.662 242.111 145.169 238.086 144.102 233.307C143.71 231.551 143.131 229.831 142.728 228.078C142.438 226.817 142.041 225.541 142.4 223.946ZM161.883 120.225C161.784 120.294 161.687 120.363 161.591 120.429C160.463 119.333 159.355 118.215 158.206 117.141C157.23 116.227 156.285 115.253 155.183 114.496C153.666 113.455 152 112.58 150.413 111.664C148.907 110.799 147.484 109.877 146.162 108.812C144.929 107.815 143.929 106.683 143.172 105.206C141.824 102.57 140.576 99.704 137.399 98.3899C136.542 98.0366 135.665 97.7163 134.847 97.2967C133.479 96.5955 132.307 95.6927 131.684 93.9424C133.292 93.7933 134.715 93.5586 136.142 93.5559C137.65 93.5559 139.159 93.7629 140.667 93.8982C143.233 94.1274 145.584 94.8341 147.682 96.3553C149.065 97.3602 150.126 98.5666 151.24 99.8062C154.245 103.149 155.897 107.183 157.928 111.012C159.39 113.762 160.129 116.832 161.711 119.554C161.825 119.75 161.828 120.001 161.883 120.225ZM214.369 149.389C214.462 149.458 214.553 149.53 214.643 149.599C214.325 150.422 213.918 151.228 213.699 152.073C212.898 155.178 210.957 157.522 208.35 159.452C205.371 161.658 202.156 163.532 199.484 166.163C196.643 168.96 193.211 171.199 190.492 174.161C189.937 174.766 189.074 175.263 188.259 175.481C184.368 176.513 180.46 177.535 176.382 177.687C175.233 177.731 174.085 177.794 172.667 177.861C173.319 177.038 173.667 176.345 174.237 175.92C176.075 174.542 177.964 173.22 179.893 171.964C180.662 171.461 181.565 171.105 182.456 170.823C184.254 170.255 186.067 169.716 187.905 169.286C189.525 168.902 190.828 168.115 191.843 166.911C192.737 165.849 193.547 164.719 194.383 163.612C194.781 163.082 195.128 162.519 195.532 161.995C195.783 161.669 196.073 161.36 196.385 161.081C196.938 160.589 197.508 160.109 198.098 159.656C198.914 159.032 199.727 158.4 200.592 157.842C201.732 157.111 203.003 156.542 204.062 155.722C204.836 155.12 205.625 154.778 206.575 154.778C207.622 154.781 208.356 154.292 209.095 153.671C210.826 152.216 212.609 150.814 214.369 149.389ZM219.285 145.701C219.303 146.327 218.771 146.385 218.265 146.46C217.678 146.548 217.078 146.579 216.505 146.719C215.278 147.02 214.626 147.992 213.755 148.765C211.785 150.521 209.595 152.059 207.473 153.66C207.192 153.87 206.786 154.027 206.432 154.033C204.617 154.069 203.302 154.991 201.98 156.031C201.179 156.664 200.194 157.1 199.265 157.572C197.438 158.494 196.374 160.173 194.889 161.437C194.848 161.473 194.845 161.55 194.807 161.6C194.336 162.229 193.86 162.856 193.383 163.485C192.98 164.018 192.518 164.518 192.191 165.089C191.653 166.036 190.837 166.696 189.946 167.32C188.063 168.64 185.888 169.341 183.646 169.716C180.898 170.177 178.753 171.558 176.677 173.151C176.163 173.546 175.616 173.904 175.084 174.283C176.242 172.949 177.329 171.411 178.852 170.683C181.492 169.415 182.848 167.177 184.295 165.07C185.976 162.627 187.733 160.316 190.039 158.375C190.787 157.746 191.39 156.967 192.091 156.283C194.117 154.303 196.108 152.288 198.209 150.383C200.294 148.492 203.126 147.995 205.725 147.103C207.736 146.416 209.806 145.844 211.966 145.781C214.369 145.706 216.774 145.723 219.285 145.701ZM161.746 177.444C159.644 177.841 157.534 178.349 155.417 177.527C154.906 177.328 154.286 177.27 153.728 177.303C152.219 177.402 150.711 177.557 149.211 177.747C147.305 177.985 145.324 178.181 143.672 177.179C141.518 175.876 139.091 175.216 136.843 174.167C134.914 173.267 132.821 172.43 131.301 171.066C129.553 169.498 127.919 167.654 127.241 165.296C127.045 164.617 126.712 163.911 126.235 163.383C124.601 161.583 123.502 159.513 122.549 157.351C122.35 156.904 122.155 156.457 121.956 156.012C122.803 156.415 123.376 156.956 123.926 157.517C125.499 159.112 127.019 160.758 128.647 162.304C129.278 162.903 130.342 163.138 130.871 163.789C131.818 164.946 133.067 165.316 134.446 165.57C136.42 165.929 138.48 166.075 140.345 166.724C143.944 167.974 147.53 169.3 150.465 171.823C151.757 172.938 153.242 173.932 154.8 174.675C157.04 175.743 159.425 176.533 161.746 177.444ZM143.029 222.88C143.882 222.104 144.233 221.936 144.771 222.38C146.002 223.393 147.168 224.476 148.34 225.552C148.7 225.881 148.934 226.347 149.319 226.637C151.813 228.498 154.587 229.71 157.829 229.831C158.586 229.862 159.425 229.859 160.068 230.168C160.995 230.61 161.977 231.181 162.564 231.952C163.283 232.893 163.693 234.069 164.105 235.185C165.821 239.858 168.981 242.887 174.333 243.737C175.92 243.986 177.382 244.717 178.431 246.12C179.56 247.627 180.983 248.936 182.296 250.352C182.088 250.369 181.77 250.46 181.474 250.413C179.317 250.07 177.154 249.8 175.113 248.922C173.561 248.254 171.837 247.931 170.296 247.241C167.484 245.976 164.964 244.292 162.705 242.235C160.723 240.433 158.577 238.796 155.952 237.857C154.406 237.308 153.009 236.606 152.006 235.276C151.155 234.147 150.079 233.172 149.229 232.043C148.706 231.353 148.308 230.535 148.057 229.718C147.735 228.664 146.975 226.842 146.332 226.102C145.572 225.224 144.841 224.318 144.043 223.468C143.783 223.192 143.35 223.059 143.029 222.88ZM115.724 216.044C114.955 213.816 116.223 213.049 117.819 212.4C118.667 212.055 119.369 211.398 120.202 211.009C121.123 210.575 122.122 210.288 123.245 209.877C122.786 211.315 122.33 212.439 122.076 213.601C121.719 215.224 121.4 216.87 121.272 218.521C121.02 221.673 116.858 224.147 113.967 224.423C110.582 224.746 107.401 225.403 105.276 228.374C104.496 229.462 103.157 230.193 102.064 231.079C101.833 231.267 101.587 231.491 101.307 231.562C98.8277 232.214 96.3342 232.827 93.8524 233.467C93.262 233.619 92.6919 233.832 91.8004 234.116C92.1716 232.658 92.423 231.46 92.803 230.301C92.958 229.829 93.3292 229.368 93.7267 229.034C94.3874 228.479 95.1006 227.949 95.8723 227.557C97.5502 226.701 99.082 225.699 100.406 224.39C100.78 224.02 101.35 223.819 101.841 223.559C102.274 223.33 102.739 223.153 103.157 222.905C104.446 222.148 105.715 221.364 106.995 220.6C108.948 219.426 111.07 218.504 112.631 216.779C113.259 216.08 114.215 215.636 115.724 216.044ZM69.2248 281.17C69.2599 281.085 69.2949 280.993 69.33 280.908C71.4084 281.41 73.4985 281.882 75.5651 282.421C78.3217 283.144 81.1542 283.478 83.9809 283.517C86.1119 283.547 88.24 283.001 90.3826 282.865C92.1161 282.755 93.9021 282.678 95.6034 282.945C97.7695 283.285 99.8771 283.967 102.002 284.536C104.154 285.113 106.209 284.447 108.269 284.086C109.006 283.956 109.661 283.763 110.456 283.865C112.865 284.171 115.294 284.342 117.714 284.563C117.302 285.262 116.852 285.687 116.308 285.927C114.996 286.507 113.639 287.001 112.298 287.525C108.214 289.124 103.937 289.657 99.5585 289.499C95.9191 289.367 92.2856 289.033 88.6551 289.712C86.5591 290.104 84.5363 289.734 82.6801 288.715C81.2068 287.906 79.7599 287.056 78.2954 286.236C75.2728 284.544 72.2473 282.86 69.2248 281.17ZM119.915 283.961C119.5 283.997 119.31 284.058 119.149 284.019C117.77 283.68 116.413 283.141 115.013 283.009C112.391 282.758 109.731 282.666 107.15 283.326C105.434 283.765 103.733 284.028 101.982 283.652C100.456 283.324 98.9007 283.061 97.4245 282.586C93.8817 281.446 90.3213 282.009 86.7521 282.297C85.0654 282.432 83.3524 282.675 81.6833 282.528C79.5172 282.338 77.36 281.905 75.2494 281.383C74.5099 281.201 73.4341 281.43 72.946 280.436C73.174 280.323 73.3348 280.168 73.4926 280.176C75.3927 280.254 77.1466 279.737 78.7894 278.92C80.3708 278.131 82.0107 277.628 83.7909 277.438C85.4688 277.258 86.983 277.402 88.43 278.365C89.5729 279.127 90.976 279.627 92.3704 279.177C93.8495 278.699 95.4134 278.166 96.6031 277.264C98.1349 276.104 99.7631 275.82 101.57 275.889C103.148 275.95 104.724 276.066 106.299 276.193C106.989 276.248 107.746 276.239 108.348 276.51C110.903 277.659 113.622 278.539 115.729 280.463C117.019 281.64 118.413 282.713 119.915 283.961ZM74.2029 199.099C74.2029 199.242 74.2029 199.386 74.2029 199.532C74.0509 199.607 73.9077 199.712 73.7469 199.748C71.9053 200.162 70.0053 200.421 68.228 201.009C66.3104 201.644 64.4834 202.321 62.3729 202.012C61.5719 201.896 60.6453 202.486 59.8531 202.348C58.0992 202.039 56.6318 202.749 55.1176 203.257C53.2585 203.878 51.4549 204.648 49.6221 205.344C47.4648 206.161 45.2081 206.5 42.9075 206.799C41.2852 207.008 39.4407 207.409 38.2305 208.345C36.5204 209.667 34.3076 209.951 32.6677 211.271C32.4982 211.406 32.0772 211.285 31.7791 211.246C29.6744 210.992 28.2976 209.518 26.4881 208.568C26.7834 208.298 26.9295 208.046 27.1312 208C28.47 207.685 29.8147 207.392 31.1681 207.138C34.2082 206.578 36.88 205.355 39.2507 203.447C40.4053 202.519 41.671 201.628 43.0391 201.042C45.4975 199.993 48.0465 199.104 50.6159 198.315C51.9752 197.895 53.4514 197.68 54.8867 197.63C56.7166 197.569 58.5552 197.743 60.3881 197.862C63.5042 198.061 66.6232 198.268 69.7363 198.525C71.2301 198.649 72.715 198.903 74.2029 199.099ZM167.084 123.433C166.742 122.03 166.455 120.561 166.017 119.137C164.803 115.175 164.961 111.225 165.999 107.274C166.604 104.963 168.279 103.299 169.948 101.637C171.772 99.8145 173.468 97.9206 174.044 95.3504C174.275 94.3178 174.695 93.3185 175.09 92.3218C176.631 88.4181 179.75 85.6602 183.056 82.466C182.851 83.7111 182.807 84.5476 182.565 85.3289C182.158 86.6237 182.234 87.8715 182.31 89.2105C182.424 91.2065 182.094 93.2798 180.577 94.9169C179.954 95.5878 179.06 96.093 178.624 96.8467C177.142 99.4059 174.868 101.432 173.707 104.27C172.804 106.479 172.304 108.682 171.977 110.949C171.617 113.441 171.299 115.926 170.08 118.198C169.144 119.935 168.118 121.63 167.084 123.433ZM122.029 154.449C125.054 154.886 127.992 155.43 131.018 155.297C133.116 155.206 135.23 155.187 136.759 156.956C136.94 157.166 137.323 157.213 137.606 157.348C139.121 158.069 140.702 158.693 142.131 159.546C144.099 160.716 145.972 162.033 147.84 163.345C148.431 163.759 148.972 164.289 149.378 164.869C150.693 166.751 151.86 168.736 153.237 170.578C153.988 171.583 154.923 172.557 155.996 173.228C157.516 174.178 159.244 174.824 160.872 175.619C161.147 175.754 161.372 175.969 161.623 176.149C158.019 175.249 154.625 174.02 151.731 171.781C149.93 170.384 148.057 169.073 146.2 167.742C145.958 167.569 145.63 167.477 145.324 167.403C143.003 166.834 140.676 166.288 138.358 165.716C136.607 165.285 134.733 165.07 133.146 164.325C130.936 163.287 129.006 161.868 127.475 159.872C125.966 157.903 123.923 156.299 122.029 154.449ZM75.5505 200.2C75.5973 200.377 75.6441 200.554 75.6908 200.731C74.1912 202.103 72.7092 203.486 71.1892 204.833C70.6396 205.324 70.0754 205.896 69.4002 206.155C67.7749 206.782 66.0765 207.229 64.4191 207.787C63.5334 208.082 62.6184 208.364 61.8175 208.811C58.4295 210.7 54.8428 211.481 50.9287 210.816C48.5259 210.407 46.2546 210.465 44.1645 212.008C43.1765 212.734 41.9254 213.369 40.5661 213.22C38.5608 212.996 36.5701 212.657 34.5853 212.312C34.2258 212.251 33.9159 211.925 33.4102 211.613C34.0211 211.393 34.3661 211.23 34.7285 211.147C36.4064 210.766 37.8972 210.112 39.2741 209.073C40.0721 208.474 41.1946 208.196 42.2177 207.944C43.5506 207.613 44.9362 207.478 46.2896 207.213C49.2888 206.63 52.098 205.548 54.8224 204.253C57.1375 203.152 59.6485 203.135 62.1478 202.947C63.9543 202.815 65.8807 202.812 67.5147 202.191C69.903 201.285 72.4403 201.15 74.8343 200.413C75.074 200.339 75.3108 200.269 75.5505 200.2ZM163.681 123.416C163.623 123.51 163.564 123.604 163.506 123.698C161.702 123.507 159.773 123.631 158.127 123.043C156.376 122.419 154.593 121.845 152.856 121.18C151.456 120.641 150.17 119.913 149.2 118.714C148.215 117.497 147.142 116.318 145.958 115.272C144.812 114.261 143.473 113.45 142.231 112.539C141.231 111.804 140.264 111.037 139.252 110.319C138.308 109.648 137.153 109.242 136.914 107.879C136.811 107.307 136.11 106.835 135.7 106.305C135.443 105.974 135.11 105.642 135.011 105.264C134.555 103.489 133.409 101.893 133.575 99.9359C133.637 99.243 133.239 98.5197 132.985 97.5534C135.399 98.6826 137.957 99.2099 139.577 101.198C140.579 102.423 141.503 103.749 142.19 105.148C143.871 108.566 146.765 110.744 150.1 112.55C151.579 113.353 153.196 114.035 154.444 115.092C157.615 117.77 160.615 120.63 163.681 123.416ZM167.645 136.14C167.119 136.088 166.493 136.195 166.087 135.961C164.073 134.799 161.766 134.658 159.562 134.172C157.142 133.636 154.768 132.957 152.78 131.508C150.679 129.978 148.673 128.325 146.636 126.715C145.59 125.892 144.642 124.945 143.38 124.399C140.471 123.137 137.495 122.756 134.385 123.736C132.707 124.269 130.962 124.622 129.29 125.166C127.013 125.912 124.753 126.607 122.283 126.182C121.944 126.122 121.555 126.389 121.181 126.42C120.746 126.45 120.301 126.384 119.86 126.362C119.842 126.24 119.825 126.116 119.807 125.995C120.366 125.757 120.941 125.55 121.479 125.277C122.985 124.515 124.645 123.916 125.922 122.891C127.182 121.878 128.433 120.951 129.88 120.18C132.289 118.894 134.721 118.091 137.554 118.599C140.758 119.173 143.988 119.728 146.616 121.66C148.694 123.19 150.556 124.979 152.497 126.671C154.458 128.377 156.353 130.155 159.074 130.787C160.047 131.014 160.971 131.43 161.939 131.682C164.479 132.347 165.742 134.522 167.645 136.14ZM132.087 271.024C133.704 270.425 135.087 269.865 136.501 269.401C138.042 268.899 139.597 268.413 141.178 268.054C142.465 267.764 143.827 267.772 145.107 267.469C146.92 267.041 148.732 266.939 150.571 267.14C154.26 267.543 157.814 267.391 161.342 265.956C163.886 264.923 166.686 264.523 169.516 265.163C170.086 265.293 170.711 265.199 171.299 265.279C172.313 265.42 173.392 265.47 174.339 266.544C172.55 267.17 170.98 268.159 169.396 268.181C165.984 268.233 163.213 269.456 160.425 271.11C158.799 272.074 156.841 272.662 154.797 272.466C152.918 272.286 151.041 272.04 149.162 271.861C146.221 271.588 143.301 271.508 140.38 272.22C138.805 272.601 137.139 272.805 135.513 272.811C134.303 272.813 132.979 272.568 132.087 271.024ZM93.6332 176.262C91.3707 176.972 89.3975 177.347 87.3689 177.422C86.8924 177.441 86.3867 177.215 85.9307 177.024C83.1098 175.851 80.9058 173.849 78.7192 171.908C77.1816 170.542 75.7581 168.963 74.9191 167.077C74.5362 166.213 73.9223 165.879 73.06 165.799C71.6364 165.672 70.4233 165.183 69.4265 164.187C69.1225 163.883 68.5174 163.797 68.3098 163.472C67.0178 161.415 65.831 159.297 64.539 157.243C63.7 155.913 62.7383 154.648 61.5807 152.997C62.3817 153.387 62.7997 153.527 63.1446 153.765C66.1116 155.822 69.254 157.58 72.5864 159.063C75.5301 160.366 77.509 162.632 79.3039 165.147C81.3676 168.046 83.8786 170.641 86.9392 172.634C88.9298 173.929 91.1368 174.926 93.6332 176.262ZM94.2646 175.426C93.8057 175.359 93.5455 175.384 93.3584 175.285C91.815 174.462 90.3242 173.546 88.7428 172.8C87.287 172.113 86.1967 171.083 85.0683 170.023C82.569 167.673 80.3211 165.147 78.3684 162.376C77.7926 161.556 77.167 160.634 76.3164 160.15C74.5069 159.121 72.6946 158.077 70.7127 157.315C69.3446 156.791 68.038 156.031 66.8541 155.187C65.1411 153.966 63.282 153.006 61.3966 152.073C61.0575 151.904 60.7447 151.694 60.0461 151.286C62.7763 151.17 65.0417 151.048 67.3072 151.001C67.6989 150.993 68.1637 151.233 68.4794 151.487C71.3616 153.801 74.9016 154.797 78.3948 155.838C80.0142 156.321 81.1776 157.114 82.0282 158.497C83.5804 161.017 84.8871 163.687 86.9187 165.931C87.3279 166.384 87.6583 166.903 88.0061 167.4C89.7425 169.877 91.014 172.676 93.6244 174.542C93.8495 174.705 93.9664 175.003 94.2646 175.426ZM75.5768 248.212C75.4014 248.212 75.229 248.21 75.0536 248.21C74.6239 246.7 74.0948 245.206 73.7937 243.674C73.5686 242.523 73.7294 241.335 74.3052 240.242C75.3313 238.299 76.3778 236.363 77.3366 234.387C77.6932 233.655 77.8861 232.835 78.0498 232.035C78.348 230.582 78.4123 229.089 79.2395 227.764C79.4559 227.416 79.6517 226.999 79.6634 226.607C79.7657 223.391 80.9671 220.583 83.0572 218.073C83.5278 217.51 83.902 216.873 84.3755 216.307C84.9397 215.633 85.5653 215.001 86.3107 214.195C86.6088 218.2 85.7465 221.596 83.6798 224.76C82.9227 225.92 82.5778 227.3 82.7444 228.722C82.9549 230.489 83.1741 232.253 83.3466 234.02C83.4226 234.787 83.5015 235.571 83.3992 236.327C82.9754 239.431 81.2916 241.813 78.5263 243.5C77.2167 244.298 76.5298 245.441 76.1235 246.804C75.9773 247.282 75.761 247.743 75.5768 248.212ZM192.924 116.285C193.369 116.553 193.936 116.705 194.079 117.025C194.415 117.779 194.678 118.607 194.734 119.418C194.877 121.442 194.81 123.477 194.973 125.5C195.14 127.576 195.479 129.644 195.76 131.715C195.807 132.063 196.093 132.446 195.999 132.739C195.263 135.061 195.102 137.648 193.31 139.528C192.018 140.886 191.194 142.465 190.194 143.97C188.61 146.349 186.73 148.456 183.795 149.684C183.734 149.149 183.547 148.699 183.67 148.343C184.167 146.882 183.93 145.314 184.827 143.862C185.727 142.41 185.944 140.596 186.666 139.028C187.782 136.599 190.001 134.649 190.2 131.803C190.209 131.649 190.606 131.544 190.738 131.361C190.945 131.072 191.191 130.746 191.229 130.415C191.398 128.921 191.574 127.422 191.606 125.923C191.641 124.101 191.007 122.29 191.746 120.451C192.232 119.236 192.468 117.936 192.924 116.285ZM90.444 235.058C90.3593 235.033 90.2774 235.005 90.1926 234.977C90.178 233.724 90.0406 232.457 90.1809 231.217C90.3213 229.989 90.558 228.711 91.093 227.604C91.511 226.742 91.7478 225.983 91.6367 225.058C91.511 224.001 91.7945 223.073 92.7095 222.317C94.8785 220.522 97.3661 219.203 100.003 218.223C102.827 217.173 105.393 215.904 107.311 213.609C107.77 213.06 108.462 212.687 109.053 212.235C111.356 210.476 114.171 209.904 116.951 209.35C118.454 209.051 120.041 209.151 121.593 209.071C121.257 209.664 120.88 209.971 120.45 210.172C119.313 210.7 118.153 211.18 117.001 211.68C115.852 212.182 114.809 212.825 113.864 213.634C112.473 214.827 111.02 215.956 109.602 217.121C109.421 217.273 109.243 217.469 109.161 217.681C108.661 218.965 107.898 219.868 106.258 219.788C105.948 219.774 105.554 220.053 105.308 220.296C103.926 221.662 102.227 222.491 100.354 223.079C99.9589 223.2 99.4591 223.44 99.3041 223.755C98.4243 225.53 96.5827 226.143 95.0305 227.151C93.3263 228.255 91.3561 229.208 91.435 231.739C91.4701 232.835 90.7977 233.95 90.444 235.058ZM169.989 129.172C168.867 127.772 167.925 126.599 168.183 125.059C168.37 123.949 168.706 122.834 169.179 121.807C169.755 120.556 170.726 119.454 171.205 118.182C171.79 116.622 172.062 114.952 172.439 113.323C172.886 111.393 173.263 109.449 173.74 107.528C174.035 106.327 174.4 105.137 174.83 103.975C175.619 101.855 177.478 100.378 178.659 98.481C179.226 97.57 180.095 96.8191 180.857 96.024C181.802 95.0467 182.784 94.1218 182.822 92.6531C182.834 92.1866 183.135 91.7227 183.404 90.9773C184.45 93.0286 184.272 94.8921 184.342 96.7031C184.389 97.951 183.789 99.0083 182.749 99.8034C180.673 101.396 179.834 103.704 179.118 105.952C178.539 107.757 178.566 109.742 178.382 111.653C178.253 112.994 177.934 114.253 177.054 115.338C175.985 116.655 174.95 117.999 173.816 119.267C171.346 122.022 170.045 125.172 169.989 129.172ZM85.3723 213.226C85.46 213.303 85.5507 213.377 85.6354 213.455C84.8725 214.38 84.0306 215.258 83.3612 216.243C81.8733 218.427 79.8066 220.29 79.4149 223.098C79.2366 224.357 78.2661 225.489 78.576 226.891C78.6286 227.14 78.3597 227.446 78.2632 227.733C77.9563 228.644 77.4827 229.544 77.395 230.475C77.1203 233.362 75.7259 235.82 74.3959 238.337C73.744 239.577 72.6946 240.734 73.0015 242.329C73.212 243.434 73.2412 244.568 73.3523 245.689C72.1655 244.099 71.1278 242.536 71.1015 240.499C71.0752 238.525 70.8062 236.546 70.5285 234.585C70.3327 233.216 70.6074 231.954 71.2418 230.776C71.8439 229.663 72.6332 228.642 73.3084 227.559C74.0422 226.383 74.7788 225.204 75.4394 223.99C76.4187 222.187 77.0764 220.268 78.4181 218.593C80.0288 216.574 82.3849 215.437 84.1622 213.651C84.4252 213.383 84.9631 213.361 85.3723 213.226ZM102.911 305.686C103.163 305.421 103.3 305.219 103.49 305.089C105.414 303.778 107.743 303.057 109.45 301.423C109.661 301.221 110.041 301.188 110.298 301.017C111.824 300.007 113.356 299.005 114.85 297.953C116.215 296.992 117.399 295.697 118.901 295.035C122.26 293.558 125.741 292.315 129.229 291.12C130.351 290.733 131.643 290.714 132.985 291.009C132.558 291.504 132.222 291.857 131.921 292.238C129.676 295.084 126.826 297.194 123.335 298.535C121.003 299.43 118.767 300.435 116.937 302.179C115.177 303.863 112.952 304.391 110.45 304.001C109.605 303.872 108.667 303.921 107.84 304.131C106.22 304.545 104.648 305.128 102.911 305.686ZM63.7263 209.568C63.7468 209.65 63.7702 209.736 63.7936 209.819C62.94 210.6 62.1624 211.473 61.2153 212.132C60.163 212.869 58.982 213.458 57.8069 214.015C56.7955 214.496 55.7432 214.959 54.6499 215.219C53.0042 215.608 51.3146 215.846 49.6337 216.089C46.8275 216.492 44.0213 216.895 41.2033 217.207C38.5725 217.499 36.0761 217.22 33.8633 215.578C32.3491 214.457 30.7092 213.463 29.0313 212.574C27.8942 211.969 26.6109 211.591 25.3569 211.205C24.4653 210.929 23.4831 210.901 22.6091 210.595C21.7409 210.291 20.7646 210.827 19.9139 209.968C19.3235 209.372 18.198 209.264 17.3299 208.897C17.0112 208.764 16.7482 208.519 16.07 208.055C17.6485 208.138 18.7768 208.132 19.8818 208.267C22.0975 208.532 24.2402 209.046 26.111 210.274C26.5788 210.581 26.9558 211.053 27.4616 211.246C31.1214 212.638 34.5678 214.741 38.7771 214.366C40.9753 215.605 42.5363 214.065 44.2756 213.253C44.8982 212.961 45.5501 212.698 46.2195 212.519C47.3741 212.207 48.5025 212.047 49.7624 212.326C53.2088 213.082 56.5587 212.696 59.7537 211.172C61.037 210.562 62.3992 210.098 63.7263 209.568ZM183.035 145.414C182.696 144.45 182.416 143.917 182.328 143.357C182.091 141.83 181.822 140.292 181.784 138.755C181.755 137.576 182.094 136.394 182.208 135.207C182.392 133.302 183.076 131.56 184.292 130.064C185.239 128.899 186.189 127.703 187.169 126.602C188.773 124.805 188.873 122.668 189.44 120.669C189.884 119.104 190.036 117.511 191.395 116.238C191.811 117.497 191.305 118.612 191.065 119.764C190.823 120.92 190.592 122.099 190.557 123.275C190.501 125.119 190.612 126.969 190.665 128.819C190.706 130.318 189.753 131.483 189.165 132.767C188.449 134.332 187.967 136.107 186.847 137.361C185.573 138.788 185.225 140.43 184.573 142.029C184.155 143.056 183.658 144.055 183.035 145.414ZM107.849 77.0605C108.781 77.4249 109.711 77.8003 110.646 78.1565C113.172 79.1172 115.642 80.1801 117.773 81.8117C119.079 82.8111 120.465 83.551 122.14 83.874C123.113 84.0589 124.25 84.2991 124.926 84.9037C127.127 86.8694 128.559 89.3375 129.36 92.1093C129.416 92.3025 129.325 92.5344 129.307 92.7304C126.539 92.6504 124.35 91.6372 122.622 89.7461C120.857 87.8191 118.647 86.4829 116.238 85.4089C115.557 85.1053 114.888 84.7546 114.174 84.5503C110.307 83.4433 109.193 80.1994 107.849 77.0605ZM102.119 307.447C102.072 307.317 102.029 307.19 101.982 307.06C103.227 306.699 104.522 306.445 105.706 305.951C107.378 305.252 109.006 304.86 110.889 305.073C111.932 305.189 113.151 305.514 114.201 304.841C115.384 304.084 116.542 303.286 117.758 302.577C119.424 301.608 121.064 300.556 122.844 299.811C126.186 298.411 129.17 296.636 131.36 293.801C131.646 293.431 132.061 293.144 132.66 292.597C132.184 293.922 131.897 294.996 131.418 295.987C130.708 297.453 130.009 298.96 129.024 300.258C127.855 301.807 126.773 303.46 124.619 304.167C122.35 304.913 120.24 306.075 117.989 306.87C116.451 307.414 114.806 307.513 113.148 307.088C112.078 306.815 110.839 306.953 109.874 306.517C108.544 305.915 107.585 306.39 106.524 306.936C106.372 307.013 106.15 306.969 105.963 306.991C104.683 307.14 103.399 307.292 102.119 307.447ZM122.26 322.153C122.143 321.262 122.725 320.917 123.221 320.596C124.107 320.028 125.072 319.569 125.963 319.012C126.457 318.702 126.96 318.341 127.314 317.902C128.267 316.715 129.144 315.472 130.053 314.255C130.269 313.962 130.562 313.703 130.711 313.382C131.865 310.931 133.341 308.678 135.446 306.851C136.797 305.674 138.103 304.416 139.617 303.458C143.201 301.194 146.908 299.098 149.91 295.893C149.837 296.423 149.811 296.826 149.717 297.21C149.647 297.5 149.492 297.771 149.372 298.049C148.045 301.158 145.476 303.325 142.935 305.492C141.868 306.406 140.708 307.251 139.474 307.947C137.238 309.205 135.192 310.611 133.575 312.593C132.801 313.543 132.222 314.572 131.555 315.566C129.372 318.829 125.905 320.544 122.26 322.153ZM150.749 291.68C150.91 291.788 151.073 291.898 151.237 292.009C150.635 293.036 150.041 294.071 149.428 295.093C148.101 297.298 145.768 298.483 143.725 299.916C141.751 301.301 139.425 302.16 137.65 303.924C135.917 305.641 133.8 306.969 132.517 309.136C131.316 311.166 129.696 312.974 128.483 314.995C127.177 317.167 125.236 318.562 123.005 319.735C123.227 319.249 123.549 318.84 123.859 318.424C124.247 317.899 124.704 317.402 125.002 316.833C126.118 314.697 127.095 312.488 128.296 310.395C129.372 308.526 130.863 306.98 132.526 305.467C134.525 303.645 136.858 302.334 139.03 300.818C141.406 299.162 144.049 297.878 145.402 295.217C145.455 295.115 145.543 295.015 145.639 294.955C147.34 293.859 149.045 292.771 150.749 291.68ZM178.972 189.619C176.78 185.734 173.126 183.214 169.747 180.229C172.988 179.169 176.11 179.042 179.434 179.02C179.565 179.832 179.864 180.599 179.773 181.323C179.489 183.498 179.042 185.651 179.209 187.865C179.25 188.442 179.057 189.033 178.972 189.619ZM202.398 259.059C199.867 259.929 197.484 261.113 194.868 261.823C192.313 262.519 189.887 263.722 187.008 263.419C189.627 261.616 192.509 260.581 195.365 259.429C197.683 258.493 199.841 257.925 202.258 258.745C202.287 258.756 202.296 258.825 202.398 259.059ZM206.485 257.11C209.481 254.115 216.067 249.204 222.176 248.19C221.998 248.497 221.907 248.831 221.682 248.994C220.428 249.885 219.189 250.81 217.853 251.578C216.131 252.566 214.339 253.447 212.545 254.316C210.542 255.283 208.508 256.18 206.485 257.11ZM105.285 291.225C104.595 291.589 103.858 291.896 103.218 292.326C100.85 293.919 98.2986 293.527 95.77 292.939C94.8814 292.732 94.0863 292.147 93.9869 291.067C97.7373 290.717 101.479 291.962 105.285 291.225ZM106.112 199.64C106.071 199.483 106.03 199.323 105.989 199.162C106.828 198.757 107.626 198.224 108.515 197.97C109.959 197.556 111.473 197.371 112.938 197.004C114.522 196.606 116.092 196.153 117.641 195.651C118.772 195.281 119.655 195.565 120.877 196.498C118.506 196.838 116.522 197.078 114.554 197.42C113.277 197.644 112.017 197.986 110.763 198.32C109.205 198.737 107.661 199.201 106.112 199.64ZM260.251 245.667C263.902 246.622 267.398 247.362 270.756 248.464C274.115 249.565 277.825 249.77 280.789 251.906C274.109 250.139 267.488 248.207 260.873 246.258C260.677 246.2 260.543 245.954 260.251 245.667ZM183.254 197.244C185.359 200.405 184.853 203.787 185.45 206.945C184.096 203.941 182.492 200.993 183.254 197.244ZM109.372 191.504C109.652 192.556 108.992 192.586 108.337 192.719C106.206 193.152 104.078 193.608 101.961 194.102C100.929 194.342 99.9268 194.685 98.9095 194.98C98.8569 194.817 98.8043 194.654 98.7546 194.488C102.093 193.061 105.53 191.907 109.372 191.504ZM76.5502 183.506C79.9908 185.099 83.6506 185 86.8105 186.587C83.9546 186.237 81.0548 186.281 78.2895 185.345C77.4506 185.061 76.8835 184.696 76.5502 183.506ZM108.685 290.51C112.689 288.944 116.694 287.379 120.699 285.811C120.751 285.935 120.804 286.057 120.857 286.181C116.937 287.956 113.151 290.051 108.685 290.51ZM122.362 195.62C125.583 194.853 128.15 196.661 131.061 197.321C130.702 197.547 130.328 197.663 130.003 197.586C128.799 197.302 127.612 196.943 126.414 196.634C125.066 196.283 123.713 195.96 122.362 195.62ZM188.522 213.333C190.346 213.248 191.922 213.99 193.465 215.658C191.849 215.928 189.797 214.965 188.522 213.333ZM181.419 189.304C181.027 189.111 180.659 189.025 180.647 188.909C180.553 187.816 180.483 186.714 180.489 185.613C180.489 185.223 180.714 184.831 180.837 184.442C180.954 184.461 181.074 184.481 181.194 184.5C181.264 185.999 181.334 187.501 181.419 189.304ZM177.329 166.71C177.873 169.333 177.873 169.333 177.019 169.683C177.128 168.634 177.23 167.671 177.329 166.71ZM208.423 221.85C208.367 221.963 208.312 222.074 208.259 222.181C207.403 221.803 206.546 221.425 205.365 220.9C206.979 220.533 207.61 221.378 208.423 221.85ZM158.32 273.865C157.238 274.914 157.238 274.914 156.028 274.812C156.975 273.642 156.975 273.642 158.32 273.865ZM166.154 269.956C166.218 270.097 166.283 270.24 166.347 270.384C165.616 270.613 164.888 270.842 164.157 271.071C164.117 270.95 164.076 270.831 164.032 270.71C164.739 270.459 165.447 270.207 166.154 269.956ZM219.721 229.274C219.633 229.376 219.546 229.481 219.455 229.58C218.835 229.183 218.213 228.782 217.59 228.385C217.66 228.294 217.727 228.205 217.795 228.114C218.435 228.501 219.078 228.89 219.721 229.274ZM216.619 227.67C216.523 227.789 216.427 227.91 216.333 228.029C215.953 227.731 215.576 227.432 215.196 227.137C215.237 227.087 215.278 227.043 215.319 226.993C215.751 227.22 216.187 227.446 216.619 227.67ZM138.521 203.45C138.475 203.35 138.428 203.248 138.378 203.146C138.793 202.983 139.205 202.812 139.626 202.663C139.655 202.652 139.743 202.793 139.881 202.953C139.404 203.13 138.963 203.29 138.521 203.45ZM160.998 272.656C160.936 272.507 160.875 272.358 160.813 272.209C161.226 272.06 161.641 271.911 162.053 271.762C162.1 271.866 162.146 271.969 162.196 272.074C161.796 272.267 161.398 272.463 160.998 272.656ZM283.513 252.591C283.572 252.472 283.627 252.354 283.686 252.238C284.165 252.425 284.647 252.616 285.13 252.804C285.086 252.903 285.042 253.002 284.995 253.102C284.501 252.931 284.007 252.762 283.513 252.591ZM181.311 181.485C181.416 181.508 181.524 181.527 181.632 181.546C181.577 182.035 181.524 182.523 181.468 183.012C181.346 182.996 181.226 182.976 181.106 182.96C181.173 182.468 181.24 181.977 181.311 181.485ZM154.523 201.738C154.476 201.873 154.426 202.009 154.379 202.144C153.932 201.978 153.482 201.813 153.032 201.647C153.07 201.553 153.108 201.462 153.143 201.368C153.602 201.49 154.064 201.614 154.523 201.738Z" fill="#3D3D3D"/>
<path d="M141.184 198.133C142.196 198.453 143.187 198.839 144.221 199.057C144.645 199.146 145.157 198.861 145.557 198.508C144.514 198.276 143.464 198.072 142.433 197.799C141.886 197.655 141.436 197.583 141.176 198.185L141.184 198.133Z" fill="#3D3D3D"/>
<path d="M141.175 198.185C140.962 197.437 140.284 197.434 139.676 197.398C138.632 197.335 137.583 197.335 136.533 197.305C136.533 197.305 136.533 197.249 136.533 197.247C137.998 197.934 139.556 198.196 141.184 198.133L141.175 198.185Z" fill="#3D3D3D"/>
</svg>
