<svg width="190" height="193" viewBox="0 0 190 193" fill="none" xmlns="http://www.w3.org/2000/svg">
<path d="M184.671 0.00154114C185.006 10.1366 185.008 20.357 183.394 30.4511C181.702 40.5583 178.099 50.1935 174.471 59.7434C172.584 64.4888 170.913 69.3507 168.152 73.8289C165.383 78.3088 161.629 82.1019 157.747 85.618C150.014 92.7157 141.633 99.1806 132.721 104.874L132.641 104.767C141.036 98.4266 149.089 91.7338 156.75 84.6525C160.543 81.0987 164.276 77.463 167.032 73.1979C169.757 68.9261 171.632 64.1348 173.759 59.4795C175.813 54.798 177.743 50.0591 179.199 45.1792C180.695 40.3092 181.622 35.3146 182.255 30.297C183.649 20.2799 183.934 10.1432 184.531 -9.91821e-05L184.671 0.00154114Z" fill="#373434"/>
<path d="M137.42 96.7803C138.762 97.0524 140.194 97.5769 140.997 98.7834C141.752 100.041 141.49 101.554 141.16 102.835C140.794 104.145 140.275 105.383 139.741 106.597C139.197 107.848 138.487 109.045 137.607 110.151C136.712 111.236 135.601 112.231 134.254 112.895C132.907 113.569 131.43 113.843 130.026 114.011C127.22 114.32 124.408 114.367 121.61 114.179C120.914 114.138 120.211 114.087 119.52 114.021L118.477 113.91C118.135 113.859 117.79 113.908 117.358 113.702C116.919 113.469 116.839 112.944 116.914 112.605C116.976 112.244 117.139 111.913 117.308 111.626C117.636 111.046 117.939 110.453 118.29 109.879C119.625 107.563 121.083 105.288 122.848 103.209C124.63 101.173 126.657 99.2227 129.207 97.9458C130.462 97.3032 131.835 96.8459 133.234 96.6328C134.633 96.4426 136.058 96.482 137.42 96.7803ZM137.39 96.9082C136.045 96.6295 134.627 96.6279 133.31 96.9688C131.994 97.3261 130.764 97.8999 129.667 98.6457C127.473 100.137 125.597 102.032 123.719 103.919C121.864 105.817 120.088 107.842 118.68 110.089C118.332 110.651 117.991 111.22 117.689 111.805C117.38 112.331 117.172 113.09 117.599 113.298C117.794 113.402 118.179 113.397 118.521 113.423L119.553 113.454C120.246 113.467 120.937 113.474 121.628 113.459C124.387 113.397 127.138 113.166 129.841 112.787C131.18 112.59 132.467 112.287 133.565 111.695C134.667 111.097 135.634 110.266 136.438 109.291C137.267 108.33 137.927 107.219 138.52 106.076C139.114 104.891 139.772 103.742 140.287 102.567C140.778 101.404 141.162 100.109 140.65 98.9539C140.098 97.8064 138.706 97.1901 137.39 96.9082Z" fill="#373434"/>
<path d="M150.333 97.0277C149.514 98.6899 148.568 100.286 147.637 101.881C147.167 102.662 146.749 103.448 146.511 104.243C146.264 105.025 146.301 105.845 146.391 106.72C146.488 107.597 146.638 108.525 146.596 109.495C146.553 110.463 146.344 111.382 146.127 112.272C145.673 114.02 145.275 115.901 146.091 117.503L145.624 117.536L146.454 114.192C146.74 113.069 147.16 111.918 147.865 110.894C148.531 109.877 149.357 109.025 149.973 108.118C150.607 107.209 150.973 106.301 151.006 105.281C151.034 104.265 150.843 103.152 150.689 102.009L150.277 98.6079C150.13 97.4785 150.038 96.336 149.93 95.2C149.873 94.6263 149.852 94.0854 149.645 93.6084C149.547 93.3756 149.359 93.1494 149.198 92.8937C149.036 92.6495 148.892 92.2987 149.028 91.9938L149.161 92.0282C149.104 92.5708 149.71 92.8626 150.065 93.392C150.437 93.933 150.543 94.5477 150.669 95.0951C150.926 96.2131 151.194 97.3294 151.409 98.4489L152.077 101.813C152.259 102.929 152.547 104.071 152.49 105.338C152.475 106.624 151.85 107.897 151.105 108.848C150.355 109.823 149.527 110.653 148.845 111.523C147.509 113.243 146.862 115.506 146.105 117.662L145.891 118.275L145.636 117.696C144.831 115.877 145.312 113.956 145.496 112.171C145.598 111.267 145.676 110.369 145.603 109.515C145.52 108.661 145.293 107.794 145.164 106.856C145.036 105.932 145.022 104.883 145.364 103.917C145.678 102.958 146.235 102.144 146.773 101.377C147.887 99.8767 148.993 98.3883 150.216 96.9556L150.333 97.0277Z" fill="#373434"/>
<path d="M144.921 74.3661C143.329 72.0664 141.722 69.7584 139.664 67.893C138.638 66.9636 137.492 66.1784 136.269 65.5506C135.031 64.9392 133.693 64.5228 132.311 64.3015C129.538 63.8655 126.678 64.0114 123.875 64.5638C121.061 65.09 118.295 65.9522 115.55 66.8668L115.636 66.4439C119.504 69.8272 124.012 72.5466 128.781 74.63C129.967 75.1562 131.187 75.6201 132.403 76.0906C133.625 76.5479 134.842 76.9938 136.067 77.2314C137.296 77.4839 138.492 77.4724 139.592 77.0397C140.712 76.6331 141.706 75.8562 142.902 75.1726C143.498 74.8317 144.159 74.5219 144.884 74.3317C145.615 74.1498 146.275 74.0793 146.965 74.0186C148.337 73.9121 149.68 73.9154 150.985 73.9137C152.299 73.9022 153.582 73.858 154.81 73.6351C156.06 73.4023 157.336 73.099 158.57 72.7237C163.506 71.2025 168.13 68.6519 171.879 65.1244L171.981 65.2145C168.633 69.1175 164.035 72.0909 158.969 73.8252C157.697 74.2645 156.423 74.63 155.086 74.9267C153.719 75.1988 152.348 75.2611 151.011 75.2939C149.678 75.3333 148.364 75.3087 147.096 75.4136C146.471 75.4578 145.818 75.5463 145.259 75.6726C144.706 75.8053 144.162 76.0414 143.619 76.3332C142.536 76.9118 141.446 77.7347 140.073 78.2149C138.699 78.7264 137.13 78.6985 135.793 78.3707C134.432 78.0494 133.198 77.5363 131.98 77.0298C130.76 76.5151 129.567 75.948 128.396 75.3529C123.694 72.9663 119.35 70.0501 115.28 66.8242L114.948 66.557L115.363 66.3997C118.065 65.3719 120.764 64.2835 123.635 63.5835C126.495 62.8984 129.567 62.6066 132.534 63.1918C135.5 63.7196 138.318 65.1883 140.294 67.3061C142.336 69.3732 143.768 71.8303 145.042 74.2973L144.921 74.3661Z" fill="#373434"/>
<path d="M147.84 75.0312C146.397 75.5394 145.248 76.4589 144.334 77.5129C143.405 78.5735 142.77 79.8291 142.183 81.1224C141.576 82.4108 141.001 83.7615 140.512 85.1302C140.031 86.5055 139.649 87.9087 139.34 89.3233L138.894 89.0594C140.241 87.9382 141.551 86.7809 142.921 85.6941C144.304 84.6221 145.66 83.5189 147.078 82.4879C148.47 81.4519 149.863 80.4799 150.931 79.2324C151.972 77.9965 152.758 76.4868 152.725 74.7935L152.857 74.7706C153.404 76.454 152.859 78.3604 151.851 79.8504C150.823 81.365 149.403 82.5518 147.989 83.5911C146.585 84.6385 145.115 85.6056 143.678 86.6121C142.23 87.5989 140.717 88.5201 139.238 89.4757L138.544 89.9265L138.792 89.2053C139.273 87.8185 139.68 86.4203 139.982 84.9926C140.258 83.5517 140.513 82.1059 141.048 80.693C141.593 79.2997 142.414 77.944 143.563 76.8523C144.698 75.7738 146.222 74.9853 147.807 74.9017L147.84 75.0312Z" fill="#373434"/>
<path d="M159.306 73.6236C159.197 71.9139 158.14 70.5468 157.15 69.1601C156.149 67.7717 155.038 66.4767 153.912 65.1834C152.799 63.8819 151.614 62.5951 150.236 61.5132C148.845 60.4363 147.278 59.5823 145.643 58.8971L146.178 58.4758C146.849 60.1117 147.217 61.823 147.587 63.4835C147.958 65.1375 148.401 66.7439 149.135 68.1847C149.857 69.6207 150.945 70.896 152.318 71.8762C153.688 72.8728 155.314 73.5842 157.084 73.935L157.076 74.0645C155.231 74.1465 153.348 73.6481 151.714 72.7269C150.095 71.7991 148.677 70.4501 147.809 68.8109C146.934 67.1717 146.587 65.4047 146.301 63.7065C146.008 62.005 145.848 60.3265 145.457 58.6856L145.251 57.8333L145.992 58.266C147.559 59.1725 149.042 60.1642 150.51 61.1739C151.975 62.1919 153.459 63.2196 154.771 64.4474C156.06 65.6915 157.157 67.1094 158.065 68.6208C158.936 70.0813 159.861 71.8614 159.447 73.635L159.306 73.6236Z" fill="#373434"/>
<path d="M127.738 68.4602C129.364 68.2881 130.982 68.747 132.338 69.4896C133.014 69.8896 133.591 70.4239 134.252 70.8091C134.908 71.2091 135.62 71.496 136.359 71.7402C137.839 72.2057 139.224 72.763 140.634 73.1942C142.022 73.6908 143.402 74.0892 144.966 74.3908L144.975 74.5219C143.446 75.0727 141.708 74.9464 140.169 74.5219C138.638 74.04 137.229 73.3056 135.996 72.3696C135.37 71.9238 134.738 71.491 134.031 71.1829C133.335 70.8681 132.553 70.7108 131.834 70.4682C130.414 69.9338 129.128 69.3011 127.709 68.5897L127.738 68.4602Z" fill="#373434"/>
<path d="M144.689 82.321C144.951 81.5014 145.315 80.9342 145.836 80.4392C146.121 80.2113 146.515 80.0294 146.744 79.7376C146.981 79.4524 147.066 79.0901 147.115 78.718C147.179 77.9591 147.391 77.2395 147.806 76.5363C148.261 75.8855 149.052 75.238 149.988 75.2512L150.053 75.3643C149.616 76.0822 149.401 76.6215 149.094 77.2313C148.741 77.8001 148.387 78.4459 147.808 79.0131C147.535 79.3098 147.283 79.6016 147.129 79.9507C146.973 80.2933 146.943 80.7277 146.77 81.085C146.374 81.7669 145.681 82.28 144.779 82.4226L144.689 82.321Z" fill="#373434"/>
<path d="M150.035 64.2646C151.04 64.8924 151.755 65.6645 152.3 66.5628C152.55 67.0299 152.694 67.5709 152.989 68.0102C153.276 68.4577 153.68 68.815 154.116 69.1527C155.006 69.8018 155.759 70.5493 156.474 71.323C157.15 72.1327 157.684 72.9097 158.413 73.7735L158.345 73.885C157.13 73.7473 156.124 72.9867 155.358 72.2376C154.628 71.4393 153.982 70.582 153.515 69.5985C153.267 69.115 152.998 68.6527 152.627 68.2675C152.264 67.8708 151.753 67.5758 151.365 67.1988C150.631 66.4005 150.117 65.453 149.922 64.3335L150.035 64.2646Z" fill="#373434"/>
<path d="M173.734 86.9015C171.707 88.7374 169.784 90.6569 168.031 92.6895C166.326 94.7336 164.75 96.9268 164.294 99.4167C164.068 100.659 164.013 101.966 163.869 103.313C163.723 104.656 163.459 105.985 163.088 107.28C162.393 109.888 161.352 112.363 160.462 114.874L160.064 114.62C163.754 111.753 167.328 108.624 169.791 104.803C171.011 102.897 171.998 100.867 172.493 98.7283C173.031 96.6072 172.932 94.3828 172.968 92.0945C173.017 89.8045 173.113 87.6146 172.725 85.4427C172.554 84.3477 172.305 83.2445 172.088 82.12C171.887 80.989 171.714 79.8563 171.582 78.7203C171.026 74.1716 171.153 69.5589 171.927 65.0774L172.068 65.0905C171.83 69.6212 172.078 74.1306 172.786 78.5646C173.14 80.789 173.73 82.9331 174.163 85.223C174.626 87.5261 174.504 89.8947 174.407 92.1273C174.31 94.3582 174.364 96.7137 173.723 99.0086C173.083 101.285 171.977 103.4 170.561 105.278C167.734 109.067 163.943 111.95 160.389 114.978L159.7 115.563L159.988 114.727C160.862 112.211 161.581 109.649 162.109 107.075C162.357 105.787 162.555 104.495 162.681 103.207C162.803 101.921 162.787 100.569 163.101 99.1987C163.731 96.4383 165.422 94.0861 167.345 92.1322C169.256 90.157 171.361 88.3637 173.647 86.8048L173.734 86.9015Z" fill="#373434"/>
<path d="M173.413 84.2613C173.949 85.812 175.431 86.6791 176.938 87.2119C178.468 87.7462 180.215 88.1773 181.766 88.9527C183.33 89.7116 184.741 90.7148 186.055 91.7885C187.365 92.8671 188.622 93.9784 189.818 95.1652L189.382 95.3603C188.927 93.4146 188.351 91.4918 187.499 89.7592C187.055 88.9035 186.55 88.0823 185.9 87.3873C185.251 86.6857 184.475 86.0923 183.661 85.5284C182.007 84.417 180.199 83.4991 178.285 82.6893C176.377 81.8812 174.444 81.1042 172.446 80.4437L172.474 80.3158C174.6 80.5305 176.681 81.037 178.706 81.6911C180.72 82.3336 182.755 83.1647 184.528 84.3925C186.334 85.5809 187.836 87.361 188.599 89.3149C189.398 91.2689 189.592 93.3047 189.879 95.2783L190 96.1094L189.443 95.475C188.36 94.2407 187.105 93.1293 185.678 92.254C184.265 91.3606 182.736 90.6705 181.225 90.0018C180.463 89.6657 179.703 89.3444 178.925 89.0494C178.142 88.7675 177.326 88.4675 176.521 88.1052C174.94 87.4069 173.355 86.0218 173.277 84.281L173.413 84.2613Z" fill="#373434"/>
<path d="M173.818 89.0288C173.393 90.1664 172.556 91.0794 171.787 91.9514C170.966 92.8284 170.315 93.5972 169.814 94.5709C169.276 95.5199 168.821 96.592 168.549 97.7017C168.281 98.8164 168.161 99.9621 167.945 101.114C167.75 102.275 167.429 103.414 166.964 104.501C166.518 105.591 166.008 106.66 165.397 107.666C164.147 109.678 162.661 111.515 160.964 113.195L160.844 113.12C161.818 110.981 162.996 108.988 164.102 106.993C165.266 105.022 166.316 103.026 167.216 100.929C167.649 99.8736 167.936 98.7623 168.108 97.6247C168.278 96.4887 168.337 95.3085 168.752 94.1414C169.154 92.9694 170.123 91.9744 171.017 91.2449C171.909 90.4598 172.882 89.8025 173.696 88.9615L173.818 89.0288Z" fill="#373434"/>
<path d="M172.195 78.7148C170.407 79.3246 168.502 79.6 167.29 80.7687C165.988 81.8702 165.07 83.4078 163.9 84.7896C162.769 86.1993 161.606 87.5959 160.67 89.1302C159.721 90.6563 158.949 92.2742 158.213 93.897L157.506 93.3265C158.777 92.3381 160.08 91.3841 161.392 90.4514C162.699 89.5089 164.011 88.5745 165.37 87.7041C166.71 86.8091 168.113 85.9912 169.486 85.1371C170.166 84.7388 170.829 84.3208 171.4 83.8078C171.98 83.3094 172.495 82.7243 172.693 81.9833L172.834 81.9965C172.86 82.8161 172.412 83.5963 171.902 84.2339C171.37 84.8782 170.749 85.4322 170.1 85.9469C168.805 86.9009 167.54 87.8992 166.217 88.8155C164.909 89.7531 163.551 90.6284 162.186 91.4956C160.832 92.3742 159.464 93.238 158.067 94.0576L156.343 95.0723L157.362 93.4872C158.339 91.9611 159.367 90.4694 160.308 88.9319C161.266 87.4025 162.08 85.7945 163.01 84.2389C163.939 82.7062 164.983 81.1474 166.585 79.9622C167.354 79.3656 168.383 78.9689 169.331 78.8328C170.284 78.6738 171.226 78.6378 172.169 78.5837L172.195 78.7148Z" fill="#373434"/>
<path d="M172.534 80.78C171.147 81.611 169.998 82.4864 168.792 83.3797C168.195 83.7961 167.49 84.2518 166.917 84.7714C166.334 85.2959 165.857 85.9073 165.4 86.5417C164.522 87.8317 163.496 88.9972 162.415 90.1135C161.287 91.1888 160.082 92.1985 158.668 93.0312L158.567 92.9427C159.32 91.5412 160.285 90.3233 161.328 89.1693C162.413 88.0612 163.555 86.9892 164.843 86.0565C165.475 85.5762 166.081 85.0714 166.584 84.4812C167.106 83.901 167.436 83.1928 168.007 82.5781C169.16 81.4373 170.784 80.6193 172.501 80.6521L172.534 80.78Z" fill="#373434"/>
<path d="M161.054 46.6427C158.758 44.7183 155.938 43.4856 153.006 42.8775C150.066 42.2939 147.006 42.207 144.059 42.7185C142.598 42.984 141.167 43.3332 139.895 44.0134C138.616 44.6888 137.438 45.5657 136.337 46.5427C134.143 48.5261 132.125 50.7325 130.476 53.1617L130.308 52.8241C135.298 53.4781 140.437 53.901 145.331 52.9257C147.77 52.4421 150.08 51.6242 152.206 50.4046C154.355 49.2293 156.399 47.8016 158.663 46.5984C159.78 45.9936 161.013 45.4592 162.215 45.115L165.838 43.9708C168.156 43.1824 170.404 42.1546 172.464 40.8465C176.59 38.2402 180.066 34.6783 182.491 30.4787L182.618 30.5328C180.663 34.9668 177.364 38.9401 173.157 41.7841C171.076 43.2348 168.769 44.4068 166.329 45.2576C163.974 46.1263 161.478 46.6361 159.357 47.8C157.172 48.8966 155.089 50.2784 152.833 51.4553C150.581 52.6585 148.047 53.4634 145.496 53.8174C140.353 54.5075 135.27 53.7781 130.245 53.2667L129.875 53.2306L130.075 52.9224C131.722 50.4538 133.538 48.0704 135.659 45.9083C136.722 44.8281 137.903 43.7971 139.317 43.043C140.721 42.2825 142.289 41.8005 143.854 41.5825C146.973 41.1432 150.194 41.2153 153.23 42.0317C156.253 42.825 159.116 44.3298 161.157 46.5493L161.054 46.6427Z" fill="#373434"/>
<path d="M169.466 42.6293C168.421 42.8588 167.349 42.6113 166.356 42.2867C165.36 41.9458 164.424 41.4557 163.535 40.8819C161.734 39.7378 160.403 38.0412 159.384 36.2889C158.362 34.5219 157.608 32.6778 156.93 30.8042C156.255 28.929 155.737 27.0062 155.392 25.0605L155.199 23.9934L156.032 24.6638C157.662 25.9817 159.328 27.2586 161.06 28.4536C162.777 29.6797 164.671 30.619 166.375 31.9926C168.111 33.4056 169.107 35.4087 169.803 37.3036C170.145 38.2297 170.658 39.1673 170.891 40.1984C170.992 40.7065 171.073 41.2688 170.82 41.7737C170.556 42.2785 169.99 42.5195 169.466 42.6293ZM169.435 42.5031C169.935 42.3802 170.452 42.1425 170.645 41.6966C170.813 41.2491 170.723 40.7475 170.535 40.2918C170.16 39.3755 169.537 38.5707 168.994 37.6527C167.932 35.8808 167.014 34.1498 165.578 32.768C164.891 32.0467 164.091 31.3894 163.275 30.7272C162.465 30.0633 161.645 29.4027 160.795 28.788C159.097 27.5521 157.332 26.3964 155.538 25.2769L156.18 24.8867C156.777 26.7456 157.443 28.5749 158.174 30.378C158.922 32.1664 159.76 33.9433 160.679 35.6333C161.609 37.3183 162.711 38.8821 164.105 40.2312C164.822 40.9016 165.625 41.4999 166.509 41.9605C167.399 42.4097 168.432 42.6916 169.435 42.5031Z" fill="#373434"/>
<path d="M162.585 45.7665C161.653 46.8287 160.976 48.022 160.379 49.2366C159.775 50.4529 159.305 51.7216 158.947 52.9986C158.605 54.2722 158.267 55.6213 158.024 56.9752C157.764 58.3325 157.654 59.7094 157.522 61.0912L157.139 60.8716C158.581 59.8192 159.871 58.603 161.172 57.4211C162.462 56.2278 163.734 55.0148 164.696 53.6756C165.701 52.3363 166.201 50.8922 166.407 49.1727C166.669 47.4991 166.81 45.6894 167.592 44.0715L167.723 44.1142C167.428 45.814 167.622 47.5106 167.549 49.2612C167.509 50.1349 167.469 51.0414 167.197 51.9626C166.919 52.8642 166.482 53.7198 165.914 54.4656C164.789 55.9688 163.371 57.1375 161.964 58.2555C160.539 59.375 158.966 60.3126 157.422 61.2535L156.946 61.5371L157.035 61.0306C157.272 59.6783 157.371 58.3013 157.385 56.9179C157.423 55.5295 157.422 54.1247 157.746 52.7199C158.092 51.3168 158.711 50.0071 159.473 48.7826C160.247 47.5778 161.231 46.4385 162.49 45.6681L162.585 45.7665Z" fill="#373434"/>
<path d="M156.887 26.6418C157.767 26.9811 158.404 27.699 158.942 28.3203C159.494 28.9645 160.014 29.6349 160.434 30.3644C160.839 31.1004 161.153 31.897 161.597 32.615C162.038 33.328 162.599 33.9673 163.187 34.5935C164.414 35.8114 165.348 37.2293 166.478 38.3112C167.571 39.4602 168.92 40.4765 170.177 41.7026L170.104 41.8174C168.396 41.2928 166.764 40.5208 165.412 39.2881C164.744 38.6603 164.239 37.9194 163.782 37.2014C163.316 36.4818 162.93 35.7491 162.548 34.9902C162.168 34.2411 161.754 33.51 161.224 32.8494C160.697 32.1888 160.047 31.6102 159.478 30.9725C158.923 30.3316 158.477 29.6202 158.051 28.894C157.614 28.1547 157.324 27.4269 156.805 26.75L156.887 26.6418Z" fill="#373434"/>
<path d="M180.31 152.602C178.434 151.822 176.707 150.711 174.617 150.409C172.881 150.158 171.134 149.93 169.426 149.558C168.181 149.286 166.992 148.793 165.777 148.399C165.423 148.283 165.074 148.153 164.715 148.057C161.176 147.098 157.615 146.209 154.105 145.159C152.663 144.727 151.24 144.175 149.91 143.424C147.956 142.321 145.814 141.575 143.707 140.775C142.463 140.303 141.213 139.849 139.958 139.405C139.267 139.162 138.545 138.994 137.865 138.731C135.742 137.918 133.611 137.122 131.53 136.223C130.555 135.802 129.692 135.155 128.769 134.622C128.036 134.197 127.29 133.796 126.557 133.37C126.377 133.265 126.235 133.106 126.073 132.97C126.118 132.907 126.162 132.845 126.205 132.783C126.773 133.107 127.318 133.474 127.913 133.745C128.619 134.065 129.362 134.32 130.103 134.566C131.547 135.046 133.002 135.504 134.455 135.964C135.232 136.212 136.01 136.469 136.798 136.684C138.407 137.127 139.722 138.122 141.229 138.751C142.904 139.451 144.415 140.449 146.191 140.98C147.138 141.265 147.947 141.942 148.864 142.354C150.388 143.039 151.951 143.644 153.489 144.3C156.299 145.496 159.239 146.249 162.282 146.68C163.247 146.816 164.2 147.021 165.156 147.204C167.247 147.609 169.349 147.98 171.427 148.445C172.694 148.73 173.9 149.283 175.176 149.506C177.082 149.838 178.77 150.643 180.522 151.34C181.483 151.722 182.512 151.953 183.503 152.271C183.778 152.358 184.028 152.514 184.291 152.632C185.341 153.099 186.385 153.579 187.448 154.017C187.599 154.077 187.846 153.928 188.07 153.873C188.033 153.255 187.54 153.156 187.162 152.968C186.364 152.571 185.557 152.191 184.753 151.804C184.552 151.705 184.366 151.569 184.154 151.504C182.835 151.089 181.511 150.692 180.19 150.283C178.638 149.802 177.095 149.289 175.535 148.835C174.357 148.493 173.152 148.224 171.961 147.916C170.953 147.653 169.96 147.322 168.938 147.129C166.442 146.658 163.932 146.25 161.428 145.816C160.82 145.709 160.223 145.616 159.623 145.418C158.106 144.918 156.535 144.555 154.985 144.141C154.879 144.114 154.706 144.164 154.659 144.108C154.005 143.314 152.953 143.292 152.09 142.906C150.506 142.198 148.907 141.516 147.319 140.813C146.279 140.352 145.257 139.857 144.216 139.405C142.926 138.843 141.614 138.297 140.47 137.508C139.097 136.564 137.516 136.153 135.973 135.592C134.212 134.953 132.427 134.42 130.626 133.902C129.461 133.568 128.388 132.955 127.281 132.45C124.98 131.399 122.703 130.294 120.375 129.296C118.99 128.703 117.643 128.001 116.119 127.7C115.71 127.619 115.373 127.236 114.989 127.011C114.316 126.618 113.643 126.228 112.954 125.862C112.318 125.524 111.865 125.105 111.707 124.38C111.504 123.448 111.15 122.546 110.928 121.617C110.772 120.964 110.755 120.284 110.63 119.625C110.525 119.068 110.38 118.515 110.213 117.973C109.682 116.24 109.036 114.532 108.627 112.776C108.389 111.754 108.365 110.632 108.526 109.593C108.72 108.339 108.417 107.202 108.129 105.998C108.568 105.911 109.038 105.797 109.515 105.73C111.286 105.475 112.874 104.82 114.28 103.789C114.687 103.489 115.005 103.074 115.331 102.686C116.3 101.528 117.718 100.855 118.789 99.8071C118.971 99.6285 119.235 99.5022 119.365 99.2973C120.044 98.227 121.161 97.6221 122.166 96.8976C122.966 96.3206 123.798 95.7813 124.622 95.2338C126.236 94.165 127.191 92.6619 127.715 90.9145C128.18 89.3622 128.989 88.1361 130.619 87.4575C131.339 87.1575 132.012 86.7346 132.412 86.0412C132.625 85.6675 132.498 85.3921 132.059 85.3823C131.544 85.3708 130.957 85.2954 130.52 85.4888C129.508 85.9347 128.482 85.8248 127.451 85.7708C125.587 85.6724 123.768 85.9248 122.026 86.5084C120.589 86.9903 119.21 87.628 117.817 88.2181C116.699 88.6901 116.071 89.672 115.274 90.4752C114.998 90.7539 114.729 91.0391 114.438 91.3014C114.222 91.4964 113.938 91.6292 113.748 91.8407C111.617 94.2208 109.251 96.4238 107.518 99.1088C107.308 99.4334 106.974 99.6875 106.672 100.001C106.594 99.8809 106.485 99.7891 106.495 99.7121C106.646 98.5122 106.733 97.2975 107 96.1206C107.283 94.8748 107.712 93.6553 108.134 92.4439C108.403 91.6718 108.677 90.8719 109.135 90.1982C109.474 89.7015 110.052 89.2458 110.631 89.0229C111.723 88.6 112.337 87.7525 112.995 86.9542C113.587 86.2363 114.234 85.5396 114.533 84.6217C114.642 84.284 115.042 84.0152 115.342 83.748C116.05 83.1185 116.496 82.3645 116.68 81.4597C116.758 81.0794 116.966 80.7237 117.048 80.345C117.228 79.5058 117.223 78.6796 117.119 77.8092C116.836 75.4799 116.699 73.1326 116.557 70.7902C116.503 69.9034 116.131 69.2477 115.39 68.7281C114.72 68.2593 114.038 67.779 114.083 66.9102C113.608 66.7693 113.342 66.9135 113.323 67.2512C113.29 67.8233 112.966 68.2298 112.66 68.6871C111.968 69.728 111.671 70.9295 111.52 72.1229C111.327 73.6227 110.61 74.7865 109.52 75.8405C108.897 76.4438 108.332 77.1355 107.901 77.8715C107.592 78.401 107.511 79.0665 107.398 79.6812C107.233 80.5926 107.118 81.5105 107.006 82.4284C106.841 83.7857 107.294 85.0544 107.78 86.2822C108.163 87.2509 108.16 88.2345 108.253 89.2212C108.267 89.3753 108.135 89.5442 108.059 89.6999C107.993 89.8294 107.835 89.9523 107.844 90.0703C107.958 91.6964 106.757 92.9602 106.5 94.4814C106.433 94.8863 106.299 95.2846 106.146 95.8764C105.924 95.5075 105.74 95.3174 105.69 95.101C105.532 94.4126 105.409 93.7143 105.298 93.016C104.989 91.0588 104.694 89.0983 104.388 87.1378C104.357 86.9329 104.338 86.7133 104.249 86.5281C103.562 85.1003 103.326 83.5546 102.889 82.0613C102.531 80.8352 102.04 79.6451 101.618 78.4354C101.502 78.1026 101.363 77.7781 101.665 77.4289C101.807 77.2617 101.851 76.9667 101.828 76.7372C101.642 74.7751 102.429 73.131 103.671 71.636C104.248 70.9426 104.893 70.2984 105.443 69.5903C106.067 68.7871 106.556 67.8938 106.756 66.9152C106.933 66.0497 107.035 65.1563 107.033 64.2761C107.032 62.8123 107.8 61.6419 108.524 60.4568C108.821 59.9716 109.295 59.5863 109.659 59.1356C109.864 58.8831 110.093 58.6061 110.17 58.3078C110.508 56.9768 110.527 55.6212 110.041 54.3311C109.81 53.7197 109.632 53.146 109.677 52.4985C109.774 51.0822 109.857 49.6627 109.913 48.2448C109.921 47.9924 109.835 47.6301 109.652 47.5121C109.503 47.417 109.133 47.5826 108.883 47.6809C107.752 48.1235 107.176 49.1283 106.386 49.9168C105.82 50.4823 105.235 51.0298 104.675 51.5986C103.725 52.5624 103.291 53.7607 102.951 55.0081C102.526 56.567 101.943 58.0439 100.709 59.2388C99.9016 60.0207 99.1136 60.842 98.4593 61.7386C97.5846 62.9385 97.3173 64.3662 97.1489 65.789C96.9476 67.4856 97.1611 69.3346 97.6575 71.1033C97.7494 71.4295 97.7564 71.7754 97.6279 72.1638C97.0101 70.8853 96.42 69.5936 95.7639 68.3347C95.0766 67.0135 94.6531 65.5973 94.0144 64.2597C93.7749 63.7581 93.3826 63.3401 93.1257 62.886C92.8741 62.4385 92.6189 61.9517 92.4176 61.4747C92.034 60.5617 91.4144 59.8257 90.8538 59.0307C90.0207 57.8488 88.9272 56.9292 87.7314 56.1424C86.9764 55.6441 86.0669 55.1999 85.1748 55.0818C83.0643 54.8048 80.9364 54.3786 78.7877 54.9065C78.1004 55.0769 77.8522 54.8934 77.578 54.2819C77.1753 53.3902 76.8855 52.4149 76.3023 51.6412C75.5351 50.6216 74.8096 49.5184 73.2267 49.289C72.0621 49.1185 71.0399 48.4841 70.0488 47.7957C68.9623 47.0384 67.6814 46.5237 66.4595 45.9499C65.6386 45.5664 64.7916 45.2254 63.9272 44.9484C63.568 44.832 63.1323 44.932 62.5908 44.932C62.688 45.3221 62.7036 45.6041 62.8251 45.8368C63.3736 46.8875 63.9064 47.9514 64.5399 48.9578C64.8367 49.4267 65.288 49.8709 65.7774 50.1594C66.6626 50.6823 67.6068 51.1314 68.5683 51.5199C70.1599 52.1592 71.4859 53.1116 72.6227 54.3246C73.4385 55.1966 74.551 55.5818 75.6931 55.7867C76.941 56.0096 77.5936 56.6571 77.88 57.7767C78.267 59.288 78.543 60.8502 79.1609 62.2763C79.8829 63.9417 80.8566 65.476 82.6304 66.4906C84.5205 67.5708 86.1607 69.0018 87.5596 70.641C88.351 71.5672 89.1859 72.3573 90.5032 72.6408C92.2892 73.0277 94.0421 73.5522 95.809 74.0243C97.0899 74.3669 98.258 74.8079 99.0616 75.9569C99.7732 76.9732 100.438 77.9977 100.667 79.1845C100.745 79.5828 100.327 80.0664 100.136 80.5106C100.322 80.5221 100.506 80.5335 100.691 80.545C100.079 79.9467 99.5024 79.3074 98.8412 78.7616C98.1226 78.1698 97.3832 77.6568 96.3661 77.4338C95.0748 77.1486 93.8495 76.6536 92.7508 75.8127C91.1784 74.6095 89.7881 73.2146 88.1844 72.0557C87.2819 71.4033 86.4088 70.6968 85.2147 70.4935C84.3122 70.3394 83.4062 70.1247 82.5471 69.8214C81.4727 69.4395 80.3723 69.451 79.3327 69.687C78.2531 69.9296 77.1927 70.3657 76.2207 70.882C75.4223 71.3065 74.827 72.0671 74.0373 72.5081C72.8866 73.149 71.6577 73.6735 70.4306 74.1784C69.5802 74.5292 68.6707 74.7538 67.796 75.0521C67.2284 75.2472 66.6713 75.4357 66.4561 76.0897C66.3658 76.3667 66.043 76.5733 65.8173 76.8191C66.1367 77.1847 66.4578 77.1634 66.9334 77.1109C68.3132 76.9568 69.7173 77.0044 71.1023 76.8864C72.6922 76.7503 74.2369 76.9273 75.7642 77.306C76.7553 77.5535 77.5953 78.0256 78.3868 78.6747C79.4924 79.5779 80.7403 80.3237 81.9066 81.1663C82.469 81.5712 83.0174 82.0072 83.5069 82.4891C84.2914 83.2661 85.1974 83.7808 86.3325 83.9398C87.2003 84.0611 87.9136 83.9054 88.5315 83.2398C88.9897 82.7465 89.6493 82.5006 90.3782 82.6907C92.2544 83.1841 94.1862 83.0005 96.0919 83.0841C96.6491 83.1087 97.2357 82.7809 97.7911 82.5711C98.2042 82.4153 98.5808 82.1744 98.9887 82.0055C99.4573 81.8121 99.9086 81.5236 100.455 81.9531C100.598 82.0645 101.018 81.8629 101.243 81.8187C101.804 83.8185 102.295 85.5937 102.805 87.364C102.962 87.9099 103.224 88.4312 103.35 88.9819C103.713 90.5752 104.017 92.1816 104.374 93.7766C104.553 94.5716 104.836 95.3469 105.006 96.1435C105.115 96.655 105.289 97.2516 105.115 97.7008C104.616 98.9875 104.286 100.269 104.548 101.651C102.856 103.077 100.858 104.21 99.9641 106.405C99.1709 105.113 97.8432 104.472 96.5675 103.805C95.8298 103.42 94.9794 103.233 94.1845 102.945C93.1934 102.584 92.5096 101.859 91.8587 101.12C91.4075 100.604 91.0308 100.027 90.642 99.4645C90.0901 98.6663 89.6388 97.7942 88.9949 97.073C88.4812 96.496 87.7609 96.0731 87.0979 95.6256C86.3151 95.0961 85.4994 94.6109 84.6888 94.1191C84.4719 93.9864 84.2341 93.8618 83.9876 93.7929C82.9584 93.5094 82.1704 92.9029 81.3564 92.2669C80.9451 91.9472 80.4626 91.285 79.6954 91.7374C78.2479 90.8703 76.6268 91.5636 75.1099 91.2883C74.013 91.0866 72.9161 90.9785 71.925 90.39C71.4078 90.0835 70.7517 89.9867 70.0644 89.7638C69.4865 89.9622 69.6739 90.4834 69.8249 90.8785C69.9829 91.3014 70.2397 91.7423 70.5851 92.0374C71.3332 92.6734 71.8122 93.4487 72.2721 94.2749C73.041 95.6567 73.9956 96.95 74.702 98.3564C75.2366 99.4219 75.7504 100.474 76.5227 101.405C76.9965 101.976 77.5311 102.441 78.2462 102.751C79.1869 103.159 80.0443 103.792 81.0197 104.069C82.5436 104.502 83.8089 105.367 85.2026 106.01C86.362 106.546 87.5734 106.643 88.7138 106.333C89.9339 106.002 91.102 106.061 92.2753 106.257C93.5839 106.479 94.8423 106.61 96.1752 106.321C96.7792 106.19 97.4752 106.336 98.14 106.208C98.3899 106.159 98.7648 106.418 99.0026 106.62C99.6916 107.206 100.339 107.839 101.007 108.449C102.116 109.455 103.244 110.442 104.327 111.472C104.609 111.739 104.859 112.113 104.937 112.473C105.379 114.511 106.228 116.41 106.981 118.348C107.403 119.438 107.564 120.628 107.754 121.787C107.906 122.715 108.149 123.575 108.826 124.292C108.89 124.359 108.882 124.487 108.932 124.685C108.349 124.516 107.818 124.405 107.32 124.211C105.693 123.584 104.104 122.897 102.377 122.497C101.504 122.294 100.75 121.651 99.9172 121.258C98.8134 120.736 97.6765 120.276 96.5657 119.764C95.8906 119.453 95.2293 119.11 94.5802 118.751C93.1118 117.938 91.5446 117.405 89.861 117.148C89.4826 117.091 89.1477 116.796 88.7676 116.724C86.6536 116.32 84.5274 115.974 82.4152 115.558C81.5734 115.391 80.7316 115.401 79.8864 115.348C79.3396 115.314 78.8051 115.112 78.2583 115.052C76.7674 114.889 75.2314 114.907 73.7926 114.565C72.9282 114.358 71.774 114.486 71.2377 113.489C69.818 112.834 68.7263 111.798 67.5807 110.8C67.093 110.375 67.0167 109.834 66.6834 109.383C65.8382 108.246 65.0328 107.079 64.2674 105.89C63.4326 104.597 62.6949 103.248 61.841 101.968C61.4696 101.407 60.8708 100.984 60.449 100.446C60.0099 99.8875 59.6107 99.2908 59.2862 98.6663C59.0102 98.1335 58.9165 97.5188 58.6544 96.9779C58.3264 96.3075 58.3212 95.6715 58.4201 94.9355C58.7047 92.7914 58.8523 90.631 59.031 88.4738C59.0605 88.1263 59.0328 87.7493 58.9217 87.4214C58.493 86.174 58.6336 84.8938 58.6023 83.6218C58.5885 83.053 58.5989 82.4793 58.5173 81.9187C58.3507 80.7745 57.41 80.2073 56.5092 79.6058C55.992 79.2615 55.4747 78.8927 55.0547 78.4518C54.147 77.5043 53.2462 76.5405 52.4461 75.5127C51.6095 74.4358 50.9239 73.2572 50.1151 72.1606C49.7367 71.6475 49.2213 71.2295 48.7735 70.7607C48.6173 70.5968 48.4732 70.4197 48.3344 70.2411C47.8814 69.6592 47.4683 69.0461 46.9684 68.5052C46.7862 68.3068 46.3991 68.279 46.0277 68.1446C45.5973 69.728 44.8301 71.0099 44.0057 72.2851C43.4295 73.1769 43.1049 74.2161 42.7074 75.2045C42.6207 75.4193 42.704 75.6947 42.7092 75.9422C42.7283 76.8995 42.7074 77.86 42.7838 78.814C42.8324 79.4484 42.9053 80.1205 43.1726 80.6909C43.6412 81.6925 44.1827 82.6858 44.8527 83.5759C45.7813 84.8069 46.5658 86.0871 47.0049 87.5394C47.5967 89.5032 48.685 91.2604 49.7159 93.0192C50.2609 93.9487 51.2589 94.6388 52.0399 95.4469C53.2913 96.7435 55.0755 97.2746 56.5369 98.2614C57.5037 98.9138 58.3802 99.6908 59.2654 100.445C61.4956 102.346 62.714 104.913 64.2431 107.275C64.7812 108.108 65.3279 108.937 65.7271 109.896C65.4789 109.668 65.2012 109.464 64.9842 109.211C63.7953 107.838 62.2281 106.944 60.6434 106.048C59.4858 105.393 58.4114 104.607 57.3232 103.849C56.6879 103.408 56.0388 102.963 55.506 102.423C54.9801 101.889 54.5774 101.243 54.1452 100.632C53.359 99.5186 52.6057 98.381 51.8091 97.2746C51.2172 96.4517 50.707 95.5977 50.2054 94.7224C49.5614 93.5962 48.98 92.316 47.4804 91.8653C46.3123 91.5128 45.1703 91.0686 43.9831 90.7834C43.1396 90.5801 42.4679 90.1244 41.8761 89.6261C41.1905 89.0475 40.3973 88.8573 39.6024 88.8623C38.0247 88.8754 36.4505 89.0475 34.8746 89.1622C34.7322 89.1737 34.5934 89.2442 34.4528 89.2868C34.222 89.8622 34.4684 90.2654 34.878 90.6277C36.4974 92.0603 37.5179 93.8979 38.6825 95.6387C39.2449 96.4779 39.7603 97.3697 40.4685 98.0876C40.9198 98.545 41.6557 98.8695 42.3187 98.9925C43.0702 99.1301 43.4277 99.4645 43.8373 100.038C44.7121 101.268 45.6059 102.505 46.9389 103.382C47.864 103.992 48.6954 104.725 49.6135 105.346C50.5594 105.987 51.5748 106.311 52.8001 106.008C53.9231 105.73 55.0946 105.623 56.2488 105.474C56.9691 105.382 57.6425 105.466 58.3073 105.848C59.1022 106.305 60.0915 106.503 60.7996 107.044C61.8167 107.823 63.0386 108.339 63.8873 109.349C64.7204 110.341 65.7045 111.218 66.6105 112.154C66.8101 112.358 66.9646 112.604 67.2354 112.953C65.8 112.309 64.4479 111.957 63.0455 111.685C62.393 111.557 61.7334 111.195 61.034 111.134C59.6368 111.014 58.2292 110.983 56.832 110.867C55.8948 110.788 54.9697 110.591 54.0342 110.504C51.6251 110.28 49.3688 109.462 47.0361 108.944C45.3109 108.562 43.8165 107.715 42.5894 106.533C42.0011 105.969 41.6505 105.187 41.1732 104.515C40.5483 103.636 39.9009 102.772 39.2657 101.9C38.9897 101.518 38.7086 101.141 38.4569 100.746C38.0525 100.115 37.6845 99.4858 36.9764 99.0646C35.5358 98.2073 35.0238 96.8009 34.6767 95.3207C34.5483 94.7699 34.425 94.2159 34.2358 93.6848C33.8661 92.6422 33.5433 91.5718 33.0278 90.5949C32.587 89.7622 31.9465 89.0098 31.3113 88.2853C30.7889 87.6886 30.1432 87.187 29.5497 86.6461C29.39 86.5002 29.2459 86.3182 29.055 86.2248C28.123 85.7708 27.2118 85.2446 26.2277 84.9298C25.1759 84.5938 24.2838 84.0857 23.3795 83.4939C22.1229 82.6694 20.7361 82.0252 19.4032 81.304C19.3389 81.2695 19.2643 81.2007 19.207 81.2105C17.7144 81.458 16.4474 80.4745 14.9981 80.5188C14.5035 80.5335 14.0418 79.9811 13.4933 80.4876C13.6756 81.1319 14.2501 81.4908 14.7673 81.876C16.286 83.0071 17.428 84.3381 17.7821 86.2117C18.1414 88.1115 18.9536 89.89 19.8787 91.5866C20.6771 93.0537 22.0257 94.1568 23.35 95.2174C24.3254 95.9977 25.4015 96.6615 26.4134 97.4008C27.0313 97.8532 27.5884 98.381 28.2115 98.8253C29.5878 99.8038 31.0596 100.53 32.8647 100.514C34.2983 100.501 35.7181 100.646 37.0684 101.187C37.6047 101.4 38.0195 101.638 38.3562 102.14C38.863 102.894 39.2883 103.671 39.7187 104.459C40.1891 105.315 40.885 106.074 41.5654 106.805C42.4402 107.744 43.3982 108.614 44.5038 109.691C43.7141 109.585 43.1205 109.559 42.5564 109.419C40.6577 108.951 38.7606 108.724 36.7733 108.826C34.1213 108.962 31.4432 108.985 28.812 108.533C27.7099 108.344 26.6581 107.885 25.5803 107.559C24.44 107.211 23.3014 106.869 22.1576 106.536C20.4706 106.044 18.7731 105.589 17.0028 105.451C15.0728 105.3 13.1948 105.546 11.3377 106.062C9.72356 106.511 8.0695 106.828 6.4519 107.264C5.51466 107.516 4.57394 107.816 3.70961 108.234C3.13164 108.513 2.67171 109.023 2.17879 109.449C1.68066 109.883 1.21898 110.355 0.719116 110.788C0.365051 111.095 0.102966 111.414 0.205368 111.901C0.226196 112.004 0.248764 112.132 0.203644 112.217C-0.221588 112.999 0.0630493 113.671 0.646225 114.212C1.31964 114.835 1.35957 115.574 1.27278 116.376C1.88719 116.83 2.58492 116.953 3.30174 116.917C4.92108 116.835 6.53522 116.71 8.15108 116.602C8.67871 116.568 9.20634 116.483 9.73224 116.502C11.2214 116.561 12.6464 116.386 14.0626 115.881C14.7708 115.629 15.616 115.63 16.3953 115.655C18.5666 115.724 20.4619 115.05 22.1611 113.839C24.0633 112.483 26.1825 111.503 28.267 110.437C29.6069 109.752 30.8809 109.698 32.2763 109.772C32.981 109.808 33.6926 109.723 34.4007 109.741C36.0912 109.782 37.7835 109.854 39.4757 109.914C39.5885 109.918 39.7013 109.924 39.8124 109.937C41.0031 110.075 42.2059 110.154 43.3809 110.368C44.4465 110.565 45.5105 110.78 46.5658 111.062C47.7876 111.39 49.0876 111.499 50.3616 111.588C51.672 111.678 52.9945 111.586 54.3084 111.647C57.3752 111.79 60.4751 111.69 63.443 112.65C63.4708 112.66 63.4881 112.703 63.5819 112.821C63.1289 112.999 62.714 113.237 62.268 113.329C60.7285 113.644 59.4094 114.353 58.1129 115.161C57.0837 115.804 55.9312 116.23 54.7006 116.453C54.1904 116.545 53.6523 116.645 53.2063 116.878C51.573 117.728 49.8634 117.751 48.0723 117.532C46.741 117.368 45.382 117.405 44.0404 117.299C41.3884 117.089 38.7433 116.815 36.093 116.619C34.7964 116.522 33.4913 116.512 32.1913 116.512C31.6758 116.512 31.1464 116.594 30.65 116.727C29.4368 117.051 28.2028 117.35 27.0417 117.802C26.0471 118.189 25.037 118.658 24.223 119.302C23.0914 120.2 21.8521 120.908 20.6094 121.63C20.3647 121.772 20.0523 121.808 19.7746 121.902C18.3496 122.377 16.8084 122.515 15.4668 123.252C15.2203 123.389 14.8159 123.362 14.5139 123.295C13.8249 123.141 13.141 122.723 12.4745 122.759C11.027 122.836 9.43718 122.174 8.10422 123.521C8.25522 123.677 8.43919 124 8.72385 124.149C10.6313 125.144 12.629 125.913 14.7968 126.246C15.196 126.308 15.5935 126.455 15.9545 126.631C17.3273 127.295 18.6759 127.983 19.8405 128.973C20.7136 129.716 21.9146 129.817 22.9994 129.899C24.1709 129.99 25.4067 129.873 26.5505 129.603C27.8175 129.303 29.1157 129.306 30.3723 129.016C31.53 128.749 32.7814 128.685 33.8367 128.219C35.5688 127.457 37.2124 126.496 38.502 125.098C39.1442 124.402 39.8072 123.754 40.8191 123.469C42.2458 123.067 43.2628 122.026 44.1567 121.002C45.1165 119.902 46.4373 119.559 47.6609 118.963C48.6954 118.458 49.7888 118.635 50.8493 118.469C52.5849 118.197 54.3275 117.964 55.8809 117.074C56.5179 116.71 57.2295 116.525 58.014 116.461C59.1907 116.366 60.3692 116.209 61.4852 115.715C62.7644 115.15 64.1911 115.134 65.5813 115.032C65.9493 115.006 66.3276 114.899 66.68 114.953C67.4766 115.075 68.2576 115.275 69.0456 115.442C69.0473 115.52 69.0473 115.596 69.0491 115.674C68.5839 115.799 68.1223 115.933 67.6554 116.047C66.5029 116.325 65.3175 116.52 64.1997 116.894C63.3736 117.171 62.5544 117.584 61.8705 118.099C60.0724 119.454 58.1962 120.713 56.5942 122.31C55.7854 123.115 54.836 123.934 53.5569 124.172C53.2722 124.226 52.9303 124.336 52.7567 124.533C52.0885 125.292 51.1496 125.537 50.2314 125.842C49.9849 125.926 49.6795 125.954 49.5024 126.11C47.9994 127.429 46.2568 128.518 45.061 130.14C44.9343 130.312 44.7815 130.514 44.7676 130.711C44.6652 132.165 43.5336 133.211 43.0806 134.535C42.8532 135.207 42.2614 135.787 41.765 136.356C40.8868 137.368 40.8191 138.507 40.9666 139.734C41.1176 140.992 41.0916 142.27 41.2929 143.519C41.4127 144.275 41.7008 145.055 42.1208 145.709C42.8185 146.796 43.6707 147.796 44.4813 148.817C44.6166 148.989 44.8666 149.081 45.0627 149.209C45.2068 148.989 45.4654 148.773 45.4775 148.545C45.5435 147.271 46.0537 146.214 47.0448 145.352C47.5707 144.891 48.0705 144.406 48.593 143.941C50.1793 142.534 50.4362 140.743 50.2505 138.83C50.1672 137.981 50.011 137.138 49.9138 136.289C49.8114 135.405 50.2245 134.625 50.5508 133.842C50.8267 133.179 51.1964 132.553 51.5036 131.904C52.0017 130.857 52.1215 129.737 52.1996 128.609C52.2378 128.077 52.3159 127.545 52.3523 127.013C52.4096 126.188 52.847 125.747 53.6384 125.323C55.2699 124.447 56.8181 123.408 58.0747 122.057C58.5659 121.53 59.0137 121.003 59.786 120.807C60.0984 120.726 60.3762 120.49 60.6486 120.299C61.6154 119.623 62.6359 119.095 63.8578 118.935C64.3681 118.868 64.8437 118.589 65.3522 118.481C66.9108 118.148 68.4781 117.85 70.0436 117.543C70.1894 117.515 70.3751 117.569 70.4862 117.502C71.8955 116.651 73.2528 117.163 74.6777 117.519C76.2242 117.905 77.8348 118.055 79.4108 118.343C80.1068 118.469 80.7889 118.673 81.471 118.863C81.9934 119.007 82.5054 119.184 82.9931 119.338C82.0021 119.869 81.0648 120.407 80.0929 120.887C78.9352 121.462 77.7515 121.987 76.5765 122.534C76.3439 122.643 76.1148 122.762 75.8736 122.856C75.1186 123.149 74.4035 123.484 73.5166 123.443C72.1281 123.379 70.7309 123.467 69.3372 123.492C69.1862 123.495 69.0161 123.457 68.8877 123.511C67.0201 124.3 64.868 124.498 63.3042 125.921C62.6915 126.478 62.2871 127.224 61.5026 127.624C60.6764 128.044 59.8746 128.504 59.0484 128.922C58.0122 129.445 56.7886 129.558 55.8271 130.253C55.1346 130.755 54.475 131.314 53.8537 131.868C53.4874 132.196 53.5395 132.999 53.51 133.592C53.484 134.135 53.3434 134.594 53.0344 135.055C52.5068 135.837 52.5051 136.754 52.578 137.623C52.6873 138.912 52.302 140.077 51.8247 141.341C52.0295 141.47 52.2569 141.613 52.4877 141.759C53.5204 140.695 54.5878 139.805 55.9746 139.343C56.6098 139.131 57.2433 138.864 57.9011 138.779C58.9703 138.641 59.9145 138.205 60.8257 137.751C61.6449 137.343 62.5144 136.827 63.0403 136.138C64.0765 134.778 65.5501 134.432 67.1087 134.14C67.4384 134.078 67.7855 134.091 68.1153 134.022C70.4237 133.537 72.0483 132.302 72.6991 130.108C72.9924 129.124 73.1417 128.101 73.3517 127.096C73.6711 125.557 74.3532 124.303 76.0506 123.718C76.8577 123.441 77.5936 122.982 78.3816 122.651C79.5097 122.177 80.657 121.779 81.8771 121.523C83.4114 121.2 84.8971 120.684 86.4193 120.304C86.9122 120.182 87.4676 120.125 87.964 120.208C89.8523 120.526 91.7442 120.856 93.6065 121.29C95.6945 121.779 97.6609 122.543 99.4139 123.793C100.811 124.79 102.262 125.762 103.815 126.508C105.067 127.108 106.511 127.349 107.865 127.762C108.399 127.924 108.916 128.139 109.449 128.306C110.661 128.688 111.883 129.001 113.143 129.244C114.906 129.585 116.6 130.244 118.348 130.676C119.596 130.986 120.701 131.584 121.809 132.135C122.961 132.711 123.944 133.588 125.013 134.315C126.787 135.523 128.623 136.646 130.688 137.359C132.023 137.822 133.42 138.123 134.748 138.597C135.69 138.935 136.572 139.43 137.464 139.882C138.526 140.42 139.571 140.988 140.619 141.547C140.842 141.665 141.057 141.798 141.407 142.001C140.357 142.301 139.432 142.519 138.547 142.839C138.079 143.008 137.679 143.354 137.252 143.626C137.134 143.7 137.048 143.823 136.923 143.882C134.817 144.882 132.761 146.004 130.575 146.819C129.326 147.286 127.977 147.575 126.856 148.288C125.304 149.276 123.756 150.301 122.369 151.481C121.149 152.517 119.992 152.948 118.398 152.348C116.73 151.72 114.982 151.284 113.302 150.688C112.586 150.432 111.919 150.019 111.282 149.604C110.414 149.042 109.638 148.347 108.748 147.826C107.643 147.181 107.065 146.117 106.226 145.263C105.928 144.959 105.622 144.565 105.239 144.446C104.286 144.146 103.376 143.759 102.34 143.618C101.403 143.492 100.601 142.833 99.9103 142.121C98.7544 140.933 98.2285 139.441 97.5325 138.028C97.4214 137.804 97.352 137.559 97.2218 137.348C96.7393 136.564 96.2134 135.853 95.0991 135.809C94.5403 135.786 93.9866 135.551 93.4312 135.546C91.2721 135.532 89.6736 134.638 88.3944 133.019C87.8459 132.322 87.0701 131.753 86.3064 131.248C85.4456 130.681 84.0102 131.375 83.8019 132.471C83.611 133.471 83.3541 134.489 83.8071 135.517C84.0189 135.999 84.0553 136.55 84.1751 137.068C84.6541 139.164 85.39 141.18 86.4679 143.064C87.2385 144.414 88.3979 145.503 89.5069 146.611C89.6579 146.762 89.8697 146.886 90.078 146.952C91.8084 147.499 93.3357 148.389 94.8579 149.316C96.7844 150.489 98.9279 151.089 101.221 151.23C102.939 151.337 104.491 150.768 106.03 150.189C106.952 149.842 107.839 149.481 108.866 149.578C109.111 149.601 109.371 149.468 109.704 149.388C111.379 150.996 113.662 151.645 115.876 152.415C116.225 152.537 116.583 152.64 117.121 152.81C116.767 152.976 116.571 153.102 116.354 153.163C114.54 153.664 112.813 154.336 111.214 155.312C110.308 155.866 109.324 156.303 108.37 156.784C108.278 156.83 108.148 156.823 108.037 156.815C107.014 156.741 105.968 156.918 104.978 156.495C103.881 156.026 102.783 155.549 101.653 155.158C100.455 154.743 99.2265 154.402 98.0011 154.066C95.9253 153.499 93.853 152.923 91.758 152.425C91.0464 152.256 90.2776 152.281 89.533 152.261C87.6134 152.204 85.817 152.669 84.0467 153.355C82.7606 153.854 81.3877 154.153 80.0651 154.572C77.906 155.258 76.0367 156.376 74.5389 158.008C74.1952 158.385 73.8689 158.782 73.9852 159.349C74.0963 159.897 74.9572 160.688 75.7052 160.714C76.6841 160.749 77.3037 161.17 77.7463 161.95C78.0084 162.411 78.4302 162.624 79.0047 162.745C80.4921 163.057 81.9465 162.904 83.3698 162.541C84.3226 162.296 85.2599 162.257 86.2318 162.204C87.839 162.118 89.4011 162.475 90.9909 162.475C91.0812 162.475 91.1714 162.573 91.3884 162.698C90.4494 163.375 89.651 164.106 88.5871 164.481C87.7765 164.77 86.9382 164.994 86.1346 165.296C85.1956 165.647 84.2827 166.06 83.3524 166.43C82.9063 166.607 82.4568 166.791 81.9899 166.894C81.0353 167.106 80.1311 167.394 79.2199 167.756C78.142 168.184 76.9236 168.291 75.7642 168.535C75.4744 168.597 75.1516 168.596 74.8999 168.724C74.1605 169.099 73.4524 168.689 72.7304 168.701C72.6106 168.704 72.4631 168.571 72.3728 168.466C71.0381 166.947 69.3563 165.817 67.6155 164.776C66.0898 163.862 64.4271 163.329 62.5769 163.209C61.2336 163.124 59.8954 162.944 58.5659 163.167C57.9636 163.268 57.3926 163.588 56.8355 163.86C56.0423 164.249 55.3359 164.886 54.3518 164.726C53.7738 164.632 53.2167 164.429 52.6509 164.273C52.0035 164.093 51.3335 163.711 50.7122 163.773C49.5076 163.891 48.2319 163.796 47.1281 164.47C46.3575 164.939 45.5053 165.199 44.5663 165.222C44.2487 165.23 43.9415 165.445 43.6221 165.534C42.645 165.807 41.6522 165.763 40.6473 165.698C40.1647 165.665 39.6684 165.811 39.1078 165.884C39.349 166.737 39.8905 167.209 40.4581 167.574C41.7268 168.389 43.0667 169.105 44.3684 169.878C45.7639 170.709 47.1368 171.572 48.5426 172.389C48.9106 172.604 49.3514 172.718 49.7732 172.838C50.155 172.946 50.5542 173.013 50.95 173.071C51.3474 173.13 51.764 173.236 52.1475 173.176C52.9442 173.053 54.4004 173.333 54.9714 173.869C56.6741 175.462 58.6475 175.426 60.7267 174.744C61.0027 174.654 61.2145 174.402 61.4887 174.305C62.2142 174.048 62.9414 173.73 63.6964 173.621C65.8416 173.315 67.8359 172.718 69.7451 171.695C71.6282 170.686 73.5808 169.766 75.8059 169.486C77.5433 169.266 79.2598 168.869 80.9729 168.496C81.3929 168.404 81.7626 168.102 82.1479 167.884C83.0903 167.353 84.0883 166.937 85.1818 166.837C85.8326 166.778 86.4366 166.725 86.9417 166.283C87.0562 166.183 87.2662 166.18 87.6168 166.08C86.27 167.568 84.8485 168.663 83.375 169.743C82.2607 170.559 81.0614 171.097 79.777 171.513C79.1886 171.705 78.5274 171.72 77.8939 171.768C76.6737 171.858 75.6306 172.467 74.4868 172.781C73.4055 173.076 72.3988 173.613 71.3141 173.892C69.4118 174.382 68.0424 175.543 66.6765 176.785C66.0673 177.339 65.2481 177.693 64.5087 178.113C63.5558 178.654 62.5474 179.111 61.6345 179.704C60.1106 180.695 58.5937 181.716 57.5262 183.284C57.8265 183.576 58.1042 183.848 58.3854 184.122C59.4302 183.901 60.4456 183.645 61.4765 183.476C62.4971 183.309 63.5072 183.112 64.5087 182.863C64.7065 182.812 64.9478 182.88 65.1613 182.925C65.9475 183.094 66.7233 183.314 67.5148 183.443C68.7037 183.64 69.844 183.342 70.9461 182.97C72.0691 182.589 73.1938 182.188 74.2577 181.683C75.8632 180.917 77.2065 179.859 77.8973 178.214C78.418 176.979 79.0376 175.784 79.5427 174.539C79.8846 173.702 80.5598 172.984 81.1082 172.226C81.228 172.061 81.4311 171.931 81.6255 171.836C83.4722 170.932 85.0794 169.714 86.605 168.401C87.2697 167.829 87.8841 167.194 88.4552 166.537C89.1824 165.701 89.9669 164.95 91.0308 164.509C91.3675 164.37 91.7077 164.226 92.0618 164.144C93.3132 163.849 94.4795 163.424 95.5643 162.722C96.4842 162.127 97.5308 161.706 98.5218 161.208C98.5791 161.264 98.6346 161.319 98.6902 161.375C98.5149 161.596 98.3882 161.916 98.1538 162.019C97.4318 162.341 97.1055 162.972 96.8417 163.567C96.019 165.426 94.7416 166.976 93.4972 168.587C92.0115 170.509 90.0311 171.779 88.0247 173.081C86.9816 173.756 85.8326 174.321 85.2147 175.488C84.996 175.902 84.5031 176.203 84.0953 176.511C82.981 177.346 81.8546 178.165 80.7142 178.97C80.5129 179.113 80.1988 179.106 79.994 179.244C79.5062 179.572 79.0446 179.934 78.5898 180.303C78.392 180.462 78.2774 180.749 78.0605 180.847C77.0521 181.299 76.5071 182.168 75.8423 182.937C75.4883 183.347 75.247 183.789 75.004 184.276C73.9887 186.304 73.0983 188.423 71.413 190.082C70.783 190.703 70.0575 191.238 69.4327 191.861C69.2244 192.069 69.1897 192.434 69.0873 192.698C70.054 193.182 70.8003 192.929 71.6022 192.623C72.9907 192.092 74.3584 191.533 75.7174 190.933C77.2898 190.236 77.9893 188.984 78.8675 187.799C80.0131 186.256 81.32 184.952 83.0799 183.94C84.9752 182.85 86.8445 181.588 87.9293 179.618C89.3924 178.632 89.5451 177.038 90.0103 175.595C90.2272 174.925 90.3314 174.22 90.5153 173.538C90.7392 172.708 91.3849 172.143 91.9698 171.538C93.1882 170.276 94.3997 169.01 95.5834 167.719C95.8472 167.432 96.0329 167.055 96.1613 166.689C96.538 165.606 97.5932 164.86 97.805 163.699C97.8171 163.631 97.8484 163.555 97.8952 163.504C99.0616 162.278 100.009 160.864 101.816 160.277C103.361 159.772 104.803 158.993 106.332 158.443C107.45 158.039 108.618 157.684 109.795 157.528C111.655 157.28 113.516 157.069 115.291 156.469C117.161 155.835 119.014 155.153 120.865 154.464C122.088 154.01 123.314 153.546 124.501 153.01C125.171 152.707 125.747 152.225 126.391 151.861C127.352 151.319 128.314 150.766 129.315 150.297C130.615 149.689 131.953 149.155 133.279 148.598C135.039 147.857 136.662 146.901 138.25 145.878C140.005 144.749 141.932 143.931 143.973 143.403C144.497 143.267 145.181 143.387 145.707 143.588C148.383 144.614 150.997 145.79 153.696 146.75C156.157 147.627 158.7 148.296 161.206 149.06C162.03 149.312 162.841 149.612 163.676 149.835C165.158 150.227 166.647 150.607 168.147 150.938C171.16 151.602 174.049 152.61 176.891 153.735C177.705 154.058 178.411 154.613 179.182 155.038C181.143 156.118 183.226 156.916 185.446 157.39C185.874 157.482 186.26 157.516 186.593 157.098C186.299 156.635 185.751 156.52 185.286 156.431C183.293 156.051 181.494 155.205 179.789 154.251C177.83 153.158 175.783 152.282 173.683 151.492C172.857 151.183 172.019 150.902 171.203 150.561C173.228 150.45 175.129 150.927 176.988 151.586C177.689 151.835 178.357 152.161 179.051 152.428C179.454 152.582 179.848 152.907 180.32 152.581L180.31 152.602ZM126.137 133.889C125.412 133.935 125.216 133.281 124.865 132.848C125.289 133.206 125.712 133.561 126.134 133.919C126.663 133.868 126.96 134.187 127.158 134.637C126.818 134.387 126.478 134.138 126.137 133.889ZM70.6962 114.945C71.2013 114.65 71.7393 114.735 72.3815 115.23C71.7289 115.522 71.2533 115.024 70.7031 114.935C70.3768 114.773 70.0488 114.611 69.6028 114.389C70.271 114.253 70.5626 114.47 70.6962 114.945ZM107.636 114.966C107.806 115.189 108.172 115.332 107.95 115.906C107.767 115.494 107.434 115.33 107.667 114.966C106.839 114.202 106.775 113.983 107.203 113.011C107.363 113.735 107.498 114.352 107.636 114.966ZM111.45 127.911C110.44 128.188 109.784 127.542 109.054 127.095C108.851 127.096 108.628 127.152 108.45 127.091C107.854 126.893 107.292 126.531 106.684 126.447C105.185 126.242 103.932 125.541 102.661 124.859C102.25 124.636 101.875 124.352 101.483 124.095C101.521 124.025 101.559 123.952 101.597 123.882C102.295 124.131 102.993 124.38 103.692 124.629C103.147 124.154 102.5 123.874 101.898 123.526C101.236 123.144 100.617 122.698 99.9797 122.282C99.216 122.313 98.7457 121.761 98.1469 121.467C98.796 121.671 99.5441 121.687 99.9745 122.312C100.178 122.331 100.401 122.302 100.577 122.374C102.224 123.043 103.873 123.708 105.501 124.416C107.054 125.092 108.847 125.287 110.126 126.518C110.525 126.296 110.597 126.021 110.425 125.687C110.013 124.892 109.574 124.106 109.177 123.305C108.92 122.787 108.72 122.244 108.495 121.713C108.582 121.679 108.667 121.646 108.753 121.612C109.692 123.498 110.631 125.387 111.648 127.431C110.713 127.132 109.923 126.944 109.191 126.632C108.163 126.196 107.183 125.662 106.178 125.183C105.584 124.9 104.945 124.779 104.074 124.613C104.38 124.91 104.48 125.083 104.633 125.144C105.525 125.501 106.445 125.801 107.325 126.183C107.925 126.444 108.479 126.806 109.054 127.126C109.944 127.15 110.699 127.537 111.449 127.939C112.058 127.926 112.691 127.813 113.188 128.311C112.542 128.462 111.963 128.331 111.45 127.911ZM143.171 142.379C143.023 142.677 142.716 142.483 142.562 142.549C142.298 142.66 142.152 143.013 141.944 143.254C141.907 143.293 141.791 143.264 141.727 143.293C140.495 143.864 139.17 144.309 138.056 145.041C136.296 146.199 134.514 147.275 132.481 147.998C132.771 147.265 133.201 146.763 133.868 146.399C135.036 145.763 136.275 145.219 137.363 144.478C138.65 143.603 140.106 143.165 141.541 142.637C141.834 142.529 142.109 142.367 142.366 142.242C142.037 141.088 140.901 140.843 140.14 140.133C141.258 140.08 143.287 140.89 144.033 141.608C143.747 141.87 143.461 142.133 143.174 142.401C143.631 142.188 144.086 141.975 144.585 141.743C146.167 142.319 147.814 142.954 149.266 143.954C148.161 143.621 147.112 143.17 146.035 142.795C145.325 142.549 144.604 142.108 143.794 142.633C143.695 142.697 143.384 142.47 143.171 142.379ZM81.0666 117.117V117.15C81.0128 117.099 80.9607 117.007 80.9069 117.007C79.324 116.969 77.8105 116.573 76.2867 116.227C75.7868 116.114 75.3685 115.942 75.011 115.379C75.5386 115.466 75.8961 115.538 76.2571 115.586C79.3448 115.986 82.4325 116.378 85.5185 116.787C86.0704 116.861 86.6171 116.989 87.1569 117.124C88.4291 117.442 89.7065 117.75 90.9649 118.119C91.7945 118.361 92.6137 118.661 93.3965 119.012C94.2088 119.374 94.9655 119.838 95.7569 120.241C96.3748 120.556 97.0066 120.846 97.6332 121.148C97.5932 121.226 97.5533 121.305 97.5134 121.384C96.3974 120.9 95.3074 120.345 94.155 119.953C92.9261 119.535 91.6175 119.327 90.38 118.925C88.2816 118.243 87.6706 118.1 86.7108 118.333C87.9605 118.9 89.4167 118.699 90.5535 119.556C89.0557 119.83 81.4675 118.238 80.0443 117.404C80.3689 117.312 80.7177 117.214 81.0666 117.117ZM51.915 86.887C52.0191 85.5577 51.3492 84.3643 51.16 83.0808C50.9986 81.9842 50.2783 81.0696 49.5389 80.2139C48.796 79.355 48.2389 78.4337 47.8883 77.347C47.6193 76.5077 47.3988 75.6701 47.1836 74.8193C46.8105 73.3408 46.8868 71.8737 46.9216 70.3919C46.925 70.2132 47.0135 70.0362 47.0795 69.7919C47.6731 70.4722 48.1973 71.0656 48.7162 71.6639C49.0269 72.0212 49.3636 72.3605 49.6309 72.7458C50.3737 73.8129 51.0558 74.9177 51.8212 75.9717C52.1892 76.4798 52.7949 76.8486 53.1108 77.3765C53.9717 78.8157 55.1797 79.8992 56.6532 80.7401C57.2642 81.0876 57.5054 81.6252 57.6182 82.2367C57.6807 82.5825 57.6946 82.9382 57.7085 83.2923C57.7501 84.3512 57.6339 85.4364 57.8439 86.4641C58.2413 88.3984 57.9879 90.3031 57.7883 92.2111C57.6148 93.8569 57.2399 95.4862 57.6651 97.2385C55.9642 95.7501 54.7787 94.0569 53.8033 92.2423C53.0778 90.8916 52.42 89.4966 52.1597 87.9738C52.0937 87.5935 51.9965 87.2182 51.9132 86.8362C51.4915 86.9346 51.5505 87.2559 51.5887 87.528C51.9115 89.8736 53.0553 91.9374 54.2251 93.9618C54.7388 94.8453 55.6101 95.5452 56.3183 96.3288C56.5699 96.6091 56.9309 96.8418 56.832 97.4008C56.2922 97.0877 55.8548 96.7779 55.3723 96.5632C53.4215 95.6977 51.8837 94.3814 50.667 92.7291C50.247 92.1587 49.9988 91.4735 49.5753 90.9063C48.4732 89.4376 48.0827 87.687 47.3971 86.0592C47.1472 85.4675 46.9337 84.8954 46.5432 84.3643C45.8229 83.3825 45.1269 82.3776 44.5108 81.3351C44.1706 80.7598 43.8183 80.0893 43.8096 79.4582C43.787 77.6617 43.2906 75.8373 44.0387 74.0604C44.4448 73.0998 44.8214 72.136 45.5869 71.3606C45.8021 71.1426 45.9652 70.8804 46.2516 70.5115C46.2898 71.118 46.38 71.6114 46.3419 72.095C46.2343 73.4572 46.597 74.7734 46.8903 76.0635C47.3103 77.9043 48.2007 79.5845 49.5493 81.0482C50.2835 81.8433 50.6115 82.8956 50.799 83.9627C50.9829 84.9954 51.1391 86.0511 51.915 86.887ZM15.3574 109.703C16.7355 109.754 18.1119 109.829 19.4899 109.847C20.9097 109.865 22.3312 109.867 23.7492 109.8C25.1446 109.732 26.5331 109.567 27.9251 109.446C27.6786 109.741 27.3923 109.89 27.0937 110.013C25.2227 110.783 23.4003 111.673 21.8435 112.904C20.0332 114.332 18.0216 114.875 15.7219 114.834C14.9582 114.822 14.1373 114.961 13.4378 115.243C12.6169 115.574 11.7768 115.566 10.9454 115.653C9.35387 115.819 7.74841 115.907 6.14816 115.983C4.88637 116.042 3.61067 116.343 2.31763 115.892C2.27251 115.471 2.22911 115.061 2.19093 114.701C2.99974 114.009 4.20773 114.012 4.92455 112.924C4.49065 113.091 4.25807 113.181 4.0255 113.271C3.47704 113.486 2.94246 113.745 2.37665 113.906C1.5071 114.155 0.991608 113.863 1.02286 113.055C1.04543 112.435 1.12178 111.608 1.53833 111.254C2.40616 110.513 3.04312 109.539 4.12268 108.998C5.56152 108.278 7.08714 107.859 8.67871 107.616C9.23238 107.531 9.79298 107.469 10.3328 107.331C11.3793 107.062 12.4016 106.698 13.4569 106.462C14.8801 106.144 16.397 106.015 17.7786 106.292C20.2606 106.787 22.6731 107.601 25.1099 108.303C25.6983 108.472 26.2624 108.714 26.8386 108.924C26.613 109.126 26.4377 109.144 26.2641 109.159C25.1793 109.254 24.0946 109.364 23.0081 109.434C22.267 109.482 21.5102 109.559 20.7813 109.47C18.9779 109.254 17.1868 108.934 15.3574 109.703ZM35.8968 99.4858C35.6469 99.5891 35.4369 99.7416 35.2165 99.7563C32.8716 99.9186 30.6691 99.617 28.8259 98.0516C28.215 97.5352 27.5415 97.073 26.849 96.6566C25.5455 95.8698 24.2594 95.0797 23.3135 93.8815C23.0705 93.5749 22.713 93.3438 22.3884 93.1045C21.6265 92.5439 20.9652 91.8702 20.54 91.0784C19.5889 89.3163 18.9137 87.4558 18.6065 85.479C18.5041 84.8249 18.2802 84.166 17.7075 83.6759C17.5217 83.5152 17.4489 83.2366 17.2545 82.8841C17.8116 83.153 18.2004 83.3398 18.6013 83.5333C18.8773 83.0235 18.5041 82.9186 18.2073 82.7891C17.3013 82.3924 17.2996 82.3957 16.9299 81.7597C19.0873 82.0826 20.9878 82.8038 22.6696 84.1086C23.56 84.7987 24.5493 85.3577 25.7504 85.6199C26.7119 85.8314 27.7116 86.2707 28.4614 86.8707C29.9072 88.0214 31.4571 89.0754 32.1305 90.9555C32.8491 92.9586 33.8176 94.8781 33.9824 97.132C33.4913 96.655 33.0678 96.2255 32.6252 95.8141C32.4134 95.619 32.1687 95.4551 31.9361 95.2813C30.9138 94.5224 29.8499 93.8077 28.8797 92.9947C28.0657 92.3095 27.4131 91.4882 26.8612 90.5719C26.2606 89.5753 25.4484 88.6934 24.7732 87.7345C24.3948 87.1985 24.19 86.5363 23.7527 86.056C23.2701 85.5265 22.6089 85.1429 22.0257 84.6954C21.9094 84.6053 21.8001 84.5053 21.6768 84.4233C20.8541 83.8726 19.936 83.5693 18.9085 83.5316C19.2487 83.8037 19.6323 83.9922 20.028 84.1545C21.3974 84.7118 22.6436 85.4642 23.5079 86.6133C24.6083 88.0738 25.5716 89.6294 26.632 91.1178C27.1666 91.8653 27.6995 92.6422 28.385 93.2553C29.8187 94.5388 31.3061 95.7813 32.8751 96.9156C33.4357 97.3238 33.9547 97.7467 34.4354 98.2237C34.6906 98.4777 34.8867 98.7859 35.1488 99.0318C35.3276 99.199 35.5792 99.2973 35.8968 99.4858ZM67.8394 76.0815C68.1275 75.9586 68.3097 75.8291 68.5041 75.811C70.5799 75.6176 72.6505 75.3291 74.7454 75.3848C75.0405 75.3931 75.3512 75.3324 75.6306 75.2406C77.2517 74.7111 78.8641 74.162 80.4799 73.6227C80.5494 73.5998 80.6292 73.6047 80.7038 73.5981C82.3596 73.4604 83.9738 73.6948 85.3536 74.5521C86.6258 75.3422 87.813 76.2848 88.922 77.2748C90.6993 78.8665 92.7543 79.8811 95.1529 80.2582C96.1961 80.4237 97.1628 80.7417 98.2267 81.2089C97.3416 81.8892 96.4495 82.394 95.422 82.3514C93.7766 82.2858 92.1399 82.0547 90.498 81.8941C89.5017 81.7974 88.5732 81.8678 87.9154 82.735C87.7765 82.9169 87.5144 83.1136 87.2975 83.1284C86.4661 83.1841 85.6382 83.0579 84.9839 82.5448C84.0085 81.7826 83.2483 80.7663 81.9969 80.3286C81.8684 80.2844 81.7799 80.1369 81.6654 80.0434C80.0287 78.6813 78.3538 77.3257 76.245 76.6896C74.4156 76.1389 72.5065 75.9389 70.5608 76.1258C69.7121 76.2077 68.8373 76.5765 67.8394 76.0815ZM104.718 157.248C103.899 157.649 103.899 157.656 103.361 157.543C102.625 157.385 101.887 157.233 101.158 157.053C99.3167 156.598 97.5498 156.877 95.7986 157.474C95.0002 157.746 94.1584 157.903 93.3652 158.184C92.5391 158.474 91.7598 158.243 90.9458 158.182C89.2084 158.051 87.4919 158.033 85.7233 158.344C84.1595 158.621 82.5627 158.767 81.0405 159.244C80.1641 159.516 79.2876 159.823 78.4735 160.224C78.1455 160.385 77.9199 160.377 77.6474 160.278C76.8039 159.974 76.0523 159.424 75.0891 159.431C75.0214 159.431 74.952 159.282 74.8253 159.133C75.6098 158.029 76.5835 157.139 77.8435 156.51C80.4886 155.187 83.3906 154.517 86.1884 153.594C88.0386 152.984 90.0103 152.855 91.9611 153.217C93.4989 153.502 94.929 154.218 96.5345 154.25C96.571 154.25 96.6057 154.269 96.6438 154.281C98.7509 154.874 100.783 155.666 102.842 156.392C103.427 156.598 103.972 156.903 104.718 157.248ZM84.55 132.968C85.4785 133.633 86.1797 134.319 86.6657 135.168C87.3704 136.399 87.7349 137.749 88.7207 138.907C89.684 140.038 90.7184 140.903 92.0982 141.457C92.4714 141.606 92.8793 141.721 93.1952 141.946C94.4778 142.857 95.7378 143.798 96.9927 144.745C97.6037 145.206 98.1677 145.724 98.7821 146.183C99.8496 146.978 101.12 147.391 102.391 147.788C103.352 148.088 104.326 148.358 105.299 148.629C105.737 148.75 106.185 148.84 106.856 148.998C105.471 149.927 104.09 150.394 102.758 150.552C100.624 150.804 98.5739 150.212 96.6786 149.166C95.1686 148.332 93.5891 147.606 92.041 146.832C91.3155 146.468 90.4633 146.232 89.887 145.719C87.6741 143.754 86.1936 141.364 85.5601 138.526C85.3275 137.484 84.9839 136.463 84.7444 135.422C84.5725 134.673 84.3365 133.915 84.55 132.968ZM96.118 71.3836C96.0589 71.4246 96.0017 71.4656 95.9444 71.5049C95.2744 70.8541 94.6166 70.1903 93.9345 69.5526C93.3548 69.01 92.7942 68.4314 92.1399 67.9823C91.2391 67.3643 90.2498 66.8447 89.3073 66.3005C88.4135 65.7874 87.5682 65.2399 86.7837 64.6072C86.0513 64.0154 85.4577 63.3434 85.0082 62.4664C84.2081 60.901 83.467 59.1995 81.5803 58.4193C81.0718 58.2094 80.5511 58.0193 80.0651 57.7701C79.2528 57.3538 78.5569 56.8178 78.1872 55.7785C79.1418 55.69 79.987 55.5507 80.834 55.549C81.7296 55.549 82.6252 55.672 83.5208 55.7523C85.0446 55.8883 86.4401 56.308 87.6863 57.2112C88.5072 57.8078 89.1373 58.5242 89.7985 59.2601C91.5828 61.2452 92.5634 63.6401 93.7696 65.9136C94.6375 67.5462 95.0766 69.369 96.0155 70.9853C96.0832 71.1017 96.085 71.2508 96.118 71.3836ZM127.281 88.7C127.337 88.741 127.391 88.7836 127.444 88.8246C127.255 89.313 127.014 89.7917 126.884 90.2933C126.408 92.1374 125.256 93.529 123.708 94.6748C121.939 95.9845 120.03 97.0975 118.443 98.6597C116.756 100.32 114.719 101.65 113.105 103.408C112.775 103.767 112.263 104.062 111.779 104.192C109.468 104.805 107.148 105.412 104.727 105.502C104.045 105.528 103.362 105.566 102.521 105.605C102.908 105.116 103.114 104.705 103.453 104.453C104.544 103.635 105.666 102.849 106.811 102.104C107.268 101.805 107.804 101.594 108.333 101.427C109.401 101.089 110.477 100.769 111.569 100.514C112.53 100.286 113.304 99.8186 113.906 99.1039C114.438 98.4728 114.918 97.8024 115.415 97.1451C115.651 96.8304 115.857 96.496 116.097 96.1845C116.246 95.9911 116.418 95.8075 116.604 95.642C116.932 95.3502 117.27 95.065 117.621 94.7961C118.105 94.4257 118.587 94.0503 119.101 93.7192C119.778 93.2848 120.533 92.9471 121.161 92.4603C121.621 92.1029 122.09 91.8997 122.654 91.8997C123.275 91.9013 123.711 91.6112 124.15 91.2424C125.178 90.3785 126.236 89.5458 127.281 88.7ZM130.2 86.51C130.211 86.8821 129.895 86.9165 129.595 86.9608C129.246 87.0133 128.89 87.0313 128.55 87.1149C127.821 87.2936 127.434 87.8706 126.917 88.3295C125.747 89.3721 124.447 90.2851 123.187 91.2358C123.02 91.3604 122.779 91.4538 122.569 91.4571C121.491 91.4784 120.71 92.0259 119.926 92.6439C119.45 93.0192 118.865 93.2782 118.313 93.5585C117.228 94.106 116.597 95.1027 115.715 95.8534C115.691 95.8747 115.689 95.9206 115.666 95.9501C115.387 96.3239 115.104 96.6959 114.821 97.0697C114.582 97.386 114.307 97.6827 114.113 98.0221C113.794 98.5843 113.309 98.9761 112.78 99.3465C111.662 100.13 110.371 100.546 109.04 100.769C107.408 101.043 106.134 101.863 104.902 102.808C104.596 103.043 104.272 103.256 103.956 103.481C104.643 102.689 105.289 101.776 106.193 101.343C107.761 100.591 108.566 99.2613 109.425 98.0106C110.423 96.5599 111.466 95.1879 112.836 94.0355C113.28 93.6618 113.637 93.1996 114.054 92.793C115.257 91.6177 116.439 90.4211 117.687 89.2901C118.924 88.1673 120.606 87.8722 122.149 87.3427C123.343 86.9346 124.572 86.5953 125.854 86.5576C127.281 86.5133 128.71 86.5231 130.2 86.51ZM96.0364 105.357C94.7885 105.593 93.5353 105.895 92.2787 105.407C91.975 105.289 91.6071 105.254 91.2756 105.274C90.38 105.333 89.4844 105.425 88.594 105.538C87.4624 105.679 86.2856 105.795 85.305 105.2C84.0258 104.426 82.5853 104.035 81.2506 103.412C80.105 102.877 78.8623 102.381 77.9598 101.571C76.9219 100.64 75.9517 99.5449 75.549 98.145C75.4327 97.7418 75.2349 97.3221 74.952 97.009C73.9817 95.9403 73.3291 94.7109 72.7633 93.4274C72.6453 93.1619 72.529 92.8963 72.411 92.6324C72.9143 92.8717 73.2545 93.193 73.5808 93.5258C74.5146 94.4732 75.4171 95.4502 76.3839 96.3681C76.7588 96.7238 77.3905 96.8631 77.7047 97.25C78.267 97.9368 79.0081 98.1565 79.8273 98.3073C80.9989 98.5204 82.2225 98.6072 83.3298 98.9925C85.4664 99.735 87.596 100.522 89.3386 102.02C90.1057 102.682 90.9874 103.272 91.9125 103.713C93.242 104.348 94.6583 104.816 96.0364 105.357ZM84.9231 132.335C85.4299 131.875 85.6382 131.775 85.9576 132.039C86.6883 132.64 87.3808 133.283 88.0768 133.922C88.2903 134.117 88.4291 134.394 88.6582 134.566C90.1387 135.671 91.7858 136.391 93.7106 136.463C94.1602 136.481 94.6583 136.479 95.0401 136.663C95.5903 136.925 96.1735 137.264 96.5224 137.722C96.9493 138.281 97.1923 138.979 97.437 139.641C98.4558 142.416 100.332 144.214 103.51 144.719C104.452 144.867 105.32 145.301 105.943 146.134C106.613 147.029 107.459 147.806 108.238 148.647C108.115 148.657 107.925 148.711 107.75 148.683C106.469 148.48 105.185 148.319 103.973 147.798C103.052 147.401 102.028 147.209 101.113 146.799C99.4434 146.049 97.9473 145.049 96.6057 143.828C95.4289 142.757 94.155 141.785 92.5964 141.228C91.6782 140.902 90.8486 140.485 90.2533 139.695C89.7482 139.025 89.1095 138.446 88.6044 137.776C88.2937 137.366 88.0577 136.881 87.9084 136.395C87.7175 135.769 87.2662 134.687 86.8844 134.248C86.4331 133.727 85.9992 133.189 85.5254 132.684C85.3709 132.52 85.1141 132.442 84.9231 132.335ZM68.7106 128.277C68.2542 126.954 69.0074 126.498 69.9551 126.113C70.4584 125.908 70.875 125.518 71.3696 125.287C71.9163 125.029 72.5099 124.859 73.1764 124.615C72.9039 125.469 72.6332 126.136 72.4822 126.826C72.2704 127.79 72.0812 128.767 72.0049 129.747C71.8556 131.619 69.3841 133.088 67.6675 133.252C65.6577 133.443 63.7693 133.833 62.5075 135.597C62.0441 136.243 61.2492 136.677 60.6 137.204C60.4629 137.315 60.3171 137.448 60.1505 137.49C58.6787 137.877 57.1982 138.241 55.7247 138.621C55.3741 138.712 55.0356 138.838 54.5063 139.007C54.7267 138.141 54.8759 137.43 55.1016 136.741C55.1936 136.461 55.414 136.187 55.65 135.989C56.0423 135.659 56.4658 135.345 56.924 135.112C57.9202 134.604 58.8297 134.009 59.616 133.232C59.8381 133.012 60.1766 132.893 60.4681 132.738C60.725 132.602 61.001 132.497 61.2492 132.35C62.0146 131.901 62.7678 131.435 63.5281 130.981C64.6875 130.285 65.9475 129.737 66.8743 128.713C67.2475 128.298 67.8151 128.034 68.7106 128.277ZM41.102 166.945C41.1228 166.894 41.1436 166.84 41.1645 166.789C42.3985 167.088 43.6395 167.368 44.8666 167.688C46.5033 168.117 48.1851 168.315 49.8634 168.338C51.1287 168.356 52.3923 168.032 53.6645 167.951C54.6937 167.886 55.7542 167.84 56.7643 167.999C58.0504 168.201 59.3018 168.606 60.5636 168.943C61.841 169.286 63.0612 168.891 64.2848 168.676C64.7222 168.599 65.1109 168.484 65.583 168.545C67.0132 168.727 68.4555 168.828 69.8926 168.96C69.6479 169.374 69.3806 169.627 69.0578 169.769C68.2785 170.114 67.4731 170.407 66.6765 170.718C64.2518 171.668 61.7126 171.984 59.1126 171.89C56.9518 171.812 54.7944 171.613 52.6387 172.017C51.3943 172.249 50.1932 172.03 49.0911 171.425C48.2163 170.945 47.3572 170.44 46.4877 169.953C44.693 168.948 42.8966 167.948 41.102 166.945ZM71.1995 168.602C70.9531 168.624 70.8403 168.66 70.7448 168.637C69.9256 168.435 69.1202 168.115 68.2889 168.037C66.732 167.888 65.1526 167.833 63.62 168.225C62.6012 168.486 61.5911 168.642 60.5514 168.419C59.6454 168.224 58.7221 168.068 57.8456 167.786C55.742 167.109 53.628 167.443 51.5088 167.614C50.5074 167.694 49.4903 167.838 48.4992 167.752C47.2131 167.638 45.9323 167.381 44.6791 167.071C44.24 166.963 43.6013 167.099 43.3114 166.509C43.4468 166.442 43.5423 166.35 43.636 166.355C44.7642 166.401 45.8055 166.094 46.781 165.609C47.7199 165.14 48.6936 164.842 49.7506 164.729C50.7469 164.622 51.6459 164.708 52.5051 165.28C53.1837 165.732 54.0168 166.029 54.8447 165.762C55.7229 165.478 56.6515 165.162 57.3579 164.626C58.2674 163.937 59.2341 163.768 60.3067 163.809C61.244 163.845 62.1795 163.914 63.115 163.99C63.5246 164.022 63.9741 164.017 64.3316 164.178C65.8486 164.86 67.4627 165.383 68.7141 166.525C69.4795 167.224 70.3074 167.861 71.1995 168.602ZM44.0578 118.215C44.0578 118.3 44.0578 118.386 44.0578 118.473C43.9675 118.517 43.8825 118.579 43.787 118.6C42.6936 118.846 41.5654 119 40.5101 119.35C39.3716 119.727 38.2868 120.128 37.0337 119.945C36.5581 119.876 36.0079 120.227 35.5376 120.145C34.4962 119.961 33.6249 120.382 32.7258 120.684C31.622 121.053 30.5511 121.51 29.4629 121.923C28.182 122.408 26.8421 122.61 25.4761 122.787C24.5128 122.911 23.4177 123.149 22.6991 123.705C21.6838 124.49 20.3699 124.659 19.3962 125.442C19.2955 125.523 19.0456 125.451 18.8686 125.428C17.6189 125.277 16.8015 124.402 15.7271 123.838C15.9024 123.677 15.9892 123.528 16.1089 123.5C16.9039 123.313 17.7022 123.139 18.5058 122.989C20.3109 122.656 21.8973 121.93 23.3049 120.797C23.9904 120.246 24.742 119.717 25.5542 119.369C27.0139 118.746 28.5274 118.218 30.053 117.75C30.86 117.501 31.7365 117.373 32.5887 117.343C33.6752 117.307 34.767 117.41 35.8552 117.481C37.7054 117.599 39.5573 117.722 41.4057 117.874C42.2926 117.948 43.1743 118.099 44.0578 118.215ZM99.2056 73.2883C99.0026 72.4556 98.8325 71.5836 98.5721 70.7377C97.8518 68.3855 97.9456 66.0398 98.5617 63.6942C98.921 62.3222 99.9155 61.3337 100.907 60.3469C101.99 59.2651 102.996 58.1406 103.338 56.6145C103.475 56.0014 103.725 55.4081 103.96 54.8163C104.874 52.4985 106.726 50.8609 108.689 48.9644C108.568 49.7037 108.542 50.2003 108.398 50.6642C108.156 51.433 108.201 52.1739 108.247 52.9689C108.314 54.1541 108.118 55.3851 107.217 56.3571C106.848 56.7555 106.317 57.0554 106.058 57.5029C105.178 59.0225 103.828 60.2256 103.139 61.9107C102.602 63.2221 102.305 64.5301 102.111 65.8759C101.898 67.3561 101.708 68.8314 100.985 70.1804C100.429 71.2115 99.82 72.2179 99.2056 73.2883ZM72.4544 91.7046C74.2508 91.9636 75.9951 92.2865 77.7915 92.2078C79.0376 92.1538 80.2925 92.1423 81.2002 93.193C81.3078 93.3176 81.5352 93.3454 81.7036 93.4258C82.6026 93.8536 83.5416 94.2241 84.3903 94.7306C85.5584 95.4256 86.6709 96.2075 87.78 96.9861C88.1306 97.232 88.4517 97.5467 88.6929 97.8909C89.474 99.0088 90.1665 100.187 90.984 101.281C91.43 101.877 91.9854 102.456 92.6224 102.854C93.5249 103.418 94.5507 103.802 95.5174 104.274C95.6806 104.354 95.8142 104.482 95.9635 104.589C93.8234 104.054 91.8084 103.325 90.0901 101.995C89.021 101.166 87.9084 100.387 86.8063 99.5973C86.6622 99.494 86.4679 99.4399 86.2856 99.3957C84.9075 99.058 83.526 98.7335 82.1496 98.3941C81.11 98.1384 79.9974 98.0106 79.055 97.568C77.7429 96.9517 76.5973 96.1091 75.6879 94.924C74.7923 93.7552 73.5791 92.8029 72.4544 91.7046ZM44.8579 118.869C44.8857 118.974 44.9134 119.079 44.9412 119.184C44.0508 119.999 43.1709 120.82 42.2683 121.62C41.942 121.912 41.6071 122.251 41.2061 122.405C40.2411 122.777 39.2327 123.043 38.2486 123.374C37.7227 123.549 37.1795 123.716 36.7039 123.982C34.6923 125.103 32.5627 125.567 30.2387 125.172C28.812 124.929 27.4634 124.964 26.2224 125.88C25.6358 126.311 24.893 126.688 24.0859 126.6C22.8952 126.467 21.7133 126.265 20.5348 126.06C20.3213 126.024 20.1373 125.831 19.8371 125.646C20.1998 125.515 20.4046 125.418 20.6198 125.369C21.6161 125.142 22.5013 124.754 23.3187 124.138C23.7926 123.782 24.459 123.616 25.0665 123.467C25.858 123.27 26.6806 123.19 27.4843 123.033C29.265 122.687 30.9329 122.044 32.5506 121.276C33.9252 120.622 35.4161 120.612 36.9 120.5C37.9727 120.422 39.1164 120.42 40.0867 120.051C41.5047 119.513 43.0112 119.433 44.4327 118.995C44.575 118.951 44.7156 118.91 44.8579 118.869ZM97.1854 73.2785C97.1507 73.3342 97.1159 73.39 97.0812 73.4457C96.0103 73.3326 94.8648 73.4063 93.8877 73.0572C92.848 72.6867 91.7893 72.3458 90.7583 71.9508C89.927 71.6311 89.1633 71.1984 88.5871 70.487C88.0022 69.7641 87.3652 69.0641 86.6622 68.4429C85.9819 67.8429 85.187 67.361 84.4493 66.8201C83.8557 66.3841 83.2812 65.9284 82.6807 65.5022C82.1201 65.1039 81.4345 64.8629 81.2922 64.0531C81.2315 63.7138 80.8149 63.4335 80.5719 63.1188C80.4192 62.9221 80.2213 62.7254 80.1623 62.5008C79.8916 61.4468 79.2112 60.4994 79.3101 59.3372C79.3466 58.9258 79.1105 58.4963 78.9595 57.9226C80.3932 58.593 81.9118 58.9061 82.8734 60.0863C83.4687 60.8141 84.0172 61.6009 84.425 62.432C85.423 64.4613 87.1413 65.7546 89.1216 66.8266C89.9999 67.3036 90.9597 67.7085 91.7008 68.3363C93.5839 69.9264 95.3647 71.6245 97.1854 73.2785ZM99.5389 80.8335C99.2265 80.8024 98.855 80.8663 98.6138 80.727C97.4179 80.0369 96.0485 79.9533 94.7399 79.6648C93.3028 79.3468 91.8934 78.9435 90.7132 78.083C89.4653 77.1748 88.2746 76.193 87.0649 75.2373C86.4436 74.7488 85.8812 74.1866 85.1314 73.862C83.4045 73.1129 81.6376 72.8867 79.7909 73.4686C78.7946 73.785 77.7585 73.9948 76.7657 74.3177C75.4136 74.7603 74.072 75.1734 72.6054 74.921C72.4041 74.8849 72.1732 75.0439 71.9511 75.0619C71.6925 75.08 71.4286 75.0406 71.1665 75.0275C71.1561 74.9554 71.1457 74.8816 71.1353 74.8095C71.4668 74.6685 71.8087 74.5456 72.1281 74.3833C73.0219 73.9309 74.0078 73.5752 74.7663 72.967C75.5143 72.3655 76.2571 71.8147 77.1163 71.3574C78.5464 70.5935 79.9905 70.1165 81.6723 70.4181C83.5746 70.7591 85.4924 71.0885 87.0528 72.236C88.2868 73.1441 89.3924 74.2063 90.5448 75.2111C91.7095 76.2241 92.8341 77.2798 94.45 77.6551C95.028 77.7895 95.5764 78.0371 96.1509 78.1862C97.6592 78.5813 98.409 79.8729 99.5389 80.8335ZM78.4267 160.921C79.3865 160.565 80.2074 160.233 81.0475 159.957C81.9622 159.659 82.8855 159.37 83.8245 159.157C84.5882 158.985 85.397 158.99 86.1572 158.81C87.2333 158.556 88.3094 158.495 89.4011 158.615C91.5914 158.854 93.702 158.764 95.7969 157.911C97.3069 157.298 98.9696 157.061 100.65 157.441C100.988 157.518 101.36 157.462 101.708 157.51C102.311 157.593 102.951 157.623 103.513 158.261C102.451 158.633 101.519 159.22 100.579 159.233C98.553 159.264 96.9077 159.99 95.2519 160.972C94.2869 161.544 93.124 161.893 91.9108 161.777C90.7948 161.67 89.6805 161.524 88.5645 161.418C86.8185 161.255 85.0846 161.208 83.3507 161.631C82.4152 161.857 81.4259 161.978 80.4608 161.982C79.7423 161.983 78.9561 161.837 78.4267 160.921ZM55.5945 104.656C54.2511 105.077 53.0796 105.3 51.875 105.344C51.5921 105.356 51.2919 105.221 51.0211 105.108C49.3462 104.412 48.0376 103.223 46.7393 102.071C45.8264 101.259 44.9811 100.322 44.483 99.2023C44.2556 98.6892 43.8911 98.4909 43.3791 98.4433C42.5339 98.3679 41.8136 98.0778 41.2218 97.486C41.0412 97.3057 40.682 97.2549 40.5587 97.0615C39.7916 95.8403 39.0869 94.583 38.3198 93.3635C37.8217 92.5734 37.2506 91.8226 36.5633 90.8424C37.0389 91.0735 37.2871 91.1571 37.4919 91.2981C39.2536 92.5193 41.1194 93.5635 43.098 94.4437C44.8457 95.2174 46.0208 96.5632 47.0864 98.0565C48.3118 99.7776 49.8027 101.318 51.6199 102.502C52.8019 103.271 54.1123 103.862 55.5945 104.656ZM55.9694 104.159C55.6969 104.12 55.5424 104.135 55.4314 104.076C54.5149 103.587 53.6298 103.043 52.6908 102.6C51.8264 102.192 51.179 101.581 50.5091 100.951C49.0251 99.5563 47.6904 98.0565 46.531 96.4107C46.1891 95.9239 45.8177 95.3764 45.3126 95.0895C44.2383 94.4781 43.1622 93.8585 41.9854 93.4061C41.1732 93.0947 40.3973 92.6439 39.6944 92.1423C38.6773 91.4178 37.5735 90.8473 36.454 90.2933C36.2526 90.1933 36.0669 90.0687 35.6521 89.8261C37.2732 89.7573 38.6183 89.6851 39.9634 89.6573C40.196 89.6524 40.472 89.795 40.6594 89.9458C42.3707 91.3194 44.4726 91.9112 46.5467 92.5291C47.5082 92.816 48.199 93.2864 48.704 94.1077C49.6257 95.6042 50.4015 97.1893 51.6078 98.522C51.8507 98.7908 52.0469 99.099 52.2534 99.3941C53.2844 100.864 54.0394 102.527 55.5893 103.635C55.7229 103.731 55.7924 103.908 55.9694 104.159ZM44.8735 147.376C44.7694 147.376 44.667 147.375 44.5628 147.375C44.3077 146.478 43.9935 145.591 43.8148 144.682C43.6811 143.998 43.7766 143.293 44.1185 142.644C44.7277 141.49 45.3491 140.341 45.9184 139.167C46.1301 138.733 46.2447 138.246 46.3419 137.771C46.5189 136.909 46.5571 136.022 47.0483 135.235C47.1767 135.028 47.293 134.781 47.2999 134.548C47.3607 132.638 48.074 130.971 49.315 129.481C49.5944 129.147 49.8166 128.768 50.0978 128.432C50.4327 128.032 50.8042 127.657 51.2467 127.178C51.4238 129.557 50.9118 131.573 49.6847 133.451C49.2352 134.14 49.0303 134.96 49.1293 135.804C49.2542 136.853 49.3844 137.9 49.4868 138.949C49.5319 139.405 49.5788 139.871 49.5181 140.32C49.2664 142.162 48.2667 143.577 46.6248 144.578C45.8472 145.052 45.4393 145.731 45.1981 146.54C45.1113 146.824 44.9829 147.098 44.8735 147.376ZM114.549 69.0445C114.812 69.2035 115.149 69.2936 115.234 69.4838C115.434 69.9313 115.59 70.423 115.623 70.9049C115.708 72.1065 115.668 73.3146 115.765 74.5161C115.864 75.7487 116.066 76.9765 116.232 78.2059C116.26 78.4124 116.43 78.6403 116.374 78.814C115.937 80.1926 115.842 81.7285 114.778 82.8448C114.011 83.6513 113.521 84.5889 112.928 85.4823C111.987 86.8952 110.871 88.1459 109.128 88.8754C109.092 88.5574 108.981 88.2902 109.054 88.0787C109.349 87.2116 109.208 86.2805 109.741 85.4183C110.275 84.5561 110.404 83.4792 110.833 82.5481C111.496 81.1056 112.813 79.9484 112.931 78.2583C112.936 78.1666 113.172 78.1043 113.25 77.9961C113.374 77.824 113.519 77.6305 113.542 77.4338C113.643 76.547 113.747 75.657 113.766 74.7669C113.787 73.685 113.41 72.6097 113.849 71.518C114.137 70.7968 114.278 70.0247 114.549 69.0445ZM53.7009 139.566C53.6506 139.551 53.602 139.535 53.5517 139.518C53.543 138.774 53.4614 138.022 53.5447 137.286C53.628 136.556 53.7686 135.797 54.0862 135.14C54.3344 134.628 54.475 134.178 54.4091 133.629C54.3344 133.001 54.5028 132.45 55.046 132.001C56.3339 130.935 57.8109 130.152 59.3764 129.57C61.053 128.947 62.5769 128.193 63.7155 126.831C63.988 126.505 64.3993 126.283 64.7499 126.014C66.1176 124.97 67.789 124.631 69.4396 124.302C70.3317 124.124 71.2742 124.184 72.1958 124.136C71.9962 124.488 71.7723 124.67 71.5172 124.79C70.842 125.103 70.1529 125.388 69.4691 125.685C68.787 125.983 68.1674 126.365 67.6068 126.846C66.7806 127.554 65.918 128.224 65.0762 128.916C64.9686 129.006 64.8627 129.122 64.8142 129.249C64.5174 130.011 64.0644 130.547 63.0907 130.499C62.9067 130.491 62.6724 130.657 62.5266 130.801C61.7056 131.612 60.6972 132.104 59.5847 132.453C59.3504 132.525 59.0536 132.668 58.9616 132.855C58.4392 133.909 57.3457 134.273 56.4241 134.871C55.4122 135.527 54.2424 136.092 54.2893 137.595C54.3101 138.246 53.9109 138.908 53.7009 139.566ZM100.931 76.6962C100.264 75.8651 99.7055 75.1685 99.8582 74.2538C99.9693 73.5949 100.169 72.9326 100.45 72.3228C100.792 71.5803 101.368 70.9263 101.653 70.1706C102 69.2444 102.161 68.2527 102.385 67.2856C102.651 66.1398 102.875 64.9858 103.158 63.845C103.333 63.1319 103.55 62.4254 103.805 61.7353C104.274 60.4764 105.378 59.5995 106.079 58.4733C106.415 57.9324 106.931 57.4865 107.384 57.0145C107.945 56.4342 108.528 55.8851 108.55 55.013C108.557 54.736 108.736 54.4606 108.896 54.018C109.517 55.2359 109.411 56.3424 109.453 57.4177C109.481 58.1586 109.125 58.7864 108.507 59.2585C107.275 60.2043 106.776 61.5747 106.351 62.909C106.008 63.981 106.023 65.1596 105.914 66.2939C105.837 67.0906 105.648 67.838 105.126 68.4822C104.491 69.2641 103.876 70.0624 103.203 70.8148C101.736 72.4507 100.964 74.321 100.931 76.6962ZM50.6896 126.603C50.7417 126.649 50.7955 126.693 50.8458 126.739C50.3928 127.288 49.893 127.809 49.4955 128.395C48.6121 129.691 47.385 130.798 47.1524 132.465C47.0465 133.212 46.4703 133.884 46.6543 134.717C46.6855 134.864 46.5258 135.046 46.4686 135.217C46.2863 135.758 46.0051 136.292 45.9531 136.845C45.7899 138.559 44.962 140.018 44.1723 141.513C43.7853 142.249 43.1622 142.936 43.3444 143.883C43.4694 144.539 43.4867 145.213 43.5527 145.878C42.848 144.934 42.2319 144.006 42.2163 142.797C42.2007 141.624 42.041 140.449 41.8761 139.285C41.7598 138.472 41.9229 137.723 42.2996 137.023C42.6571 136.363 43.1257 135.756 43.5267 135.114C43.9623 134.415 44.3997 133.715 44.7919 132.994C45.3734 131.924 45.7639 130.785 46.5605 129.79C47.5169 128.591 48.9158 127.916 49.9711 126.855C50.1273 126.696 50.4466 126.683 50.6896 126.603ZM61.1034 181.501C61.2526 181.344 61.3342 181.224 61.447 181.147C62.5891 180.368 63.9724 179.941 64.986 178.97C65.1109 178.85 65.3366 178.831 65.4893 178.729C66.3953 178.129 67.3048 177.534 68.1917 176.91C69.0022 176.339 69.7052 175.57 70.5973 175.177C72.5915 174.3 74.6586 173.562 76.7292 172.853C77.3957 172.623 78.1629 172.612 78.9595 172.787C78.7061 173.081 78.5065 173.29 78.3278 173.517C76.9948 175.207 75.3026 176.459 73.2302 177.256C71.8452 177.787 70.5174 178.383 69.4309 179.419C68.3861 180.419 67.0653 180.732 65.5796 180.501C65.078 180.424 64.5208 180.454 64.0296 180.578C63.0681 180.824 62.1343 181.17 61.1034 181.501ZM37.8373 124.431C37.8494 124.48 37.8633 124.531 37.8772 124.58C37.3704 125.044 36.9087 125.562 36.3464 125.954C35.7215 126.391 35.0204 126.741 34.3226 127.072C33.7221 127.357 33.0973 127.632 32.4482 127.786C31.471 128.018 30.4678 128.159 29.4698 128.303C27.8036 128.542 26.1374 128.781 24.4642 128.967C22.9022 129.14 21.42 128.975 20.1061 128C19.207 127.334 18.2334 126.744 17.2371 126.216C16.5619 125.857 15.8 125.633 15.0554 125.403C14.526 125.239 13.9429 125.223 13.4239 125.041C12.9084 124.86 12.3287 125.178 11.8237 124.669C11.4731 124.315 10.8049 124.251 10.2894 124.033C10.1002 123.954 9.94398 123.808 9.54132 123.533C10.4786 123.582 11.1485 123.579 11.8046 123.659C13.1202 123.816 14.3924 124.121 15.5032 124.851C15.7809 125.033 16.0048 125.313 16.3051 125.428C18.4781 126.254 20.5244 127.503 23.0237 127.28C24.3289 128.016 25.2557 127.101 26.2884 126.619C26.6581 126.446 27.0451 126.29 27.4426 126.183C28.1282 125.998 28.7981 125.903 29.5462 126.069C31.5925 126.518 33.5815 126.288 35.4786 125.383C36.2405 125.021 37.0493 124.746 37.8373 124.431ZM108.677 86.3396C108.476 85.7675 108.309 85.4511 108.257 85.1184C108.116 84.2119 107.957 83.2989 107.934 82.3858C107.917 81.6859 108.118 80.9843 108.186 80.2795C108.295 79.1484 108.701 78.1141 109.423 77.2257C109.986 76.5339 110.55 75.8242 111.131 75.1701C112.084 74.103 112.143 72.8343 112.48 71.6475C112.744 70.7181 112.834 69.7723 113.641 69.0166C113.887 69.7641 113.587 70.4263 113.445 71.1098C113.301 71.7967 113.164 72.4966 113.143 73.1949C113.11 74.2899 113.176 75.3881 113.207 76.4864C113.231 77.3765 112.665 78.0682 112.317 78.8304C111.891 79.7598 111.605 80.8138 110.94 81.558C110.183 82.4055 109.977 83.3808 109.59 84.3299C109.342 84.9397 109.047 85.5331 108.677 86.3396ZM64.0349 45.7549C64.5885 45.9712 65.1404 46.1942 65.6959 46.4056C67.1954 46.9761 68.662 47.6071 69.9273 48.5759C70.7031 49.1693 71.5258 49.6086 72.5203 49.8004C73.0983 49.9102 73.7735 50.0528 74.1744 50.4118C75.4813 51.5789 76.3318 53.0443 76.8074 54.6901C76.8403 54.8048 76.7865 54.9425 76.7761 55.0589C75.1325 55.0114 73.8325 54.4098 72.8067 53.2869C71.7584 52.1428 70.4463 51.3494 69.0161 50.7118C68.6117 50.5315 68.2142 50.3233 67.7908 50.202C65.4945 49.5447 64.8332 47.6186 64.0349 45.7549ZM60.633 182.547C60.6053 182.47 60.5792 182.394 60.5514 182.317C61.2908 182.103 62.0597 181.952 62.7626 181.658C63.7554 181.244 64.7222 181.011 65.8399 181.137C66.4595 181.206 67.1833 181.399 67.8064 180.999C68.5093 180.55 69.1966 180.077 69.9186 179.655C70.9079 179.08 71.8816 178.455 72.9386 178.013C74.9225 177.182 76.6945 176.128 77.9945 174.444C78.1646 174.225 78.4111 174.054 78.7669 173.73C78.484 174.516 78.3139 175.154 78.0292 175.743C77.6075 176.613 77.1927 177.508 76.6077 178.278C75.9135 179.198 75.2713 180.18 73.9922 180.599C72.6453 181.042 71.3922 181.732 70.0557 182.204C69.1428 182.527 68.1656 182.586 67.1815 182.334C66.5463 182.171 65.8104 182.253 65.2376 181.994C64.4479 181.637 63.8786 181.919 63.2486 182.244C63.1584 182.289 63.0265 182.263 62.9154 182.276C62.1552 182.365 61.3932 182.455 60.633 182.547ZM72.5915 191.279C72.5221 190.749 72.8675 190.544 73.1625 190.354C73.6884 190.017 74.2612 189.745 74.7905 189.413C75.0839 189.23 75.3824 189.015 75.5924 188.754C76.1582 188.05 76.6789 187.312 77.2187 186.589C77.3471 186.415 77.5207 186.261 77.6092 186.071C78.2948 184.615 79.1713 183.278 80.4209 182.193C81.2228 181.494 81.9986 180.747 82.8977 180.178C85.0256 178.834 87.2263 177.59 89.0088 175.687C88.9654 176.002 88.9498 176.241 88.8943 176.469C88.8526 176.641 88.7606 176.801 88.6895 176.967C87.9015 178.813 86.3759 180.1 84.8676 181.386C84.2341 181.929 83.5451 182.43 82.8126 182.844C81.4849 183.591 80.2699 184.425 79.3101 185.602C78.8502 186.166 78.5065 186.778 78.1108 187.368C76.8143 189.305 74.7558 190.323 72.5915 191.279ZM89.5069 173.185C89.6024 173.249 89.6996 173.315 89.7968 173.38C89.4393 173.99 89.0869 174.605 88.7224 175.211C87.9345 176.521 86.5494 177.224 85.3362 178.075C84.1647 178.898 82.7831 179.408 81.7296 180.455C80.7004 181.475 79.4438 182.263 78.6818 183.55C77.9685 184.755 77.0069 185.828 76.2867 187.028C75.5108 188.318 74.3584 189.146 73.0341 189.843C73.166 189.554 73.3569 189.312 73.5409 189.064C73.7717 188.753 74.0425 188.458 74.2195 188.12C74.8825 186.851 75.4622 185.54 76.1756 184.297C76.8143 183.188 77.6995 182.27 78.687 181.372C79.8742 180.29 81.2592 179.511 82.5488 178.611C83.9599 177.628 85.5289 176.865 86.3325 175.285C86.3637 175.225 86.4158 175.166 86.4731 175.13C87.4832 174.479 88.4951 173.833 89.5069 173.185ZM106.264 112.586C104.963 110.28 102.793 108.783 100.787 107.011C102.712 106.382 104.565 106.307 106.539 106.293C106.617 106.775 106.794 107.231 106.74 107.66C106.572 108.952 106.306 110.231 106.405 111.545C106.429 111.888 106.315 112.239 106.264 112.586ZM120.174 153.817C118.671 154.333 117.256 155.036 115.703 155.458C114.186 155.871 112.745 156.585 111.036 156.405C112.591 155.335 114.302 154.72 115.998 154.036C117.374 153.481 118.655 153.143 120.09 153.63C120.108 153.636 120.113 153.677 120.174 153.817ZM122.6 152.66C124.379 150.881 128.29 147.965 131.917 147.363C131.811 147.545 131.757 147.744 131.624 147.84C130.879 148.37 130.143 148.919 129.35 149.375C128.328 149.961 127.264 150.484 126.198 151.001C125.009 151.574 123.801 152.107 122.6 152.66ZM62.5127 172.915C62.1031 173.131 61.6657 173.313 61.2856 173.569C59.8798 174.515 58.3646 174.282 56.8632 173.933C56.3356 173.81 55.8635 173.462 55.8045 172.822C58.0313 172.613 60.2529 173.353 62.5127 172.915ZM63.0039 118.537C62.9796 118.443 62.9553 118.348 62.931 118.253C63.4291 118.012 63.9029 117.696 64.4306 117.545C65.288 117.299 66.187 117.189 67.0566 116.971C67.9973 116.735 68.9293 116.466 69.8492 116.168C70.5209 115.948 71.0451 116.117 71.7706 116.671C70.363 116.873 69.1845 117.015 68.0164 117.219C67.2579 117.351 66.5099 117.555 65.7653 117.753C64.8402 118 63.9238 118.276 63.0039 118.537ZM154.524 145.865C156.691 146.432 158.767 146.872 160.761 147.526C162.756 148.18 164.958 148.301 166.718 149.57C162.752 148.521 158.821 147.373 154.893 146.216C154.777 146.181 154.697 146.036 154.524 145.865ZM108.807 117.114C110.057 118.991 109.757 120.999 110.111 122.874C109.307 121.09 108.354 119.34 108.807 117.114ZM64.9391 113.706C65.1057 114.33 64.7135 114.348 64.3247 114.427C63.0594 114.684 61.7959 114.955 60.5393 115.248C59.9266 115.391 59.3313 115.594 58.7273 115.77C58.6961 115.673 58.6648 115.576 58.6353 115.478C60.6174 114.63 62.6585 113.945 64.9391 113.706ZM45.4515 108.957C47.4943 109.903 49.6673 109.844 51.5435 110.786C49.8478 110.578 48.1261 110.604 46.4842 110.049C45.9861 109.88 45.6493 109.664 45.4515 108.957ZM64.5312 172.49C66.9091 171.561 69.2869 170.632 71.6647 169.701C71.6959 169.774 71.7272 169.846 71.7584 169.92C69.4309 170.974 67.1833 172.218 64.5312 172.49ZM72.6523 116.15C74.5649 115.694 76.0888 116.768 77.8175 117.16C77.604 117.294 77.3818 117.363 77.1892 117.317C76.4741 117.148 75.7694 116.935 75.0578 116.751C74.2577 116.543 73.4541 116.351 72.6523 116.15ZM111.935 126.667C113.018 126.616 113.953 127.057 114.87 128.047C113.91 128.208 112.691 127.636 111.935 126.667ZM107.717 112.399C107.485 112.285 107.266 112.234 107.259 112.165C107.203 111.516 107.162 110.862 107.165 110.208C107.165 109.977 107.299 109.744 107.372 109.513C107.441 109.524 107.512 109.536 107.584 109.547C107.625 110.437 107.667 111.329 107.717 112.399ZM105.289 98.9843C105.612 100.541 105.612 100.541 105.105 100.75C105.169 100.127 105.23 99.5547 105.289 98.9843ZM123.751 131.724C123.718 131.791 123.685 131.857 123.654 131.92C123.145 131.696 122.637 131.471 121.935 131.16C122.893 130.942 123.268 131.443 123.751 131.724ZM94.0022 162.608C93.36 163.231 93.36 163.231 92.6415 163.17C93.2038 162.475 93.2038 162.475 94.0022 162.608ZM98.6537 160.287C98.6919 160.37 98.7301 160.455 98.7683 160.541C98.3344 160.677 97.9022 160.813 97.4683 160.949C97.444 160.877 97.4197 160.806 97.3936 160.734C97.8137 160.585 98.2337 160.436 98.6537 160.287ZM130.459 136.132C130.407 136.192 130.355 136.254 130.301 136.314C129.933 136.077 129.564 135.84 129.194 135.604C129.235 135.55 129.275 135.497 129.315 135.443C129.695 135.673 130.077 135.904 130.459 136.132ZM128.618 135.179C128.56 135.25 128.503 135.322 128.448 135.392C128.222 135.215 127.998 135.038 127.772 134.863C127.797 134.833 127.821 134.807 127.845 134.778C128.102 134.912 128.361 135.046 128.618 135.179ZM82.2468 120.799C82.219 120.74 82.1913 120.679 82.1618 120.618C82.4082 120.522 82.6529 120.42 82.9029 120.331C82.9202 120.325 82.9723 120.408 83.0539 120.504C82.771 120.608 82.5089 120.704 82.2468 120.799ZM95.5921 161.89C95.5556 161.801 95.5192 161.713 95.4827 161.624C95.7274 161.536 95.9739 161.447 96.2186 161.359C96.2464 161.421 96.2742 161.482 96.3037 161.544C96.0659 161.659 95.8298 161.775 95.5921 161.89ZM168.336 149.976C168.37 149.906 168.403 149.835 168.438 149.766C168.723 149.878 169.009 149.991 169.296 150.102C169.269 150.161 169.243 150.22 169.216 150.279C168.922 150.178 168.629 150.078 168.336 149.976ZM107.653 107.757C107.715 107.77 107.78 107.782 107.844 107.793C107.811 108.083 107.78 108.374 107.747 108.664C107.674 108.654 107.603 108.642 107.531 108.633C107.571 108.341 107.611 108.049 107.653 107.757ZM91.7476 119.782C91.7199 119.863 91.6904 119.943 91.6626 120.023C91.397 119.925 91.1298 119.827 90.8625 119.728C90.885 119.672 90.9076 119.618 90.9284 119.563C91.2009 119.635 91.4751 119.709 91.7476 119.782Z" fill="#3D3D3D"/>
<path d="M83.8288 117.642C84.4293 117.832 85.0177 118.062 85.6321 118.191C85.8838 118.243 86.1875 118.075 86.4253 117.865C85.8057 117.727 85.1826 117.606 84.5699 117.444C84.2453 117.358 83.9781 117.316 83.8236 117.673L83.8288 117.642Z" fill="#3D3D3D"/>
<path d="M83.8224 117.672C83.6957 117.228 83.2931 117.226 82.9321 117.205C82.3124 117.167 81.6893 117.167 81.0663 117.149C81.0663 117.149 81.0663 117.116 81.0663 117.115C81.9358 117.523 82.8609 117.678 83.8276 117.641L83.8224 117.672Z" fill="#3D3D3D"/>
</svg>
