<svg width="279" height="315" viewBox="0 0 279 315" fill="none" xmlns="http://www.w3.org/2000/svg">
<path d="M0.552303 49.4607C26.9926 57.5812 53.3753 66.5901 78.0936 79.4227C102.777 92.4588 124.648 109.735 146.283 126.999C156.965 135.78 168.122 144.139 177.384 154.824C186.644 165.522 193.308 178.02 199.157 190.586C211.039 215.696 220.752 241.824 228.027 268.575L227.685 268.676C218.306 242.615 207.733 217.084 195.831 192.161C189.815 179.786 183.542 167.478 174.823 156.998C166.064 146.587 155.254 137.796 145.006 128.503C134.632 119.371 124.007 110.483 112.623 102.634C101.294 94.691 89.172 88.0319 76.748 82.0602C52.0499 69.8297 26.1182 60.1987 0.428148 49.8029L0.552303 49.4607Z" fill="#373434" fill-opacity="0.1"/>
<path d="M211.048 249.985C212.867 246.952 215.413 243.922 219.199 243.028C223.074 242.293 226.76 244.265 229.791 246.202C232.869 248.249 235.632 250.602 238.322 252.979C241.096 255.407 243.599 258.193 245.724 261.312C247.779 264.454 249.418 268.037 250.013 271.909C250.635 275.786 250.107 279.629 249.374 283.202C247.835 290.312 245.617 297.21 242.801 303.866C242.114 305.527 241.397 307.193 240.652 308.822L239.496 311.266C239.082 312.06 238.92 312.94 238.03 313.812C237.062 314.678 235.639 314.41 234.827 313.931C233.945 313.462 233.231 312.771 232.629 312.105C231.404 310.793 230.128 309.53 228.937 308.169C224.069 302.876 219.408 297.314 215.511 291.177C211.741 285.041 208.393 278.376 207.218 271.032C206.603 267.407 206.568 263.66 207.179 260.059C207.853 256.481 209.146 253.042 211.048 249.985ZM211.353 250.168C209.516 253.203 208.329 256.658 208.111 260.169C207.94 263.691 208.398 267.199 209.406 270.531C211.43 277.193 214.764 283.435 218.067 289.681C221.425 295.875 225.175 301.991 229.802 307.404C230.964 308.751 232.15 310.081 233.407 311.333C234.51 312.548 236.293 313.728 237.19 312.868C237.616 312.488 237.923 311.543 238.276 310.731L239.218 308.244C239.829 306.562 240.418 304.887 240.956 303.192C243.094 296.404 244.787 289.493 246.059 282.573C246.665 279.13 246.958 275.731 246.343 272.53C245.717 269.312 244.373 266.225 242.528 263.402C240.736 260.535 238.419 257.949 235.962 255.495C233.4 253.001 230.979 250.384 228.374 248.095C225.785 245.867 222.758 243.79 219.35 244.023C215.925 244.357 213.173 247.208 211.353 250.168Z" fill="#373434" fill-opacity="0.1"/>
<path d="M222.432 218.718C226.044 222.181 229.376 225.896 232.72 229.572C234.346 231.405 236.023 233.119 237.88 234.401C239.693 235.689 241.839 236.322 244.172 236.875C246.517 237.408 249.036 237.867 251.511 238.82C253.969 239.779 256.169 241.1 258.284 242.414C262.415 245.061 266.941 247.689 271.759 247.112L271.451 248.278L263.513 243.31C260.855 241.62 258.23 239.582 256.174 236.96C254.105 234.438 252.593 231.673 250.767 229.371C248.944 227.028 246.903 225.333 244.303 224.352C241.7 223.39 238.668 222.876 235.587 222.246L226.463 220.25C223.431 219.609 220.403 218.832 217.379 218.091C215.848 217.725 214.435 217.298 213.033 217.379C212.352 217.419 211.611 217.675 210.813 217.844C210.052 218.022 209.024 218.061 208.351 217.468L208.548 217.169C209.902 217.785 211.16 216.568 212.824 216.166C214.53 215.736 216.204 216.023 217.727 216.196C220.823 216.553 223.925 216.886 226.996 217.35L236.236 218.684C239.273 219.225 242.461 219.529 245.683 220.789C248.991 221.956 251.754 224.602 253.589 227.26C255.487 229.945 256.937 232.692 258.615 235.127C261.944 239.903 267.246 243.471 272.18 247.216L273.582 248.281L271.877 248.391C266.51 248.75 261.952 245.888 257.496 243.864C255.251 242.816 252.998 241.832 250.733 241.257C248.455 240.71 246.028 240.495 243.502 239.988C241.009 239.489 238.289 238.592 236.083 236.907C233.869 235.295 232.227 233.22 230.693 231.234C227.75 227.195 224.829 223.185 222.151 218.938L222.432 218.718Z" fill="#373434" fill-opacity="0.1"/>
<path d="M159.427 211.937C152.162 213.787 144.867 215.673 138.337 219.047C135.084 220.725 132.103 222.831 129.465 225.259C126.856 227.738 124.665 230.632 122.943 233.809C119.51 240.185 117.506 247.288 116.601 254.609C115.611 261.933 115.535 269.437 115.611 276.929L114.592 276.352C126.546 269.898 137.319 261.31 146.671 251.519C149.012 249.091 151.225 246.528 153.454 243.975C155.652 241.4 157.819 238.825 159.448 236.049C161.127 233.275 162.089 230.347 161.891 227.283C161.775 224.197 160.595 221.088 159.827 217.565C159.44 215.813 159.197 213.928 159.308 211.994C159.446 210.056 159.81 208.381 160.229 206.644C161.094 203.21 162.225 199.934 163.305 196.751C164.368 193.539 165.325 190.373 165.772 187.178C166.211 183.93 166.488 180.551 166.549 177.211C166.732 163.833 163.998 150.312 158.013 138.064L158.328 137.894C165.618 149.497 169.466 163.328 169.727 177.209C169.799 180.698 169.683 184.127 169.335 187.646C168.9 191.219 167.917 194.618 166.892 197.907C165.88 201.193 164.726 204.373 163.939 207.556C163.533 209.12 163.218 210.789 163.083 212.261C162.962 213.732 163.12 215.263 163.42 216.842C164.009 219.992 165.228 223.381 165.326 227.15C165.5 230.95 164.121 234.752 162.167 237.717C160.203 240.752 157.849 243.313 155.53 245.832C153.185 248.36 150.724 250.764 148.212 253.098C138.136 262.452 126.991 270.473 115.278 277.553L114.314 278.124L114.25 276.977C113.849 269.485 113.283 261.943 113.867 254.328C114.483 246.749 116.286 239.006 120.263 232.289C124.097 225.519 130.236 219.943 137.349 216.994C144.382 213.835 151.918 212.512 159.35 211.577L159.427 211.937Z" fill="#373434" fill-opacity="0.1"/>
<path d="M163.574 205.404C163.685 209.37 165.102 212.984 167.061 216.143C169.025 219.343 171.74 221.996 174.588 224.567C177.406 227.184 180.419 229.773 183.546 232.175C186.693 234.56 190 236.73 193.391 238.725L192.34 239.579C190.566 235.31 188.669 231.095 187.004 226.798C185.39 222.48 183.669 218.204 182.189 213.836C180.676 209.527 179.324 205.272 176.992 201.573C174.67 197.945 171.426 194.692 167.028 193.284L167.08 192.942C171.881 193.094 176.347 196.101 179.352 199.874C182.408 203.717 184.292 208.223 185.799 212.587C187.331 216.934 188.604 221.371 190.007 225.764C191.348 230.164 192.467 234.663 193.702 239.111L194.289 241.201L192.632 239.963C189.452 237.568 186.182 235.34 182.746 233.346C179.258 231.401 175.741 229.504 172.535 226.955C169.391 224.398 166.579 221.203 164.717 217.439C162.874 213.717 162.11 209.308 163.213 205.373L163.574 205.404Z" fill="#373434" fill-opacity="0.1"/>
<path d="M169.489 176.208C164.984 174.972 160.578 176.341 156.17 177.529C151.757 178.75 147.487 180.316 143.209 181.924C138.925 183.488 134.613 185.245 130.671 187.651C126.738 190.087 123.227 193.16 120.098 196.541L119.455 194.865C124.235 194.668 128.961 195.282 133.553 195.847C138.134 196.395 142.65 196.732 146.98 196.218C151.286 195.721 155.489 194.191 159.163 191.709C162.871 189.246 166.061 185.91 168.444 181.901L168.771 182.041C167.444 186.608 164.593 190.759 160.852 193.931C157.114 197.058 152.445 199.33 147.49 199.998C142.534 200.684 137.682 199.975 133.057 199.175C128.421 198.391 123.955 197.303 119.399 196.805L117.026 196.556L118.761 195.133C122.405 192.114 126.197 189.372 130.027 186.684C133.877 184.007 137.763 181.293 142.025 179.181C146.31 177.134 150.885 175.711 155.543 174.826C160.041 173.991 165.403 173.303 169.638 175.881L169.489 176.208Z" fill="#373434" fill-opacity="0.1"/>
<path d="M129.874 248.622C130.789 244.505 133.319 240.968 136.365 238.316C137.96 237.021 139.821 236.086 141.364 234.811C142.943 233.563 144.273 232.083 145.52 230.498C147.957 227.294 150.546 224.412 152.831 221.355C155.272 218.408 157.45 215.398 159.528 211.851L159.879 211.942C160.025 216.156 158.253 220.279 155.873 223.661C153.356 226.97 150.289 229.756 146.848 231.935C145.172 233.069 143.528 234.232 142.148 235.678C140.751 237.099 139.696 238.87 138.474 240.407C135.913 243.398 133.205 245.976 130.185 248.809L129.874 248.622Z" fill="#373434" fill-opacity="0.1"/>
<path d="M179.775 219.515C177.876 218.158 176.713 216.766 175.872 215.063C175.517 214.164 175.376 213.046 174.811 212.231C174.277 211.402 173.414 210.876 172.49 210.426C170.583 209.602 168.902 208.449 167.435 206.819C166.133 205.14 165.123 202.639 165.932 200.365L166.281 200.307C167.77 202.002 168.984 203.007 170.299 204.292C171.476 205.65 172.848 207.085 173.831 208.994C174.365 209.923 174.911 210.795 175.682 211.478C176.44 212.159 177.537 212.616 178.313 213.357C179.743 214.92 180.491 217.06 180.109 219.388L179.775 219.515Z" fill="#373434" fill-opacity="0.1"/>
<path d="M137.606 190.559C140.066 188.666 142.654 187.603 145.428 187.066C146.841 186.87 148.357 186.994 149.734 186.664C151.131 186.357 152.392 185.686 153.628 184.924C156.042 183.321 158.602 182.149 161.19 181.082C163.842 180.155 166.293 179.531 169.132 178.52L169.367 178.78C167.995 181.625 165.195 183.407 162.626 184.612C159.954 185.686 157.205 186.505 154.277 186.779C152.821 186.958 151.403 187.209 150.099 187.773C148.774 188.304 147.587 189.29 146.287 189.908C143.621 190.995 140.744 191.407 137.694 190.899L137.606 190.559Z" fill="#373434" fill-opacity="0.1"/>
<path d="M215.778 152.739C218.831 159.304 222.183 165.679 225.971 171.745C229.83 177.702 234.182 183.478 240.229 186.789C243.247 188.434 246.571 189.721 249.931 191.26C253.277 192.801 256.49 194.613 259.523 196.663C265.677 200.65 271.197 205.374 276.937 209.757L275.957 210.502C271.621 198.978 266.52 187.509 258.708 178.136C254.804 173.481 250.386 169.281 245.272 166.192C240.25 163.01 234.423 161.289 228.547 159.182C222.676 157.047 217.104 154.885 211.173 153.909C208.204 153.364 205.146 152.997 202.067 152.534C198.977 152.032 195.904 151.455 192.867 150.775C180.663 148.118 168.857 143.744 157.932 137.903L158.085 137.571C169.579 142.145 181.431 145.515 193.47 147.698C199.505 148.799 205.53 149.247 211.798 150.211C218.135 151.117 224.148 153.498 229.83 155.7C235.508 157.911 241.632 159.853 247.022 163.44C252.369 167.006 256.91 171.569 260.578 176.676C268.003 186.907 272.29 198.691 277.146 210.026L278.082 212.221L276.163 210.785C270.396 206.433 264.383 202.422 258.18 198.866C255.059 197.127 251.886 195.504 248.666 194.058C245.453 192.63 241.948 191.476 238.669 189.506C232.07 185.536 227.406 179.338 223.963 172.926C220.45 166.528 217.574 159.812 215.457 152.865L215.778 152.739Z" fill="#373434" fill-opacity="0.1"/>
<path d="M208.694 151.197C213.143 151.253 216.617 148.402 219.248 145.203C221.902 141.942 224.466 138.061 227.757 134.964C231.019 131.818 234.787 129.265 238.65 127.01C242.528 124.762 246.442 122.68 250.499 120.809L250.643 122.044C245.241 121.438 239.798 121.149 234.614 121.696C232.033 122.026 229.493 122.531 227.163 123.504C224.809 124.466 222.629 125.838 220.496 127.321C216.252 130.378 212.376 133.975 208.694 137.929C205.018 141.865 201.4 145.896 198.031 150.186L197.726 150.003C200.05 145.013 203.093 140.384 206.466 136.026C209.8 131.677 213.644 127.453 218.287 124.209C222.86 120.854 228.705 118.763 234.383 118.626C240.094 118.4 245.509 119.722 250.844 120.762L253.094 121.195L250.988 121.997C246.901 123.551 242.987 125.633 239.538 128.336C236.055 130.994 233.002 134.112 230.018 137.206C228.514 138.769 227.052 140.339 225.64 141.975C224.263 143.633 222.809 145.36 221.204 147.004C218.087 150.244 213.189 152.885 208.629 151.544L208.694 151.197Z" fill="#373434" fill-opacity="0.1"/>
<path d="M221.341 154.411C223.925 156.45 225.588 159.294 227.195 161.938C228.776 164.712 230.218 166.981 232.312 169.061C234.316 171.213 236.704 173.265 239.342 174.904C241.997 176.541 244.854 177.838 247.65 179.383C250.48 180.883 253.156 182.67 255.577 184.763C258.018 186.809 260.353 189 262.442 191.374C266.595 196.193 270.101 201.436 273.024 207.058L272.73 207.279C268.018 203.02 263.852 198.392 259.624 193.94C255.509 189.359 251.228 185.041 246.565 181.001C244.199 179.012 241.569 177.332 238.777 175.913C235.985 174.494 232.986 173.311 230.321 171.274C227.631 169.258 225.869 166.017 224.728 163.196C223.442 160.327 222.559 157.375 221.062 154.648L221.341 154.411Z" fill="#373434" fill-opacity="0.1"/>
<path d="M193.362 149.266C193.449 154.165 192.573 159.054 194.579 163.042C196.336 167.186 199.542 170.778 202.137 174.852C204.836 178.852 207.47 182.916 210.655 186.551C213.803 190.21 217.335 193.517 220.915 196.745L218.854 197.965C217.356 193.993 215.982 189.976 214.663 185.956C213.32 181.934 212.001 177.914 210.885 173.834C209.691 169.779 208.748 165.639 207.683 161.534C207.224 159.526 206.696 157.54 205.845 155.695C205.043 153.846 203.962 152.073 202.211 150.934L202.364 150.606C204.501 151.267 206.146 153.044 207.367 154.852C208.586 156.71 209.495 158.715 210.283 160.754C211.672 164.751 213.192 168.716 214.459 172.748C215.787 176.767 216.921 180.844 218.021 184.94C219.163 189.016 220.254 193.113 221.205 197.242L222.393 202.337L219.148 198.457C216.018 194.729 213.024 190.909 209.837 187.26C206.69 183.575 203.213 180.174 199.973 176.533C196.791 172.92 193.639 168.995 191.91 164.043C191.014 161.644 190.844 158.788 191.279 156.357C191.66 153.894 192.353 151.564 192.999 149.217L193.362 149.266Z" fill="#373434" fill-opacity="0.1"/>
<path d="M198.972 150.268C199.966 154.378 201.264 157.954 202.571 161.682C203.148 163.503 203.735 165.625 204.601 167.477C205.468 169.366 206.65 171.062 207.911 172.734C210.51 176.017 212.664 179.542 214.646 183.164C216.481 186.864 218.086 190.691 219.057 194.872L218.747 195.041C215.753 191.971 213.413 188.539 211.3 184.981C209.345 181.361 207.529 177.631 206.19 173.668C205.48 171.703 204.681 169.782 203.577 168.034C202.512 166.245 200.961 164.822 199.849 162.89C197.866 159.07 197.105 154.39 198.615 150.231L198.972 150.268Z" fill="#373434" fill-opacity="0.1"/>
<path d="M108.611 62.3807C113.603 70.4921 120.608 76.7763 127.938 82.7357C135.179 88.8021 142.354 94.9727 150.763 98.7511C159.126 102.613 168.374 104.497 177.726 105.007C187.091 105.516 196.553 104.472 205.786 102.589L205.494 103.545C196.27 93.9841 185.549 85.9031 174.006 79.5747C168.224 76.4209 162.221 73.7221 156.012 71.6523C149.818 69.5306 143.369 68.1756 136.873 67.0032C130.393 65.8421 123.741 64.786 117.25 63.9379C110.725 63.1758 104.359 63.0372 98.1766 65.1392C95.0498 66.0959 91.9604 67.3227 88.7309 68.3523C85.4971 69.3509 82.231 70.1823 78.9209 70.8258C72.3075 72.1615 65.5559 72.5322 58.8772 72.2879L58.8851 71.9212C65.5289 71.6196 72.0932 70.5164 78.4803 68.8825C84.9348 67.3116 90.8274 64.6176 97.2295 62.2775C103.676 59.8319 110.988 59.4693 117.654 60.3383C124.373 61.1683 130.897 62.1474 137.541 63.2857C150.759 65.6354 163.927 70.0326 175.413 77.1227C187.012 84.0799 197.045 93.159 206.314 102.755L207.056 103.514L206.01 103.718C196.699 105.526 187.266 106.873 177.68 107.018C168.131 107.139 158.326 105.703 149.442 101.629C140.508 97.517 133.265 90.9541 126.277 84.6314C122.802 81.4109 119.29 78.1461 116.139 74.5331C113.05 70.8666 110.334 66.8729 108.3 62.5501L108.611 62.3807Z" fill="#373434" fill-opacity="0.1"/>
<path d="M168.593 13.207C162.596 18.3712 156.401 23.0254 149.986 27.4574C146.727 29.5746 143.333 31.5659 140.218 33.9158C137.069 36.2433 134.421 39.1244 131.052 41.4643C127.623 43.9165 123.464 44.7587 119.951 45.954C116.321 47.1608 112.823 48.661 109.475 50.3661C102.697 53.6747 96.7389 58.409 92.0852 64.7685L91.764 64.6008C94.4177 57.0332 100.593 50.806 107.707 46.986C111.28 45.0511 115.13 43.7415 118.994 42.728C122.938 41.6445 126.713 41.3882 130.067 39.7634C136.895 36.3216 142.278 30.1455 148.219 25.0614C154.35 20.145 161.109 15.9813 168.397 12.9L168.593 13.207Z" fill="#373434" fill-opacity="0.1"/>
<path d="M136.163 47.9251C131.344 50.5111 126.169 52.4556 120.646 53.3197C117.883 53.6437 114.956 53.7013 112.097 52.5128C110.692 51.9219 109.268 50.8325 108.484 49.2437C107.72 47.6703 107.706 45.9704 107.856 44.4824C109.999 33.0626 116.806 23.3444 125.455 16.2331C134.129 9.07765 144.747 4.58715 155.581 2.6625C166.463 0.663437 177.434 0.63841 188.361 1.11593L190.645 1.21044L188.626 2.40648C183.686 5.33405 181.52 10.9789 178.655 16.1742C177.194 18.7872 175.479 21.4668 172.958 23.5403C170.428 25.7371 167.37 26.6707 164.873 27.8741C159.773 30.2597 155.084 33.8207 150.523 37.5265C145.908 41.1992 141.357 45.0751 136.163 47.9251ZM135.993 47.6101C141.173 44.7891 145.395 40.6247 149.552 36.4511C153.739 32.3276 158.013 27.98 163.516 25.1143C166.267 23.6906 168.949 22.7864 170.939 21.0844C173.025 19.4232 174.652 17.1258 176.27 14.7259C177.851 12.3221 179.341 9.71868 181.135 7.28097C182.926 4.82996 185.208 2.59543 187.991 1.18074L188.257 2.48456C177.481 1.36771 166.468 2.03064 156.06 4.78554C145.698 7.57478 135.783 12.0626 127.82 19.0384C119.829 25.8464 113.663 35.0697 110.888 44.8932C110.416 47.2879 110.948 49.3043 113.116 50.4847C115.211 51.6617 117.909 52.0059 120.54 51.935C125.859 51.7536 131.204 50.1241 135.993 47.6101Z" fill="#373434" fill-opacity="0.1"/>
<path d="M111.08 63.0679C118.491 67.0976 125.33 71.7616 132.174 76.3618C135.542 78.7711 138.893 81.2593 142.583 83.1634C146.26 85.0782 150.198 86.4244 154.231 87.3466C162.284 89.1701 170.529 90.5246 178.602 92.7201C186.396 94.8865 195.088 96.5313 202.176 101.296L202.028 101.628C194.054 98.9767 185.972 98.3488 177.666 96.4205C169.661 94.2291 161.502 92.3932 153.646 89.2197C149.722 87.6776 145.908 85.8899 142.077 84.204C138.246 82.5225 134.313 80.9184 130.607 78.8947C123.304 74.6694 116.783 69.3339 110.862 63.3509L111.08 63.0679Z" fill="#373434" fill-opacity="0.1"/>
<path d="M101.295 148.162C94.4142 152.062 88.8826 157.853 84.8729 164.462C80.9191 171.117 78.1449 178.498 77.0137 186.139C76.4833 189.937 76.1913 193.729 76.8887 197.429C77.5703 201.144 78.8517 204.79 80.4579 208.337C83.7512 215.429 87.7633 222.299 92.6656 228.459L91.6521 228.573C97.4956 216.983 102.863 204.824 104.423 192.035C105.206 185.661 105.017 179.309 103.64 173.049C102.392 166.775 100.413 160.531 99.1907 153.956C98.559 150.698 98.2033 147.218 98.3196 143.983L98.3789 134.143C98.2759 127.792 97.4913 121.409 95.8325 115.233C92.537 102.878 86.2334 91.2603 77.4131 81.6476L77.6609 81.3831C87.4754 90.059 94.9879 101.604 98.8273 114.367C100.836 120.725 101.944 127.383 102.108 134.078C102.39 140.584 101.63 147.122 102.868 153.32C103.879 159.613 105.712 165.909 106.871 172.448C108.102 178.995 108.073 185.887 106.86 192.42C104.36 205.564 98.2461 217.317 92.7431 229.117L92.3397 229.985L91.7112 229.228C86.7098 223.036 82.0683 216.511 78.2531 209.432C76.3491 205.886 74.6687 202.097 73.9003 197.982C73.1077 193.889 73.1702 189.646 73.9102 185.635C75.3724 177.645 78.2433 169.853 82.875 163.172C87.4403 156.5 93.7086 150.846 101.136 147.827L101.295 148.162Z" fill="#373434" fill-opacity="0.1"/>
<path d="M97.9337 124.115C97.6551 126.862 96.1227 129.259 94.4592 131.395C92.7502 133.527 90.708 135.372 88.4825 137.034C84.0306 140.418 78.5442 142.167 73.1719 143.109C67.7573 144.039 62.3697 144.253 56.9661 144.252C51.5669 144.25 46.1701 143.81 40.8625 142.938L37.9449 142.471L40.3686 141.034C45.1292 138.217 49.8144 135.279 54.3419 132.115C58.9355 129.005 62.9389 125.219 67.9031 122.274C72.992 119.285 78.9948 118.626 84.4624 118.6C87.1413 118.581 89.9894 118.155 92.8406 118.5C94.2405 118.699 95.7626 118.999 96.8533 120.062C97.9338 121.149 98.0863 122.74 97.9337 124.115ZM97.581 124.078C97.6771 122.751 97.5007 121.281 96.5052 120.417C95.4912 119.614 94.1199 119.393 92.7916 119.451C90.1105 119.551 87.5143 120.362 84.6923 120.879C79.2324 121.906 74.0041 122.617 69.2419 124.901C66.8041 125.943 64.4388 127.313 62.0513 128.718C59.6657 130.105 57.2799 131.523 54.9823 133.056C50.3801 136.104 45.928 139.388 41.5443 142.776L41.0675 140.865C46.366 141.052 51.6413 141.039 56.9048 140.843C62.1438 140.601 67.4269 140.122 72.5549 139.371C77.6786 138.589 82.6344 137.28 87.2811 135.075C89.6037 133.918 91.8156 132.483 93.7449 130.735C95.644 128.964 97.2346 126.695 97.581 124.078Z" fill="#373434" fill-opacity="0.1"/>
<path d="M100.301 143.654C102.272 146.866 104.79 149.565 107.424 152.093C110.065 154.635 112.943 156.904 115.946 158.903C118.948 160.858 122.148 162.87 125.442 164.658C128.729 166.487 132.194 167.971 135.648 169.506L134.767 170.251C133.248 165.802 131.183 161.587 129.218 157.372C127.211 153.181 125.134 149.004 122.48 145.481C119.86 141.853 116.549 139.359 112.279 137.341C108.176 135.224 103.623 133.285 100.097 129.955L100.315 129.672C104.459 131.888 109.002 132.911 113.457 134.637C115.681 135.502 117.989 136.397 120.139 137.873C122.235 139.348 124.08 141.165 125.532 143.207C128.479 147.277 130.314 151.758 132.028 156.18C133.73 160.644 134.844 165.301 135.986 169.897L136.322 171.308L135.087 170.644C131.795 168.87 128.321 167.419 124.766 166.164C121.207 164.847 117.583 163.615 114.223 161.584C110.892 159.504 108.022 156.836 105.503 153.899C103.036 150.954 100.913 147.551 99.9735 143.799L100.301 143.654Z" fill="#373434" fill-opacity="0.1"/>
<path d="M46.1898 140.693C47.7983 138.845 50.1806 137.924 52.2328 137.161C54.3552 136.384 56.5183 135.705 58.7497 135.324C60.9873 134.987 63.3077 134.923 65.5299 134.475C67.7382 134.025 69.857 133.222 71.9602 132.339C76.1276 130.421 80.5675 129.395 84.2999 127.597C88.1746 125.945 91.9191 123.549 96.1323 121.57L96.3695 121.849C93.5908 125.547 90.2421 128.846 85.9343 131.054C83.7543 132.132 81.4234 132.708 79.1878 133.189C76.9464 133.693 74.7299 133.987 72.4548 134.248C70.203 134.514 67.9698 134.882 65.8242 135.59C63.6781 136.294 61.6417 137.366 59.5266 138.196C57.4099 138.981 55.199 139.445 52.9738 139.839C50.7018 140.253 48.5799 140.317 46.4023 140.988L46.1898 140.693Z" fill="#373434" fill-opacity="0.1"/>
</svg>
