<svg width="279" height="315" viewBox="0 0 279 315" fill="none" xmlns="http://www.w3.org/2000/svg">
<path d="M278.141 49.4607C251.7 57.5812 225.318 66.5901 200.599 79.4227C175.916 92.4588 154.045 109.735 132.41 126.999C121.727 135.78 110.571 144.139 101.309 154.824C92.0491 165.522 85.3844 178.02 79.5363 190.586C67.6535 215.696 57.9409 241.824 50.6657 268.575L51.0082 268.676C60.3865 242.615 70.9598 217.084 82.8618 192.161C88.8776 179.786 95.1505 167.478 103.87 156.998C112.629 146.587 123.439 137.796 133.687 128.503C144.061 119.371 154.686 110.483 166.07 102.634C177.399 94.691 189.521 88.0319 201.945 82.0602C226.643 69.8297 252.575 60.1987 278.265 49.8029L278.141 49.4607Z" fill="#373434" fill-opacity="0.1"/>
<path d="M67.645 249.985C65.8259 246.952 63.2796 243.922 59.4942 243.028C55.619 242.293 51.9331 244.265 48.9022 246.202C45.8243 248.249 43.0608 250.602 40.3708 252.979C37.5968 255.407 35.0938 258.193 32.9691 261.312C30.9134 264.454 29.2751 268.037 28.6802 271.909C28.0575 275.786 28.5862 279.629 29.3193 283.202C30.858 290.312 33.0763 297.21 35.8923 303.866C36.5786 305.527 37.2959 307.193 38.0409 308.822L39.1966 311.266C39.6104 312.06 39.7729 312.94 40.6633 313.812C41.6314 314.678 43.0543 314.41 43.8655 313.931C44.7475 313.462 45.4617 312.771 46.064 312.105C47.2884 310.793 48.5648 309.53 49.7554 308.169C54.6235 302.876 59.2849 297.314 63.1819 291.177C66.9524 285.041 70.2994 278.376 71.4745 271.032C72.0894 267.407 72.1252 263.66 71.5134 260.059C70.8398 256.481 69.5464 253.042 67.645 249.985ZM67.3397 250.168C69.1765 253.203 70.3637 256.658 70.5818 260.169C70.7531 263.691 70.2945 267.199 69.2869 270.531C67.2627 277.193 63.929 283.435 60.6264 289.681C57.2678 295.875 53.5181 301.991 48.8908 307.404C47.7292 308.751 46.5429 310.081 45.2861 311.333C44.1834 312.548 42.3994 313.728 41.5028 312.868C41.0769 312.488 40.7699 311.543 40.4173 310.731L39.4752 308.244C38.864 306.562 38.2744 304.887 37.7372 303.192C35.5985 296.404 33.9057 289.493 32.6341 282.573C32.0274 279.13 31.7352 275.731 32.3501 272.53C32.9762 269.312 34.3201 266.225 36.1646 263.402C37.9565 260.535 40.2738 257.949 42.7308 255.495C45.2926 253.001 47.7135 250.384 50.3192 248.095C52.9075 245.867 55.9352 243.79 59.3429 244.023C62.768 244.357 65.5197 247.208 67.3397 250.168Z" fill="#373434" fill-opacity="0.1"/>
<path d="M56.2609 218.718C52.6484 222.181 49.3172 225.896 45.9731 229.572C44.3469 231.405 42.6696 233.119 40.8128 234.401C39.0002 235.689 36.8541 236.322 34.5205 236.875C32.176 237.408 29.6567 237.867 27.1819 238.82C24.7242 239.779 22.5235 241.1 20.4094 242.414C16.278 245.061 11.752 247.689 6.93394 247.112L7.24186 248.278L15.1796 243.31C17.8379 241.62 20.463 239.582 22.519 236.96C24.5881 234.438 26.0996 231.673 27.9261 229.371C29.7493 227.028 31.7897 225.333 34.3903 224.352C36.9928 223.39 40.0254 222.876 43.1055 222.246L52.2297 220.25C55.2618 219.609 58.2901 218.832 61.3134 218.091C62.8447 217.725 64.2582 217.298 65.6599 217.379C66.3405 217.419 67.0815 217.675 67.8796 217.844C68.6405 218.022 69.6689 218.061 70.3424 217.468L70.1444 217.169C68.7906 217.785 67.5327 216.568 65.8684 216.166C64.1629 215.736 62.489 216.023 60.9663 216.196C57.8699 216.553 54.7676 216.886 51.6969 217.35L42.4566 218.684C39.4203 219.225 36.2319 219.529 33.0103 220.789C29.7023 221.956 26.9388 224.602 25.1036 227.26C23.206 229.945 21.7557 232.692 20.0777 235.127C16.7485 239.903 11.4468 243.471 6.51323 247.216L5.11076 248.281L6.81549 248.391C12.1827 248.75 16.7413 245.888 21.1972 243.864C23.4414 242.816 25.6948 241.832 27.9594 241.257C30.238 240.71 32.6648 240.495 35.1909 239.988C37.6841 239.489 40.4039 238.592 42.61 236.907C44.824 235.295 46.4656 233.22 48.0001 231.234C50.9429 227.195 53.8637 223.185 56.542 218.938L56.2609 218.718Z" fill="#373434" fill-opacity="0.1"/>
<path d="M119.266 211.937C126.53 213.787 133.826 215.673 140.356 219.047C143.608 220.725 146.59 222.831 149.228 225.259C151.837 227.738 154.028 230.632 155.75 233.809C159.183 240.185 161.187 247.288 162.092 254.609C163.082 261.933 163.158 269.437 163.082 276.929L164.101 276.352C152.147 269.898 141.374 261.31 132.022 251.519C129.681 249.091 127.468 246.528 125.239 243.975C123.04 241.4 120.874 238.825 119.245 236.049C117.566 233.275 116.604 230.347 116.802 227.283C116.918 224.197 118.098 221.088 118.866 217.565C119.253 215.813 119.496 213.928 119.384 211.994C119.246 210.056 118.883 208.381 118.464 206.644C117.599 203.21 116.468 199.934 115.388 196.751C114.325 193.539 113.368 190.373 112.921 187.178C112.482 183.93 112.205 180.551 112.144 177.211C111.961 163.833 114.695 150.312 120.68 138.064L120.365 137.894C113.075 149.497 109.227 163.328 108.966 177.209C108.894 180.698 109.01 184.127 109.358 187.646C109.793 191.219 110.776 194.618 111.801 197.907C112.813 201.193 113.966 204.373 114.753 207.556C115.16 209.12 115.475 210.789 115.61 212.261C115.731 213.732 115.573 215.263 115.273 216.842C114.683 219.992 113.465 223.381 113.367 227.15C113.193 230.95 114.572 234.752 116.526 237.717C118.49 240.752 120.844 243.313 123.163 245.832C125.507 248.36 127.969 250.764 130.481 253.098C140.557 262.452 151.702 270.473 163.415 277.553L164.379 278.124L164.443 276.977C164.844 269.485 165.41 261.943 164.826 254.328C164.21 246.749 162.406 239.006 158.43 232.289C154.596 225.519 148.457 219.943 141.344 216.994C134.311 213.835 126.775 212.512 119.343 211.577L119.266 211.937Z" fill="#373434" fill-opacity="0.1"/>
<path d="M115.119 205.404C115.008 209.37 113.591 212.984 111.632 216.143C109.668 219.343 106.953 221.996 104.105 224.567C101.287 227.184 98.2741 229.773 95.1472 232.175C92 234.56 88.6931 236.73 85.302 238.725L86.3529 239.579C88.1267 235.31 90.0241 231.095 91.6891 226.798C93.3027 222.48 95.0234 218.204 96.5041 213.836C98.0172 209.527 99.3693 205.272 101.701 201.573C104.023 197.945 107.267 194.692 111.665 193.284L111.613 192.942C106.811 193.094 102.346 196.101 99.3405 199.874C96.2849 203.717 94.4014 208.223 92.8941 212.587C91.3622 216.934 90.0887 221.371 88.6859 225.764C87.3452 230.164 86.2256 234.663 84.9913 239.111L84.4039 241.201L86.0605 239.963C89.2405 237.568 92.5105 235.34 95.9465 233.346C99.4345 231.401 102.952 229.504 106.158 226.955C109.302 224.398 112.114 221.203 113.976 217.439C115.819 213.717 116.583 209.308 115.48 205.373L115.119 205.404Z" fill="#373434" fill-opacity="0.1"/>
<path d="M109.204 176.208C113.709 174.972 118.115 176.341 122.523 177.529C126.936 178.75 131.206 180.316 135.484 181.924C139.768 183.488 144.08 185.245 148.022 187.651C151.955 190.087 155.465 193.16 158.595 196.541L159.238 194.865C154.458 194.668 149.732 195.282 145.14 195.847C140.558 196.395 136.043 196.732 131.713 196.218C127.407 195.721 123.204 194.191 119.53 191.709C115.822 189.246 112.632 185.91 110.248 181.901L109.922 182.041C111.249 186.608 114.1 190.759 117.841 193.931C121.579 197.058 126.248 199.33 131.203 199.998C136.159 200.684 141.011 199.975 145.636 199.175C150.272 198.391 154.738 197.303 159.294 196.805L161.667 196.556L159.932 195.133C156.287 192.114 152.496 189.372 148.666 186.684C144.816 184.007 140.93 181.293 136.668 179.181C132.383 177.134 127.808 175.711 123.15 174.826C118.652 173.991 113.29 173.303 109.055 175.881L109.204 176.208Z" fill="#373434" fill-opacity="0.1"/>
<path d="M148.819 248.622C147.904 244.505 145.373 240.968 142.328 238.316C140.733 237.021 138.872 236.086 137.329 234.811C135.75 233.563 134.42 232.083 133.172 230.498C130.736 227.294 128.147 224.412 125.862 221.355C123.421 218.408 121.242 215.398 119.165 211.851L118.814 211.942C118.668 216.156 120.44 220.279 122.82 223.661C125.337 226.97 128.404 229.756 131.845 231.935C133.521 233.069 135.165 234.232 136.545 235.678C137.942 237.099 138.996 238.87 140.219 240.407C142.78 243.398 145.488 245.976 148.508 248.809L148.819 248.622Z" fill="#373434" fill-opacity="0.1"/>
<path d="M98.9181 219.515C100.817 218.158 101.98 216.766 102.821 215.063C103.176 214.164 103.317 213.046 103.881 212.231C104.416 211.402 105.279 210.876 106.203 210.426C108.11 209.602 109.791 208.449 111.258 206.819C112.56 205.14 113.57 202.639 112.761 200.365L112.412 200.307C110.923 202.002 109.709 203.007 108.394 204.292C107.217 205.65 105.844 207.085 104.862 208.994C104.327 209.923 103.782 210.795 103.011 211.478C102.253 212.159 101.156 212.616 100.38 213.357C98.9496 214.92 98.2019 217.06 98.5837 219.388L98.9181 219.515Z" fill="#373434" fill-opacity="0.1"/>
<path d="M141.087 190.559C138.627 188.666 136.038 187.603 133.264 187.066C131.851 186.87 130.336 186.994 128.959 186.664C127.562 186.357 126.3 185.686 125.065 184.924C122.651 183.321 120.091 182.149 117.503 181.082C114.851 180.155 112.4 179.531 109.561 178.52L109.326 178.78C110.697 181.625 113.498 183.407 116.066 184.612C118.739 185.686 121.488 186.505 124.416 186.779C125.871 186.958 127.29 187.209 128.594 187.773C129.919 188.304 131.106 189.29 132.406 189.908C135.072 190.995 137.949 191.407 140.999 190.899L141.087 190.559Z" fill="#373434" fill-opacity="0.1"/>
<path d="M62.9151 152.739C59.8617 159.304 56.5096 165.679 52.7218 171.745C48.8633 177.702 44.5107 183.478 38.4636 186.789C35.446 188.434 32.1214 189.721 28.7619 191.26C25.4156 192.801 22.2033 194.613 19.1704 196.663C13.0161 200.65 7.49547 205.374 1.75584 209.757L2.73605 210.502C7.07217 198.978 12.1724 187.509 19.9845 178.136C23.8884 173.481 28.3071 169.281 33.4206 166.192C38.4432 163.01 44.2701 161.289 50.146 159.182C56.0167 157.047 61.5887 154.885 67.5201 153.909C70.4892 153.364 73.5465 152.997 76.6261 152.534C79.7156 152.032 82.7884 151.455 85.8259 150.775C98.0302 148.118 109.836 143.744 120.761 137.903L120.608 137.571C109.114 142.145 97.2621 145.515 85.2227 147.698C79.1883 148.799 73.163 149.247 66.8946 150.211C60.5576 151.117 54.5444 153.498 48.8631 155.7C43.185 157.911 37.0612 159.853 31.671 163.44C26.3244 167.006 21.7832 171.569 18.1146 176.676C10.6894 186.907 6.40314 198.691 1.54704 210.026L0.61106 212.221L2.52985 210.785C8.2968 206.433 14.31 202.422 20.5129 198.866C23.6338 197.127 26.8064 195.504 30.0266 194.058C33.2399 192.63 36.7447 191.476 40.0239 189.506C46.6228 185.536 51.2866 179.338 54.7296 172.926C58.2428 166.528 61.1185 159.812 63.2363 152.865L62.9151 152.739Z" fill="#373434" fill-opacity="0.1"/>
<path d="M69.9993 151.197C65.5495 151.253 62.0757 148.402 59.4446 145.203C56.7904 141.942 54.2265 138.061 50.9356 134.964C47.6743 131.818 43.9063 129.265 40.043 127.01C36.1651 124.762 32.2506 122.68 28.1941 120.809L28.0502 122.044C33.4519 121.438 38.8954 121.149 44.0788 121.696C46.6603 122.026 49.1996 122.531 51.5296 123.504C53.8837 124.466 56.0637 125.838 58.1967 127.321C62.441 130.378 66.3171 133.975 69.9993 137.929C73.6752 141.865 77.2926 145.896 80.6619 150.186L80.9672 150.003C78.6427 145.013 75.6001 140.384 72.2266 136.026C68.8924 131.677 65.0491 127.453 60.4062 124.209C55.833 120.854 49.9878 118.763 44.3097 118.626C38.599 118.4 33.1839 119.722 27.8486 120.762L25.5992 121.195L27.7047 121.997C31.7914 123.551 35.7059 125.633 39.1551 128.336C42.6376 130.994 45.6908 134.112 48.675 137.206C50.1786 138.769 51.6404 140.339 53.0525 141.975C54.43 143.633 55.8837 145.36 57.4887 147.004C60.6063 150.244 65.5041 152.885 70.0641 151.544L69.9993 151.197Z" fill="#373434" fill-opacity="0.1"/>
<path d="M57.3523 154.411C54.7677 156.45 53.1053 159.294 51.4978 161.938C49.9173 164.712 48.4745 166.981 46.3808 169.061C44.3765 171.213 41.9886 173.265 39.351 174.904C36.6958 176.541 33.8392 177.838 31.0431 179.383C28.2127 180.883 25.5366 182.67 23.1159 184.763C20.6749 186.809 18.3401 189 16.2507 191.374C12.0984 196.193 8.59155 201.436 5.66879 207.058L5.96316 207.279C10.6744 203.02 14.8409 198.392 19.0689 193.94C23.1837 189.359 27.4654 185.041 32.1282 181.001C34.4937 179.012 37.1235 177.332 39.9157 175.913C42.7078 174.494 45.7066 173.311 48.3721 171.274C51.0619 169.258 52.8243 166.017 53.9644 163.196C55.251 160.327 56.1338 157.375 57.6309 154.648L57.3523 154.411Z" fill="#373434" fill-opacity="0.1"/>
<path d="M85.3306 149.266C85.2435 154.165 86.1195 159.054 84.1136 163.042C82.3569 167.186 79.151 170.778 76.5555 174.852C73.8572 178.852 71.2224 182.916 68.0376 186.551C64.8901 190.21 61.3579 193.517 57.778 196.745L59.8391 197.965C61.3372 193.993 62.7106 189.976 64.0302 185.956C65.3725 181.934 66.6921 177.914 67.8079 173.834C69.0015 169.779 69.9449 165.639 71.01 161.534C71.4687 159.526 71.9964 157.54 72.8479 155.695C73.6501 153.846 74.7308 152.073 76.482 150.934L76.3288 150.606C74.1923 151.267 72.5469 153.044 71.3259 154.852C70.1071 156.71 69.1975 158.715 68.4094 160.754C67.0208 164.751 65.5011 168.716 64.2341 172.748C62.9056 176.767 61.7722 180.844 60.6723 184.94C59.53 189.016 58.439 193.113 57.4879 197.242L56.2994 202.337L59.5452 198.457C62.6753 194.729 65.669 190.909 68.8557 187.26C72.0025 183.575 75.4798 180.174 78.7197 176.533C81.9015 172.92 85.0542 168.995 86.7827 164.043C87.6793 161.644 87.8491 158.788 87.4137 156.357C87.0326 153.894 86.3397 151.564 85.694 149.217L85.3306 149.266Z" fill="#373434" fill-opacity="0.1"/>
<path d="M79.7207 150.268C78.7271 154.378 77.4284 157.954 76.1221 161.682C75.545 163.503 74.9577 165.625 74.0917 167.477C73.2252 169.366 72.0424 171.062 70.7816 172.734C68.1827 176.017 66.0288 179.542 64.0466 183.164C62.2116 186.864 60.6072 190.691 59.6354 194.872L59.946 195.041C62.9398 191.971 65.2794 188.539 67.3928 184.981C69.3477 181.361 71.1644 177.631 72.5032 173.668C73.2131 171.703 74.0118 169.782 75.116 168.034C76.1809 166.245 77.7323 164.822 78.844 162.89C80.8265 159.07 81.5874 154.39 80.0778 150.231L79.7207 150.268Z" fill="#373434" fill-opacity="0.1"/>
<path d="M170.082 62.3807C165.09 70.4921 158.085 76.7763 150.755 82.7357C143.514 88.8021 136.339 94.9727 127.93 98.7511C119.567 102.613 110.319 104.497 100.967 105.007C91.6015 105.516 82.1398 104.472 72.9072 102.589L73.1991 103.545C82.423 93.9841 93.1438 85.9031 104.687 79.5747C110.469 76.4209 116.472 73.7221 122.681 71.6523C128.875 69.5306 135.324 68.1756 141.82 67.0032C148.3 65.8421 154.952 64.786 161.443 63.9379C167.968 63.1758 174.334 63.0372 180.516 65.1392C183.643 66.0959 186.732 67.3227 189.962 68.3523C193.196 69.3509 196.462 70.1823 199.772 70.8258C206.385 72.1615 213.137 72.5322 219.816 72.2879L219.808 71.9212C213.164 71.6196 206.6 70.5164 200.213 68.8825C193.758 67.3116 187.865 64.6176 181.463 62.2775C175.017 59.8319 167.705 59.4693 161.039 60.3383C154.32 61.1683 147.796 62.1474 141.152 63.2857C127.934 65.6354 114.766 70.0326 103.28 77.1227C91.6809 84.0799 81.648 93.159 72.3786 102.755L71.637 103.514L72.6832 103.718C81.9938 105.526 91.4271 106.873 101.013 107.018C110.562 107.139 120.367 105.703 129.251 101.629C138.185 97.517 145.428 90.9541 152.415 84.6314C155.891 81.4109 159.403 78.1461 162.553 74.5331C165.643 70.8666 168.359 66.8729 170.393 62.5501L170.082 62.3807Z" fill="#373434" fill-opacity="0.1"/>
<path d="M110.1 13.207C116.097 18.3712 122.292 23.0254 128.707 27.4574C131.966 29.5746 135.36 31.5659 138.475 33.9158C141.624 36.2433 144.272 39.1244 147.641 41.4643C151.07 43.9165 155.229 44.7587 158.742 45.954C162.372 47.1608 165.87 48.661 169.218 50.3661C175.996 53.6747 181.954 58.409 186.608 64.7685L186.929 64.6008C184.275 57.0332 178.1 50.806 170.986 46.986C167.413 45.0511 163.563 43.7415 159.699 42.728C155.755 41.6445 151.98 41.3882 148.625 39.7634C141.798 36.3216 136.415 30.1455 130.474 25.0614C124.343 20.145 117.584 15.9813 110.296 12.9L110.1 13.207Z" fill="#373434" fill-opacity="0.1"/>
<path d="M142.53 47.9251C147.349 50.5111 152.524 52.4556 158.047 53.3197C160.81 53.6437 163.736 53.7013 166.596 52.5128C168.001 51.9219 169.424 50.8325 170.209 49.2437C170.973 47.6703 170.987 45.9704 170.836 44.4824C168.694 33.0626 161.887 23.3444 153.238 16.2331C144.564 9.07765 133.946 4.58715 123.112 2.6625C112.23 0.663437 101.259 0.63841 90.3316 1.11593L88.0479 1.21044L90.0671 2.40648C95.0065 5.33405 97.1726 10.9789 100.037 16.1742C101.499 18.7872 103.214 21.4668 105.734 23.5403C108.265 25.7371 111.323 26.6707 113.82 27.8741C118.92 30.2597 123.609 33.8207 128.17 37.5265C132.785 41.1992 137.336 45.0751 142.53 47.9251ZM142.7 47.6101C137.52 44.7891 133.298 40.6247 129.14 36.4511C124.953 32.3276 120.68 27.98 115.177 25.1143C112.426 23.6906 109.744 22.7864 107.754 21.0844C105.668 19.4232 104.041 17.1258 102.423 14.7259C100.842 12.3221 99.3514 9.71868 97.5583 7.28097C95.767 4.82996 93.4853 2.59543 90.7018 1.18074L90.4355 2.48456C101.212 1.36771 112.225 2.03064 122.633 4.78554C132.995 7.57478 142.91 12.0626 150.873 19.0384C158.863 25.8464 165.03 35.0697 167.805 44.8932C168.277 47.2879 167.745 49.3043 165.577 50.4847C163.482 51.6617 160.784 52.0059 158.153 51.935C152.834 51.7536 147.489 50.1241 142.7 47.6101Z" fill="#373434" fill-opacity="0.1"/>
<path d="M167.613 63.0679C160.202 67.0976 153.363 71.7616 146.519 76.3618C143.151 78.7711 139.8 81.2593 136.11 83.1634C132.432 85.0782 128.495 86.4244 124.462 87.3466C116.409 89.1701 108.164 90.5246 100.091 92.7201C92.297 94.8865 83.6051 96.5313 76.517 101.296L76.6651 101.628C84.6388 98.9767 92.7204 98.3488 101.027 96.4205C109.032 94.2291 117.191 92.3932 125.047 89.2197C128.971 87.6776 132.785 85.8899 136.616 84.204C140.447 82.5225 144.38 80.9184 148.086 78.8947C155.389 74.6694 161.91 69.3339 167.831 63.3509L167.613 63.0679Z" fill="#373434" fill-opacity="0.1"/>
<path d="M177.397 148.162C184.279 152.062 189.81 157.853 193.82 164.462C197.774 171.117 200.548 178.498 201.679 186.139C202.21 189.937 202.502 193.729 201.804 197.429C201.123 201.144 199.841 204.79 198.235 208.337C194.942 215.429 190.93 222.299 186.027 228.459L187.041 228.573C181.197 216.983 175.83 204.824 174.269 192.035C173.486 185.661 173.675 179.309 175.053 173.049C176.3 166.775 178.28 160.531 179.502 153.956C180.134 150.698 180.49 147.218 180.373 143.983L180.314 134.143C180.417 127.792 181.202 121.409 182.86 115.233C186.156 102.878 192.46 91.2603 201.28 81.6476L201.032 81.3831C191.217 90.059 183.705 101.604 179.866 114.367C177.857 120.725 176.749 127.383 176.585 134.078C176.303 140.584 177.063 147.122 175.825 153.32C174.814 159.613 172.981 165.909 171.822 172.448C170.591 178.995 170.62 185.887 171.833 192.42C174.333 205.564 180.447 217.317 185.95 229.117L186.353 229.985L186.982 229.228C191.983 223.036 196.625 216.511 200.44 209.432C202.344 205.886 204.024 202.097 204.793 197.982C205.585 193.889 205.523 189.646 204.783 185.635C203.32 177.645 200.45 169.853 195.818 163.172C191.253 156.5 184.984 150.846 177.557 147.827L177.397 148.162Z" fill="#373434" fill-opacity="0.1"/>
<path d="M180.759 124.115C181.038 126.862 182.57 129.259 184.234 131.395C185.943 133.527 187.985 135.372 190.21 137.034C194.662 140.418 200.149 142.167 205.521 143.109C210.936 144.039 216.323 144.253 221.727 144.252C227.126 144.25 232.523 143.81 237.83 142.938L240.748 142.471L238.324 141.034C233.564 138.217 228.878 135.279 224.351 132.115C219.757 129.005 215.754 125.219 210.79 122.274C205.701 119.285 199.698 118.626 194.23 118.6C191.552 118.581 188.703 118.155 185.852 118.5C184.452 118.699 182.93 118.999 181.84 120.062C180.759 121.149 180.607 122.74 180.759 124.115ZM181.112 124.078C181.016 122.751 181.192 121.281 182.188 120.417C183.202 119.614 184.573 119.393 185.901 119.451C188.582 119.551 191.179 120.362 194.001 120.879C199.46 121.906 204.689 122.617 209.451 124.901C211.889 125.943 214.254 127.313 216.642 128.718C219.027 130.105 221.413 131.523 223.711 133.056C228.313 136.104 232.765 139.388 237.149 142.776L237.625 140.865C232.327 141.052 227.052 141.039 221.788 140.843C216.549 140.601 211.266 140.122 206.138 139.371C201.014 138.589 196.058 137.28 191.412 135.075C189.089 133.918 186.877 132.483 184.948 130.735C183.049 128.964 181.458 126.695 181.112 124.078Z" fill="#373434" fill-opacity="0.1"/>
<path d="M178.392 143.654C176.421 146.866 173.903 149.565 171.269 152.093C168.628 154.635 165.75 156.904 162.746 158.903C159.745 160.858 156.545 162.87 153.251 164.658C149.964 166.487 146.499 167.971 143.045 169.506L143.926 170.251C145.445 165.802 147.509 161.587 149.475 157.372C151.481 153.181 153.559 149.004 156.213 145.481C158.833 141.853 162.144 139.359 166.414 137.341C170.517 135.224 175.07 133.285 178.596 129.955L178.378 129.672C174.234 131.888 169.691 132.911 165.236 134.637C163.012 135.502 160.703 136.397 158.553 137.873C156.458 139.348 154.613 141.165 153.161 143.207C150.213 147.277 148.379 151.758 146.665 156.18C144.963 160.644 143.849 165.301 142.707 169.897L142.371 171.308L143.605 170.644C146.898 168.87 150.372 167.419 153.927 166.164C157.486 164.847 161.11 163.615 164.47 161.584C167.8 159.504 170.671 156.836 173.19 153.899C175.656 150.954 177.78 147.551 178.719 143.799L178.392 143.654Z" fill="#373434" fill-opacity="0.1"/>
<path d="M232.503 140.693C230.895 138.845 228.512 137.924 226.46 137.161C224.338 136.384 222.175 135.705 219.943 135.324C217.706 134.987 215.385 134.923 213.163 134.475C210.955 134.025 208.836 133.222 206.733 132.339C202.565 130.421 198.125 129.395 194.393 127.597C190.518 125.945 186.774 123.549 182.561 121.57L182.323 121.849C185.102 125.547 188.451 128.846 192.759 131.054C194.939 132.132 197.269 132.708 199.505 133.189C201.746 133.693 203.963 133.987 206.238 134.248C208.49 134.514 210.723 134.882 212.869 135.59C215.015 136.294 217.051 137.366 219.166 138.196C221.283 138.981 223.494 139.445 225.719 139.839C227.991 140.253 230.113 140.317 232.291 140.988L232.503 140.693Z" fill="#373434" fill-opacity="0.1"/>
</svg>
