<svg width="480" height="488" viewBox="0 0 480 488" fill="none" xmlns="http://www.w3.org/2000/svg">
<path d="M466.541 0.00404358C467.387 25.6086 467.392 51.4284 463.314 76.9294C459.039 102.463 449.936 126.805 440.772 150.931C436.006 162.92 431.783 175.202 424.807 186.516C417.813 197.833 408.329 207.416 398.52 216.298C378.986 234.229 357.812 250.562 335.297 264.944L335.095 264.675C356.304 248.657 376.649 231.749 396.003 213.859C405.584 204.881 415.016 195.696 421.979 184.921C428.863 174.13 433.598 162.025 438.974 150.264C444.161 138.437 449.037 126.465 452.716 114.137C456.495 101.834 458.837 89.216 460.437 76.5401C463.958 51.2337 464.677 25.6251 466.186 -7.62939e-05L466.541 0.00404358Z" fill="#373434" fill-opacity="0.1"/>
<path d="M347.17 244.499C350.559 245.187 354.177 246.512 356.207 249.56C358.114 252.736 357.452 256.558 356.619 259.797C355.694 263.105 354.383 266.232 353.032 269.301C351.66 272.46 349.867 275.483 347.644 278.279C345.381 281.02 342.575 283.534 339.172 285.211C335.77 286.913 332.038 287.604 328.491 288.031C321.401 288.809 314.298 288.929 307.229 288.453C305.471 288.35 303.695 288.221 301.95 288.056L299.315 287.774C298.451 287.646 297.579 287.77 296.487 287.248C295.377 286.66 295.176 285.335 295.364 284.478C295.522 283.567 295.934 282.73 296.36 282.006C297.188 280.54 297.956 279.04 298.841 277.591C302.213 271.74 305.896 265.992 310.356 260.741C314.859 255.598 319.98 250.67 326.421 247.444C329.592 245.82 333.06 244.665 336.594 244.127C340.128 243.646 343.728 243.746 347.17 244.499ZM347.095 244.822C343.697 244.118 340.115 244.114 336.787 244.976C333.463 245.878 330.355 247.328 327.583 249.212C322.041 252.98 317.301 257.768 312.557 262.534C307.87 267.329 303.384 272.444 299.828 278.121C298.947 279.542 298.087 280.979 297.324 282.457C296.544 283.786 296.018 285.704 297.096 286.229C297.587 286.49 298.561 286.478 299.425 286.544L302.033 286.623C303.783 286.656 305.528 286.673 307.273 286.635C314.245 286.478 321.195 285.894 328.022 284.937C331.407 284.44 334.656 283.674 337.432 282.179C340.216 280.668 342.658 278.568 344.688 276.104C346.784 273.678 348.45 270.87 349.95 267.984C351.45 264.99 353.111 262.087 354.414 259.118C355.655 256.182 356.624 252.91 355.33 249.991C353.936 247.092 350.419 245.535 347.095 244.822Z" fill="#373434" fill-opacity="0.1"/>
<path d="M379.79 245.121C377.72 249.32 375.331 253.353 372.98 257.382C371.792 259.354 370.735 261.341 370.135 263.35C369.512 265.325 369.604 267.396 369.832 269.607C370.078 271.822 370.455 274.166 370.349 276.618C370.24 279.061 369.714 281.384 369.166 283.633C368.017 288.047 367.013 292.801 369.074 296.847L367.894 296.93L369.99 288.482C370.713 285.645 371.775 282.738 373.555 280.15C375.238 277.583 377.326 275.429 378.882 273.139C380.483 270.841 381.408 268.547 381.491 265.971C381.561 263.404 381.079 260.592 380.689 257.705L379.65 249.113C379.277 246.259 379.044 243.373 378.773 240.503C378.628 239.054 378.575 237.687 378.053 236.482C377.804 235.894 377.33 235.323 376.922 234.677C376.514 234.06 376.151 233.173 376.493 232.403L376.83 232.49C376.685 233.861 378.216 234.598 379.115 235.936C380.053 237.302 380.32 238.855 380.64 240.238C381.289 243.062 381.965 245.882 382.508 248.711L384.197 257.208C384.657 260.029 385.385 262.915 385.24 266.116C385.201 269.363 383.622 272.58 381.741 274.982C379.847 277.446 377.755 279.541 376.032 281.74C372.656 286.084 371.02 291.803 369.109 297.249L368.569 298.798L367.925 297.336C365.89 292.739 367.105 287.886 367.57 283.376C367.828 281.094 368.026 278.825 367.841 276.668C367.631 274.51 367.057 272.319 366.732 269.951C366.408 267.615 366.373 264.965 367.236 262.526C368.03 260.103 369.437 258.045 370.797 256.107C373.612 252.318 376.405 248.558 379.496 244.938L379.79 245.121Z" fill="#373434" fill-opacity="0.1"/>
<path d="M366.117 187.87C362.097 182.06 358.036 176.229 352.836 171.516C350.245 169.168 347.351 167.185 344.259 165.599C341.133 164.054 337.752 163.002 334.262 162.443C327.255 161.342 320.029 161.71 312.948 163.106C305.84 164.435 298.851 166.613 291.919 168.924L292.134 167.856C301.907 176.403 313.294 183.273 325.344 188.536C328.338 189.866 331.421 191.038 334.495 192.226C337.581 193.381 340.655 194.508 343.751 195.108C346.855 195.746 349.876 195.717 352.656 194.624C355.484 193.597 357.997 191.634 361.018 189.907C362.522 189.046 364.192 188.263 366.025 187.783C367.871 187.323 369.537 187.145 371.283 186.992C374.747 186.722 378.14 186.731 381.438 186.727C384.757 186.698 387.997 186.586 391.102 186.023C394.259 185.435 397.481 184.669 400.599 183.72C413.069 179.877 424.75 173.434 434.221 164.522L434.48 164.75C426.022 174.61 414.407 182.122 401.608 186.503C398.394 187.613 395.175 188.536 391.799 189.286C388.344 189.973 384.88 190.131 381.503 190.213C378.136 190.313 374.817 190.251 371.611 190.516C370.033 190.628 368.384 190.851 366.972 191.17C365.574 191.505 364.201 192.102 362.829 192.839C360.093 194.301 357.339 196.38 353.871 197.593C350.398 198.885 346.434 198.815 343.058 197.986C339.62 197.175 336.503 195.878 333.425 194.599C330.342 193.299 327.33 191.866 324.37 190.363C312.492 184.333 301.517 176.966 291.235 168.816L290.397 168.141L291.445 167.744C298.272 165.147 305.09 162.398 312.343 160.629C319.569 158.898 327.33 158.161 334.823 159.64C342.317 160.973 349.438 164.684 354.428 170.034C359.588 175.256 363.206 181.463 366.424 187.696L366.117 187.87Z" fill="#373434" fill-opacity="0.1"/>
<path d="M373.492 189.551C369.848 190.835 366.945 193.158 364.634 195.821C362.289 198.5 360.684 201.672 359.202 204.939C357.667 208.194 356.216 211.607 354.979 215.064C353.765 218.539 352.8 222.084 352.02 225.657L350.893 224.991C354.295 222.158 357.606 219.234 361.065 216.489C364.56 213.781 367.984 210.994 371.567 208.389C375.083 205.772 378.604 203.316 381.301 200.165C383.932 197.042 385.918 193.228 385.835 188.951L386.168 188.893C387.549 193.145 386.172 197.962 383.625 201.726C381.029 205.552 377.442 208.55 373.869 211.176C370.322 213.822 366.608 216.265 362.977 218.808C359.32 221.301 355.497 223.628 351.761 226.042L350.007 227.181L350.634 225.359C351.849 221.856 352.879 218.323 353.642 214.717C354.339 211.076 354.984 207.424 356.334 203.854C357.711 200.334 359.785 196.91 362.688 194.152C365.555 191.427 369.405 189.435 373.408 189.224L373.492 189.551Z" fill="#373434" fill-opacity="0.1"/>
<path d="M402.459 185.998C402.183 181.679 399.512 178.225 397.013 174.722C394.483 171.214 391.677 167.943 388.831 164.675C386.02 161.387 383.026 158.137 379.544 155.403C376.032 152.683 372.073 150.525 367.942 148.794L369.293 147.73C370.989 151.863 371.919 156.186 372.853 160.381C373.791 164.559 374.909 168.618 376.764 172.258C378.588 175.885 381.337 179.107 384.806 181.583C388.265 184.101 392.374 185.899 396.846 186.785L396.824 187.112C392.163 187.319 387.406 186.06 383.28 183.733C379.189 181.389 375.607 177.981 373.414 173.84C371.204 169.698 370.327 165.234 369.604 160.944C368.863 156.646 368.459 152.405 367.473 148.26L366.951 146.107L368.823 147.2C372.783 149.49 376.527 151.995 380.237 154.546C383.938 157.118 387.687 159.714 391.001 162.816C394.259 165.959 397.031 169.541 399.324 173.359C401.525 177.049 403.862 181.546 402.814 186.027L402.459 185.998Z" fill="#373434" fill-opacity="0.1"/>
<path d="M322.708 172.953C326.817 172.519 330.903 173.678 334.328 175.554C336.038 176.564 337.493 177.914 339.164 178.888C340.821 179.898 342.619 180.623 344.487 181.24C348.227 182.416 351.726 183.824 355.287 184.913C358.794 186.168 362.28 187.174 366.231 187.936L366.253 188.267C362.39 189.659 358.001 189.34 354.112 188.267C350.244 187.05 346.684 185.195 343.571 182.83C341.988 181.704 340.392 180.61 338.607 179.832C336.849 179.037 334.871 178.639 333.056 178.026C329.469 176.676 326.22 175.078 322.633 173.281L322.708 172.953Z" fill="#373434" fill-opacity="0.1"/>
<path d="M365.527 207.971C366.189 205.9 367.11 204.467 368.425 203.217C369.144 202.641 370.14 202.181 370.718 201.444C371.319 200.724 371.534 199.809 371.657 198.869C371.819 196.951 372.354 195.133 373.402 193.357C374.551 191.713 376.55 190.077 378.913 190.11L379.08 190.396C377.975 192.21 377.431 193.572 376.655 195.113C375.765 196.55 374.871 198.181 373.406 199.614C372.718 200.364 372.082 201.101 371.692 201.983C371.297 202.848 371.223 203.946 370.784 204.848C369.784 206.571 368.035 207.867 365.755 208.228L365.527 207.971Z" fill="#373434" fill-opacity="0.1"/>
<path d="M379.035 162.352C381.573 163.938 383.38 165.889 384.757 168.158C385.388 169.338 385.752 170.705 386.497 171.815C387.221 172.945 388.243 173.848 389.343 174.701C391.592 176.341 393.495 178.229 395.302 180.184C397.008 182.229 398.358 184.192 400.2 186.375L400.029 186.656C396.959 186.308 394.416 184.387 392.483 182.495C390.637 180.478 389.005 178.312 387.826 175.827C387.199 174.606 386.519 173.438 385.581 172.465C384.665 171.463 383.375 170.717 382.393 169.765C380.539 167.748 379.241 165.354 378.75 162.526L379.035 162.352Z" fill="#373434" fill-opacity="0.1"/>
<path d="M438.906 219.541C433.785 224.179 428.926 229.028 424.498 234.163C420.192 239.327 416.211 244.868 415.057 251.158C414.487 254.297 414.347 257.598 413.983 261.002C413.615 264.393 412.948 267.752 412.01 271.023C410.256 277.612 407.625 283.865 405.376 290.209L404.372 289.567C413.694 282.324 422.722 274.419 428.944 264.766C432.026 259.95 434.521 254.823 435.771 249.419C437.13 244.06 436.88 238.441 436.972 232.66C437.095 226.875 437.336 221.342 436.358 215.855C435.924 213.089 435.297 210.302 434.749 207.461C434.241 204.604 433.802 201.742 433.469 198.873C432.066 187.381 432.386 175.728 434.341 164.406L434.697 164.439C434.096 175.885 434.723 187.278 436.512 198.479C437.406 204.099 438.897 209.515 439.989 215.3C441.16 221.119 440.853 227.103 440.607 232.743C440.362 238.379 440.498 244.33 438.88 250.127C437.262 255.879 434.469 261.221 430.891 265.967C423.748 275.537 414.172 282.821 405.192 290.47L403.451 291.948L404.179 289.836C406.389 283.48 408.204 277.007 409.537 270.506C410.164 267.251 410.664 263.987 410.984 260.733C411.291 257.486 411.251 254.07 412.045 250.608C413.637 243.634 417.907 237.691 422.766 232.755C427.593 227.765 432.912 223.235 438.687 219.297L438.906 219.541Z" fill="#373434" fill-opacity="0.1"/>
<path d="M438.095 212.87C439.45 216.787 443.194 218.978 447 220.324C450.868 221.674 455.279 222.763 459.199 224.721C463.149 226.639 466.714 229.173 470.033 231.886C473.344 234.61 476.519 237.418 479.54 240.416L478.439 240.909C477.29 235.994 475.834 231.136 473.682 226.759C472.559 224.597 471.283 222.522 469.643 220.767C468.003 218.994 466.043 217.495 463.987 216.071C459.808 213.263 455.239 210.944 450.403 208.898C445.584 206.857 440.699 204.894 435.653 203.225L435.723 202.902C441.094 203.444 446.351 204.724 451.468 206.376C456.555 208 461.698 210.099 466.175 213.201C470.739 216.203 474.532 220.7 476.462 225.637C478.478 230.573 478.97 235.716 479.693 240.702L480 242.802L478.592 241.199C475.856 238.081 472.686 235.273 469.082 233.062C465.513 230.805 461.65 229.061 457.831 227.372C455.906 226.523 453.985 225.711 452.021 224.966C450.043 224.253 447.983 223.496 445.948 222.58C441.954 220.816 437.95 217.317 437.753 212.919L438.095 212.87Z" fill="#373434" fill-opacity="0.1"/>
<path d="M439.12 224.916C438.045 227.79 435.932 230.097 433.989 232.3C431.915 234.515 430.271 236.457 429.004 238.917C427.645 241.315 426.496 244.023 425.808 246.827C425.132 249.643 424.83 252.537 424.282 255.448C423.791 258.38 422.979 261.258 421.804 264.004C420.677 266.758 419.388 269.458 417.845 272C414.688 277.082 410.934 281.724 406.646 285.968L406.344 285.778C408.803 280.374 411.781 275.338 414.574 270.298C417.516 265.321 420.169 260.277 422.44 254.981C423.536 252.314 424.26 249.506 424.694 246.632C425.124 243.762 425.273 240.781 426.321 237.832C427.338 234.871 429.785 232.358 432.043 230.515C434.296 228.531 436.756 226.871 438.813 224.746L439.12 224.916Z" fill="#373434" fill-opacity="0.1"/>
<path d="M435.022 198.856C430.506 200.397 425.692 201.092 422.631 204.045C419.342 206.828 417.023 210.712 414.068 214.203C411.209 217.764 408.271 221.293 405.908 225.169C403.509 229.024 401.558 233.111 399.699 237.211L397.914 235.77C401.124 233.273 404.417 230.863 407.732 228.506C411.033 226.125 414.348 223.765 417.782 221.566C421.167 219.305 424.709 217.238 428.178 215.081C429.897 214.075 431.572 213.019 433.014 211.723C434.479 210.464 435.781 208.985 436.281 207.113L436.636 207.147C436.702 209.217 435.57 211.188 434.281 212.799C432.94 214.427 431.37 215.826 429.73 217.127C426.459 219.537 423.262 222.059 419.921 224.374C416.615 226.742 413.186 228.954 409.736 231.144C406.315 233.364 402.86 235.546 399.331 237.617L394.976 240.18L397.55 236.176C400.019 232.32 402.615 228.552 404.991 224.668C407.412 220.804 409.468 216.742 411.818 212.812C414.164 208.94 416.804 205.002 420.851 202.007C422.793 200.5 425.393 199.498 427.788 199.154C430.195 198.753 432.576 198.661 434.957 198.525L435.022 198.856Z" fill="#373434" fill-opacity="0.1"/>
<path d="M435.873 204.074C432.37 206.173 429.467 208.385 426.42 210.642C424.911 211.693 423.131 212.845 421.684 214.157C420.211 215.483 419.005 217.027 417.852 218.63C415.633 221.889 413.042 224.833 410.31 227.653C407.46 230.37 404.417 232.921 400.843 235.024L400.589 234.801C402.492 231.26 404.93 228.183 407.565 225.268C410.306 222.469 413.191 219.76 416.444 217.404C418.04 216.191 419.571 214.915 420.842 213.424C422.162 211.958 422.995 210.17 424.438 208.617C427.349 205.734 431.453 203.668 435.79 203.751L435.873 204.074Z" fill="#373434" fill-opacity="0.1"/>
<path d="M406.873 117.835C401.072 112.973 393.947 109.859 386.541 108.323C379.113 106.849 371.383 106.629 363.938 107.921C360.246 108.592 356.633 109.474 353.419 111.193C350.187 112.899 347.21 115.114 344.43 117.582C338.888 122.593 333.788 128.167 329.623 134.304L329.197 133.451C341.803 135.104 354.787 136.172 367.152 133.708C373.312 132.486 379.148 130.42 384.52 127.339C389.948 124.37 395.113 120.763 400.831 117.723C403.655 116.195 406.768 114.845 409.806 113.976L418.957 111.085C424.815 109.093 430.494 106.497 435.698 103.192C446.121 96.6078 454.904 87.6091 461.029 76.9996L461.349 77.1362C456.412 88.338 448.076 98.376 437.448 105.561C432.191 109.226 426.363 112.187 420.198 114.336C414.248 116.531 407.943 117.819 402.585 120.759C397.064 123.529 391.803 127.02 386.102 129.993C380.415 133.033 374.014 135.066 367.568 135.961C354.576 137.704 341.733 135.861 329.039 134.569L328.105 134.478L328.61 133.7C332.771 127.463 337.357 121.442 342.715 115.98C345.403 113.251 348.385 110.646 351.958 108.741C355.506 106.82 359.465 105.602 363.42 105.051C371.3 103.942 379.438 104.124 387.107 106.186C394.745 108.19 401.975 111.992 407.132 117.599L406.873 117.835Z" fill="#373434" fill-opacity="0.1"/>
<path d="M428.126 107.694C425.487 108.273 422.777 107.648 420.269 106.828C417.752 105.967 415.388 104.729 413.144 103.279C408.592 100.389 405.229 96.1027 402.655 91.6758C400.073 87.2117 398.17 82.553 396.455 77.8197C394.75 73.0822 393.443 68.2247 392.57 63.3092L392.084 60.6134L394.188 62.3071C398.306 65.6365 402.515 68.8624 406.891 71.8813C411.227 74.9789 416.011 77.3517 420.317 80.822C424.702 84.3916 427.219 89.452 428.977 94.2392C429.841 96.5789 431.139 98.9476 431.726 101.552C431.98 102.836 432.186 104.257 431.546 105.532C430.88 106.807 429.45 107.416 428.126 107.694ZM428.047 107.375C429.31 107.064 430.617 106.464 431.103 105.337C431.529 104.207 431.301 102.94 430.827 101.788C429.88 99.4735 428.306 97.4402 426.934 95.1212C424.25 90.6447 421.931 86.2717 418.304 82.7807C416.568 80.9586 414.547 79.298 412.486 77.625C410.438 75.9479 408.369 74.279 406.22 72.7261C401.932 69.6037 397.472 66.6842 392.939 63.8558L394.561 62.8703C396.069 67.5663 397.753 72.1878 399.599 76.743C401.489 81.2609 403.607 85.7499 405.926 90.0194C408.276 94.2764 411.061 98.2271 414.582 101.635C416.393 103.329 418.423 104.84 420.655 106.004C422.904 107.139 425.513 107.851 428.047 107.375Z" fill="#373434" fill-opacity="0.1"/>
<path d="M410.744 115.62C408.39 118.303 406.68 121.318 405.171 124.386C403.645 127.459 402.457 130.664 401.554 133.89C400.69 137.108 399.835 140.516 399.221 143.937C398.563 147.365 398.287 150.844 397.954 154.335L396.985 153.78C400.629 151.121 403.887 148.049 407.175 145.063C410.433 142.048 413.647 138.984 416.076 135.601C418.615 132.217 419.878 128.569 420.4 124.225C421.062 119.997 421.417 115.425 423.394 111.338L423.723 111.445C422.978 115.74 423.469 120.026 423.285 124.449C423.184 126.656 423.083 128.946 422.395 131.273C421.693 133.551 420.588 135.712 419.154 137.597C416.313 141.394 412.731 144.347 409.175 147.171C405.575 149.999 401.602 152.368 397.7 154.745L396.498 155.461L396.722 154.182C397.323 150.765 397.573 147.287 397.608 143.792C397.704 140.284 397.7 136.735 398.52 133.186C399.392 129.641 400.958 126.333 402.882 123.239C404.838 120.196 407.324 117.318 410.503 115.371L410.744 115.62Z" fill="#373434" fill-opacity="0.1"/>
<path d="M396.342 67.3054C398.565 68.1626 400.174 69.9764 401.534 71.5459C402.928 73.1733 404.243 74.8671 405.304 76.7099C406.326 78.5692 407.12 80.5818 408.242 82.3956C409.356 84.197 410.772 85.812 412.259 87.3939C415.359 90.4708 417.718 94.0528 420.572 96.786C423.335 99.6889 426.741 102.256 429.916 105.354L429.732 105.644C425.417 104.319 421.296 102.368 417.88 99.2541C416.192 97.668 414.916 95.7962 413.763 93.9824C412.583 92.1645 411.61 90.3134 410.645 88.3961C409.685 86.5036 408.637 84.6566 407.299 82.9878C405.967 81.3189 404.327 79.8571 402.888 78.2462C401.485 76.627 400.358 74.8298 399.284 72.9953C398.179 71.1276 397.447 69.289 396.136 67.5787L396.342 67.3054Z" fill="#373434" fill-opacity="0.1"/>
<path d="M455.52 385.521C450.78 383.55 446.418 380.742 441.138 379.98C436.754 379.346 432.338 378.771 428.024 377.831C424.88 377.143 421.876 375.897 418.807 374.903C417.912 374.609 417.031 374.282 416.123 374.037C407.183 371.615 398.185 369.37 389.319 366.716C385.676 365.627 382.08 364.231 378.721 362.335C373.784 359.548 368.373 357.664 363.05 355.643C359.906 354.45 356.749 353.303 353.579 352.181C351.834 351.568 350.01 351.141 348.291 350.479C342.929 348.425 337.544 346.412 332.287 344.143C329.823 343.079 327.644 341.443 325.311 340.097C323.46 339.024 321.575 338.01 319.725 336.933C319.269 336.668 318.909 336.266 318.501 335.923C318.615 335.765 318.725 335.608 318.835 335.451C320.268 336.271 321.645 337.198 323.149 337.881C324.934 338.689 326.81 339.335 328.683 339.956C332.331 341.169 336.005 342.325 339.675 343.488C341.64 344.114 343.604 344.764 345.595 345.306C349.659 346.425 352.983 348.938 356.789 350.528C361.02 352.297 364.839 354.819 369.325 356.16C371.719 356.881 373.762 358.591 376.077 359.631C379.927 361.362 383.878 362.89 387.763 364.546C394.862 367.569 402.289 369.47 409.976 370.559C412.414 370.903 414.821 371.42 417.237 371.884C422.521 372.907 427.831 373.843 433.079 375.019C436.28 375.739 439.327 377.135 442.55 377.698C447.365 378.539 451.631 380.572 456.055 382.332C458.484 383.297 461.085 383.881 463.588 384.684C464.281 384.904 464.912 385.297 465.579 385.595C468.232 386.776 470.867 387.989 473.555 389.095C473.936 389.248 474.559 388.871 475.125 388.73C475.032 387.169 473.787 386.92 472.831 386.444C470.814 385.442 468.775 384.481 466.745 383.504C466.237 383.256 465.767 382.912 465.233 382.746C461.9 381.699 458.555 380.696 455.218 379.661C451.298 378.448 447.4 377.152 443.458 376.004C440.481 375.139 437.438 374.46 434.43 373.681C431.882 373.019 429.374 372.182 426.791 371.694C420.486 370.505 414.146 369.474 407.819 368.377C406.284 368.107 404.776 367.871 403.258 367.37C399.426 366.107 395.458 365.192 391.542 364.144C391.275 364.078 390.836 364.202 390.718 364.062C389.065 362.057 386.408 361.999 384.229 361.026C380.225 359.237 376.187 357.514 372.175 355.738C369.549 354.574 366.966 353.324 364.335 352.181C361.077 350.76 357.762 349.381 354.873 347.389C351.404 345.004 347.41 343.965 343.512 342.548C339.061 340.933 334.554 339.588 330.003 338.279C327.06 337.434 324.351 335.885 321.553 334.61C315.739 331.956 309.986 329.164 304.106 326.642C300.607 325.143 297.205 323.371 293.355 322.609C292.32 322.406 291.469 321.437 290.5 320.87C288.799 319.876 287.098 318.89 285.357 317.967C283.752 317.114 282.608 316.054 282.209 314.223C281.696 311.867 280.801 309.589 280.24 307.241C279.845 305.593 279.802 303.875 279.486 302.21C279.223 300.802 278.854 299.406 278.433 298.036C277.092 293.659 275.461 289.343 274.426 284.908C273.825 282.324 273.764 279.492 274.172 276.866C274.663 273.698 273.895 270.824 273.167 267.785C274.277 267.565 275.465 267.275 276.671 267.106C281.143 266.464 285.155 264.807 288.707 262.203C289.737 261.445 290.54 260.397 291.364 259.416C293.811 256.492 297.393 254.79 300.099 252.144C300.559 251.693 301.225 251.374 301.554 250.856C303.269 248.152 306.092 246.624 308.631 244.793C310.653 243.336 312.753 241.973 314.836 240.59C318.913 237.89 321.325 234.093 322.649 229.678C323.824 225.757 325.868 222.659 329.985 220.945C331.805 220.187 333.506 219.119 334.514 217.367C335.054 216.423 334.734 215.727 333.624 215.702C332.322 215.673 330.84 215.483 329.735 215.971C327.179 217.098 324.587 216.82 321.983 216.684C317.274 216.435 312.678 217.073 308.276 218.547C304.646 219.765 301.164 221.375 297.643 222.866C294.819 224.059 293.232 226.539 291.219 228.569C290.522 229.273 289.843 229.993 289.106 230.656C288.562 231.148 287.843 231.484 287.365 232.018C281.981 238.031 276.004 243.597 271.624 250.38C271.093 251.2 270.252 251.842 269.489 252.633C269.291 252.33 269.015 252.098 269.041 251.904C269.423 248.872 269.642 245.804 270.317 242.831C271.032 239.683 272.115 236.602 273.181 233.542C273.86 231.592 274.553 229.571 275.711 227.869C276.566 226.614 278.026 225.463 279.49 224.9C282.248 223.831 283.8 221.69 285.462 219.673C286.957 217.86 288.593 216.1 289.347 213.781C289.623 212.928 290.632 212.248 291.39 211.573C293.179 209.983 294.306 208.078 294.771 205.792C294.968 204.832 295.495 203.933 295.701 202.976C296.157 200.856 296.143 198.769 295.88 196.57C295.166 190.686 294.819 184.756 294.46 178.838C294.324 176.598 293.385 174.941 291.513 173.628C289.821 172.444 288.097 171.231 288.211 169.036C287.01 168.68 286.339 169.044 286.291 169.897C286.208 171.343 285.388 172.37 284.616 173.525C282.866 176.155 282.117 179.19 281.735 182.205C281.248 185.994 279.438 188.934 276.684 191.597C275.11 193.121 273.68 194.868 272.593 196.728C271.813 198.065 271.606 199.746 271.321 201.299C270.905 203.602 270.615 205.921 270.33 208.24C269.914 211.669 271.058 214.874 272.286 217.976C273.255 220.423 273.246 222.908 273.483 225.401C273.518 225.79 273.185 226.216 272.992 226.61C272.825 226.937 272.426 227.248 272.448 227.546C272.738 231.654 269.703 234.846 269.055 238.689C268.883 239.712 268.546 240.719 268.16 242.214C267.599 241.282 267.134 240.801 267.007 240.255C266.608 238.515 266.296 236.751 266.016 234.987C265.235 230.043 264.49 225.09 263.718 220.137C263.639 219.62 263.591 219.065 263.367 218.597C261.631 214.99 261.035 211.085 259.93 207.312C259.027 204.215 257.786 201.208 256.72 198.152C256.426 197.311 256.076 196.492 256.839 195.609C257.198 195.187 257.308 194.442 257.251 193.862C256.782 188.905 258.768 184.751 261.907 180.975C263.363 179.223 264.994 177.596 266.384 175.807C267.958 173.778 269.195 171.521 269.699 169.048C270.146 166.862 270.405 164.605 270.401 162.381C270.396 158.683 272.339 155.726 274.167 152.732C274.917 151.507 276.114 150.533 277.035 149.395C277.552 148.757 278.131 148.057 278.324 147.303C279.179 143.941 279.227 140.516 277.999 137.257C277.416 135.712 276.965 134.263 277.079 132.627C277.324 129.049 277.535 125.463 277.675 121.881C277.697 121.243 277.478 120.328 277.017 120.03C276.64 119.79 275.706 120.208 275.075 120.457C272.216 121.575 270.76 124.113 268.765 126.105C267.336 127.534 265.858 128.917 264.442 130.354C262.043 132.789 260.947 135.816 260.088 138.967C259.013 142.906 257.54 146.637 254.423 149.656C252.384 151.631 250.393 153.706 248.74 155.971C246.53 159.002 245.855 162.609 245.429 166.203C244.921 170.489 245.46 175.161 246.714 179.629C246.947 180.453 246.964 181.327 246.64 182.308C245.079 179.078 243.588 175.815 241.93 172.635C240.194 169.297 239.124 165.719 237.511 162.34C236.906 161.073 235.915 160.017 235.266 158.87C234.63 157.739 233.985 156.509 233.477 155.304C232.508 152.997 230.942 151.138 229.526 149.13C227.421 146.144 224.659 143.821 221.638 141.833C219.73 140.574 217.433 139.452 215.179 139.154C209.847 138.454 204.472 137.377 199.043 138.711C197.307 139.141 196.68 138.677 195.987 137.133C194.97 134.88 194.238 132.416 192.764 130.461C190.826 127.886 188.993 125.099 184.995 124.519C182.052 124.088 179.47 122.486 176.966 120.746C174.221 118.833 170.985 117.533 167.898 116.084C165.824 115.115 163.685 114.253 161.501 113.553C160.593 113.259 159.493 113.512 158.125 113.512C158.37 114.498 158.41 115.21 158.717 115.798C160.102 118.452 161.448 121.14 163.049 123.682C163.799 124.867 164.939 125.989 166.175 126.718C168.411 128.039 170.797 129.174 173.226 130.155C177.247 131.77 180.597 134.176 183.469 137.241C185.529 139.444 188.34 140.417 191.225 140.934C194.378 141.498 196.027 143.133 196.75 145.962C197.728 149.78 198.425 153.726 199.986 157.329C201.81 161.536 204.27 165.412 208.751 167.976C213.526 170.705 217.67 174.32 221.204 178.461C223.203 180.801 225.312 182.797 228.64 183.513C233.152 184.491 237.581 185.816 242.044 187.008C245.28 187.874 248.231 188.988 250.261 191.891C252.059 194.458 253.739 197.046 254.317 200.045C254.515 201.051 253.458 202.272 252.976 203.395C253.445 203.424 253.91 203.453 254.379 203.482C252.831 201.97 251.375 200.355 249.705 198.976C247.889 197.481 246.021 196.185 243.452 195.622C240.19 194.901 237.094 193.651 234.319 191.526C230.346 188.487 226.834 184.963 222.782 182.035C220.502 180.387 218.297 178.602 215.28 178.088C213 177.699 210.711 177.157 208.541 176.391C205.826 175.426 203.047 175.455 200.42 176.051C197.693 176.664 195.014 177.765 192.558 179.07C190.541 180.142 189.037 182.064 187.042 183.178C184.135 184.797 181.031 186.122 177.931 187.398C175.782 188.284 173.485 188.851 171.275 189.605C169.841 190.098 168.433 190.574 167.89 192.226C167.662 192.926 166.846 193.448 166.276 194.069C167.083 194.992 167.894 194.939 169.095 194.806C172.581 194.417 176.129 194.537 179.628 194.239C183.644 193.895 187.546 194.342 191.405 195.299C193.909 195.924 196.031 197.117 198.03 198.757C200.823 201.038 203.976 202.923 206.923 205.051C208.343 206.074 209.729 207.176 210.965 208.393C212.947 210.356 215.236 211.656 218.104 212.058C220.296 212.364 222.098 211.971 223.659 210.29C224.817 209.043 226.483 208.422 228.325 208.902C233.064 210.149 237.945 209.685 242.759 209.896C244.167 209.958 245.649 209.13 247.052 208.6C248.095 208.207 249.047 207.598 250.077 207.171C251.261 206.683 252.401 205.954 253.782 207.039C254.142 207.32 255.203 206.811 255.773 206.699C257.189 211.751 258.43 216.236 259.719 220.709C260.114 222.088 260.776 223.405 261.096 224.796C262.013 228.821 262.78 232.879 263.683 236.909C264.135 238.917 264.85 240.876 265.279 242.889C265.555 244.181 265.994 245.688 265.555 246.823C264.293 250.073 263.46 253.312 264.122 256.803C259.847 260.405 254.8 263.267 252.542 268.812C250.538 265.549 247.183 263.929 243.961 262.244C242.097 261.271 239.949 260.799 237.94 260.07C235.437 259.159 233.709 257.329 232.065 255.461C230.925 254.156 229.973 252.699 228.991 251.278C227.597 249.262 226.457 247.059 224.83 245.237C223.532 243.779 221.712 242.71 220.037 241.58C218.06 240.242 215.999 239.017 213.951 237.774C213.403 237.439 212.803 237.124 212.18 236.95C209.58 236.234 207.589 234.702 205.533 233.095C204.493 232.287 203.275 230.614 201.336 231.757C197.68 229.567 193.584 231.318 189.752 230.623C186.981 230.113 184.21 229.84 181.706 228.353C180.399 227.579 178.742 227.335 177.005 226.771C175.545 227.272 176.019 228.589 176.4 229.587C176.799 230.656 177.448 231.77 178.321 232.515C180.211 234.122 181.421 236.081 182.583 238.168C184.525 241.659 186.937 244.926 188.722 248.479C190.072 251.171 191.37 253.829 193.321 256.181C194.518 257.623 195.869 258.799 197.675 259.581C200.052 260.612 202.218 262.211 204.682 262.911C208.532 264.004 211.728 266.191 215.249 267.814C218.178 269.168 221.239 269.412 224.12 268.63C227.202 267.793 230.153 267.942 233.117 268.439C236.423 268.998 239.602 269.329 242.97 268.601C244.496 268.269 246.254 268.638 247.933 268.315C248.565 268.191 249.512 268.845 250.112 269.354C251.853 270.837 253.489 272.435 255.177 273.976C257.979 276.518 260.829 279.011 263.565 281.612C264.275 282.287 264.907 283.231 265.104 284.142C266.222 289.29 268.366 294.089 270.269 298.984C271.335 301.738 271.742 304.744 272.22 307.672C272.606 310.016 273.22 312.19 274.93 314C275.092 314.169 275.07 314.492 275.198 314.994C273.724 314.567 272.383 314.285 271.124 313.797C267.016 312.211 262.999 310.476 258.636 309.465C256.431 308.952 254.528 307.328 252.423 306.334C249.634 305.018 246.762 303.854 243.956 302.562C242.251 301.775 240.58 300.91 238.94 300.003C235.231 297.949 231.271 296.603 227.018 295.953C226.062 295.808 225.216 295.062 224.256 294.88C218.915 293.861 213.544 292.988 208.207 291.936C206.081 291.513 203.954 291.538 201.819 291.406C200.438 291.319 199.087 290.809 197.706 290.656C193.939 290.246 190.059 290.292 186.424 289.426C184.24 288.905 181.324 289.228 179.97 286.71C176.383 285.053 173.625 282.436 170.731 279.914C169.499 278.842 169.306 277.475 168.464 276.336C166.329 273.462 164.294 270.514 162.36 267.512C160.251 264.244 158.388 260.836 156.231 257.602C155.292 256.186 153.779 255.117 152.714 253.759C151.605 252.347 150.596 250.839 149.776 249.262C149.079 247.916 148.842 246.363 148.18 244.996C147.351 243.303 147.338 241.696 147.588 239.837C148.307 234.42 148.68 228.962 149.132 223.512C149.206 222.634 149.136 221.682 148.855 220.854C147.772 217.702 148.128 214.468 148.049 211.255C148.014 209.818 148.04 208.368 147.834 206.952C147.413 204.061 145.036 202.629 142.761 201.109C141.454 200.239 140.147 199.307 139.086 198.194C136.793 195.8 134.517 193.365 132.496 190.768C130.382 188.048 128.65 185.07 126.607 182.3C125.651 181.004 124.349 179.948 123.218 178.763C122.823 178.349 122.459 177.902 122.108 177.451C120.964 175.981 119.92 174.432 118.658 173.065C118.197 172.564 117.219 172.494 116.281 172.154C115.194 176.155 113.256 179.393 111.173 182.615C109.717 184.867 108.897 187.493 107.893 189.99C107.674 190.532 107.884 191.228 107.897 191.853C107.946 194.272 107.893 196.699 108.086 199.109C108.209 200.711 108.393 202.409 109.068 203.85C110.252 206.38 111.62 208.89 113.313 211.139C115.658 214.249 117.64 217.483 118.75 221.152C120.245 226.113 122.994 230.552 125.599 234.996C126.975 237.344 129.497 239.087 131.47 241.129C134.631 244.404 139.139 245.746 142.831 248.239C145.273 249.887 147.487 251.85 149.724 253.755C155.358 258.558 158.436 265.043 162.299 271.011C163.658 273.114 165.04 275.21 166.048 277.632C165.421 277.057 164.719 276.539 164.171 275.901C161.168 272.431 157.208 270.174 153.205 267.909C150.28 266.257 147.566 264.269 144.817 262.356C143.212 261.242 141.572 260.116 140.226 258.753C138.898 257.403 137.88 255.771 136.789 254.227C134.802 251.415 132.899 248.541 130.887 245.746C129.392 243.667 128.102 241.51 126.835 239.298C125.208 236.453 123.74 233.219 119.951 232.08C117 231.19 114.115 230.068 111.116 229.347C108.985 228.834 107.288 227.682 105.793 226.423C104.061 224.962 102.057 224.481 100.049 224.494C96.063 224.527 92.0861 224.962 88.1047 225.252C87.7452 225.281 87.3944 225.459 87.0392 225.566C86.4561 227.02 87.0787 228.038 88.1135 228.954C92.2045 232.573 94.7827 237.215 97.7249 241.613C99.1455 243.733 100.448 245.986 102.237 247.8C103.377 248.955 105.236 249.775 106.911 250.086C108.81 250.434 109.713 251.278 110.748 252.728C112.957 255.834 115.216 258.96 118.583 261.176C120.92 262.716 123.02 264.567 125.34 266.137C127.73 267.756 130.295 268.576 133.39 267.81C136.227 267.106 139.187 266.837 142.103 266.46C143.923 266.228 145.624 266.439 147.303 267.404C149.311 268.559 151.811 269.06 153.6 270.427C156.169 272.394 159.256 273.698 161.4 276.249C163.505 278.755 165.991 280.97 168.28 283.335C168.784 283.852 169.174 284.474 169.858 285.356C166.232 283.728 162.816 282.838 159.274 282.15C157.625 281.827 155.959 280.912 154.192 280.759C150.662 280.457 147.106 280.378 143.576 280.084C141.208 279.885 138.871 279.388 136.508 279.169C130.422 278.601 124.722 276.535 118.829 275.226C114.47 274.262 110.695 272.121 107.595 269.135C106.108 267.71 105.223 265.735 104.017 264.037C102.438 261.818 100.803 259.635 99.1981 257.432C98.5009 256.467 97.7906 255.515 97.1548 254.517C96.1332 252.922 95.2036 251.332 93.4146 250.268C89.7753 248.102 88.4818 244.549 87.6049 240.81C87.2804 239.418 86.9691 238.019 86.4911 236.677C85.5572 234.043 84.7416 231.339 83.4393 228.871C82.3256 226.767 80.7076 224.866 79.1028 223.036C77.783 221.529 76.1519 220.261 74.6523 218.895C74.2489 218.526 73.885 218.067 73.4026 217.831C71.048 216.684 68.7461 215.354 66.2599 214.559C63.6028 213.71 61.349 212.426 59.0645 210.932C55.89 208.849 52.3866 207.221 49.0191 205.399C48.8568 205.312 48.6683 205.138 48.5236 205.163C44.7527 205.788 41.5518 203.304 37.8906 203.415C36.6409 203.453 35.4746 202.057 34.089 203.337C34.5494 204.964 36.0008 205.871 37.3074 206.844C41.1441 209.702 44.0292 213.064 44.9237 217.798C45.8314 222.597 47.8834 227.09 50.2205 231.376C52.2375 235.083 55.6444 237.869 58.99 240.549C61.4542 242.52 64.1728 244.197 66.7291 246.065C68.29 247.208 69.6975 248.541 71.2717 249.663C74.7488 252.136 78.467 253.97 83.0272 253.929C86.649 253.896 90.2357 254.264 93.647 255.631C95.0019 256.169 96.0499 256.77 96.9005 258.037C98.1809 259.942 99.2551 261.904 100.343 263.896C101.531 266.058 103.289 267.975 105.008 269.822C107.218 272.195 109.638 274.394 112.431 277.115C110.436 276.846 108.937 276.779 107.512 276.427C102.715 275.243 97.9222 274.672 92.9016 274.928C86.2017 275.272 79.4361 275.33 72.7888 274.187C70.0045 273.711 67.3473 272.551 64.6244 271.727C61.7436 270.849 58.8672 269.984 55.9777 269.143C51.7157 267.901 47.4274 266.75 42.955 266.402C38.0791 266.021 33.3348 266.642 28.6432 267.946C24.5653 269.081 20.3867 269.88 16.3001 270.982C13.9323 271.62 11.5558 272.377 9.37216 273.433C7.91205 274.137 6.75009 275.425 5.50482 276.502C4.2464 277.599 3.08005 278.792 1.81726 279.885C0.92276 280.66 0.260681 281.467 0.519379 282.697C0.571991 282.958 0.628998 283.281 0.514984 283.496C-0.559265 285.472 0.159821 287.169 1.63309 288.536C3.33438 290.11 3.43524 291.977 3.216 294.002C4.76819 295.149 6.53085 295.46 8.34177 295.369C12.4327 295.162 16.5106 294.847 20.5927 294.574C21.9257 294.487 23.2587 294.271 24.5872 294.321C28.3494 294.47 31.9492 294.027 35.5272 292.752C37.3162 292.114 39.4515 292.118 41.4203 292.18C46.9056 292.354 51.6938 290.652 55.9864 287.592C60.7921 284.167 66.1459 281.691 71.412 278.999C74.797 277.268 78.0154 277.131 81.5407 277.318C83.321 277.409 85.1187 277.193 86.9077 277.239C91.1784 277.343 95.4536 277.525 99.7287 277.678C100.014 277.686 100.299 277.703 100.579 277.736C103.587 278.084 106.626 278.283 109.594 278.825C112.287 279.322 114.974 279.864 117.64 280.577C120.727 281.405 124.011 281.682 127.23 281.906C130.54 282.134 133.882 281.902 137.201 282.055C144.949 282.415 152.78 282.163 160.278 284.589C160.348 284.614 160.392 284.722 160.628 285.02C159.484 285.472 158.436 286.072 157.309 286.304C153.42 287.099 150.088 288.892 146.812 290.934C144.212 292.557 141.3 293.634 138.192 294.197C136.903 294.429 135.543 294.681 134.416 295.269C130.29 297.419 125.971 297.477 121.446 296.922C118.083 296.508 114.65 296.603 111.261 296.334C104.561 295.804 97.8783 295.112 91.1828 294.615C87.9074 294.371 84.6101 294.346 81.3259 294.346C80.0236 294.346 78.6863 294.553 77.4323 294.888C74.3673 295.708 71.2498 296.462 68.3163 297.605C65.8039 298.582 63.252 299.767 61.1955 301.394C58.3367 303.663 55.206 305.452 52.0665 307.274C51.4482 307.635 50.659 307.726 49.9574 307.962C46.3575 309.163 42.4639 309.511 39.0745 311.374C38.4518 311.718 37.4302 311.652 36.6672 311.482C34.9265 311.093 33.1989 310.037 31.5152 310.128C27.8583 310.322 23.8419 308.649 20.4744 312.053C20.8558 312.447 21.3206 313.263 22.0397 313.639C26.8586 316.153 31.9054 318.095 37.382 318.936C38.3904 319.093 39.3946 319.466 40.3066 319.909C43.7749 321.586 47.1819 323.325 50.124 325.827C52.3296 327.703 55.3638 327.959 58.1043 328.166C61.064 328.394 64.1859 328.1 67.0755 327.417C70.2763 326.659 73.5561 326.667 76.7307 325.934C79.6553 325.259 82.8167 325.098 85.4826 323.922C89.8586 321.996 94.011 319.569 97.2688 316.037C98.8912 314.277 100.566 312.641 103.122 311.921C106.727 310.906 109.296 308.277 111.554 305.688C113.979 302.91 117.316 302.044 120.407 300.537C123.02 299.261 125.783 299.709 128.462 299.29C132.847 298.603 137.249 298.015 141.173 295.766C142.783 294.847 144.58 294.379 146.562 294.218C149.535 293.977 152.512 293.58 155.332 292.333C158.563 290.905 162.168 290.863 165.68 290.607C166.609 290.54 167.565 290.271 168.455 290.408C170.468 290.714 172.441 291.219 174.432 291.642C174.436 291.841 174.436 292.031 174.44 292.23C173.265 292.545 172.099 292.884 170.919 293.17C168.008 293.874 165.013 294.367 162.189 295.311C160.102 296.011 158.033 297.054 156.305 298.355C151.762 301.779 147.023 304.96 142.975 308.993C140.932 311.026 138.534 313.097 135.302 313.697C134.583 313.834 133.719 314.111 133.281 314.608C131.593 316.526 129.22 317.147 126.901 317.917C126.278 318.128 125.507 318.199 125.059 318.592C121.262 321.926 116.86 324.675 113.839 328.775C113.519 329.21 113.133 329.719 113.098 330.216C112.839 333.889 109.98 336.531 108.836 339.877C108.261 341.575 106.766 343.041 105.512 344.478C103.293 347.033 103.122 349.911 103.495 353.013C103.877 356.189 103.811 359.419 104.32 362.575C104.622 364.484 105.35 366.455 106.411 368.107C108.174 370.853 110.327 373.379 112.374 375.959C112.716 376.394 113.348 376.626 113.843 376.949C114.207 376.394 114.86 375.847 114.891 375.272C115.058 372.054 116.347 369.383 118.851 367.205C120.179 366.041 121.442 364.815 122.762 363.639C126.769 360.086 127.418 355.56 126.949 350.727C126.739 348.582 126.344 346.454 126.099 344.308C125.84 342.076 126.883 340.105 127.708 338.126C128.405 336.453 129.339 334.871 130.115 333.231C131.373 330.585 131.676 327.756 131.873 324.907C131.97 323.561 132.167 322.22 132.259 320.874C132.404 318.791 133.509 317.677 135.508 316.604C139.63 314.393 143.541 311.768 146.716 308.355C147.957 307.022 149.088 305.693 151.039 305.196C151.828 304.993 152.53 304.396 153.218 303.912C155.661 302.206 158.239 300.872 161.326 300.467C162.615 300.297 163.816 299.593 165.101 299.319C169.038 298.479 172.998 297.725 176.953 296.951C177.321 296.88 177.79 297.017 178.071 296.847C181.631 294.698 185.06 295.99 188.66 296.889C192.567 297.866 196.636 298.243 200.617 298.972C202.376 299.29 204.099 299.804 205.822 300.284C207.142 300.649 208.435 301.096 209.667 301.485C207.164 302.827 204.796 304.185 202.341 305.399C199.416 306.852 196.426 308.177 193.457 309.56C192.87 309.834 192.291 310.136 191.681 310.372C189.774 311.113 187.967 311.958 185.727 311.855C182.219 311.693 178.689 311.917 175.168 311.979C174.787 311.987 174.357 311.892 174.033 312.028C169.315 314.02 163.878 314.521 159.927 318.116C158.379 319.524 157.357 321.408 155.376 322.419C153.288 323.479 151.263 324.642 149.175 325.698C146.558 327.019 143.467 327.305 141.037 329.061C139.288 330.328 137.622 331.74 136.052 333.14C135.127 333.968 135.258 335.997 135.184 337.496C135.118 338.867 134.763 340.027 133.982 341.19C132.649 343.165 132.645 345.485 132.829 347.679C133.105 350.934 132.132 353.879 130.926 357.071C131.444 357.398 132.018 357.759 132.601 358.127C135.21 355.44 137.907 353.191 141.41 352.023C143.015 351.489 144.615 350.814 146.277 350.599C148.978 350.251 151.363 349.149 153.665 348.002C155.735 346.971 157.932 345.667 159.26 343.927C161.878 340.49 165.601 339.617 169.538 338.879C170.371 338.722 171.248 338.755 172.081 338.581C177.913 337.356 182.017 334.237 183.662 328.692C184.403 326.208 184.78 323.624 185.31 321.085C186.117 317.197 187.84 314.029 192.128 312.55C194.167 311.85 196.027 310.691 198.017 309.854C200.867 308.658 203.766 307.651 206.848 307.005C210.724 306.19 214.478 304.885 218.323 303.924C219.568 303.618 220.971 303.473 222.225 303.684C226.996 304.488 231.775 305.32 236.48 306.417C241.755 307.651 246.723 309.581 251.152 312.741C254.681 315.259 258.347 317.714 262.271 319.598C265.433 321.114 269.081 321.723 272.501 322.766C273.851 323.176 275.158 323.719 276.504 324.141C279.565 325.106 282.652 325.897 285.835 326.51C290.29 327.371 294.569 329.036 298.985 330.129C302.137 330.912 304.931 332.423 307.728 333.815C310.639 335.268 313.121 337.484 315.822 339.323C320.303 342.375 324.943 345.211 330.16 347.013C333.532 348.18 337.062 348.942 340.416 350.139C342.797 350.992 345.025 352.243 347.278 353.386C349.962 354.744 352.601 356.181 355.25 357.593C355.811 357.891 356.355 358.227 357.241 358.74C354.588 359.498 352.251 360.049 350.014 360.856C348.831 361.283 347.822 362.157 346.743 362.844C346.445 363.03 346.226 363.341 345.91 363.49C340.592 366.016 335.396 368.853 329.875 370.911C326.718 372.091 323.311 372.82 320.479 374.621C316.559 377.118 312.648 379.707 309.144 382.688C306.062 385.305 303.137 386.395 299.112 384.879C294.898 383.293 290.483 382.191 286.238 380.684C284.427 380.038 282.744 378.994 281.134 377.947C278.942 376.526 276.982 374.77 274.733 373.454C271.94 371.826 270.48 369.139 268.362 366.981C267.608 366.211 266.836 365.217 265.867 364.915C263.46 364.157 261.162 363.179 258.544 362.823C256.176 362.504 254.151 360.84 252.406 359.043C249.485 356.04 248.157 352.272 246.399 348.702C246.118 348.135 245.942 347.518 245.614 346.984C244.395 345.004 243.066 343.207 240.251 343.095C238.839 343.037 237.44 342.445 236.037 342.433C230.583 342.395 226.544 340.138 223.313 336.047C221.927 334.287 219.967 332.85 218.038 331.575C215.863 330.142 212.237 331.893 211.711 334.664C211.228 337.19 210.579 339.762 211.724 342.358C212.259 343.575 212.351 344.967 212.653 346.275C213.864 351.572 215.723 356.666 218.446 361.424C220.393 364.836 223.322 367.586 226.123 370.385C226.505 370.766 227.04 371.081 227.566 371.246C231.938 372.629 235.796 374.878 239.642 377.218C244.509 380.183 249.924 381.699 255.716 382.055C260.057 382.324 263.977 380.887 267.866 379.425C270.195 378.547 272.435 377.636 275.031 377.88C275.649 377.938 276.307 377.603 277.149 377.4C281.38 381.462 287.146 383.102 292.741 385.049C293.622 385.355 294.525 385.616 295.885 386.047C294.99 386.465 294.495 386.784 293.947 386.937C289.365 388.204 285.002 389.902 280.963 392.366C278.675 393.766 276.188 394.871 273.777 396.085C273.544 396.201 273.216 396.184 272.935 396.163C270.352 395.977 267.708 396.424 265.209 395.356C262.438 394.172 259.662 392.966 256.808 391.977C253.782 390.929 250.678 390.068 247.582 389.219C242.338 387.786 237.103 386.332 231.81 385.074C230.013 384.647 228.07 384.709 226.189 384.659C221.34 384.514 216.801 385.691 212.329 387.422C209.08 388.685 205.612 389.438 202.27 390.498C196.816 392.229 192.093 395.054 188.309 399.178C187.441 400.131 186.617 401.133 186.911 402.566C187.191 403.949 189.366 405.949 191.256 406.015C193.729 406.102 195.294 407.166 196.412 409.138C197.074 410.301 198.14 410.84 199.591 411.146C203.349 411.933 207.023 411.548 210.619 410.628C213.026 410.011 215.394 409.912 217.849 409.779C221.91 409.56 225.856 410.463 229.872 410.463C230.1 410.463 230.328 410.711 230.876 411.026C228.504 412.736 226.487 414.583 223.8 415.531C221.752 416.26 219.634 416.828 217.604 417.59C215.232 418.476 212.925 419.519 210.575 420.455C209.448 420.902 208.313 421.366 207.133 421.627C204.721 422.161 202.437 422.89 200.135 423.805C197.412 424.886 194.334 425.155 191.405 425.772C190.673 425.93 189.857 425.926 189.221 426.249C187.353 427.197 185.565 426.162 183.74 426.191C183.438 426.199 183.065 425.863 182.837 425.598C179.465 421.76 175.216 418.906 170.819 416.277C166.964 413.966 162.764 412.62 158.09 412.318C154.696 412.103 151.315 411.647 147.957 412.21C146.435 412.467 144.992 413.274 143.585 413.962C141.581 414.943 139.797 416.554 137.31 416.148C135.85 415.912 134.443 415.399 133.013 415.005C131.378 414.55 129.685 413.585 128.116 413.742C125.073 414.041 121.85 413.8 119.061 415.502C117.114 416.687 114.961 417.345 112.589 417.403C111.787 417.424 111.011 417.966 110.204 418.19C107.735 418.882 105.227 418.77 102.688 418.604C101.469 418.521 100.215 418.89 98.7991 419.076C99.4086 421.23 100.777 422.422 102.21 423.346C105.416 425.404 108.801 427.213 112.089 429.164C115.615 431.263 119.083 433.446 122.635 435.508C123.564 436.051 124.678 436.34 125.743 436.643C126.708 436.916 127.717 437.086 128.716 437.231C129.72 437.38 130.773 437.649 131.742 437.496C133.754 437.185 137.433 437.893 138.876 439.248C143.177 443.273 148.163 443.182 153.416 441.459C154.113 441.231 154.648 440.593 155.34 440.349C157.173 439.699 159.01 438.896 160.918 438.622C166.337 437.848 171.375 436.34 176.199 433.756C180.956 431.205 185.889 428.882 191.51 428.174C195.899 427.619 200.236 426.617 204.564 425.673C205.625 425.441 206.559 424.679 207.532 424.128C209.913 422.787 212.434 421.735 215.197 421.482C216.841 421.333 218.367 421.201 219.643 420.082C219.932 419.83 220.463 419.822 221.348 419.569C217.946 423.329 214.355 426.095 210.632 428.824C207.817 430.887 204.787 432.245 201.543 433.297C200.056 433.781 198.386 433.819 196.785 433.939C193.703 434.166 191.067 435.707 188.178 436.498C185.446 437.243 182.903 438.602 180.163 439.306C175.357 440.544 171.897 443.476 168.446 446.615C166.907 448.014 164.838 448.909 162.97 449.969C160.563 451.335 158.015 452.491 155.709 453.99C151.859 456.491 148.027 459.071 145.33 463.034C146.089 463.771 146.79 464.459 147.501 465.15C150.14 464.591 152.705 463.945 155.31 463.519C157.888 463.096 160.44 462.599 162.97 461.97C163.47 461.841 164.079 462.011 164.619 462.127C166.605 462.554 168.565 463.109 170.564 463.436C173.568 463.933 176.449 463.179 179.233 462.239C182.07 461.278 184.911 460.264 187.599 458.988C191.655 457.054 195.049 454.379 196.794 450.226C198.109 447.103 199.675 444.084 200.951 440.941C201.814 438.825 203.52 437.011 204.906 435.098C205.208 434.68 205.721 434.353 206.212 434.113C210.878 431.827 214.938 428.75 218.792 425.433C220.471 423.988 222.024 422.385 223.466 420.724C225.303 418.612 227.285 416.716 229.973 415.602C230.824 415.25 231.683 414.885 232.578 414.678C235.739 413.933 238.686 412.86 241.426 411.088C243.75 409.585 246.394 408.52 248.898 407.262C249.043 407.402 249.183 407.543 249.323 407.684C248.88 408.243 248.56 409.051 247.968 409.311C246.144 410.123 245.32 411.717 244.653 413.221C242.575 417.917 239.348 421.834 236.204 425.905C232.451 430.758 227.448 433.968 222.379 437.256C219.744 438.962 216.841 440.39 215.28 443.339C214.727 444.383 213.482 445.144 212.452 445.923C209.637 448.031 206.791 450.101 203.91 452.135C203.402 452.495 202.608 452.478 202.091 452.826C200.859 453.654 199.692 454.57 198.543 455.501C198.044 455.903 197.754 456.628 197.206 456.876C194.658 458.019 193.282 460.214 191.602 462.156C190.708 463.191 190.098 464.31 189.484 465.539C186.919 470.662 184.67 476.016 180.412 480.207C178.821 481.777 176.988 483.127 175.409 484.7C174.883 485.226 174.796 486.15 174.537 486.816C176.979 488.038 178.865 487.4 180.89 486.626C184.398 485.284 187.853 483.872 191.287 482.356C195.259 480.597 197.026 477.433 199.245 474.439C202.139 470.542 205.441 467.246 209.887 464.691C214.675 461.937 219.397 458.748 222.138 453.77C225.834 451.282 226.22 447.252 227.395 443.608C227.943 441.914 228.206 440.134 228.671 438.411C229.237 436.316 230.868 434.887 232.345 433.359C235.423 430.17 238.484 426.973 241.474 423.71C242.141 422.985 242.61 422.033 242.935 421.109C243.886 418.372 246.552 416.488 247.087 413.556C247.118 413.382 247.197 413.192 247.315 413.063C250.261 409.966 252.656 406.392 257.22 404.909C261.122 403.634 264.766 401.667 268.629 400.276C271.453 399.257 274.404 398.358 277.377 397.965C282.077 397.339 286.778 396.805 291.263 395.29C295.986 393.687 300.669 391.964 305.343 390.225C308.434 389.078 311.53 387.906 314.529 386.552C316.221 385.786 317.677 384.568 319.304 383.649C321.733 382.278 324.162 380.883 326.692 379.698C329.976 378.162 333.357 376.812 336.707 375.404C341.153 373.532 345.253 371.118 349.265 368.534C353.698 365.681 358.565 363.614 363.721 362.281C365.045 361.937 366.773 362.239 368.102 362.749C374.863 365.341 381.466 368.31 388.285 370.737C394.502 372.952 400.926 374.642 407.257 376.572C409.34 377.21 411.388 377.967 413.497 378.531C417.241 379.52 421.004 380.481 424.792 381.318C432.404 382.995 439.705 385.541 446.882 388.382C448.939 389.198 450.723 390.602 452.67 391.674C457.625 394.403 462.887 396.42 468.495 397.617C469.578 397.849 470.551 397.936 471.393 396.88C470.652 395.708 469.266 395.418 468.091 395.194C463.058 394.234 458.511 392.097 454.205 389.687C449.254 386.925 444.085 384.713 438.779 382.717C436.692 381.935 434.574 381.226 432.514 380.365C437.631 380.083 442.432 381.289 447.128 382.953C448.899 383.583 450.587 384.407 452.341 385.082C453.359 385.471 454.354 386.291 455.547 385.467L455.52 385.521ZM318.664 338.246C316.831 338.362 316.335 336.71 315.45 335.616C316.519 336.519 317.589 337.418 318.655 338.32C319.992 338.192 320.742 339 321.242 340.134C320.382 339.505 319.523 338.875 318.664 338.246ZM178.602 290.387C179.878 289.642 181.237 289.857 182.859 291.108C181.21 291.845 180.009 290.586 178.619 290.362C177.795 289.952 176.966 289.542 175.839 288.983C177.527 288.639 178.264 289.186 178.602 290.387ZM271.922 290.441C272.352 291.004 273.277 291.364 272.716 292.814C272.255 291.774 271.413 291.36 272.001 290.441C269.91 288.511 269.747 287.956 270.83 285.501C271.234 287.331 271.576 288.888 271.922 290.441ZM281.56 323.143C279.008 323.843 277.35 322.211 275.504 321.081C274.991 321.085 274.43 321.226 273.979 321.073C272.475 320.572 271.054 319.656 269.519 319.445C265.731 318.928 262.565 317.155 259.355 315.432C258.316 314.869 257.369 314.153 256.378 313.503C256.475 313.325 256.571 313.142 256.668 312.964C258.43 313.594 260.193 314.223 261.96 314.853C260.583 313.652 258.948 312.944 257.426 312.066C255.756 311.101 254.19 309.975 252.581 308.923C250.652 309.001 249.463 307.606 247.951 306.865C249.591 307.378 251.48 307.419 252.568 308.997C253.081 309.047 253.646 308.972 254.089 309.155C258.25 310.844 262.416 312.525 266.529 314.314C270.453 316.021 274.983 316.513 278.214 319.623C279.223 319.064 279.403 318.369 278.968 317.524C277.929 315.515 276.82 313.532 275.816 311.507C275.167 310.198 274.663 308.827 274.093 307.486C274.312 307.399 274.527 307.316 274.746 307.229C277.118 311.995 279.49 316.766 282.06 321.93C279.696 321.176 277.701 320.7 275.851 319.913C273.255 318.812 270.778 317.462 268.239 316.252C266.739 315.536 265.126 315.23 262.925 314.811C263.696 315.561 263.951 316 264.337 316.153C266.59 317.056 268.914 317.814 271.137 318.778C272.654 319.437 274.053 320.352 275.504 321.16C277.754 321.222 279.661 322.199 281.555 323.214C283.094 323.18 284.695 322.895 285.949 324.154C284.318 324.535 282.853 324.203 281.56 323.143ZM361.695 359.693C361.323 360.446 360.547 359.958 360.156 360.123C359.49 360.405 359.122 361.295 358.595 361.904C358.503 362.003 358.21 361.929 358.047 362.003C354.934 363.445 351.589 364.571 348.774 366.418C344.327 369.346 339.824 372.062 334.69 373.888C335.422 372.037 336.509 370.77 338.193 369.851C341.144 368.244 344.275 366.869 347.024 364.997C350.273 362.786 353.952 361.68 357.578 360.347C358.319 360.074 359.012 359.664 359.661 359.349C358.832 356.434 355.96 355.812 354.04 354.019C356.863 353.887 361.989 355.933 363.875 357.746C363.151 358.409 362.428 359.071 361.704 359.751C362.857 359.212 364.006 358.674 365.269 358.086C369.264 359.544 373.425 361.146 377.095 363.672C374.302 362.832 371.653 361.693 368.93 360.744C367.137 360.123 365.317 359.009 363.27 360.335C363.02 360.496 362.235 359.925 361.695 359.693ZM204.8 295.874V295.957C204.664 295.828 204.533 295.597 204.397 295.597C200.398 295.501 196.575 294.499 192.725 293.625C191.462 293.34 190.405 292.905 189.502 291.484C190.835 291.704 191.738 291.886 192.65 292.006C200.451 293.017 208.251 294.006 216.047 295.042C217.442 295.228 218.823 295.551 220.186 295.891C223.4 296.694 226.628 297.472 229.807 298.404C231.903 299.017 233.972 299.775 235.95 300.661C238.002 301.576 239.913 302.748 241.913 303.767C243.474 304.562 245.07 305.295 246.653 306.057C246.552 306.256 246.451 306.455 246.35 306.653C243.531 305.432 240.777 304.028 237.866 303.038C234.761 301.982 231.455 301.456 228.329 300.442C223.028 298.719 221.484 298.359 219.06 298.947C222.217 300.38 225.895 299.87 228.767 302.036C224.983 302.728 205.813 298.707 202.218 296.599C203.038 296.367 203.919 296.118 204.8 295.874ZM131.154 219.504C131.417 216.145 129.725 213.13 129.247 209.888C128.839 207.118 127.019 204.807 125.151 202.645C123.275 200.475 121.867 198.148 120.982 195.402C120.302 193.282 119.745 191.166 119.201 189.017C118.259 185.282 118.452 181.575 118.539 177.832C118.548 177.38 118.772 176.933 118.938 176.316C120.438 178.035 121.762 179.534 123.073 181.045C123.858 181.948 124.709 182.805 125.384 183.778C127.261 186.474 128.984 189.265 130.917 191.928C131.847 193.212 133.377 194.143 134.175 195.477C136.35 199.113 139.402 201.85 143.125 203.974C144.668 204.852 145.277 206.211 145.562 207.755C145.72 208.629 145.755 209.528 145.79 210.422C145.896 213.097 145.602 215.839 146.132 218.435C147.137 223.322 146.496 228.134 145.992 232.954C145.554 237.112 144.607 241.228 145.681 245.655C141.384 241.895 138.389 237.617 135.925 233.033C134.092 229.62 132.43 226.096 131.772 222.249C131.606 221.288 131.36 220.34 131.15 219.375C130.084 219.624 130.233 220.435 130.33 221.123C131.145 227.049 134.035 232.262 136.99 237.377C138.288 239.609 140.489 241.377 142.278 243.356C142.914 244.065 143.826 244.653 143.576 246.065C142.212 245.274 141.108 244.491 139.889 243.949C134.96 241.762 131.075 238.437 128.002 234.263C126.94 232.821 126.313 231.09 125.244 229.658C122.459 225.947 121.473 221.525 119.741 217.412C119.109 215.917 118.57 214.472 117.583 213.13C115.764 210.65 114.005 208.111 112.449 205.478C111.589 204.024 110.699 202.33 110.677 200.736C110.62 196.197 109.366 191.588 111.256 187.099C112.282 184.673 113.234 182.238 115.167 180.279C115.711 179.728 116.123 179.066 116.847 178.134C116.943 179.666 117.171 180.913 117.075 182.134C116.803 185.576 117.719 188.901 118.46 192.16C119.521 196.81 121.771 201.055 125.178 204.753C127.033 206.761 127.861 209.42 128.335 212.116C128.8 214.725 129.194 217.392 131.154 219.504ZM38.7982 277.144C42.2797 277.272 45.7568 277.463 49.2383 277.508C52.825 277.554 56.4161 277.558 59.9985 277.388C63.5238 277.218 67.0316 276.8 70.5482 276.494C69.9255 277.239 69.2021 277.616 68.4479 277.926C63.7211 279.873 59.1172 282.121 55.184 285.231C50.6107 288.838 45.5288 290.209 39.719 290.105C37.7897 290.076 35.7157 290.428 33.9487 291.141C31.8747 291.977 29.7525 291.957 27.6522 292.176C23.6314 292.594 19.5755 292.818 15.5327 293.008C12.345 293.157 9.12225 293.919 5.85562 292.781C5.74161 291.716 5.63199 290.681 5.53552 289.77C7.57883 288.022 10.6306 288.031 12.4415 285.281C11.3453 285.703 10.7578 285.931 10.1702 286.159C8.78461 286.701 7.43411 287.356 6.0047 287.762C3.80792 288.391 2.50568 287.654 2.58459 285.612C2.6416 284.047 2.8345 281.956 3.88687 281.061C6.07922 279.189 7.68845 276.73 10.4157 275.363C14.0507 273.545 17.9049 272.485 21.9257 271.872C23.3244 271.657 24.7407 271.499 26.1044 271.152C28.7484 270.472 31.331 269.553 33.9969 268.957C37.5924 268.153 41.4247 267.826 44.9149 268.526C51.1851 269.777 57.2799 271.835 63.4361 273.607C64.9225 274.034 66.3476 274.647 67.8033 275.177C67.2333 275.686 66.7905 275.732 66.352 275.769C63.6115 276.009 60.871 276.287 58.1262 276.465C56.2539 276.585 54.3422 276.779 52.5005 276.556C47.9448 276.009 43.4197 275.202 38.7982 277.144ZM90.6873 251.332C90.0559 251.593 89.5254 251.978 88.9685 252.016C83.0447 252.425 77.4805 251.664 72.8239 247.709C71.2804 246.404 69.5792 245.237 67.8297 244.185C64.5367 242.197 61.2876 240.201 58.8979 237.174C58.284 236.399 57.3808 235.815 56.5608 235.211C54.6359 233.795 52.9653 232.093 51.8911 230.092C49.4883 225.641 47.7826 220.941 47.0065 215.946C46.7478 214.294 46.1821 212.629 44.7352 211.391C44.266 210.985 44.0818 210.281 43.5908 209.391C44.9983 210.07 45.9804 210.542 46.9933 211.031C47.6905 209.743 46.7478 209.478 45.998 209.151C43.7091 208.149 43.7047 208.157 42.7708 206.55C48.221 207.366 53.0223 209.188 57.2712 212.484C59.5205 214.228 62.0198 215.64 65.0541 216.303C67.4832 216.837 70.0089 217.947 71.9031 219.462C75.5556 222.369 79.4711 225.032 81.1724 229.782C82.9877 234.842 85.4344 239.692 85.851 245.386C84.6101 244.181 83.5402 243.096 82.4221 242.056C81.8871 241.563 81.2689 241.149 80.6813 240.71C78.0987 238.793 75.4109 236.987 72.9598 234.933C70.9034 233.202 69.2547 231.128 67.8603 228.813C66.3432 226.295 64.2911 224.067 62.5855 221.645C61.6296 220.29 61.1122 218.617 60.0073 217.404C58.7883 216.067 57.1177 215.098 55.6444 213.967C55.3506 213.739 55.0744 213.487 54.7631 213.28C52.6847 211.888 50.3652 211.122 47.7694 211.027C48.6288 211.714 49.5979 212.19 50.5976 212.6C54.0572 214.008 57.2054 215.909 59.389 218.812C62.1689 222.502 64.6025 226.432 67.2816 230.192C68.632 232.08 69.9782 234.043 71.7101 235.592C75.3319 238.834 79.0897 241.973 83.0535 244.839C84.4698 245.87 85.7808 246.939 86.9954 248.144C87.6399 248.785 88.1354 249.564 88.7975 250.185C89.2491 250.608 89.8849 250.856 90.6873 251.332ZM171.384 192.205C172.112 191.895 172.573 191.568 173.064 191.522C178.308 191.034 183.539 190.305 188.831 190.445C189.577 190.466 190.361 190.313 191.067 190.081C195.163 188.743 199.236 187.356 203.318 185.994C203.494 185.936 203.695 185.948 203.884 185.932C208.067 185.584 212.145 186.176 215.631 188.342C218.845 190.338 221.844 192.719 224.646 195.22C229.136 199.241 234.327 201.805 240.387 202.757C243.022 203.175 245.465 203.979 248.152 205.159C245.916 206.877 243.662 208.153 241.067 208.045C236.91 207.88 232.775 207.296 228.627 206.89C226.11 206.646 223.764 206.824 222.103 209.014C221.752 209.474 221.09 209.971 220.542 210.008C218.441 210.149 216.35 209.83 214.697 208.534C212.233 206.608 210.312 204.041 207.151 202.935C206.826 202.823 206.603 202.451 206.313 202.215C202.178 198.773 197.947 195.349 192.62 193.742C187.998 192.35 183.175 191.845 178.26 192.317C176.115 192.524 173.905 193.456 171.384 192.205ZM264.551 397.257C262.482 398.271 262.482 398.288 261.122 398.002C259.263 397.605 257.4 397.219 255.558 396.764C250.906 395.617 246.442 396.321 242.018 397.828C240.001 398.516 237.875 398.913 235.871 399.621C233.784 400.354 231.815 399.77 229.758 399.617C225.369 399.286 221.033 399.24 216.565 400.027C212.614 400.727 208.58 401.095 204.735 402.301C202.52 402.988 200.306 403.762 198.25 404.777C197.421 405.183 196.851 405.162 196.162 404.914C194.031 404.143 192.133 402.756 189.699 402.773C189.528 402.773 189.353 402.396 189.033 402.019C191.015 399.232 193.475 396.983 196.658 395.393C203.34 392.051 210.672 390.358 217.74 388.026C222.414 386.486 227.395 386.158 232.323 387.074C236.208 387.794 239.821 389.604 243.877 389.683C243.969 389.683 244.057 389.732 244.154 389.761C249.477 391.26 254.611 393.26 259.811 395.095C261.289 395.617 262.666 396.387 264.551 397.257ZM213.601 335.919C215.946 337.6 217.718 339.331 218.946 341.476C220.726 344.586 221.647 347.998 224.137 350.922C226.571 353.779 229.184 355.966 232.67 357.365C233.613 357.742 234.643 358.032 235.441 358.599C238.681 360.902 241.865 363.279 245.035 365.672C246.578 366.836 248.003 368.145 249.556 369.304C252.252 371.313 255.462 372.356 258.671 373.358C261.101 374.116 263.56 374.799 266.02 375.483C267.125 375.789 268.256 376.017 269.953 376.414C266.454 378.762 262.964 379.943 259.601 380.34C254.208 380.978 249.029 379.483 244.241 376.841C240.426 374.733 236.436 372.899 232.525 370.944C230.692 370.025 228.539 369.428 227.084 368.132C221.493 363.167 217.753 357.129 216.153 349.961C215.565 347.327 214.697 344.747 214.092 342.118C213.658 340.225 213.061 338.312 213.601 335.919ZM242.825 180.337C242.676 180.441 242.531 180.544 242.386 180.643C240.694 178.999 239.032 177.322 237.309 175.711C235.844 174.341 234.428 172.879 232.775 171.744C230.499 170.183 228 168.87 225.619 167.495C223.361 166.199 221.226 164.816 219.244 163.218C217.393 161.723 215.894 160.025 214.758 157.809C212.737 153.855 210.865 149.556 206.098 147.585C204.814 147.055 203.498 146.575 202.27 145.945C200.218 144.893 198.46 143.539 197.526 140.914C199.938 140.69 202.073 140.338 204.213 140.334C206.475 140.334 208.738 140.645 211 140.847C214.85 141.191 218.376 142.251 221.524 144.533C223.598 146.04 225.189 147.85 226.86 149.709C231.368 154.724 233.845 160.774 236.892 166.518C239.085 170.643 240.194 175.248 242.566 179.331C242.737 179.625 242.742 180.002 242.825 180.337ZM321.553 224.084C321.693 224.187 321.829 224.295 321.965 224.398C321.487 225.633 320.878 226.842 320.549 228.109C319.348 232.768 316.436 236.283 312.525 239.178C308.057 242.487 303.234 245.299 299.226 249.245C294.964 253.44 289.816 256.798 285.738 261.242C284.905 262.149 283.612 262.894 282.389 263.221C276.552 264.77 270.69 266.302 264.573 266.53C262.85 266.596 261.127 266.692 259 266.791C259.978 265.557 260.5 264.518 261.355 263.88C264.113 261.813 266.945 259.83 269.839 257.946C270.993 257.192 272.347 256.658 273.685 256.235C276.381 255.382 279.1 254.575 281.858 253.929C284.287 253.353 286.243 252.173 287.764 250.367C289.106 248.773 290.321 247.079 291.575 245.419C292.171 244.624 292.693 243.779 293.298 242.992C293.675 242.503 294.109 242.04 294.578 241.621C295.407 240.884 296.262 240.164 297.148 239.485C298.371 238.549 299.59 237.6 300.888 236.764C302.598 235.666 304.505 234.813 306.092 233.583C307.254 232.681 308.438 232.167 309.863 232.167C311.433 232.171 312.534 231.438 313.643 230.507C316.239 228.324 318.913 226.221 321.553 224.084ZM328.928 218.551C328.955 219.491 328.157 219.578 327.398 219.69C326.517 219.823 325.618 219.868 324.758 220.079C322.917 220.531 321.939 221.988 320.632 223.148C317.677 225.782 314.393 228.088 311.209 230.49C310.789 230.805 310.179 231.041 309.648 231.049C306.926 231.103 304.952 232.486 302.971 234.047C301.769 234.996 300.291 235.65 298.897 236.358C296.157 237.741 294.561 240.259 292.333 242.156C292.272 242.209 292.267 242.325 292.21 242.4C291.504 243.344 290.79 244.284 290.075 245.228C289.47 246.027 288.777 246.777 288.286 247.634C287.479 249.055 286.256 250.044 284.919 250.98C282.095 252.96 278.832 254.012 275.469 254.575C271.348 255.266 268.129 257.337 265.016 259.726C264.244 260.318 263.424 260.857 262.626 261.424C264.363 259.424 265.994 257.117 268.278 256.024C272.238 254.123 274.272 250.765 276.443 247.605C278.964 243.94 281.599 240.474 285.059 237.563C286.181 236.619 287.085 235.451 288.137 234.424C291.176 231.455 294.162 228.432 297.314 225.575C300.441 222.738 304.689 221.992 308.587 220.655C311.604 219.624 314.708 218.767 317.949 218.671C321.553 218.559 325.162 218.584 328.928 218.551ZM242.619 266.166C239.466 266.762 236.3 267.524 233.126 266.29C232.359 265.992 231.429 265.905 230.591 265.954C228.329 266.104 226.066 266.335 223.817 266.621C220.958 266.977 217.985 267.271 215.508 265.768C212.276 263.814 208.637 262.824 205.265 261.25C202.371 259.9 199.232 258.645 196.952 256.6C194.33 254.248 191.879 251.481 190.861 247.945C190.568 246.926 190.068 245.866 189.353 245.075C186.902 242.375 185.253 239.269 183.824 236.027C183.526 235.356 183.232 234.685 182.934 234.018C184.205 234.623 185.065 235.435 185.889 236.275C188.248 238.669 190.528 241.137 192.97 243.456C193.917 244.354 195.514 244.706 196.307 245.684C197.728 247.419 199.6 247.974 201.67 248.355C204.629 248.893 207.721 249.113 210.518 250.086C215.916 251.962 221.296 253.949 225.698 257.734C227.636 259.407 229.864 260.898 232.201 262.012C235.559 263.615 239.137 264.799 242.619 266.166ZM214.543 334.32C215.824 333.156 216.35 332.904 217.157 333.571C219.003 335.09 220.752 336.714 222.51 338.329C223.05 338.821 223.4 339.521 223.979 339.956C227.719 342.747 231.881 344.565 236.743 344.747C237.879 344.793 239.137 344.789 240.102 345.253C241.492 345.915 242.965 346.772 243.847 347.928C244.925 349.34 245.539 351.104 246.157 352.777C248.731 359.788 253.471 364.331 261.5 365.606C263.88 365.979 266.073 367.076 267.647 369.18C269.34 371.441 271.475 373.404 273.444 375.528C273.132 375.553 272.654 375.69 272.212 375.619C268.976 375.106 265.731 374.7 262.67 373.383C260.342 372.381 257.755 371.897 255.444 370.861C251.226 368.965 247.446 366.439 244.057 363.353C241.084 360.649 237.866 358.194 233.928 356.786C231.609 355.962 229.513 354.91 228.009 352.914C226.733 351.22 225.119 349.758 223.843 348.064C223.058 347.029 222.462 345.803 222.085 344.578C221.603 342.996 220.463 340.263 219.498 339.153C218.358 337.836 217.262 336.478 216.065 335.202C215.675 334.788 215.026 334.589 214.543 334.32ZM173.585 324.067C172.432 320.725 174.335 319.574 176.729 318.6C178.001 318.083 179.053 317.097 180.303 316.513C181.684 315.863 183.184 315.432 184.867 314.815C184.179 316.973 183.495 318.658 183.113 320.402C182.578 322.837 182.101 325.305 181.908 327.781C181.531 332.51 175.287 336.221 170.95 336.635C165.873 337.119 161.102 338.105 157.914 342.561C156.744 344.192 154.735 345.29 153.095 346.619C152.749 346.901 152.381 347.236 151.96 347.344C148.242 348.321 144.501 349.241 140.779 350.201C139.893 350.429 139.038 350.748 137.701 351.174C138.257 348.988 138.635 347.191 139.205 345.451C139.437 344.743 139.994 344.052 140.59 343.551C141.581 342.718 142.651 341.923 143.809 341.335C146.325 340.051 148.623 338.548 150.609 336.585C151.171 336.03 152.026 335.728 152.762 335.339C153.411 334.995 154.108 334.73 154.735 334.357C156.669 333.223 158.572 332.047 160.493 330.9C163.422 329.14 166.605 327.756 168.946 325.168C169.889 324.121 171.323 323.454 173.585 324.067ZM103.837 421.755C103.89 421.627 103.942 421.49 103.995 421.362C107.113 422.116 110.248 422.824 113.348 423.631C117.483 424.716 121.731 425.217 125.971 425.275C129.168 425.321 132.36 424.501 135.574 424.298C138.174 424.132 140.853 424.017 143.405 424.418C146.654 424.928 149.816 425.95 153.003 426.803C156.231 427.669 159.313 426.671 162.404 426.128C163.509 425.934 164.491 425.644 165.684 425.797C169.297 426.257 172.941 426.514 176.571 426.845C175.953 427.893 175.278 428.53 174.462 428.891C172.494 429.76 170.459 430.502 168.446 431.288C162.321 433.686 155.906 434.485 149.338 434.249C143.879 434.05 138.428 433.549 132.983 434.568C129.839 435.156 126.805 434.601 124.02 433.073C121.81 431.86 119.64 430.584 117.443 429.354C112.909 426.816 108.371 424.29 103.837 421.755ZM179.873 425.942C179.25 425.996 178.965 426.087 178.724 426.029C176.655 425.52 174.62 424.712 172.52 424.513C168.587 424.137 164.597 424 160.725 424.99C158.151 425.648 155.599 426.042 152.973 425.478C150.684 424.986 148.351 424.592 146.137 423.88C140.823 422.17 135.482 423.014 130.128 423.445C127.598 423.648 125.029 424.012 122.525 423.793C119.276 423.507 116.04 422.857 112.874 422.074C111.765 421.801 110.151 422.145 109.419 420.654C109.761 420.484 110.002 420.252 110.239 420.265C113.089 420.381 115.72 419.606 118.184 418.38C120.556 417.196 123.016 416.442 125.686 416.157C128.203 415.888 130.475 416.103 132.645 417.548C134.359 418.691 136.464 419.441 138.556 418.766C140.774 418.049 143.12 417.25 144.905 415.896C147.202 414.157 149.645 413.73 152.354 413.834C154.722 413.925 157.086 414.099 159.449 414.289C160.484 414.372 161.619 414.359 162.523 414.765C166.355 416.488 170.433 417.809 173.594 420.695C175.528 422.459 177.619 424.07 179.873 425.942ZM111.304 298.649C111.304 298.864 111.304 299.079 111.304 299.299C111.076 299.411 110.862 299.568 110.62 299.622C107.858 300.243 105.008 300.632 102.342 301.514C99.4656 302.467 96.7251 303.481 93.5593 303.017C92.3579 302.844 90.968 303.73 89.7797 303.523C87.1488 303.059 84.9477 304.123 82.6764 304.885C79.8877 305.817 77.1823 306.972 74.4331 308.016C71.1971 309.242 67.8121 309.751 64.3613 310.198C61.9278 310.513 59.161 311.113 57.3457 312.517C54.7806 314.501 51.4614 314.927 49.0015 316.907C48.7472 317.11 48.1158 316.927 47.6686 316.869C44.5115 316.488 42.4463 314.277 39.7322 312.853C40.175 312.447 40.3943 312.07 40.6968 311.999C42.705 311.527 44.722 311.088 46.7522 310.707C51.3123 309.867 55.3199 308.032 58.876 305.171C60.608 303.779 62.5066 302.442 64.5586 301.564C68.2462 299.99 72.0697 298.657 75.9239 297.472C77.9628 296.843 80.1771 296.52 82.33 296.445C85.0749 296.354 87.8329 296.615 90.5821 296.793C95.2562 297.092 99.9348 297.402 104.605 297.787C106.845 297.974 109.073 298.355 111.304 298.649ZM250.625 185.149C250.112 183.045 249.683 180.842 249.025 178.705C247.205 172.763 247.442 166.837 248.999 160.911C249.906 157.445 252.419 154.948 254.922 152.455C257.659 149.722 260.202 146.881 261.065 143.026C261.412 141.477 262.043 139.978 262.635 138.483C264.946 132.627 269.625 128.49 274.584 123.699C274.277 125.567 274.211 126.821 273.847 127.993C273.238 129.936 273.352 131.807 273.466 133.816C273.637 136.81 273.141 139.92 270.865 142.375C269.931 143.382 268.59 144.14 267.936 145.27C265.713 149.109 262.302 152.148 260.561 156.406C259.206 159.718 258.457 163.023 257.965 166.423C257.426 170.162 256.948 173.889 255.12 177.297C253.717 179.902 252.178 182.445 250.625 185.149ZM183.043 231.674C187.581 232.329 191.988 233.144 196.526 232.946C199.675 232.809 202.845 232.78 205.138 235.435C205.41 235.749 205.984 235.82 206.41 236.023C208.681 237.103 211.053 238.039 213.197 239.319C216.148 241.075 218.959 243.05 221.761 245.017C222.646 245.638 223.458 246.433 224.067 247.303C226.04 250.127 227.79 253.105 229.855 255.867C230.982 257.374 232.385 258.836 233.994 259.842C236.274 261.267 238.866 262.236 241.308 263.428C241.72 263.631 242.058 263.954 242.435 264.224C237.028 262.874 231.938 261.031 227.597 257.672C224.896 255.577 222.085 253.61 219.301 251.614C218.937 251.353 218.446 251.216 217.985 251.104C214.504 250.251 211.014 249.431 207.536 248.574C204.91 247.928 202.099 247.605 199.718 246.487C196.404 244.93 193.51 242.802 191.212 239.808C188.95 236.855 185.885 234.449 183.043 231.674ZM113.326 300.301C113.396 300.566 113.466 300.831 113.536 301.096C111.287 303.154 109.064 305.229 106.784 307.25C105.959 307.987 105.113 308.844 104.1 309.233C101.662 310.173 99.1148 310.844 96.6287 311.681C95.3001 312.124 93.9277 312.546 92.7262 313.217C87.6443 316.049 82.2642 317.221 76.3931 316.223C72.7888 315.611 69.3818 315.698 66.2467 318.012C64.7647 319.102 62.888 320.054 60.8491 319.83C57.8412 319.495 54.8552 318.986 51.8779 318.468C51.3386 318.377 50.8738 317.888 50.1153 317.42C51.0317 317.089 51.5491 316.845 52.0928 316.72C54.6096 316.149 56.8459 315.167 58.9111 313.61C60.1081 312.712 61.7918 312.294 63.3265 311.917C65.326 311.42 67.4043 311.217 69.4344 310.819C73.9332 309.946 78.1469 308.322 82.2336 306.38C85.7063 304.728 89.4727 304.703 93.2217 304.421C95.9315 304.222 98.821 304.218 101.272 303.287C104.854 301.928 108.66 301.725 112.252 300.62C112.611 300.508 112.966 300.404 113.326 300.301ZM245.522 185.124C245.434 185.265 245.346 185.406 245.258 185.547C242.553 185.261 239.659 185.447 237.191 184.565C234.564 183.629 231.889 182.768 229.285 181.77C227.185 180.962 225.255 179.869 223.8 178.072C222.322 176.246 220.713 174.477 218.937 172.908C217.218 171.392 215.21 170.175 213.346 168.808C211.847 167.707 210.395 166.555 208.878 165.479C207.462 164.472 205.73 163.864 205.37 161.818C205.217 160.961 204.165 160.253 203.551 159.458C203.165 158.961 202.665 158.464 202.516 157.896C201.832 155.234 200.113 152.84 200.363 149.904C200.455 148.865 199.859 147.78 199.477 146.33C203.099 148.024 206.936 148.815 209.365 151.797C210.869 153.635 212.254 155.623 213.285 157.722C215.806 162.849 220.147 166.116 225.15 168.825C227.369 170.03 229.793 171.053 231.666 172.639C236.423 176.656 240.922 180.946 245.522 185.124ZM251.467 204.211C250.678 204.132 249.74 204.293 249.13 203.941C246.109 202.198 242.65 201.987 239.343 201.258C235.713 200.455 232.152 199.436 229.171 197.262C226.018 194.968 223.01 192.487 219.954 190.073C218.384 188.839 216.964 187.418 215.069 186.598C210.707 184.706 206.243 184.134 201.578 185.605C199.061 186.404 196.443 186.934 193.935 187.75C190.519 188.868 187.13 189.911 183.425 189.274C182.916 189.182 182.333 189.584 181.772 189.63C181.118 189.675 180.452 189.576 179.79 189.543C179.763 189.361 179.737 189.174 179.711 188.992C180.548 188.636 181.412 188.325 182.219 187.915C184.477 186.772 186.968 185.874 188.884 184.337C190.774 182.818 192.65 181.426 194.821 180.271C198.434 178.341 202.082 177.136 206.331 177.898C211.136 178.759 215.982 179.592 219.923 182.49C223.041 184.785 225.834 187.468 228.746 190.007C231.688 192.566 234.529 195.233 238.611 196.181C240.071 196.52 241.457 197.146 242.908 197.523C246.719 198.521 248.613 201.784 251.467 204.211ZM198.131 406.537C200.556 405.638 202.63 404.798 204.752 404.102C207.063 403.348 209.396 402.619 211.768 402.081C213.697 401.646 215.74 401.659 217.661 401.203C220.379 400.561 223.098 400.408 225.856 400.71C231.39 401.315 236.721 401.087 242.014 398.934C245.828 397.385 250.029 396.785 254.274 397.745C255.129 397.94 256.067 397.799 256.948 397.919C258.47 398.13 260.088 398.205 261.508 399.816C258.825 400.756 256.47 402.238 254.094 402.272C248.977 402.35 244.82 404.185 240.637 406.665C238.199 408.111 235.261 408.993 232.196 408.699C229.377 408.429 226.562 408.061 223.743 407.792C219.331 407.382 214.951 407.262 210.571 408.33C208.207 408.901 205.708 409.208 203.27 409.216C201.455 409.22 199.469 408.852 198.131 406.537ZM140.45 264.393C137.056 265.458 134.096 266.021 131.053 266.133C130.339 266.162 129.58 265.822 128.896 265.536C124.665 263.776 121.359 260.774 118.079 257.863C115.772 255.813 113.637 253.444 112.379 250.616C111.804 249.32 110.883 248.819 109.59 248.698C107.455 248.508 105.635 247.775 104.14 246.28C103.684 245.825 102.776 245.696 102.465 245.208C100.527 242.122 98.7465 238.946 96.8084 235.865C95.55 233.869 94.1074 231.973 92.3711 229.496C93.5725 230.08 94.1995 230.291 94.7169 230.647C99.1674 233.733 103.881 236.37 108.88 238.594C113.295 240.549 116.264 243.949 118.956 247.721C122.051 252.069 125.818 255.962 130.409 258.952C133.395 260.894 136.705 262.389 140.45 264.393ZM141.397 263.139C140.709 263.039 140.318 263.076 140.038 262.927C137.723 261.693 135.486 260.318 133.114 259.2C130.931 258.169 129.295 256.625 127.603 255.034C123.854 251.51 120.482 247.721 117.553 243.564C116.689 242.334 115.751 240.95 114.475 240.226C111.76 238.681 109.042 237.116 106.069 235.973C104.017 235.186 102.057 234.047 100.281 232.78C97.7117 230.95 94.923 229.509 92.0948 228.109C91.5862 227.856 91.117 227.542 90.0691 226.929C94.1644 226.755 97.5626 226.573 100.961 226.502C101.548 226.49 102.246 226.85 102.719 227.231C107.042 230.701 112.352 232.196 117.592 233.757C120.021 234.482 121.766 235.671 123.042 237.745C125.371 241.526 127.331 245.531 130.378 248.897C130.992 249.576 131.487 250.355 132.009 251.1C134.614 254.815 136.521 259.014 140.437 261.813C140.774 262.058 140.95 262.505 141.397 263.139ZM113.365 372.319C113.102 372.319 112.843 372.315 112.58 372.315C111.936 370.05 111.142 367.809 110.691 365.511C110.353 363.784 110.594 362.003 111.458 360.364C112.997 357.448 114.567 354.545 116.005 351.58C116.54 350.483 116.829 349.253 117.075 348.052C117.522 345.874 117.618 343.633 118.859 341.646C119.184 341.124 119.478 340.499 119.495 339.911C119.649 335.086 121.451 330.875 124.586 327.11C125.292 326.266 125.853 325.309 126.563 324.46C127.41 323.45 128.348 322.501 129.466 321.292C129.913 327.301 128.62 332.394 125.52 337.14C124.384 338.879 123.867 340.95 124.117 343.083C124.432 345.733 124.761 348.379 125.02 351.029C125.134 352.181 125.252 353.357 125.099 354.491C124.463 359.146 121.937 362.72 117.789 365.25C115.825 366.447 114.795 368.161 114.185 370.207C113.966 370.923 113.641 371.615 113.365 372.319ZM289.387 174.428C290.053 174.829 290.904 175.057 291.119 175.537C291.623 176.668 292.017 177.91 292.101 179.128C292.316 182.163 292.215 185.215 292.46 188.251C292.71 191.365 293.219 194.466 293.64 197.572C293.71 198.094 294.14 198.67 293.999 199.109C292.894 202.591 292.653 206.472 289.965 209.292C288.027 211.329 286.791 213.698 285.291 215.955C282.915 219.524 280.095 222.684 275.693 224.527C275.601 223.723 275.32 223.048 275.504 222.514C276.25 220.324 275.895 217.971 277.241 215.793C278.591 213.615 278.916 210.894 279.999 208.542C281.674 204.898 285.002 201.974 285.3 197.705C285.313 197.473 285.909 197.316 286.107 197.042C286.418 196.607 286.786 196.119 286.843 195.622C287.098 193.382 287.361 191.133 287.409 188.884C287.462 186.151 286.51 183.435 287.62 180.677C288.347 178.855 288.703 176.904 289.387 174.428ZM135.666 352.587C135.539 352.549 135.416 352.508 135.289 352.466C135.267 350.586 135.061 348.686 135.271 346.826C135.482 344.983 135.837 343.066 136.639 341.406C137.267 340.113 137.622 338.975 137.455 337.587C137.267 336.001 137.692 334.61 139.064 333.475C142.318 330.784 146.049 328.804 150.004 327.334C154.24 325.76 158.09 323.855 160.966 320.414C161.654 319.59 162.694 319.031 163.579 318.352C167.035 315.714 171.257 314.857 175.427 314.025C177.681 313.577 180.062 313.726 182.39 313.606C181.886 314.497 181.32 314.956 180.676 315.259C178.97 316.049 177.229 316.77 175.502 317.52C173.778 318.273 172.213 319.238 170.797 320.452C168.71 322.24 166.53 323.934 164.404 325.682C164.132 325.909 163.864 326.204 163.742 326.522C162.992 328.448 161.847 329.802 159.388 329.682C158.923 329.661 158.331 330.08 157.963 330.444C155.889 332.494 153.341 333.736 150.53 334.618C149.938 334.8 149.189 335.161 148.956 335.633C147.636 338.296 144.874 339.215 142.546 340.726C139.989 342.383 137.034 343.812 137.152 347.609C137.205 349.253 136.197 350.926 135.666 352.587ZM254.984 193.758C253.3 191.659 251.888 189.899 252.274 187.588C252.555 185.923 253.059 184.25 253.769 182.71C254.633 180.834 256.089 179.182 256.808 177.273C257.685 174.933 258.093 172.428 258.658 169.984C259.329 167.09 259.895 164.174 260.609 161.292C261.052 159.491 261.6 157.706 262.245 155.962C263.429 152.782 266.218 150.567 267.989 147.722C268.84 146.355 270.142 145.229 271.286 144.036C272.703 142.57 274.176 141.183 274.233 138.98C274.25 138.28 274.702 137.584 275.105 136.466C276.675 139.543 276.408 142.338 276.513 145.055C276.583 146.927 275.684 148.513 274.123 149.705C271.01 152.095 269.752 155.557 268.677 158.927C267.809 161.636 267.849 164.613 267.572 167.479C267.38 169.491 266.902 171.38 265.582 173.007C263.977 174.983 262.425 176.999 260.723 178.9C257.018 183.033 255.067 187.758 254.984 193.758ZM128.059 319.839C128.19 319.955 128.326 320.066 128.453 320.182C127.309 321.57 126.046 322.886 125.042 324.365C122.81 327.64 119.71 330.436 119.122 334.647C118.855 336.536 117.399 338.233 117.864 340.337C117.943 340.71 117.54 341.169 117.395 341.6C116.934 342.967 116.224 344.317 116.093 345.712C115.68 350.044 113.589 353.729 111.594 357.506C110.616 359.366 109.042 361.101 109.502 363.494C109.818 365.151 109.862 366.853 110.028 368.534C108.248 366.149 106.692 363.805 106.652 360.749C106.613 357.788 106.209 354.819 105.793 351.878C105.499 349.824 105.911 347.932 106.863 346.164C107.766 344.495 108.95 342.963 109.963 341.339C111.063 339.575 112.168 337.807 113.159 335.985C114.628 333.281 115.615 330.403 117.627 327.889C120.043 324.862 123.577 323.156 126.243 320.476C126.638 320.075 127.445 320.042 128.059 319.839ZM154.367 458.529C154.744 458.131 154.95 457.829 155.235 457.634C158.12 455.667 161.615 454.586 164.176 452.135C164.491 451.832 165.061 451.783 165.447 451.526C167.736 450.01 170.034 448.507 172.274 446.929C174.322 445.488 176.098 443.546 178.352 442.552C183.39 440.337 188.612 438.473 193.843 436.68C195.527 436.1 197.465 436.071 199.477 436.514C198.837 437.256 198.333 437.786 197.881 438.357C194.514 442.627 190.239 445.79 185.003 447.803C181.504 449.145 178.15 450.652 175.405 453.269C172.765 455.795 169.429 456.586 165.675 456.002C164.408 455.808 163.001 455.882 161.76 456.197C159.331 456.818 156.972 457.692 154.367 458.529ZM95.5895 314.352C95.6202 314.476 95.6552 314.604 95.6903 314.728C94.41 315.9 93.2437 317.209 91.823 318.199C90.2445 319.304 88.473 320.186 86.7104 321.023C85.1932 321.744 83.6147 322.439 81.9748 322.829C79.5062 323.412 76.9718 323.769 74.4506 324.133C70.2412 324.738 66.0319 325.342 61.805 325.81C57.8587 326.249 54.1141 325.831 50.7949 323.367C48.5236 321.686 46.0638 320.195 43.5469 318.861C41.8412 317.954 39.9163 317.387 38.0353 316.807C36.6979 316.393 35.2246 316.352 33.9136 315.892C32.6113 315.437 31.1468 316.24 29.8709 314.952C28.9852 314.058 27.297 313.896 25.9948 313.345C25.5168 313.147 25.1222 312.778 24.1049 312.082C26.4727 312.207 28.1652 312.198 29.8226 312.401C33.1463 312.799 36.3603 313.569 39.1665 315.412C39.8681 315.871 40.4337 316.58 41.1923 316.869C46.682 318.957 51.8516 322.112 58.1656 321.549C61.463 323.408 63.8044 321.098 66.4134 319.88C67.3473 319.441 68.3251 319.048 69.3292 318.778C71.0612 318.311 72.7537 318.07 74.6435 318.489C79.8131 319.623 84.8381 319.044 89.6306 316.758C91.5555 315.842 93.5988 315.147 95.5895 314.352ZM274.553 218.121C274.044 216.675 273.623 215.876 273.492 215.035C273.137 212.745 272.733 210.439 272.676 208.132C272.632 206.364 273.141 204.592 273.312 202.811C273.588 199.953 274.614 197.34 276.438 195.096C277.859 193.348 279.284 191.555 280.753 189.903C283.16 187.207 283.309 184.002 284.16 181.004C284.826 178.656 285.054 176.266 287.093 174.357C287.716 176.246 286.957 177.919 286.598 179.645C286.234 181.381 285.888 183.149 285.835 184.913C285.752 187.679 285.918 190.454 285.997 193.228C286.059 195.477 284.629 197.224 283.748 199.15C282.674 201.498 281.95 204.161 280.271 206.041C278.359 208.182 277.837 210.646 276.859 213.044C276.232 214.584 275.487 216.083 274.553 218.121ZM161.773 115.591C163.172 116.137 164.566 116.701 165.969 117.235C169.758 118.676 173.463 120.27 176.659 122.718C178.619 124.217 180.697 125.327 183.21 125.811C184.67 126.088 186.376 126.449 187.389 127.356C190.69 130.304 192.839 134.006 194.04 138.164C194.124 138.454 193.988 138.802 193.961 139.096C189.809 138.976 186.525 137.456 183.933 134.619C181.285 131.729 177.97 129.724 174.357 128.113C173.335 127.658 172.331 127.132 171.261 126.826C165.46 125.165 163.79 120.299 161.773 115.591ZM153.179 461.171C153.109 460.976 153.043 460.785 152.973 460.591C154.841 460.048 156.783 459.667 158.559 458.926C161.067 457.878 163.509 457.29 166.333 457.609C167.898 457.783 169.727 458.272 171.301 457.261C173.077 456.127 174.813 454.93 176.637 453.866C179.136 452.412 181.596 450.834 184.267 449.716C189.278 447.617 193.755 444.954 197.039 440.701C197.469 440.146 198.092 439.715 198.991 438.896C198.276 440.883 197.846 442.494 197.127 443.981C196.062 446.18 195.014 448.441 193.536 450.387C191.782 452.71 190.16 455.191 186.928 456.251C183.526 457.369 180.36 459.112 176.984 460.305C174.677 461.121 172.209 461.27 169.722 460.632C168.118 460.222 166.258 460.429 164.811 459.775C162.816 458.872 161.378 459.585 159.787 460.404C159.559 460.52 159.225 460.454 158.945 460.487C157.024 460.711 155.099 460.939 153.179 461.171ZM183.39 483.23C183.214 481.893 184.087 481.375 184.832 480.895C186.161 480.042 187.608 479.354 188.945 478.518C189.686 478.054 190.44 477.511 190.971 476.853C192.4 475.072 193.716 473.209 195.079 471.383C195.404 470.944 195.842 470.554 196.066 470.074C197.798 466.397 200.012 463.018 203.169 460.276C205.195 458.512 207.155 456.624 209.426 455.187C214.802 451.791 220.362 448.648 224.865 443.84C224.755 444.635 224.716 445.24 224.576 445.815C224.47 446.25 224.238 446.656 224.058 447.074C222.068 451.737 218.213 454.988 214.403 458.239C212.803 459.609 211.062 460.877 209.211 461.92C205.857 463.808 202.788 465.916 200.363 468.89C199.201 470.314 198.333 471.859 197.333 473.35C194.058 478.244 188.857 480.816 183.39 483.23ZM226.123 437.521C226.365 437.682 226.61 437.848 226.856 438.013C225.952 439.554 225.062 441.107 224.142 442.639C222.151 445.948 218.652 447.724 215.587 449.874C212.627 451.952 209.137 453.24 206.475 455.887C203.875 458.462 200.701 460.454 198.776 463.705C196.974 466.749 194.544 469.461 192.725 472.492C190.765 475.751 187.853 477.843 184.508 479.603C184.841 478.874 185.323 478.261 185.788 477.636C186.371 476.849 187.055 476.103 187.503 475.25C189.178 472.045 190.642 468.732 192.444 465.593C194.058 462.79 196.294 460.471 198.789 458.201C201.788 455.468 205.287 453.501 208.545 451.228C212.11 448.743 216.074 446.817 218.104 442.825C218.183 442.672 218.314 442.523 218.459 442.432C221.011 440.788 223.567 439.156 226.123 437.521ZM268.458 284.428C265.17 278.601 259.689 274.821 254.62 270.344C259.483 268.754 264.166 268.563 269.151 268.53C269.348 269.748 269.796 270.899 269.66 271.984C269.234 275.247 268.563 278.477 268.813 281.798C268.875 282.664 268.585 283.55 268.458 284.428ZM303.598 388.589C299.8 389.894 296.227 391.67 292.302 392.735C288.47 393.778 284.831 395.584 280.512 395.128C284.441 392.424 288.764 390.871 293.048 389.144C296.525 387.74 299.761 386.887 303.387 388.117C303.431 388.134 303.444 388.237 303.598 388.589ZM309.727 385.666C314.222 381.173 324.101 373.806 333.265 372.286C332.997 372.745 332.861 373.247 332.524 373.491C330.643 374.828 328.784 376.216 326.78 377.367C324.197 378.849 321.509 380.17 318.817 381.475C315.813 382.924 312.762 384.27 309.727 385.666ZM157.927 436.837C156.893 437.384 155.788 437.844 154.827 438.49C151.276 440.879 147.448 440.291 143.655 439.409C142.322 439.098 141.129 438.221 140.98 436.601C146.606 436.075 152.219 437.943 157.927 436.837ZM159.168 299.46C159.107 299.224 159.046 298.984 158.984 298.744C160.243 298.135 161.44 297.336 162.773 296.955C164.939 296.334 167.21 296.056 169.407 295.505C171.783 294.909 174.138 294.23 176.462 293.476C178.159 292.921 179.483 293.348 181.316 294.748C177.76 295.257 174.782 295.617 171.831 296.131C169.915 296.466 168.026 296.98 166.144 297.481C163.807 298.106 161.492 298.802 159.168 299.46ZM390.376 368.501C395.853 369.934 401.097 371.043 406.135 372.696C411.173 374.348 416.737 374.654 421.183 377.86C411.164 375.209 401.233 372.311 391.31 369.387C391.016 369.3 390.815 368.931 390.376 368.501ZM274.882 295.866C278.039 300.607 277.28 305.68 278.175 310.418C276.145 305.912 273.737 301.489 274.882 295.866ZM164.057 287.256C164.478 288.834 163.487 288.88 162.505 289.078C159.309 289.729 156.117 290.412 152.942 291.153C151.394 291.513 149.89 292.027 148.364 292.47C148.285 292.226 148.206 291.981 148.132 291.733C153.139 289.592 158.296 287.861 164.057 287.256ZM114.825 275.26C119.986 277.649 125.476 277.5 130.216 279.881C125.932 279.355 121.582 279.421 117.434 278.018C116.176 277.591 115.325 277.044 114.825 275.26ZM163.027 435.765C169.034 433.417 175.041 431.069 181.048 428.717C181.127 428.903 181.206 429.085 181.285 429.272C175.405 431.934 169.727 435.077 163.027 435.765ZM183.543 293.431C188.375 292.28 192.225 294.992 196.592 295.982C196.053 296.321 195.492 296.495 195.005 296.379C193.198 295.953 191.418 295.414 189.62 294.951C187.599 294.425 185.569 293.94 183.543 293.431ZM282.783 320C285.519 319.872 287.883 320.986 290.198 323.487C287.773 323.893 284.695 322.448 282.783 320ZM272.128 283.956C271.541 283.666 270.988 283.538 270.971 283.364C270.83 281.724 270.725 280.072 270.734 278.419C270.734 277.835 271.071 277.247 271.256 276.663C271.431 276.692 271.611 276.721 271.791 276.75C271.896 278.999 272.001 281.252 272.128 283.956ZM265.994 250.065C266.81 253.999 266.81 253.999 265.529 254.525C265.691 252.951 265.845 251.506 265.994 250.065ZM312.635 332.775C312.551 332.945 312.468 333.111 312.389 333.272C311.104 332.705 309.82 332.138 308.048 331.351C310.468 330.8 311.416 332.067 312.635 332.775ZM237.48 410.798C235.858 412.372 235.858 412.372 234.042 412.219C235.463 410.463 235.463 410.463 237.48 410.798ZM249.231 404.934C249.328 405.145 249.424 405.361 249.52 405.576C248.424 405.92 247.332 406.264 246.236 406.607C246.175 406.425 246.113 406.247 246.048 406.065C247.109 405.688 248.17 405.311 249.231 404.934ZM329.582 343.911C329.45 344.064 329.318 344.221 329.183 344.371C328.253 343.774 327.319 343.174 326.385 342.577C326.49 342.441 326.591 342.308 326.692 342.172C327.652 342.751 328.617 343.335 329.582 343.911ZM324.929 341.505C324.785 341.683 324.64 341.865 324.5 342.043C323.93 341.596 323.364 341.149 322.794 340.706C322.855 340.631 322.917 340.565 322.978 340.49C323.627 340.83 324.28 341.169 324.929 341.505ZM207.782 305.175C207.712 305.026 207.642 304.873 207.567 304.719C208.19 304.475 208.808 304.218 209.439 303.995C209.483 303.978 209.615 304.189 209.821 304.43C209.106 304.695 208.444 304.935 207.782 305.175ZM241.496 408.984C241.404 408.761 241.312 408.537 241.22 408.313C241.838 408.09 242.461 407.866 243.079 407.643C243.149 407.8 243.22 407.953 243.294 408.111C242.693 408.4 242.097 408.694 241.496 408.984ZM425.27 378.887C425.358 378.709 425.441 378.531 425.529 378.357C426.248 378.638 426.971 378.924 427.695 379.206C427.629 379.355 427.563 379.504 427.493 379.653C426.752 379.396 426.011 379.143 425.27 378.887ZM271.966 272.228C272.124 272.261 272.286 272.29 272.448 272.319C272.365 273.052 272.286 273.785 272.203 274.518C272.019 274.493 271.839 274.464 271.659 274.44C271.76 273.703 271.861 272.965 271.966 272.228ZM231.784 302.607C231.714 302.81 231.639 303.013 231.569 303.216C230.898 302.968 230.223 302.719 229.548 302.471C229.605 302.33 229.662 302.193 229.715 302.053C230.403 302.235 231.096 302.421 231.784 302.607Z" fill="#3D3D3D" fill-opacity="0.1"/>
<path d="M211.778 297.199C213.295 297.68 214.782 298.259 216.334 298.586C216.97 298.719 217.737 298.292 218.338 297.762C216.773 297.414 215.198 297.108 213.651 296.698C212.831 296.483 212.155 296.375 211.765 297.278L211.778 297.199Z" fill="#3D3D3D" fill-opacity="0.1"/>
<path d="M211.765 297.278C211.445 296.156 210.427 296.151 209.515 296.098C207.95 296.002 206.376 296.002 204.802 295.957C204.802 295.957 204.802 295.874 204.802 295.87C206.998 296.901 209.336 297.294 211.778 297.199L211.765 297.278Z" fill="#3D3D3D" fill-opacity="0.1"/>
</svg>
