<svg width="394" height="490" viewBox="0 0 394 490" fill="none" xmlns="http://www.w3.org/2000/svg">
<path d="M17.2297 21.9267C20.4988 26.9604 22.8376 32.6188 27.4387 36.7535C31.2671 40.1922 35.1564 43.5853 38.7051 47.2933C41.2878 49.9955 43.3622 53.1854 45.6653 56.1568C46.3364 57.0204 46.9668 57.9194 47.6837 58.7473C54.7151 66.915 61.9244 74.9354 68.7321 83.291C71.5283 86.7247 74.0755 90.4429 76.0532 94.5267C78.9613 100.52 82.9371 105.894 86.735 111.35C88.9771 114.57 91.265 117.755 93.5833 120.919C94.8645 122.657 96.3389 124.257 97.5642 126.029C101.372 131.54 105.236 137.026 108.805 142.7C110.478 145.356 111.49 148.419 112.842 151.279C113.91 153.555 115.059 155.795 116.126 158.075C116.386 158.634 116.467 159.279 116.63 159.889C116.416 159.98 116.203 160.072 115.989 160.163C115.155 158.411 114.444 156.582 113.447 154.926C112.257 152.96 110.874 151.111 109.481 149.283C106.761 145.717 103.975 142.197 101.204 138.672C99.7199 136.782 98.2556 134.867 96.6948 133.044C93.502 129.316 91.9767 124.622 89.3584 120.574C86.4503 116.074 84.4471 111.055 81.0052 106.829C79.1647 104.569 78.336 101.516 76.7955 98.9763C74.228 94.7553 71.4317 90.6765 68.7778 86.5063C63.9326 78.8974 58.0147 72.2281 51.2986 66.2242C49.1683 64.3195 47.1804 62.2623 45.1569 60.2458C40.7184 55.8368 36.2037 51.5041 31.9127 46.9631C29.2893 44.1897 27.276 40.817 24.5356 38.1909C20.4327 34.2697 17.6669 29.4747 14.5656 24.8625C12.8574 22.3279 10.7373 20.0727 8.85104 17.6549C8.32739 16.9895 7.97656 16.187 7.52917 15.4555C5.75479 12.5602 4.01605 9.63956 2.15527 6.80017C1.8909 6.3989 1.03674 6.38873 0.391083 6.18048C-0.569824 7.83636 0.467316 8.88272 1.07742 9.97986C2.35355 12.291 3.68558 14.5666 4.99219 16.8625C5.3176 17.4416 5.54639 18.0917 5.94803 18.5996C8.46976 21.7946 11.0423 24.9489 13.5742 28.1286C16.5586 31.8671 19.4616 35.6715 22.5121 39.3541C24.8152 42.1376 27.3065 44.7688 29.696 47.4761C31.7195 49.772 33.5905 52.2254 35.7665 54.3689C41.0743 59.5956 46.5296 64.6852 51.9188 69.8357C53.2254 71.0852 54.527 72.284 55.6607 73.7621C58.5282 77.4955 61.7515 80.9545 64.8427 84.5152C65.0562 84.759 65.5697 84.9063 65.5901 85.1247C65.8392 88.2333 68.3762 89.9857 69.8302 92.3629C72.5096 96.7464 75.2652 101.079 77.9547 105.453C79.7138 108.312 81.3763 111.233 83.1557 114.082C85.3572 117.608 87.64 121.133 89.1042 125.013C90.8531 129.661 94.0256 133.267 96.8524 137.194C100.076 141.684 103.538 145.93 107.072 150.167C109.349 152.899 110.935 156.211 112.786 159.294C116.635 165.715 120.331 172.232 124.332 178.555C126.712 182.319 128.816 186.297 132.035 189.527C132.899 190.391 133.072 191.93 133.631 193.128C134.607 195.226 135.594 197.319 136.661 199.371C137.642 201.266 138.034 203.084 137.19 205.212C136.102 207.955 135.431 210.861 134.394 213.624C133.667 215.564 132.553 217.352 131.735 219.262C131.043 220.872 130.459 222.538 129.94 224.209C128.293 229.553 126.971 235.013 124.983 240.22C123.824 243.252 121.973 246.193 119.812 248.626C117.204 251.562 116.009 254.996 114.667 258.582C113.442 258.094 112.1 257.637 110.813 257.048C106.05 254.864 101.042 254.01 95.8458 254.422C94.3358 254.544 92.8512 255.107 91.3921 255.59C87.0502 257.032 82.4287 256.499 78.0258 257.495C77.2734 257.662 76.4142 257.566 75.7482 257.891C72.2604 259.572 68.4931 259.344 64.802 259.608C61.8583 259.821 58.9044 259.882 55.9556 259.973C50.18 260.146 45.284 262.513 41.0286 266.196C37.246 269.467 33.1837 271.346 28.0335 270.488C25.7609 270.107 23.3917 270.122 21.236 271.28C20.0768 271.9 19.9193 272.819 20.9767 273.551C22.2224 274.409 23.529 275.547 24.9271 275.75C28.1606 276.217 30.4892 278.148 32.9194 279.941C37.3172 283.197 42.203 285.462 47.4651 286.747C51.8019 287.804 56.2657 288.372 60.6787 289.078C64.2224 289.647 67.4305 288.113 70.7454 287.316C71.8944 287.037 73.0434 286.727 74.2026 286.513C75.0618 286.356 75.9871 286.473 76.8108 286.224C86.0791 283.481 95.617 281.576 104.438 277.406C105.506 276.898 106.756 276.781 108.022 276.451C108.012 276.888 108.124 277.299 107.966 277.487C105.551 280.347 103.279 283.359 100.62 285.98C97.8032 288.753 94.6815 291.217 91.5852 293.68C89.6126 295.25 87.5789 296.88 85.3114 297.886C83.6387 298.633 81.4475 298.882 79.6477 298.531C76.2515 297.871 73.3078 299.085 70.3336 300.096C67.6644 301.005 64.8935 301.767 62.6006 303.672C61.7566 304.367 60.3229 304.418 59.1332 304.632C56.3268 305.124 53.9525 306.359 51.9595 308.411C51.1206 309.274 50.0072 309.858 49.1632 310.707C47.2922 312.591 45.8992 314.735 44.6739 317.163C41.3997 323.649 37.7442 329.953 34.104 336.246C32.7211 338.633 32.5177 340.924 33.4481 343.464C34.2921 345.755 35.1411 348.091 33.5549 350.27C34.4802 351.398 35.375 351.454 35.9953 350.61C37.0477 349.178 38.5374 348.65 40.0626 347.954C43.53 346.369 46.3059 343.728 48.7056 340.888C51.7307 337.307 55.4624 335.443 59.9263 334.463C62.4785 333.904 65.0461 333.02 67.3492 331.807C69.0117 330.928 70.3387 329.338 71.6605 327.921C73.6179 325.828 75.4634 323.634 77.2988 321.439C80.0138 318.189 81.0662 314.171 81.9661 310.209C82.6728 307.09 84.3556 304.545 85.8046 301.838C86.0334 301.416 86.6435 301.188 87.101 300.908C87.4773 300.68 88.0772 300.614 88.2551 300.294C90.7413 295.9 95.8356 294.554 99.0538 291.029C99.908 290.084 100.91 289.271 102.292 287.981C102.211 289.297 102.338 290.079 102.089 290.724C101.306 292.761 100.421 294.767 99.5013 296.753C96.9287 302.32 94.3154 307.872 91.7225 313.439C91.448 314.023 91.1226 314.623 91.026 315.248C90.2837 320.048 88.2297 324.431 86.7553 328.998C85.5504 332.751 84.7216 336.622 83.6947 340.436C83.415 341.483 83.2015 342.544 81.8644 342.966C81.2339 343.169 80.6289 343.865 80.2934 344.495C77.4056 349.879 72.6824 352.876 67.095 354.75C64.502 355.619 61.8278 356.249 59.2704 357.204C56.3827 358.285 53.6627 359.814 51.507 362.024C49.6004 363.98 47.8311 366.133 46.3313 368.419C43.8452 372.208 39.9711 374.006 36.1834 375.916C34.6328 376.698 32.8126 376.932 31.1552 377.516C30.2248 377.841 29.1927 378.192 28.5013 378.837C25.3999 381.742 23.046 385.227 22.0444 389.346C21.5665 391.302 21.0276 393.074 19.8175 394.679C17.1687 398.194 14.5453 401.735 11.9982 405.326C11.5457 405.961 11.144 407.038 11.3881 407.637C11.5914 408.125 12.7811 408.287 13.559 408.435C17.0874 409.105 20.2039 407.424 23.4832 406.652C25.827 406.098 28.1911 405.615 30.5298 405.047C34.5005 404.076 37.6019 401.664 40.5558 398.982C44.2519 395.624 48.1921 392.734 53.2509 391.622C56.5606 390.895 59.8857 390.032 63.0124 388.757C67.1966 387.055 70.2827 383.789 73.1146 380.371C76.5006 376.297 79.1189 371.167 80.9136 365.783C81.2441 364.797 81.8186 363.888 82.7948 363.091C82.1338 367.393 81.3763 371.685 80.8374 376.002C80.273 380.528 78.9003 384.876 78.1886 389.366C77.9242 391.053 78.1682 392.765 78.0258 394.354C77.8835 395.914 77.6801 397.585 77.3598 399.144C76.7447 402.126 77.009 405.026 77.0294 407.988C77.0548 412.386 78.1682 416.526 79.7596 420.488C80.756 422.987 82.2304 425.603 84.2133 427.34C88.911 431.444 93.3952 435.965 99.5572 438.053C101.53 438.713 101.825 439.587 101.459 441.608C100.925 444.569 99.9741 447.556 100.081 450.502C100.223 454.373 100.127 458.396 103.609 461.535C106.177 463.846 107.595 467.132 108.851 470.505C110.229 474.213 112.486 477.601 114.505 481.05C115.857 483.361 117.352 485.606 118.999 487.714C119.68 488.588 120.916 489.035 122.243 489.898C122.665 488.735 123.107 487.978 123.209 487.181C123.651 483.574 124.159 479.963 124.322 476.341C124.393 474.65 124.042 472.781 123.336 471.247C122.06 468.468 120.509 465.786 118.816 463.236C116.009 459.02 114.383 454.424 113.661 449.461C113.147 445.89 111.078 443.107 108.632 440.745C105.953 438.159 105.46 435.437 106.665 432.074C108.292 427.538 110.275 423.048 111.185 418.36C112.252 412.884 112.481 407.348 109.863 401.872C107.072 396.036 105.495 389.697 104.855 383.205C104.494 379.533 103.797 376.15 101.057 373.295C97.3354 369.425 93.9341 365.249 90.4159 361.191C87.8586 358.245 85.7538 355.228 85.7385 350.961C85.7232 347.187 85.8402 343.464 87.2993 340.02C87.7874 338.867 89.6329 338.283 90.8582 337.44C90.4261 337.109 89.9888 336.784 89.5567 336.459C90.0397 338.994 90.36 341.569 91.0514 344.048C91.8039 346.735 92.7444 349.254 94.8493 351.464C97.5286 354.278 99.6894 357.529 100.945 361.465C102.75 367.114 103.782 372.96 105.734 378.537C106.833 381.676 107.768 384.907 110.346 387.35C112.298 389.199 114.154 391.21 115.735 393.374C117.718 396.086 120.428 397.829 123.381 398.89C126.437 399.993 129.777 400.567 133.031 400.79C135.71 400.973 138.461 399.957 141.151 400.084C145.055 400.272 148.96 400.887 152.824 401.547C155.503 402.009 158.111 402.883 160.765 403.513C162.484 403.924 164.172 404.33 165.809 402.979C166.5 402.41 167.644 402.39 168.615 402.116C168.452 400.653 167.634 400.196 166.378 399.571C162.738 397.747 159.382 395.375 155.783 393.455C151.659 391.251 148.182 388.315 145.086 384.881C143.077 382.651 141.827 380.076 140.993 377.125C139.824 373.006 138.034 369.069 136.615 365.016C135.929 363.065 135.324 361.054 134.948 359.017C134.348 355.746 133.006 352.957 130.494 350.722C128.577 349.016 126.564 348.274 123.92 349.005C121.958 349.549 119.924 349.127 118.465 347.461C114.708 343.169 109.664 340.543 105.14 337.267C103.818 336.307 101.825 336.215 100.106 335.865C98.8302 335.606 97.4981 335.626 96.2118 335.408C94.7323 335.154 93.141 335.179 92.5309 333.188C92.3733 332.67 91.0056 332.518 90.3752 332.269C92.4038 326.194 94.2239 320.804 95.9881 315.4C96.5321 313.734 96.7762 311.961 97.4066 310.331C99.2267 305.622 101.22 300.974 103.06 296.271C103.975 293.919 104.601 291.456 105.541 289.119C106.141 287.621 106.736 285.792 107.921 284.913C111.337 282.379 114.327 279.59 116.035 275.588C122.609 274.612 129.427 274.887 135.35 270.635C135.095 275.257 137.256 279.047 139.249 282.826C140.398 285.005 142.162 286.859 143.616 288.885C145.431 291.405 145.874 294.386 146.204 297.343C146.433 299.405 146.372 301.508 146.367 303.585C146.362 306.536 145.986 309.523 146.331 312.423C146.611 314.745 147.648 317 148.512 319.225C149.529 321.851 150.699 324.416 151.842 326.996C152.153 327.687 152.524 328.393 153.007 328.962C155.051 331.349 155.945 334.194 156.855 337.14C157.318 338.633 157.374 341.122 160.023 341.183C162.092 345.755 167.237 346.562 170.486 349.711C172.83 351.992 175.331 354.039 176.755 357.153C177.502 358.778 178.946 360.084 180.248 361.76C182.002 362.176 182.429 360.526 182.734 359.261C183.064 357.915 183.186 356.355 182.84 355.04C182.093 352.185 182.235 349.412 182.52 346.532C182.988 341.716 182.851 336.835 183.517 332.055C184.02 328.439 184.554 324.888 184.249 321.231C184.056 318.996 183.542 316.929 182.317 314.978C180.705 312.413 179.688 309.396 177.766 307.11C174.772 303.545 173.145 299.268 170.827 295.367C168.9 292.116 166.098 289.917 162.784 288.891C159.225 287.788 156.469 285.762 153.932 283.364C151.1 280.692 148.243 278.33 144.486 276.934C142.788 276.304 141.334 274.81 139.488 274.074C138.786 273.8 138.314 272.53 138.075 271.626C137.383 268.994 136.88 266.318 136.275 263.666C135.273 259.278 134.19 254.909 133.29 250.5C133.057 249.363 133.082 247.991 133.504 246.929C135.888 240.941 137.043 234.658 138.502 228.425C139.32 224.925 140.952 221.583 142.457 218.282C143.662 215.63 144.537 213.009 144.094 210.068C144.054 209.789 144.293 209.474 144.506 208.88C145.65 210.251 146.758 211.399 147.648 212.694C150.561 216.93 153.286 221.263 156.835 225.078C158.625 227.003 159.377 229.878 160.745 232.235C162.565 235.359 164.563 238.376 166.414 241.484C167.537 243.379 168.574 245.329 169.551 247.3C171.762 251.765 174.696 255.661 178.377 259.029C179.205 259.785 179.526 261.091 180.334 261.888C184.823 266.328 189.445 270.635 193.904 275.11C195.683 276.893 197.762 278.219 199.74 279.712C201.021 280.682 201.987 282.059 203.228 283.095C206.599 285.909 210.386 288.332 213.33 291.532C215.094 293.452 218.14 294.976 217.758 298.419C220.117 302.397 221.027 306.831 222.136 311.255C222.604 313.145 221.871 314.663 221.922 316.37C222.054 320.672 222.039 324.99 221.892 329.297C221.734 333.986 221.246 338.664 221.155 343.352C221.114 345.404 221.856 347.461 221.973 349.534C222.1 351.682 222.065 353.871 221.79 356.01C221.561 357.833 220.743 359.576 220.468 361.399C220.128 363.665 219.06 365.315 217.565 367.068C213.218 372.168 209.176 377.521 205.068 382.824C204.407 383.677 203.833 384.698 203.548 385.73C202.47 389.646 199.949 392.739 197.859 396.081C196.929 397.575 195.927 399.048 195.175 400.627C193.634 403.863 194.971 406.84 196.151 409.847C196.832 411.569 197.468 413.356 197.752 415.175C198.357 419.086 198.927 423.028 199.135 426.974C199.354 431.109 199.023 435.264 199.135 439.404C199.191 441.339 199.74 443.254 200.04 445.179C200.147 445.86 200.193 446.55 200.233 447.236C200.35 449.471 200.32 451.721 200.62 453.926C200.732 454.733 201.631 455.424 202.313 456.369C206.06 452.961 210.122 450.868 214.311 448.892C217.24 447.505 219.802 445.336 222.456 443.411C223.036 442.995 223.3 442.147 223.712 441.496C225.293 438.987 226.976 436.534 228.42 433.938C229.376 432.216 230.342 430.362 230.657 428.458C231.211 425.105 231.582 421.661 231.455 418.284C231.277 413.6 231.531 409.029 232.929 404.559C234.821 398.52 235.146 392.221 235.614 386.009C235.863 382.728 234.597 379.335 234.058 375.987C233.199 370.618 229.737 366.382 227.835 361.475C226.579 358.23 225.756 354.811 224.876 351.438C222.644 342.925 224.032 334.321 224.307 325.752C224.408 322.725 224.48 319.697 225.135 316.573C225.359 317.564 225.684 318.539 225.791 319.545C226.361 325.015 228.679 329.841 231.033 334.712C232.751 338.262 234.048 342.026 235.426 345.734C236.229 347.898 237.058 350.092 237.444 352.348C237.825 354.578 237.714 356.899 237.729 359.174C237.759 363.324 237.668 367.479 237.734 371.624C237.785 374.707 237.581 377.74 237.317 380.813C236.981 384.759 236.224 389.011 239.127 392.587C241.389 395.38 243.428 398.362 245.848 401.008C247.572 402.888 248.441 405.148 249.041 407.388C249.738 409.989 251.349 411.756 253.312 413.021C257.191 415.52 261.345 417.603 265.397 419.833C265.763 420.036 266.225 420.071 266.642 420.188C268.188 419.066 268.269 417.633 267.883 416.033C266.358 409.72 266.983 403.325 267.095 396.94C267.146 393.867 267.405 390.728 266.891 387.731C266.561 385.821 265.315 383.794 263.897 382.418C262.295 380.853 261.985 379.411 261.96 377.267C261.909 372.675 261.828 368.033 260.058 363.624C258.828 360.561 258.04 357.325 256.85 354.242C255.625 351.063 253.688 348.594 250.17 347.41C246.951 346.323 243.901 344.718 240.815 343.255C238.898 342.336 237.393 341.036 236.417 338.979C235.243 336.52 233.158 334.417 232.35 331.878C231.18 328.226 229.065 324.924 228.71 320.947C228.354 317.046 227.439 313.19 226.813 309.31C226.676 308.456 226.712 307.573 226.645 306.232C229.06 310.209 231.775 313.287 234.744 316.248C236.127 317.625 237.124 319.626 238.735 320.906C241.954 323.461 245.345 325.803 248.568 328.347C250.729 330.059 252.661 332.055 254.801 333.782C260.318 338.232 264.456 343.972 269.286 349.061C272.86 352.82 275.077 357.417 276.073 362.451C276.551 364.853 276.073 367.444 276.104 369.948C276.139 373.229 276.256 376.505 276.323 379.787C276.353 381.214 276.394 382.646 276.343 384.074C276.256 386.359 276.089 388.579 277.105 390.809C279.175 395.345 278.031 399.81 276.358 404.198C275.738 405.829 275.102 407.464 274.66 409.146C273.791 412.442 272.753 415.734 272.357 419.091C272.021 421.956 272.306 424.932 272.631 427.828C272.896 430.215 273.623 432.552 274.152 434.908C274.294 435.538 274.34 436.244 274.65 436.788C276.155 439.465 277.492 442.289 279.368 444.686C281.371 447.246 282.693 449.994 283.898 452.981C285.571 457.131 287.874 461.032 289.907 465.034C290.009 465.233 290.07 465.527 290.228 465.598C294.305 467.356 295.734 471.932 299.359 474.147C300.594 474.904 300.787 477.078 302.989 476.646C303.64 474.68 302.846 472.826 302.236 471.003C300.437 465.634 299.908 460.351 302.231 454.926C304.585 449.43 305.622 443.518 306.248 437.636C306.787 432.557 305.363 427.533 303.924 422.657C302.867 419.071 301.357 415.622 300.142 412.082C299.399 409.918 298.932 407.652 298.159 405.504C296.456 400.76 294.087 396.513 289.638 393.659C286.104 391.393 282.876 388.731 280.492 385.161C279.546 383.749 278.931 382.469 278.956 380.625C279.002 377.862 279.287 375.164 279.571 372.427C279.876 369.46 279.465 366.372 279.043 363.385C278.499 359.545 277.629 355.756 276.76 351.19C278.509 352.734 279.917 353.755 281.061 355.019C284.915 359.286 289.175 362.923 294.219 365.849C300.945 369.755 307.539 373.996 313.208 379.39C315.592 381.656 317.387 384.531 319.472 387.111C321.668 389.834 323.88 392.551 326.111 395.253C329.406 399.236 332.782 403.142 336.885 406.342C341.354 409.831 346.372 412.209 351.802 413.854C356.515 415.287 361.101 417.12 365.803 418.588C368.534 419.442 371.35 420.173 374.177 420.483C376.068 420.691 378.061 420.107 379.993 419.792C381.951 419.467 383.883 418.984 385.845 418.67C387.233 418.441 388.418 418.035 388.997 416.612C389.119 416.313 389.282 415.937 389.536 415.795C391.91 414.449 392.358 412.249 391.849 409.918C391.26 407.215 392.424 405.24 394 403.304C393.268 401.141 391.768 399.698 389.953 398.641C385.85 396.254 381.681 393.984 377.543 391.672C376.19 390.916 374.751 390.286 373.501 389.392C369.952 386.847 366.164 385.013 361.838 384.043C359.672 383.561 357.608 382.199 355.742 380.884C350.541 377.216 344.75 375.921 338.527 376.328C331.567 376.79 324.708 375.921 317.794 375.332C313.34 374.956 310.132 373.051 306.838 370.618C305.175 369.394 303.284 368.475 301.586 367.291C297.513 364.467 293.492 361.567 289.45 358.692C289.18 358.499 288.916 358.301 288.662 358.087C285.982 355.822 283.171 353.684 280.659 351.24C278.382 349.021 276.145 346.755 274.04 344.327C271.61 341.518 268.615 339.146 265.641 336.871C262.585 334.534 259.189 332.645 256.077 330.379C248.807 325.081 241.049 320.363 235.416 313.109C235.365 313.038 235.395 312.906 235.365 312.449C236.783 312.708 238.202 312.759 239.452 313.236C243.754 314.897 248.192 315.176 252.742 315.161C256.357 315.151 259.906 315.903 263.292 317.3C264.7 317.879 266.19 318.488 267.679 318.6C273.13 319.017 277.35 321.709 281.361 325.152C284.345 327.712 287.736 329.795 290.843 332.228C296.979 337.028 302.989 341.986 309.146 346.755C312.156 349.087 315.333 351.21 318.521 353.298C319.782 354.125 321.215 354.76 322.659 355.212C326.183 356.325 329.711 357.534 333.326 358.225C336.417 358.819 339.691 359.225 342.782 358.865C347.078 358.357 351.319 358.514 355.589 358.636C356.433 358.661 357.257 359.068 358.096 359.276C362.397 360.332 366.403 362.451 370.943 362.689C371.777 362.735 372.723 363.456 373.353 364.117C374.777 365.62 375.743 367.799 377.431 368.78C381.112 370.903 383.872 375.169 389.429 373.823C389.333 373.173 389.429 372.046 388.982 371.202C386.008 365.559 382.423 360.363 377.68 356.015C376.811 355.218 376.089 354.191 375.504 353.16C373.272 349.239 371.142 345.287 369.972 340.853C369.103 337.526 366.332 335.337 363.815 333.376C361.101 331.263 357.877 329.577 354.613 328.444C351.003 327.184 347.826 325.092 344.257 323.827C340.962 322.658 337.795 320.815 334.414 320.322C328.877 319.519 323.219 319.372 317.677 320.921C314.921 321.688 312.196 322.303 309.232 321.414C305.053 320.17 300.792 321.231 296.862 322.45C292.632 323.756 288.819 322.526 284.803 322.105C281.412 321.749 279.037 319.535 276.16 318.265C271.447 316.182 266.785 313.983 261.462 313.79C259.286 313.714 257.227 313.053 255.198 311.956C252.153 310.31 249 308.827 245.426 308.314C241.333 307.72 237.815 305.475 234.236 303.504C233.29 302.986 232.177 302.651 231.409 301.945C229.665 300.355 228.089 298.577 226.447 296.875C226.579 296.677 226.706 296.479 226.839 296.276C228.181 296.698 229.543 297.089 230.88 297.546C234.18 298.673 237.414 300.075 240.789 300.903C243.281 301.513 245.991 301.757 248.543 301.518C255.249 300.898 261.985 300.649 268.63 299.09C271.976 298.303 275.697 297.703 279.236 299.141C280.024 299.456 281.051 299.725 281.808 299.491C284.737 298.597 287.457 299.471 290.223 300.152C290.97 300.334 291.763 300.751 292.46 300.634C298.393 299.628 304.509 299.603 310.198 297.322C310.803 297.079 311.52 296.804 311.886 296.317C314.616 292.71 319.167 291.826 322.527 289.119C324.23 287.748 326.666 287.194 328.847 286.513C332.726 285.304 334.826 282.465 336.554 279.047C338.324 275.547 340.566 272.276 342.198 268.72C343.189 266.566 343.814 264.083 343.896 261.716C344.043 257.779 343.657 253.817 343.408 249.87C343.367 249.21 342.915 248.57 342.65 247.925C341.923 248.265 340.922 248.408 340.505 248.976C338.176 252.171 335.126 254.086 331.231 254.737C329.162 255.082 327.108 255.534 325.039 255.9C318.76 256.997 315.079 261.228 312.283 266.48C311.037 268.812 309.985 271.245 308.78 273.601C307.529 276.055 305.19 277.411 303.055 278.92C301.255 280.189 299.282 281.221 297.422 282.409C294.422 284.319 292.226 287.031 290.111 289.825C289.109 291.146 288.016 292.395 287.02 293.716C285.474 295.758 283.654 296.2 280.99 296.027C275.509 295.677 269.947 295.885 264.573 297.363C262.473 297.937 260.475 298.587 258.253 297.856C257.349 297.561 256.271 297.729 255.274 297.785C251.761 297.983 248.36 297.708 245.096 296.164C243.733 295.519 242.096 295.479 240.662 294.94C236.28 293.299 231.933 291.552 227.581 289.835C227.174 289.673 226.808 289.236 226.427 289.231C221.526 289.17 219.075 285.665 216.192 282.455C213.061 278.97 209.369 275.999 206.004 272.718C204.514 271.27 203.192 269.65 201.845 268.065C200.808 266.851 199.857 265.571 198.927 264.387C202.257 264.601 205.47 264.718 208.663 265.033C212.476 265.403 216.269 265.942 220.077 266.414C220.834 266.506 221.597 266.561 222.344 266.709C224.698 267.161 227.017 267.445 229.116 268.974C232.406 271.372 235.98 273.383 239.432 275.557C239.808 275.791 240.164 276.162 240.571 276.228C246.484 277.188 252.092 280.129 258.345 278.955C260.79 278.493 263.053 277.213 265.651 277.436C268.391 277.675 271.137 277.772 273.872 278.015C277.299 278.32 280.492 280.002 284.025 279.743C286.577 279.555 289.14 279.169 291.611 278.727C293.065 278.462 294.305 276.304 295.383 274.81C296.374 273.449 297.498 272.484 299.038 271.788C301.662 270.61 303.228 268.233 304.529 265.866C306.451 262.356 309.385 259.953 312.7 257.444C312.42 256.778 312.105 256.042 311.789 255.3C307.448 256.398 303.319 256.987 299.14 255.956C297.223 255.483 295.215 255.163 293.461 254.325C290.609 252.969 287.553 252.578 284.549 252.293C281.849 252.034 278.839 251.968 276.384 252.908C271.523 254.772 267.329 253.299 263.017 251.557C262.102 251.186 261.273 250.592 260.353 250.246C253.871 247.798 247.79 248.382 242.462 253.02C240.073 255.102 237.968 257.51 235.741 259.775C232.335 263.25 228.532 265.403 223.381 264.189C220.931 263.61 218.348 263.62 215.852 263.214C212.288 262.63 208.8 261.817 205.378 260.522C201.072 258.892 196.552 257.84 192.18 256.382C190.762 255.91 189.302 255.163 188.23 254.152C184.147 250.292 180.08 246.401 176.262 242.287C171.976 237.665 168.463 232.529 166.297 226.48C164.573 221.649 162.672 216.803 160.135 212.374C158.096 208.808 154.969 205.867 152.356 202.627C151.324 201.342 150.424 199.96 149.402 198.665C147.084 195.734 144.628 192.961 141.954 190.309C138.212 186.591 135.192 182.167 131.648 178.235C129.116 175.432 127.428 172.105 125.654 168.9C123.809 165.562 122.898 161.712 121.516 158.106C119.233 152.127 116.645 146.271 112.801 141.105C110.32 137.768 107.412 134.74 104.967 131.378C103.238 128.991 101.916 126.293 100.503 123.688C98.82 120.589 97.2287 117.44 95.6068 114.306C95.2662 113.646 94.9662 112.955 94.4527 111.863C97.5337 112.772 100.172 113.696 102.882 114.291C104.321 114.606 105.887 114.352 107.392 114.331C107.809 114.326 108.231 114.148 108.632 114.199C115.491 114.992 122.441 115.383 129.177 116.78C133.036 117.582 136.829 118.994 140.784 118.949C146.265 118.883 151.802 118.715 157.211 117.887C161.96 117.161 165.529 117.902 168.412 122.017C171.421 126.319 174.96 130.255 178.061 134.502C179.378 136.315 180.309 138.459 181.168 140.551C182.332 143.401 183.049 146.449 184.345 149.232C185.952 152.676 185.555 156.358 186.155 159.919C186.369 161.189 186.445 162.692 187.182 163.622C189.002 165.928 190.573 168.392 192.871 170.418C194.951 172.252 195.795 175.249 196.278 178.2C197.086 183.132 195.83 187.841 195.134 192.62C195.022 193.382 194.778 194.124 194.732 194.886C194.58 197.685 194.656 200.377 197.315 202.281C198.647 203.236 199.598 204.73 200.95 205.634C206.212 209.144 208.607 214.025 208.978 220.273C209.141 222.96 210.071 225.677 211.083 228.212C212.227 231.061 216.925 231.574 219.299 229.065C221.47 226.785 223.829 224.565 224.469 221.172C224.769 219.582 225.618 218.094 226.208 216.565C228.598 210.363 230.23 203.958 230.799 197.344C231.206 192.61 230.225 187.927 229.396 183.274C229.279 182.644 228.974 181.984 228.577 181.476C225.268 177.281 223.041 172.521 220.89 167.675C218.17 161.539 213.945 156.546 208.571 152.498C204.545 149.466 199.776 148.445 195.022 147.475C192.175 146.896 189.384 146.403 187.035 144.503C186.476 144.051 185.611 143.975 184.661 143.645C183.293 136.793 178.814 131.444 174.696 125.892C174.05 125.018 173.353 124.175 172.326 122.87C173.475 123.012 174.172 122.997 174.802 123.19C180.1 124.805 185.469 125.836 191.046 125.872C194.204 125.897 197.361 126.344 200.518 126.634C200.818 126.659 201.128 126.888 201.382 127.086C203.762 128.919 206.629 130.138 208.332 132.826C210.219 135.802 212.1 138.799 214.199 141.633C216.421 144.63 218.851 147.485 221.282 150.324C225.395 155.129 229.498 159.944 233.778 164.602C235.233 166.182 237.159 167.35 238.944 168.6C243.55 171.83 248.741 173.512 254.242 174.578C258.243 175.35 262.112 176.783 266.068 177.814C272.52 179.505 278.997 179.617 285.443 177.789C286.928 177.367 288.408 176.864 289.089 175.208C289.745 173.613 288.982 170.18 287.197 168.905C284.859 167.249 284.061 165.156 284.3 162.423C284.442 160.813 283.776 159.584 282.576 158.35C279.459 155.155 275.636 153.209 271.538 151.868C268.788 150.969 266.424 149.567 263.953 148.145C259.87 145.788 256.652 142.354 252.763 139.8C252.539 139.652 252.483 139.256 252.168 138.586C255.62 138.337 258.818 137.727 262.062 138.459C264.537 139.017 266.973 139.779 269.454 140.292C272.352 140.887 275.29 141.283 278.199 141.821C279.587 142.08 281.005 142.324 282.327 142.807C285.021 143.792 287.726 144.498 290.578 145.021C293.939 145.646 297.112 147.327 300.365 148.551C301.179 148.856 301.967 149.379 302.801 149.45C305.246 149.669 306.288 151.868 308.073 152.996C308.373 153.184 308.51 153.763 308.551 154.179C309.232 160.259 311.428 165.882 313.92 171.378C316.101 176.199 319.263 180.252 323.59 183.528C326.737 185.905 329.706 188.521 333.341 190.081C334.988 190.787 336.931 190.873 338.756 191.061C341.364 191.33 344.175 190.812 346.316 192.808C347.572 193.982 348.588 195.399 349.707 196.714C350.988 198.223 351.98 200.285 353.601 201.123C356.754 202.749 359.718 205.045 363.566 205.075C366.256 205.095 368.783 205.791 371.121 207.239C371.915 207.727 373.028 207.666 373.963 207.95C376.826 208.808 379.18 210.52 381.529 212.303C382.657 213.162 384.116 213.583 385.616 214.289C386.475 211.694 385.952 209.601 385.184 207.747C383.466 203.597 381.402 199.589 379.531 195.5C377.527 191.107 375.636 186.662 373.582 182.294C373.043 181.141 372.164 180.135 371.335 179.15C370.582 178.256 369.718 177.443 368.849 176.656C367.974 175.868 367.135 174.919 366.093 174.456C363.932 173.501 360.846 170.434 360.358 168.133C358.899 161.265 354.008 158.192 347.755 156.617C346.926 156.409 345.975 156.724 345.141 156.536C342.925 156.038 340.606 155.693 338.573 154.758C332.797 152.107 326.9 150.451 320.478 150.035C314.149 149.623 307.804 148.871 301.875 146.027C297.249 143.802 292.368 142.075 287.538 140.292C286.359 139.855 284.94 140.043 283.623 139.987C280.41 139.85 277.258 139.322 274.411 137.824C272.718 136.935 271.147 136.102 269.159 136.437C268.706 136.513 268.188 136.183 267.156 135.878C272.992 134.187 278.336 133.633 283.781 133.201C287.904 132.876 291.748 133.41 295.602 134.395C297.376 134.842 299.018 135.868 300.65 136.762C303.792 138.484 307.382 138.581 310.717 139.612C313.864 140.582 317.25 140.805 320.382 141.821C325.873 143.609 331.201 142.802 336.661 141.775C339.096 141.318 341.705 141.72 344.226 141.821C347.48 141.948 350.729 142.385 353.973 142.314C359.392 142.197 364.842 141.989 370.13 139.637C369.891 138.398 369.672 137.245 369.449 136.086C366.515 134.984 363.592 134.014 360.78 132.795C357.994 131.591 355.188 130.474 352.31 129.514C351.746 129.326 351.268 128.767 350.82 128.305C349.183 126.603 347.658 124.79 345.94 123.18C343.362 120.767 340.062 119.705 336.727 118.898C333.331 118.085 329.894 117.313 326.432 116.917C321.195 116.317 316.106 116.902 311.612 120.056C308.236 122.418 304.687 124.521 301.331 126.928C299.069 128.549 296.191 129.331 293.558 130.408C292.983 130.641 292.261 130.657 291.631 130.585C285.565 129.966 279.556 130.54 273.587 131.495C270.984 131.911 268.401 132.561 265.885 133.349C262.682 134.349 259.484 135.035 256.128 134.466C255.066 134.283 253.988 134.111 252.976 133.76C249.412 132.511 245.833 131.739 241.984 131.81C238.72 131.876 235.436 131.286 232.162 130.987C232.121 130.748 232.075 130.514 232.035 130.281C232.843 129.991 233.697 129.366 234.444 129.473C236.763 129.803 238.634 128.691 240.291 127.578C245.467 124.079 251.242 122.113 257.028 119.939C263.932 117.349 270.949 117.242 278.077 117.09C281.783 117.013 285.56 117.394 289.053 115.362C290.294 114.641 292.017 114.656 293.537 114.514C297.686 114.138 301.84 113.823 306.004 113.575C306.736 113.529 307.493 114.047 308.236 114.022C309.985 113.955 311.734 113.757 313.472 113.534C314.23 113.437 314.998 112.879 315.694 112.975C318.933 113.417 321.749 112.046 324.683 111.121C326.249 110.628 327.591 109.867 329.02 108.998C334.958 105.376 340.744 101.318 347.694 99.723C350.292 99.1287 352.976 98.9102 355.569 98.2956C356.433 98.0925 357.14 97.2036 357.842 96.6855C356.296 93.8817 354.039 93.3331 351.553 92.8404C347.246 91.982 342.95 91.2353 338.598 90.6105C333.56 89.8892 329.721 92.0074 325.547 93.6683C320.122 95.822 314.698 97.102 308.668 96.8988C302.17 96.6753 295.444 96.9496 289.44 100.312C284.178 100.51 281.086 104.396 277.492 107.388C275.819 108.78 274.37 110.43 272.759 111.903C270.796 113.691 268.254 114.118 265.788 114.748C260.658 116.058 255.533 117.394 250.439 118.837C249.305 119.157 248.207 119.837 247.272 120.579C244.506 122.778 240.652 123.017 238.156 125.684C238.008 125.841 237.81 125.989 237.607 126.039C232.665 127.345 227.932 129.488 222.507 128.107C217.87 126.933 213.015 126.634 208.327 125.608C204.906 124.856 201.443 123.901 198.291 122.418C193.319 120.066 188.397 117.628 183.034 116.333C177.375 114.971 171.671 113.762 165.971 112.574C162.199 111.787 158.411 111.015 154.593 110.501C152.437 110.212 150.205 110.537 148.009 110.441C144.73 110.303 141.435 110.187 138.186 109.795C133.967 109.282 129.782 108.521 125.583 107.835C120.016 106.926 114.413 106.794 108.78 106.895C102.562 107.002 96.4508 106.027 90.5583 104.117C89.0432 103.624 87.5688 102.217 86.6231 100.851C81.8186 93.8969 77.4208 86.6536 72.4435 79.8269C67.9135 73.6046 62.8192 67.7887 57.9842 61.7848C56.3928 59.8089 54.9235 57.7264 53.2559 55.8114C50.2919 52.4133 47.2973 49.0406 44.1859 45.7745C37.9374 39.217 32.5787 31.9636 27.5302 24.4867C26.0863 22.3432 25.3033 19.7679 24.1391 17.4314C21.175 11.4834 17.4382 6.06876 12.8065 1.27887C11.9117 0.354401 11.0271 -0.35675 9.49673 0.191833C9.42557 1.86298 10.5797 3.04138 11.566 4.01663C15.796 8.20206 18.76 13.2815 21.3174 18.493C24.2509 24.4714 27.7691 30.0283 31.5721 35.443C33.0668 37.5763 34.6429 39.6487 36.0563 41.843C30.9061 38.8766 27.0675 34.5897 23.6357 29.8963C22.3444 28.1286 21.2614 26.2036 20.0209 24.4004C19.2939 23.354 18.8821 21.881 17.1687 21.9673L17.2297 21.9267ZM118.038 157.405C119.894 158.451 119.263 160.458 119.38 162.144C118.953 160.539 118.526 158.934 118.094 157.334C116.716 156.617 116.528 155.307 116.813 153.829C117.219 155.017 117.626 156.211 118.038 157.405ZM221.561 295.514C219.817 295.468 218.648 294.386 217.916 292.075C220.016 292.36 220.331 294.417 221.526 295.529C222.049 296.474 222.578 297.419 223.29 298.714C221.429 297.993 221.078 296.962 221.561 295.514ZM131.14 236.136C131.104 235.287 130.448 234.327 131.969 233.2C131.714 234.561 132.248 235.516 131.064 236.09C131.791 239.397 131.572 240.067 128.867 241.896C129.711 239.768 130.423 237.949 131.14 236.136ZM143.83 196.476C146.774 197.38 147.282 200.107 148.309 202.444C148.807 202.764 149.448 202.977 149.783 203.419C150.902 204.892 151.665 206.731 153.012 207.925C156.332 210.866 158.208 214.69 160.155 218.5C160.785 219.739 161.218 221.075 161.741 222.365C161.533 222.492 161.314 222.614 161.101 222.736C159.814 220.974 158.528 219.206 157.242 217.438C157.766 219.541 158.879 221.309 159.758 223.178C160.73 225.23 161.487 227.379 162.341 229.482C164.263 230.63 164.471 232.814 165.437 234.536C164.192 232.966 162.392 231.722 162.402 229.411C161.934 229.04 161.34 228.75 161.03 228.283C158.137 223.905 155.229 219.536 152.453 215.087C149.794 210.84 145.736 207.457 144.699 202.215C143.347 202.149 142.701 202.744 142.554 203.887C142.208 206.609 141.949 209.347 141.557 212.059C141.303 213.817 140.871 215.544 140.52 217.281C140.251 217.23 139.981 217.179 139.712 217.129C140.622 210.729 141.537 204.334 142.528 197.405C144.308 199.681 145.925 201.438 147.185 203.419C148.96 206.198 150.454 209.154 152.097 212.014C153.068 213.7 154.425 215.041 156.276 216.87C156.037 215.61 156.083 214.995 155.813 214.594C154.237 212.237 152.498 209.982 150.993 207.579C149.966 205.939 149.229 204.11 148.365 202.363C146.224 200.864 145.03 198.65 143.881 196.405C142.366 195.465 140.622 194.744 140.256 192.651C142.096 193.296 143.291 194.571 143.83 196.476ZM90.7769 108.058C91.6463 107.52 92.0682 108.515 92.5614 108.597C93.3952 108.729 94.351 108.048 95.2712 107.764C95.4289 107.713 95.6627 107.982 95.8712 108.007C99.8571 108.51 103.858 109.481 107.834 109.374C114.113 109.201 120.311 109.277 126.518 110.669C124.556 112.102 122.649 112.711 120.402 112.579C116.457 112.355 112.496 111.776 108.571 111.944C103.935 112.147 99.6182 110.943 95.2102 110.004C94.3053 109.811 93.3596 109.79 92.5157 109.704C91.3565 113.219 93.7257 115.682 94.3764 118.74C91.5497 117.084 87.9603 111.726 87.3553 108.668C88.4992 108.449 89.6482 108.231 90.8074 107.992C89.3279 107.814 87.8484 107.637 86.2317 107.439C83.3388 103.4 80.3849 99.1134 78.5292 94.1915C80.6696 96.8226 82.4745 99.6772 84.4776 102.38C85.7944 104.157 86.8062 106.458 89.6787 106.397C90.0346 106.392 90.4108 107.479 90.7769 108.058ZM199.862 273.236L199.918 273.154C199.964 273.368 199.933 273.688 200.066 273.779C203.879 276.421 206.909 279.875 210.051 283.217C211.083 284.314 211.815 285.431 211.734 287.463C210.59 286.386 209.832 285.63 209.029 284.929C202.155 278.93 195.261 272.956 188.403 266.937C187.172 265.86 186.054 264.657 184.961 263.438C182.383 260.568 179.78 257.718 177.329 254.742C175.707 252.781 174.213 250.693 172.891 248.524C171.523 246.284 170.456 243.867 169.205 241.55C168.229 239.742 167.171 237.974 166.149 236.192C166.383 236.049 166.617 235.907 166.846 235.77C168.757 238.813 170.486 242.002 172.637 244.867C174.935 247.93 177.787 250.566 180.131 253.594C184.111 258.729 185.362 260.085 188.108 261.02C186.018 257.54 182.108 255.727 180.781 251.684C184.915 253.375 200.787 269.69 202.852 274.135C201.901 273.85 200.879 273.546 199.862 273.236ZM219.792 398.362C217.28 401.638 216.889 405.803 215.165 409.435C213.696 412.539 213.905 416.064 214.255 419.462C214.611 422.88 214.408 426.167 213.416 429.54C212.649 432.15 211.764 434.675 210.839 437.225C209.237 441.649 206.553 445.331 203.95 449.11C203.635 449.568 203.116 449.888 202.541 450.411C202.242 447.698 201.972 445.316 201.718 442.934C201.565 441.512 201.316 440.089 201.316 438.662C201.316 434.705 201.53 430.748 201.448 426.792C201.408 424.877 200.554 422.957 200.681 421.077C201.021 415.967 199.908 411.223 197.727 406.677C196.827 404.793 197.152 403.015 197.915 401.252C198.347 400.252 198.922 399.307 199.491 398.372C201.194 395.563 203.324 392.937 204.555 389.94C206.873 384.287 210.742 379.761 214.474 375.139C217.697 371.152 221.393 367.535 223.336 362.313C224.963 368.901 224.983 375.19 224.286 381.453C223.763 386.121 223 390.789 221.048 395.152C220.56 396.244 220.163 397.377 219.716 398.499C220.916 398.916 221.317 397.991 221.688 397.229C224.886 390.631 225.598 383.454 226.178 376.328C226.427 373.209 225.481 369.999 225.085 366.829C224.942 365.701 224.459 364.518 225.649 363.233C226.437 364.909 226.981 366.413 227.8 367.743C231.099 373.117 232.629 378.999 232.792 385.237C232.853 387.385 232.294 389.559 232.37 391.708C232.563 397.28 230.54 402.446 229.452 407.764C229.055 409.699 228.603 411.518 228.654 413.524C228.75 417.227 228.74 420.945 228.476 424.638C228.328 426.675 228.054 428.971 226.996 430.621C223.997 435.315 222.105 440.836 217.25 444.234C214.621 446.078 212.059 447.968 208.866 448.745C207.966 448.963 207.122 449.38 205.795 449.877C206.731 448.242 207.351 446.825 208.266 445.631C210.849 442.279 212.196 438.281 213.676 434.472C215.786 429.026 216.462 423.246 215.648 417.288C215.206 414.052 216.192 410.796 217.55 407.729C218.862 404.762 220.27 401.775 219.792 398.362ZM348.151 397.966C344.867 395.624 341.623 393.217 338.278 390.961C334.831 388.635 331.353 386.344 327.769 384.241C324.235 382.174 320.555 380.371 316.94 378.451C318.043 378.085 318.999 378.156 319.939 378.319C325.827 379.329 331.811 379.949 337.714 379.263C344.577 378.471 350.429 380.295 355.991 384.094C357.842 385.349 360.089 386.309 362.285 386.7C364.858 387.162 366.902 388.533 369.083 389.641C373.267 391.769 377.344 394.121 381.391 396.493C384.584 398.367 388.219 399.637 390.619 402.878C390.009 404.041 389.419 405.174 388.901 406.169C385.743 406.662 382.795 404.711 379.18 406.382C380.527 406.647 381.249 406.789 381.971 406.926C383.684 407.251 385.433 407.434 387.096 407.927C389.648 408.683 390.411 410.263 388.962 412.31C387.848 413.875 386.252 415.896 384.63 416.15C381.244 416.668 378.026 418.172 374.467 417.842C369.718 417.395 365.27 416.028 360.953 414.103C359.453 413.433 357.974 412.691 356.418 412.183C353.398 411.198 350.271 410.502 347.287 409.42C343.265 407.957 339.325 405.854 336.412 402.918C331.18 397.646 326.661 391.662 321.887 385.938C320.738 384.551 319.766 383.017 318.714 381.549C319.604 381.387 320.066 381.62 320.519 381.864C323.336 383.363 326.178 384.815 328.959 386.38C330.855 387.446 332.838 388.462 334.475 389.859C338.522 393.318 342.36 397.021 348.151 397.966ZM280.461 391.449C281.249 391.586 282.022 391.525 282.591 391.84C288.606 395.187 293.492 399.51 295.342 406.52C295.952 408.841 296.822 411.122 297.803 413.311C299.654 417.445 301.459 421.555 301.743 426.177C301.814 427.36 302.292 428.534 302.684 429.677C303.594 432.348 304.067 435.162 303.762 437.89C303.091 443.985 301.575 449.888 298.962 455.505C298.103 457.359 297.528 459.427 298.098 461.616C298.281 462.332 297.981 463.17 297.859 464.394C296.949 462.805 296.318 461.697 295.668 460.549C294.122 461.428 294.859 462.302 295.363 463.114C296.908 465.598 296.918 465.588 296.74 467.833C292.007 463.531 288.58 458.609 286.684 452.529C285.677 449.309 284.203 446.276 281.712 443.665C279.719 441.578 278.016 438.83 277.197 436.072C275.621 430.764 273.618 425.552 275.168 419.599C276.816 413.255 277.716 406.728 281.147 400.622C281.534 402.649 281.844 404.442 282.23 406.215C282.413 407.063 282.734 407.881 283.008 408.704C284.218 412.31 285.611 415.871 286.598 419.538C287.426 422.616 287.625 425.796 287.416 429.052C287.192 432.597 287.68 436.188 287.706 439.754C287.716 441.756 287.091 443.797 287.345 445.743C287.625 447.886 288.591 449.944 289.257 452.041C289.389 452.463 289.485 452.9 289.648 453.306C290.726 456.054 292.454 458.314 294.91 460.067C294.539 458.812 293.924 457.705 293.227 456.653C290.822 453.006 289.053 449.06 288.891 444.691C288.682 439.14 288.972 433.567 288.906 428.006C288.875 425.217 288.891 422.342 288.255 419.655C286.928 414.027 285.403 408.419 283.491 402.964C282.81 401.003 282.261 399.073 281.895 397.067C281.702 396 281.747 394.888 281.524 393.826C281.366 393.11 280.924 392.45 280.461 391.449ZM162.407 400.78C161.492 400.633 160.826 400.678 160.318 400.414C154.908 397.58 149.346 395.005 144.308 391.495C143.601 390.997 142.737 390.657 141.898 390.443C137.027 389.214 132.147 388.046 127.271 386.847C127.057 386.796 126.874 386.659 126.681 386.552C122.39 384.246 118.836 381.051 116.914 376.612C115.145 372.523 113.844 368.175 112.812 363.827C111.164 356.853 107.865 350.925 102.633 346.095C100.355 343.992 98.5302 341.615 96.7202 338.699C100.05 338.359 103.091 338.476 105.536 340.238C109.451 343.052 113.066 346.283 116.813 349.33C119.09 351.184 121.48 352.49 124.571 351.301C125.222 351.052 126.193 350.966 126.752 351.276C128.883 352.464 130.698 354.125 131.425 356.503C132.518 360.048 132.65 363.898 134.968 367.042C135.207 367.362 135.177 367.886 135.294 368.312C136.982 374.474 138.776 380.67 142.859 385.704C146.402 390.072 150.739 393.653 155.818 396.29C158.035 397.448 160.806 397.895 162.407 400.78ZM210.249 131.292C212.939 131.566 212.949 131.556 214.072 132.714C215.608 134.299 217.158 135.878 218.638 137.514C222.37 141.654 227.174 143.767 232.477 145.031C234.892 145.61 237.22 146.555 239.64 147.104C242.157 147.678 243.677 149.527 245.563 150.995C249.595 154.123 253.764 156.927 258.63 158.959C262.931 160.752 267.09 162.936 271.625 164.15C274.238 164.846 276.902 165.466 279.587 165.735C280.659 165.842 281.198 166.228 281.702 166.919C283.247 169.062 284.152 171.693 286.521 173.222C286.684 173.334 286.598 173.832 286.659 174.416C282.861 176.016 278.961 176.757 274.802 176.366C266.073 175.543 257.826 172.623 249.407 170.515C243.84 169.128 238.791 166.294 234.628 162.22C231.348 159.015 229.06 154.86 225.186 152.203C225.1 152.143 225.044 152.036 224.973 151.95C220.824 147.028 217.189 141.709 213.386 136.523C212.308 135.05 211.49 133.389 210.249 131.292ZM218.307 226.581C217.169 223.366 216.619 220.466 216.874 217.484C217.245 213.162 218.653 209.078 218.206 204.496C217.774 200.016 216.711 196.115 214.276 192.463C213.62 191.478 212.811 190.528 212.42 189.441C210.829 185.017 209.349 180.557 207.885 176.092C207.173 173.913 206.675 171.663 205.948 169.489C204.692 165.715 202.282 162.606 199.847 159.538C198.001 157.212 196.08 154.951 194.158 152.691C193.293 151.67 192.348 150.715 190.97 149.232C195.947 149.049 200.116 150.06 203.65 151.787C209.308 154.56 213.32 159.386 216.182 165.136C218.46 169.727 221.088 174.147 223.564 178.637C224.724 180.745 226.406 182.726 226.945 184.976C229.015 193.621 228.577 202.19 225.298 210.556C224.093 213.634 223.193 216.829 222.009 219.907C221.16 222.127 220.448 224.468 218.307 226.581ZM85.164 367.535C85.3775 367.525 85.586 367.51 85.7944 367.5C86.3232 370.263 86.8062 373.036 87.3908 375.784C87.8891 378.121 88.2755 380.518 89.1144 382.733C90.2685 385.785 91.8039 388.716 93.1918 391.637C94.5035 394.405 95.6424 397.184 96.4864 400.079C97.2744 402.791 97.5845 405.483 97.1931 408.48C96.4915 413.814 95.4034 419.411 98.698 424.465C99.5877 425.821 100.533 427.152 101.301 428.58C102.582 430.962 103.375 433.471 102.506 436.757C100.02 435.452 97.7116 434.456 95.6424 433.1C93.446 431.663 91.4632 429.9 89.4041 428.254C85.9062 425.456 83.2015 422.129 81.6915 417.791C80.695 414.926 80.3696 412.056 80.0036 409.09C79.0122 401.08 80.6899 393.303 81.6 385.476C82.2559 379.853 84.2844 374.428 84.7318 368.729C84.7674 368.322 85.0165 367.931 85.164 367.535ZM38.3238 272.631C38.2577 272.433 38.1967 272.24 38.1357 272.042C39.4322 271.082 40.8354 270.234 42.0098 269.142C46.3161 265.124 51.5019 263.372 57.247 262.889C63.8055 262.335 70.3742 262.518 76.9175 261.025C83.8726 259.43 91.1277 259.257 98.0726 257.297C99.4911 256.895 101.245 256.951 102.653 257.398C109.359 259.516 116.065 261.67 122.151 265.322C123.87 266.353 125.603 267.354 127.728 268.603C125.949 269.248 124.744 269.98 123.483 270.092C119.421 270.457 115.343 270.691 111.261 270.782C109.639 270.818 107.966 270.508 106.385 270.092C103.197 269.253 100.015 268.349 96.9084 267.262C94.1629 266.307 91.4734 266.272 88.7839 267.161C86.4096 267.943 84.0912 268.903 81.7576 269.812C80.6442 270.249 79.5714 270.777 78.4529 271.199C77.7513 271.463 77.0243 271.661 76.2871 271.793C74.9855 272.022 73.6738 272.22 72.357 272.352C70.542 272.535 68.7168 272.728 66.8967 272.763C64.502 272.804 62.0769 272.469 59.7128 272.718C57.974 272.906 56.4793 272.677 55.1015 271.768C53.5813 270.772 52.0205 270.823 50.3224 271.072C46.3314 271.661 42.3199 272.118 38.3238 272.631ZM27.4438 273.617C28.0539 272.636 28.8877 273.048 29.7011 273.419C30.6417 273.845 31.5467 274.368 32.5177 274.699C34.6073 275.405 36.5393 274.531 38.5831 274.17C43.2249 273.353 47.9633 273.073 52.6662 272.636C53.2813 272.581 54.0338 272.728 54.5524 273.053C57.2317 274.729 60.0789 274.567 63.048 274.226C64.8528 274.018 66.7238 274.287 68.5541 274.45C72.1435 274.765 75.3872 273.2 78.8241 272.672C78.9207 272.657 79.002 272.54 79.1037 272.499C80.4256 271.981 81.7525 271.473 83.0795 270.955C84.2031 270.523 85.3826 270.198 86.435 269.629C88.1789 268.685 90.0295 268.446 91.9564 268.339C96.0237 268.106 99.8978 269.096 103.533 270.655C107.997 272.57 112.512 272.494 117.138 272.022C118.287 271.905 119.446 271.874 120.6 271.803C117.57 272.748 114.433 274.074 111.485 273.744C106.365 273.18 102.13 275.323 97.8947 277.188C92.9885 279.341 88.0975 281.221 82.7795 282.008C81.056 282.262 79.3935 282.887 77.6852 283.268C72.7333 284.38 67.8016 285.584 62.8192 286.508C57.8825 287.433 53.261 285.497 48.5785 284.385C44.9586 283.527 41.3743 282.43 38.1713 280.469C34.6022 278.295 31.1196 275.974 27.4438 273.617ZM143.184 279.656C146.646 281.048 150.226 282.282 152.478 285.564C153.017 286.356 153.861 287.042 154.705 287.519C157.003 288.804 159.347 290.003 161.716 291.141C164.731 292.593 167.807 294.183 169.2 297.297C171.015 301.36 173.877 304.688 176.084 308.441C177.98 311.667 180.176 314.948 181.01 318.498C181.966 322.577 182.479 326.971 181.081 331.243C180.68 332.472 180.451 333.879 180.614 335.144C181.168 339.471 180.675 343.708 179.876 347.934C179.709 348.812 179.546 349.686 179.383 350.565C178.56 349.132 178.27 347.756 178.036 346.369C177.37 342.412 176.821 338.435 176.012 334.509C175.697 332.985 174.391 331.603 174.279 330.1C174.075 327.418 172.632 325.66 170.877 323.954C168.371 321.516 165.529 319.326 163.475 316.553C159.499 311.194 155.625 305.734 153.912 299.06C153.154 296.113 152 293.167 150.485 290.536C148.314 286.762 145.64 283.273 143.184 279.656ZM216.32 227.623C214.291 227.999 213.615 227.922 213.279 226.729C212.517 223.996 211.912 221.217 211.296 218.444C211.108 217.596 211.24 216.656 210.971 215.843C209.227 210.602 206.416 206.096 201.83 202.815C200.757 202.048 199.537 201.25 198.906 200.163C198.012 198.599 197.162 196.78 197.081 195.038C196.99 192.905 197.579 190.705 198.113 188.598C200.34 179.769 198.805 172.1 191.88 165.689C189.826 163.79 188.438 161.275 188.331 158.116C188.214 154.723 187.467 151.35 186.989 147.922C187.309 148.094 187.864 148.257 188.245 148.607C191.036 151.193 193.909 153.677 195.988 156.968C197.569 159.477 199.75 161.621 201.291 164.15C204.102 168.773 206.07 173.771 207.27 179.089C208.332 183.752 209.797 188.313 212.669 192.26C214.357 194.581 215.684 196.989 215.796 199.991C215.892 202.54 216.467 205.065 216.569 207.615C216.63 209.174 216.381 210.81 215.918 212.308C215.323 214.238 214.586 217.763 214.769 219.516C214.993 221.593 215.135 223.681 215.44 225.743C215.537 226.419 216.035 227.038 216.32 227.623ZM249.112 264.169C247.978 268.334 245.36 268.299 242.381 267.775C240.8 267.501 239.117 267.841 237.515 267.648C235.736 267.43 233.992 266.922 231.943 266.48C234.068 264.713 235.868 263.417 237.409 261.873C239.569 259.709 241.694 257.485 243.55 255.072C247.099 250.46 255.656 250.627 260.135 252.959C265.387 255.686 270.669 257.708 276.765 255.168C278.997 254.239 281.686 254.391 284.167 254.071C284.696 254.005 285.281 253.893 285.759 254.051C290.019 255.412 294.264 256.845 298.52 258.231C299.532 258.556 300.579 258.775 302.16 259.186C300.147 261.076 298.571 262.681 296.847 264.098C296.146 264.677 295.139 265.033 294.224 265.165C292.704 265.393 291.133 265.525 289.607 265.393C286.308 265.109 283.064 265.19 279.82 265.937C278.9 266.15 277.868 265.921 276.892 265.85C276.033 265.789 275.179 265.622 274.314 265.601C271.681 265.54 269.042 265.53 266.408 265.49C262.387 265.434 258.365 264.824 254.354 265.993C252.732 266.465 250.897 266.236 249.112 264.169ZM382.54 208.341C382.398 208.443 382.261 208.544 382.118 208.646C379.607 205.888 377.044 203.17 374.584 200.372C371.304 196.633 367.522 193.418 363.454 190.66C360.389 188.582 356.738 187.394 353.49 185.56C350.856 184.072 348.177 182.492 345.975 180.46C343.169 177.87 340.794 174.807 338.278 171.907C335.736 168.966 332.075 168.031 328.709 166.624C327.51 166.121 326.366 165.791 325.313 164.882C322.12 162.108 318.755 159.533 315.465 156.882C316.767 156.206 317.855 155.977 318.887 156.13C321.383 156.49 323.854 157.019 326.335 157.491C333.885 158.929 340.642 162.185 346.85 166.609C352.01 170.281 356.952 174.258 362.916 176.676C366.363 178.068 368.93 180.567 370.598 183.904C371.925 186.55 373.165 189.237 374.467 191.899C377.151 197.38 379.846 202.86 382.54 208.341ZM311.652 155.713C312.298 156.054 312.633 156.14 312.827 156.353C314.489 158.192 315.918 160.31 317.824 161.849C321.378 164.734 325.151 167.416 329.574 168.859C332.512 169.819 335.248 171.043 337.419 173.288C339.305 175.249 341.298 177.133 342.965 179.272C346.967 184.402 352.712 186.931 358.192 189.893C360.78 191.295 363.516 192.554 365.793 194.368C368.752 196.73 371.452 199.457 373.994 202.266C374.884 203.252 376.678 203.927 376.383 205.923C375.941 205.878 375.55 205.959 375.326 205.801C372.642 203.866 369.571 202.987 366.358 202.683C363.256 202.388 360.368 201.601 357.587 200.189C354.969 198.868 352.91 197.202 351.781 194.342C350.887 192.077 349.351 189.974 346.87 189.334C344.236 188.658 341.425 187.988 338.786 188.242C335.38 188.567 332.731 187.45 330.174 185.621C327.942 184.021 325.766 182.34 323.6 180.643C322.654 179.902 321.546 179.19 320.946 178.2C318.394 173.999 315.328 170.053 314.21 165.085C313.523 162.042 312.578 159.061 311.652 155.713ZM292.358 329.826C292.5 329.602 292.648 329.384 292.795 329.16C293.09 329.191 293.405 329.165 293.68 329.262C296.776 330.384 299.801 331.791 302.979 332.584C306.405 333.437 309.746 334.138 312.501 336.627C313.549 337.572 315.496 337.546 316.502 338.511C318.745 340.66 321.592 340.97 324.312 341.635C327.642 342.453 331.043 342.986 334.409 343.662C338.374 344.459 341.994 346.09 345.64 347.827C348.212 349.046 351.303 350.194 354.008 349.91C357.831 349.503 361.334 351.179 365.051 350.712C365.432 350.661 365.92 351.256 366.317 351.596C369.123 353.993 369.632 357.574 371.304 360.764C370.603 360.896 370.135 361.145 369.794 361.023C367.532 360.231 365.28 359.398 363.058 358.499C358.065 356.462 352.946 355.797 347.572 356.467C344.953 356.797 342.218 356.96 339.635 356.553C334.999 355.822 330.392 354.76 325.862 353.526C323.458 352.871 321.093 351.794 318.958 350.504C316.238 348.853 313.742 346.831 311.2 344.901C306.863 341.625 302.541 338.334 298.276 334.966C296.227 333.351 294.325 331.547 292.358 329.826ZM80.8425 357.64C79.9222 360.124 78.8546 362.654 78.0513 365.265C75.8142 372.513 71.5944 378.441 66.0934 383.53C62.8751 386.507 58.757 387.467 54.6541 388.437C50.1546 389.493 45.7822 390.794 42.3454 394.197C40.9625 395.563 39.3457 396.701 37.7646 397.859C31.5771 402.395 24.256 403.66 16.218 405.422C17.7737 403.701 18.6838 402.456 19.8277 401.486C21.7241 399.881 22.8782 397.89 24.1187 395.756C25.9694 392.582 28.547 389.707 32.4059 388.635C33.9921 388.198 35.797 388.274 37.1951 387.528C41.9335 385.003 47.2922 384.053 51.8476 380.797C55.3913 378.263 58.3452 375.352 61.1109 372.178C64.1513 368.683 67.1255 365.168 71.1978 362.837C74.3144 361.054 77.5174 359.428 80.8425 357.64ZM177.7 352.896C173.74 349.341 170.018 345.699 165.483 343.022C162.341 341.158 159.25 339.172 158.813 334.991C158.762 334.499 158.254 334.062 157.979 333.584C156.505 331.029 154.837 328.561 153.617 325.889C151.939 322.217 150.551 318.402 149.158 314.603C148.716 313.404 148.467 312.068 148.462 310.793C148.451 306.643 148.761 302.478 148.619 298.328C148.543 296.073 148.172 293.68 147.287 291.623C146.036 288.718 144.181 286.071 142.615 283.298C142.35 282.831 142.244 282.277 142.055 281.764C146.387 286.59 150.078 291.71 152.025 297.917C153.23 301.782 154.634 305.581 155.986 309.401C156.164 309.904 156.55 310.356 156.916 310.762C159.718 313.851 162.545 316.909 165.341 319.997C167.456 322.328 169.957 324.446 171.513 327.108C173.679 330.811 175.046 334.834 175.255 339.365C175.463 343.829 176.811 348.243 177.7 352.896ZM291.509 326.849C291.626 326.534 291.733 326.214 291.844 325.899C295.408 325.219 298.962 324.507 302.536 323.878C303.833 323.649 305.226 323.309 306.471 323.552C309.466 324.137 312.394 325.071 315.364 325.798C316.95 326.184 318.562 326.62 320.178 326.697C327.016 327.027 333.021 329.241 338.039 333.996C341.12 336.916 344.48 338.994 349.082 338.618C351.247 338.44 353.708 338.654 355.538 340.182C358.223 342.438 360.775 344.856 363.317 347.283C363.775 347.72 363.897 348.513 364.319 349.478C363.205 349.234 362.539 349.158 361.924 348.939C359.102 347.923 356.271 347.507 353.22 347.791C351.456 347.954 349.544 347.309 347.8 346.72C345.528 345.958 343.377 344.845 341.145 343.962C336.193 341.996 331.018 340.985 325.745 340.381C321.266 339.868 317.596 337.495 313.777 335.403C311.012 333.884 308.215 332.05 305.211 331.446C300.823 330.562 296.995 328.352 292.765 327.205C292.348 327.088 291.931 326.966 291.509 326.849ZM85.7741 360.912C85.952 360.82 86.135 360.734 86.313 360.647C88.7432 362.659 91.6717 364.31 93.4715 366.778C95.3882 369.409 97.3964 371.995 99.2521 374.672C100.747 376.836 101.876 379.187 102.079 381.95C102.282 384.764 102.648 387.604 103.314 390.337C103.955 392.983 105.084 395.507 105.968 398.098C106.68 400.175 107.316 402.283 108.058 404.351C108.754 406.286 110.02 408.008 108.993 410.334C108.561 411.309 109.11 412.706 109.166 413.91C109.202 414.667 109.354 415.495 109.115 416.17C107.982 419.335 108.038 422.885 105.816 425.73C105.033 426.741 104.875 428.234 104.27 429.961C101.901 425.923 98.7132 422.672 98.3624 418.07C98.1489 415.231 98.1438 412.31 98.5607 409.501C99.5724 402.644 97.5642 396.533 94.5391 390.57C93.1969 387.929 91.5395 385.338 90.7921 382.519C88.8907 375.378 87.4163 368.119 85.7741 360.912ZM92.8665 337.561C93.5833 338.141 94.6002 338.572 94.9561 339.324C96.7101 343.032 99.9182 345.445 102.633 348.299C105.607 351.423 108.373 354.73 109.802 358.859C111.312 363.218 112.557 367.672 113.894 372.091C114.576 374.357 115.003 376.714 116.284 378.756C119.238 383.474 123.178 386.898 128.694 388.356C131.674 389.138 134.567 390.255 137.546 391.012C141.613 392.038 145.599 393.12 148.756 396.132C149.194 396.549 150.033 396.508 150.602 396.818C151.268 397.184 151.848 397.712 152.468 398.169C152.366 398.372 152.27 398.58 152.173 398.784C151.121 398.616 150.073 398.387 149.016 398.291C146.057 398.027 143.037 397.367 140.144 397.722C137.287 398.078 134.531 398.316 131.648 398.123C126.844 397.798 122.497 396.716 118.892 393.237C114.815 389.295 110.676 385.364 108.815 379.883C107.336 375.55 106.436 371.02 105.323 366.57C104.199 362.075 103.243 357.534 99.9232 353.968C98.7336 352.688 97.8133 351.169 96.6592 349.859C93.6393 346.415 94.0002 341.859 92.8665 337.561ZM280.883 164.003C277.924 163.383 275.351 162.926 272.825 162.291C270.079 161.595 267.324 160.859 264.665 159.899C262.499 159.122 260.531 157.811 258.36 157.054C255.289 155.983 252.554 154.413 250.083 152.351C245.126 148.211 239.803 145.057 233.224 143.899C228.486 143.066 224.007 141.008 220.539 137.326C219.843 136.584 218.841 136.132 218.063 135.446C216.731 134.263 215.216 133.161 214.921 130.601C218.155 131.347 221.439 131.322 223.768 132.8C228.781 135.975 234.038 136.732 239.768 136.848C243.108 136.92 246.545 137.88 249.321 140.13C251.873 142.197 254.349 144.366 256.906 146.433C260.902 149.659 265.066 152.564 270.028 154.256C272.713 155.17 275.336 156.445 277.705 157.989C279.47 159.137 281.147 160.778 280.883 164.003ZM241.028 346.425C245.035 347.492 248.283 348.792 251.309 350.616C252.02 351.037 252.524 351.87 252.996 352.602C255.915 357.092 257.094 362.268 258.309 367.342C259.169 370.908 259.641 374.697 258.955 378.395C258.64 380.091 259.194 381.189 260.368 382.133C262.311 383.688 263.577 385.598 264.019 388.081C264.156 388.838 264.949 389.544 264.919 390.245C264.726 394.644 264.309 399.027 264.11 403.421C263.988 406.266 264.11 409.125 264.121 412.767C263.348 411.411 262.885 410.791 262.621 410.101C260.389 404.112 257.598 398.403 254.247 392.947C251.288 388.137 250.698 382.763 250.632 377.181C250.561 370.755 249.529 364.371 247.094 358.387C245.513 354.496 243.306 350.859 241.028 346.425ZM239.264 347.106C239.864 347.644 240.266 347.857 240.439 348.188C241.852 350.925 243.093 353.755 244.643 356.411C246.062 358.854 246.606 361.48 247.175 364.188C248.436 370.181 249.153 376.211 249.188 382.342C249.199 384.15 249.173 386.161 249.926 387.721C251.512 391.027 253.093 394.359 255.208 397.422C256.667 399.53 257.796 401.948 258.665 404.371C259.926 407.886 261.66 411.137 263.455 414.372C263.775 414.951 264.019 415.571 264.624 416.866C260.531 414.443 257.12 412.468 253.779 410.38C253.2 410.019 252.768 409.207 252.564 408.516C250.709 402.207 246.57 397.3 242.544 392.368C240.678 390.083 239.788 387.756 239.946 384.815C240.24 379.456 241.039 374.103 240.352 368.714C240.215 367.627 240.256 366.514 240.256 365.417C240.23 359.957 241.217 354.435 239.3 349.077C239.137 348.614 239.269 348.045 239.264 347.106ZM339.996 252.974C340.25 253.142 340.5 253.309 340.754 253.477C339.854 256.21 339.112 259.013 337.998 261.655C337.164 263.641 335.731 265.312 333.789 266.445C330.331 268.456 326.854 270.437 323.463 272.56C322.202 273.348 321.093 274.424 320.051 275.501C318.15 277.447 316.543 279.687 314.006 280.931C313.335 281.261 312.633 281.718 312.217 282.313C308.815 287.158 304.234 290.333 298.662 292.197C297.406 292.619 296.217 293.244 294.961 293.66C293.456 294.153 291.91 294.534 290.009 295.062C293.624 288.621 298.311 284.217 304.514 281.317C306.782 280.256 308.683 278.468 309.873 276.116C311.357 273.205 312.822 270.28 314.357 267.394C315.018 266.145 315.699 264.86 316.609 263.798C320.361 259.43 325.222 257.368 330.941 257.413C333.656 257.434 335.807 256.331 337.78 254.62C338.471 254.02 339.254 253.523 339.996 252.974ZM36.0461 343.997C35.675 343.159 35.0039 342.387 35.1157 341.757C35.3903 340.279 35.8427 338.75 36.585 337.45C38.4204 334.199 40.5761 331.136 42.381 327.87C44.2367 324.512 45.8331 321.013 47.5159 317.559C47.8006 316.98 47.7752 316.111 48.2023 315.756C51.6239 312.886 54.471 309.061 58.9756 307.877C62.2294 307.024 65.0206 305.378 67.9948 304.017C72.7028 301.868 77.5632 300.416 83.0744 301.33C82.6219 302.209 82.4389 303.082 81.9051 303.514C79.7036 305.287 78.4631 307.923 75.6922 309.3C72.9163 310.676 70.7657 313.256 68.1321 314.983C64.0496 317.655 58.8587 318.539 55.6913 322.725C55.5184 322.953 54.8422 322.735 54.4659 322.892C53.8711 323.141 53.1848 323.41 52.7933 323.878C51.0392 326.016 49.2649 328.149 47.7091 330.43C45.8127 333.193 44.9027 336.586 41.9742 338.709C40.0372 340.111 38.3797 341.889 36.0461 343.997ZM305.083 259.029C305.18 259.151 305.272 259.272 305.368 259.394C304.123 261.34 303.04 263.417 301.586 265.19C300.142 266.942 298.505 268.685 296.603 269.878C295.129 270.803 294.02 271.747 293.243 273.276C292.358 275.019 291.006 276.177 288.916 276.466C283.949 277.162 278.997 276.817 274.172 275.811C269.006 274.734 263.993 274.236 258.884 275.938C257.664 276.344 256.276 276.258 254.964 276.39C249.839 276.898 245.162 275.095 240.566 273.297C238.08 272.321 235.868 270.655 233.529 269.299C234.617 268.71 235.477 268.593 236.305 268.7C238.491 268.969 240.667 269.335 242.843 269.665C245.025 269.99 247.185 269.995 249.382 269.65C252.61 269.142 255.864 268.791 259.103 268.349C259.519 268.294 259.977 268.156 260.307 267.913C262.336 266.414 264.354 265.754 266.658 267.44C267.095 267.755 267.949 267.699 268.554 267.562C271.945 266.78 275.255 267.125 278.57 268.009C279.266 268.197 280.237 268.309 280.781 267.968C283.852 266.074 287.147 266.886 290.421 266.82C294.02 266.749 297.849 267.161 300.284 263.194C301.347 261.472 303.451 260.395 305.083 259.029ZM82.4236 346.039C82.6372 349.264 82.8202 351.967 80.8882 354.09C79.5002 355.619 77.8784 357.016 76.1498 358.143C74.05 359.52 71.5283 360.287 69.5455 361.785C67.1153 363.629 65.0359 365.935 62.8395 368.084C60.2415 370.628 57.7249 373.255 55.0913 375.759C53.4491 377.323 51.7154 378.801 49.9156 380.178C46.6262 382.692 42.4318 383.19 38.7966 384.983C37.0528 385.841 35.0293 386.171 33.1177 386.664C30.7586 387.269 28.3945 387.751 26.854 389.976C26.3659 390.687 25.461 391.109 24.317 391.998C24.8661 387.848 27.0116 385.145 28.7402 382.296C29.9299 380.335 31.8721 379.279 34.1853 379.045C38.8119 378.578 42.3657 375.825 45.6806 373.056C48.3447 370.827 50.3173 367.748 52.5086 364.985C54.0542 363.045 55.7878 361.414 58.1672 360.586C61.0499 359.581 63.9174 358.494 66.8459 357.63C73.2213 355.751 78.2953 352.144 82.4236 346.039ZM290.395 297.449C290.345 297.246 290.294 297.043 290.243 296.845C292.287 296.149 294.402 295.6 296.369 294.727C300.742 292.781 305.627 291.887 309.034 287.946C310.564 286.178 313.122 285.365 314.088 282.912C314.26 282.475 314.962 282.262 315.394 281.916C316.762 280.804 318.358 279.875 319.426 278.523C322.741 274.343 327.255 271.895 331.735 269.289C333.931 268.004 336.625 267.227 337.795 264.484C338.603 262.579 339.706 260.812 340.678 258.983C340.8 262.554 340.728 265.952 338.705 269.106C336.748 272.164 335.141 275.471 333.565 278.752C332.462 281.043 330.789 282.719 328.674 283.928C326.676 285.066 324.495 285.884 322.42 286.904C320.168 288.012 317.901 289.124 315.714 290.364C312.466 292.202 309.573 294.524 305.927 295.824C301.55 297.388 296.974 296.896 292.582 297.947C291.931 298.105 291.128 297.632 290.395 297.449ZM358.33 138.509C357.699 138.677 357.298 138.86 356.891 138.875C352.768 139.058 348.655 137.946 344.516 138.829C344.008 138.941 343.418 138.631 342.874 138.647C339.635 138.743 336.397 138.829 333.158 139.022C330.204 139.2 327.179 140.059 324.322 139.647C317.946 138.718 311.627 137.306 305.348 135.822C303.324 135.345 301.433 134.141 299.776 132.404C300.894 132.053 301.743 131.83 302.562 131.53C308.708 129.295 314.982 128.767 321.409 130.037C325.71 130.885 329.975 131.469 334.399 130.525C338.659 129.615 342.426 130.931 345.67 133.913C346.768 134.918 348.182 135.736 349.595 136.203C352.371 137.113 355.244 137.717 358.33 138.509ZM318.17 323.715C318.226 323.568 318.277 323.415 318.328 323.263C320.356 322.877 322.37 322.272 324.413 322.161C326.686 322.034 328.999 322.252 331.277 322.516C333.229 322.745 335.227 323.034 337.078 323.679C339.864 324.65 342.564 325.894 345.253 327.123C349.737 329.18 354.227 331.233 358.64 333.442C362.763 335.504 366.108 338.308 367.664 342.951C368.732 346.115 370.115 349.203 371.655 352.175C372.697 354.186 374.182 355.995 375.611 357.783C376.633 359.058 378.031 360.038 378.992 361.343C379.947 362.639 381.91 362.745 382.276 364.873C382.53 366.357 384.061 367.596 384.955 368.988C385.281 369.496 385.413 370.126 385.937 371.482C383.72 369.851 382.078 368.785 380.603 367.525C377.654 365 375.051 362.171 373.577 358.494C373.206 357.579 373.135 356.492 372.596 355.715C368.681 350.082 365.793 343.56 359.301 340.127C357.354 336.119 353.525 337.003 350.18 336.591C348.975 336.449 347.76 336.231 346.611 335.87C344.613 335.245 342.813 334.417 341.257 332.787C337.017 328.337 331.755 325.742 325.567 325.036C323.081 324.751 320.636 324.167 318.17 323.715ZM79.8612 308.619C79.3833 310.427 79.2511 311.514 78.8139 312.459C77.614 315.034 76.4549 317.655 74.955 320.053C73.806 321.897 72.1181 323.395 70.7505 325.112C68.5592 327.865 65.8036 329.886 62.5243 331.029C59.967 331.918 57.3792 332.858 54.8422 333.615C50.6935 334.849 48.3904 338.039 45.5433 340.574C43.3164 342.555 41.4861 344.861 38.2221 345.526C38.8932 343.189 40.754 341.955 42.2691 340.416C43.7892 338.867 45.3196 337.277 46.555 335.504C48.4972 332.716 50.2105 329.765 52.0001 326.874C53.4542 324.523 56.0217 323.644 58.1723 322.227C60.7906 320.505 63.287 318.234 66.1849 317.376C69.4794 316.39 71.6453 314.196 74.2077 312.363C75.8549 311.179 77.5835 310.117 79.8612 308.619ZM120.107 485.449C119.121 483.996 118.15 482.538 117.148 481.096C114.444 477.21 111.927 473.217 110.478 468.681C109.588 465.898 108.322 463.434 106.212 461.342C104.987 460.128 103.579 458.675 103.203 457.1C101.987 451.98 102.404 446.82 104.041 441.791C104.153 441.441 104.514 441.171 104.743 440.887C108.688 443.65 110.844 447.297 111.449 451.848C112.064 456.496 113.93 460.661 116.345 464.608C117.026 465.725 117.647 466.904 118.48 467.899C122.985 473.289 121.327 479.338 120.107 485.449ZM361.263 136.559C361.202 136.798 361.136 137.041 361.075 137.28C358.899 136.65 356.759 135.807 354.537 135.441C351.395 134.918 348.639 133.968 346.112 131.845C344.714 130.677 343.27 129.011 341.064 129.046C338.578 129.082 336.092 129.204 333.606 129.133C330.204 129.036 326.757 129.092 323.417 128.539C317.138 127.507 311.007 127.391 304.961 129.666C304.168 129.961 303.279 130.006 301.855 130.276C303.884 128.691 305.383 127.309 307.087 126.243C309.598 124.668 312.135 123.017 314.881 121.956C318.145 120.696 321.393 119.177 325.237 120.147C329.289 121.168 333.529 121.392 337.607 122.311C340.388 122.941 342.884 124.358 344.867 126.593C346.148 128.036 348.085 129.001 349.046 130.591C350.373 132.79 352.249 132.973 354.344 133.14C354.644 133.166 354.918 133.45 355.213 133.592C357.232 134.583 359.245 135.573 361.263 136.559ZM346.84 94.735C346.112 96.2131 344.913 96.1928 343.87 96.208C342.01 96.2385 340.144 96.0251 338.283 96.0353C337.251 96.0404 336.158 96.1115 335.197 96.4518C332.614 97.3712 330.082 98.4429 327.53 99.4487C326.92 99.6925 326.234 99.8144 325.695 100.165C321.536 102.837 317.118 104.889 312.206 105.696C309.054 106.214 305.882 106.91 302.714 106.936C295.215 106.997 287.706 106.687 280.1 108.754C280.741 108.007 281.188 107.418 281.712 106.915C282.103 106.534 282.607 106.27 283.059 105.955C288.138 102.435 294.061 101.557 299.943 100.642C302.414 100.256 304.961 100.063 307.458 100.17C311.983 100.363 316.375 100.155 320.732 98.6461C322.817 97.9249 324.693 96.8937 326.671 95.9998C333.143 93.0638 339.915 93.7292 346.84 94.735ZM274.624 114.438C274.497 114.118 274.375 113.793 274.248 113.468C276.165 112.462 278.066 111.436 279.993 110.451C284.152 108.317 288.743 108.724 293.156 108.47C297.432 108.221 301.682 109.115 306.044 108.099C310.3 107.103 314.718 107.083 318.775 104.975C322.573 102.994 326.752 101.76 330.56 99.8093C334.653 97.7115 338.883 97.4169 343.316 97.742C342.498 98.2804 341.618 98.6004 340.749 98.9458C339.651 99.3826 338.491 99.7077 337.48 100.302C333.697 102.522 330.047 104.99 326.183 107.058C322.725 108.912 318.999 109.867 315.053 110.608C310.305 111.507 305.587 111.299 300.894 111.558C295.769 111.837 290.629 111.294 285.972 114.098C285.794 114.199 285.565 114.27 285.362 114.275C281.783 114.336 278.204 114.387 274.624 114.438ZM130.443 244.507C129.706 252.573 132.472 259.933 134.368 267.745C128.588 266.282 123.92 263.504 119.065 260.365C119.695 258.993 120.031 257.525 120.9 256.504C123.509 253.426 126.335 250.541 128.333 246.975C128.852 246.046 129.732 245.319 130.443 244.507ZM166.561 115.362C171.122 116.434 175.779 116.886 180.303 118.288C184.722 119.66 189.46 120.117 193.339 123.332C187.711 123.601 182.479 122.448 177.161 121.498C172.845 120.726 169.134 119.548 166.449 115.982C166.414 115.936 166.475 115.82 166.561 115.362ZM158.645 114.463C151.263 116.211 136.727 117.486 126.818 113.214C127.388 112.919 127.861 112.488 128.349 112.457C131.074 112.279 133.809 112.035 136.529 112.132C140.032 112.254 143.53 112.604 147.013 112.98C150.902 113.402 154.771 113.966 158.645 114.463ZM340.266 158.487C341.638 158.588 343.021 158.817 344.389 158.766C349.438 158.573 352.752 161.611 355.838 164.927C356.921 166.091 357.486 167.752 356.535 169.504C350.724 166.466 346.55 160.986 340.266 158.487ZM246.509 298.567C246.407 298.846 246.306 299.131 246.204 299.42C244.577 299.242 242.879 299.298 241.328 298.841C238.807 298.105 236.417 296.946 233.921 296.119C231.216 295.214 228.476 294.412 225.715 293.711C223.697 293.198 222.705 291.918 221.866 289.322C225.659 291.059 228.791 292.583 231.994 293.929C234.078 294.808 236.254 295.479 238.415 296.164C241.1 297.007 243.809 297.764 246.509 298.567ZM68.91 80.792C64.5681 75.8447 60.2314 71.3748 56.459 66.4731C52.6916 61.5817 47.5058 57.7264 45.3552 51.6158C53.2813 60.7029 60.9533 69.983 68.6049 79.2936C68.8286 79.5678 68.7727 80.0758 68.91 80.792ZM131.923 228.694C132.06 221.827 136.214 217.103 138.537 211.678C137.47 217.586 136.819 223.656 131.923 228.694ZM233.55 307.974C234.206 306.089 235.197 306.668 236.28 307.09C239.818 308.456 243.372 309.782 246.946 311.042C248.69 311.662 250.495 312.088 252.275 312.601C252.183 312.901 252.097 313.206 252.005 313.505C245.701 312.52 239.544 311.016 233.55 307.974ZM273.186 351.57C269.8 345.841 264.37 342.504 261.385 337.048C265.183 340.309 269.444 343.007 272.515 347.085C273.45 348.32 273.902 349.427 273.186 351.57ZM334.602 156.348C327.2 154.936 319.792 153.529 312.384 152.117C312.43 151.878 312.481 151.64 312.532 151.401C320.026 152.412 327.642 152.793 334.602 156.348ZM218.821 289.251C213.361 287.362 211.459 282.135 207.89 278.346C208.637 278.341 209.303 278.518 209.695 278.945C211.164 280.53 212.522 282.211 213.955 283.837C215.562 285.655 217.199 287.448 218.821 289.251ZM140.525 198.924C137.785 197.314 136.244 194.672 135.685 190.634C138.314 191.757 140.322 195.196 140.525 198.924ZM126.569 242.658C126.945 243.323 127.393 243.811 127.291 243.999C126.32 245.771 125.313 247.529 124.195 249.22C123.793 249.82 123.076 250.206 122.502 250.688C122.349 250.546 122.197 250.404 122.039 250.257C123.458 247.884 124.871 245.512 126.569 242.658ZM109.68 281.307C111.54 276.756 111.54 276.756 113.137 277.03C111.917 278.539 110.798 279.925 109.68 281.307ZM120.199 166.847C120.392 166.726 120.58 166.609 120.768 166.492C121.633 167.889 122.497 169.291 123.686 171.226C120.966 170.251 120.9 168.346 120.199 166.847ZM245.614 134.619C248.248 134.039 248.248 134.039 249.9 135.345C247.343 136.244 247.343 136.244 245.614 134.619ZM230.27 133.161C230.321 132.881 230.372 132.602 230.423 132.318C231.714 132.663 233.011 133.003 234.297 133.349C234.241 133.572 234.18 133.801 234.119 134.024C232.838 133.735 231.552 133.45 230.27 133.161ZM111.271 144.655C111.505 144.579 111.739 144.508 111.968 144.432C112.471 145.641 112.969 146.85 113.467 148.054C113.279 148.13 113.091 148.201 112.903 148.277C112.359 147.068 111.815 145.859 111.271 144.655ZM114.159 150.08C114.423 149.989 114.682 149.892 114.942 149.801C115.191 150.619 115.44 151.436 115.689 152.254C115.582 152.29 115.481 152.325 115.374 152.361C114.967 151.599 114.566 150.837 114.159 150.08ZM203.238 261.802C203.202 262.005 203.172 262.203 203.141 262.406C202.369 262.264 201.601 262.132 200.838 261.959C200.782 261.949 200.798 261.65 200.757 261.269C201.631 261.457 202.435 261.629 203.238 261.802ZM240.495 133.923C240.439 134.212 240.378 134.502 240.317 134.791C239.564 134.624 238.812 134.461 238.059 134.293C238.095 134.09 238.13 133.882 238.166 133.679C238.944 133.76 239.722 133.841 240.495 133.923ZM42.081 47.9637C41.8827 48.0907 41.6794 48.2177 41.476 48.3447C40.9676 47.5929 40.4591 46.8412 39.9507 46.0894C40.1134 45.9828 40.2812 45.871 40.449 45.7643C40.993 46.4958 41.537 47.2272 42.081 47.9637ZM118.831 254.782C118.694 254.65 118.557 254.518 118.419 254.386C118.994 253.685 119.563 252.984 120.138 252.283C120.3 252.43 120.458 252.573 120.611 252.715C120.021 253.406 119.426 254.097 118.831 254.782ZM178.239 249.18C178.448 249.017 178.656 248.855 178.86 248.692C179.348 249.373 179.831 250.053 180.319 250.739C180.171 250.846 180.024 250.952 179.876 251.064C179.332 250.434 178.783 249.81 178.239 249.18Z" fill="#3D3D3D" fill-opacity="0.1"/>
</svg>
